G04 #@! TF.GenerationSoftware,KiCad,Pcbnew,5.99.0-unknown-r17121-d4cea0f2*
G04 #@! TF.CreationDate,2019-12-07T19:13:35-06:00*
G04 #@! TF.ProjectId,8_led_pmod,385f6c65-645f-4706-9d6f-642e6b696361,A*
G04 #@! TF.SameCoordinates,Original*
G04 #@! TF.FileFunction,Soldermask,Top*
G04 #@! TF.FilePolarity,Negative*
%FSLAX46Y46*%
G04 Gerber Fmt 4.6, Leading zero omitted, Abs format (unit mm)*
G04 Created by KiCad (PCBNEW 5.99.0-unknown-r17121-d4cea0f2) date 2019-12-07 19:13:35*
%MOMM*%
%LPD*%
G04 APERTURE LIST*
%ADD10C,0.150000*%
G04 APERTURE END LIST*
D10*
X144216476Y-84629809D02*
X144502190Y-84391714D01*
X144216476Y-84201238D02*
X144883142Y-84201238D01*
X144883142Y-84486952D01*
X144835523Y-84582190D01*
X144740285Y-84629809D01*
X144645047Y-84629809D01*
X144549809Y-84582190D01*
X144502190Y-84486952D01*
X144502190Y-84201238D01*
X145216476Y-84391714D02*
X145168857Y-84153619D01*
X145026000Y-83915523D01*
X144787904Y-83772666D01*
X144549809Y-83725047D01*
X144311714Y-83772666D01*
X144073619Y-83915523D01*
X143930761Y-84153619D01*
X143883142Y-84391714D01*
X143930761Y-84629809D01*
X144073619Y-84867904D01*
X144311714Y-85010761D01*
X144549809Y-85058380D01*
X144787904Y-85010761D01*
X145026000Y-84867904D01*
X145168857Y-84629809D01*
X145216476Y-84391714D01*
X144835523Y-86296476D02*
X144883142Y-86201238D01*
X144883142Y-86010761D01*
X144835523Y-85915523D01*
X144740285Y-85820285D01*
X144645047Y-85772666D01*
X144454571Y-85772666D01*
X144359333Y-85820285D01*
X144264095Y-85915523D01*
X144216476Y-86010761D01*
X144216476Y-86201238D01*
X144264095Y-86296476D01*
X145216476Y-86106000D02*
X145168857Y-85867904D01*
X145026000Y-85629809D01*
X144787904Y-85486952D01*
X144549809Y-85439333D01*
X144311714Y-85486952D01*
X144073619Y-85629809D01*
X143930761Y-85867904D01*
X143883142Y-86106000D01*
X143930761Y-86344095D01*
X144073619Y-86582190D01*
X144311714Y-86725047D01*
X144549809Y-86772666D01*
X144787904Y-86725047D01*
X145026000Y-86582190D01*
X145168857Y-86344095D01*
X145216476Y-86106000D01*
X144216476Y-88058380D02*
X144502190Y-87820285D01*
X144216476Y-87629809D02*
X144883142Y-87629809D01*
X144883142Y-87915523D01*
X144835523Y-88010761D01*
X144740285Y-88058380D01*
X144645047Y-88058380D01*
X144549809Y-88010761D01*
X144502190Y-87915523D01*
X144502190Y-87629809D01*
X145216476Y-87820285D02*
X145168857Y-87582190D01*
X145026000Y-87344095D01*
X144787904Y-87201238D01*
X144549809Y-87153619D01*
X144311714Y-87201238D01*
X144073619Y-87344095D01*
X143930761Y-87582190D01*
X143883142Y-87820285D01*
X143930761Y-88058380D01*
X144073619Y-88296476D01*
X144311714Y-88439333D01*
X144549809Y-88486952D01*
X144787904Y-88439333D01*
X145026000Y-88296476D01*
X145168857Y-88058380D01*
X145216476Y-87820285D01*
G36*
X116889902Y-96889283D02*
G01*
X116934637Y-96889595D01*
X116978460Y-96898590D01*
X117028360Y-96903835D01*
X117070132Y-96917408D01*
X117107723Y-96925124D01*
X117154851Y-96944935D01*
X117208488Y-96962363D01*
X117241099Y-96981191D01*
X117270614Y-96993598D01*
X117318301Y-97025763D01*
X117372511Y-97057061D01*
X117395826Y-97078054D01*
X117417101Y-97092404D01*
X117462183Y-97137802D01*
X117513261Y-97183793D01*
X117528003Y-97204083D01*
X117541608Y-97217784D01*
X117580643Y-97276537D01*
X117624586Y-97337019D01*
X117632221Y-97354168D01*
X117639388Y-97364955D01*
X117668865Y-97436472D01*
X117701621Y-97510042D01*
X117704211Y-97522225D01*
X117706724Y-97528323D01*
X117723292Y-97611997D01*
X117740999Y-97695301D01*
X117740999Y-97884699D01*
X117738115Y-97898269D01*
X117738030Y-97904331D01*
X117719342Y-97986585D01*
X117701621Y-98069958D01*
X117699129Y-98075555D01*
X117699078Y-98075780D01*
X117627210Y-98237197D01*
X117627078Y-98237385D01*
X117624586Y-98242981D01*
X117574480Y-98311946D01*
X117525357Y-98381582D01*
X117520585Y-98386126D01*
X117513261Y-98396207D01*
X117453396Y-98450110D01*
X117397396Y-98503438D01*
X117386464Y-98510376D01*
X117372511Y-98522939D01*
X117307764Y-98560321D01*
X117248211Y-98598114D01*
X117230209Y-98605097D01*
X117208488Y-98617637D01*
X117143115Y-98638878D01*
X117083468Y-98662014D01*
X117058200Y-98666469D01*
X117028360Y-98676165D01*
X116966095Y-98682709D01*
X116909460Y-98692695D01*
X116877459Y-98692025D01*
X116840000Y-98695962D01*
X116783902Y-98690066D01*
X116732799Y-98688996D01*
X116695323Y-98680756D01*
X116651640Y-98676165D01*
X116603917Y-98660659D01*
X116560225Y-98651052D01*
X116519230Y-98633142D01*
X116471512Y-98617637D01*
X116433473Y-98595675D01*
X116398310Y-98580313D01*
X116356337Y-98551141D01*
X116307489Y-98522939D01*
X116279504Y-98497741D01*
X116253215Y-98479470D01*
X116213257Y-98438092D01*
X116166739Y-98396207D01*
X116148296Y-98370823D01*
X116130473Y-98352366D01*
X116095821Y-98298597D01*
X116055414Y-98242981D01*
X116045212Y-98220066D01*
X116034754Y-98203839D01*
X116008789Y-98138261D01*
X115978379Y-98069958D01*
X115974476Y-98051596D01*
X115969707Y-98039551D01*
X115955740Y-97963448D01*
X115939001Y-97884699D01*
X115939001Y-97872246D01*
X115937811Y-97865762D01*
X115939001Y-97780535D01*
X115939001Y-97695301D01*
X115940275Y-97689308D01*
X115940278Y-97689077D01*
X115977015Y-97516246D01*
X115977105Y-97516036D01*
X115978379Y-97510042D01*
X116013042Y-97432188D01*
X116046622Y-97353839D01*
X116050348Y-97348397D01*
X116055414Y-97337019D01*
X116102746Y-97271872D01*
X116146452Y-97208041D01*
X116155706Y-97198979D01*
X116166739Y-97183793D01*
X116222297Y-97133769D01*
X116272693Y-97084417D01*
X116288848Y-97073846D01*
X116307489Y-97057061D01*
X116367026Y-97022687D01*
X116420551Y-96987662D01*
X116444340Y-96978050D01*
X116471512Y-96962363D01*
X116531045Y-96943019D01*
X116584376Y-96921472D01*
X116615820Y-96915474D01*
X116651640Y-96903835D01*
X116707744Y-96897938D01*
X116757945Y-96888362D01*
X116796312Y-96888630D01*
X116840000Y-96884038D01*
X116889902Y-96889283D01*
G37*
G36*
X114349902Y-96889283D02*
G01*
X114394637Y-96889595D01*
X114438460Y-96898590D01*
X114488360Y-96903835D01*
X114530132Y-96917408D01*
X114567723Y-96925124D01*
X114614851Y-96944935D01*
X114668488Y-96962363D01*
X114701099Y-96981191D01*
X114730614Y-96993598D01*
X114778301Y-97025763D01*
X114832511Y-97057061D01*
X114855826Y-97078054D01*
X114877101Y-97092404D01*
X114922183Y-97137802D01*
X114973261Y-97183793D01*
X114988003Y-97204083D01*
X115001608Y-97217784D01*
X115040643Y-97276537D01*
X115084586Y-97337019D01*
X115092221Y-97354168D01*
X115099388Y-97364955D01*
X115128865Y-97436472D01*
X115161621Y-97510042D01*
X115164211Y-97522225D01*
X115166724Y-97528323D01*
X115183292Y-97611997D01*
X115200999Y-97695301D01*
X115200999Y-97884699D01*
X115198115Y-97898269D01*
X115198030Y-97904331D01*
X115179342Y-97986585D01*
X115161621Y-98069958D01*
X115159129Y-98075555D01*
X115159078Y-98075780D01*
X115087210Y-98237197D01*
X115087078Y-98237385D01*
X115084586Y-98242981D01*
X115034480Y-98311946D01*
X114985357Y-98381582D01*
X114980585Y-98386126D01*
X114973261Y-98396207D01*
X114913396Y-98450110D01*
X114857396Y-98503438D01*
X114846464Y-98510376D01*
X114832511Y-98522939D01*
X114767764Y-98560321D01*
X114708211Y-98598114D01*
X114690209Y-98605097D01*
X114668488Y-98617637D01*
X114603115Y-98638878D01*
X114543468Y-98662014D01*
X114518200Y-98666469D01*
X114488360Y-98676165D01*
X114426095Y-98682709D01*
X114369460Y-98692695D01*
X114337459Y-98692025D01*
X114300000Y-98695962D01*
X114243902Y-98690066D01*
X114192799Y-98688996D01*
X114155323Y-98680756D01*
X114111640Y-98676165D01*
X114063917Y-98660659D01*
X114020225Y-98651052D01*
X113979230Y-98633142D01*
X113931512Y-98617637D01*
X113893473Y-98595675D01*
X113858310Y-98580313D01*
X113816337Y-98551141D01*
X113767489Y-98522939D01*
X113739504Y-98497741D01*
X113713215Y-98479470D01*
X113673257Y-98438092D01*
X113626739Y-98396207D01*
X113608296Y-98370823D01*
X113590473Y-98352366D01*
X113555821Y-98298597D01*
X113515414Y-98242981D01*
X113505212Y-98220066D01*
X113494754Y-98203839D01*
X113468789Y-98138261D01*
X113438379Y-98069958D01*
X113434476Y-98051596D01*
X113429707Y-98039551D01*
X113415740Y-97963448D01*
X113399001Y-97884699D01*
X113399001Y-97872246D01*
X113397811Y-97865762D01*
X113399001Y-97780535D01*
X113399001Y-97695301D01*
X113400275Y-97689308D01*
X113400278Y-97689077D01*
X113437015Y-97516246D01*
X113437105Y-97516036D01*
X113438379Y-97510042D01*
X113473042Y-97432188D01*
X113506622Y-97353839D01*
X113510348Y-97348397D01*
X113515414Y-97337019D01*
X113562746Y-97271872D01*
X113606452Y-97208041D01*
X113615706Y-97198979D01*
X113626739Y-97183793D01*
X113682297Y-97133769D01*
X113732693Y-97084417D01*
X113748848Y-97073846D01*
X113767489Y-97057061D01*
X113827026Y-97022687D01*
X113880551Y-96987662D01*
X113904340Y-96978050D01*
X113931512Y-96962363D01*
X113991045Y-96943019D01*
X114044376Y-96921472D01*
X114075820Y-96915474D01*
X114111640Y-96903835D01*
X114167744Y-96897938D01*
X114217945Y-96888362D01*
X114256312Y-96888630D01*
X114300000Y-96884038D01*
X114349902Y-96889283D01*
G37*
G36*
X114349902Y-94349283D02*
G01*
X114394637Y-94349595D01*
X114438460Y-94358590D01*
X114488360Y-94363835D01*
X114530132Y-94377408D01*
X114567723Y-94385124D01*
X114614851Y-94404935D01*
X114668488Y-94422363D01*
X114701099Y-94441191D01*
X114730614Y-94453598D01*
X114778301Y-94485763D01*
X114832511Y-94517061D01*
X114855826Y-94538054D01*
X114877101Y-94552404D01*
X114922183Y-94597802D01*
X114973261Y-94643793D01*
X114988003Y-94664083D01*
X115001608Y-94677784D01*
X115040643Y-94736537D01*
X115084586Y-94797019D01*
X115092221Y-94814168D01*
X115099388Y-94824955D01*
X115128865Y-94896472D01*
X115161621Y-94970042D01*
X115164211Y-94982225D01*
X115166724Y-94988323D01*
X115183292Y-95071997D01*
X115200999Y-95155301D01*
X115200999Y-95344699D01*
X115198115Y-95358269D01*
X115198030Y-95364331D01*
X115179342Y-95446585D01*
X115161621Y-95529958D01*
X115159129Y-95535555D01*
X115159078Y-95535780D01*
X115087210Y-95697197D01*
X115087078Y-95697385D01*
X115084586Y-95702981D01*
X115034480Y-95771946D01*
X114985357Y-95841582D01*
X114980585Y-95846126D01*
X114973261Y-95856207D01*
X114913396Y-95910110D01*
X114857396Y-95963438D01*
X114846464Y-95970376D01*
X114832511Y-95982939D01*
X114767764Y-96020321D01*
X114708211Y-96058114D01*
X114690209Y-96065097D01*
X114668488Y-96077637D01*
X114603115Y-96098878D01*
X114543468Y-96122014D01*
X114518200Y-96126469D01*
X114488360Y-96136165D01*
X114426095Y-96142709D01*
X114369460Y-96152695D01*
X114337459Y-96152025D01*
X114300000Y-96155962D01*
X114243902Y-96150066D01*
X114192799Y-96148996D01*
X114155323Y-96140756D01*
X114111640Y-96136165D01*
X114063917Y-96120659D01*
X114020225Y-96111052D01*
X113979230Y-96093142D01*
X113931512Y-96077637D01*
X113893473Y-96055675D01*
X113858310Y-96040313D01*
X113816337Y-96011141D01*
X113767489Y-95982939D01*
X113739504Y-95957741D01*
X113713215Y-95939470D01*
X113673257Y-95898092D01*
X113626739Y-95856207D01*
X113608296Y-95830823D01*
X113590473Y-95812366D01*
X113555821Y-95758597D01*
X113515414Y-95702981D01*
X113505212Y-95680066D01*
X113494754Y-95663839D01*
X113468789Y-95598261D01*
X113438379Y-95529958D01*
X113434476Y-95511596D01*
X113429707Y-95499551D01*
X113415740Y-95423448D01*
X113399001Y-95344699D01*
X113399001Y-95332246D01*
X113397811Y-95325762D01*
X113399001Y-95240535D01*
X113399001Y-95155301D01*
X113400275Y-95149308D01*
X113400278Y-95149077D01*
X113437015Y-94976246D01*
X113437105Y-94976036D01*
X113438379Y-94970042D01*
X113473042Y-94892188D01*
X113506622Y-94813839D01*
X113510348Y-94808397D01*
X113515414Y-94797019D01*
X113562746Y-94731872D01*
X113606452Y-94668041D01*
X113615706Y-94658979D01*
X113626739Y-94643793D01*
X113682297Y-94593769D01*
X113732693Y-94544417D01*
X113748848Y-94533846D01*
X113767489Y-94517061D01*
X113827026Y-94482687D01*
X113880551Y-94447662D01*
X113904340Y-94438050D01*
X113931512Y-94422363D01*
X113991045Y-94403019D01*
X114044376Y-94381472D01*
X114075820Y-94375474D01*
X114111640Y-94363835D01*
X114167744Y-94357938D01*
X114217945Y-94348362D01*
X114256312Y-94348630D01*
X114300000Y-94344038D01*
X114349902Y-94349283D01*
G37*
G36*
X116889902Y-94349283D02*
G01*
X116934637Y-94349595D01*
X116978460Y-94358590D01*
X117028360Y-94363835D01*
X117070132Y-94377408D01*
X117107723Y-94385124D01*
X117154851Y-94404935D01*
X117208488Y-94422363D01*
X117241099Y-94441191D01*
X117270614Y-94453598D01*
X117318301Y-94485763D01*
X117372511Y-94517061D01*
X117395826Y-94538054D01*
X117417101Y-94552404D01*
X117462183Y-94597802D01*
X117513261Y-94643793D01*
X117528003Y-94664083D01*
X117541608Y-94677784D01*
X117580643Y-94736537D01*
X117624586Y-94797019D01*
X117632221Y-94814168D01*
X117639388Y-94824955D01*
X117668865Y-94896472D01*
X117701621Y-94970042D01*
X117704211Y-94982225D01*
X117706724Y-94988323D01*
X117723292Y-95071997D01*
X117740999Y-95155301D01*
X117740999Y-95344699D01*
X117738115Y-95358269D01*
X117738030Y-95364331D01*
X117719342Y-95446585D01*
X117701621Y-95529958D01*
X117699129Y-95535555D01*
X117699078Y-95535780D01*
X117627210Y-95697197D01*
X117627078Y-95697385D01*
X117624586Y-95702981D01*
X117574480Y-95771946D01*
X117525357Y-95841582D01*
X117520585Y-95846126D01*
X117513261Y-95856207D01*
X117453396Y-95910110D01*
X117397396Y-95963438D01*
X117386464Y-95970376D01*
X117372511Y-95982939D01*
X117307764Y-96020321D01*
X117248211Y-96058114D01*
X117230209Y-96065097D01*
X117208488Y-96077637D01*
X117143115Y-96098878D01*
X117083468Y-96122014D01*
X117058200Y-96126469D01*
X117028360Y-96136165D01*
X116966095Y-96142709D01*
X116909460Y-96152695D01*
X116877459Y-96152025D01*
X116840000Y-96155962D01*
X116783902Y-96150066D01*
X116732799Y-96148996D01*
X116695323Y-96140756D01*
X116651640Y-96136165D01*
X116603917Y-96120659D01*
X116560225Y-96111052D01*
X116519230Y-96093142D01*
X116471512Y-96077637D01*
X116433473Y-96055675D01*
X116398310Y-96040313D01*
X116356337Y-96011141D01*
X116307489Y-95982939D01*
X116279504Y-95957741D01*
X116253215Y-95939470D01*
X116213257Y-95898092D01*
X116166739Y-95856207D01*
X116148296Y-95830823D01*
X116130473Y-95812366D01*
X116095821Y-95758597D01*
X116055414Y-95702981D01*
X116045212Y-95680066D01*
X116034754Y-95663839D01*
X116008789Y-95598261D01*
X115978379Y-95529958D01*
X115974476Y-95511596D01*
X115969707Y-95499551D01*
X115955740Y-95423448D01*
X115939001Y-95344699D01*
X115939001Y-95332246D01*
X115937811Y-95325762D01*
X115939001Y-95240535D01*
X115939001Y-95155301D01*
X115940275Y-95149308D01*
X115940278Y-95149077D01*
X115977015Y-94976246D01*
X115977105Y-94976036D01*
X115978379Y-94970042D01*
X116013042Y-94892188D01*
X116046622Y-94813839D01*
X116050348Y-94808397D01*
X116055414Y-94797019D01*
X116102746Y-94731872D01*
X116146452Y-94668041D01*
X116155706Y-94658979D01*
X116166739Y-94643793D01*
X116222297Y-94593769D01*
X116272693Y-94544417D01*
X116288848Y-94533846D01*
X116307489Y-94517061D01*
X116367026Y-94482687D01*
X116420551Y-94447662D01*
X116444340Y-94438050D01*
X116471512Y-94422363D01*
X116531045Y-94403019D01*
X116584376Y-94381472D01*
X116615820Y-94375474D01*
X116651640Y-94363835D01*
X116707744Y-94357938D01*
X116757945Y-94348362D01*
X116796312Y-94348630D01*
X116840000Y-94344038D01*
X116889902Y-94349283D01*
G37*
G36*
X133987976Y-94397826D02*
G01*
X134029766Y-94395782D01*
X134074056Y-94402639D01*
X134124810Y-94405476D01*
X134165163Y-94416743D01*
X134200621Y-94422232D01*
X134248204Y-94439928D01*
X134302898Y-94455199D01*
X134334622Y-94472067D01*
X134362659Y-94482494D01*
X134410757Y-94512549D01*
X134466153Y-94542004D01*
X134488968Y-94561421D01*
X134509271Y-94574108D01*
X134554641Y-94617313D01*
X134606961Y-94661841D01*
X134621463Y-94680947D01*
X134634472Y-94693335D01*
X134673616Y-94749655D01*
X134718751Y-94809118D01*
X134726302Y-94825459D01*
X134733142Y-94835301D01*
X134762508Y-94903817D01*
X134796307Y-94976965D01*
X134798885Y-94988692D01*
X134801247Y-94994202D01*
X134817429Y-95073036D01*
X134836011Y-95157551D01*
X134835345Y-95348388D01*
X134816181Y-95432738D01*
X134799443Y-95511485D01*
X134797041Y-95516982D01*
X134794381Y-95528692D01*
X134760069Y-95601609D01*
X134730227Y-95669915D01*
X134723318Y-95679709D01*
X134715655Y-95695994D01*
X134670114Y-95755130D01*
X134630570Y-95811187D01*
X134617472Y-95823487D01*
X134602840Y-95842487D01*
X134550227Y-95886635D01*
X134504544Y-95929534D01*
X134484147Y-95942082D01*
X134461199Y-95961338D01*
X134405600Y-95990405D01*
X134357293Y-96020123D01*
X134329184Y-96030354D01*
X134297341Y-96047001D01*
X134242534Y-96061892D01*
X134194831Y-96079254D01*
X134159340Y-96084495D01*
X134118911Y-96095479D01*
X134068139Y-96097962D01*
X134023803Y-96104509D01*
X133982027Y-96102174D01*
X133934233Y-96104511D01*
X133889992Y-96097028D01*
X133851189Y-96094859D01*
X133804980Y-96082650D01*
X133751923Y-96073676D01*
X133715839Y-96059097D01*
X133684035Y-96050694D01*
X133635897Y-96026799D01*
X133580488Y-96004412D01*
X133553311Y-95985804D01*
X133529182Y-95973826D01*
X133482128Y-95937063D01*
X133427926Y-95899950D01*
X133409469Y-95880295D01*
X133392950Y-95867389D01*
X133350400Y-95817393D01*
X133301354Y-95765164D01*
X133290608Y-95747138D01*
X133280896Y-95735726D01*
X133246401Y-95672981D01*
X133206678Y-95606344D01*
X133201943Y-95592111D01*
X133197610Y-95584229D01*
X133174692Y-95510192D01*
X133148314Y-95430898D01*
X133147372Y-95421934D01*
X133146486Y-95419072D01*
X133138347Y-95336068D01*
X133128987Y-95247012D01*
X133138967Y-95158044D01*
X133147687Y-95075078D01*
X133148593Y-95072220D01*
X133149598Y-95063265D01*
X133176530Y-94984153D01*
X133199963Y-94910281D01*
X133204350Y-94902432D01*
X133209184Y-94888231D01*
X133249382Y-94821857D01*
X133284304Y-94759371D01*
X133294092Y-94748031D01*
X133304967Y-94730075D01*
X133354385Y-94678181D01*
X133397273Y-94628495D01*
X133413879Y-94615707D01*
X133432477Y-94596177D01*
X133486952Y-94559433D01*
X133534250Y-94523009D01*
X133558458Y-94511202D01*
X133585765Y-94492783D01*
X133641319Y-94470787D01*
X133689633Y-94447223D01*
X133721503Y-94439040D01*
X133757679Y-94424717D01*
X133810795Y-94416114D01*
X133857088Y-94404228D01*
X133895903Y-94402330D01*
X133940199Y-94395155D01*
X133987976Y-94397826D01*
G37*
G36*
X136527976Y-94397826D02*
G01*
X136569766Y-94395782D01*
X136614056Y-94402639D01*
X136664810Y-94405476D01*
X136705163Y-94416743D01*
X136740621Y-94422232D01*
X136788204Y-94439928D01*
X136842898Y-94455199D01*
X136874622Y-94472067D01*
X136902659Y-94482494D01*
X136950757Y-94512549D01*
X137006153Y-94542004D01*
X137028968Y-94561421D01*
X137049271Y-94574108D01*
X137094641Y-94617313D01*
X137146961Y-94661841D01*
X137161463Y-94680947D01*
X137174472Y-94693335D01*
X137213616Y-94749655D01*
X137258751Y-94809118D01*
X137266302Y-94825459D01*
X137273142Y-94835301D01*
X137302508Y-94903817D01*
X137336307Y-94976965D01*
X137338885Y-94988692D01*
X137341247Y-94994202D01*
X137357429Y-95073036D01*
X137376011Y-95157551D01*
X137375345Y-95348388D01*
X137356181Y-95432738D01*
X137339443Y-95511485D01*
X137337041Y-95516982D01*
X137334381Y-95528692D01*
X137300069Y-95601609D01*
X137270227Y-95669915D01*
X137263318Y-95679709D01*
X137255655Y-95695994D01*
X137210114Y-95755130D01*
X137170570Y-95811187D01*
X137157472Y-95823487D01*
X137142840Y-95842487D01*
X137090227Y-95886635D01*
X137044544Y-95929534D01*
X137024147Y-95942082D01*
X137001199Y-95961338D01*
X136945600Y-95990405D01*
X136897293Y-96020123D01*
X136869184Y-96030354D01*
X136837341Y-96047001D01*
X136782534Y-96061892D01*
X136734831Y-96079254D01*
X136699340Y-96084495D01*
X136658911Y-96095479D01*
X136608139Y-96097962D01*
X136563803Y-96104509D01*
X136522027Y-96102174D01*
X136474233Y-96104511D01*
X136429992Y-96097028D01*
X136391189Y-96094859D01*
X136344980Y-96082650D01*
X136291923Y-96073676D01*
X136255839Y-96059097D01*
X136224035Y-96050694D01*
X136175897Y-96026799D01*
X136120488Y-96004412D01*
X136093311Y-95985804D01*
X136069182Y-95973826D01*
X136022128Y-95937063D01*
X135967926Y-95899950D01*
X135949469Y-95880295D01*
X135932950Y-95867389D01*
X135890400Y-95817393D01*
X135841354Y-95765164D01*
X135830608Y-95747138D01*
X135820896Y-95735726D01*
X135786401Y-95672981D01*
X135746678Y-95606344D01*
X135741943Y-95592111D01*
X135737610Y-95584229D01*
X135714692Y-95510192D01*
X135688314Y-95430898D01*
X135687372Y-95421934D01*
X135686486Y-95419072D01*
X135678347Y-95336068D01*
X135668987Y-95247012D01*
X135678967Y-95158044D01*
X135687687Y-95075078D01*
X135688593Y-95072220D01*
X135689598Y-95063265D01*
X135716530Y-94984153D01*
X135739963Y-94910281D01*
X135744350Y-94902432D01*
X135749184Y-94888231D01*
X135789382Y-94821857D01*
X135824304Y-94759371D01*
X135834092Y-94748031D01*
X135844967Y-94730075D01*
X135894385Y-94678181D01*
X135937273Y-94628495D01*
X135953879Y-94615707D01*
X135972477Y-94596177D01*
X136026952Y-94559433D01*
X136074250Y-94523009D01*
X136098458Y-94511202D01*
X136125765Y-94492783D01*
X136181319Y-94470787D01*
X136229633Y-94447223D01*
X136261503Y-94439040D01*
X136297679Y-94424717D01*
X136350795Y-94416114D01*
X136397088Y-94404228D01*
X136435903Y-94402330D01*
X136480199Y-94395155D01*
X136527976Y-94397826D01*
G37*
G36*
X131447976Y-94397826D02*
G01*
X131489766Y-94395782D01*
X131534056Y-94402639D01*
X131584810Y-94405476D01*
X131625163Y-94416743D01*
X131660621Y-94422232D01*
X131708204Y-94439928D01*
X131762898Y-94455199D01*
X131794622Y-94472067D01*
X131822659Y-94482494D01*
X131870757Y-94512549D01*
X131926153Y-94542004D01*
X131948968Y-94561421D01*
X131969271Y-94574108D01*
X132014641Y-94617313D01*
X132066961Y-94661841D01*
X132081463Y-94680947D01*
X132094472Y-94693335D01*
X132133616Y-94749655D01*
X132178751Y-94809118D01*
X132186302Y-94825459D01*
X132193142Y-94835301D01*
X132222508Y-94903817D01*
X132256307Y-94976965D01*
X132258885Y-94988692D01*
X132261247Y-94994202D01*
X132277429Y-95073036D01*
X132296011Y-95157551D01*
X132295345Y-95348388D01*
X132276181Y-95432738D01*
X132259443Y-95511485D01*
X132257041Y-95516982D01*
X132254381Y-95528692D01*
X132220069Y-95601609D01*
X132190227Y-95669915D01*
X132183318Y-95679709D01*
X132175655Y-95695994D01*
X132130114Y-95755130D01*
X132090570Y-95811187D01*
X132077472Y-95823487D01*
X132062840Y-95842487D01*
X132010227Y-95886635D01*
X131964544Y-95929534D01*
X131944147Y-95942082D01*
X131921199Y-95961338D01*
X131865600Y-95990405D01*
X131817293Y-96020123D01*
X131789184Y-96030354D01*
X131757341Y-96047001D01*
X131702534Y-96061892D01*
X131654831Y-96079254D01*
X131619340Y-96084495D01*
X131578911Y-96095479D01*
X131528139Y-96097962D01*
X131483803Y-96104509D01*
X131442027Y-96102174D01*
X131394233Y-96104511D01*
X131349992Y-96097028D01*
X131311189Y-96094859D01*
X131264980Y-96082650D01*
X131211923Y-96073676D01*
X131175839Y-96059097D01*
X131144035Y-96050694D01*
X131095897Y-96026799D01*
X131040488Y-96004412D01*
X131013311Y-95985804D01*
X130989182Y-95973826D01*
X130942128Y-95937063D01*
X130887926Y-95899950D01*
X130869469Y-95880295D01*
X130852950Y-95867389D01*
X130810400Y-95817393D01*
X130761354Y-95765164D01*
X130750608Y-95747138D01*
X130740896Y-95735726D01*
X130706401Y-95672981D01*
X130666678Y-95606344D01*
X130661943Y-95592111D01*
X130657610Y-95584229D01*
X130634692Y-95510192D01*
X130608314Y-95430898D01*
X130607372Y-95421934D01*
X130606486Y-95419072D01*
X130598347Y-95336068D01*
X130588987Y-95247012D01*
X130598967Y-95158044D01*
X130607687Y-95075078D01*
X130608593Y-95072220D01*
X130609598Y-95063265D01*
X130636530Y-94984153D01*
X130659963Y-94910281D01*
X130664350Y-94902432D01*
X130669184Y-94888231D01*
X130709382Y-94821857D01*
X130744304Y-94759371D01*
X130754092Y-94748031D01*
X130764967Y-94730075D01*
X130814385Y-94678181D01*
X130857273Y-94628495D01*
X130873879Y-94615707D01*
X130892477Y-94596177D01*
X130946952Y-94559433D01*
X130994250Y-94523009D01*
X131018458Y-94511202D01*
X131045765Y-94492783D01*
X131101319Y-94470787D01*
X131149633Y-94447223D01*
X131181503Y-94439040D01*
X131217679Y-94424717D01*
X131270795Y-94416114D01*
X131317088Y-94404228D01*
X131355903Y-94402330D01*
X131400199Y-94395155D01*
X131447976Y-94397826D01*
G37*
G36*
X139067976Y-94397826D02*
G01*
X139109766Y-94395782D01*
X139154056Y-94402639D01*
X139204810Y-94405476D01*
X139245163Y-94416743D01*
X139280621Y-94422232D01*
X139328204Y-94439928D01*
X139382898Y-94455199D01*
X139414622Y-94472067D01*
X139442659Y-94482494D01*
X139490757Y-94512549D01*
X139546153Y-94542004D01*
X139568968Y-94561421D01*
X139589271Y-94574108D01*
X139634641Y-94617313D01*
X139686961Y-94661841D01*
X139701463Y-94680947D01*
X139714472Y-94693335D01*
X139753616Y-94749655D01*
X139798751Y-94809118D01*
X139806302Y-94825459D01*
X139813142Y-94835301D01*
X139842508Y-94903817D01*
X139876307Y-94976965D01*
X139878885Y-94988692D01*
X139881247Y-94994202D01*
X139897429Y-95073036D01*
X139916011Y-95157551D01*
X139915345Y-95348388D01*
X139896181Y-95432738D01*
X139879443Y-95511485D01*
X139877041Y-95516982D01*
X139874381Y-95528692D01*
X139840069Y-95601609D01*
X139810227Y-95669915D01*
X139803318Y-95679709D01*
X139795655Y-95695994D01*
X139750114Y-95755130D01*
X139710570Y-95811187D01*
X139697472Y-95823487D01*
X139682840Y-95842487D01*
X139630227Y-95886635D01*
X139584544Y-95929534D01*
X139564147Y-95942082D01*
X139541199Y-95961338D01*
X139485600Y-95990405D01*
X139437293Y-96020123D01*
X139409184Y-96030354D01*
X139377341Y-96047001D01*
X139322534Y-96061892D01*
X139274831Y-96079254D01*
X139239340Y-96084495D01*
X139198911Y-96095479D01*
X139148139Y-96097962D01*
X139103803Y-96104509D01*
X139062027Y-96102174D01*
X139014233Y-96104511D01*
X138969992Y-96097028D01*
X138931189Y-96094859D01*
X138884980Y-96082650D01*
X138831923Y-96073676D01*
X138795839Y-96059097D01*
X138764035Y-96050694D01*
X138715897Y-96026799D01*
X138660488Y-96004412D01*
X138633311Y-95985804D01*
X138609182Y-95973826D01*
X138562128Y-95937063D01*
X138507926Y-95899950D01*
X138489469Y-95880295D01*
X138472950Y-95867389D01*
X138430400Y-95817393D01*
X138381354Y-95765164D01*
X138370608Y-95747138D01*
X138360896Y-95735726D01*
X138326401Y-95672981D01*
X138286678Y-95606344D01*
X138281943Y-95592111D01*
X138277610Y-95584229D01*
X138254692Y-95510192D01*
X138228314Y-95430898D01*
X138227372Y-95421934D01*
X138226486Y-95419072D01*
X138218347Y-95336068D01*
X138208987Y-95247012D01*
X138218967Y-95158044D01*
X138227687Y-95075078D01*
X138228593Y-95072220D01*
X138229598Y-95063265D01*
X138256530Y-94984153D01*
X138279963Y-94910281D01*
X138284350Y-94902432D01*
X138289184Y-94888231D01*
X138329382Y-94821857D01*
X138364304Y-94759371D01*
X138374092Y-94748031D01*
X138384967Y-94730075D01*
X138434385Y-94678181D01*
X138477273Y-94628495D01*
X138493879Y-94615707D01*
X138512477Y-94596177D01*
X138566952Y-94559433D01*
X138614250Y-94523009D01*
X138638458Y-94511202D01*
X138665765Y-94492783D01*
X138721319Y-94470787D01*
X138769633Y-94447223D01*
X138801503Y-94439040D01*
X138837679Y-94424717D01*
X138890795Y-94416114D01*
X138937088Y-94404228D01*
X138975903Y-94402330D01*
X139020199Y-94395155D01*
X139067976Y-94397826D01*
G37*
G36*
X141607976Y-94397826D02*
G01*
X141649766Y-94395782D01*
X141694056Y-94402639D01*
X141744810Y-94405476D01*
X141785163Y-94416743D01*
X141820621Y-94422232D01*
X141868204Y-94439928D01*
X141922898Y-94455199D01*
X141954622Y-94472067D01*
X141982659Y-94482494D01*
X142030757Y-94512549D01*
X142086153Y-94542004D01*
X142108968Y-94561421D01*
X142129271Y-94574108D01*
X142174641Y-94617313D01*
X142226961Y-94661841D01*
X142241463Y-94680947D01*
X142254472Y-94693335D01*
X142293616Y-94749655D01*
X142338751Y-94809118D01*
X142346302Y-94825459D01*
X142353142Y-94835301D01*
X142382508Y-94903817D01*
X142416307Y-94976965D01*
X142418885Y-94988692D01*
X142421247Y-94994202D01*
X142437429Y-95073036D01*
X142456011Y-95157551D01*
X142455345Y-95348388D01*
X142436181Y-95432738D01*
X142419443Y-95511485D01*
X142417041Y-95516982D01*
X142414381Y-95528692D01*
X142380069Y-95601609D01*
X142350227Y-95669915D01*
X142343318Y-95679709D01*
X142335655Y-95695994D01*
X142290114Y-95755130D01*
X142250570Y-95811187D01*
X142237472Y-95823487D01*
X142222840Y-95842487D01*
X142170227Y-95886635D01*
X142124544Y-95929534D01*
X142104147Y-95942082D01*
X142081199Y-95961338D01*
X142025600Y-95990405D01*
X141977293Y-96020123D01*
X141949184Y-96030354D01*
X141917341Y-96047001D01*
X141862534Y-96061892D01*
X141814831Y-96079254D01*
X141779340Y-96084495D01*
X141738911Y-96095479D01*
X141688139Y-96097962D01*
X141643803Y-96104509D01*
X141602027Y-96102174D01*
X141554233Y-96104511D01*
X141509992Y-96097028D01*
X141471189Y-96094859D01*
X141424980Y-96082650D01*
X141371923Y-96073676D01*
X141335839Y-96059097D01*
X141304035Y-96050694D01*
X141255897Y-96026799D01*
X141200488Y-96004412D01*
X141173311Y-95985804D01*
X141149182Y-95973826D01*
X141102128Y-95937063D01*
X141047926Y-95899950D01*
X141029469Y-95880295D01*
X141012950Y-95867389D01*
X140970400Y-95817393D01*
X140921354Y-95765164D01*
X140910608Y-95747138D01*
X140900896Y-95735726D01*
X140866401Y-95672981D01*
X140826678Y-95606344D01*
X140821943Y-95592111D01*
X140817610Y-95584229D01*
X140794692Y-95510192D01*
X140768314Y-95430898D01*
X140767372Y-95421934D01*
X140766486Y-95419072D01*
X140758347Y-95336068D01*
X140748987Y-95247012D01*
X140758967Y-95158044D01*
X140767687Y-95075078D01*
X140768593Y-95072220D01*
X140769598Y-95063265D01*
X140796530Y-94984153D01*
X140819963Y-94910281D01*
X140824350Y-94902432D01*
X140829184Y-94888231D01*
X140869382Y-94821857D01*
X140904304Y-94759371D01*
X140914092Y-94748031D01*
X140924967Y-94730075D01*
X140974385Y-94678181D01*
X141017273Y-94628495D01*
X141033879Y-94615707D01*
X141052477Y-94596177D01*
X141106952Y-94559433D01*
X141154250Y-94523009D01*
X141178458Y-94511202D01*
X141205765Y-94492783D01*
X141261319Y-94470787D01*
X141309633Y-94447223D01*
X141341503Y-94439040D01*
X141377679Y-94424717D01*
X141430795Y-94416114D01*
X141477088Y-94404228D01*
X141515903Y-94402330D01*
X141560199Y-94395155D01*
X141607976Y-94397826D01*
G37*
G36*
X126367976Y-94397826D02*
G01*
X126409766Y-94395782D01*
X126454056Y-94402639D01*
X126504810Y-94405476D01*
X126545163Y-94416743D01*
X126580621Y-94422232D01*
X126628204Y-94439928D01*
X126682898Y-94455199D01*
X126714622Y-94472067D01*
X126742659Y-94482494D01*
X126790757Y-94512549D01*
X126846153Y-94542004D01*
X126868968Y-94561421D01*
X126889271Y-94574108D01*
X126934641Y-94617313D01*
X126986961Y-94661841D01*
X127001463Y-94680947D01*
X127014472Y-94693335D01*
X127053616Y-94749655D01*
X127098751Y-94809118D01*
X127106302Y-94825459D01*
X127113142Y-94835301D01*
X127142508Y-94903817D01*
X127176307Y-94976965D01*
X127178885Y-94988692D01*
X127181247Y-94994202D01*
X127197429Y-95073036D01*
X127216011Y-95157551D01*
X127215345Y-95348388D01*
X127196181Y-95432738D01*
X127179443Y-95511485D01*
X127177041Y-95516982D01*
X127174381Y-95528692D01*
X127140069Y-95601609D01*
X127110227Y-95669915D01*
X127103318Y-95679709D01*
X127095655Y-95695994D01*
X127050114Y-95755130D01*
X127010570Y-95811187D01*
X126997472Y-95823487D01*
X126982840Y-95842487D01*
X126930227Y-95886635D01*
X126884544Y-95929534D01*
X126864147Y-95942082D01*
X126841199Y-95961338D01*
X126785600Y-95990405D01*
X126737293Y-96020123D01*
X126709184Y-96030354D01*
X126677341Y-96047001D01*
X126622534Y-96061892D01*
X126574831Y-96079254D01*
X126539340Y-96084495D01*
X126498911Y-96095479D01*
X126448139Y-96097962D01*
X126403803Y-96104509D01*
X126362027Y-96102174D01*
X126314233Y-96104511D01*
X126269992Y-96097028D01*
X126231189Y-96094859D01*
X126184980Y-96082650D01*
X126131923Y-96073676D01*
X126095839Y-96059097D01*
X126064035Y-96050694D01*
X126015897Y-96026799D01*
X125960488Y-96004412D01*
X125933311Y-95985804D01*
X125909182Y-95973826D01*
X125862128Y-95937063D01*
X125807926Y-95899950D01*
X125789469Y-95880295D01*
X125772950Y-95867389D01*
X125730400Y-95817393D01*
X125681354Y-95765164D01*
X125670608Y-95747138D01*
X125660896Y-95735726D01*
X125626401Y-95672981D01*
X125586678Y-95606344D01*
X125581943Y-95592111D01*
X125577610Y-95584229D01*
X125554692Y-95510192D01*
X125528314Y-95430898D01*
X125527372Y-95421934D01*
X125526486Y-95419072D01*
X125518347Y-95336068D01*
X125508987Y-95247012D01*
X125518967Y-95158044D01*
X125527687Y-95075078D01*
X125528593Y-95072220D01*
X125529598Y-95063265D01*
X125556530Y-94984153D01*
X125579963Y-94910281D01*
X125584350Y-94902432D01*
X125589184Y-94888231D01*
X125629382Y-94821857D01*
X125664304Y-94759371D01*
X125674092Y-94748031D01*
X125684967Y-94730075D01*
X125734385Y-94678181D01*
X125777273Y-94628495D01*
X125793879Y-94615707D01*
X125812477Y-94596177D01*
X125866952Y-94559433D01*
X125914250Y-94523009D01*
X125938458Y-94511202D01*
X125965765Y-94492783D01*
X126021319Y-94470787D01*
X126069633Y-94447223D01*
X126101503Y-94439040D01*
X126137679Y-94424717D01*
X126190795Y-94416114D01*
X126237088Y-94404228D01*
X126275903Y-94402330D01*
X126320199Y-94395155D01*
X126367976Y-94397826D01*
G37*
G36*
X128907976Y-94397826D02*
G01*
X128949766Y-94395782D01*
X128994056Y-94402639D01*
X129044810Y-94405476D01*
X129085163Y-94416743D01*
X129120621Y-94422232D01*
X129168204Y-94439928D01*
X129222898Y-94455199D01*
X129254622Y-94472067D01*
X129282659Y-94482494D01*
X129330757Y-94512549D01*
X129386153Y-94542004D01*
X129408968Y-94561421D01*
X129429271Y-94574108D01*
X129474641Y-94617313D01*
X129526961Y-94661841D01*
X129541463Y-94680947D01*
X129554472Y-94693335D01*
X129593616Y-94749655D01*
X129638751Y-94809118D01*
X129646302Y-94825459D01*
X129653142Y-94835301D01*
X129682508Y-94903817D01*
X129716307Y-94976965D01*
X129718885Y-94988692D01*
X129721247Y-94994202D01*
X129737429Y-95073036D01*
X129756011Y-95157551D01*
X129755345Y-95348388D01*
X129736181Y-95432738D01*
X129719443Y-95511485D01*
X129717041Y-95516982D01*
X129714381Y-95528692D01*
X129680069Y-95601609D01*
X129650227Y-95669915D01*
X129643318Y-95679709D01*
X129635655Y-95695994D01*
X129590114Y-95755130D01*
X129550570Y-95811187D01*
X129537472Y-95823487D01*
X129522840Y-95842487D01*
X129470227Y-95886635D01*
X129424544Y-95929534D01*
X129404147Y-95942082D01*
X129381199Y-95961338D01*
X129325600Y-95990405D01*
X129277293Y-96020123D01*
X129249184Y-96030354D01*
X129217341Y-96047001D01*
X129162534Y-96061892D01*
X129114831Y-96079254D01*
X129079340Y-96084495D01*
X129038911Y-96095479D01*
X128988139Y-96097962D01*
X128943803Y-96104509D01*
X128902027Y-96102174D01*
X128854233Y-96104511D01*
X128809992Y-96097028D01*
X128771189Y-96094859D01*
X128724980Y-96082650D01*
X128671923Y-96073676D01*
X128635839Y-96059097D01*
X128604035Y-96050694D01*
X128555897Y-96026799D01*
X128500488Y-96004412D01*
X128473311Y-95985804D01*
X128449182Y-95973826D01*
X128402128Y-95937063D01*
X128347926Y-95899950D01*
X128329469Y-95880295D01*
X128312950Y-95867389D01*
X128270400Y-95817393D01*
X128221354Y-95765164D01*
X128210608Y-95747138D01*
X128200896Y-95735726D01*
X128166401Y-95672981D01*
X128126678Y-95606344D01*
X128121943Y-95592111D01*
X128117610Y-95584229D01*
X128094692Y-95510192D01*
X128068314Y-95430898D01*
X128067372Y-95421934D01*
X128066486Y-95419072D01*
X128058347Y-95336068D01*
X128048987Y-95247012D01*
X128058967Y-95158044D01*
X128067687Y-95075078D01*
X128068593Y-95072220D01*
X128069598Y-95063265D01*
X128096530Y-94984153D01*
X128119963Y-94910281D01*
X128124350Y-94902432D01*
X128129184Y-94888231D01*
X128169382Y-94821857D01*
X128204304Y-94759371D01*
X128214092Y-94748031D01*
X128224967Y-94730075D01*
X128274385Y-94678181D01*
X128317273Y-94628495D01*
X128333879Y-94615707D01*
X128352477Y-94596177D01*
X128406952Y-94559433D01*
X128454250Y-94523009D01*
X128478458Y-94511202D01*
X128505765Y-94492783D01*
X128561319Y-94470787D01*
X128609633Y-94447223D01*
X128641503Y-94439040D01*
X128677679Y-94424717D01*
X128730795Y-94416114D01*
X128777088Y-94404228D01*
X128815903Y-94402330D01*
X128860199Y-94395155D01*
X128907976Y-94397826D01*
G37*
G36*
X124644899Y-94401959D02*
G01*
X124661769Y-94413231D01*
X124673041Y-94430101D01*
X124679448Y-94462312D01*
X124679448Y-96037688D01*
X124676999Y-96050000D01*
X124673041Y-96069899D01*
X124661769Y-96086769D01*
X124644899Y-96098041D01*
X124625000Y-96101999D01*
X124612688Y-96104448D01*
X123037312Y-96104448D01*
X123005101Y-96098041D01*
X122988231Y-96086769D01*
X122976959Y-96069899D01*
X122970552Y-96037688D01*
X122970552Y-94462312D01*
X122976959Y-94430101D01*
X122988231Y-94413231D01*
X123005101Y-94401959D01*
X123037312Y-94395552D01*
X124612688Y-94395552D01*
X124644899Y-94401959D01*
G37*
G36*
X116889902Y-91809283D02*
G01*
X116934637Y-91809595D01*
X116978460Y-91818590D01*
X117028360Y-91823835D01*
X117070132Y-91837408D01*
X117107723Y-91845124D01*
X117154851Y-91864935D01*
X117208488Y-91882363D01*
X117241099Y-91901191D01*
X117270614Y-91913598D01*
X117318301Y-91945763D01*
X117372511Y-91977061D01*
X117395826Y-91998054D01*
X117417101Y-92012404D01*
X117462183Y-92057802D01*
X117513261Y-92103793D01*
X117528003Y-92124083D01*
X117541608Y-92137784D01*
X117580643Y-92196537D01*
X117624586Y-92257019D01*
X117632221Y-92274168D01*
X117639388Y-92284955D01*
X117668865Y-92356472D01*
X117701621Y-92430042D01*
X117704211Y-92442225D01*
X117706724Y-92448323D01*
X117723292Y-92531997D01*
X117740999Y-92615301D01*
X117740999Y-92804699D01*
X117738115Y-92818269D01*
X117738030Y-92824331D01*
X117719342Y-92906585D01*
X117701621Y-92989958D01*
X117699129Y-92995555D01*
X117699078Y-92995780D01*
X117627210Y-93157197D01*
X117627078Y-93157385D01*
X117624586Y-93162981D01*
X117574480Y-93231946D01*
X117525357Y-93301582D01*
X117520585Y-93306126D01*
X117513261Y-93316207D01*
X117453396Y-93370110D01*
X117397396Y-93423438D01*
X117386464Y-93430376D01*
X117372511Y-93442939D01*
X117307764Y-93480321D01*
X117248211Y-93518114D01*
X117230209Y-93525097D01*
X117208488Y-93537637D01*
X117143115Y-93558878D01*
X117083468Y-93582014D01*
X117058200Y-93586469D01*
X117028360Y-93596165D01*
X116966095Y-93602709D01*
X116909460Y-93612695D01*
X116877459Y-93612025D01*
X116840000Y-93615962D01*
X116783902Y-93610066D01*
X116732799Y-93608996D01*
X116695323Y-93600756D01*
X116651640Y-93596165D01*
X116603917Y-93580659D01*
X116560225Y-93571052D01*
X116519230Y-93553142D01*
X116471512Y-93537637D01*
X116433473Y-93515675D01*
X116398310Y-93500313D01*
X116356337Y-93471141D01*
X116307489Y-93442939D01*
X116279504Y-93417741D01*
X116253215Y-93399470D01*
X116213257Y-93358092D01*
X116166739Y-93316207D01*
X116148296Y-93290823D01*
X116130473Y-93272366D01*
X116095821Y-93218597D01*
X116055414Y-93162981D01*
X116045212Y-93140066D01*
X116034754Y-93123839D01*
X116008789Y-93058261D01*
X115978379Y-92989958D01*
X115974476Y-92971596D01*
X115969707Y-92959551D01*
X115955740Y-92883448D01*
X115939001Y-92804699D01*
X115939001Y-92792246D01*
X115937811Y-92785762D01*
X115939001Y-92700535D01*
X115939001Y-92615301D01*
X115940275Y-92609308D01*
X115940278Y-92609077D01*
X115977015Y-92436246D01*
X115977105Y-92436036D01*
X115978379Y-92430042D01*
X116013042Y-92352188D01*
X116046622Y-92273839D01*
X116050348Y-92268397D01*
X116055414Y-92257019D01*
X116102746Y-92191872D01*
X116146452Y-92128041D01*
X116155706Y-92118979D01*
X116166739Y-92103793D01*
X116222297Y-92053769D01*
X116272693Y-92004417D01*
X116288848Y-91993846D01*
X116307489Y-91977061D01*
X116367026Y-91942687D01*
X116420551Y-91907662D01*
X116444340Y-91898050D01*
X116471512Y-91882363D01*
X116531045Y-91863019D01*
X116584376Y-91841472D01*
X116615820Y-91835474D01*
X116651640Y-91823835D01*
X116707744Y-91817938D01*
X116757945Y-91808362D01*
X116796312Y-91808630D01*
X116840000Y-91804038D01*
X116889902Y-91809283D01*
G37*
G36*
X114349902Y-91809283D02*
G01*
X114394637Y-91809595D01*
X114438460Y-91818590D01*
X114488360Y-91823835D01*
X114530132Y-91837408D01*
X114567723Y-91845124D01*
X114614851Y-91864935D01*
X114668488Y-91882363D01*
X114701099Y-91901191D01*
X114730614Y-91913598D01*
X114778301Y-91945763D01*
X114832511Y-91977061D01*
X114855826Y-91998054D01*
X114877101Y-92012404D01*
X114922183Y-92057802D01*
X114973261Y-92103793D01*
X114988003Y-92124083D01*
X115001608Y-92137784D01*
X115040643Y-92196537D01*
X115084586Y-92257019D01*
X115092221Y-92274168D01*
X115099388Y-92284955D01*
X115128865Y-92356472D01*
X115161621Y-92430042D01*
X115164211Y-92442225D01*
X115166724Y-92448323D01*
X115183292Y-92531997D01*
X115200999Y-92615301D01*
X115200999Y-92804699D01*
X115198115Y-92818269D01*
X115198030Y-92824331D01*
X115179342Y-92906585D01*
X115161621Y-92989958D01*
X115159129Y-92995555D01*
X115159078Y-92995780D01*
X115087210Y-93157197D01*
X115087078Y-93157385D01*
X115084586Y-93162981D01*
X115034480Y-93231946D01*
X114985357Y-93301582D01*
X114980585Y-93306126D01*
X114973261Y-93316207D01*
X114913396Y-93370110D01*
X114857396Y-93423438D01*
X114846464Y-93430376D01*
X114832511Y-93442939D01*
X114767764Y-93480321D01*
X114708211Y-93518114D01*
X114690209Y-93525097D01*
X114668488Y-93537637D01*
X114603115Y-93558878D01*
X114543468Y-93582014D01*
X114518200Y-93586469D01*
X114488360Y-93596165D01*
X114426095Y-93602709D01*
X114369460Y-93612695D01*
X114337459Y-93612025D01*
X114300000Y-93615962D01*
X114243902Y-93610066D01*
X114192799Y-93608996D01*
X114155323Y-93600756D01*
X114111640Y-93596165D01*
X114063917Y-93580659D01*
X114020225Y-93571052D01*
X113979230Y-93553142D01*
X113931512Y-93537637D01*
X113893473Y-93515675D01*
X113858310Y-93500313D01*
X113816337Y-93471141D01*
X113767489Y-93442939D01*
X113739504Y-93417741D01*
X113713215Y-93399470D01*
X113673257Y-93358092D01*
X113626739Y-93316207D01*
X113608296Y-93290823D01*
X113590473Y-93272366D01*
X113555821Y-93218597D01*
X113515414Y-93162981D01*
X113505212Y-93140066D01*
X113494754Y-93123839D01*
X113468789Y-93058261D01*
X113438379Y-92989958D01*
X113434476Y-92971596D01*
X113429707Y-92959551D01*
X113415740Y-92883448D01*
X113399001Y-92804699D01*
X113399001Y-92792246D01*
X113397811Y-92785762D01*
X113399001Y-92700535D01*
X113399001Y-92615301D01*
X113400275Y-92609308D01*
X113400278Y-92609077D01*
X113437015Y-92436246D01*
X113437105Y-92436036D01*
X113438379Y-92430042D01*
X113473042Y-92352188D01*
X113506622Y-92273839D01*
X113510348Y-92268397D01*
X113515414Y-92257019D01*
X113562746Y-92191872D01*
X113606452Y-92128041D01*
X113615706Y-92118979D01*
X113626739Y-92103793D01*
X113682297Y-92053769D01*
X113732693Y-92004417D01*
X113748848Y-91993846D01*
X113767489Y-91977061D01*
X113827026Y-91942687D01*
X113880551Y-91907662D01*
X113904340Y-91898050D01*
X113931512Y-91882363D01*
X113991045Y-91863019D01*
X114044376Y-91841472D01*
X114075820Y-91835474D01*
X114111640Y-91823835D01*
X114167744Y-91817938D01*
X114217945Y-91808362D01*
X114256312Y-91808630D01*
X114300000Y-91804038D01*
X114349902Y-91809283D01*
G37*
G36*
X116889902Y-89269283D02*
G01*
X116934637Y-89269595D01*
X116978460Y-89278590D01*
X117028360Y-89283835D01*
X117070132Y-89297408D01*
X117107723Y-89305124D01*
X117154851Y-89324935D01*
X117208488Y-89342363D01*
X117241099Y-89361191D01*
X117270614Y-89373598D01*
X117318301Y-89405763D01*
X117372511Y-89437061D01*
X117395826Y-89458054D01*
X117417101Y-89472404D01*
X117462183Y-89517802D01*
X117513261Y-89563793D01*
X117528003Y-89584083D01*
X117541608Y-89597784D01*
X117580643Y-89656537D01*
X117624586Y-89717019D01*
X117632221Y-89734168D01*
X117639388Y-89744955D01*
X117668865Y-89816472D01*
X117701621Y-89890042D01*
X117704211Y-89902225D01*
X117706724Y-89908323D01*
X117723292Y-89991997D01*
X117740999Y-90075301D01*
X117740999Y-90264699D01*
X117738115Y-90278269D01*
X117738030Y-90284331D01*
X117719342Y-90366585D01*
X117701621Y-90449958D01*
X117699129Y-90455555D01*
X117699078Y-90455780D01*
X117627210Y-90617197D01*
X117627078Y-90617385D01*
X117624586Y-90622981D01*
X117574480Y-90691946D01*
X117525357Y-90761582D01*
X117520585Y-90766126D01*
X117513261Y-90776207D01*
X117453396Y-90830110D01*
X117397396Y-90883438D01*
X117386464Y-90890376D01*
X117372511Y-90902939D01*
X117307764Y-90940321D01*
X117248211Y-90978114D01*
X117230209Y-90985097D01*
X117208488Y-90997637D01*
X117143115Y-91018878D01*
X117083468Y-91042014D01*
X117058200Y-91046469D01*
X117028360Y-91056165D01*
X116966095Y-91062709D01*
X116909460Y-91072695D01*
X116877459Y-91072025D01*
X116840000Y-91075962D01*
X116783902Y-91070066D01*
X116732799Y-91068996D01*
X116695323Y-91060756D01*
X116651640Y-91056165D01*
X116603917Y-91040659D01*
X116560225Y-91031052D01*
X116519230Y-91013142D01*
X116471512Y-90997637D01*
X116433473Y-90975675D01*
X116398310Y-90960313D01*
X116356337Y-90931141D01*
X116307489Y-90902939D01*
X116279504Y-90877741D01*
X116253215Y-90859470D01*
X116213257Y-90818092D01*
X116166739Y-90776207D01*
X116148296Y-90750823D01*
X116130473Y-90732366D01*
X116095821Y-90678597D01*
X116055414Y-90622981D01*
X116045212Y-90600066D01*
X116034754Y-90583839D01*
X116008789Y-90518261D01*
X115978379Y-90449958D01*
X115974476Y-90431596D01*
X115969707Y-90419551D01*
X115955740Y-90343448D01*
X115939001Y-90264699D01*
X115939001Y-90252246D01*
X115937811Y-90245762D01*
X115939001Y-90160535D01*
X115939001Y-90075301D01*
X115940275Y-90069308D01*
X115940278Y-90069077D01*
X115977015Y-89896246D01*
X115977105Y-89896036D01*
X115978379Y-89890042D01*
X116013042Y-89812188D01*
X116046622Y-89733839D01*
X116050348Y-89728397D01*
X116055414Y-89717019D01*
X116102746Y-89651872D01*
X116146452Y-89588041D01*
X116155706Y-89578979D01*
X116166739Y-89563793D01*
X116222297Y-89513769D01*
X116272693Y-89464417D01*
X116288848Y-89453846D01*
X116307489Y-89437061D01*
X116367026Y-89402687D01*
X116420551Y-89367662D01*
X116444340Y-89358050D01*
X116471512Y-89342363D01*
X116531045Y-89323019D01*
X116584376Y-89301472D01*
X116615820Y-89295474D01*
X116651640Y-89283835D01*
X116707744Y-89277938D01*
X116757945Y-89268362D01*
X116796312Y-89268630D01*
X116840000Y-89264038D01*
X116889902Y-89269283D01*
G37*
G36*
X114349902Y-89269283D02*
G01*
X114394637Y-89269595D01*
X114438460Y-89278590D01*
X114488360Y-89283835D01*
X114530132Y-89297408D01*
X114567723Y-89305124D01*
X114614851Y-89324935D01*
X114668488Y-89342363D01*
X114701099Y-89361191D01*
X114730614Y-89373598D01*
X114778301Y-89405763D01*
X114832511Y-89437061D01*
X114855826Y-89458054D01*
X114877101Y-89472404D01*
X114922183Y-89517802D01*
X114973261Y-89563793D01*
X114988003Y-89584083D01*
X115001608Y-89597784D01*
X115040643Y-89656537D01*
X115084586Y-89717019D01*
X115092221Y-89734168D01*
X115099388Y-89744955D01*
X115128865Y-89816472D01*
X115161621Y-89890042D01*
X115164211Y-89902225D01*
X115166724Y-89908323D01*
X115183292Y-89991997D01*
X115200999Y-90075301D01*
X115200999Y-90264699D01*
X115198115Y-90278269D01*
X115198030Y-90284331D01*
X115179342Y-90366585D01*
X115161621Y-90449958D01*
X115159129Y-90455555D01*
X115159078Y-90455780D01*
X115087210Y-90617197D01*
X115087078Y-90617385D01*
X115084586Y-90622981D01*
X115034480Y-90691946D01*
X114985357Y-90761582D01*
X114980585Y-90766126D01*
X114973261Y-90776207D01*
X114913396Y-90830110D01*
X114857396Y-90883438D01*
X114846464Y-90890376D01*
X114832511Y-90902939D01*
X114767764Y-90940321D01*
X114708211Y-90978114D01*
X114690209Y-90985097D01*
X114668488Y-90997637D01*
X114603115Y-91018878D01*
X114543468Y-91042014D01*
X114518200Y-91046469D01*
X114488360Y-91056165D01*
X114426095Y-91062709D01*
X114369460Y-91072695D01*
X114337459Y-91072025D01*
X114300000Y-91075962D01*
X114243902Y-91070066D01*
X114192799Y-91068996D01*
X114155323Y-91060756D01*
X114111640Y-91056165D01*
X114063917Y-91040659D01*
X114020225Y-91031052D01*
X113979230Y-91013142D01*
X113931512Y-90997637D01*
X113893473Y-90975675D01*
X113858310Y-90960313D01*
X113816337Y-90931141D01*
X113767489Y-90902939D01*
X113739504Y-90877741D01*
X113713215Y-90859470D01*
X113673257Y-90818092D01*
X113626739Y-90776207D01*
X113608296Y-90750823D01*
X113590473Y-90732366D01*
X113555821Y-90678597D01*
X113515414Y-90622981D01*
X113505212Y-90600066D01*
X113494754Y-90583839D01*
X113468789Y-90518261D01*
X113438379Y-90449958D01*
X113434476Y-90431596D01*
X113429707Y-90419551D01*
X113415740Y-90343448D01*
X113399001Y-90264699D01*
X113399001Y-90252246D01*
X113397811Y-90245762D01*
X113399001Y-90160535D01*
X113399001Y-90075301D01*
X113400275Y-90069308D01*
X113400278Y-90069077D01*
X113437015Y-89896246D01*
X113437105Y-89896036D01*
X113438379Y-89890042D01*
X113473042Y-89812188D01*
X113506622Y-89733839D01*
X113510348Y-89728397D01*
X113515414Y-89717019D01*
X113562746Y-89651872D01*
X113606452Y-89588041D01*
X113615706Y-89578979D01*
X113626739Y-89563793D01*
X113682297Y-89513769D01*
X113732693Y-89464417D01*
X113748848Y-89453846D01*
X113767489Y-89437061D01*
X113827026Y-89402687D01*
X113880551Y-89367662D01*
X113904340Y-89358050D01*
X113931512Y-89342363D01*
X113991045Y-89323019D01*
X114044376Y-89301472D01*
X114075820Y-89295474D01*
X114111640Y-89283835D01*
X114167744Y-89277938D01*
X114217945Y-89268362D01*
X114256312Y-89268630D01*
X114300000Y-89264038D01*
X114349902Y-89269283D01*
G37*
G36*
X114349902Y-86729283D02*
G01*
X114394637Y-86729595D01*
X114438460Y-86738590D01*
X114488360Y-86743835D01*
X114530132Y-86757408D01*
X114567723Y-86765124D01*
X114614851Y-86784935D01*
X114668488Y-86802363D01*
X114701099Y-86821191D01*
X114730614Y-86833598D01*
X114778301Y-86865763D01*
X114832511Y-86897061D01*
X114855826Y-86918054D01*
X114877101Y-86932404D01*
X114922183Y-86977802D01*
X114973261Y-87023793D01*
X114988003Y-87044083D01*
X115001608Y-87057784D01*
X115040643Y-87116537D01*
X115084586Y-87177019D01*
X115092221Y-87194168D01*
X115099388Y-87204955D01*
X115128865Y-87276472D01*
X115161621Y-87350042D01*
X115164211Y-87362225D01*
X115166724Y-87368323D01*
X115183292Y-87451997D01*
X115200999Y-87535301D01*
X115200999Y-87724699D01*
X115198115Y-87738269D01*
X115198030Y-87744331D01*
X115179342Y-87826585D01*
X115161621Y-87909958D01*
X115159129Y-87915555D01*
X115159078Y-87915780D01*
X115087210Y-88077197D01*
X115087078Y-88077385D01*
X115084586Y-88082981D01*
X115034480Y-88151946D01*
X114985357Y-88221582D01*
X114980585Y-88226126D01*
X114973261Y-88236207D01*
X114913396Y-88290110D01*
X114857396Y-88343438D01*
X114846464Y-88350376D01*
X114832511Y-88362939D01*
X114767764Y-88400321D01*
X114708211Y-88438114D01*
X114690209Y-88445097D01*
X114668488Y-88457637D01*
X114603115Y-88478878D01*
X114543468Y-88502014D01*
X114518200Y-88506469D01*
X114488360Y-88516165D01*
X114426095Y-88522709D01*
X114369460Y-88532695D01*
X114337459Y-88532025D01*
X114300000Y-88535962D01*
X114243902Y-88530066D01*
X114192799Y-88528996D01*
X114155323Y-88520756D01*
X114111640Y-88516165D01*
X114063917Y-88500659D01*
X114020225Y-88491052D01*
X113979230Y-88473142D01*
X113931512Y-88457637D01*
X113893473Y-88435675D01*
X113858310Y-88420313D01*
X113816337Y-88391141D01*
X113767489Y-88362939D01*
X113739504Y-88337741D01*
X113713215Y-88319470D01*
X113673257Y-88278092D01*
X113626739Y-88236207D01*
X113608296Y-88210823D01*
X113590473Y-88192366D01*
X113555821Y-88138597D01*
X113515414Y-88082981D01*
X113505212Y-88060066D01*
X113494754Y-88043839D01*
X113468789Y-87978261D01*
X113438379Y-87909958D01*
X113434476Y-87891596D01*
X113429707Y-87879551D01*
X113415740Y-87803448D01*
X113399001Y-87724699D01*
X113399001Y-87712246D01*
X113397811Y-87705762D01*
X113399001Y-87620535D01*
X113399001Y-87535301D01*
X113400275Y-87529308D01*
X113400278Y-87529077D01*
X113437015Y-87356246D01*
X113437105Y-87356036D01*
X113438379Y-87350042D01*
X113473042Y-87272188D01*
X113506622Y-87193839D01*
X113510348Y-87188397D01*
X113515414Y-87177019D01*
X113562746Y-87111872D01*
X113606452Y-87048041D01*
X113615706Y-87038979D01*
X113626739Y-87023793D01*
X113682297Y-86973769D01*
X113732693Y-86924417D01*
X113748848Y-86913846D01*
X113767489Y-86897061D01*
X113827026Y-86862687D01*
X113880551Y-86827662D01*
X113904340Y-86818050D01*
X113931512Y-86802363D01*
X113991045Y-86783019D01*
X114044376Y-86761472D01*
X114075820Y-86755474D01*
X114111640Y-86743835D01*
X114167744Y-86737938D01*
X114217945Y-86728362D01*
X114256312Y-86728630D01*
X114300000Y-86724038D01*
X114349902Y-86729283D01*
G37*
G36*
X116889902Y-86729283D02*
G01*
X116934637Y-86729595D01*
X116978460Y-86738590D01*
X117028360Y-86743835D01*
X117070132Y-86757408D01*
X117107723Y-86765124D01*
X117154851Y-86784935D01*
X117208488Y-86802363D01*
X117241099Y-86821191D01*
X117270614Y-86833598D01*
X117318301Y-86865763D01*
X117372511Y-86897061D01*
X117395826Y-86918054D01*
X117417101Y-86932404D01*
X117462183Y-86977802D01*
X117513261Y-87023793D01*
X117528003Y-87044083D01*
X117541608Y-87057784D01*
X117580643Y-87116537D01*
X117624586Y-87177019D01*
X117632221Y-87194168D01*
X117639388Y-87204955D01*
X117668865Y-87276472D01*
X117701621Y-87350042D01*
X117704211Y-87362225D01*
X117706724Y-87368323D01*
X117723292Y-87451997D01*
X117740999Y-87535301D01*
X117740999Y-87724699D01*
X117738115Y-87738269D01*
X117738030Y-87744331D01*
X117719342Y-87826585D01*
X117701621Y-87909958D01*
X117699129Y-87915555D01*
X117699078Y-87915780D01*
X117627210Y-88077197D01*
X117627078Y-88077385D01*
X117624586Y-88082981D01*
X117574480Y-88151946D01*
X117525357Y-88221582D01*
X117520585Y-88226126D01*
X117513261Y-88236207D01*
X117453396Y-88290110D01*
X117397396Y-88343438D01*
X117386464Y-88350376D01*
X117372511Y-88362939D01*
X117307764Y-88400321D01*
X117248211Y-88438114D01*
X117230209Y-88445097D01*
X117208488Y-88457637D01*
X117143115Y-88478878D01*
X117083468Y-88502014D01*
X117058200Y-88506469D01*
X117028360Y-88516165D01*
X116966095Y-88522709D01*
X116909460Y-88532695D01*
X116877459Y-88532025D01*
X116840000Y-88535962D01*
X116783902Y-88530066D01*
X116732799Y-88528996D01*
X116695323Y-88520756D01*
X116651640Y-88516165D01*
X116603917Y-88500659D01*
X116560225Y-88491052D01*
X116519230Y-88473142D01*
X116471512Y-88457637D01*
X116433473Y-88435675D01*
X116398310Y-88420313D01*
X116356337Y-88391141D01*
X116307489Y-88362939D01*
X116279504Y-88337741D01*
X116253215Y-88319470D01*
X116213257Y-88278092D01*
X116166739Y-88236207D01*
X116148296Y-88210823D01*
X116130473Y-88192366D01*
X116095821Y-88138597D01*
X116055414Y-88082981D01*
X116045212Y-88060066D01*
X116034754Y-88043839D01*
X116008789Y-87978261D01*
X115978379Y-87909958D01*
X115974476Y-87891596D01*
X115969707Y-87879551D01*
X115955740Y-87803448D01*
X115939001Y-87724699D01*
X115939001Y-87712246D01*
X115937811Y-87705762D01*
X115939001Y-87620535D01*
X115939001Y-87535301D01*
X115940275Y-87529308D01*
X115940278Y-87529077D01*
X115977015Y-87356246D01*
X115977105Y-87356036D01*
X115978379Y-87350042D01*
X116013042Y-87272188D01*
X116046622Y-87193839D01*
X116050348Y-87188397D01*
X116055414Y-87177019D01*
X116102746Y-87111872D01*
X116146452Y-87048041D01*
X116155706Y-87038979D01*
X116166739Y-87023793D01*
X116222297Y-86973769D01*
X116272693Y-86924417D01*
X116288848Y-86913846D01*
X116307489Y-86897061D01*
X116367026Y-86862687D01*
X116420551Y-86827662D01*
X116444340Y-86818050D01*
X116471512Y-86802363D01*
X116531045Y-86783019D01*
X116584376Y-86761472D01*
X116615820Y-86755474D01*
X116651640Y-86743835D01*
X116707744Y-86737938D01*
X116757945Y-86728362D01*
X116796312Y-86728630D01*
X116840000Y-86724038D01*
X116889902Y-86729283D01*
G37*
G36*
X141607976Y-86777826D02*
G01*
X141649766Y-86775782D01*
X141694056Y-86782639D01*
X141744810Y-86785476D01*
X141785163Y-86796743D01*
X141820621Y-86802232D01*
X141868204Y-86819928D01*
X141922898Y-86835199D01*
X141954622Y-86852067D01*
X141982659Y-86862494D01*
X142030757Y-86892549D01*
X142086153Y-86922004D01*
X142108968Y-86941421D01*
X142129271Y-86954108D01*
X142174641Y-86997313D01*
X142226961Y-87041841D01*
X142241463Y-87060947D01*
X142254472Y-87073335D01*
X142293616Y-87129655D01*
X142338751Y-87189118D01*
X142346302Y-87205459D01*
X142353142Y-87215301D01*
X142382508Y-87283817D01*
X142416307Y-87356965D01*
X142418885Y-87368692D01*
X142421247Y-87374202D01*
X142437429Y-87453036D01*
X142456011Y-87537551D01*
X142455345Y-87728388D01*
X142436181Y-87812738D01*
X142419443Y-87891485D01*
X142417041Y-87896982D01*
X142414381Y-87908692D01*
X142380069Y-87981609D01*
X142350227Y-88049915D01*
X142343318Y-88059709D01*
X142335655Y-88075994D01*
X142290114Y-88135130D01*
X142250570Y-88191187D01*
X142237472Y-88203487D01*
X142222840Y-88222487D01*
X142170227Y-88266635D01*
X142124544Y-88309534D01*
X142104147Y-88322082D01*
X142081199Y-88341338D01*
X142025600Y-88370405D01*
X141977293Y-88400123D01*
X141949184Y-88410354D01*
X141917341Y-88427001D01*
X141862534Y-88441892D01*
X141814831Y-88459254D01*
X141779340Y-88464495D01*
X141738911Y-88475479D01*
X141688139Y-88477962D01*
X141643803Y-88484509D01*
X141602027Y-88482174D01*
X141554233Y-88484511D01*
X141509992Y-88477028D01*
X141471189Y-88474859D01*
X141424980Y-88462650D01*
X141371923Y-88453676D01*
X141335839Y-88439097D01*
X141304035Y-88430694D01*
X141255897Y-88406799D01*
X141200488Y-88384412D01*
X141173311Y-88365804D01*
X141149182Y-88353826D01*
X141102128Y-88317063D01*
X141047926Y-88279950D01*
X141029469Y-88260295D01*
X141012950Y-88247389D01*
X140970400Y-88197393D01*
X140921354Y-88145164D01*
X140910608Y-88127138D01*
X140900896Y-88115726D01*
X140866401Y-88052981D01*
X140826678Y-87986344D01*
X140821943Y-87972111D01*
X140817610Y-87964229D01*
X140794692Y-87890192D01*
X140768314Y-87810898D01*
X140767372Y-87801934D01*
X140766486Y-87799072D01*
X140758347Y-87716068D01*
X140748987Y-87627012D01*
X140758967Y-87538044D01*
X140767687Y-87455078D01*
X140768593Y-87452220D01*
X140769598Y-87443265D01*
X140796530Y-87364153D01*
X140819963Y-87290281D01*
X140824350Y-87282432D01*
X140829184Y-87268231D01*
X140869382Y-87201857D01*
X140904304Y-87139371D01*
X140914092Y-87128031D01*
X140924967Y-87110075D01*
X140974385Y-87058181D01*
X141017273Y-87008495D01*
X141033879Y-86995707D01*
X141052477Y-86976177D01*
X141106952Y-86939433D01*
X141154250Y-86903009D01*
X141178458Y-86891202D01*
X141205765Y-86872783D01*
X141261319Y-86850787D01*
X141309633Y-86827223D01*
X141341503Y-86819040D01*
X141377679Y-86804717D01*
X141430795Y-86796114D01*
X141477088Y-86784228D01*
X141515903Y-86782330D01*
X141560199Y-86775155D01*
X141607976Y-86777826D01*
G37*
G36*
X139067976Y-86777826D02*
G01*
X139109766Y-86775782D01*
X139154056Y-86782639D01*
X139204810Y-86785476D01*
X139245163Y-86796743D01*
X139280621Y-86802232D01*
X139328204Y-86819928D01*
X139382898Y-86835199D01*
X139414622Y-86852067D01*
X139442659Y-86862494D01*
X139490757Y-86892549D01*
X139546153Y-86922004D01*
X139568968Y-86941421D01*
X139589271Y-86954108D01*
X139634641Y-86997313D01*
X139686961Y-87041841D01*
X139701463Y-87060947D01*
X139714472Y-87073335D01*
X139753616Y-87129655D01*
X139798751Y-87189118D01*
X139806302Y-87205459D01*
X139813142Y-87215301D01*
X139842508Y-87283817D01*
X139876307Y-87356965D01*
X139878885Y-87368692D01*
X139881247Y-87374202D01*
X139897429Y-87453036D01*
X139916011Y-87537551D01*
X139915345Y-87728388D01*
X139896181Y-87812738D01*
X139879443Y-87891485D01*
X139877041Y-87896982D01*
X139874381Y-87908692D01*
X139840069Y-87981609D01*
X139810227Y-88049915D01*
X139803318Y-88059709D01*
X139795655Y-88075994D01*
X139750114Y-88135130D01*
X139710570Y-88191187D01*
X139697472Y-88203487D01*
X139682840Y-88222487D01*
X139630227Y-88266635D01*
X139584544Y-88309534D01*
X139564147Y-88322082D01*
X139541199Y-88341338D01*
X139485600Y-88370405D01*
X139437293Y-88400123D01*
X139409184Y-88410354D01*
X139377341Y-88427001D01*
X139322534Y-88441892D01*
X139274831Y-88459254D01*
X139239340Y-88464495D01*
X139198911Y-88475479D01*
X139148139Y-88477962D01*
X139103803Y-88484509D01*
X139062027Y-88482174D01*
X139014233Y-88484511D01*
X138969992Y-88477028D01*
X138931189Y-88474859D01*
X138884980Y-88462650D01*
X138831923Y-88453676D01*
X138795839Y-88439097D01*
X138764035Y-88430694D01*
X138715897Y-88406799D01*
X138660488Y-88384412D01*
X138633311Y-88365804D01*
X138609182Y-88353826D01*
X138562128Y-88317063D01*
X138507926Y-88279950D01*
X138489469Y-88260295D01*
X138472950Y-88247389D01*
X138430400Y-88197393D01*
X138381354Y-88145164D01*
X138370608Y-88127138D01*
X138360896Y-88115726D01*
X138326401Y-88052981D01*
X138286678Y-87986344D01*
X138281943Y-87972111D01*
X138277610Y-87964229D01*
X138254692Y-87890192D01*
X138228314Y-87810898D01*
X138227372Y-87801934D01*
X138226486Y-87799072D01*
X138218347Y-87716068D01*
X138208987Y-87627012D01*
X138218967Y-87538044D01*
X138227687Y-87455078D01*
X138228593Y-87452220D01*
X138229598Y-87443265D01*
X138256530Y-87364153D01*
X138279963Y-87290281D01*
X138284350Y-87282432D01*
X138289184Y-87268231D01*
X138329382Y-87201857D01*
X138364304Y-87139371D01*
X138374092Y-87128031D01*
X138384967Y-87110075D01*
X138434385Y-87058181D01*
X138477273Y-87008495D01*
X138493879Y-86995707D01*
X138512477Y-86976177D01*
X138566952Y-86939433D01*
X138614250Y-86903009D01*
X138638458Y-86891202D01*
X138665765Y-86872783D01*
X138721319Y-86850787D01*
X138769633Y-86827223D01*
X138801503Y-86819040D01*
X138837679Y-86804717D01*
X138890795Y-86796114D01*
X138937088Y-86784228D01*
X138975903Y-86782330D01*
X139020199Y-86775155D01*
X139067976Y-86777826D01*
G37*
G36*
X136527976Y-86777826D02*
G01*
X136569766Y-86775782D01*
X136614056Y-86782639D01*
X136664810Y-86785476D01*
X136705163Y-86796743D01*
X136740621Y-86802232D01*
X136788204Y-86819928D01*
X136842898Y-86835199D01*
X136874622Y-86852067D01*
X136902659Y-86862494D01*
X136950757Y-86892549D01*
X137006153Y-86922004D01*
X137028968Y-86941421D01*
X137049271Y-86954108D01*
X137094641Y-86997313D01*
X137146961Y-87041841D01*
X137161463Y-87060947D01*
X137174472Y-87073335D01*
X137213616Y-87129655D01*
X137258751Y-87189118D01*
X137266302Y-87205459D01*
X137273142Y-87215301D01*
X137302508Y-87283817D01*
X137336307Y-87356965D01*
X137338885Y-87368692D01*
X137341247Y-87374202D01*
X137357429Y-87453036D01*
X137376011Y-87537551D01*
X137375345Y-87728388D01*
X137356181Y-87812738D01*
X137339443Y-87891485D01*
X137337041Y-87896982D01*
X137334381Y-87908692D01*
X137300069Y-87981609D01*
X137270227Y-88049915D01*
X137263318Y-88059709D01*
X137255655Y-88075994D01*
X137210114Y-88135130D01*
X137170570Y-88191187D01*
X137157472Y-88203487D01*
X137142840Y-88222487D01*
X137090227Y-88266635D01*
X137044544Y-88309534D01*
X137024147Y-88322082D01*
X137001199Y-88341338D01*
X136945600Y-88370405D01*
X136897293Y-88400123D01*
X136869184Y-88410354D01*
X136837341Y-88427001D01*
X136782534Y-88441892D01*
X136734831Y-88459254D01*
X136699340Y-88464495D01*
X136658911Y-88475479D01*
X136608139Y-88477962D01*
X136563803Y-88484509D01*
X136522027Y-88482174D01*
X136474233Y-88484511D01*
X136429992Y-88477028D01*
X136391189Y-88474859D01*
X136344980Y-88462650D01*
X136291923Y-88453676D01*
X136255839Y-88439097D01*
X136224035Y-88430694D01*
X136175897Y-88406799D01*
X136120488Y-88384412D01*
X136093311Y-88365804D01*
X136069182Y-88353826D01*
X136022128Y-88317063D01*
X135967926Y-88279950D01*
X135949469Y-88260295D01*
X135932950Y-88247389D01*
X135890400Y-88197393D01*
X135841354Y-88145164D01*
X135830608Y-88127138D01*
X135820896Y-88115726D01*
X135786401Y-88052981D01*
X135746678Y-87986344D01*
X135741943Y-87972111D01*
X135737610Y-87964229D01*
X135714692Y-87890192D01*
X135688314Y-87810898D01*
X135687372Y-87801934D01*
X135686486Y-87799072D01*
X135678347Y-87716068D01*
X135668987Y-87627012D01*
X135678967Y-87538044D01*
X135687687Y-87455078D01*
X135688593Y-87452220D01*
X135689598Y-87443265D01*
X135716530Y-87364153D01*
X135739963Y-87290281D01*
X135744350Y-87282432D01*
X135749184Y-87268231D01*
X135789382Y-87201857D01*
X135824304Y-87139371D01*
X135834092Y-87128031D01*
X135844967Y-87110075D01*
X135894385Y-87058181D01*
X135937273Y-87008495D01*
X135953879Y-86995707D01*
X135972477Y-86976177D01*
X136026952Y-86939433D01*
X136074250Y-86903009D01*
X136098458Y-86891202D01*
X136125765Y-86872783D01*
X136181319Y-86850787D01*
X136229633Y-86827223D01*
X136261503Y-86819040D01*
X136297679Y-86804717D01*
X136350795Y-86796114D01*
X136397088Y-86784228D01*
X136435903Y-86782330D01*
X136480199Y-86775155D01*
X136527976Y-86777826D01*
G37*
G36*
X128907976Y-86777826D02*
G01*
X128949766Y-86775782D01*
X128994056Y-86782639D01*
X129044810Y-86785476D01*
X129085163Y-86796743D01*
X129120621Y-86802232D01*
X129168204Y-86819928D01*
X129222898Y-86835199D01*
X129254622Y-86852067D01*
X129282659Y-86862494D01*
X129330757Y-86892549D01*
X129386153Y-86922004D01*
X129408968Y-86941421D01*
X129429271Y-86954108D01*
X129474641Y-86997313D01*
X129526961Y-87041841D01*
X129541463Y-87060947D01*
X129554472Y-87073335D01*
X129593616Y-87129655D01*
X129638751Y-87189118D01*
X129646302Y-87205459D01*
X129653142Y-87215301D01*
X129682508Y-87283817D01*
X129716307Y-87356965D01*
X129718885Y-87368692D01*
X129721247Y-87374202D01*
X129737429Y-87453036D01*
X129756011Y-87537551D01*
X129755345Y-87728388D01*
X129736181Y-87812738D01*
X129719443Y-87891485D01*
X129717041Y-87896982D01*
X129714381Y-87908692D01*
X129680069Y-87981609D01*
X129650227Y-88049915D01*
X129643318Y-88059709D01*
X129635655Y-88075994D01*
X129590114Y-88135130D01*
X129550570Y-88191187D01*
X129537472Y-88203487D01*
X129522840Y-88222487D01*
X129470227Y-88266635D01*
X129424544Y-88309534D01*
X129404147Y-88322082D01*
X129381199Y-88341338D01*
X129325600Y-88370405D01*
X129277293Y-88400123D01*
X129249184Y-88410354D01*
X129217341Y-88427001D01*
X129162534Y-88441892D01*
X129114831Y-88459254D01*
X129079340Y-88464495D01*
X129038911Y-88475479D01*
X128988139Y-88477962D01*
X128943803Y-88484509D01*
X128902027Y-88482174D01*
X128854233Y-88484511D01*
X128809992Y-88477028D01*
X128771189Y-88474859D01*
X128724980Y-88462650D01*
X128671923Y-88453676D01*
X128635839Y-88439097D01*
X128604035Y-88430694D01*
X128555897Y-88406799D01*
X128500488Y-88384412D01*
X128473311Y-88365804D01*
X128449182Y-88353826D01*
X128402128Y-88317063D01*
X128347926Y-88279950D01*
X128329469Y-88260295D01*
X128312950Y-88247389D01*
X128270400Y-88197393D01*
X128221354Y-88145164D01*
X128210608Y-88127138D01*
X128200896Y-88115726D01*
X128166401Y-88052981D01*
X128126678Y-87986344D01*
X128121943Y-87972111D01*
X128117610Y-87964229D01*
X128094692Y-87890192D01*
X128068314Y-87810898D01*
X128067372Y-87801934D01*
X128066486Y-87799072D01*
X128058347Y-87716068D01*
X128048987Y-87627012D01*
X128058967Y-87538044D01*
X128067687Y-87455078D01*
X128068593Y-87452220D01*
X128069598Y-87443265D01*
X128096530Y-87364153D01*
X128119963Y-87290281D01*
X128124350Y-87282432D01*
X128129184Y-87268231D01*
X128169382Y-87201857D01*
X128204304Y-87139371D01*
X128214092Y-87128031D01*
X128224967Y-87110075D01*
X128274385Y-87058181D01*
X128317273Y-87008495D01*
X128333879Y-86995707D01*
X128352477Y-86976177D01*
X128406952Y-86939433D01*
X128454250Y-86903009D01*
X128478458Y-86891202D01*
X128505765Y-86872783D01*
X128561319Y-86850787D01*
X128609633Y-86827223D01*
X128641503Y-86819040D01*
X128677679Y-86804717D01*
X128730795Y-86796114D01*
X128777088Y-86784228D01*
X128815903Y-86782330D01*
X128860199Y-86775155D01*
X128907976Y-86777826D01*
G37*
G36*
X123827976Y-86777826D02*
G01*
X123869766Y-86775782D01*
X123914056Y-86782639D01*
X123964810Y-86785476D01*
X124005163Y-86796743D01*
X124040621Y-86802232D01*
X124088204Y-86819928D01*
X124142898Y-86835199D01*
X124174622Y-86852067D01*
X124202659Y-86862494D01*
X124250757Y-86892549D01*
X124306153Y-86922004D01*
X124328968Y-86941421D01*
X124349271Y-86954108D01*
X124394641Y-86997313D01*
X124446961Y-87041841D01*
X124461463Y-87060947D01*
X124474472Y-87073335D01*
X124513616Y-87129655D01*
X124558751Y-87189118D01*
X124566302Y-87205459D01*
X124573142Y-87215301D01*
X124602508Y-87283817D01*
X124636307Y-87356965D01*
X124638885Y-87368692D01*
X124641247Y-87374202D01*
X124657429Y-87453036D01*
X124676011Y-87537551D01*
X124675345Y-87728388D01*
X124656181Y-87812738D01*
X124639443Y-87891485D01*
X124637041Y-87896982D01*
X124634381Y-87908692D01*
X124600069Y-87981609D01*
X124570227Y-88049915D01*
X124563318Y-88059709D01*
X124555655Y-88075994D01*
X124510114Y-88135130D01*
X124470570Y-88191187D01*
X124457472Y-88203487D01*
X124442840Y-88222487D01*
X124390227Y-88266635D01*
X124344544Y-88309534D01*
X124324147Y-88322082D01*
X124301199Y-88341338D01*
X124245600Y-88370405D01*
X124197293Y-88400123D01*
X124169184Y-88410354D01*
X124137341Y-88427001D01*
X124082534Y-88441892D01*
X124034831Y-88459254D01*
X123999340Y-88464495D01*
X123958911Y-88475479D01*
X123908139Y-88477962D01*
X123863803Y-88484509D01*
X123822027Y-88482174D01*
X123774233Y-88484511D01*
X123729992Y-88477028D01*
X123691189Y-88474859D01*
X123644980Y-88462650D01*
X123591923Y-88453676D01*
X123555839Y-88439097D01*
X123524035Y-88430694D01*
X123475897Y-88406799D01*
X123420488Y-88384412D01*
X123393311Y-88365804D01*
X123369182Y-88353826D01*
X123322128Y-88317063D01*
X123267926Y-88279950D01*
X123249469Y-88260295D01*
X123232950Y-88247389D01*
X123190400Y-88197393D01*
X123141354Y-88145164D01*
X123130608Y-88127138D01*
X123120896Y-88115726D01*
X123086401Y-88052981D01*
X123046678Y-87986344D01*
X123041943Y-87972111D01*
X123037610Y-87964229D01*
X123014692Y-87890192D01*
X122988314Y-87810898D01*
X122987372Y-87801934D01*
X122986486Y-87799072D01*
X122978347Y-87716068D01*
X122968987Y-87627012D01*
X122978967Y-87538044D01*
X122987687Y-87455078D01*
X122988593Y-87452220D01*
X122989598Y-87443265D01*
X123016530Y-87364153D01*
X123039963Y-87290281D01*
X123044350Y-87282432D01*
X123049184Y-87268231D01*
X123089382Y-87201857D01*
X123124304Y-87139371D01*
X123134092Y-87128031D01*
X123144967Y-87110075D01*
X123194385Y-87058181D01*
X123237273Y-87008495D01*
X123253879Y-86995707D01*
X123272477Y-86976177D01*
X123326952Y-86939433D01*
X123374250Y-86903009D01*
X123398458Y-86891202D01*
X123425765Y-86872783D01*
X123481319Y-86850787D01*
X123529633Y-86827223D01*
X123561503Y-86819040D01*
X123597679Y-86804717D01*
X123650795Y-86796114D01*
X123697088Y-86784228D01*
X123735903Y-86782330D01*
X123780199Y-86775155D01*
X123827976Y-86777826D01*
G37*
G36*
X133987976Y-86777826D02*
G01*
X134029766Y-86775782D01*
X134074056Y-86782639D01*
X134124810Y-86785476D01*
X134165163Y-86796743D01*
X134200621Y-86802232D01*
X134248204Y-86819928D01*
X134302898Y-86835199D01*
X134334622Y-86852067D01*
X134362659Y-86862494D01*
X134410757Y-86892549D01*
X134466153Y-86922004D01*
X134488968Y-86941421D01*
X134509271Y-86954108D01*
X134554641Y-86997313D01*
X134606961Y-87041841D01*
X134621463Y-87060947D01*
X134634472Y-87073335D01*
X134673616Y-87129655D01*
X134718751Y-87189118D01*
X134726302Y-87205459D01*
X134733142Y-87215301D01*
X134762508Y-87283817D01*
X134796307Y-87356965D01*
X134798885Y-87368692D01*
X134801247Y-87374202D01*
X134817429Y-87453036D01*
X134836011Y-87537551D01*
X134835345Y-87728388D01*
X134816181Y-87812738D01*
X134799443Y-87891485D01*
X134797041Y-87896982D01*
X134794381Y-87908692D01*
X134760069Y-87981609D01*
X134730227Y-88049915D01*
X134723318Y-88059709D01*
X134715655Y-88075994D01*
X134670114Y-88135130D01*
X134630570Y-88191187D01*
X134617472Y-88203487D01*
X134602840Y-88222487D01*
X134550227Y-88266635D01*
X134504544Y-88309534D01*
X134484147Y-88322082D01*
X134461199Y-88341338D01*
X134405600Y-88370405D01*
X134357293Y-88400123D01*
X134329184Y-88410354D01*
X134297341Y-88427001D01*
X134242534Y-88441892D01*
X134194831Y-88459254D01*
X134159340Y-88464495D01*
X134118911Y-88475479D01*
X134068139Y-88477962D01*
X134023803Y-88484509D01*
X133982027Y-88482174D01*
X133934233Y-88484511D01*
X133889992Y-88477028D01*
X133851189Y-88474859D01*
X133804980Y-88462650D01*
X133751923Y-88453676D01*
X133715839Y-88439097D01*
X133684035Y-88430694D01*
X133635897Y-88406799D01*
X133580488Y-88384412D01*
X133553311Y-88365804D01*
X133529182Y-88353826D01*
X133482128Y-88317063D01*
X133427926Y-88279950D01*
X133409469Y-88260295D01*
X133392950Y-88247389D01*
X133350400Y-88197393D01*
X133301354Y-88145164D01*
X133290608Y-88127138D01*
X133280896Y-88115726D01*
X133246401Y-88052981D01*
X133206678Y-87986344D01*
X133201943Y-87972111D01*
X133197610Y-87964229D01*
X133174692Y-87890192D01*
X133148314Y-87810898D01*
X133147372Y-87801934D01*
X133146486Y-87799072D01*
X133138347Y-87716068D01*
X133128987Y-87627012D01*
X133138967Y-87538044D01*
X133147687Y-87455078D01*
X133148593Y-87452220D01*
X133149598Y-87443265D01*
X133176530Y-87364153D01*
X133199963Y-87290281D01*
X133204350Y-87282432D01*
X133209184Y-87268231D01*
X133249382Y-87201857D01*
X133284304Y-87139371D01*
X133294092Y-87128031D01*
X133304967Y-87110075D01*
X133354385Y-87058181D01*
X133397273Y-87008495D01*
X133413879Y-86995707D01*
X133432477Y-86976177D01*
X133486952Y-86939433D01*
X133534250Y-86903009D01*
X133558458Y-86891202D01*
X133585765Y-86872783D01*
X133641319Y-86850787D01*
X133689633Y-86827223D01*
X133721503Y-86819040D01*
X133757679Y-86804717D01*
X133810795Y-86796114D01*
X133857088Y-86784228D01*
X133895903Y-86782330D01*
X133940199Y-86775155D01*
X133987976Y-86777826D01*
G37*
G36*
X131447976Y-86777826D02*
G01*
X131489766Y-86775782D01*
X131534056Y-86782639D01*
X131584810Y-86785476D01*
X131625163Y-86796743D01*
X131660621Y-86802232D01*
X131708204Y-86819928D01*
X131762898Y-86835199D01*
X131794622Y-86852067D01*
X131822659Y-86862494D01*
X131870757Y-86892549D01*
X131926153Y-86922004D01*
X131948968Y-86941421D01*
X131969271Y-86954108D01*
X132014641Y-86997313D01*
X132066961Y-87041841D01*
X132081463Y-87060947D01*
X132094472Y-87073335D01*
X132133616Y-87129655D01*
X132178751Y-87189118D01*
X132186302Y-87205459D01*
X132193142Y-87215301D01*
X132222508Y-87283817D01*
X132256307Y-87356965D01*
X132258885Y-87368692D01*
X132261247Y-87374202D01*
X132277429Y-87453036D01*
X132296011Y-87537551D01*
X132295345Y-87728388D01*
X132276181Y-87812738D01*
X132259443Y-87891485D01*
X132257041Y-87896982D01*
X132254381Y-87908692D01*
X132220069Y-87981609D01*
X132190227Y-88049915D01*
X132183318Y-88059709D01*
X132175655Y-88075994D01*
X132130114Y-88135130D01*
X132090570Y-88191187D01*
X132077472Y-88203487D01*
X132062840Y-88222487D01*
X132010227Y-88266635D01*
X131964544Y-88309534D01*
X131944147Y-88322082D01*
X131921199Y-88341338D01*
X131865600Y-88370405D01*
X131817293Y-88400123D01*
X131789184Y-88410354D01*
X131757341Y-88427001D01*
X131702534Y-88441892D01*
X131654831Y-88459254D01*
X131619340Y-88464495D01*
X131578911Y-88475479D01*
X131528139Y-88477962D01*
X131483803Y-88484509D01*
X131442027Y-88482174D01*
X131394233Y-88484511D01*
X131349992Y-88477028D01*
X131311189Y-88474859D01*
X131264980Y-88462650D01*
X131211923Y-88453676D01*
X131175839Y-88439097D01*
X131144035Y-88430694D01*
X131095897Y-88406799D01*
X131040488Y-88384412D01*
X131013311Y-88365804D01*
X130989182Y-88353826D01*
X130942128Y-88317063D01*
X130887926Y-88279950D01*
X130869469Y-88260295D01*
X130852950Y-88247389D01*
X130810400Y-88197393D01*
X130761354Y-88145164D01*
X130750608Y-88127138D01*
X130740896Y-88115726D01*
X130706401Y-88052981D01*
X130666678Y-87986344D01*
X130661943Y-87972111D01*
X130657610Y-87964229D01*
X130634692Y-87890192D01*
X130608314Y-87810898D01*
X130607372Y-87801934D01*
X130606486Y-87799072D01*
X130598347Y-87716068D01*
X130588987Y-87627012D01*
X130598967Y-87538044D01*
X130607687Y-87455078D01*
X130608593Y-87452220D01*
X130609598Y-87443265D01*
X130636530Y-87364153D01*
X130659963Y-87290281D01*
X130664350Y-87282432D01*
X130669184Y-87268231D01*
X130709382Y-87201857D01*
X130744304Y-87139371D01*
X130754092Y-87128031D01*
X130764967Y-87110075D01*
X130814385Y-87058181D01*
X130857273Y-87008495D01*
X130873879Y-86995707D01*
X130892477Y-86976177D01*
X130946952Y-86939433D01*
X130994250Y-86903009D01*
X131018458Y-86891202D01*
X131045765Y-86872783D01*
X131101319Y-86850787D01*
X131149633Y-86827223D01*
X131181503Y-86819040D01*
X131217679Y-86804717D01*
X131270795Y-86796114D01*
X131317088Y-86784228D01*
X131355903Y-86782330D01*
X131400199Y-86775155D01*
X131447976Y-86777826D01*
G37*
G36*
X126367976Y-86777826D02*
G01*
X126409766Y-86775782D01*
X126454056Y-86782639D01*
X126504810Y-86785476D01*
X126545163Y-86796743D01*
X126580621Y-86802232D01*
X126628204Y-86819928D01*
X126682898Y-86835199D01*
X126714622Y-86852067D01*
X126742659Y-86862494D01*
X126790757Y-86892549D01*
X126846153Y-86922004D01*
X126868968Y-86941421D01*
X126889271Y-86954108D01*
X126934641Y-86997313D01*
X126986961Y-87041841D01*
X127001463Y-87060947D01*
X127014472Y-87073335D01*
X127053616Y-87129655D01*
X127098751Y-87189118D01*
X127106302Y-87205459D01*
X127113142Y-87215301D01*
X127142508Y-87283817D01*
X127176307Y-87356965D01*
X127178885Y-87368692D01*
X127181247Y-87374202D01*
X127197429Y-87453036D01*
X127216011Y-87537551D01*
X127215345Y-87728388D01*
X127196181Y-87812738D01*
X127179443Y-87891485D01*
X127177041Y-87896982D01*
X127174381Y-87908692D01*
X127140069Y-87981609D01*
X127110227Y-88049915D01*
X127103318Y-88059709D01*
X127095655Y-88075994D01*
X127050114Y-88135130D01*
X127010570Y-88191187D01*
X126997472Y-88203487D01*
X126982840Y-88222487D01*
X126930227Y-88266635D01*
X126884544Y-88309534D01*
X126864147Y-88322082D01*
X126841199Y-88341338D01*
X126785600Y-88370405D01*
X126737293Y-88400123D01*
X126709184Y-88410354D01*
X126677341Y-88427001D01*
X126622534Y-88441892D01*
X126574831Y-88459254D01*
X126539340Y-88464495D01*
X126498911Y-88475479D01*
X126448139Y-88477962D01*
X126403803Y-88484509D01*
X126362027Y-88482174D01*
X126314233Y-88484511D01*
X126269992Y-88477028D01*
X126231189Y-88474859D01*
X126184980Y-88462650D01*
X126131923Y-88453676D01*
X126095839Y-88439097D01*
X126064035Y-88430694D01*
X126015897Y-88406799D01*
X125960488Y-88384412D01*
X125933311Y-88365804D01*
X125909182Y-88353826D01*
X125862128Y-88317063D01*
X125807926Y-88279950D01*
X125789469Y-88260295D01*
X125772950Y-88247389D01*
X125730400Y-88197393D01*
X125681354Y-88145164D01*
X125670608Y-88127138D01*
X125660896Y-88115726D01*
X125626401Y-88052981D01*
X125586678Y-87986344D01*
X125581943Y-87972111D01*
X125577610Y-87964229D01*
X125554692Y-87890192D01*
X125528314Y-87810898D01*
X125527372Y-87801934D01*
X125526486Y-87799072D01*
X125518347Y-87716068D01*
X125508987Y-87627012D01*
X125518967Y-87538044D01*
X125527687Y-87455078D01*
X125528593Y-87452220D01*
X125529598Y-87443265D01*
X125556530Y-87364153D01*
X125579963Y-87290281D01*
X125584350Y-87282432D01*
X125589184Y-87268231D01*
X125629382Y-87201857D01*
X125664304Y-87139371D01*
X125674092Y-87128031D01*
X125684967Y-87110075D01*
X125734385Y-87058181D01*
X125777273Y-87008495D01*
X125793879Y-86995707D01*
X125812477Y-86976177D01*
X125866952Y-86939433D01*
X125914250Y-86903009D01*
X125938458Y-86891202D01*
X125965765Y-86872783D01*
X126021319Y-86850787D01*
X126069633Y-86827223D01*
X126101503Y-86819040D01*
X126137679Y-86804717D01*
X126190795Y-86796114D01*
X126237088Y-86784228D01*
X126275903Y-86782330D01*
X126320199Y-86775155D01*
X126367976Y-86777826D01*
G37*
G36*
X114349902Y-84189283D02*
G01*
X114394637Y-84189595D01*
X114438460Y-84198590D01*
X114488360Y-84203835D01*
X114530132Y-84217408D01*
X114567723Y-84225124D01*
X114614851Y-84244935D01*
X114668488Y-84262363D01*
X114701099Y-84281191D01*
X114730614Y-84293598D01*
X114778301Y-84325763D01*
X114832511Y-84357061D01*
X114855826Y-84378054D01*
X114877101Y-84392404D01*
X114922183Y-84437802D01*
X114973261Y-84483793D01*
X114988003Y-84504083D01*
X115001608Y-84517784D01*
X115040643Y-84576537D01*
X115084586Y-84637019D01*
X115092221Y-84654168D01*
X115099388Y-84664955D01*
X115128865Y-84736472D01*
X115161621Y-84810042D01*
X115164211Y-84822225D01*
X115166724Y-84828323D01*
X115183292Y-84911997D01*
X115200999Y-84995301D01*
X115200999Y-85184699D01*
X115198115Y-85198269D01*
X115198030Y-85204331D01*
X115179342Y-85286585D01*
X115161621Y-85369958D01*
X115159129Y-85375555D01*
X115159078Y-85375780D01*
X115087210Y-85537197D01*
X115087078Y-85537385D01*
X115084586Y-85542981D01*
X115034480Y-85611946D01*
X114985357Y-85681582D01*
X114980585Y-85686126D01*
X114973261Y-85696207D01*
X114913396Y-85750110D01*
X114857396Y-85803438D01*
X114846464Y-85810376D01*
X114832511Y-85822939D01*
X114767764Y-85860321D01*
X114708211Y-85898114D01*
X114690209Y-85905097D01*
X114668488Y-85917637D01*
X114603115Y-85938878D01*
X114543468Y-85962014D01*
X114518200Y-85966469D01*
X114488360Y-85976165D01*
X114426095Y-85982709D01*
X114369460Y-85992695D01*
X114337459Y-85992025D01*
X114300000Y-85995962D01*
X114243902Y-85990066D01*
X114192799Y-85988996D01*
X114155323Y-85980756D01*
X114111640Y-85976165D01*
X114063917Y-85960659D01*
X114020225Y-85951052D01*
X113979230Y-85933142D01*
X113931512Y-85917637D01*
X113893473Y-85895675D01*
X113858310Y-85880313D01*
X113816337Y-85851141D01*
X113767489Y-85822939D01*
X113739504Y-85797741D01*
X113713215Y-85779470D01*
X113673257Y-85738092D01*
X113626739Y-85696207D01*
X113608296Y-85670823D01*
X113590473Y-85652366D01*
X113555821Y-85598597D01*
X113515414Y-85542981D01*
X113505212Y-85520066D01*
X113494754Y-85503839D01*
X113468789Y-85438261D01*
X113438379Y-85369958D01*
X113434476Y-85351596D01*
X113429707Y-85339551D01*
X113415740Y-85263448D01*
X113399001Y-85184699D01*
X113399001Y-85172246D01*
X113397811Y-85165762D01*
X113399001Y-85080535D01*
X113399001Y-84995301D01*
X113400275Y-84989308D01*
X113400278Y-84989077D01*
X113437015Y-84816246D01*
X113437105Y-84816036D01*
X113438379Y-84810042D01*
X113473042Y-84732188D01*
X113506622Y-84653839D01*
X113510348Y-84648397D01*
X113515414Y-84637019D01*
X113562746Y-84571872D01*
X113606452Y-84508041D01*
X113615706Y-84498979D01*
X113626739Y-84483793D01*
X113682297Y-84433769D01*
X113732693Y-84384417D01*
X113748848Y-84373846D01*
X113767489Y-84357061D01*
X113827026Y-84322687D01*
X113880551Y-84287662D01*
X113904340Y-84278050D01*
X113931512Y-84262363D01*
X113991045Y-84243019D01*
X114044376Y-84221472D01*
X114075820Y-84215474D01*
X114111640Y-84203835D01*
X114167744Y-84197938D01*
X114217945Y-84188362D01*
X114256312Y-84188630D01*
X114300000Y-84184038D01*
X114349902Y-84189283D01*
G37*
G36*
X117709899Y-84191959D02*
G01*
X117726769Y-84203231D01*
X117738041Y-84220101D01*
X117744448Y-84252312D01*
X117744448Y-85927688D01*
X117741999Y-85940000D01*
X117738041Y-85959899D01*
X117726769Y-85976769D01*
X117709899Y-85988041D01*
X117690000Y-85991999D01*
X117677688Y-85994448D01*
X116002312Y-85994448D01*
X115970101Y-85988041D01*
X115953231Y-85976769D01*
X115941959Y-85959899D01*
X115935552Y-85927688D01*
X115935552Y-84252312D01*
X115941959Y-84220101D01*
X115953231Y-84203231D01*
X115970101Y-84191959D01*
X116002312Y-84185552D01*
X117677688Y-84185552D01*
X117709899Y-84191959D01*
G37*
M02*
