G04 #@! TF.GenerationSoftware,KiCad,Pcbnew,5.99.0-unknown-r17121-d4cea0f2*
G04 #@! TF.CreationDate,2019-12-07T19:13:35-06:00*
G04 #@! TF.ProjectId,8_led_pmod,385f6c65-645f-4706-9d6f-642e6b696361,A*
G04 #@! TF.SameCoordinates,Original*
G04 #@! TF.FileFunction,Legend,Bot*
G04 #@! TF.FilePolarity,Positive*
%FSLAX46Y46*%
G04 Gerber Fmt 4.6, Leading zero omitted, Abs format (unit mm)*
G04 Created by KiCad (PCBNEW 5.99.0-unknown-r17121-d4cea0f2) date 2019-12-07 19:13:35*
%MOMM*%
%LPD*%
G04 APERTURE LIST*
%ADD10C,0.300000*%
%ADD11C,0.010000*%
G04 APERTURE END LIST*
D10*
X144354285Y-90053928D02*
X144497142Y-89982500D01*
X144568571Y-89911071D01*
X144640000Y-89768214D01*
X144640000Y-89696785D01*
X144568571Y-89553928D01*
X144497142Y-89482500D01*
X144354285Y-89411071D01*
X144068571Y-89411071D01*
X143925714Y-89482500D01*
X143854285Y-89553928D01*
X143782857Y-89696785D01*
X143782857Y-89768214D01*
X143854285Y-89911071D01*
X143925714Y-89982500D01*
X144068571Y-90053928D01*
X144354285Y-90053928D01*
X144497142Y-90125357D01*
X144568571Y-90196785D01*
X144640000Y-90339642D01*
X144640000Y-90625357D01*
X144568571Y-90768214D01*
X144497142Y-90839642D01*
X144354285Y-90911071D01*
X144068571Y-90911071D01*
X143925714Y-90839642D01*
X143854285Y-90768214D01*
X143782857Y-90625357D01*
X143782857Y-90339642D01*
X143854285Y-90196785D01*
X143925714Y-90125357D01*
X144068571Y-90053928D01*
X143140000Y-90339642D02*
X141997142Y-90339642D01*
X141354285Y-90839642D02*
X141140000Y-90911071D01*
X140782857Y-90911071D01*
X140640000Y-90839642D01*
X140568571Y-90768214D01*
X140497142Y-90625357D01*
X140497142Y-90482500D01*
X140568571Y-90339642D01*
X140640000Y-90268214D01*
X140782857Y-90196785D01*
X141068571Y-90125357D01*
X141211428Y-90053928D01*
X141282857Y-89982500D01*
X141354285Y-89839642D01*
X141354285Y-89696785D01*
X141282857Y-89553928D01*
X141211428Y-89482500D01*
X141068571Y-89411071D01*
X140711428Y-89411071D01*
X140497142Y-89482500D01*
X139282857Y-90839642D02*
X139425714Y-90911071D01*
X139711428Y-90911071D01*
X139854285Y-90839642D01*
X139925714Y-90696785D01*
X139925714Y-90125357D01*
X139854285Y-89982500D01*
X139711428Y-89911071D01*
X139425714Y-89911071D01*
X139282857Y-89982500D01*
X139211428Y-90125357D01*
X139211428Y-90268214D01*
X139925714Y-90411071D01*
X137925714Y-89911071D02*
X137925714Y-91125357D01*
X137997142Y-91268214D01*
X138068571Y-91339642D01*
X138211428Y-91411071D01*
X138425714Y-91411071D01*
X138568571Y-91339642D01*
X137925714Y-90839642D02*
X138068571Y-90911071D01*
X138354285Y-90911071D01*
X138497142Y-90839642D01*
X138568571Y-90768214D01*
X138640000Y-90625357D01*
X138640000Y-90196785D01*
X138568571Y-90053928D01*
X138497142Y-89982500D01*
X138354285Y-89911071D01*
X138068571Y-89911071D01*
X137925714Y-89982500D01*
X137211428Y-90911071D02*
X137211428Y-89911071D01*
X137211428Y-90053928D02*
X137140000Y-89982500D01*
X136997142Y-89911071D01*
X136782857Y-89911071D01*
X136640000Y-89982500D01*
X136568571Y-90125357D01*
X136568571Y-90911071D01*
X136568571Y-90125357D02*
X136497142Y-89982500D01*
X136354285Y-89911071D01*
X136140000Y-89911071D01*
X135997142Y-89982500D01*
X135925714Y-90125357D01*
X135925714Y-90911071D01*
X134640000Y-90839642D02*
X134782857Y-90911071D01*
X135068571Y-90911071D01*
X135211428Y-90839642D01*
X135282857Y-90696785D01*
X135282857Y-90125357D01*
X135211428Y-89982500D01*
X135068571Y-89911071D01*
X134782857Y-89911071D01*
X134640000Y-89982500D01*
X134568571Y-90125357D01*
X134568571Y-90268214D01*
X135282857Y-90411071D01*
X133925714Y-89911071D02*
X133925714Y-90911071D01*
X133925714Y-90053928D02*
X133854285Y-89982500D01*
X133711428Y-89911071D01*
X133497142Y-89911071D01*
X133354285Y-89982500D01*
X133282857Y-90125357D01*
X133282857Y-90911071D01*
X132782857Y-89911071D02*
X132211428Y-89911071D01*
X132568571Y-89411071D02*
X132568571Y-90696785D01*
X132497142Y-90839642D01*
X132354285Y-90911071D01*
X132211428Y-90911071D01*
X129854285Y-90911071D02*
X130568571Y-90911071D01*
X130568571Y-89411071D01*
X129354285Y-90125357D02*
X128854285Y-90125357D01*
X128640000Y-90911071D02*
X129354285Y-90911071D01*
X129354285Y-89411071D01*
X128640000Y-89411071D01*
X127997142Y-90911071D02*
X127997142Y-89411071D01*
X127640000Y-89411071D01*
X127425714Y-89482500D01*
X127282857Y-89625357D01*
X127211428Y-89768214D01*
X127140000Y-90053928D01*
X127140000Y-90268214D01*
X127211428Y-90553928D01*
X127282857Y-90696785D01*
X127425714Y-90839642D01*
X127640000Y-90911071D01*
X127997142Y-90911071D01*
X140747142Y-92540357D02*
X140532857Y-92611785D01*
X140461428Y-92683214D01*
X140390000Y-92826071D01*
X140390000Y-93040357D01*
X140461428Y-93183214D01*
X140532857Y-93254642D01*
X140675714Y-93326071D01*
X141247142Y-93326071D01*
X141247142Y-91826071D01*
X140747142Y-91826071D01*
X140604285Y-91897500D01*
X140532857Y-91968928D01*
X140461428Y-92111785D01*
X140461428Y-92254642D01*
X140532857Y-92397500D01*
X140604285Y-92468928D01*
X140747142Y-92540357D01*
X141247142Y-92540357D01*
X139104285Y-93326071D02*
X139104285Y-92540357D01*
X139175714Y-92397500D01*
X139318571Y-92326071D01*
X139604285Y-92326071D01*
X139747142Y-92397500D01*
X139104285Y-93254642D02*
X139247142Y-93326071D01*
X139604285Y-93326071D01*
X139747142Y-93254642D01*
X139818571Y-93111785D01*
X139818571Y-92968928D01*
X139747142Y-92826071D01*
X139604285Y-92754642D01*
X139247142Y-92754642D01*
X139104285Y-92683214D01*
X138390000Y-93326071D02*
X138390000Y-92326071D01*
X138390000Y-92611785D02*
X138318571Y-92468928D01*
X138247142Y-92397500D01*
X138104285Y-92326071D01*
X137961428Y-92326071D01*
X135532857Y-91897500D02*
X135675714Y-91826071D01*
X135890000Y-91826071D01*
X136104285Y-91897500D01*
X136247142Y-92040357D01*
X136318571Y-92183214D01*
X136390000Y-92468928D01*
X136390000Y-92683214D01*
X136318571Y-92968928D01*
X136247142Y-93111785D01*
X136104285Y-93254642D01*
X135890000Y-93326071D01*
X135747142Y-93326071D01*
X135532857Y-93254642D01*
X135461428Y-93183214D01*
X135461428Y-92683214D01*
X135747142Y-92683214D01*
X134818571Y-93326071D02*
X134818571Y-92326071D01*
X134818571Y-92611785D02*
X134747142Y-92468928D01*
X134675714Y-92397500D01*
X134532857Y-92326071D01*
X134390000Y-92326071D01*
X133247142Y-93326071D02*
X133247142Y-92540357D01*
X133318571Y-92397500D01*
X133461428Y-92326071D01*
X133747142Y-92326071D01*
X133890000Y-92397500D01*
X133247142Y-93254642D02*
X133390000Y-93326071D01*
X133747142Y-93326071D01*
X133890000Y-93254642D01*
X133961428Y-93111785D01*
X133961428Y-92968928D01*
X133890000Y-92826071D01*
X133747142Y-92754642D01*
X133390000Y-92754642D01*
X133247142Y-92683214D01*
X132532857Y-92326071D02*
X132532857Y-93826071D01*
X132532857Y-92397500D02*
X132390000Y-92326071D01*
X132104285Y-92326071D01*
X131961428Y-92397500D01*
X131890000Y-92468928D01*
X131818571Y-92611785D01*
X131818571Y-93040357D01*
X131890000Y-93183214D01*
X131961428Y-93254642D01*
X132104285Y-93326071D01*
X132390000Y-93326071D01*
X132532857Y-93254642D01*
X131175714Y-93326071D02*
X131175714Y-91826071D01*
X130532857Y-93326071D02*
X130532857Y-92540357D01*
X130604285Y-92397500D01*
X130747142Y-92326071D01*
X130961428Y-92326071D01*
X131104285Y-92397500D01*
X131175714Y-92468928D01*
G36*
X126155252Y-93853000D02*
G01*
X126155651Y-93885339D01*
X126156929Y-93993455D01*
X126157185Y-94076186D01*
X126155634Y-94136426D01*
X126151490Y-94177073D01*
X126143964Y-94201023D01*
X126132271Y-94211171D01*
X126115624Y-94210414D01*
X126093236Y-94201648D01*
X126064321Y-94187769D01*
X126058142Y-94184808D01*
X126032413Y-94170311D01*
X126018976Y-94153065D01*
X126013834Y-94124308D01*
X126012990Y-94075283D01*
X126012952Y-93987257D01*
X125922276Y-93987257D01*
X125866498Y-93984815D01*
X125822640Y-93974908D01*
X125786218Y-93954886D01*
X125783503Y-93952929D01*
X125746546Y-93919869D01*
X125720826Y-93879931D01*
X125704606Y-93827657D01*
X125696148Y-93757588D01*
X125694084Y-93678430D01*
X125838857Y-93678430D01*
X125838882Y-93691697D01*
X125840261Y-93751584D01*
X125844687Y-93790732D01*
X125853461Y-93816153D01*
X125867886Y-93834857D01*
X125868784Y-93835750D01*
X125904237Y-93859952D01*
X125938596Y-93857567D01*
X125977403Y-93828260D01*
X125986895Y-93818244D01*
X126000876Y-93797708D01*
X126008760Y-93770997D01*
X126012245Y-93730499D01*
X126013029Y-93668603D01*
X126012350Y-93631130D01*
X126004983Y-93562980D01*
X125988168Y-93518330D01*
X125960234Y-93493926D01*
X125919509Y-93486514D01*
X125902350Y-93488094D01*
X125872660Y-93503766D01*
X125853031Y-93538691D01*
X125842188Y-93595901D01*
X125838857Y-93678430D01*
X125694084Y-93678430D01*
X125693714Y-93664267D01*
X125694253Y-93596169D01*
X125696707Y-93544587D01*
X125702158Y-93508816D01*
X125711686Y-93482015D01*
X125726371Y-93457338D01*
X125739852Y-93438480D01*
X125788799Y-93387568D01*
X125844256Y-93359918D01*
X125913928Y-93351165D01*
X125993664Y-93359890D01*
X126062595Y-93391185D01*
X126117113Y-93446381D01*
X126121223Y-93452224D01*
X126130808Y-93467753D01*
X126138151Y-93485498D01*
X126143612Y-93509290D01*
X126147550Y-93542958D01*
X126150323Y-93590333D01*
X126152292Y-93655245D01*
X126152528Y-93668603D01*
X126153815Y-93741524D01*
X126155252Y-93853000D01*
G37*
D11*
X126155252Y-93853000D02*
X126155651Y-93885339D01*
X126156929Y-93993455D01*
X126157185Y-94076186D01*
X126155634Y-94136426D01*
X126151490Y-94177073D01*
X126143964Y-94201023D01*
X126132271Y-94211171D01*
X126115624Y-94210414D01*
X126093236Y-94201648D01*
X126064321Y-94187769D01*
X126058142Y-94184808D01*
X126032413Y-94170311D01*
X126018976Y-94153065D01*
X126013834Y-94124308D01*
X126012990Y-94075283D01*
X126012952Y-93987257D01*
X125922276Y-93987257D01*
X125866498Y-93984815D01*
X125822640Y-93974908D01*
X125786218Y-93954886D01*
X125783503Y-93952929D01*
X125746546Y-93919869D01*
X125720826Y-93879931D01*
X125704606Y-93827657D01*
X125696148Y-93757588D01*
X125694084Y-93678430D01*
X125838857Y-93678430D01*
X125838882Y-93691697D01*
X125840261Y-93751584D01*
X125844687Y-93790732D01*
X125853461Y-93816153D01*
X125867886Y-93834857D01*
X125868784Y-93835750D01*
X125904237Y-93859952D01*
X125938596Y-93857567D01*
X125977403Y-93828260D01*
X125986895Y-93818244D01*
X126000876Y-93797708D01*
X126008760Y-93770997D01*
X126012245Y-93730499D01*
X126013029Y-93668603D01*
X126012350Y-93631130D01*
X126004983Y-93562980D01*
X125988168Y-93518330D01*
X125960234Y-93493926D01*
X125919509Y-93486514D01*
X125902350Y-93488094D01*
X125872660Y-93503766D01*
X125853031Y-93538691D01*
X125842188Y-93595901D01*
X125838857Y-93678430D01*
X125694084Y-93678430D01*
X125693714Y-93664267D01*
X125694253Y-93596169D01*
X125696707Y-93544587D01*
X125702158Y-93508816D01*
X125711686Y-93482015D01*
X125726371Y-93457338D01*
X125739852Y-93438480D01*
X125788799Y-93387568D01*
X125844256Y-93359918D01*
X125913928Y-93351165D01*
X125993664Y-93359890D01*
X126062595Y-93391185D01*
X126117113Y-93446381D01*
X126121223Y-93452224D01*
X126130808Y-93467753D01*
X126138151Y-93485498D01*
X126143612Y-93509290D01*
X126147550Y-93542958D01*
X126150323Y-93590333D01*
X126152292Y-93655245D01*
X126152528Y-93668603D01*
X126153815Y-93741524D01*
X126155252Y-93853000D01*
G36*
X124875020Y-93357822D02*
G01*
X124942810Y-93389680D01*
X124998366Y-93444770D01*
X125009881Y-93462016D01*
X125019432Y-93481562D01*
X125026206Y-93506198D01*
X125030819Y-93540711D01*
X125033888Y-93589889D01*
X125036029Y-93658519D01*
X125037859Y-93751389D01*
X125042404Y-94009007D01*
X125004225Y-93994491D01*
X124969268Y-93981156D01*
X124943097Y-93968323D01*
X124926013Y-93951780D01*
X124916086Y-93926465D01*
X124911386Y-93887316D01*
X124909982Y-93829268D01*
X124909943Y-93747261D01*
X124909744Y-93681895D01*
X124908559Y-93619173D01*
X124905729Y-93576334D01*
X124900609Y-93548220D01*
X124892553Y-93529675D01*
X124880914Y-93515543D01*
X124852303Y-93495600D01*
X124804239Y-93488083D01*
X124756688Y-93507079D01*
X124753550Y-93509511D01*
X124743769Y-93520748D01*
X124736553Y-93538770D01*
X124731299Y-93568026D01*
X124727402Y-93612962D01*
X124724256Y-93678028D01*
X124721257Y-93767670D01*
X124714000Y-94007697D01*
X124652314Y-93980044D01*
X124590629Y-93952391D01*
X124590629Y-93733246D01*
X124590884Y-93673711D01*
X124593086Y-93590892D01*
X124598661Y-93529227D01*
X124608941Y-93483748D01*
X124625258Y-93449484D01*
X124648943Y-93421466D01*
X124681328Y-93394723D01*
X124727907Y-93367780D01*
X124801287Y-93350191D01*
X124875020Y-93357822D01*
G37*
X124875020Y-93357822D02*
X124942810Y-93389680D01*
X124998366Y-93444770D01*
X125009881Y-93462016D01*
X125019432Y-93481562D01*
X125026206Y-93506198D01*
X125030819Y-93540711D01*
X125033888Y-93589889D01*
X125036029Y-93658519D01*
X125037859Y-93751389D01*
X125042404Y-94009007D01*
X125004225Y-93994491D01*
X124969268Y-93981156D01*
X124943097Y-93968323D01*
X124926013Y-93951780D01*
X124916086Y-93926465D01*
X124911386Y-93887316D01*
X124909982Y-93829268D01*
X124909943Y-93747261D01*
X124909744Y-93681895D01*
X124908559Y-93619173D01*
X124905729Y-93576334D01*
X124900609Y-93548220D01*
X124892553Y-93529675D01*
X124880914Y-93515543D01*
X124852303Y-93495600D01*
X124804239Y-93488083D01*
X124756688Y-93507079D01*
X124753550Y-93509511D01*
X124743769Y-93520748D01*
X124736553Y-93538770D01*
X124731299Y-93568026D01*
X124727402Y-93612962D01*
X124724256Y-93678028D01*
X124721257Y-93767670D01*
X124714000Y-94007697D01*
X124652314Y-93980044D01*
X124590629Y-93952391D01*
X124590629Y-93733246D01*
X124590884Y-93673711D01*
X124593086Y-93590892D01*
X124598661Y-93529227D01*
X124608941Y-93483748D01*
X124625258Y-93449484D01*
X124648943Y-93421466D01*
X124681328Y-93394723D01*
X124727907Y-93367780D01*
X124801287Y-93350191D01*
X124875020Y-93357822D01*
G36*
X126709701Y-93690935D02*
G01*
X126708914Y-93761119D01*
X126706210Y-93810022D01*
X126700606Y-93844178D01*
X126691119Y-93870124D01*
X126676768Y-93894397D01*
X126673237Y-93899433D01*
X126635878Y-93939143D01*
X126593311Y-93969092D01*
X126571452Y-93978810D01*
X126492908Y-93995020D01*
X126415231Y-93984535D01*
X126343645Y-93948707D01*
X126283374Y-93888887D01*
X126278286Y-93880873D01*
X126261730Y-93834342D01*
X126250573Y-93769552D01*
X126245160Y-93694727D01*
X126245767Y-93625513D01*
X126392248Y-93625513D01*
X126393402Y-93721399D01*
X126393866Y-93727569D01*
X126400629Y-93780478D01*
X126412671Y-93814029D01*
X126433005Y-93837016D01*
X126467097Y-93858548D01*
X126500814Y-93859680D01*
X126535543Y-93834857D01*
X126541584Y-93828325D01*
X126553417Y-93808779D01*
X126560404Y-93780386D01*
X126563727Y-93736430D01*
X126564571Y-93670192D01*
X126563125Y-93608150D01*
X126555907Y-93549042D01*
X126541006Y-93511686D01*
X126516636Y-93492152D01*
X126481008Y-93486514D01*
X126467440Y-93487635D01*
X126429430Y-93508194D01*
X126404312Y-93554299D01*
X126392248Y-93625513D01*
X126245767Y-93625513D01*
X126245833Y-93618096D01*
X126252937Y-93547882D01*
X126266815Y-93492312D01*
X126284649Y-93455301D01*
X126334855Y-93397733D01*
X126402885Y-93361962D01*
X126486158Y-93349665D01*
X126508398Y-93350331D01*
X126573891Y-93363947D01*
X126627687Y-93398249D01*
X126677057Y-93457338D01*
X126679995Y-93461722D01*
X126693287Y-93485299D01*
X126701932Y-93511949D01*
X126706904Y-93548159D01*
X126709174Y-93600413D01*
X126709678Y-93670192D01*
X126709714Y-93675200D01*
X126709701Y-93690935D01*
G37*
X126709701Y-93690935D02*
X126708914Y-93761119D01*
X126706210Y-93810022D01*
X126700606Y-93844178D01*
X126691119Y-93870124D01*
X126676768Y-93894397D01*
X126673237Y-93899433D01*
X126635878Y-93939143D01*
X126593311Y-93969092D01*
X126571452Y-93978810D01*
X126492908Y-93995020D01*
X126415231Y-93984535D01*
X126343645Y-93948707D01*
X126283374Y-93888887D01*
X126278286Y-93880873D01*
X126261730Y-93834342D01*
X126250573Y-93769552D01*
X126245160Y-93694727D01*
X126245767Y-93625513D01*
X126392248Y-93625513D01*
X126393402Y-93721399D01*
X126393866Y-93727569D01*
X126400629Y-93780478D01*
X126412671Y-93814029D01*
X126433005Y-93837016D01*
X126467097Y-93858548D01*
X126500814Y-93859680D01*
X126535543Y-93834857D01*
X126541584Y-93828325D01*
X126553417Y-93808779D01*
X126560404Y-93780386D01*
X126563727Y-93736430D01*
X126564571Y-93670192D01*
X126563125Y-93608150D01*
X126555907Y-93549042D01*
X126541006Y-93511686D01*
X126516636Y-93492152D01*
X126481008Y-93486514D01*
X126467440Y-93487635D01*
X126429430Y-93508194D01*
X126404312Y-93554299D01*
X126392248Y-93625513D01*
X126245767Y-93625513D01*
X126245833Y-93618096D01*
X126252937Y-93547882D01*
X126266815Y-93492312D01*
X126284649Y-93455301D01*
X126334855Y-93397733D01*
X126402885Y-93361962D01*
X126486158Y-93349665D01*
X126508398Y-93350331D01*
X126573891Y-93363947D01*
X126627687Y-93398249D01*
X126677057Y-93457338D01*
X126679995Y-93461722D01*
X126693287Y-93485299D01*
X126701932Y-93511949D01*
X126706904Y-93548159D01*
X126709174Y-93600413D01*
X126709678Y-93670192D01*
X126709714Y-93675200D01*
X126709701Y-93690935D01*
G36*
X125601684Y-93744078D02*
G01*
X125599078Y-93767387D01*
X125579660Y-93850352D01*
X125544573Y-93913448D01*
X125491212Y-93961808D01*
X125488196Y-93963804D01*
X125420362Y-93992185D01*
X125349535Y-93994711D01*
X125281289Y-93973097D01*
X125221196Y-93929062D01*
X125174829Y-93864322D01*
X125174050Y-93862761D01*
X125158643Y-93822558D01*
X125147357Y-93776866D01*
X125141370Y-93733972D01*
X125141861Y-93702160D01*
X125150007Y-93689714D01*
X125157244Y-93690471D01*
X125191851Y-93704235D01*
X125231078Y-93729546D01*
X125264448Y-93758845D01*
X125281483Y-93784572D01*
X125299192Y-93819471D01*
X125335485Y-93851212D01*
X125377630Y-93863886D01*
X125393077Y-93860221D01*
X125423569Y-93841774D01*
X125450128Y-93816166D01*
X125461486Y-93792934D01*
X125461482Y-93792848D01*
X125448596Y-93782179D01*
X125414241Y-93762933D01*
X125363593Y-93737813D01*
X125301829Y-93709524D01*
X125301489Y-93709374D01*
X125234388Y-93679498D01*
X125189411Y-93657973D01*
X125162145Y-93641437D01*
X125148178Y-93626531D01*
X125143097Y-93609893D01*
X125142490Y-93588162D01*
X125146711Y-93547013D01*
X125290000Y-93547013D01*
X125304791Y-93559949D01*
X125341644Y-93579333D01*
X125342725Y-93579881D01*
X125386205Y-93600587D01*
X125425102Y-93617105D01*
X125449778Y-93624093D01*
X125459676Y-93614753D01*
X125461486Y-93582748D01*
X125453966Y-93542915D01*
X125427897Y-93506717D01*
X125390154Y-93487950D01*
X125348077Y-93489845D01*
X125309005Y-93515632D01*
X125293647Y-93533451D01*
X125290000Y-93547013D01*
X125146711Y-93547013D01*
X125147833Y-93536086D01*
X125174251Y-93465335D01*
X125218473Y-93409735D01*
X125275697Y-93371239D01*
X125341120Y-93351797D01*
X125409937Y-93353359D01*
X125477347Y-93377878D01*
X125538544Y-93427302D01*
X125572450Y-93476212D01*
X125596806Y-93546027D01*
X125600767Y-93582748D01*
X125606299Y-93634055D01*
X125601684Y-93744078D01*
G37*
X125601684Y-93744078D02*
X125599078Y-93767387D01*
X125579660Y-93850352D01*
X125544573Y-93913448D01*
X125491212Y-93961808D01*
X125488196Y-93963804D01*
X125420362Y-93992185D01*
X125349535Y-93994711D01*
X125281289Y-93973097D01*
X125221196Y-93929062D01*
X125174829Y-93864322D01*
X125174050Y-93862761D01*
X125158643Y-93822558D01*
X125147357Y-93776866D01*
X125141370Y-93733972D01*
X125141861Y-93702160D01*
X125150007Y-93689714D01*
X125157244Y-93690471D01*
X125191851Y-93704235D01*
X125231078Y-93729546D01*
X125264448Y-93758845D01*
X125281483Y-93784572D01*
X125299192Y-93819471D01*
X125335485Y-93851212D01*
X125377630Y-93863886D01*
X125393077Y-93860221D01*
X125423569Y-93841774D01*
X125450128Y-93816166D01*
X125461486Y-93792934D01*
X125461482Y-93792848D01*
X125448596Y-93782179D01*
X125414241Y-93762933D01*
X125363593Y-93737813D01*
X125301829Y-93709524D01*
X125301489Y-93709374D01*
X125234388Y-93679498D01*
X125189411Y-93657973D01*
X125162145Y-93641437D01*
X125148178Y-93626531D01*
X125143097Y-93609893D01*
X125142490Y-93588162D01*
X125146711Y-93547013D01*
X125290000Y-93547013D01*
X125304791Y-93559949D01*
X125341644Y-93579333D01*
X125342725Y-93579881D01*
X125386205Y-93600587D01*
X125425102Y-93617105D01*
X125449778Y-93624093D01*
X125459676Y-93614753D01*
X125461486Y-93582748D01*
X125453966Y-93542915D01*
X125427897Y-93506717D01*
X125390154Y-93487950D01*
X125348077Y-93489845D01*
X125309005Y-93515632D01*
X125293647Y-93533451D01*
X125290000Y-93547013D01*
X125146711Y-93547013D01*
X125147833Y-93536086D01*
X125174251Y-93465335D01*
X125218473Y-93409735D01*
X125275697Y-93371239D01*
X125341120Y-93351797D01*
X125409937Y-93353359D01*
X125477347Y-93377878D01*
X125538544Y-93427302D01*
X125572450Y-93476212D01*
X125596806Y-93546027D01*
X125600767Y-93582748D01*
X125606299Y-93634055D01*
X125601684Y-93744078D01*
G36*
X124122543Y-93189444D02*
G01*
X124169714Y-93209342D01*
X124169714Y-93606509D01*
X124169519Y-93709498D01*
X124168998Y-93802141D01*
X124168199Y-93880700D01*
X124167172Y-93941439D01*
X124165963Y-93980623D01*
X124164623Y-93994514D01*
X124164099Y-93994468D01*
X124146287Y-93989420D01*
X124113823Y-93978580D01*
X124068114Y-93962646D01*
X124068114Y-93758173D01*
X124067824Y-93677832D01*
X124066474Y-93619562D01*
X124063369Y-93579909D01*
X124057812Y-93553618D01*
X124049107Y-93535436D01*
X124036556Y-93520107D01*
X124027999Y-93511955D01*
X123981728Y-93489375D01*
X123930728Y-93491375D01*
X123883993Y-93518073D01*
X123877189Y-93524698D01*
X123866293Y-93538456D01*
X123858836Y-93556642D01*
X123854169Y-93584177D01*
X123851642Y-93625981D01*
X123850602Y-93686973D01*
X123850400Y-93772073D01*
X123850303Y-93815234D01*
X123849674Y-93886224D01*
X123848556Y-93943076D01*
X123847063Y-93980828D01*
X123845309Y-93994514D01*
X123844785Y-93994468D01*
X123826973Y-93989420D01*
X123794509Y-93978580D01*
X123748800Y-93962646D01*
X123748823Y-93757237D01*
X123748857Y-93738951D01*
X123750778Y-93643626D01*
X123756678Y-93571543D01*
X123768001Y-93517813D01*
X123786187Y-93477549D01*
X123812679Y-93445861D01*
X123848918Y-93417861D01*
X123884263Y-93400333D01*
X123940773Y-93386785D01*
X123996356Y-93386015D01*
X124039086Y-93399195D01*
X124042298Y-93401015D01*
X124052205Y-93400820D01*
X124058975Y-93385572D01*
X124063861Y-93350613D01*
X124068114Y-93291289D01*
X124075371Y-93169547D01*
X124122543Y-93189444D01*
G37*
X124122543Y-93189444D02*
X124169714Y-93209342D01*
X124169714Y-93606509D01*
X124169519Y-93709498D01*
X124168998Y-93802141D01*
X124168199Y-93880700D01*
X124167172Y-93941439D01*
X124165963Y-93980623D01*
X124164623Y-93994514D01*
X124164099Y-93994468D01*
X124146287Y-93989420D01*
X124113823Y-93978580D01*
X124068114Y-93962646D01*
X124068114Y-93758173D01*
X124067824Y-93677832D01*
X124066474Y-93619562D01*
X124063369Y-93579909D01*
X124057812Y-93553618D01*
X124049107Y-93535436D01*
X124036556Y-93520107D01*
X124027999Y-93511955D01*
X123981728Y-93489375D01*
X123930728Y-93491375D01*
X123883993Y-93518073D01*
X123877189Y-93524698D01*
X123866293Y-93538456D01*
X123858836Y-93556642D01*
X123854169Y-93584177D01*
X123851642Y-93625981D01*
X123850602Y-93686973D01*
X123850400Y-93772073D01*
X123850303Y-93815234D01*
X123849674Y-93886224D01*
X123848556Y-93943076D01*
X123847063Y-93980828D01*
X123845309Y-93994514D01*
X123844785Y-93994468D01*
X123826973Y-93989420D01*
X123794509Y-93978580D01*
X123748800Y-93962646D01*
X123748823Y-93757237D01*
X123748857Y-93738951D01*
X123750778Y-93643626D01*
X123756678Y-93571543D01*
X123768001Y-93517813D01*
X123786187Y-93477549D01*
X123812679Y-93445861D01*
X123848918Y-93417861D01*
X123884263Y-93400333D01*
X123940773Y-93386785D01*
X123996356Y-93386015D01*
X124039086Y-93399195D01*
X124042298Y-93401015D01*
X124052205Y-93400820D01*
X124058975Y-93385572D01*
X124063861Y-93350613D01*
X124068114Y-93291289D01*
X124075371Y-93169547D01*
X124122543Y-93189444D01*
G36*
X123533483Y-93400569D02*
G01*
X123583376Y-93429661D01*
X123605325Y-93452327D01*
X123647504Y-93520082D01*
X123661714Y-93593950D01*
X123661714Y-93644770D01*
X123614999Y-93625128D01*
X123582692Y-93605308D01*
X123557231Y-93564160D01*
X123554616Y-93555675D01*
X123526478Y-93512451D01*
X123484067Y-93489103D01*
X123435370Y-93488100D01*
X123388373Y-93511914D01*
X123381357Y-93518056D01*
X123357893Y-93544745D01*
X123354019Y-93568014D01*
X123371768Y-93590862D01*
X123413179Y-93616287D01*
X123480286Y-93647288D01*
X123484824Y-93649252D01*
X123559322Y-93683990D01*
X123610203Y-93714763D01*
X123641525Y-93745488D01*
X123657343Y-93780082D01*
X123661714Y-93822462D01*
X123655986Y-93869446D01*
X123627062Y-93929585D01*
X123576178Y-93972788D01*
X123539374Y-93985759D01*
X123487434Y-93992856D01*
X123436999Y-93991340D01*
X123400983Y-93980632D01*
X123397158Y-93977966D01*
X123386998Y-93959337D01*
X123394048Y-93926505D01*
X123406297Y-93900735D01*
X123425939Y-93890006D01*
X123463191Y-93890539D01*
X123514908Y-93887462D01*
X123548701Y-93866212D01*
X123560114Y-93826877D01*
X123560104Y-93825747D01*
X123553187Y-93802913D01*
X123529659Y-93781963D01*
X123483914Y-93757815D01*
X123421704Y-93728741D01*
X123380499Y-93712925D01*
X123356712Y-93713944D01*
X123345597Y-93734837D01*
X123342408Y-93778641D01*
X123342400Y-93848393D01*
X123342044Y-93891452D01*
X123340413Y-93944626D01*
X123337761Y-93981022D01*
X123334422Y-93994514D01*
X123333530Y-93994423D01*
X123314237Y-93987110D01*
X123282284Y-93971678D01*
X123238124Y-93948842D01*
X123243371Y-93743078D01*
X123243736Y-93729432D01*
X123247904Y-93633651D01*
X123255268Y-93561462D01*
X123267330Y-93508058D01*
X123285593Y-93468633D01*
X123311560Y-93438380D01*
X123346733Y-93412493D01*
X123347384Y-93412087D01*
X123404256Y-93390968D01*
X123470033Y-93387400D01*
X123533483Y-93400569D01*
G37*
X123533483Y-93400569D02*
X123583376Y-93429661D01*
X123605325Y-93452327D01*
X123647504Y-93520082D01*
X123661714Y-93593950D01*
X123661714Y-93644770D01*
X123614999Y-93625128D01*
X123582692Y-93605308D01*
X123557231Y-93564160D01*
X123554616Y-93555675D01*
X123526478Y-93512451D01*
X123484067Y-93489103D01*
X123435370Y-93488100D01*
X123388373Y-93511914D01*
X123381357Y-93518056D01*
X123357893Y-93544745D01*
X123354019Y-93568014D01*
X123371768Y-93590862D01*
X123413179Y-93616287D01*
X123480286Y-93647288D01*
X123484824Y-93649252D01*
X123559322Y-93683990D01*
X123610203Y-93714763D01*
X123641525Y-93745488D01*
X123657343Y-93780082D01*
X123661714Y-93822462D01*
X123655986Y-93869446D01*
X123627062Y-93929585D01*
X123576178Y-93972788D01*
X123539374Y-93985759D01*
X123487434Y-93992856D01*
X123436999Y-93991340D01*
X123400983Y-93980632D01*
X123397158Y-93977966D01*
X123386998Y-93959337D01*
X123394048Y-93926505D01*
X123406297Y-93900735D01*
X123425939Y-93890006D01*
X123463191Y-93890539D01*
X123514908Y-93887462D01*
X123548701Y-93866212D01*
X123560114Y-93826877D01*
X123560104Y-93825747D01*
X123553187Y-93802913D01*
X123529659Y-93781963D01*
X123483914Y-93757815D01*
X123421704Y-93728741D01*
X123380499Y-93712925D01*
X123356712Y-93713944D01*
X123345597Y-93734837D01*
X123342408Y-93778641D01*
X123342400Y-93848393D01*
X123342044Y-93891452D01*
X123340413Y-93944626D01*
X123337761Y-93981022D01*
X123334422Y-93994514D01*
X123333530Y-93994423D01*
X123314237Y-93987110D01*
X123282284Y-93971678D01*
X123238124Y-93948842D01*
X123243371Y-93743078D01*
X123243736Y-93729432D01*
X123247904Y-93633651D01*
X123255268Y-93561462D01*
X123267330Y-93508058D01*
X123285593Y-93468633D01*
X123311560Y-93438380D01*
X123346733Y-93412493D01*
X123347384Y-93412087D01*
X123404256Y-93390968D01*
X123470033Y-93387400D01*
X123533483Y-93400569D01*
G36*
X123051691Y-93406467D02*
G01*
X123056273Y-93409003D01*
X123093704Y-93438057D01*
X123127170Y-93475410D01*
X123133007Y-93483852D01*
X123144165Y-93503553D01*
X123152136Y-93526935D01*
X123157618Y-93559067D01*
X123161307Y-93605019D01*
X123163899Y-93669859D01*
X123166092Y-93758657D01*
X123166402Y-93773669D01*
X123167400Y-93870999D01*
X123165994Y-93939934D01*
X123162164Y-93980948D01*
X123155889Y-93994514D01*
X123136898Y-93990452D01*
X123104638Y-93978144D01*
X123097041Y-93974545D01*
X123085176Y-93966398D01*
X123076994Y-93953004D01*
X123071643Y-93929608D01*
X123068269Y-93891455D01*
X123066019Y-93833790D01*
X123064040Y-93751857D01*
X123063498Y-93727907D01*
X123061403Y-93652266D01*
X123058683Y-93599328D01*
X123054515Y-93564075D01*
X123048079Y-93541487D01*
X123038550Y-93526544D01*
X123025106Y-93514227D01*
X122985305Y-93492634D01*
X122936341Y-93488476D01*
X122892529Y-93504999D01*
X122861008Y-93539210D01*
X122848914Y-93588114D01*
X122848578Y-93601407D01*
X122841972Y-93625472D01*
X122822470Y-93629144D01*
X122784283Y-93614813D01*
X122775438Y-93610217D01*
X122751534Y-93583186D01*
X122751061Y-93542994D01*
X122773836Y-93487409D01*
X122794727Y-93457117D01*
X122848142Y-93414084D01*
X122914074Y-93389755D01*
X122984574Y-93386443D01*
X123051691Y-93406467D01*
G37*
X123051691Y-93406467D02*
X123056273Y-93409003D01*
X123093704Y-93438057D01*
X123127170Y-93475410D01*
X123133007Y-93483852D01*
X123144165Y-93503553D01*
X123152136Y-93526935D01*
X123157618Y-93559067D01*
X123161307Y-93605019D01*
X123163899Y-93669859D01*
X123166092Y-93758657D01*
X123166402Y-93773669D01*
X123167400Y-93870999D01*
X123165994Y-93939934D01*
X123162164Y-93980948D01*
X123155889Y-93994514D01*
X123136898Y-93990452D01*
X123104638Y-93978144D01*
X123097041Y-93974545D01*
X123085176Y-93966398D01*
X123076994Y-93953004D01*
X123071643Y-93929608D01*
X123068269Y-93891455D01*
X123066019Y-93833790D01*
X123064040Y-93751857D01*
X123063498Y-93727907D01*
X123061403Y-93652266D01*
X123058683Y-93599328D01*
X123054515Y-93564075D01*
X123048079Y-93541487D01*
X123038550Y-93526544D01*
X123025106Y-93514227D01*
X122985305Y-93492634D01*
X122936341Y-93488476D01*
X122892529Y-93504999D01*
X122861008Y-93539210D01*
X122848914Y-93588114D01*
X122848578Y-93601407D01*
X122841972Y-93625472D01*
X122822470Y-93629144D01*
X122784283Y-93614813D01*
X122775438Y-93610217D01*
X122751534Y-93583186D01*
X122751061Y-93542994D01*
X122773836Y-93487409D01*
X122794727Y-93457117D01*
X122848142Y-93414084D01*
X122914074Y-93389755D01*
X122984574Y-93386443D01*
X123051691Y-93406467D01*
G36*
X122673537Y-93746313D02*
G01*
X122665345Y-93823462D01*
X122647519Y-93881276D01*
X122617975Y-93925422D01*
X122574625Y-93961568D01*
X122533332Y-93982463D01*
X122463987Y-93994090D01*
X122394736Y-93981377D01*
X122332145Y-93945945D01*
X122282779Y-93889418D01*
X122276818Y-93878995D01*
X122268945Y-93860733D01*
X122263106Y-93837429D01*
X122258999Y-93805085D01*
X122256325Y-93759704D01*
X122254781Y-93697287D01*
X122254734Y-93691748D01*
X122355429Y-93691748D01*
X122355772Y-93744577D01*
X122357942Y-93792362D01*
X122363307Y-93823209D01*
X122373217Y-93843935D01*
X122389021Y-93861356D01*
X122392724Y-93864705D01*
X122440299Y-93889419D01*
X122490635Y-93886890D01*
X122537517Y-93857288D01*
X122551477Y-93841953D01*
X122563160Y-93821622D01*
X122569686Y-93793514D01*
X122572524Y-93750550D01*
X122573143Y-93685647D01*
X122572837Y-93636122D01*
X122570722Y-93587782D01*
X122565390Y-93556587D01*
X122555460Y-93535647D01*
X122539550Y-93518073D01*
X122530204Y-93510159D01*
X122481776Y-93488843D01*
X122431040Y-93492198D01*
X122386987Y-93520107D01*
X122377504Y-93531173D01*
X122365939Y-93552009D01*
X122359252Y-93581106D01*
X122356173Y-93625381D01*
X122355429Y-93691748D01*
X122254734Y-93691748D01*
X122254067Y-93613837D01*
X122253883Y-93505358D01*
X122253829Y-93168601D01*
X122301000Y-93188362D01*
X122313472Y-93193770D01*
X122333324Y-93205985D01*
X122344687Y-93224482D01*
X122350933Y-93256829D01*
X122355429Y-93310593D01*
X122359535Y-93358866D01*
X122364963Y-93390557D01*
X122372739Y-93402383D01*
X122384457Y-93399212D01*
X122414318Y-93388067D01*
X122467684Y-93385304D01*
X122525093Y-93395625D01*
X122574625Y-93417861D01*
X122601876Y-93438443D01*
X122636865Y-93478600D01*
X122659274Y-93530086D01*
X122671190Y-93598568D01*
X122674542Y-93685647D01*
X122674698Y-93689714D01*
X122673537Y-93746313D01*
G37*
X122673537Y-93746313D02*
X122665345Y-93823462D01*
X122647519Y-93881276D01*
X122617975Y-93925422D01*
X122574625Y-93961568D01*
X122533332Y-93982463D01*
X122463987Y-93994090D01*
X122394736Y-93981377D01*
X122332145Y-93945945D01*
X122282779Y-93889418D01*
X122276818Y-93878995D01*
X122268945Y-93860733D01*
X122263106Y-93837429D01*
X122258999Y-93805085D01*
X122256325Y-93759704D01*
X122254781Y-93697287D01*
X122254734Y-93691748D01*
X122355429Y-93691748D01*
X122355772Y-93744577D01*
X122357942Y-93792362D01*
X122363307Y-93823209D01*
X122373217Y-93843935D01*
X122389021Y-93861356D01*
X122392724Y-93864705D01*
X122440299Y-93889419D01*
X122490635Y-93886890D01*
X122537517Y-93857288D01*
X122551477Y-93841953D01*
X122563160Y-93821622D01*
X122569686Y-93793514D01*
X122572524Y-93750550D01*
X122573143Y-93685647D01*
X122572837Y-93636122D01*
X122570722Y-93587782D01*
X122565390Y-93556587D01*
X122555460Y-93535647D01*
X122539550Y-93518073D01*
X122530204Y-93510159D01*
X122481776Y-93488843D01*
X122431040Y-93492198D01*
X122386987Y-93520107D01*
X122377504Y-93531173D01*
X122365939Y-93552009D01*
X122359252Y-93581106D01*
X122356173Y-93625381D01*
X122355429Y-93691748D01*
X122254734Y-93691748D01*
X122254067Y-93613837D01*
X122253883Y-93505358D01*
X122253829Y-93168601D01*
X122301000Y-93188362D01*
X122313472Y-93193770D01*
X122333324Y-93205985D01*
X122344687Y-93224482D01*
X122350933Y-93256829D01*
X122355429Y-93310593D01*
X122359535Y-93358866D01*
X122364963Y-93390557D01*
X122372739Y-93402383D01*
X122384457Y-93399212D01*
X122414318Y-93388067D01*
X122467684Y-93385304D01*
X122525093Y-93395625D01*
X122574625Y-93417861D01*
X122601876Y-93438443D01*
X122636865Y-93478600D01*
X122659274Y-93530086D01*
X122671190Y-93598568D01*
X122674542Y-93685647D01*
X122674698Y-93689714D01*
X122673537Y-93746313D01*
G36*
X122097941Y-93389282D02*
G01*
X122129774Y-93401758D01*
X122166743Y-93418602D01*
X122166743Y-93905196D01*
X122120812Y-93951127D01*
X122110320Y-93961427D01*
X122081255Y-93984320D01*
X122051943Y-93991735D01*
X122008326Y-93988321D01*
X121990568Y-93986114D01*
X121944767Y-93981445D01*
X121912743Y-93979585D01*
X121903244Y-93979869D01*
X121864274Y-93982948D01*
X121817160Y-93988321D01*
X121802085Y-93990168D01*
X121764110Y-93990893D01*
X121736325Y-93979429D01*
X121704674Y-93951127D01*
X121658743Y-93905196D01*
X121658743Y-93645055D01*
X121659101Y-93568180D01*
X121660216Y-93494886D01*
X121661952Y-93436850D01*
X121664167Y-93398663D01*
X121666721Y-93384914D01*
X121667256Y-93384951D01*
X121685808Y-93391793D01*
X121717153Y-93406868D01*
X121759608Y-93428822D01*
X121763604Y-93657240D01*
X121767600Y-93885657D01*
X121854686Y-93885657D01*
X121858657Y-93635286D01*
X121859916Y-93567227D01*
X121861718Y-93494482D01*
X121863671Y-93436730D01*
X121865612Y-93398648D01*
X121867377Y-93384914D01*
X121867885Y-93384962D01*
X121885482Y-93390015D01*
X121917834Y-93400849D01*
X121963543Y-93416783D01*
X121963765Y-93636706D01*
X121963988Y-93674909D01*
X121965531Y-93749146D01*
X121968292Y-93811145D01*
X121971977Y-93855308D01*
X121976292Y-93876041D01*
X121991732Y-93887131D01*
X122023241Y-93890556D01*
X122057886Y-93885657D01*
X122061857Y-93635286D01*
X122063278Y-93571663D01*
X122066225Y-93496356D01*
X122070079Y-93437286D01*
X122074542Y-93398718D01*
X122079317Y-93384914D01*
X122097941Y-93389282D01*
G37*
X122097941Y-93389282D02*
X122129774Y-93401758D01*
X122166743Y-93418602D01*
X122166743Y-93905196D01*
X122120812Y-93951127D01*
X122110320Y-93961427D01*
X122081255Y-93984320D01*
X122051943Y-93991735D01*
X122008326Y-93988321D01*
X121990568Y-93986114D01*
X121944767Y-93981445D01*
X121912743Y-93979585D01*
X121903244Y-93979869D01*
X121864274Y-93982948D01*
X121817160Y-93988321D01*
X121802085Y-93990168D01*
X121764110Y-93990893D01*
X121736325Y-93979429D01*
X121704674Y-93951127D01*
X121658743Y-93905196D01*
X121658743Y-93645055D01*
X121659101Y-93568180D01*
X121660216Y-93494886D01*
X121661952Y-93436850D01*
X121664167Y-93398663D01*
X121666721Y-93384914D01*
X121667256Y-93384951D01*
X121685808Y-93391793D01*
X121717153Y-93406868D01*
X121759608Y-93428822D01*
X121763604Y-93657240D01*
X121767600Y-93885657D01*
X121854686Y-93885657D01*
X121858657Y-93635286D01*
X121859916Y-93567227D01*
X121861718Y-93494482D01*
X121863671Y-93436730D01*
X121865612Y-93398648D01*
X121867377Y-93384914D01*
X121867885Y-93384962D01*
X121885482Y-93390015D01*
X121917834Y-93400849D01*
X121963543Y-93416783D01*
X121963765Y-93636706D01*
X121963988Y-93674909D01*
X121965531Y-93749146D01*
X121968292Y-93811145D01*
X121971977Y-93855308D01*
X121976292Y-93876041D01*
X121991732Y-93887131D01*
X122023241Y-93890556D01*
X122057886Y-93885657D01*
X122061857Y-93635286D01*
X122063278Y-93571663D01*
X122066225Y-93496356D01*
X122070079Y-93437286D01*
X122074542Y-93398718D01*
X122079317Y-93384914D01*
X122097941Y-93389282D01*
G36*
X121411495Y-93386220D02*
G01*
X121442599Y-93394121D01*
X121471559Y-93413817D01*
X121508831Y-93450484D01*
X121532801Y-93476378D01*
X121557770Y-93509997D01*
X121569031Y-93541506D01*
X121571657Y-93581485D01*
X121571657Y-93646917D01*
X121527035Y-93623842D01*
X121491673Y-93595724D01*
X121467451Y-93557848D01*
X121463291Y-93547551D01*
X121431594Y-93507637D01*
X121387554Y-93487624D01*
X121339531Y-93489572D01*
X121295886Y-93515543D01*
X121277420Y-93536635D01*
X121266663Y-93563619D01*
X121278178Y-93587634D01*
X121313981Y-93611791D01*
X121376090Y-93639199D01*
X121385515Y-93642985D01*
X121442058Y-93667759D01*
X121490580Y-93692189D01*
X121521451Y-93711486D01*
X121552371Y-93745953D01*
X121572927Y-93800957D01*
X121570744Y-93859983D01*
X121546424Y-93915845D01*
X121500568Y-93961355D01*
X121463438Y-93980727D01*
X121391711Y-93994292D01*
X121351852Y-93992462D01*
X121314953Y-93982568D01*
X121300797Y-93961806D01*
X121306091Y-93927613D01*
X121307631Y-93923092D01*
X121319842Y-93899116D01*
X121340174Y-93890042D01*
X121378908Y-93890649D01*
X121406257Y-93891474D01*
X121438257Y-93884392D01*
X121460182Y-93863219D01*
X121472670Y-93837152D01*
X121474062Y-93809845D01*
X121473998Y-93809685D01*
X121457807Y-93794930D01*
X121423155Y-93773457D01*
X121378321Y-93749458D01*
X121331582Y-93727125D01*
X121291217Y-93710652D01*
X121265504Y-93704229D01*
X121261679Y-93710518D01*
X121256864Y-93740115D01*
X121253566Y-93788447D01*
X121252343Y-93849372D01*
X121252058Y-93891542D01*
X121250718Y-93944653D01*
X121248528Y-93981025D01*
X121245769Y-93994514D01*
X121231344Y-93989981D01*
X121202226Y-93977670D01*
X121165257Y-93960826D01*
X121165257Y-93744721D01*
X121165493Y-93689327D01*
X121167729Y-93605207D01*
X121173423Y-93542800D01*
X121183903Y-93497358D01*
X121200497Y-93464133D01*
X121224531Y-93438378D01*
X121257333Y-93415344D01*
X121299124Y-93396335D01*
X121376287Y-93384914D01*
X121411495Y-93386220D01*
G37*
X121411495Y-93386220D02*
X121442599Y-93394121D01*
X121471559Y-93413817D01*
X121508831Y-93450484D01*
X121532801Y-93476378D01*
X121557770Y-93509997D01*
X121569031Y-93541506D01*
X121571657Y-93581485D01*
X121571657Y-93646917D01*
X121527035Y-93623842D01*
X121491673Y-93595724D01*
X121467451Y-93557848D01*
X121463291Y-93547551D01*
X121431594Y-93507637D01*
X121387554Y-93487624D01*
X121339531Y-93489572D01*
X121295886Y-93515543D01*
X121277420Y-93536635D01*
X121266663Y-93563619D01*
X121278178Y-93587634D01*
X121313981Y-93611791D01*
X121376090Y-93639199D01*
X121385515Y-93642985D01*
X121442058Y-93667759D01*
X121490580Y-93692189D01*
X121521451Y-93711486D01*
X121552371Y-93745953D01*
X121572927Y-93800957D01*
X121570744Y-93859983D01*
X121546424Y-93915845D01*
X121500568Y-93961355D01*
X121463438Y-93980727D01*
X121391711Y-93994292D01*
X121351852Y-93992462D01*
X121314953Y-93982568D01*
X121300797Y-93961806D01*
X121306091Y-93927613D01*
X121307631Y-93923092D01*
X121319842Y-93899116D01*
X121340174Y-93890042D01*
X121378908Y-93890649D01*
X121406257Y-93891474D01*
X121438257Y-93884392D01*
X121460182Y-93863219D01*
X121472670Y-93837152D01*
X121474062Y-93809845D01*
X121473998Y-93809685D01*
X121457807Y-93794930D01*
X121423155Y-93773457D01*
X121378321Y-93749458D01*
X121331582Y-93727125D01*
X121291217Y-93710652D01*
X121265504Y-93704229D01*
X121261679Y-93710518D01*
X121256864Y-93740115D01*
X121253566Y-93788447D01*
X121252343Y-93849372D01*
X121252058Y-93891542D01*
X121250718Y-93944653D01*
X121248528Y-93981025D01*
X121245769Y-93994514D01*
X121231344Y-93989981D01*
X121202226Y-93977670D01*
X121165257Y-93960826D01*
X121165257Y-93744721D01*
X121165493Y-93689327D01*
X121167729Y-93605207D01*
X121173423Y-93542800D01*
X121183903Y-93497358D01*
X121200497Y-93464133D01*
X121224531Y-93438378D01*
X121257333Y-93415344D01*
X121299124Y-93396335D01*
X121376287Y-93384914D01*
X121411495Y-93386220D01*
G36*
X120926829Y-93391097D02*
G01*
X120986753Y-93413355D01*
X121011673Y-93430080D01*
X121036910Y-93454043D01*
X121054912Y-93484526D01*
X121066858Y-93526023D01*
X121073930Y-93583032D01*
X121077308Y-93660047D01*
X121078171Y-93761565D01*
X121078002Y-93814027D01*
X121077153Y-93885715D01*
X121075711Y-93942925D01*
X121073814Y-93980809D01*
X121071597Y-93994514D01*
X121057172Y-93989981D01*
X121028054Y-93977670D01*
X121027181Y-93977272D01*
X121012060Y-93969356D01*
X121001891Y-93958495D01*
X120995691Y-93939471D01*
X120992478Y-93907069D01*
X120991270Y-93856071D01*
X120991086Y-93781261D01*
X120990714Y-93733804D01*
X120986750Y-93644615D01*
X120977673Y-93579287D01*
X120962524Y-93534393D01*
X120940345Y-93506507D01*
X120910175Y-93492203D01*
X120905990Y-93491206D01*
X120849480Y-93490427D01*
X120805410Y-93515744D01*
X120774972Y-93566502D01*
X120769544Y-93581175D01*
X120757171Y-93613649D01*
X120750905Y-93628572D01*
X120738036Y-93626516D01*
X120709933Y-93615357D01*
X120683721Y-93596927D01*
X120671771Y-93562098D01*
X120675336Y-93537151D01*
X120697235Y-93486547D01*
X120732644Y-93439128D01*
X120774052Y-93406334D01*
X120791400Y-93398752D01*
X120857089Y-93386076D01*
X120926829Y-93391097D01*
G37*
X120926829Y-93391097D02*
X120986753Y-93413355D01*
X121011673Y-93430080D01*
X121036910Y-93454043D01*
X121054912Y-93484526D01*
X121066858Y-93526023D01*
X121073930Y-93583032D01*
X121077308Y-93660047D01*
X121078171Y-93761565D01*
X121078002Y-93814027D01*
X121077153Y-93885715D01*
X121075711Y-93942925D01*
X121073814Y-93980809D01*
X121071597Y-93994514D01*
X121057172Y-93989981D01*
X121028054Y-93977670D01*
X121027181Y-93977272D01*
X121012060Y-93969356D01*
X121001891Y-93958495D01*
X120995691Y-93939471D01*
X120992478Y-93907069D01*
X120991270Y-93856071D01*
X120991086Y-93781261D01*
X120990714Y-93733804D01*
X120986750Y-93644615D01*
X120977673Y-93579287D01*
X120962524Y-93534393D01*
X120940345Y-93506507D01*
X120910175Y-93492203D01*
X120905990Y-93491206D01*
X120849480Y-93490427D01*
X120805410Y-93515744D01*
X120774972Y-93566502D01*
X120769544Y-93581175D01*
X120757171Y-93613649D01*
X120750905Y-93628572D01*
X120738036Y-93626516D01*
X120709933Y-93615357D01*
X120683721Y-93596927D01*
X120671771Y-93562098D01*
X120675336Y-93537151D01*
X120697235Y-93486547D01*
X120732644Y-93439128D01*
X120774052Y-93406334D01*
X120791400Y-93398752D01*
X120857089Y-93386076D01*
X120926829Y-93391097D01*
G36*
X120584307Y-93731305D02*
G01*
X120580762Y-93807521D01*
X120571483Y-93863294D01*
X120554375Y-93904613D01*
X120527344Y-93937467D01*
X120488292Y-93967846D01*
X120463445Y-93981660D01*
X120423615Y-93990965D01*
X120367665Y-93990230D01*
X120336385Y-93987283D01*
X120298653Y-93978283D01*
X120268494Y-93958720D01*
X120233408Y-93922267D01*
X120228720Y-93916943D01*
X120197177Y-93875969D01*
X120182128Y-93840283D01*
X120178286Y-93797966D01*
X120178286Y-93735779D01*
X120221742Y-93752182D01*
X120253424Y-93771356D01*
X120280962Y-93816347D01*
X120286711Y-93830752D01*
X120318855Y-93871546D01*
X120362611Y-93892081D01*
X120410254Y-93890235D01*
X120454057Y-93863886D01*
X120469111Y-93847455D01*
X120482763Y-93822667D01*
X120478493Y-93800144D01*
X120453916Y-93776964D01*
X120406651Y-93750202D01*
X120334314Y-93716934D01*
X120185543Y-93651816D01*
X120181595Y-93587308D01*
X120183079Y-93546220D01*
X120280010Y-93546220D01*
X120287368Y-93571657D01*
X120320848Y-93598814D01*
X120381614Y-93629714D01*
X120391669Y-93634190D01*
X120439751Y-93655017D01*
X120475726Y-93669665D01*
X120492444Y-93675200D01*
X120494977Y-93671126D01*
X120495993Y-93646247D01*
X120492369Y-93606257D01*
X120483242Y-93567152D01*
X120454773Y-93517884D01*
X120413678Y-93490122D01*
X120364590Y-93486364D01*
X120312144Y-93509109D01*
X120297609Y-93520481D01*
X120280010Y-93546220D01*
X120183079Y-93546220D01*
X120183338Y-93539064D01*
X120205281Y-93478096D01*
X120232979Y-93444497D01*
X120290405Y-93406966D01*
X120358527Y-93388006D01*
X120428947Y-93389507D01*
X120493267Y-93413355D01*
X120507426Y-93422513D01*
X120539904Y-93450849D01*
X120562116Y-93486695D01*
X120575804Y-93535384D01*
X120582715Y-93602249D01*
X120583628Y-93646247D01*
X120584590Y-93692622D01*
X120584307Y-93731305D01*
G37*
X120584307Y-93731305D02*
X120580762Y-93807521D01*
X120571483Y-93863294D01*
X120554375Y-93904613D01*
X120527344Y-93937467D01*
X120488292Y-93967846D01*
X120463445Y-93981660D01*
X120423615Y-93990965D01*
X120367665Y-93990230D01*
X120336385Y-93987283D01*
X120298653Y-93978283D01*
X120268494Y-93958720D01*
X120233408Y-93922267D01*
X120228720Y-93916943D01*
X120197177Y-93875969D01*
X120182128Y-93840283D01*
X120178286Y-93797966D01*
X120178286Y-93735779D01*
X120221742Y-93752182D01*
X120253424Y-93771356D01*
X120280962Y-93816347D01*
X120286711Y-93830752D01*
X120318855Y-93871546D01*
X120362611Y-93892081D01*
X120410254Y-93890235D01*
X120454057Y-93863886D01*
X120469111Y-93847455D01*
X120482763Y-93822667D01*
X120478493Y-93800144D01*
X120453916Y-93776964D01*
X120406651Y-93750202D01*
X120334314Y-93716934D01*
X120185543Y-93651816D01*
X120181595Y-93587308D01*
X120183079Y-93546220D01*
X120280010Y-93546220D01*
X120287368Y-93571657D01*
X120320848Y-93598814D01*
X120381614Y-93629714D01*
X120391669Y-93634190D01*
X120439751Y-93655017D01*
X120475726Y-93669665D01*
X120492444Y-93675200D01*
X120494977Y-93671126D01*
X120495993Y-93646247D01*
X120492369Y-93606257D01*
X120483242Y-93567152D01*
X120454773Y-93517884D01*
X120413678Y-93490122D01*
X120364590Y-93486364D01*
X120312144Y-93509109D01*
X120297609Y-93520481D01*
X120280010Y-93546220D01*
X120183079Y-93546220D01*
X120183338Y-93539064D01*
X120205281Y-93478096D01*
X120232979Y-93444497D01*
X120290405Y-93406966D01*
X120358527Y-93388006D01*
X120428947Y-93389507D01*
X120493267Y-93413355D01*
X120507426Y-93422513D01*
X120539904Y-93450849D01*
X120562116Y-93486695D01*
X120575804Y-93535384D01*
X120582715Y-93602249D01*
X120583628Y-93646247D01*
X120584590Y-93692622D01*
X120584307Y-93731305D01*
G36*
X123557933Y-88682371D02*
G01*
X123633856Y-88682865D01*
X123688491Y-88684135D01*
X123725500Y-88686547D01*
X123748547Y-88690467D01*
X123761296Y-88696262D01*
X123767411Y-88704299D01*
X123770556Y-88714943D01*
X123770646Y-88715325D01*
X123775814Y-88740347D01*
X123785209Y-88788681D01*
X123797867Y-88855260D01*
X123812825Y-88935014D01*
X123829119Y-89022875D01*
X123830448Y-89030064D01*
X123846691Y-89115340D01*
X123861805Y-89190242D01*
X123874808Y-89250219D01*
X123884715Y-89290717D01*
X123890544Y-89307184D01*
X123890575Y-89307210D01*
X123908943Y-89316320D01*
X123946640Y-89331457D01*
X123995543Y-89349358D01*
X123998297Y-89350330D01*
X124060817Y-89373959D01*
X124133543Y-89403595D01*
X124201294Y-89433062D01*
X124312703Y-89483626D01*
X124559399Y-89315160D01*
X124576775Y-89303311D01*
X124651202Y-89252947D01*
X124717614Y-89208612D01*
X124772039Y-89172916D01*
X124810506Y-89148471D01*
X124829042Y-89137889D01*
X124841743Y-89140315D01*
X124870579Y-89159110D01*
X124915143Y-89196330D01*
X124976670Y-89253020D01*
X125056398Y-89330227D01*
X125063532Y-89337255D01*
X125126796Y-89400222D01*
X125182990Y-89457268D01*
X125228677Y-89504817D01*
X125260414Y-89539297D01*
X125274764Y-89557131D01*
X125274810Y-89557217D01*
X125276633Y-89570795D01*
X125269910Y-89592820D01*
X125252946Y-89626304D01*
X125224044Y-89674261D01*
X125181508Y-89739704D01*
X125123644Y-89825645D01*
X125113783Y-89840151D01*
X125063913Y-89913635D01*
X125019905Y-89978687D01*
X124984380Y-90031417D01*
X124959959Y-90067936D01*
X124949264Y-90084356D01*
X124948458Y-90087834D01*
X124953518Y-90113785D01*
X124968677Y-90156159D01*
X124991463Y-90207728D01*
X125022429Y-90275170D01*
X125057004Y-90355195D01*
X125086366Y-90427629D01*
X125093645Y-90446377D01*
X125112710Y-90494246D01*
X125126715Y-90527596D01*
X125133041Y-90540114D01*
X125140025Y-90541050D01*
X125171413Y-90546461D01*
X125222787Y-90555806D01*
X125288802Y-90568069D01*
X125364113Y-90582232D01*
X125443375Y-90597280D01*
X125521243Y-90612195D01*
X125592370Y-90625961D01*
X125651412Y-90637562D01*
X125693022Y-90645980D01*
X125711857Y-90650199D01*
X125714980Y-90651389D01*
X125722591Y-90657805D01*
X125728254Y-90671465D01*
X125732251Y-90695999D01*
X125734866Y-90735038D01*
X125736384Y-90792213D01*
X125737086Y-90871154D01*
X125737257Y-90975492D01*
X125737257Y-91292799D01*
X125661057Y-91307839D01*
X125651840Y-91309642D01*
X125602891Y-91318980D01*
X125535205Y-91331669D01*
X125456478Y-91346273D01*
X125374400Y-91361355D01*
X125342078Y-91367422D01*
X125269855Y-91382181D01*
X125209666Y-91396137D01*
X125167040Y-91407952D01*
X125147510Y-91416287D01*
X125138660Y-91429905D01*
X125122548Y-91465938D01*
X125106065Y-91512572D01*
X125100263Y-91530034D01*
X125078906Y-91587358D01*
X125051359Y-91655201D01*
X125022107Y-91722355D01*
X125006463Y-91757430D01*
X124984174Y-91809822D01*
X124968857Y-91849058D01*
X124963162Y-91868563D01*
X124963478Y-91870036D01*
X124974281Y-91890729D01*
X124998638Y-91930665D01*
X125034081Y-91985972D01*
X125078136Y-92052781D01*
X125128332Y-92127220D01*
X125293501Y-92369623D01*
X125076503Y-92586983D01*
X125055516Y-92607899D01*
X124991342Y-92670505D01*
X124933990Y-92724495D01*
X124886820Y-92766826D01*
X124853192Y-92794457D01*
X124836467Y-92804343D01*
X124818303Y-92796821D01*
X124780265Y-92775227D01*
X124726726Y-92742151D01*
X124661884Y-92700191D01*
X124589940Y-92651943D01*
X124519275Y-92604291D01*
X124455526Y-92562328D01*
X124403513Y-92529165D01*
X124367279Y-92507378D01*
X124350867Y-92499543D01*
X124349905Y-92499614D01*
X124328103Y-92507338D01*
X124289440Y-92525323D01*
X124241612Y-92550013D01*
X124241110Y-92550284D01*
X124177587Y-92582099D01*
X124134060Y-92597642D01*
X124107052Y-92597685D01*
X124093090Y-92583000D01*
X124087180Y-92568544D01*
X124071229Y-92529831D01*
X124046660Y-92470316D01*
X124014779Y-92393165D01*
X123976893Y-92301541D01*
X123934310Y-92198607D01*
X123888337Y-92087526D01*
X123846667Y-91986472D01*
X123804268Y-91882780D01*
X123766756Y-91790119D01*
X123735388Y-91711642D01*
X123711425Y-91650500D01*
X123696123Y-91609843D01*
X123690743Y-91592825D01*
X123701018Y-91577219D01*
X123729563Y-91551162D01*
X123769971Y-91520887D01*
X123866979Y-91441684D01*
X123953793Y-91340475D01*
X124017322Y-91229116D01*
X124057177Y-91110893D01*
X124072965Y-90989095D01*
X124064296Y-90867010D01*
X124030778Y-90747925D01*
X123972021Y-90635129D01*
X123887632Y-90531911D01*
X123843631Y-90491713D01*
X123738211Y-90420638D01*
X123625410Y-90374301D01*
X123508525Y-90351599D01*
X123390853Y-90351428D01*
X123275690Y-90372687D01*
X123166335Y-90414270D01*
X123066083Y-90475076D01*
X122978233Y-90554001D01*
X122906080Y-90649941D01*
X122852922Y-90761795D01*
X122822057Y-90888457D01*
X122816392Y-90949507D01*
X122824185Y-91081776D01*
X122859284Y-91207266D01*
X122920649Y-91323759D01*
X123007243Y-91429039D01*
X123118029Y-91520887D01*
X123156931Y-91549930D01*
X123186104Y-91576272D01*
X123197257Y-91592800D01*
X123192810Y-91607209D01*
X123178378Y-91645815D01*
X123155173Y-91705201D01*
X123124452Y-91782215D01*
X123087474Y-91873703D01*
X123045496Y-91976516D01*
X122999778Y-92087502D01*
X122958178Y-92188072D01*
X122915222Y-92291947D01*
X122876829Y-92384819D01*
X122844305Y-92463525D01*
X122818958Y-92524899D01*
X122802095Y-92565779D01*
X122795025Y-92583000D01*
X122794943Y-92583204D01*
X122780798Y-92597745D01*
X122753659Y-92597579D01*
X122710023Y-92581927D01*
X122646388Y-92550013D01*
X122641379Y-92547326D01*
X122594125Y-92523150D01*
X122556811Y-92506037D01*
X122537133Y-92499543D01*
X122521005Y-92507218D01*
X122484959Y-92528871D01*
X122433092Y-92561928D01*
X122369445Y-92603810D01*
X122298060Y-92651943D01*
X122227724Y-92699131D01*
X122162670Y-92741267D01*
X122108820Y-92774578D01*
X122070374Y-92796469D01*
X122051534Y-92804343D01*
X122048325Y-92803343D01*
X122025954Y-92787584D01*
X121987733Y-92755033D01*
X121937021Y-92708733D01*
X121877181Y-92651726D01*
X121811571Y-92587058D01*
X121594648Y-92369772D01*
X121763601Y-92121253D01*
X121932553Y-91872733D01*
X121881183Y-91761595D01*
X121881031Y-91761266D01*
X121850183Y-91690418D01*
X121818661Y-91611523D01*
X121793266Y-91541600D01*
X121789423Y-91530322D01*
X121770047Y-91477967D01*
X121752574Y-91437283D01*
X121740388Y-91416287D01*
X121735426Y-91413322D01*
X121705634Y-91403375D01*
X121655047Y-91390505D01*
X121589194Y-91376053D01*
X121513600Y-91361355D01*
X121490957Y-91357210D01*
X121409038Y-91342116D01*
X121332600Y-91327899D01*
X121269337Y-91315995D01*
X121226943Y-91307839D01*
X121150743Y-91292799D01*
X121150743Y-90975492D01*
X121150760Y-90936476D01*
X121151082Y-90841292D01*
X121152033Y-90770255D01*
X121153896Y-90719734D01*
X121156955Y-90686098D01*
X121161494Y-90665718D01*
X121167795Y-90654962D01*
X121176143Y-90650199D01*
X121184224Y-90648270D01*
X121217172Y-90641445D01*
X121269736Y-90631022D01*
X121336569Y-90618018D01*
X121412328Y-90603449D01*
X121491665Y-90588333D01*
X121569237Y-90573685D01*
X121639698Y-90560523D01*
X121697702Y-90549863D01*
X121737904Y-90542721D01*
X121754959Y-90540114D01*
X121756112Y-90538541D01*
X121765385Y-90518119D01*
X121781432Y-90479045D01*
X121801635Y-90427629D01*
X121829672Y-90358353D01*
X121864186Y-90278290D01*
X121896538Y-90207728D01*
X121903952Y-90191889D01*
X121924755Y-90142293D01*
X121937219Y-90104038D01*
X121938863Y-90084356D01*
X121938015Y-90082962D01*
X121924548Y-90062420D01*
X121897850Y-90022516D01*
X121860539Y-89967140D01*
X121815234Y-89900177D01*
X121764552Y-89825517D01*
X121707445Y-89740692D01*
X121664607Y-89674800D01*
X121635460Y-89626478D01*
X121618317Y-89592733D01*
X121611495Y-89570572D01*
X121613306Y-89557002D01*
X121613915Y-89555984D01*
X121630297Y-89536210D01*
X121663695Y-89500175D01*
X121710671Y-89451451D01*
X121767786Y-89393612D01*
X121831603Y-89330227D01*
X121897802Y-89265905D01*
X121962648Y-89205447D01*
X122010299Y-89164655D01*
X122041990Y-89142484D01*
X122058958Y-89137889D01*
X122061175Y-89138921D01*
X122084524Y-89152837D01*
X122126912Y-89180030D01*
X122184369Y-89217889D01*
X122252923Y-89263803D01*
X122328601Y-89315160D01*
X122575298Y-89483626D01*
X122686706Y-89433062D01*
X122689943Y-89431597D01*
X122758343Y-89401965D01*
X122830907Y-89372493D01*
X122892457Y-89349358D01*
X122892729Y-89349262D01*
X122941595Y-89331367D01*
X122979212Y-89316253D01*
X122997457Y-89307184D01*
X122997752Y-89306855D01*
X123003946Y-89288282D01*
X123014139Y-89246045D01*
X123027348Y-89184696D01*
X123042590Y-89108789D01*
X123058881Y-89022875D01*
X123059449Y-89019796D01*
X123075713Y-88932128D01*
X123090608Y-88852741D01*
X123103171Y-88786701D01*
X123112438Y-88739079D01*
X123117444Y-88714943D01*
X123117764Y-88713605D01*
X123121060Y-88703273D01*
X123127738Y-88695506D01*
X123141462Y-88689940D01*
X123165895Y-88686207D01*
X123204702Y-88683942D01*
X123261546Y-88682778D01*
X123340090Y-88682348D01*
X123444000Y-88682286D01*
X123457056Y-88682286D01*
X123557933Y-88682371D01*
G37*
X123557933Y-88682371D02*
X123633856Y-88682865D01*
X123688491Y-88684135D01*
X123725500Y-88686547D01*
X123748547Y-88690467D01*
X123761296Y-88696262D01*
X123767411Y-88704299D01*
X123770556Y-88714943D01*
X123770646Y-88715325D01*
X123775814Y-88740347D01*
X123785209Y-88788681D01*
X123797867Y-88855260D01*
X123812825Y-88935014D01*
X123829119Y-89022875D01*
X123830448Y-89030064D01*
X123846691Y-89115340D01*
X123861805Y-89190242D01*
X123874808Y-89250219D01*
X123884715Y-89290717D01*
X123890544Y-89307184D01*
X123890575Y-89307210D01*
X123908943Y-89316320D01*
X123946640Y-89331457D01*
X123995543Y-89349358D01*
X123998297Y-89350330D01*
X124060817Y-89373959D01*
X124133543Y-89403595D01*
X124201294Y-89433062D01*
X124312703Y-89483626D01*
X124559399Y-89315160D01*
X124576775Y-89303311D01*
X124651202Y-89252947D01*
X124717614Y-89208612D01*
X124772039Y-89172916D01*
X124810506Y-89148471D01*
X124829042Y-89137889D01*
X124841743Y-89140315D01*
X124870579Y-89159110D01*
X124915143Y-89196330D01*
X124976670Y-89253020D01*
X125056398Y-89330227D01*
X125063532Y-89337255D01*
X125126796Y-89400222D01*
X125182990Y-89457268D01*
X125228677Y-89504817D01*
X125260414Y-89539297D01*
X125274764Y-89557131D01*
X125274810Y-89557217D01*
X125276633Y-89570795D01*
X125269910Y-89592820D01*
X125252946Y-89626304D01*
X125224044Y-89674261D01*
X125181508Y-89739704D01*
X125123644Y-89825645D01*
X125113783Y-89840151D01*
X125063913Y-89913635D01*
X125019905Y-89978687D01*
X124984380Y-90031417D01*
X124959959Y-90067936D01*
X124949264Y-90084356D01*
X124948458Y-90087834D01*
X124953518Y-90113785D01*
X124968677Y-90156159D01*
X124991463Y-90207728D01*
X125022429Y-90275170D01*
X125057004Y-90355195D01*
X125086366Y-90427629D01*
X125093645Y-90446377D01*
X125112710Y-90494246D01*
X125126715Y-90527596D01*
X125133041Y-90540114D01*
X125140025Y-90541050D01*
X125171413Y-90546461D01*
X125222787Y-90555806D01*
X125288802Y-90568069D01*
X125364113Y-90582232D01*
X125443375Y-90597280D01*
X125521243Y-90612195D01*
X125592370Y-90625961D01*
X125651412Y-90637562D01*
X125693022Y-90645980D01*
X125711857Y-90650199D01*
X125714980Y-90651389D01*
X125722591Y-90657805D01*
X125728254Y-90671465D01*
X125732251Y-90695999D01*
X125734866Y-90735038D01*
X125736384Y-90792213D01*
X125737086Y-90871154D01*
X125737257Y-90975492D01*
X125737257Y-91292799D01*
X125661057Y-91307839D01*
X125651840Y-91309642D01*
X125602891Y-91318980D01*
X125535205Y-91331669D01*
X125456478Y-91346273D01*
X125374400Y-91361355D01*
X125342078Y-91367422D01*
X125269855Y-91382181D01*
X125209666Y-91396137D01*
X125167040Y-91407952D01*
X125147510Y-91416287D01*
X125138660Y-91429905D01*
X125122548Y-91465938D01*
X125106065Y-91512572D01*
X125100263Y-91530034D01*
X125078906Y-91587358D01*
X125051359Y-91655201D01*
X125022107Y-91722355D01*
X125006463Y-91757430D01*
X124984174Y-91809822D01*
X124968857Y-91849058D01*
X124963162Y-91868563D01*
X124963478Y-91870036D01*
X124974281Y-91890729D01*
X124998638Y-91930665D01*
X125034081Y-91985972D01*
X125078136Y-92052781D01*
X125128332Y-92127220D01*
X125293501Y-92369623D01*
X125076503Y-92586983D01*
X125055516Y-92607899D01*
X124991342Y-92670505D01*
X124933990Y-92724495D01*
X124886820Y-92766826D01*
X124853192Y-92794457D01*
X124836467Y-92804343D01*
X124818303Y-92796821D01*
X124780265Y-92775227D01*
X124726726Y-92742151D01*
X124661884Y-92700191D01*
X124589940Y-92651943D01*
X124519275Y-92604291D01*
X124455526Y-92562328D01*
X124403513Y-92529165D01*
X124367279Y-92507378D01*
X124350867Y-92499543D01*
X124349905Y-92499614D01*
X124328103Y-92507338D01*
X124289440Y-92525323D01*
X124241612Y-92550013D01*
X124241110Y-92550284D01*
X124177587Y-92582099D01*
X124134060Y-92597642D01*
X124107052Y-92597685D01*
X124093090Y-92583000D01*
X124087180Y-92568544D01*
X124071229Y-92529831D01*
X124046660Y-92470316D01*
X124014779Y-92393165D01*
X123976893Y-92301541D01*
X123934310Y-92198607D01*
X123888337Y-92087526D01*
X123846667Y-91986472D01*
X123804268Y-91882780D01*
X123766756Y-91790119D01*
X123735388Y-91711642D01*
X123711425Y-91650500D01*
X123696123Y-91609843D01*
X123690743Y-91592825D01*
X123701018Y-91577219D01*
X123729563Y-91551162D01*
X123769971Y-91520887D01*
X123866979Y-91441684D01*
X123953793Y-91340475D01*
X124017322Y-91229116D01*
X124057177Y-91110893D01*
X124072965Y-90989095D01*
X124064296Y-90867010D01*
X124030778Y-90747925D01*
X123972021Y-90635129D01*
X123887632Y-90531911D01*
X123843631Y-90491713D01*
X123738211Y-90420638D01*
X123625410Y-90374301D01*
X123508525Y-90351599D01*
X123390853Y-90351428D01*
X123275690Y-90372687D01*
X123166335Y-90414270D01*
X123066083Y-90475076D01*
X122978233Y-90554001D01*
X122906080Y-90649941D01*
X122852922Y-90761795D01*
X122822057Y-90888457D01*
X122816392Y-90949507D01*
X122824185Y-91081776D01*
X122859284Y-91207266D01*
X122920649Y-91323759D01*
X123007243Y-91429039D01*
X123118029Y-91520887D01*
X123156931Y-91549930D01*
X123186104Y-91576272D01*
X123197257Y-91592800D01*
X123192810Y-91607209D01*
X123178378Y-91645815D01*
X123155173Y-91705201D01*
X123124452Y-91782215D01*
X123087474Y-91873703D01*
X123045496Y-91976516D01*
X122999778Y-92087502D01*
X122958178Y-92188072D01*
X122915222Y-92291947D01*
X122876829Y-92384819D01*
X122844305Y-92463525D01*
X122818958Y-92524899D01*
X122802095Y-92565779D01*
X122795025Y-92583000D01*
X122794943Y-92583204D01*
X122780798Y-92597745D01*
X122753659Y-92597579D01*
X122710023Y-92581927D01*
X122646388Y-92550013D01*
X122641379Y-92547326D01*
X122594125Y-92523150D01*
X122556811Y-92506037D01*
X122537133Y-92499543D01*
X122521005Y-92507218D01*
X122484959Y-92528871D01*
X122433092Y-92561928D01*
X122369445Y-92603810D01*
X122298060Y-92651943D01*
X122227724Y-92699131D01*
X122162670Y-92741267D01*
X122108820Y-92774578D01*
X122070374Y-92796469D01*
X122051534Y-92804343D01*
X122048325Y-92803343D01*
X122025954Y-92787584D01*
X121987733Y-92755033D01*
X121937021Y-92708733D01*
X121877181Y-92651726D01*
X121811571Y-92587058D01*
X121594648Y-92369772D01*
X121763601Y-92121253D01*
X121932553Y-91872733D01*
X121881183Y-91761595D01*
X121881031Y-91761266D01*
X121850183Y-91690418D01*
X121818661Y-91611523D01*
X121793266Y-91541600D01*
X121789423Y-91530322D01*
X121770047Y-91477967D01*
X121752574Y-91437283D01*
X121740388Y-91416287D01*
X121735426Y-91413322D01*
X121705634Y-91403375D01*
X121655047Y-91390505D01*
X121589194Y-91376053D01*
X121513600Y-91361355D01*
X121490957Y-91357210D01*
X121409038Y-91342116D01*
X121332600Y-91327899D01*
X121269337Y-91315995D01*
X121226943Y-91307839D01*
X121150743Y-91292799D01*
X121150743Y-90975492D01*
X121150760Y-90936476D01*
X121151082Y-90841292D01*
X121152033Y-90770255D01*
X121153896Y-90719734D01*
X121156955Y-90686098D01*
X121161494Y-90665718D01*
X121167795Y-90654962D01*
X121176143Y-90650199D01*
X121184224Y-90648270D01*
X121217172Y-90641445D01*
X121269736Y-90631022D01*
X121336569Y-90618018D01*
X121412328Y-90603449D01*
X121491665Y-90588333D01*
X121569237Y-90573685D01*
X121639698Y-90560523D01*
X121697702Y-90549863D01*
X121737904Y-90542721D01*
X121754959Y-90540114D01*
X121756112Y-90538541D01*
X121765385Y-90518119D01*
X121781432Y-90479045D01*
X121801635Y-90427629D01*
X121829672Y-90358353D01*
X121864186Y-90278290D01*
X121896538Y-90207728D01*
X121903952Y-90191889D01*
X121924755Y-90142293D01*
X121937219Y-90104038D01*
X121938863Y-90084356D01*
X121938015Y-90082962D01*
X121924548Y-90062420D01*
X121897850Y-90022516D01*
X121860539Y-89967140D01*
X121815234Y-89900177D01*
X121764552Y-89825517D01*
X121707445Y-89740692D01*
X121664607Y-89674800D01*
X121635460Y-89626478D01*
X121618317Y-89592733D01*
X121611495Y-89570572D01*
X121613306Y-89557002D01*
X121613915Y-89555984D01*
X121630297Y-89536210D01*
X121663695Y-89500175D01*
X121710671Y-89451451D01*
X121767786Y-89393612D01*
X121831603Y-89330227D01*
X121897802Y-89265905D01*
X121962648Y-89205447D01*
X122010299Y-89164655D01*
X122041990Y-89142484D01*
X122058958Y-89137889D01*
X122061175Y-89138921D01*
X122084524Y-89152837D01*
X122126912Y-89180030D01*
X122184369Y-89217889D01*
X122252923Y-89263803D01*
X122328601Y-89315160D01*
X122575298Y-89483626D01*
X122686706Y-89433062D01*
X122689943Y-89431597D01*
X122758343Y-89401965D01*
X122830907Y-89372493D01*
X122892457Y-89349358D01*
X122892729Y-89349262D01*
X122941595Y-89331367D01*
X122979212Y-89316253D01*
X122997457Y-89307184D01*
X122997752Y-89306855D01*
X123003946Y-89288282D01*
X123014139Y-89246045D01*
X123027348Y-89184696D01*
X123042590Y-89108789D01*
X123058881Y-89022875D01*
X123059449Y-89019796D01*
X123075713Y-88932128D01*
X123090608Y-88852741D01*
X123103171Y-88786701D01*
X123112438Y-88739079D01*
X123117444Y-88714943D01*
X123117764Y-88713605D01*
X123121060Y-88703273D01*
X123127738Y-88695506D01*
X123141462Y-88689940D01*
X123165895Y-88686207D01*
X123204702Y-88683942D01*
X123261546Y-88682778D01*
X123340090Y-88682348D01*
X123444000Y-88682286D01*
X123457056Y-88682286D01*
X123557933Y-88682371D01*
M02*
