M48
; DRILL file {KiCad 5.99.0-unknown-r17121-d4cea0f2} date Sat 07 Dec 2019 05:01:06 PM CST
; FORMAT={-:-/ absolute / inch / decimal}
; #@! TF.CreationDate,2019-12-07T17:01:06-06:00
; #@! TF.GenerationSoftware,Kicad,Pcbnew,5.99.0-unknown-r17121-d4cea0f2
FMAT,2
INCH
T1C0.0315
T2C0.0394
%
G90
G05
T1
X4.875Y-3.45
X4.875Y-3.75
X4.975Y-3.45
X4.975Y-3.75
X5.075Y-3.45
X5.075Y-3.75
X5.175Y-3.45
X5.175Y-3.75
X5.275Y-3.45
X5.275Y-3.75
X5.375Y-3.45
X5.375Y-3.75
X5.475Y-3.45
X5.475Y-3.75
X5.575Y-3.45
X5.575Y-3.75
T2
X4.5Y-3.35
X4.5Y-3.45
X4.5Y-3.55
X4.5Y-3.65
X4.5Y-3.75
X4.5Y-3.85
X4.6Y-3.35
X4.6Y-3.45
X4.6Y-3.55
X4.6Y-3.65
X4.6Y-3.75
X4.6Y-3.85
T0
M30
