G04 #@! TF.GenerationSoftware,KiCad,Pcbnew,5.99.0-unknown-r16821-0ff20c18*
G04 #@! TF.CreationDate,2019-10-13T14:57:24-05:00*
G04 #@! TF.ProjectId,led_module,6c65645f-6d6f-4647-956c-652e6b696361,B*
G04 #@! TF.SameCoordinates,Original*
G04 #@! TF.FileFunction,Copper,L2,Bot*
G04 #@! TF.FilePolarity,Positive*
%FSLAX46Y46*%
G04 Gerber Fmt 4.6, Leading zero omitted, Abs format (unit mm)*
G04 Created by KiCad (PCBNEW 5.99.0-unknown-r16821-0ff20c18) date 2019-10-13 14:57:24*
%MOMM*%
%LPD*%
G04 APERTURE LIST*
%ADD10R,1.408000X1.408000*%
%ADD11C,1.408000*%
%ADD12R,1.050000X1.500000*%
%ADD13O,1.050000X1.500000*%
%ADD14O,1.700000X1.700000*%
%ADD15R,1.700000X1.700000*%
%ADD16C,0.800000*%
%ADD17C,0.250000*%
%ADD18C,0.500000*%
G04 APERTURE END LIST*
D10*
X57023000Y-121158000D03*
D11*
X59563000Y-121158000D03*
X62103000Y-121158000D03*
X64643000Y-121158000D03*
X67183000Y-121158000D03*
X69723000Y-121158000D03*
X72263000Y-121158000D03*
X74803000Y-121158000D03*
X77343000Y-121158000D03*
X77343000Y-105918000D03*
X74803000Y-105918000D03*
X72263000Y-105918000D03*
X69723000Y-105918000D03*
X67183000Y-105918000D03*
X64643000Y-105918000D03*
X62103000Y-105918000D03*
X59563000Y-105918000D03*
X57023000Y-105918000D03*
D10*
X30480000Y-121158000D03*
D11*
X33020000Y-121158000D03*
X35560000Y-121158000D03*
X38100000Y-121158000D03*
X40640000Y-121158000D03*
X43180000Y-121158000D03*
X45720000Y-121158000D03*
X48260000Y-121158000D03*
X50800000Y-121158000D03*
X50800000Y-105918000D03*
X48260000Y-105918000D03*
X45720000Y-105918000D03*
X43180000Y-105918000D03*
X40640000Y-105918000D03*
X38100000Y-105918000D03*
X35560000Y-105918000D03*
X33020000Y-105918000D03*
X30480000Y-105918000D03*
D12*
X59690000Y-100330000D03*
D13*
X62230000Y-100330000D03*
X60960000Y-100330000D03*
D14*
X29845000Y-128905000D03*
X29845000Y-126365000D03*
X32385000Y-128905000D03*
X32385000Y-126365000D03*
X34925000Y-128905000D03*
X34925000Y-126365000D03*
X37465000Y-128905000D03*
X37465000Y-126365000D03*
X40005000Y-128905000D03*
X40005000Y-126365000D03*
X42545000Y-128905000D03*
X42545000Y-126365000D03*
X45085000Y-128905000D03*
X45085000Y-126365000D03*
X47625000Y-128905000D03*
X47625000Y-126365000D03*
X50165000Y-128905000D03*
X50165000Y-126365000D03*
X52705000Y-128905000D03*
X52705000Y-126365000D03*
X55245000Y-128905000D03*
X55245000Y-126365000D03*
X57785000Y-128905000D03*
X57785000Y-126365000D03*
X60325000Y-128905000D03*
X60325000Y-126365000D03*
X62865000Y-128905000D03*
X62865000Y-126365000D03*
X65405000Y-128905000D03*
X65405000Y-126365000D03*
X67945000Y-128905000D03*
X67945000Y-126365000D03*
X70485000Y-128905000D03*
X70485000Y-126365000D03*
X73025000Y-128905000D03*
X73025000Y-126365000D03*
X75565000Y-128905000D03*
X75565000Y-126365000D03*
X78105000Y-128905000D03*
D15*
X78105000Y-126365000D03*
D12*
X33020000Y-100330000D03*
D13*
X35560000Y-100330000D03*
X34290000Y-100330000D03*
D12*
X45720000Y-100330000D03*
D13*
X48260000Y-100330000D03*
X46990000Y-100330000D03*
D12*
X72390000Y-100330000D03*
D13*
X74930000Y-100330000D03*
X73660000Y-100330000D03*
D16*
X45512300Y-102450500D03*
X46510300Y-102017400D03*
X53229000Y-103823700D03*
X43662400Y-109987900D03*
X69434100Y-103089100D03*
X68743800Y-107504600D03*
X56379700Y-116463900D03*
X43646500Y-117408900D03*
X66756100Y-109248400D03*
X36006100Y-122553700D03*
X37997900Y-117496900D03*
X53516500Y-104950500D03*
X55605200Y-106262800D03*
X40118500Y-109707500D03*
X42571500Y-117444500D03*
X51098000Y-116262300D03*
D17*
X34290000Y-110271000D02*
X34290000Y-100330000D01*
X31590700Y-112970300D02*
X34290000Y-110271000D01*
X31590700Y-123406000D02*
X31590700Y-112970300D01*
X31020300Y-123976400D02*
X31590700Y-123406000D01*
X31020300Y-126921800D02*
X31020300Y-123976400D01*
X30212400Y-127729700D02*
X31020300Y-126921800D01*
X29845000Y-127729700D02*
X30212400Y-127729700D01*
X29845000Y-128905000D02*
X29845000Y-127729700D01*
X34925000Y-128905000D02*
X34925000Y-127729700D01*
X60960000Y-100330000D02*
X60960000Y-99254700D01*
X35292400Y-127729700D02*
X34925000Y-127729700D01*
X36100300Y-126921800D02*
X35292400Y-127729700D01*
X36100300Y-125917500D02*
X36100300Y-126921800D01*
X36830000Y-125187800D02*
X36100300Y-125917500D01*
X36830000Y-105515400D02*
X36830000Y-125187800D01*
X44441600Y-97903800D02*
X36830000Y-105515400D01*
X59609100Y-97903800D02*
X44441600Y-97903800D01*
X60960000Y-99254700D02*
X59609100Y-97903800D01*
D18*
X44529400Y-100545300D02*
X44744700Y-100330000D01*
X44529400Y-121969100D02*
X44529400Y-100545300D01*
X47625000Y-125064700D02*
X44529400Y-121969100D01*
X47625000Y-126365000D02*
X47625000Y-125064700D01*
X45720000Y-100330000D02*
X44744700Y-100330000D01*
X29325600Y-124545300D02*
X29845000Y-125064700D01*
X29325600Y-103049100D02*
X29325600Y-124545300D01*
X32044700Y-100330000D02*
X29325600Y-103049100D01*
X33020000Y-100330000D02*
X32044700Y-100330000D01*
X29845000Y-126365000D02*
X29845000Y-125064700D01*
X62230000Y-105791000D02*
X62103000Y-105918000D01*
X62230000Y-100330000D02*
X62230000Y-105791000D01*
X74930000Y-105791000D02*
X74803000Y-105918000D01*
X74930000Y-100330000D02*
X74930000Y-105791000D01*
X35560000Y-100330000D02*
X35560000Y-105918000D01*
X48260000Y-100330000D02*
X48260000Y-105918000D01*
D17*
X50165000Y-126365000D02*
X50165000Y-125189700D01*
X46780300Y-106608300D02*
X51556500Y-111384500D01*
X46780300Y-103718500D02*
X46780300Y-106608300D01*
X45512300Y-102450500D02*
X46780300Y-103718500D01*
X51556500Y-111384500D02*
X57023000Y-105918000D01*
X47202300Y-122227000D02*
X50165000Y-125189700D01*
X47202300Y-115738700D02*
X47202300Y-122227000D01*
X51556500Y-111384500D02*
X47202300Y-115738700D01*
X63373000Y-109728000D02*
X59563000Y-105918000D01*
X63373000Y-124949000D02*
X63373000Y-109728000D01*
X64229700Y-125805700D02*
X63373000Y-124949000D01*
X64229700Y-126921800D02*
X64229700Y-125805700D01*
X65037600Y-127729700D02*
X64229700Y-126921800D01*
X65405000Y-127729700D02*
X65037600Y-127729700D01*
X65405000Y-128905000D02*
X65405000Y-127729700D01*
X47230700Y-102737800D02*
X46510300Y-102017400D01*
X47230700Y-106421800D02*
X47230700Y-102737800D01*
X47757100Y-106948200D02*
X47230700Y-106421800D01*
X53871200Y-106948200D02*
X47757100Y-106948200D01*
X56381100Y-104438300D02*
X53871200Y-106948200D01*
X58083300Y-104438300D02*
X56381100Y-104438300D01*
X59563000Y-105918000D02*
X58083300Y-104438300D01*
X65913000Y-107188000D02*
X64643000Y-105918000D01*
X65913000Y-124949000D02*
X65913000Y-107188000D01*
X66769700Y-125805700D02*
X65913000Y-124949000D01*
X66769700Y-126921800D02*
X66769700Y-125805700D01*
X67577600Y-127729700D02*
X66769700Y-126921800D01*
X67945000Y-127729700D02*
X67577600Y-127729700D01*
X67945000Y-128905000D02*
X67945000Y-127729700D01*
X38100000Y-104882300D02*
X38100000Y-105918000D01*
X44628200Y-98354100D02*
X38100000Y-104882300D01*
X53531200Y-98354100D02*
X44628200Y-98354100D01*
X60833000Y-105655900D02*
X53531200Y-98354100D01*
X60833000Y-106133500D02*
X60833000Y-105655900D01*
X61648100Y-106948600D02*
X60833000Y-106133500D01*
X63612400Y-106948600D02*
X61648100Y-106948600D01*
X64643000Y-105918000D02*
X63612400Y-106948600D01*
X70485000Y-128905000D02*
X70485000Y-127729700D01*
X70117600Y-127729700D02*
X70485000Y-127729700D01*
X69309700Y-126921800D02*
X70117600Y-127729700D01*
X69309700Y-125805700D02*
X69309700Y-126921800D01*
X68453000Y-124949000D02*
X69309700Y-125805700D01*
X68453000Y-108239400D02*
X68453000Y-124949000D01*
X68452900Y-108239400D02*
X68453000Y-108239400D01*
X67183000Y-106969500D02*
X68452900Y-108239400D01*
X67183000Y-105918000D02*
X67183000Y-106969500D01*
X40640000Y-102979200D02*
X40640000Y-105918000D01*
X44814800Y-98804400D02*
X40640000Y-102979200D01*
X48846600Y-98804400D02*
X44814800Y-98804400D01*
X53229000Y-103186800D02*
X48846600Y-98804400D01*
X53229000Y-103823700D02*
X53229000Y-103186800D01*
X37465000Y-126365000D02*
X37465000Y-125189700D01*
X43180000Y-105918000D02*
X43180000Y-106744800D01*
X43662400Y-107227200D02*
X43180000Y-106744800D01*
X43662400Y-109987900D02*
X43662400Y-107227200D01*
X39370000Y-123284700D02*
X37465000Y-125189700D01*
X39370000Y-109430300D02*
X39370000Y-123284700D01*
X42055500Y-106744800D02*
X39370000Y-109430300D01*
X43180000Y-106744800D02*
X42055500Y-106744800D01*
X72263000Y-105918000D02*
X69434100Y-103089100D01*
X75756400Y-107504600D02*
X77343000Y-105918000D01*
X68743800Y-107504600D02*
X75756400Y-107504600D01*
X51744100Y-121158000D02*
X50800000Y-121158000D01*
X56427800Y-125841700D02*
X51744100Y-121158000D01*
X56427800Y-126901400D02*
X56427800Y-125841700D01*
X55785000Y-127544200D02*
X56427800Y-126901400D01*
X53884200Y-127544200D02*
X55785000Y-127544200D01*
X52705000Y-126365000D02*
X53884200Y-127544200D01*
X49230100Y-121158000D02*
X48260000Y-121158000D01*
X54069700Y-125997600D02*
X49230100Y-121158000D01*
X54069700Y-126365000D02*
X54069700Y-125997600D01*
X55245000Y-126365000D02*
X54069700Y-126365000D01*
X62865000Y-123406600D02*
X62865000Y-126365000D01*
X60833000Y-121374600D02*
X62865000Y-123406600D01*
X60833000Y-120917200D02*
X60833000Y-121374600D01*
X56379700Y-116463900D02*
X60833000Y-120917200D01*
X67183000Y-109675300D02*
X67183000Y-121158000D01*
X66756100Y-109248400D02*
X67183000Y-109675300D01*
X40640000Y-120415400D02*
X43646500Y-117408900D01*
X40640000Y-121158000D02*
X40640000Y-120415400D01*
X51529700Y-129272400D02*
X51529700Y-128905000D01*
X50721800Y-130080300D02*
X51529700Y-129272400D01*
X34382700Y-130080300D02*
X50721800Y-130080300D01*
X33746000Y-129443600D02*
X34382700Y-130080300D01*
X33746000Y-124813800D02*
X33746000Y-129443600D01*
X36006100Y-122553700D02*
X33746000Y-124813800D01*
X52705000Y-128905000D02*
X51529700Y-128905000D01*
X57785000Y-128905000D02*
X58960300Y-128905000D01*
X58960300Y-129272300D02*
X58960300Y-128905000D01*
X59773400Y-130085400D02*
X58960300Y-129272300D01*
X60896500Y-130085400D02*
X59773400Y-130085400D01*
X61535600Y-129446300D02*
X60896500Y-130085400D01*
X61535600Y-123130600D02*
X61535600Y-129446300D01*
X59563000Y-121158000D02*
X61535600Y-123130600D01*
X53313300Y-104950500D02*
X53516500Y-104950500D01*
X49895900Y-101533100D02*
X53313300Y-104950500D01*
X49895900Y-100490600D02*
X49895900Y-101533100D01*
X48660000Y-99254700D02*
X49895900Y-100490600D01*
X45001400Y-99254700D02*
X48660000Y-99254700D01*
X41777300Y-102478800D02*
X45001400Y-99254700D01*
X41777300Y-106236600D02*
X41777300Y-102478800D01*
X37997900Y-110016000D02*
X41777300Y-106236600D01*
X37997900Y-117496900D02*
X37997900Y-110016000D01*
X55605200Y-105851100D02*
X55605200Y-106262800D01*
X56567700Y-104888600D02*
X55605200Y-105851100D01*
X57463200Y-104888600D02*
X56567700Y-104888600D01*
X58085500Y-105510900D02*
X57463200Y-104888600D01*
X58085500Y-113222400D02*
X58085500Y-105510900D01*
X55648500Y-115659400D02*
X58085500Y-113222400D01*
X55648500Y-117243500D02*
X55648500Y-115659400D01*
X59563000Y-121158000D02*
X55648500Y-117243500D01*
X59149700Y-124314000D02*
X57023000Y-122187300D01*
X59149700Y-126921800D02*
X59149700Y-124314000D01*
X59957600Y-127729700D02*
X59149700Y-126921800D01*
X60325000Y-127729700D02*
X59957600Y-127729700D01*
X60325000Y-128905000D02*
X60325000Y-127729700D01*
X57023000Y-121158000D02*
X57023000Y-122187300D01*
X57023000Y-121158000D02*
X55993700Y-121158000D01*
X51098000Y-116262300D02*
X55993700Y-121158000D01*
X42571500Y-112160500D02*
X40118500Y-109707500D01*
X42571500Y-117444500D02*
X42571500Y-112160500D01*
M02*
