M48
; DRILL file {KiCad 5.99.0-unknown-r16821-0ff20c18} date Sun 29 Sep 2019 05:52:04 PM CDT
; FORMAT={-:-/ absolute / inch / decimal}
; #@! TF.CreationDate,2019-09-29T17:52:04-05:00
; #@! TF.GenerationSoftware,Kicad,Pcbnew,5.99.0-unknown-r16821-0ff20c18
FMAT,2
INCH
T1C0.0354
T2C0.0394
%
G90
G05
T1
X2.245Y-4.17
X2.245Y-4.77
X2.345Y-4.17
X2.345Y-4.77
X2.445Y-4.17
X2.445Y-4.77
X2.545Y-4.17
X2.545Y-4.77
X2.645Y-4.17
X2.645Y-4.77
X2.745Y-4.17
X2.745Y-4.77
X2.845Y-4.17
X2.845Y-4.77
X2.945Y-4.17
X2.945Y-4.77
X3.045Y-4.17
X3.045Y-4.77
X1.2Y-4.17
X1.2Y-4.77
X1.3Y-4.17
X1.3Y-4.77
X1.4Y-4.17
X1.4Y-4.77
X1.5Y-4.17
X1.5Y-4.77
X1.6Y-4.17
X1.6Y-4.77
X1.7Y-4.17
X1.7Y-4.77
X1.8Y-4.17
X1.8Y-4.77
X1.9Y-4.17
X1.9Y-4.77
X2.0Y-4.17
X2.0Y-4.77
T2
X1.175Y-4.975
X1.175Y-5.075
X1.275Y-4.975
X1.275Y-5.075
X1.375Y-4.975
X1.375Y-5.075
X1.475Y-4.975
X1.475Y-5.075
X1.575Y-4.975
X1.575Y-5.075
X1.675Y-4.975
X1.675Y-5.075
X1.775Y-4.975
X1.775Y-5.075
X1.875Y-4.975
X1.875Y-5.075
X1.975Y-4.975
X1.975Y-5.075
X2.075Y-4.975
X2.075Y-5.075
X2.175Y-4.975
X2.175Y-5.075
X2.275Y-4.975
X2.275Y-5.075
X2.375Y-4.975
X2.375Y-5.075
X2.475Y-4.975
X2.475Y-5.075
X2.575Y-4.975
X2.575Y-5.075
X2.675Y-4.975
X2.675Y-5.075
X2.775Y-4.975
X2.775Y-5.075
X2.875Y-4.975
X2.875Y-5.075
X2.975Y-4.975
X2.975Y-5.075
X3.075Y-4.975
X3.075Y-5.075
T0
M30
