G04 #@! TF.GenerationSoftware,KiCad,Pcbnew,5.99.0-unknown-r17121-d4cea0f2*
G04 #@! TF.CreationDate,2019-12-07T19:18:22-06:00*
G04 #@! TF.ProjectId,led_module,6c65645f-6d6f-4647-956c-652e6b696361,C*
G04 #@! TF.SameCoordinates,Original*
G04 #@! TF.FileFunction,Legend,Bot*
G04 #@! TF.FilePolarity,Positive*
%FSLAX46Y46*%
G04 Gerber Fmt 4.6, Leading zero omitted, Abs format (unit mm)*
G04 Created by KiCad (PCBNEW 5.99.0-unknown-r17121-d4cea0f2) date 2019-12-07 19:18:22*
%MOMM*%
%LPD*%
G04 APERTURE LIST*
%ADD10C,0.300000*%
%ADD11C,0.010000*%
%ADD12C,0.120000*%
%ADD13C,0.150000*%
G04 APERTURE END LIST*
D10*
X57557142Y-111293571D02*
X58414285Y-111293571D01*
X57985714Y-111293571D02*
X57985714Y-109793571D01*
X58128571Y-110007857D01*
X58271428Y-110150714D01*
X58414285Y-110222142D01*
X56271428Y-110293571D02*
X56271428Y-111293571D01*
X56628571Y-109722142D02*
X56985714Y-110793571D01*
X56057142Y-110793571D01*
X55485714Y-110722142D02*
X54342857Y-110722142D01*
X53700000Y-111222142D02*
X53485714Y-111293571D01*
X53128571Y-111293571D01*
X52985714Y-111222142D01*
X52914285Y-111150714D01*
X52842857Y-111007857D01*
X52842857Y-110865000D01*
X52914285Y-110722142D01*
X52985714Y-110650714D01*
X53128571Y-110579285D01*
X53414285Y-110507857D01*
X53557142Y-110436428D01*
X53628571Y-110365000D01*
X53700000Y-110222142D01*
X53700000Y-110079285D01*
X53628571Y-109936428D01*
X53557142Y-109865000D01*
X53414285Y-109793571D01*
X53057142Y-109793571D01*
X52842857Y-109865000D01*
X51628571Y-111222142D02*
X51771428Y-111293571D01*
X52057142Y-111293571D01*
X52200000Y-111222142D01*
X52271428Y-111079285D01*
X52271428Y-110507857D01*
X52200000Y-110365000D01*
X52057142Y-110293571D01*
X51771428Y-110293571D01*
X51628571Y-110365000D01*
X51557142Y-110507857D01*
X51557142Y-110650714D01*
X52271428Y-110793571D01*
X50271428Y-110293571D02*
X50271428Y-111507857D01*
X50342857Y-111650714D01*
X50414285Y-111722142D01*
X50557142Y-111793571D01*
X50771428Y-111793571D01*
X50914285Y-111722142D01*
X50271428Y-111222142D02*
X50414285Y-111293571D01*
X50700000Y-111293571D01*
X50842857Y-111222142D01*
X50914285Y-111150714D01*
X50985714Y-111007857D01*
X50985714Y-110579285D01*
X50914285Y-110436428D01*
X50842857Y-110365000D01*
X50700000Y-110293571D01*
X50414285Y-110293571D01*
X50271428Y-110365000D01*
X49557142Y-111293571D02*
X49557142Y-110293571D01*
X49557142Y-110436428D02*
X49485714Y-110365000D01*
X49342857Y-110293571D01*
X49128571Y-110293571D01*
X48985714Y-110365000D01*
X48914285Y-110507857D01*
X48914285Y-111293571D01*
X48914285Y-110507857D02*
X48842857Y-110365000D01*
X48700000Y-110293571D01*
X48485714Y-110293571D01*
X48342857Y-110365000D01*
X48271428Y-110507857D01*
X48271428Y-111293571D01*
X46985714Y-111222142D02*
X47128571Y-111293571D01*
X47414285Y-111293571D01*
X47557142Y-111222142D01*
X47628571Y-111079285D01*
X47628571Y-110507857D01*
X47557142Y-110365000D01*
X47414285Y-110293571D01*
X47128571Y-110293571D01*
X46985714Y-110365000D01*
X46914285Y-110507857D01*
X46914285Y-110650714D01*
X47628571Y-110793571D01*
X46271428Y-110293571D02*
X46271428Y-111293571D01*
X46271428Y-110436428D02*
X46200000Y-110365000D01*
X46057142Y-110293571D01*
X45842857Y-110293571D01*
X45700000Y-110365000D01*
X45628571Y-110507857D01*
X45628571Y-111293571D01*
X45128571Y-110293571D02*
X44557142Y-110293571D01*
X44914285Y-109793571D02*
X44914285Y-111079285D01*
X44842857Y-111222142D01*
X44700000Y-111293571D01*
X44557142Y-111293571D01*
X42200000Y-111293571D02*
X42914285Y-111293571D01*
X42914285Y-109793571D01*
X41700000Y-110507857D02*
X41200000Y-110507857D01*
X40985714Y-111293571D02*
X41700000Y-111293571D01*
X41700000Y-109793571D01*
X40985714Y-109793571D01*
X40342857Y-111293571D02*
X40342857Y-109793571D01*
X39985714Y-109793571D01*
X39771428Y-109865000D01*
X39628571Y-110007857D01*
X39557142Y-110150714D01*
X39485714Y-110436428D01*
X39485714Y-110650714D01*
X39557142Y-110936428D01*
X39628571Y-111079285D01*
X39771428Y-111222142D01*
X39985714Y-111293571D01*
X40342857Y-111293571D01*
X37700000Y-111293571D02*
X37700000Y-109793571D01*
X37200000Y-110865000D01*
X36700000Y-109793571D01*
X36700000Y-111293571D01*
X35771428Y-111293571D02*
X35914285Y-111222142D01*
X35985714Y-111150714D01*
X36057142Y-111007857D01*
X36057142Y-110579285D01*
X35985714Y-110436428D01*
X35914285Y-110365000D01*
X35771428Y-110293571D01*
X35557142Y-110293571D01*
X35414285Y-110365000D01*
X35342857Y-110436428D01*
X35271428Y-110579285D01*
X35271428Y-111007857D01*
X35342857Y-111150714D01*
X35414285Y-111222142D01*
X35557142Y-111293571D01*
X35771428Y-111293571D01*
X33985714Y-111293571D02*
X33985714Y-109793571D01*
X33985714Y-111222142D02*
X34128571Y-111293571D01*
X34414285Y-111293571D01*
X34557142Y-111222142D01*
X34628571Y-111150714D01*
X34700000Y-111007857D01*
X34700000Y-110579285D01*
X34628571Y-110436428D01*
X34557142Y-110365000D01*
X34414285Y-110293571D01*
X34128571Y-110293571D01*
X33985714Y-110365000D01*
X32628571Y-110293571D02*
X32628571Y-111293571D01*
X33271428Y-110293571D02*
X33271428Y-111079285D01*
X33200000Y-111222142D01*
X33057142Y-111293571D01*
X32842857Y-111293571D01*
X32700000Y-111222142D01*
X32628571Y-111150714D01*
X31700000Y-111293571D02*
X31842857Y-111222142D01*
X31914285Y-111079285D01*
X31914285Y-109793571D01*
X30557142Y-111222142D02*
X30700000Y-111293571D01*
X30985714Y-111293571D01*
X31128571Y-111222142D01*
X31200000Y-111079285D01*
X31200000Y-110507857D01*
X31128571Y-110365000D01*
X30985714Y-110293571D01*
X30700000Y-110293571D01*
X30557142Y-110365000D01*
X30485714Y-110507857D01*
X30485714Y-110650714D01*
X31200000Y-110793571D01*
X58378571Y-112708571D02*
X57807142Y-112708571D01*
X58164285Y-113708571D02*
X58164285Y-112422857D01*
X58092857Y-112280000D01*
X57950000Y-112208571D01*
X57807142Y-112208571D01*
X57092857Y-113708571D02*
X57235714Y-113637142D01*
X57307142Y-113565714D01*
X57378571Y-113422857D01*
X57378571Y-112994285D01*
X57307142Y-112851428D01*
X57235714Y-112780000D01*
X57092857Y-112708571D01*
X56878571Y-112708571D01*
X56735714Y-112780000D01*
X56664285Y-112851428D01*
X56592857Y-112994285D01*
X56592857Y-113422857D01*
X56664285Y-113565714D01*
X56735714Y-113637142D01*
X56878571Y-113708571D01*
X57092857Y-113708571D01*
X55950000Y-113708571D02*
X55950000Y-112708571D01*
X55950000Y-112994285D02*
X55878571Y-112851428D01*
X55807142Y-112780000D01*
X55664285Y-112708571D01*
X55521428Y-112708571D01*
X53878571Y-113708571D02*
X53878571Y-112208571D01*
X53307142Y-112208571D01*
X53164285Y-112280000D01*
X53092857Y-112351428D01*
X53021428Y-112494285D01*
X53021428Y-112708571D01*
X53092857Y-112851428D01*
X53164285Y-112922857D01*
X53307142Y-112994285D01*
X53878571Y-112994285D01*
X52521428Y-112708571D02*
X52164285Y-113708571D01*
X51807142Y-112708571D02*
X52164285Y-113708571D01*
X52307142Y-114065714D01*
X52378571Y-114137142D01*
X52521428Y-114208571D01*
X51235714Y-112708571D02*
X51235714Y-113708571D01*
X51235714Y-112851428D02*
X51164285Y-112780000D01*
X51021428Y-112708571D01*
X50807142Y-112708571D01*
X50664285Y-112780000D01*
X50592857Y-112922857D01*
X50592857Y-113708571D01*
X49235714Y-112708571D02*
X49235714Y-114208571D01*
X49235714Y-113637142D02*
X49378571Y-113708571D01*
X49664285Y-113708571D01*
X49807142Y-113637142D01*
X49878571Y-113565714D01*
X49950000Y-113422857D01*
X49950000Y-112994285D01*
X49878571Y-112851428D01*
X49807142Y-112780000D01*
X49664285Y-112708571D01*
X49378571Y-112708571D01*
X49235714Y-112780000D01*
X48521428Y-113137142D02*
X47378571Y-113137142D01*
X46807142Y-112208571D02*
X45807142Y-112208571D01*
X46807142Y-113708571D01*
X45807142Y-113708571D01*
X45307142Y-112351428D02*
X45235714Y-112280000D01*
X45092857Y-112208571D01*
X44735714Y-112208571D01*
X44592857Y-112280000D01*
X44521428Y-112351428D01*
X44450000Y-112494285D01*
X44450000Y-112637142D01*
X44521428Y-112851428D01*
X45378571Y-113708571D01*
X44450000Y-113708571D01*
X41807142Y-113708571D02*
X42307142Y-112994285D01*
X42664285Y-113708571D02*
X42664285Y-112208571D01*
X42092857Y-112208571D01*
X41950000Y-112280000D01*
X41878571Y-112351428D01*
X41807142Y-112494285D01*
X41807142Y-112708571D01*
X41878571Y-112851428D01*
X41950000Y-112922857D01*
X42092857Y-112994285D01*
X42664285Y-112994285D01*
X41164285Y-113708571D02*
X41164285Y-112208571D01*
X40592857Y-112208571D01*
X40450000Y-112280000D01*
X40378571Y-112351428D01*
X40307142Y-112494285D01*
X40307142Y-112708571D01*
X40378571Y-112851428D01*
X40450000Y-112922857D01*
X40592857Y-112994285D01*
X41164285Y-112994285D01*
X39664285Y-113708571D02*
X39664285Y-112708571D01*
X39664285Y-112208571D02*
X39735714Y-112280000D01*
X39664285Y-112351428D01*
X39592857Y-112280000D01*
X39664285Y-112208571D01*
X39664285Y-112351428D01*
X37807142Y-113708571D02*
X37807142Y-112208571D01*
X37807142Y-112922857D02*
X36950000Y-112922857D01*
X36950000Y-113708571D02*
X36950000Y-112208571D01*
X35664285Y-113637142D02*
X35807142Y-113708571D01*
X36092857Y-113708571D01*
X36235714Y-113637142D01*
X36307142Y-113494285D01*
X36307142Y-112922857D01*
X36235714Y-112780000D01*
X36092857Y-112708571D01*
X35807142Y-112708571D01*
X35664285Y-112780000D01*
X35592857Y-112922857D01*
X35592857Y-113065714D01*
X36307142Y-113208571D01*
X34307142Y-113708571D02*
X34307142Y-112922857D01*
X34378571Y-112780000D01*
X34521428Y-112708571D01*
X34807142Y-112708571D01*
X34950000Y-112780000D01*
X34307142Y-113637142D02*
X34450000Y-113708571D01*
X34807142Y-113708571D01*
X34950000Y-113637142D01*
X35021428Y-113494285D01*
X35021428Y-113351428D01*
X34950000Y-113208571D01*
X34807142Y-113137142D01*
X34450000Y-113137142D01*
X34307142Y-113065714D01*
X32949999Y-113708571D02*
X32949999Y-112208571D01*
X32949999Y-113637142D02*
X33092857Y-113708571D01*
X33378571Y-113708571D01*
X33521428Y-113637142D01*
X33592857Y-113565714D01*
X33664285Y-113422857D01*
X33664285Y-112994285D01*
X33592857Y-112851428D01*
X33521428Y-112780000D01*
X33378571Y-112708571D01*
X33092857Y-112708571D01*
X32949999Y-112780000D01*
X31664285Y-113637142D02*
X31807142Y-113708571D01*
X32092857Y-113708571D01*
X32235714Y-113637142D01*
X32307142Y-113494285D01*
X32307142Y-112922857D01*
X32235714Y-112780000D01*
X32092857Y-112708571D01*
X31807142Y-112708571D01*
X31664285Y-112780000D01*
X31592857Y-112922857D01*
X31592857Y-113065714D01*
X32307142Y-113208571D01*
X30949999Y-113708571D02*
X30949999Y-112708571D01*
X30949999Y-112994285D02*
X30878571Y-112851428D01*
X30807142Y-112780000D01*
X30664285Y-112708571D01*
X30521428Y-112708571D01*
X46521428Y-116123571D02*
X47021428Y-115409285D01*
X47378571Y-116123571D02*
X47378571Y-114623571D01*
X46807142Y-114623571D01*
X46664285Y-114695000D01*
X46592857Y-114766428D01*
X46521428Y-114909285D01*
X46521428Y-115123571D01*
X46592857Y-115266428D01*
X46664285Y-115337857D01*
X46807142Y-115409285D01*
X47378571Y-115409285D01*
X45307142Y-116052142D02*
X45450000Y-116123571D01*
X45735714Y-116123571D01*
X45878571Y-116052142D01*
X45950000Y-115909285D01*
X45950000Y-115337857D01*
X45878571Y-115195000D01*
X45735714Y-115123571D01*
X45450000Y-115123571D01*
X45307142Y-115195000D01*
X45235714Y-115337857D01*
X45235714Y-115480714D01*
X45950000Y-115623571D01*
X44735714Y-115123571D02*
X44378571Y-116123571D01*
X44021428Y-115123571D01*
X41450000Y-115980714D02*
X41521428Y-116052142D01*
X41735714Y-116123571D01*
X41878571Y-116123571D01*
X42092857Y-116052142D01*
X42235714Y-115909285D01*
X42307142Y-115766428D01*
X42378571Y-115480714D01*
X42378571Y-115266428D01*
X42307142Y-114980714D01*
X42235714Y-114837857D01*
X42092857Y-114695000D01*
X41878571Y-114623571D01*
X41735714Y-114623571D01*
X41521428Y-114695000D01*
X41450000Y-114766428D01*
G36*
X75303668Y-117883736D02*
G01*
X75304471Y-117948785D01*
X75307040Y-118166260D01*
X75307556Y-118332672D01*
X75304437Y-118453846D01*
X75296100Y-118535607D01*
X75280962Y-118583781D01*
X75257441Y-118604194D01*
X75223956Y-118602672D01*
X75178923Y-118585039D01*
X75120761Y-118557121D01*
X75108332Y-118551164D01*
X75056578Y-118522006D01*
X75029550Y-118487314D01*
X75019207Y-118429470D01*
X75017509Y-118330857D01*
X75017433Y-118153793D01*
X74835038Y-118153793D01*
X74722840Y-118148880D01*
X74634620Y-118128953D01*
X74561358Y-118088678D01*
X74555896Y-118084741D01*
X74481558Y-118018243D01*
X74429823Y-117937908D01*
X74397196Y-117832758D01*
X74380182Y-117691815D01*
X74376030Y-117532588D01*
X74667241Y-117532588D01*
X74667291Y-117559276D01*
X74670064Y-117679738D01*
X74678967Y-117758484D01*
X74696617Y-117809618D01*
X74725632Y-117847241D01*
X74727440Y-117849038D01*
X74798753Y-117897720D01*
X74867865Y-117892921D01*
X74945925Y-117833971D01*
X74965019Y-117813823D01*
X74993142Y-117772515D01*
X75009000Y-117718787D01*
X75016009Y-117637326D01*
X75017586Y-117512821D01*
X75016220Y-117437445D01*
X75001402Y-117300362D01*
X74967579Y-117210548D01*
X74911389Y-117161460D01*
X74829472Y-117146552D01*
X74794956Y-117149729D01*
X74735235Y-117181254D01*
X74695752Y-117251505D01*
X74673942Y-117366583D01*
X74667241Y-117532588D01*
X74376030Y-117532588D01*
X74375287Y-117504101D01*
X74376371Y-117367122D01*
X74381307Y-117263364D01*
X74392272Y-117191412D01*
X74411438Y-117137500D01*
X74440977Y-117087864D01*
X74468092Y-117049931D01*
X74566550Y-116947522D01*
X74678100Y-116891903D01*
X74818246Y-116874297D01*
X74978635Y-116891847D01*
X75117288Y-116954797D01*
X75226951Y-117065824D01*
X75235218Y-117077578D01*
X75254499Y-117108813D01*
X75269269Y-117144507D01*
X75280254Y-117192364D01*
X75288174Y-117260087D01*
X75293753Y-117355382D01*
X75297713Y-117485952D01*
X75298188Y-117512821D01*
X75300778Y-117659502D01*
X75303668Y-117883736D01*
G37*
D11*
X75303668Y-117883736D02*
X75304471Y-117948785D01*
X75307040Y-118166260D01*
X75307556Y-118332672D01*
X75304437Y-118453846D01*
X75296100Y-118535607D01*
X75280962Y-118583781D01*
X75257441Y-118604194D01*
X75223956Y-118602672D01*
X75178923Y-118585039D01*
X75120761Y-118557121D01*
X75108332Y-118551164D01*
X75056578Y-118522006D01*
X75029550Y-118487314D01*
X75019207Y-118429470D01*
X75017509Y-118330857D01*
X75017433Y-118153793D01*
X74835038Y-118153793D01*
X74722840Y-118148880D01*
X74634620Y-118128953D01*
X74561358Y-118088678D01*
X74555896Y-118084741D01*
X74481558Y-118018243D01*
X74429823Y-117937908D01*
X74397196Y-117832758D01*
X74380182Y-117691815D01*
X74376030Y-117532588D01*
X74667241Y-117532588D01*
X74667291Y-117559276D01*
X74670064Y-117679738D01*
X74678967Y-117758484D01*
X74696617Y-117809618D01*
X74725632Y-117847241D01*
X74727440Y-117849038D01*
X74798753Y-117897720D01*
X74867865Y-117892921D01*
X74945925Y-117833971D01*
X74965019Y-117813823D01*
X74993142Y-117772515D01*
X75009000Y-117718787D01*
X75016009Y-117637326D01*
X75017586Y-117512821D01*
X75016220Y-117437445D01*
X75001402Y-117300362D01*
X74967579Y-117210548D01*
X74911389Y-117161460D01*
X74829472Y-117146552D01*
X74794956Y-117149729D01*
X74735235Y-117181254D01*
X74695752Y-117251505D01*
X74673942Y-117366583D01*
X74667241Y-117532588D01*
X74376030Y-117532588D01*
X74375287Y-117504101D01*
X74376371Y-117367122D01*
X74381307Y-117263364D01*
X74392272Y-117191412D01*
X74411438Y-117137500D01*
X74440977Y-117087864D01*
X74468092Y-117049931D01*
X74566550Y-116947522D01*
X74678100Y-116891903D01*
X74818246Y-116874297D01*
X74978635Y-116891847D01*
X75117288Y-116954797D01*
X75226951Y-117065824D01*
X75235218Y-117077578D01*
X75254499Y-117108813D01*
X75269269Y-117144507D01*
X75280254Y-117192364D01*
X75288174Y-117260087D01*
X75293753Y-117355382D01*
X75297713Y-117485952D01*
X75298188Y-117512821D01*
X75300778Y-117659502D01*
X75303668Y-117883736D01*
G36*
X72728487Y-116887689D02*
G01*
X72864848Y-116951770D01*
X72976598Y-117062584D01*
X72999761Y-117097273D01*
X73018973Y-117136590D01*
X73032598Y-117186145D01*
X73041877Y-117255568D01*
X73048050Y-117354490D01*
X73052357Y-117492539D01*
X73056038Y-117679346D01*
X73065180Y-118197542D01*
X72988383Y-118168344D01*
X72918068Y-118141520D01*
X72865424Y-118115706D01*
X72831060Y-118082431D01*
X72811093Y-118031510D01*
X72801639Y-117952761D01*
X72798814Y-117835999D01*
X72798736Y-117671042D01*
X72798336Y-117539558D01*
X72795951Y-117413394D01*
X72790259Y-117327223D01*
X72779961Y-117270672D01*
X72763755Y-117233370D01*
X72740345Y-117204943D01*
X72682793Y-117164827D01*
X72586112Y-117149706D01*
X72490465Y-117187917D01*
X72484152Y-117192810D01*
X72464477Y-117215413D01*
X72449963Y-117251664D01*
X72439394Y-117310511D01*
X72431555Y-117400901D01*
X72425227Y-117531779D01*
X72419195Y-117712095D01*
X72404598Y-118194907D01*
X72280517Y-118139283D01*
X72156437Y-118083659D01*
X72156437Y-117642851D01*
X72156951Y-117523098D01*
X72161380Y-117356506D01*
X72172594Y-117232468D01*
X72193272Y-117140987D01*
X72226093Y-117072066D01*
X72273736Y-117015707D01*
X72338877Y-116961914D01*
X72432571Y-116907719D01*
X72580175Y-116872339D01*
X72728487Y-116887689D01*
G37*
X72728487Y-116887689D02*
X72864848Y-116951770D01*
X72976598Y-117062584D01*
X72999761Y-117097273D01*
X73018973Y-117136590D01*
X73032598Y-117186145D01*
X73041877Y-117255568D01*
X73048050Y-117354490D01*
X73052357Y-117492539D01*
X73056038Y-117679346D01*
X73065180Y-118197542D01*
X72988383Y-118168344D01*
X72918068Y-118141520D01*
X72865424Y-118115706D01*
X72831060Y-118082431D01*
X72811093Y-118031510D01*
X72801639Y-117952761D01*
X72798814Y-117835999D01*
X72798736Y-117671042D01*
X72798336Y-117539558D01*
X72795951Y-117413394D01*
X72790259Y-117327223D01*
X72779961Y-117270672D01*
X72763755Y-117233370D01*
X72740345Y-117204943D01*
X72682793Y-117164827D01*
X72586112Y-117149706D01*
X72490465Y-117187917D01*
X72484152Y-117192810D01*
X72464477Y-117215413D01*
X72449963Y-117251664D01*
X72439394Y-117310511D01*
X72431555Y-117400901D01*
X72425227Y-117531779D01*
X72419195Y-117712095D01*
X72404598Y-118194907D01*
X72280517Y-118139283D01*
X72156437Y-118083659D01*
X72156437Y-117642851D01*
X72156951Y-117523098D01*
X72161380Y-117356506D01*
X72172594Y-117232468D01*
X72193272Y-117140987D01*
X72226093Y-117072066D01*
X72273736Y-117015707D01*
X72338877Y-116961914D01*
X72432571Y-116907719D01*
X72580175Y-116872339D01*
X72728487Y-116887689D01*
G36*
X76418938Y-117557744D02*
G01*
X76417355Y-117698918D01*
X76411916Y-117797285D01*
X76400643Y-117865990D01*
X76381561Y-117918181D01*
X76352694Y-117967004D01*
X76345592Y-117977135D01*
X76270444Y-118057012D01*
X76184820Y-118117253D01*
X76140852Y-118136802D01*
X75982861Y-118169408D01*
X75826613Y-118148317D01*
X75682618Y-118076249D01*
X75561385Y-117955922D01*
X75551150Y-117939803D01*
X75517847Y-117846205D01*
X75495405Y-117715879D01*
X75484516Y-117565371D01*
X75485739Y-117426147D01*
X75780384Y-117426147D01*
X75782706Y-117619020D01*
X75783639Y-117631433D01*
X75797242Y-117737857D01*
X75821465Y-117805346D01*
X75862365Y-117851584D01*
X75930941Y-117894895D01*
X75998764Y-117897172D01*
X76068621Y-117847241D01*
X76080771Y-117834102D01*
X76104575Y-117794785D01*
X76118628Y-117737674D01*
X76125313Y-117649256D01*
X76127011Y-117516019D01*
X76124101Y-117391222D01*
X76109582Y-117272326D01*
X76079610Y-117197184D01*
X76030589Y-117157893D01*
X75958924Y-117146552D01*
X75931632Y-117148807D01*
X75855176Y-117190160D01*
X75804650Y-117282900D01*
X75780384Y-117426147D01*
X75485739Y-117426147D01*
X75485871Y-117411227D01*
X75500161Y-117269992D01*
X75528075Y-117158213D01*
X75563949Y-117083766D01*
X75664939Y-116967968D01*
X75801779Y-116896015D01*
X75969283Y-116871281D01*
X76014019Y-116872619D01*
X76145758Y-116900008D01*
X76253968Y-116969007D01*
X76353276Y-117087864D01*
X76359184Y-117096681D01*
X76385921Y-117144108D01*
X76403312Y-117197714D01*
X76413312Y-117270549D01*
X76417878Y-117375659D01*
X76418893Y-117516019D01*
X76418965Y-117526092D01*
X76418938Y-117557744D01*
G37*
X76418938Y-117557744D02*
X76417355Y-117698918D01*
X76411916Y-117797285D01*
X76400643Y-117865990D01*
X76381561Y-117918181D01*
X76352694Y-117967004D01*
X76345592Y-117977135D01*
X76270444Y-118057012D01*
X76184820Y-118117253D01*
X76140852Y-118136802D01*
X75982861Y-118169408D01*
X75826613Y-118148317D01*
X75682618Y-118076249D01*
X75561385Y-117955922D01*
X75551150Y-117939803D01*
X75517847Y-117846205D01*
X75495405Y-117715879D01*
X75484516Y-117565371D01*
X75485739Y-117426147D01*
X75780384Y-117426147D01*
X75782706Y-117619020D01*
X75783639Y-117631433D01*
X75797242Y-117737857D01*
X75821465Y-117805346D01*
X75862365Y-117851584D01*
X75930941Y-117894895D01*
X75998764Y-117897172D01*
X76068621Y-117847241D01*
X76080771Y-117834102D01*
X76104575Y-117794785D01*
X76118628Y-117737674D01*
X76125313Y-117649256D01*
X76127011Y-117516019D01*
X76124101Y-117391222D01*
X76109582Y-117272326D01*
X76079610Y-117197184D01*
X76030589Y-117157893D01*
X75958924Y-117146552D01*
X75931632Y-117148807D01*
X75855176Y-117190160D01*
X75804650Y-117282900D01*
X75780384Y-117426147D01*
X75485739Y-117426147D01*
X75485871Y-117411227D01*
X75500161Y-117269992D01*
X75528075Y-117158213D01*
X75563949Y-117083766D01*
X75664939Y-116967968D01*
X75801779Y-116896015D01*
X75969283Y-116871281D01*
X76014019Y-116872619D01*
X76145758Y-116900008D01*
X76253968Y-116969007D01*
X76353276Y-117087864D01*
X76359184Y-117096681D01*
X76385921Y-117144108D01*
X76403312Y-117197714D01*
X76413312Y-117270549D01*
X76417878Y-117375659D01*
X76418893Y-117516019D01*
X76418965Y-117526092D01*
X76418938Y-117557744D01*
G36*
X74190168Y-117664639D02*
G01*
X74184926Y-117711526D01*
X74145868Y-117878409D01*
X74075290Y-118005326D01*
X73967955Y-118102602D01*
X73961888Y-118106616D01*
X73825440Y-118163706D01*
X73682973Y-118168786D01*
X73545696Y-118125311D01*
X73424819Y-118036734D01*
X73331552Y-117906509D01*
X73329986Y-117903369D01*
X73298993Y-117822501D01*
X73276292Y-117730593D01*
X73264250Y-117644311D01*
X73265237Y-117580321D01*
X73281623Y-117555287D01*
X73296179Y-117556809D01*
X73365792Y-117584496D01*
X73444697Y-117635409D01*
X73511820Y-117694343D01*
X73546087Y-117746094D01*
X73581707Y-117816291D01*
X73654711Y-117880138D01*
X73739485Y-117905632D01*
X73770558Y-117898261D01*
X73831891Y-117861154D01*
X73885315Y-117809644D01*
X73908161Y-117762913D01*
X73908154Y-117762740D01*
X73882233Y-117741280D01*
X73813127Y-117702565D01*
X73711249Y-117652037D01*
X73587011Y-117595134D01*
X73586328Y-117594833D01*
X73451355Y-117534738D01*
X73360884Y-117491440D01*
X73306039Y-117458179D01*
X73277944Y-117428194D01*
X73267724Y-117394726D01*
X73266503Y-117351015D01*
X73274995Y-117268244D01*
X73563219Y-117268244D01*
X73592970Y-117294265D01*
X73667101Y-117333256D01*
X73669274Y-117334359D01*
X73756733Y-117376009D01*
X73834974Y-117409235D01*
X73884611Y-117423291D01*
X73904521Y-117404503D01*
X73908161Y-117340124D01*
X73893035Y-117260001D01*
X73840597Y-117187189D01*
X73764677Y-117149439D01*
X73680040Y-117153251D01*
X73601447Y-117205121D01*
X73570555Y-117240965D01*
X73563219Y-117268244D01*
X73274995Y-117268244D01*
X73277251Y-117246265D01*
X73330389Y-117103949D01*
X73419342Y-116992111D01*
X73534448Y-116914676D01*
X73666045Y-116875568D01*
X73804472Y-116878711D01*
X73940065Y-116928030D01*
X74063164Y-117027447D01*
X74131366Y-117125829D01*
X74180356Y-117266261D01*
X74188322Y-117340124D01*
X74199452Y-117443329D01*
X74190168Y-117664639D01*
G37*
X74190168Y-117664639D02*
X74184926Y-117711526D01*
X74145868Y-117878409D01*
X74075290Y-118005326D01*
X73967955Y-118102602D01*
X73961888Y-118106616D01*
X73825440Y-118163706D01*
X73682973Y-118168786D01*
X73545696Y-118125311D01*
X73424819Y-118036734D01*
X73331552Y-117906509D01*
X73329986Y-117903369D01*
X73298993Y-117822501D01*
X73276292Y-117730593D01*
X73264250Y-117644311D01*
X73265237Y-117580321D01*
X73281623Y-117555287D01*
X73296179Y-117556809D01*
X73365792Y-117584496D01*
X73444697Y-117635409D01*
X73511820Y-117694343D01*
X73546087Y-117746094D01*
X73581707Y-117816291D01*
X73654711Y-117880138D01*
X73739485Y-117905632D01*
X73770558Y-117898261D01*
X73831891Y-117861154D01*
X73885315Y-117809644D01*
X73908161Y-117762913D01*
X73908154Y-117762740D01*
X73882233Y-117741280D01*
X73813127Y-117702565D01*
X73711249Y-117652037D01*
X73587011Y-117595134D01*
X73586328Y-117594833D01*
X73451355Y-117534738D01*
X73360884Y-117491440D01*
X73306039Y-117458179D01*
X73277944Y-117428194D01*
X73267724Y-117394726D01*
X73266503Y-117351015D01*
X73274995Y-117268244D01*
X73563219Y-117268244D01*
X73592970Y-117294265D01*
X73667101Y-117333256D01*
X73669274Y-117334359D01*
X73756733Y-117376009D01*
X73834974Y-117409235D01*
X73884611Y-117423291D01*
X73904521Y-117404503D01*
X73908161Y-117340124D01*
X73893035Y-117260001D01*
X73840597Y-117187189D01*
X73764677Y-117149439D01*
X73680040Y-117153251D01*
X73601447Y-117205121D01*
X73570555Y-117240965D01*
X73563219Y-117268244D01*
X73274995Y-117268244D01*
X73277251Y-117246265D01*
X73330389Y-117103949D01*
X73419342Y-116992111D01*
X73534448Y-116914676D01*
X73666045Y-116875568D01*
X73804472Y-116878711D01*
X73940065Y-116928030D01*
X74063164Y-117027447D01*
X74131366Y-117125829D01*
X74180356Y-117266261D01*
X74188322Y-117340124D01*
X74199452Y-117443329D01*
X74190168Y-117664639D01*
G36*
X71214885Y-116548997D02*
G01*
X71309770Y-116589020D01*
X71309770Y-117378706D01*
X71309769Y-117387920D01*
X71309377Y-117595083D01*
X71308329Y-117781432D01*
X71306722Y-117939453D01*
X71304655Y-118061630D01*
X71302225Y-118140448D01*
X71299529Y-118168391D01*
X71298475Y-118168297D01*
X71262647Y-118158144D01*
X71197345Y-118136339D01*
X71105402Y-118104288D01*
X71105402Y-117692991D01*
X71104818Y-117531385D01*
X71102104Y-117414177D01*
X71095858Y-117334415D01*
X71084680Y-117281531D01*
X71067168Y-117244957D01*
X71041922Y-117214123D01*
X71024710Y-117197725D01*
X70931636Y-117152307D01*
X70829051Y-117156328D01*
X70735043Y-117210032D01*
X70721358Y-117223359D01*
X70699439Y-117251032D01*
X70684440Y-117287614D01*
X70675053Y-117343000D01*
X70669968Y-117427088D01*
X70667877Y-117549773D01*
X70667471Y-117720951D01*
X70667276Y-117807769D01*
X70666010Y-117950565D01*
X70663761Y-118064923D01*
X70660758Y-118140860D01*
X70657230Y-118168391D01*
X70656176Y-118168297D01*
X70620348Y-118158144D01*
X70555046Y-118136339D01*
X70463103Y-118104288D01*
X70463149Y-117691109D01*
X70463218Y-117654326D01*
X70467081Y-117462580D01*
X70478950Y-117317586D01*
X70501725Y-117209510D01*
X70538307Y-117128519D01*
X70591595Y-117064778D01*
X70664490Y-117008455D01*
X70735586Y-116973199D01*
X70849255Y-116945946D01*
X70961060Y-116944398D01*
X71047011Y-116970910D01*
X71053473Y-116974571D01*
X71073401Y-116974179D01*
X71087019Y-116943506D01*
X71096846Y-116873188D01*
X71105402Y-116753857D01*
X71120000Y-116508973D01*
X71214885Y-116548997D01*
G37*
X71214885Y-116548997D02*
X71309770Y-116589020D01*
X71309770Y-117378706D01*
X71309769Y-117387920D01*
X71309377Y-117595083D01*
X71308329Y-117781432D01*
X71306722Y-117939453D01*
X71304655Y-118061630D01*
X71302225Y-118140448D01*
X71299529Y-118168391D01*
X71298475Y-118168297D01*
X71262647Y-118158144D01*
X71197345Y-118136339D01*
X71105402Y-118104288D01*
X71105402Y-117692991D01*
X71104818Y-117531385D01*
X71102104Y-117414177D01*
X71095858Y-117334415D01*
X71084680Y-117281531D01*
X71067168Y-117244957D01*
X71041922Y-117214123D01*
X71024710Y-117197725D01*
X70931636Y-117152307D01*
X70829051Y-117156328D01*
X70735043Y-117210032D01*
X70721358Y-117223359D01*
X70699439Y-117251032D01*
X70684440Y-117287614D01*
X70675053Y-117343000D01*
X70669968Y-117427088D01*
X70667877Y-117549773D01*
X70667471Y-117720951D01*
X70667276Y-117807769D01*
X70666010Y-117950565D01*
X70663761Y-118064923D01*
X70660758Y-118140860D01*
X70657230Y-118168391D01*
X70656176Y-118168297D01*
X70620348Y-118158144D01*
X70555046Y-118136339D01*
X70463103Y-118104288D01*
X70463149Y-117691109D01*
X70463218Y-117654326D01*
X70467081Y-117462580D01*
X70478950Y-117317586D01*
X70501725Y-117209510D01*
X70538307Y-117128519D01*
X70591595Y-117064778D01*
X70664490Y-117008455D01*
X70735586Y-116973199D01*
X70849255Y-116945946D01*
X70961060Y-116944398D01*
X71047011Y-116970910D01*
X71053473Y-116974571D01*
X71073401Y-116974179D01*
X71087019Y-116943506D01*
X71096846Y-116873188D01*
X71105402Y-116753857D01*
X71120000Y-116508973D01*
X71214885Y-116548997D01*
G36*
X70029995Y-116973674D02*
G01*
X70130355Y-117032191D01*
X70174505Y-117077784D01*
X70259347Y-117214072D01*
X70287931Y-117362658D01*
X70287931Y-117464882D01*
X70193963Y-117425372D01*
X70128977Y-117385504D01*
X70077763Y-117302734D01*
X70072504Y-117285669D01*
X70015903Y-117198724D01*
X69930594Y-117151758D01*
X69832641Y-117149741D01*
X69738106Y-117197644D01*
X69723993Y-117209998D01*
X69676797Y-117263683D01*
X69669003Y-117310488D01*
X69704706Y-117356446D01*
X69788003Y-117407588D01*
X69922988Y-117469948D01*
X69932118Y-117473897D01*
X70081969Y-117543772D01*
X70184316Y-117605672D01*
X70247320Y-117667476D01*
X70279138Y-117737062D01*
X70287931Y-117822308D01*
X70276409Y-117916816D01*
X70218228Y-118037785D01*
X70115875Y-118124688D01*
X70041843Y-118150778D01*
X69937367Y-118165055D01*
X69835917Y-118162006D01*
X69763472Y-118140467D01*
X69755777Y-118135104D01*
X69735341Y-118097632D01*
X69749522Y-118031591D01*
X69774161Y-117979753D01*
X69813670Y-117958172D01*
X69888602Y-117959246D01*
X69992630Y-117953055D01*
X70060605Y-117910311D01*
X70083563Y-117831189D01*
X70083542Y-117828916D01*
X70069629Y-117782986D01*
X70022303Y-117740845D01*
X69930287Y-117692272D01*
X69805151Y-117633790D01*
X69722268Y-117601975D01*
X69674420Y-117604025D01*
X69652063Y-117646051D01*
X69645649Y-117734162D01*
X69645632Y-117874469D01*
X69644917Y-117961081D01*
X69641635Y-118068041D01*
X69636300Y-118141250D01*
X69629585Y-118168391D01*
X69627790Y-118168206D01*
X69588982Y-118153498D01*
X69524709Y-118122456D01*
X69435880Y-118076521D01*
X69446436Y-117662628D01*
X69447171Y-117635179D01*
X69455555Y-117442517D01*
X69470366Y-117297309D01*
X69494629Y-117189887D01*
X69531364Y-117110584D01*
X69583597Y-117049730D01*
X69654348Y-116997658D01*
X69655657Y-116996842D01*
X69770056Y-116954360D01*
X69902365Y-116947184D01*
X70029995Y-116973674D01*
G37*
X70029995Y-116973674D02*
X70130355Y-117032191D01*
X70174505Y-117077784D01*
X70259347Y-117214072D01*
X70287931Y-117362658D01*
X70287931Y-117464882D01*
X70193963Y-117425372D01*
X70128977Y-117385504D01*
X70077763Y-117302734D01*
X70072504Y-117285669D01*
X70015903Y-117198724D01*
X69930594Y-117151758D01*
X69832641Y-117149741D01*
X69738106Y-117197644D01*
X69723993Y-117209998D01*
X69676797Y-117263683D01*
X69669003Y-117310488D01*
X69704706Y-117356446D01*
X69788003Y-117407588D01*
X69922988Y-117469948D01*
X69932118Y-117473897D01*
X70081969Y-117543772D01*
X70184316Y-117605672D01*
X70247320Y-117667476D01*
X70279138Y-117737062D01*
X70287931Y-117822308D01*
X70276409Y-117916816D01*
X70218228Y-118037785D01*
X70115875Y-118124688D01*
X70041843Y-118150778D01*
X69937367Y-118165055D01*
X69835917Y-118162006D01*
X69763472Y-118140467D01*
X69755777Y-118135104D01*
X69735341Y-118097632D01*
X69749522Y-118031591D01*
X69774161Y-117979753D01*
X69813670Y-117958172D01*
X69888602Y-117959246D01*
X69992630Y-117953055D01*
X70060605Y-117910311D01*
X70083563Y-117831189D01*
X70083542Y-117828916D01*
X70069629Y-117782986D01*
X70022303Y-117740845D01*
X69930287Y-117692272D01*
X69805151Y-117633790D01*
X69722268Y-117601975D01*
X69674420Y-117604025D01*
X69652063Y-117646051D01*
X69645649Y-117734162D01*
X69645632Y-117874469D01*
X69644917Y-117961081D01*
X69641635Y-118068041D01*
X69636300Y-118141250D01*
X69629585Y-118168391D01*
X69627790Y-118168206D01*
X69588982Y-118153498D01*
X69524709Y-118122456D01*
X69435880Y-118076521D01*
X69446436Y-117662628D01*
X69447171Y-117635179D01*
X69455555Y-117442517D01*
X69470366Y-117297309D01*
X69494629Y-117189887D01*
X69531364Y-117110584D01*
X69583597Y-117049730D01*
X69654348Y-116997658D01*
X69655657Y-116996842D01*
X69770056Y-116954360D01*
X69902365Y-116947184D01*
X70029995Y-116973674D01*
G36*
X69060872Y-116985536D02*
G01*
X69070090Y-116990638D01*
X69145381Y-117049080D01*
X69212698Y-117124215D01*
X69224439Y-117141196D01*
X69246883Y-117180825D01*
X69262918Y-117227858D01*
X69273945Y-117292492D01*
X69281365Y-117384923D01*
X69286579Y-117515349D01*
X69290989Y-117693965D01*
X69291614Y-117724162D01*
X69293620Y-117919941D01*
X69290792Y-118058603D01*
X69283088Y-118141103D01*
X69270466Y-118168391D01*
X69232267Y-118160220D01*
X69167374Y-118135463D01*
X69152094Y-118128223D01*
X69128227Y-118111835D01*
X69111769Y-118084893D01*
X69101005Y-118037833D01*
X69094219Y-117961088D01*
X69089693Y-117845095D01*
X69085713Y-117680287D01*
X69084622Y-117632112D01*
X69080407Y-117479960D01*
X69074936Y-117373476D01*
X69066554Y-117302565D01*
X69053606Y-117257129D01*
X69034439Y-117227072D01*
X69007398Y-117202296D01*
X68927337Y-117158861D01*
X68828846Y-117150498D01*
X68740719Y-117183734D01*
X68677314Y-117252548D01*
X68652988Y-117350920D01*
X68652311Y-117377658D01*
X68639024Y-117426065D01*
X68599796Y-117433450D01*
X68522983Y-117404624D01*
X68505192Y-117395378D01*
X68457109Y-117341006D01*
X68456157Y-117260161D01*
X68501968Y-117148352D01*
X68543990Y-117087419D01*
X68651435Y-117000859D01*
X68784057Y-116951920D01*
X68925867Y-116945260D01*
X69060872Y-116985536D01*
G37*
X69060872Y-116985536D02*
X69070090Y-116990638D01*
X69145381Y-117049080D01*
X69212698Y-117124215D01*
X69224439Y-117141196D01*
X69246883Y-117180825D01*
X69262918Y-117227858D01*
X69273945Y-117292492D01*
X69281365Y-117384923D01*
X69286579Y-117515349D01*
X69290989Y-117693965D01*
X69291614Y-117724162D01*
X69293620Y-117919941D01*
X69290792Y-118058603D01*
X69283088Y-118141103D01*
X69270466Y-118168391D01*
X69232267Y-118160220D01*
X69167374Y-118135463D01*
X69152094Y-118128223D01*
X69128227Y-118111835D01*
X69111769Y-118084893D01*
X69101005Y-118037833D01*
X69094219Y-117961088D01*
X69089693Y-117845095D01*
X69085713Y-117680287D01*
X69084622Y-117632112D01*
X69080407Y-117479960D01*
X69074936Y-117373476D01*
X69066554Y-117302565D01*
X69053606Y-117257129D01*
X69034439Y-117227072D01*
X69007398Y-117202296D01*
X68927337Y-117158861D01*
X68828846Y-117150498D01*
X68740719Y-117183734D01*
X68677314Y-117252548D01*
X68652988Y-117350920D01*
X68652311Y-117377658D01*
X68639024Y-117426065D01*
X68599796Y-117433450D01*
X68522983Y-117404624D01*
X68505192Y-117395378D01*
X68457109Y-117341006D01*
X68456157Y-117260161D01*
X68501968Y-117148352D01*
X68543990Y-117087419D01*
X68651435Y-117000859D01*
X68784057Y-116951920D01*
X68925867Y-116945260D01*
X69060872Y-116985536D01*
G36*
X68300219Y-117669135D02*
G01*
X68283739Y-117824320D01*
X68247883Y-117940612D01*
X68188455Y-118029411D01*
X68101257Y-118102119D01*
X68018195Y-118144150D01*
X67878709Y-118167538D01*
X67739412Y-118141965D01*
X67613510Y-118070694D01*
X67514210Y-117956991D01*
X67502219Y-117936024D01*
X67486384Y-117899291D01*
X67474638Y-117852415D01*
X67466378Y-117787355D01*
X67460998Y-117696070D01*
X67457892Y-117570519D01*
X67457797Y-117559379D01*
X67660345Y-117559379D01*
X67661035Y-117665644D01*
X67665400Y-117761762D01*
X67676192Y-117823811D01*
X67696126Y-117865502D01*
X67727916Y-117900543D01*
X67735364Y-117907279D01*
X67831060Y-117956992D01*
X67932312Y-117951905D01*
X68026614Y-117892362D01*
X68054694Y-117861514D01*
X68078196Y-117820618D01*
X68091322Y-117764080D01*
X68097030Y-117677657D01*
X68098276Y-117547106D01*
X68097661Y-117447487D01*
X68093407Y-117350251D01*
X68082682Y-117287502D01*
X68062707Y-117245382D01*
X68030704Y-117210032D01*
X68011905Y-117194114D01*
X67914492Y-117151235D01*
X67812437Y-117157985D01*
X67723825Y-117214123D01*
X67704749Y-117236382D01*
X67681486Y-117278293D01*
X67668036Y-117336822D01*
X67661841Y-117425880D01*
X67660345Y-117559379D01*
X67457797Y-117559379D01*
X67456457Y-117402661D01*
X67456086Y-117184455D01*
X67455977Y-116507072D01*
X67550862Y-116546819D01*
X67575949Y-116557699D01*
X67615881Y-116582268D01*
X67638739Y-116619475D01*
X67651301Y-116684541D01*
X67660345Y-116792687D01*
X67668605Y-116889788D01*
X67679523Y-116953535D01*
X67695165Y-116977323D01*
X67718736Y-116970943D01*
X67778801Y-116948525D01*
X67886145Y-116942967D01*
X68001624Y-116963728D01*
X68101257Y-117008455D01*
X68156072Y-117049856D01*
X68226452Y-117130632D01*
X68271528Y-117234195D01*
X68295496Y-117371947D01*
X68302239Y-117547106D01*
X68302553Y-117555287D01*
X68300219Y-117669135D01*
G37*
X68300219Y-117669135D02*
X68283739Y-117824320D01*
X68247883Y-117940612D01*
X68188455Y-118029411D01*
X68101257Y-118102119D01*
X68018195Y-118144150D01*
X67878709Y-118167538D01*
X67739412Y-118141965D01*
X67613510Y-118070694D01*
X67514210Y-117956991D01*
X67502219Y-117936024D01*
X67486384Y-117899291D01*
X67474638Y-117852415D01*
X67466378Y-117787355D01*
X67460998Y-117696070D01*
X67457892Y-117570519D01*
X67457797Y-117559379D01*
X67660345Y-117559379D01*
X67661035Y-117665644D01*
X67665400Y-117761762D01*
X67676192Y-117823811D01*
X67696126Y-117865502D01*
X67727916Y-117900543D01*
X67735364Y-117907279D01*
X67831060Y-117956992D01*
X67932312Y-117951905D01*
X68026614Y-117892362D01*
X68054694Y-117861514D01*
X68078196Y-117820618D01*
X68091322Y-117764080D01*
X68097030Y-117677657D01*
X68098276Y-117547106D01*
X68097661Y-117447487D01*
X68093407Y-117350251D01*
X68082682Y-117287502D01*
X68062707Y-117245382D01*
X68030704Y-117210032D01*
X68011905Y-117194114D01*
X67914492Y-117151235D01*
X67812437Y-117157985D01*
X67723825Y-117214123D01*
X67704749Y-117236382D01*
X67681486Y-117278293D01*
X67668036Y-117336822D01*
X67661841Y-117425880D01*
X67660345Y-117559379D01*
X67457797Y-117559379D01*
X67456457Y-117402661D01*
X67456086Y-117184455D01*
X67455977Y-116507072D01*
X67550862Y-116546819D01*
X67575949Y-116557699D01*
X67615881Y-116582268D01*
X67638739Y-116619475D01*
X67651301Y-116684541D01*
X67660345Y-116792687D01*
X67668605Y-116889788D01*
X67679523Y-116953535D01*
X67695165Y-116977323D01*
X67718736Y-116970943D01*
X67778801Y-116948525D01*
X67886145Y-116942967D01*
X68001624Y-116963728D01*
X68101257Y-117008455D01*
X68156072Y-117049856D01*
X68226452Y-117130632D01*
X68271528Y-117234195D01*
X68295496Y-117371947D01*
X68302239Y-117547106D01*
X68302553Y-117555287D01*
X68300219Y-117669135D01*
G36*
X67142410Y-116950970D02*
G01*
X67206442Y-116976066D01*
X67280805Y-117009947D01*
X67280805Y-117988727D01*
X67188415Y-118081117D01*
X67167310Y-118101835D01*
X67108847Y-118147885D01*
X67049886Y-118162801D01*
X66962150Y-118155934D01*
X66926429Y-118151494D01*
X66834301Y-118142102D01*
X66769885Y-118138361D01*
X66750778Y-118138933D01*
X66672390Y-118145126D01*
X66577620Y-118155934D01*
X66547298Y-118159647D01*
X66470911Y-118161107D01*
X66415022Y-118138047D01*
X66351355Y-118081117D01*
X66258965Y-117988727D01*
X66258965Y-117465455D01*
X66259685Y-117310821D01*
X66261929Y-117163391D01*
X66265421Y-117046653D01*
X66269876Y-116969840D01*
X66275013Y-116942184D01*
X66276090Y-116942258D01*
X66313407Y-116956019D01*
X66376457Y-116986344D01*
X66461854Y-117030505D01*
X66469893Y-117489965D01*
X66477931Y-117949425D01*
X66653103Y-117949425D01*
X66661092Y-117445805D01*
X66663624Y-117308904D01*
X66667249Y-117162579D01*
X66671177Y-117046411D01*
X66675080Y-116969809D01*
X66678632Y-116942184D01*
X66679653Y-116942281D01*
X66715051Y-116952443D01*
X66780126Y-116974235D01*
X66872069Y-117006287D01*
X66872516Y-117448661D01*
X66872964Y-117525507D01*
X66876069Y-117674834D01*
X66881622Y-117799544D01*
X66889033Y-117888379D01*
X66897714Y-117930083D01*
X66928771Y-117952389D01*
X66992152Y-117959278D01*
X67061839Y-117949425D01*
X67069827Y-117445805D01*
X67072686Y-117317828D01*
X67078614Y-117166348D01*
X67086365Y-117047530D01*
X67095343Y-116969950D01*
X67104948Y-116942184D01*
X67142410Y-116950970D01*
G37*
X67142410Y-116950970D02*
X67206442Y-116976066D01*
X67280805Y-117009947D01*
X67280805Y-117988727D01*
X67188415Y-118081117D01*
X67167310Y-118101835D01*
X67108847Y-118147885D01*
X67049886Y-118162801D01*
X66962150Y-118155934D01*
X66926429Y-118151494D01*
X66834301Y-118142102D01*
X66769885Y-118138361D01*
X66750778Y-118138933D01*
X66672390Y-118145126D01*
X66577620Y-118155934D01*
X66547298Y-118159647D01*
X66470911Y-118161107D01*
X66415022Y-118138047D01*
X66351355Y-118081117D01*
X66258965Y-117988727D01*
X66258965Y-117465455D01*
X66259685Y-117310821D01*
X66261929Y-117163391D01*
X66265421Y-117046653D01*
X66269876Y-116969840D01*
X66275013Y-116942184D01*
X66276090Y-116942258D01*
X66313407Y-116956019D01*
X66376457Y-116986344D01*
X66461854Y-117030505D01*
X66469893Y-117489965D01*
X66477931Y-117949425D01*
X66653103Y-117949425D01*
X66661092Y-117445805D01*
X66663624Y-117308904D01*
X66667249Y-117162579D01*
X66671177Y-117046411D01*
X66675080Y-116969809D01*
X66678632Y-116942184D01*
X66679653Y-116942281D01*
X66715051Y-116952443D01*
X66780126Y-116974235D01*
X66872069Y-117006287D01*
X66872516Y-117448661D01*
X66872964Y-117525507D01*
X66876069Y-117674834D01*
X66881622Y-117799544D01*
X66889033Y-117888379D01*
X66897714Y-117930083D01*
X66928771Y-117952389D01*
X66992152Y-117959278D01*
X67061839Y-117949425D01*
X67069827Y-117445805D01*
X67072686Y-117317828D01*
X67078614Y-117166348D01*
X67086365Y-117047530D01*
X67095343Y-116969950D01*
X67104948Y-116942184D01*
X67142410Y-116950970D01*
G36*
X65761628Y-116944810D02*
G01*
X65824194Y-116960702D01*
X65882446Y-117000322D01*
X65957418Y-117074076D01*
X66005633Y-117126163D01*
X66055858Y-117193786D01*
X66078510Y-117257168D01*
X66083793Y-117337584D01*
X66083793Y-117469201D01*
X65994035Y-117422785D01*
X65922904Y-117366225D01*
X65874183Y-117290040D01*
X65865814Y-117269326D01*
X65802056Y-117189041D01*
X65713470Y-117148784D01*
X65616873Y-117152702D01*
X65529080Y-117204943D01*
X65491936Y-117247370D01*
X65470300Y-117301647D01*
X65493461Y-117349954D01*
X65565479Y-117398545D01*
X65690410Y-117453677D01*
X65709368Y-117461292D01*
X65823105Y-117511125D01*
X65920706Y-117560265D01*
X65982803Y-117599080D01*
X66044999Y-117668411D01*
X66086346Y-117779051D01*
X66081957Y-117897782D01*
X66033037Y-118010148D01*
X65940797Y-118101690D01*
X65866110Y-118140658D01*
X65721832Y-118167944D01*
X65641656Y-118164263D01*
X65567435Y-118144360D01*
X65538960Y-118102598D01*
X65549608Y-118033820D01*
X65552705Y-118024726D01*
X65577268Y-117976498D01*
X65618165Y-117958245D01*
X65696079Y-117959466D01*
X65751091Y-117961126D01*
X65815459Y-117946881D01*
X65859561Y-117904292D01*
X65884680Y-117851857D01*
X65887481Y-117796929D01*
X65887352Y-117796608D01*
X65854785Y-117766928D01*
X65785083Y-117723735D01*
X65694898Y-117675461D01*
X65600883Y-117630539D01*
X65519689Y-117597402D01*
X65467968Y-117584483D01*
X65460274Y-117597134D01*
X65450588Y-117656668D01*
X65443954Y-117753887D01*
X65441494Y-117876437D01*
X65440922Y-117961263D01*
X65438225Y-118068094D01*
X65433821Y-118141257D01*
X65428270Y-118168391D01*
X65399254Y-118159272D01*
X65340684Y-118134509D01*
X65266322Y-118100627D01*
X65266322Y-117665933D01*
X65266797Y-117554508D01*
X65271293Y-117385301D01*
X65282747Y-117259769D01*
X65303828Y-117168363D01*
X65337206Y-117101532D01*
X65385550Y-117049726D01*
X65451531Y-117003393D01*
X65535594Y-116965156D01*
X65690807Y-116942184D01*
X65761628Y-116944810D01*
G37*
X65761628Y-116944810D02*
X65824194Y-116960702D01*
X65882446Y-117000322D01*
X65957418Y-117074076D01*
X66005633Y-117126163D01*
X66055858Y-117193786D01*
X66078510Y-117257168D01*
X66083793Y-117337584D01*
X66083793Y-117469201D01*
X65994035Y-117422785D01*
X65922904Y-117366225D01*
X65874183Y-117290040D01*
X65865814Y-117269326D01*
X65802056Y-117189041D01*
X65713470Y-117148784D01*
X65616873Y-117152702D01*
X65529080Y-117204943D01*
X65491936Y-117247370D01*
X65470300Y-117301647D01*
X65493461Y-117349954D01*
X65565479Y-117398545D01*
X65690410Y-117453677D01*
X65709368Y-117461292D01*
X65823105Y-117511125D01*
X65920706Y-117560265D01*
X65982803Y-117599080D01*
X66044999Y-117668411D01*
X66086346Y-117779051D01*
X66081957Y-117897782D01*
X66033037Y-118010148D01*
X65940797Y-118101690D01*
X65866110Y-118140658D01*
X65721832Y-118167944D01*
X65641656Y-118164263D01*
X65567435Y-118144360D01*
X65538960Y-118102598D01*
X65549608Y-118033820D01*
X65552705Y-118024726D01*
X65577268Y-117976498D01*
X65618165Y-117958245D01*
X65696079Y-117959466D01*
X65751091Y-117961126D01*
X65815459Y-117946881D01*
X65859561Y-117904292D01*
X65884680Y-117851857D01*
X65887481Y-117796929D01*
X65887352Y-117796608D01*
X65854785Y-117766928D01*
X65785083Y-117723735D01*
X65694898Y-117675461D01*
X65600883Y-117630539D01*
X65519689Y-117597402D01*
X65467968Y-117584483D01*
X65460274Y-117597134D01*
X65450588Y-117656668D01*
X65443954Y-117753887D01*
X65441494Y-117876437D01*
X65440922Y-117961263D01*
X65438225Y-118068094D01*
X65433821Y-118141257D01*
X65428270Y-118168391D01*
X65399254Y-118159272D01*
X65340684Y-118134509D01*
X65266322Y-118100627D01*
X65266322Y-117665933D01*
X65266797Y-117554508D01*
X65271293Y-117385301D01*
X65282747Y-117259769D01*
X65303828Y-117168363D01*
X65337206Y-117101532D01*
X65385550Y-117049726D01*
X65451531Y-117003393D01*
X65535594Y-116965156D01*
X65690807Y-116942184D01*
X65761628Y-116944810D01*
G36*
X64786725Y-116954619D02*
G01*
X64907261Y-116999393D01*
X64957388Y-117033034D01*
X65008152Y-117081236D01*
X65044362Y-117142551D01*
X65068393Y-117226024D01*
X65082618Y-117340697D01*
X65089412Y-117495613D01*
X65091149Y-117699814D01*
X65090809Y-117805341D01*
X65089101Y-117949541D01*
X65086201Y-118064620D01*
X65082384Y-118140822D01*
X65077925Y-118168391D01*
X65048909Y-118159272D01*
X64990339Y-118134509D01*
X64988581Y-118133707D01*
X64958167Y-118117785D01*
X64937712Y-118095938D01*
X64925240Y-118057672D01*
X64918777Y-117992495D01*
X64916348Y-117889913D01*
X64915977Y-117739433D01*
X64915229Y-117643974D01*
X64907256Y-117464571D01*
X64888998Y-117333163D01*
X64858526Y-117242859D01*
X64813912Y-117186767D01*
X64753226Y-117157994D01*
X64744807Y-117155989D01*
X64631139Y-117154423D01*
X64542492Y-117205348D01*
X64481265Y-117307445D01*
X64470346Y-117336961D01*
X64445458Y-117402283D01*
X64432854Y-117432300D01*
X64406969Y-117428164D01*
X64350439Y-117405717D01*
X64297715Y-117368647D01*
X64273678Y-117298587D01*
X64280847Y-117248406D01*
X64324897Y-117146618D01*
X64396123Y-117051235D01*
X64479415Y-116985269D01*
X64514310Y-116970018D01*
X64646443Y-116944521D01*
X64786725Y-116954619D01*
G37*
X64786725Y-116954619D02*
X64907261Y-116999393D01*
X64957388Y-117033034D01*
X65008152Y-117081236D01*
X65044362Y-117142551D01*
X65068393Y-117226024D01*
X65082618Y-117340697D01*
X65089412Y-117495613D01*
X65091149Y-117699814D01*
X65090809Y-117805341D01*
X65089101Y-117949541D01*
X65086201Y-118064620D01*
X65082384Y-118140822D01*
X65077925Y-118168391D01*
X65048909Y-118159272D01*
X64990339Y-118134509D01*
X64988581Y-118133707D01*
X64958167Y-118117785D01*
X64937712Y-118095938D01*
X64925240Y-118057672D01*
X64918777Y-117992495D01*
X64916348Y-117889913D01*
X64915977Y-117739433D01*
X64915229Y-117643974D01*
X64907256Y-117464571D01*
X64888998Y-117333163D01*
X64858526Y-117242859D01*
X64813912Y-117186767D01*
X64753226Y-117157994D01*
X64744807Y-117155989D01*
X64631139Y-117154423D01*
X64542492Y-117205348D01*
X64481265Y-117307445D01*
X64470346Y-117336961D01*
X64445458Y-117402283D01*
X64432854Y-117432300D01*
X64406969Y-117428164D01*
X64350439Y-117405717D01*
X64297715Y-117368647D01*
X64273678Y-117298587D01*
X64280847Y-117248406D01*
X64324897Y-117146618D01*
X64396123Y-117051235D01*
X64479415Y-116985269D01*
X64514310Y-116970018D01*
X64646443Y-116944521D01*
X64786725Y-116954619D01*
G36*
X64097744Y-117638946D02*
G01*
X64090612Y-117792254D01*
X64071948Y-117904441D01*
X64037537Y-117987554D01*
X63983162Y-118053641D01*
X63904610Y-118114747D01*
X63854630Y-118142535D01*
X63774513Y-118161251D01*
X63661970Y-118159774D01*
X63599050Y-118153845D01*
X63523153Y-118135742D01*
X63462487Y-118096391D01*
X63391912Y-118023066D01*
X63382482Y-118012356D01*
X63319034Y-117929938D01*
X63288762Y-117858156D01*
X63281034Y-117773034D01*
X63281034Y-117647946D01*
X63368447Y-117680940D01*
X63432175Y-117719509D01*
X63487567Y-117810008D01*
X63499131Y-117838983D01*
X63563788Y-117921041D01*
X63651804Y-117962347D01*
X63747637Y-117958633D01*
X63835747Y-117905632D01*
X63866028Y-117872582D01*
X63893489Y-117822720D01*
X63884899Y-117777416D01*
X63835463Y-117730790D01*
X63740389Y-117676958D01*
X63594885Y-117610039D01*
X63295632Y-117479056D01*
X63287691Y-117349298D01*
X63290676Y-117266649D01*
X63485652Y-117266649D01*
X63500453Y-117317815D01*
X63567797Y-117372442D01*
X63690027Y-117434597D01*
X63710253Y-117443601D01*
X63806970Y-117485493D01*
X63879334Y-117514958D01*
X63912961Y-117526092D01*
X63918056Y-117517896D01*
X63920101Y-117467853D01*
X63912812Y-117387414D01*
X63894452Y-117308753D01*
X63837188Y-117209651D01*
X63754524Y-117153808D01*
X63655784Y-117146250D01*
X63550289Y-117192000D01*
X63521053Y-117214876D01*
X63485652Y-117266649D01*
X63290676Y-117266649D01*
X63291196Y-117252255D01*
X63335336Y-117129617D01*
X63391050Y-117062034D01*
X63506561Y-116986540D01*
X63643588Y-116948403D01*
X63785237Y-116951422D01*
X63914617Y-116999393D01*
X63943099Y-117017813D01*
X64008428Y-117074811D01*
X64053106Y-117146916D01*
X64080641Y-117244853D01*
X64094541Y-117379351D01*
X64096378Y-117467853D01*
X64098313Y-117561136D01*
X64097744Y-117638946D01*
G37*
X64097744Y-117638946D02*
X64090612Y-117792254D01*
X64071948Y-117904441D01*
X64037537Y-117987554D01*
X63983162Y-118053641D01*
X63904610Y-118114747D01*
X63854630Y-118142535D01*
X63774513Y-118161251D01*
X63661970Y-118159774D01*
X63599050Y-118153845D01*
X63523153Y-118135742D01*
X63462487Y-118096391D01*
X63391912Y-118023066D01*
X63382482Y-118012356D01*
X63319034Y-117929938D01*
X63288762Y-117858156D01*
X63281034Y-117773034D01*
X63281034Y-117647946D01*
X63368447Y-117680940D01*
X63432175Y-117719509D01*
X63487567Y-117810008D01*
X63499131Y-117838983D01*
X63563788Y-117921041D01*
X63651804Y-117962347D01*
X63747637Y-117958633D01*
X63835747Y-117905632D01*
X63866028Y-117872582D01*
X63893489Y-117822720D01*
X63884899Y-117777416D01*
X63835463Y-117730790D01*
X63740389Y-117676958D01*
X63594885Y-117610039D01*
X63295632Y-117479056D01*
X63287691Y-117349298D01*
X63290676Y-117266649D01*
X63485652Y-117266649D01*
X63500453Y-117317815D01*
X63567797Y-117372442D01*
X63690027Y-117434597D01*
X63710253Y-117443601D01*
X63806970Y-117485493D01*
X63879334Y-117514958D01*
X63912961Y-117526092D01*
X63918056Y-117517896D01*
X63920101Y-117467853D01*
X63912812Y-117387414D01*
X63894452Y-117308753D01*
X63837188Y-117209651D01*
X63754524Y-117153808D01*
X63655784Y-117146250D01*
X63550289Y-117192000D01*
X63521053Y-117214876D01*
X63485652Y-117266649D01*
X63290676Y-117266649D01*
X63291196Y-117252255D01*
X63335336Y-117129617D01*
X63391050Y-117062034D01*
X63506561Y-116986540D01*
X63643588Y-116948403D01*
X63785237Y-116951422D01*
X63914617Y-116999393D01*
X63943099Y-117017813D01*
X64008428Y-117074811D01*
X64053106Y-117146916D01*
X64080641Y-117244853D01*
X64094541Y-117379351D01*
X64096378Y-117467853D01*
X64098313Y-117561136D01*
X64097744Y-117638946D01*
G36*
X70079175Y-107483045D02*
G01*
X70231895Y-107484039D01*
X70341792Y-107486593D01*
X70416235Y-107491445D01*
X70462594Y-107499331D01*
X70488239Y-107510988D01*
X70500539Y-107527153D01*
X70506865Y-107548563D01*
X70507047Y-107549332D01*
X70517441Y-107599663D01*
X70536339Y-107696888D01*
X70561802Y-107830810D01*
X70591890Y-107991235D01*
X70624664Y-108167967D01*
X70627337Y-108182428D01*
X70660010Y-108353959D01*
X70690413Y-108504625D01*
X70716568Y-108625267D01*
X70736496Y-108706729D01*
X70748220Y-108739852D01*
X70748282Y-108739905D01*
X70785229Y-108758229D01*
X70861057Y-108788677D01*
X70959425Y-108824685D01*
X70964965Y-108826640D01*
X71090724Y-108874170D01*
X71237011Y-108933783D01*
X71373293Y-108993056D01*
X71597390Y-109094765D01*
X72093618Y-108755897D01*
X72128570Y-108732063D01*
X72278280Y-108630755D01*
X72411867Y-108541575D01*
X72521343Y-108469773D01*
X72598718Y-108420603D01*
X72636004Y-108399317D01*
X72661552Y-108404196D01*
X72719555Y-108442002D01*
X72809195Y-108516870D01*
X72932957Y-108630903D01*
X73093328Y-108786205D01*
X73107679Y-108800341D01*
X73234933Y-108926999D01*
X73347969Y-109041745D01*
X73439867Y-109137391D01*
X73503707Y-109206746D01*
X73532570Y-109242620D01*
X73532664Y-109242794D01*
X73536331Y-109270106D01*
X73522808Y-109314408D01*
X73488684Y-109381761D01*
X73430548Y-109478226D01*
X73344988Y-109609863D01*
X73228594Y-109782734D01*
X73208759Y-109811912D01*
X73108445Y-109959726D01*
X73019923Y-110090577D01*
X72948465Y-110196643D01*
X72899343Y-110270102D01*
X72877831Y-110303130D01*
X72876208Y-110310126D01*
X72886387Y-110362326D01*
X72916879Y-110447561D01*
X72962712Y-110551291D01*
X73025000Y-110686951D01*
X73094548Y-110847921D01*
X73153609Y-110993621D01*
X73168252Y-111031333D01*
X73206600Y-111127622D01*
X73234770Y-111194704D01*
X73247497Y-111219885D01*
X73261545Y-111221767D01*
X73324681Y-111232651D01*
X73428019Y-111251449D01*
X73560809Y-111276115D01*
X73712297Y-111304604D01*
X73871732Y-111334873D01*
X74028361Y-111364875D01*
X74171433Y-111392566D01*
X74290195Y-111415900D01*
X74373896Y-111432833D01*
X74411782Y-111441320D01*
X74418063Y-111443713D01*
X74433373Y-111456619D01*
X74444763Y-111484096D01*
X74452803Y-111533446D01*
X74458064Y-111611973D01*
X74461116Y-111726980D01*
X74462529Y-111885770D01*
X74462873Y-112095645D01*
X74462873Y-112733906D01*
X74309598Y-112764160D01*
X74291057Y-112767785D01*
X74192596Y-112786569D01*
X74056448Y-112812093D01*
X73898087Y-112841468D01*
X73732988Y-112871806D01*
X73667973Y-112884009D01*
X73522697Y-112913697D01*
X73401626Y-112941770D01*
X73315886Y-112965536D01*
X73276601Y-112982301D01*
X73258799Y-113009694D01*
X73226389Y-113082174D01*
X73193234Y-113175977D01*
X73181564Y-113211103D01*
X73138604Y-113326409D01*
X73083192Y-113462876D01*
X73024353Y-113597954D01*
X72992884Y-113668509D01*
X72948051Y-113773895D01*
X72917240Y-113852818D01*
X72905785Y-113892053D01*
X72906422Y-113895014D01*
X72928150Y-113936639D01*
X72977146Y-114016969D01*
X73048438Y-114128220D01*
X73137054Y-114262605D01*
X73238023Y-114412340D01*
X73570261Y-114899931D01*
X73133771Y-115337149D01*
X73091555Y-115379221D01*
X72962470Y-115505153D01*
X72847107Y-115613754D01*
X72752224Y-115698903D01*
X72684582Y-115754482D01*
X72650938Y-115774368D01*
X72614402Y-115759238D01*
X72537890Y-115715801D01*
X72430196Y-115649270D01*
X72299767Y-115564867D01*
X72155052Y-115467816D01*
X72012910Y-115371964D01*
X71884678Y-115287557D01*
X71780054Y-115220850D01*
X71707171Y-115177024D01*
X71674158Y-115161264D01*
X71672223Y-115161408D01*
X71628369Y-115176945D01*
X71550598Y-115213121D01*
X71454392Y-115262785D01*
X71453381Y-115263329D01*
X71325605Y-115327326D01*
X71238051Y-115358591D01*
X71183726Y-115358677D01*
X71155641Y-115329138D01*
X71143752Y-115300061D01*
X71111668Y-115222188D01*
X71062247Y-115102475D01*
X70998118Y-114947286D01*
X70921911Y-114762984D01*
X70836255Y-114555933D01*
X70743781Y-114332496D01*
X70659962Y-114129226D01*
X70574678Y-113920649D01*
X70499222Y-113734263D01*
X70436126Y-113576407D01*
X70387923Y-113453419D01*
X70357144Y-113371639D01*
X70346322Y-113337406D01*
X70366991Y-113306015D01*
X70424409Y-113253602D01*
X70505688Y-113192704D01*
X70700820Y-113033387D01*
X70875445Y-112829807D01*
X71003235Y-112605808D01*
X71083402Y-112368003D01*
X71115160Y-112123007D01*
X71097722Y-111877433D01*
X71030301Y-111637895D01*
X70912111Y-111411007D01*
X70742364Y-111203383D01*
X70653856Y-111122527D01*
X70441804Y-110979559D01*
X70214905Y-110886352D01*
X69979791Y-110840687D01*
X69743094Y-110840344D01*
X69511446Y-110883105D01*
X69291478Y-110966750D01*
X69089822Y-111089061D01*
X68913111Y-111247817D01*
X68767977Y-111440801D01*
X68661050Y-111665793D01*
X68598964Y-111920575D01*
X68587569Y-112043377D01*
X68603246Y-112309434D01*
X68673846Y-112561856D01*
X68797282Y-112796182D01*
X68971466Y-113007952D01*
X69194311Y-113192704D01*
X69272561Y-113251123D01*
X69331244Y-113304110D01*
X69353678Y-113337356D01*
X69344732Y-113366339D01*
X69315703Y-113443996D01*
X69269026Y-113563451D01*
X69207231Y-113718362D01*
X69132850Y-113902392D01*
X69048412Y-114109200D01*
X68956449Y-114332446D01*
X68872771Y-114534742D01*
X68786366Y-114743686D01*
X68709138Y-114930498D01*
X68643716Y-115088814D01*
X68592731Y-115212269D01*
X68558812Y-115294498D01*
X68544590Y-115329138D01*
X68544425Y-115329548D01*
X68515972Y-115358798D01*
X68461382Y-115358463D01*
X68373609Y-115326980D01*
X68245608Y-115262785D01*
X68235532Y-115257380D01*
X68140481Y-115208750D01*
X68065424Y-115174328D01*
X68025842Y-115161264D01*
X67993400Y-115176702D01*
X67920895Y-115220258D01*
X67816565Y-115286751D01*
X67688539Y-115370998D01*
X67544948Y-115467816D01*
X67403468Y-115562734D01*
X67272611Y-115647490D01*
X67164292Y-115714496D01*
X67086960Y-115758529D01*
X67049062Y-115774368D01*
X67042607Y-115772357D01*
X66997609Y-115740658D01*
X66920727Y-115675181D01*
X66818721Y-115582048D01*
X66698351Y-115467381D01*
X66566379Y-115337300D01*
X66130039Y-114900232D01*
X66809733Y-113900440D01*
X66706402Y-113676886D01*
X66706096Y-113676225D01*
X66644046Y-113533714D01*
X66580640Y-113375018D01*
X66529558Y-113234368D01*
X66521827Y-113211683D01*
X66482852Y-113106370D01*
X66447707Y-113024534D01*
X66423195Y-112982301D01*
X66413212Y-112976337D01*
X66353286Y-112956329D01*
X66251532Y-112930442D01*
X66119068Y-112901370D01*
X65967011Y-112871806D01*
X65921466Y-112863467D01*
X65756685Y-112833107D01*
X65602930Y-112804509D01*
X65475678Y-112780564D01*
X65390402Y-112764160D01*
X65237126Y-112733906D01*
X65237126Y-112095645D01*
X65237160Y-112017165D01*
X65237808Y-111825703D01*
X65239720Y-111682812D01*
X65243469Y-111581189D01*
X65249622Y-111513531D01*
X65258751Y-111472536D01*
X65271427Y-111450900D01*
X65288218Y-111441320D01*
X65304474Y-111437439D01*
X65370748Y-111423710D01*
X65476479Y-111402745D01*
X65610915Y-111376588D01*
X65763302Y-111347283D01*
X65922890Y-111316877D01*
X66078925Y-111287413D01*
X66220657Y-111260937D01*
X66337331Y-111239494D01*
X66418197Y-111225128D01*
X66452503Y-111219885D01*
X66454822Y-111216720D01*
X66473474Y-111175642D01*
X66505753Y-111097044D01*
X66546391Y-110993621D01*
X66602788Y-110854273D01*
X66672214Y-110693226D01*
X66737288Y-110551291D01*
X66752202Y-110519432D01*
X66794047Y-110419669D01*
X66819118Y-110342721D01*
X66822426Y-110303130D01*
X66820720Y-110300325D01*
X66793631Y-110259005D01*
X66739927Y-110178740D01*
X66664877Y-110067350D01*
X66573746Y-109932655D01*
X66471800Y-109782476D01*
X66356930Y-109611851D01*
X66270761Y-109479311D01*
X66212131Y-109382112D01*
X66177650Y-109314234D01*
X66163926Y-109269656D01*
X66167568Y-109242361D01*
X66168794Y-109240313D01*
X66201747Y-109200536D01*
X66268927Y-109128052D01*
X66363419Y-109030046D01*
X66478306Y-108913702D01*
X66606672Y-108786205D01*
X66739831Y-108656821D01*
X66870269Y-108535209D01*
X66966119Y-108453156D01*
X67029866Y-108408560D01*
X67063996Y-108399317D01*
X67068456Y-108401393D01*
X67115421Y-108429385D01*
X67200685Y-108484084D01*
X67316259Y-108560237D01*
X67454154Y-108652592D01*
X67606381Y-108755897D01*
X68102610Y-109094765D01*
X68326707Y-108993056D01*
X68333219Y-108990109D01*
X68470804Y-108930504D01*
X68616767Y-108871222D01*
X68740575Y-108824685D01*
X68741122Y-108824493D01*
X68839414Y-108788497D01*
X68915081Y-108758095D01*
X68951780Y-108739852D01*
X68952374Y-108739190D01*
X68964833Y-108701831D01*
X68985336Y-108616871D01*
X69011907Y-108493469D01*
X69042567Y-108340782D01*
X69075336Y-108167967D01*
X69076478Y-108161774D01*
X69109193Y-107985431D01*
X69139155Y-107825743D01*
X69164425Y-107692905D01*
X69183065Y-107597113D01*
X69193135Y-107548563D01*
X69193779Y-107545873D01*
X69200408Y-107525088D01*
X69213841Y-107509466D01*
X69241446Y-107498270D01*
X69290593Y-107490762D01*
X69368653Y-107486205D01*
X69482994Y-107483863D01*
X69640986Y-107482998D01*
X69850000Y-107482874D01*
X69876262Y-107482874D01*
X70079175Y-107483045D01*
G37*
X70079175Y-107483045D02*
X70231895Y-107484039D01*
X70341792Y-107486593D01*
X70416235Y-107491445D01*
X70462594Y-107499331D01*
X70488239Y-107510988D01*
X70500539Y-107527153D01*
X70506865Y-107548563D01*
X70507047Y-107549332D01*
X70517441Y-107599663D01*
X70536339Y-107696888D01*
X70561802Y-107830810D01*
X70591890Y-107991235D01*
X70624664Y-108167967D01*
X70627337Y-108182428D01*
X70660010Y-108353959D01*
X70690413Y-108504625D01*
X70716568Y-108625267D01*
X70736496Y-108706729D01*
X70748220Y-108739852D01*
X70748282Y-108739905D01*
X70785229Y-108758229D01*
X70861057Y-108788677D01*
X70959425Y-108824685D01*
X70964965Y-108826640D01*
X71090724Y-108874170D01*
X71237011Y-108933783D01*
X71373293Y-108993056D01*
X71597390Y-109094765D01*
X72093618Y-108755897D01*
X72128570Y-108732063D01*
X72278280Y-108630755D01*
X72411867Y-108541575D01*
X72521343Y-108469773D01*
X72598718Y-108420603D01*
X72636004Y-108399317D01*
X72661552Y-108404196D01*
X72719555Y-108442002D01*
X72809195Y-108516870D01*
X72932957Y-108630903D01*
X73093328Y-108786205D01*
X73107679Y-108800341D01*
X73234933Y-108926999D01*
X73347969Y-109041745D01*
X73439867Y-109137391D01*
X73503707Y-109206746D01*
X73532570Y-109242620D01*
X73532664Y-109242794D01*
X73536331Y-109270106D01*
X73522808Y-109314408D01*
X73488684Y-109381761D01*
X73430548Y-109478226D01*
X73344988Y-109609863D01*
X73228594Y-109782734D01*
X73208759Y-109811912D01*
X73108445Y-109959726D01*
X73019923Y-110090577D01*
X72948465Y-110196643D01*
X72899343Y-110270102D01*
X72877831Y-110303130D01*
X72876208Y-110310126D01*
X72886387Y-110362326D01*
X72916879Y-110447561D01*
X72962712Y-110551291D01*
X73025000Y-110686951D01*
X73094548Y-110847921D01*
X73153609Y-110993621D01*
X73168252Y-111031333D01*
X73206600Y-111127622D01*
X73234770Y-111194704D01*
X73247497Y-111219885D01*
X73261545Y-111221767D01*
X73324681Y-111232651D01*
X73428019Y-111251449D01*
X73560809Y-111276115D01*
X73712297Y-111304604D01*
X73871732Y-111334873D01*
X74028361Y-111364875D01*
X74171433Y-111392566D01*
X74290195Y-111415900D01*
X74373896Y-111432833D01*
X74411782Y-111441320D01*
X74418063Y-111443713D01*
X74433373Y-111456619D01*
X74444763Y-111484096D01*
X74452803Y-111533446D01*
X74458064Y-111611973D01*
X74461116Y-111726980D01*
X74462529Y-111885770D01*
X74462873Y-112095645D01*
X74462873Y-112733906D01*
X74309598Y-112764160D01*
X74291057Y-112767785D01*
X74192596Y-112786569D01*
X74056448Y-112812093D01*
X73898087Y-112841468D01*
X73732988Y-112871806D01*
X73667973Y-112884009D01*
X73522697Y-112913697D01*
X73401626Y-112941770D01*
X73315886Y-112965536D01*
X73276601Y-112982301D01*
X73258799Y-113009694D01*
X73226389Y-113082174D01*
X73193234Y-113175977D01*
X73181564Y-113211103D01*
X73138604Y-113326409D01*
X73083192Y-113462876D01*
X73024353Y-113597954D01*
X72992884Y-113668509D01*
X72948051Y-113773895D01*
X72917240Y-113852818D01*
X72905785Y-113892053D01*
X72906422Y-113895014D01*
X72928150Y-113936639D01*
X72977146Y-114016969D01*
X73048438Y-114128220D01*
X73137054Y-114262605D01*
X73238023Y-114412340D01*
X73570261Y-114899931D01*
X73133771Y-115337149D01*
X73091555Y-115379221D01*
X72962470Y-115505153D01*
X72847107Y-115613754D01*
X72752224Y-115698903D01*
X72684582Y-115754482D01*
X72650938Y-115774368D01*
X72614402Y-115759238D01*
X72537890Y-115715801D01*
X72430196Y-115649270D01*
X72299767Y-115564867D01*
X72155052Y-115467816D01*
X72012910Y-115371964D01*
X71884678Y-115287557D01*
X71780054Y-115220850D01*
X71707171Y-115177024D01*
X71674158Y-115161264D01*
X71672223Y-115161408D01*
X71628369Y-115176945D01*
X71550598Y-115213121D01*
X71454392Y-115262785D01*
X71453381Y-115263329D01*
X71325605Y-115327326D01*
X71238051Y-115358591D01*
X71183726Y-115358677D01*
X71155641Y-115329138D01*
X71143752Y-115300061D01*
X71111668Y-115222188D01*
X71062247Y-115102475D01*
X70998118Y-114947286D01*
X70921911Y-114762984D01*
X70836255Y-114555933D01*
X70743781Y-114332496D01*
X70659962Y-114129226D01*
X70574678Y-113920649D01*
X70499222Y-113734263D01*
X70436126Y-113576407D01*
X70387923Y-113453419D01*
X70357144Y-113371639D01*
X70346322Y-113337406D01*
X70366991Y-113306015D01*
X70424409Y-113253602D01*
X70505688Y-113192704D01*
X70700820Y-113033387D01*
X70875445Y-112829807D01*
X71003235Y-112605808D01*
X71083402Y-112368003D01*
X71115160Y-112123007D01*
X71097722Y-111877433D01*
X71030301Y-111637895D01*
X70912111Y-111411007D01*
X70742364Y-111203383D01*
X70653856Y-111122527D01*
X70441804Y-110979559D01*
X70214905Y-110886352D01*
X69979791Y-110840687D01*
X69743094Y-110840344D01*
X69511446Y-110883105D01*
X69291478Y-110966750D01*
X69089822Y-111089061D01*
X68913111Y-111247817D01*
X68767977Y-111440801D01*
X68661050Y-111665793D01*
X68598964Y-111920575D01*
X68587569Y-112043377D01*
X68603246Y-112309434D01*
X68673846Y-112561856D01*
X68797282Y-112796182D01*
X68971466Y-113007952D01*
X69194311Y-113192704D01*
X69272561Y-113251123D01*
X69331244Y-113304110D01*
X69353678Y-113337356D01*
X69344732Y-113366339D01*
X69315703Y-113443996D01*
X69269026Y-113563451D01*
X69207231Y-113718362D01*
X69132850Y-113902392D01*
X69048412Y-114109200D01*
X68956449Y-114332446D01*
X68872771Y-114534742D01*
X68786366Y-114743686D01*
X68709138Y-114930498D01*
X68643716Y-115088814D01*
X68592731Y-115212269D01*
X68558812Y-115294498D01*
X68544590Y-115329138D01*
X68544425Y-115329548D01*
X68515972Y-115358798D01*
X68461382Y-115358463D01*
X68373609Y-115326980D01*
X68245608Y-115262785D01*
X68235532Y-115257380D01*
X68140481Y-115208750D01*
X68065424Y-115174328D01*
X68025842Y-115161264D01*
X67993400Y-115176702D01*
X67920895Y-115220258D01*
X67816565Y-115286751D01*
X67688539Y-115370998D01*
X67544948Y-115467816D01*
X67403468Y-115562734D01*
X67272611Y-115647490D01*
X67164292Y-115714496D01*
X67086960Y-115758529D01*
X67049062Y-115774368D01*
X67042607Y-115772357D01*
X66997609Y-115740658D01*
X66920727Y-115675181D01*
X66818721Y-115582048D01*
X66698351Y-115467381D01*
X66566379Y-115337300D01*
X66130039Y-114900232D01*
X66809733Y-113900440D01*
X66706402Y-113676886D01*
X66706096Y-113676225D01*
X66644046Y-113533714D01*
X66580640Y-113375018D01*
X66529558Y-113234368D01*
X66521827Y-113211683D01*
X66482852Y-113106370D01*
X66447707Y-113024534D01*
X66423195Y-112982301D01*
X66413212Y-112976337D01*
X66353286Y-112956329D01*
X66251532Y-112930442D01*
X66119068Y-112901370D01*
X65967011Y-112871806D01*
X65921466Y-112863467D01*
X65756685Y-112833107D01*
X65602930Y-112804509D01*
X65475678Y-112780564D01*
X65390402Y-112764160D01*
X65237126Y-112733906D01*
X65237126Y-112095645D01*
X65237160Y-112017165D01*
X65237808Y-111825703D01*
X65239720Y-111682812D01*
X65243469Y-111581189D01*
X65249622Y-111513531D01*
X65258751Y-111472536D01*
X65271427Y-111450900D01*
X65288218Y-111441320D01*
X65304474Y-111437439D01*
X65370748Y-111423710D01*
X65476479Y-111402745D01*
X65610915Y-111376588D01*
X65763302Y-111347283D01*
X65922890Y-111316877D01*
X66078925Y-111287413D01*
X66220657Y-111260937D01*
X66337331Y-111239494D01*
X66418197Y-111225128D01*
X66452503Y-111219885D01*
X66454822Y-111216720D01*
X66473474Y-111175642D01*
X66505753Y-111097044D01*
X66546391Y-110993621D01*
X66602788Y-110854273D01*
X66672214Y-110693226D01*
X66737288Y-110551291D01*
X66752202Y-110519432D01*
X66794047Y-110419669D01*
X66819118Y-110342721D01*
X66822426Y-110303130D01*
X66820720Y-110300325D01*
X66793631Y-110259005D01*
X66739927Y-110178740D01*
X66664877Y-110067350D01*
X66573746Y-109932655D01*
X66471800Y-109782476D01*
X66356930Y-109611851D01*
X66270761Y-109479311D01*
X66212131Y-109382112D01*
X66177650Y-109314234D01*
X66163926Y-109269656D01*
X66167568Y-109242361D01*
X66168794Y-109240313D01*
X66201747Y-109200536D01*
X66268927Y-109128052D01*
X66363419Y-109030046D01*
X66478306Y-108913702D01*
X66606672Y-108786205D01*
X66739831Y-108656821D01*
X66870269Y-108535209D01*
X66966119Y-108453156D01*
X67029866Y-108408560D01*
X67063996Y-108399317D01*
X67068456Y-108401393D01*
X67115421Y-108429385D01*
X67200685Y-108484084D01*
X67316259Y-108560237D01*
X67454154Y-108652592D01*
X67606381Y-108755897D01*
X68102610Y-109094765D01*
X68326707Y-108993056D01*
X68333219Y-108990109D01*
X68470804Y-108930504D01*
X68616767Y-108871222D01*
X68740575Y-108824685D01*
X68741122Y-108824493D01*
X68839414Y-108788497D01*
X68915081Y-108758095D01*
X68951780Y-108739852D01*
X68952374Y-108739190D01*
X68964833Y-108701831D01*
X68985336Y-108616871D01*
X69011907Y-108493469D01*
X69042567Y-108340782D01*
X69075336Y-108167967D01*
X69076478Y-108161774D01*
X69109193Y-107985431D01*
X69139155Y-107825743D01*
X69164425Y-107692905D01*
X69183065Y-107597113D01*
X69193135Y-107548563D01*
X69193779Y-107545873D01*
X69200408Y-107525088D01*
X69213841Y-107509466D01*
X69241446Y-107498270D01*
X69290593Y-107490762D01*
X69368653Y-107486205D01*
X69482994Y-107483863D01*
X69640986Y-107482998D01*
X69850000Y-107482874D01*
X69876262Y-107482874D01*
X70079175Y-107483045D01*
D12*
X79435000Y-126365000D02*
X79435000Y-125035000D01*
X79435000Y-125035000D02*
X78105000Y-125035000D01*
X79435000Y-127635000D02*
X76835000Y-127635000D01*
X76835000Y-127635000D02*
X76835000Y-125035000D01*
X76835000Y-125035000D02*
X28515000Y-125035000D01*
X28515000Y-130235000D02*
X28515000Y-125035000D01*
X79435000Y-130235000D02*
X28515000Y-130235000D01*
X79435000Y-130235000D02*
X79435000Y-127635000D01*
D13*
X79287619Y-123523333D02*
X78573333Y-123523333D01*
X78430476Y-123570952D01*
X78335238Y-123666190D01*
X78287619Y-123809047D01*
X78287619Y-123904285D01*
X78287619Y-122523333D02*
X78287619Y-123094761D01*
X78287619Y-122809047D02*
X79287619Y-122809047D01*
X79144761Y-122904285D01*
X79049523Y-122999523D01*
X79001904Y-123094761D01*
M02*
