G04 #@! TF.GenerationSoftware,KiCad,Pcbnew,5.99.0-unknown-r16821-0ff20c18*
G04 #@! TF.CreationDate,2019-09-29T17:51:57-05:00*
G04 #@! TF.ProjectId,led_module,6c65645f-6d6f-4647-956c-652e6b696361,rev?*
G04 #@! TF.SameCoordinates,Original*
G04 #@! TF.FileFunction,Legend,Top*
G04 #@! TF.FilePolarity,Positive*
%FSLAX46Y46*%
G04 Gerber Fmt 4.6, Leading zero omitted, Abs format (unit mm)*
G04 Created by KiCad (PCBNEW 5.99.0-unknown-r16821-0ff20c18) date 2019-09-29 17:51:57*
%MOMM*%
%LPD*%
G04 APERTURE LIST*
%ADD10C,0.127000*%
%ADD11C,0.200000*%
%ADD12C,0.050000*%
G04 APERTURE END LIST*
D10*
X79693000Y-104013000D02*
X79693000Y-123063000D01*
X54673000Y-104013000D02*
X79693000Y-104013000D01*
X54673000Y-123063000D02*
X54673000Y-104013000D01*
X79693000Y-123063000D02*
X54673000Y-123063000D01*
D11*
X57033000Y-123838000D02*
G75*
G03X57033000Y-123838000I-100000J0D01*
G01*
D10*
X53150000Y-104013000D02*
X53150000Y-123063000D01*
X28130000Y-104013000D02*
X53150000Y-104013000D01*
X28130000Y-123063000D02*
X28130000Y-104013000D01*
X53150000Y-123063000D02*
X28130000Y-123063000D01*
D11*
X30490000Y-123838000D02*
G75*
G03X30490000Y-123838000I-100000J0D01*
G01*
D12*
X54899565Y-103159556D02*
X54899565Y-102519484D01*
X55051964Y-102519484D01*
X55143402Y-102549964D01*
X55204362Y-102610923D01*
X55234841Y-102671882D01*
X55265321Y-102793800D01*
X55265321Y-102885239D01*
X55234841Y-103007158D01*
X55204362Y-103068117D01*
X55143402Y-103129076D01*
X55051964Y-103159556D01*
X54899565Y-103159556D01*
X55509158Y-102580443D02*
X55539637Y-102549964D01*
X55600597Y-102519484D01*
X55752995Y-102519484D01*
X55813954Y-102549964D01*
X55844434Y-102580443D01*
X55874913Y-102641402D01*
X55874913Y-102702362D01*
X55844434Y-102793800D01*
X55478678Y-103159556D01*
X55874913Y-103159556D01*
X74944452Y-103159660D02*
X74639546Y-103159660D01*
X74639546Y-102519358D01*
X75066414Y-102519358D02*
X75432301Y-102519358D01*
X75249358Y-103159660D02*
X75249358Y-102519358D01*
X75645735Y-103159660D02*
X75645735Y-102519358D01*
X75889660Y-102519358D01*
X75950641Y-102549849D01*
X75981131Y-102580339D01*
X76011622Y-102641320D01*
X76011622Y-102732792D01*
X75981131Y-102793773D01*
X75950641Y-102824264D01*
X75889660Y-102854754D01*
X75645735Y-102854754D01*
X76286037Y-102915735D02*
X76773886Y-102915735D01*
X77048301Y-102580339D02*
X77078792Y-102549849D01*
X77139773Y-102519358D01*
X77292226Y-102519358D01*
X77353207Y-102549849D01*
X77383698Y-102580339D01*
X77414188Y-102641320D01*
X77414188Y-102702301D01*
X77383698Y-102793773D01*
X77017811Y-103159660D01*
X77414188Y-103159660D01*
X77627622Y-102519358D02*
X78054490Y-102519358D01*
X77780075Y-103159660D01*
X78389887Y-102793773D02*
X78328905Y-102763283D01*
X78298415Y-102732792D01*
X78267924Y-102671811D01*
X78267924Y-102641320D01*
X78298415Y-102580339D01*
X78328905Y-102549849D01*
X78389887Y-102519358D01*
X78511849Y-102519358D01*
X78572830Y-102549849D01*
X78603321Y-102580339D01*
X78633811Y-102641320D01*
X78633811Y-102671811D01*
X78603321Y-102732792D01*
X78572830Y-102763283D01*
X78511849Y-102793773D01*
X78389887Y-102793773D01*
X78328905Y-102824264D01*
X78298415Y-102854754D01*
X78267924Y-102915735D01*
X78267924Y-103037698D01*
X78298415Y-103098679D01*
X78328905Y-103129169D01*
X78389887Y-103159660D01*
X78511849Y-103159660D01*
X78572830Y-103129169D01*
X78603321Y-103098679D01*
X78633811Y-103037698D01*
X78633811Y-102915735D01*
X78603321Y-102854754D01*
X78572830Y-102824264D01*
X78511849Y-102793773D01*
X79182641Y-102732792D02*
X79182641Y-103159660D01*
X79030189Y-102488867D02*
X78877736Y-102946226D01*
X79274113Y-102946226D01*
X79518038Y-102824264D02*
X79731472Y-102824264D01*
X79822943Y-103159660D02*
X79518038Y-103159660D01*
X79518038Y-102519358D01*
X79822943Y-102519358D01*
X28229565Y-103159556D02*
X28229565Y-102519484D01*
X28381964Y-102519484D01*
X28473402Y-102549964D01*
X28534362Y-102610923D01*
X28564841Y-102671882D01*
X28595321Y-102793800D01*
X28595321Y-102885239D01*
X28564841Y-103007158D01*
X28534362Y-103068117D01*
X28473402Y-103129076D01*
X28381964Y-103159556D01*
X28229565Y-103159556D01*
X29204913Y-103159556D02*
X28839158Y-103159556D01*
X29022036Y-103159556D02*
X29022036Y-102519484D01*
X28961076Y-102610923D01*
X28900117Y-102671882D01*
X28839158Y-102702362D01*
X48401452Y-103159660D02*
X48096546Y-103159660D01*
X48096546Y-102519358D01*
X48523414Y-102519358D02*
X48889301Y-102519358D01*
X48706358Y-103159660D02*
X48706358Y-102519358D01*
X49102735Y-103159660D02*
X49102735Y-102519358D01*
X49346660Y-102519358D01*
X49407641Y-102549849D01*
X49438131Y-102580339D01*
X49468622Y-102641320D01*
X49468622Y-102732792D01*
X49438131Y-102793773D01*
X49407641Y-102824264D01*
X49346660Y-102854754D01*
X49102735Y-102854754D01*
X49743037Y-102915735D02*
X50230886Y-102915735D01*
X50505301Y-102580339D02*
X50535792Y-102549849D01*
X50596773Y-102519358D01*
X50749226Y-102519358D01*
X50810207Y-102549849D01*
X50840698Y-102580339D01*
X50871188Y-102641320D01*
X50871188Y-102702301D01*
X50840698Y-102793773D01*
X50474811Y-103159660D01*
X50871188Y-103159660D01*
X51084622Y-102519358D02*
X51511490Y-102519358D01*
X51237075Y-103159660D01*
X51846887Y-102793773D02*
X51785905Y-102763283D01*
X51755415Y-102732792D01*
X51724924Y-102671811D01*
X51724924Y-102641320D01*
X51755415Y-102580339D01*
X51785905Y-102549849D01*
X51846887Y-102519358D01*
X51968849Y-102519358D01*
X52029830Y-102549849D01*
X52060321Y-102580339D01*
X52090811Y-102641320D01*
X52090811Y-102671811D01*
X52060321Y-102732792D01*
X52029830Y-102763283D01*
X51968849Y-102793773D01*
X51846887Y-102793773D01*
X51785905Y-102824264D01*
X51755415Y-102854754D01*
X51724924Y-102915735D01*
X51724924Y-103037698D01*
X51755415Y-103098679D01*
X51785905Y-103129169D01*
X51846887Y-103159660D01*
X51968849Y-103159660D01*
X52029830Y-103129169D01*
X52060321Y-103098679D01*
X52090811Y-103037698D01*
X52090811Y-102915735D01*
X52060321Y-102854754D01*
X52029830Y-102824264D01*
X51968849Y-102793773D01*
X52639641Y-102732792D02*
X52639641Y-103159660D01*
X52487189Y-102488867D02*
X52334736Y-102946226D01*
X52731113Y-102946226D01*
X52975038Y-102824264D02*
X53188472Y-102824264D01*
X53279943Y-103159660D02*
X52975038Y-103159660D01*
X52975038Y-102519358D01*
X53279943Y-102519358D01*
M02*
