G04 #@! TF.GenerationSoftware,KiCad,Pcbnew,5.99.0-unknown-r16821-0ff20c18*
G04 #@! TF.CreationDate,2019-10-24T19:33:04-05:00*
G04 #@! TF.ProjectId,led_module,6c65645f-6d6f-4647-956c-652e6b696361,C*
G04 #@! TF.SameCoordinates,Original*
G04 #@! TF.FileFunction,Copper,L2,Bot*
G04 #@! TF.FilePolarity,Positive*
%FSLAX46Y46*%
G04 Gerber Fmt 4.6, Leading zero omitted, Abs format (unit mm)*
G04 Created by KiCad (PCBNEW 5.99.0-unknown-r16821-0ff20c18) date 2019-10-24 19:33:04*
%MOMM*%
%LPD*%
G04 APERTURE LIST*
%ADD10R,1.500000X1.500000*%
%ADD11C,1.500000*%
%ADD12R,1.408000X1.408000*%
%ADD13C,1.408000*%
%ADD14O,1.700000X1.700000*%
%ADD15R,1.700000X1.700000*%
%ADD16C,0.800000*%
%ADD17C,0.250000*%
%ADD18C,0.500000*%
G04 APERTURE END LIST*
D10*
X71120000Y-100330000D03*
D11*
X76200000Y-100330000D03*
X73660000Y-100330000D03*
D10*
X58420000Y-100330000D03*
D11*
X63500000Y-100330000D03*
X60960000Y-100330000D03*
D10*
X44450000Y-100330000D03*
D11*
X49530000Y-100330000D03*
X46990000Y-100330000D03*
D10*
X31750000Y-100330000D03*
D11*
X36830000Y-100330000D03*
X34290000Y-100330000D03*
D12*
X57023000Y-121158000D03*
D13*
X59563000Y-121158000D03*
X62103000Y-121158000D03*
X64643000Y-121158000D03*
X67183000Y-121158000D03*
X69723000Y-121158000D03*
X72263000Y-121158000D03*
X74803000Y-121158000D03*
X77343000Y-121158000D03*
X77343000Y-105918000D03*
X74803000Y-105918000D03*
X72263000Y-105918000D03*
X69723000Y-105918000D03*
X67183000Y-105918000D03*
X64643000Y-105918000D03*
X62103000Y-105918000D03*
X59563000Y-105918000D03*
X57023000Y-105918000D03*
D12*
X30480000Y-121158000D03*
D13*
X33020000Y-121158000D03*
X35560000Y-121158000D03*
X38100000Y-121158000D03*
X40640000Y-121158000D03*
X43180000Y-121158000D03*
X45720000Y-121158000D03*
X48260000Y-121158000D03*
X50800000Y-121158000D03*
X50800000Y-105918000D03*
X48260000Y-105918000D03*
X45720000Y-105918000D03*
X43180000Y-105918000D03*
X40640000Y-105918000D03*
X38100000Y-105918000D03*
X35560000Y-105918000D03*
X33020000Y-105918000D03*
X30480000Y-105918000D03*
D14*
X29845000Y-128905000D03*
X29845000Y-126365000D03*
X32385000Y-128905000D03*
X32385000Y-126365000D03*
X34925000Y-128905000D03*
X34925000Y-126365000D03*
X37465000Y-128905000D03*
X37465000Y-126365000D03*
X40005000Y-128905000D03*
X40005000Y-126365000D03*
X42545000Y-128905000D03*
X42545000Y-126365000D03*
X45085000Y-128905000D03*
X45085000Y-126365000D03*
X47625000Y-128905000D03*
X47625000Y-126365000D03*
X50165000Y-128905000D03*
X50165000Y-126365000D03*
X52705000Y-128905000D03*
X52705000Y-126365000D03*
X55245000Y-128905000D03*
X55245000Y-126365000D03*
X57785000Y-128905000D03*
X57785000Y-126365000D03*
X60325000Y-128905000D03*
X60325000Y-126365000D03*
X62865000Y-128905000D03*
X62865000Y-126365000D03*
X65405000Y-128905000D03*
X65405000Y-126365000D03*
X67945000Y-128905000D03*
X67945000Y-126365000D03*
X70485000Y-128905000D03*
X70485000Y-126365000D03*
X73025000Y-128905000D03*
X73025000Y-126365000D03*
X75565000Y-128905000D03*
X75565000Y-126365000D03*
X78105000Y-128905000D03*
D15*
X78105000Y-126365000D03*
D16*
X57273300Y-118513700D03*
X55842000Y-112644000D03*
X51178600Y-119799500D03*
X33561600Y-119063700D03*
X64122000Y-114900200D03*
X39777900Y-118482000D03*
X66548000Y-113449600D03*
X41106800Y-116839700D03*
X36478900Y-112223100D03*
X68743800Y-117496900D03*
X47392100Y-104903900D03*
X55696800Y-106317900D03*
X47839800Y-114174900D03*
X41920800Y-117690400D03*
X42339200Y-123891700D03*
X31795400Y-124692500D03*
X29399100Y-110153900D03*
D17*
X55842000Y-112644000D02*
X55842000Y-117082400D01*
X55842000Y-117082400D02*
X57273300Y-118513700D01*
X57023000Y-121158000D02*
X57023000Y-122187300D01*
X60325000Y-128905000D02*
X60325000Y-127729700D01*
X60325000Y-127729700D02*
X60692300Y-127729700D01*
X60692300Y-127729700D02*
X61505100Y-126916900D01*
X61505100Y-126916900D02*
X61505100Y-125881400D01*
X61505100Y-125881400D02*
X57811000Y-122187300D01*
X57811000Y-122187300D02*
X57023000Y-122187300D01*
X33020000Y-121158000D02*
X33561600Y-120616400D01*
X33561600Y-120616400D02*
X33561600Y-119063700D01*
X51178600Y-119799500D02*
X58204500Y-119799500D01*
X58204500Y-119799500D02*
X59563000Y-121158000D01*
X64643000Y-121158000D02*
X64643000Y-115421200D01*
X64643000Y-115421200D02*
X64122000Y-114900200D01*
X39610600Y-121158000D02*
X39610600Y-122188800D01*
X39610600Y-122188800D02*
X42611500Y-125189700D01*
X42611500Y-125189700D02*
X48174900Y-125189700D01*
X48174900Y-125189700D02*
X48895000Y-125909800D01*
X48895000Y-125909800D02*
X48895000Y-126796000D01*
X48895000Y-126796000D02*
X49828700Y-127729700D01*
X49828700Y-127729700D02*
X50721800Y-127729700D01*
X50721800Y-127729700D02*
X51529700Y-128537600D01*
X51529700Y-128537600D02*
X51529700Y-128905000D01*
X39610600Y-121158000D02*
X39610600Y-118649300D01*
X39610600Y-118649300D02*
X39777900Y-118482000D01*
X39610600Y-121158000D02*
X38100000Y-121158000D01*
X52705000Y-128905000D02*
X51529700Y-128905000D01*
X40640000Y-121158000D02*
X40640000Y-117306500D01*
X40640000Y-117306500D02*
X41106800Y-116839700D01*
X67183000Y-121158000D02*
X66548000Y-120523000D01*
X66548000Y-120523000D02*
X66548000Y-113449600D01*
X43180000Y-121158000D02*
X43180000Y-120887200D01*
X43180000Y-120887200D02*
X44993000Y-119074200D01*
X44993000Y-119074200D02*
X56808100Y-119074200D01*
X56808100Y-119074200D02*
X56972900Y-119239000D01*
X56972900Y-119239000D02*
X59117300Y-119239000D01*
X59117300Y-119239000D02*
X60833000Y-120954700D01*
X60833000Y-120954700D02*
X60833000Y-123157700D01*
X60833000Y-123157700D02*
X62865000Y-125189700D01*
X62865000Y-126365000D02*
X62865000Y-125189700D01*
X62865000Y-126365000D02*
X62865000Y-127540300D01*
X62865000Y-127540300D02*
X63232400Y-127540300D01*
X63232400Y-127540300D02*
X64040300Y-128348200D01*
X64040300Y-128348200D02*
X64040300Y-129221600D01*
X64040300Y-129221600D02*
X64939000Y-130120300D01*
X64939000Y-130120300D02*
X70964200Y-130120300D01*
X70964200Y-130120300D02*
X71695600Y-129388900D01*
X71695600Y-129388900D02*
X71695600Y-123130600D01*
X71695600Y-123130600D02*
X69723000Y-121158000D01*
X59149700Y-126365000D02*
X59149700Y-126732300D01*
X59149700Y-126732300D02*
X58341600Y-127540400D01*
X58341600Y-127540400D02*
X57295600Y-127540400D01*
X57295600Y-127540400D02*
X56609600Y-126854400D01*
X56609600Y-126854400D02*
X56609600Y-126051300D01*
X56609600Y-126051300D02*
X53946800Y-123388500D01*
X53946800Y-123388500D02*
X47950500Y-123388500D01*
X47950500Y-123388500D02*
X45720000Y-121158000D01*
X60325000Y-126365000D02*
X59149700Y-126365000D01*
X54069700Y-126365000D02*
X54069700Y-125997600D01*
X54069700Y-125997600D02*
X51910900Y-123838800D01*
X51910900Y-123838800D02*
X46923700Y-123838800D01*
X46923700Y-123838800D02*
X44662100Y-121577200D01*
X44662100Y-121577200D02*
X44662100Y-120732700D01*
X44662100Y-120732700D02*
X45297500Y-120097300D01*
X45297500Y-120097300D02*
X47199300Y-120097300D01*
X47199300Y-120097300D02*
X48260000Y-121158000D01*
X55245000Y-126365000D02*
X54069700Y-126365000D01*
X51529700Y-126365000D02*
X51529700Y-125990200D01*
X51529700Y-125990200D02*
X49828600Y-124289100D01*
X49828600Y-124289100D02*
X46714100Y-124289100D01*
X46714100Y-124289100D02*
X44209400Y-121784400D01*
X44209400Y-121784400D02*
X44209400Y-120532000D01*
X44209400Y-120532000D02*
X45152800Y-119588600D01*
X45152800Y-119588600D02*
X49230600Y-119588600D01*
X49230600Y-119588600D02*
X50800000Y-121158000D01*
X52705000Y-126365000D02*
X51529700Y-126365000D01*
X32385000Y-127540300D02*
X32752400Y-127540300D01*
X32752400Y-127540300D02*
X33560300Y-128348200D01*
X33560300Y-128348200D02*
X33560300Y-129202700D01*
X33560300Y-129202700D02*
X34442800Y-130085200D01*
X34442800Y-130085200D02*
X35424100Y-130085200D01*
X35424100Y-130085200D02*
X36289600Y-129219700D01*
X36289600Y-129219700D02*
X36289600Y-128379400D01*
X36289600Y-128379400D02*
X37034000Y-127635000D01*
X37034000Y-127635000D02*
X37859800Y-127635000D01*
X37859800Y-127635000D02*
X38650700Y-126844100D01*
X38650700Y-126844100D02*
X38650700Y-124118100D01*
X38650700Y-124118100D02*
X36830000Y-122297400D01*
X36830000Y-122297400D02*
X36830000Y-112574200D01*
X36830000Y-112574200D02*
X36478900Y-112223100D01*
X50800000Y-105918000D02*
X57463400Y-99254600D01*
X57463400Y-99254600D02*
X72004900Y-99254600D01*
X72004900Y-99254600D02*
X72230700Y-99480400D01*
X72230700Y-99480400D02*
X72230700Y-100805700D01*
X72230700Y-100805700D02*
X77343000Y-105918000D01*
X32385000Y-126365000D02*
X32385000Y-127540300D01*
X34925000Y-125189700D02*
X31590700Y-121855400D01*
X31590700Y-121855400D02*
X31590700Y-111312400D01*
X31590700Y-111312400D02*
X28953300Y-108675000D01*
X28953300Y-108675000D02*
X28953300Y-105190300D01*
X28953300Y-105190300D02*
X29817100Y-104326500D01*
X29817100Y-104326500D02*
X44128500Y-104326500D01*
X44128500Y-104326500D02*
X45720000Y-105918000D01*
X34925000Y-126365000D02*
X34925000Y-125189700D01*
X69723000Y-105918000D02*
X67755600Y-103950600D01*
X67755600Y-103950600D02*
X54496400Y-103950600D01*
X54496400Y-103950600D02*
X51456400Y-106990600D01*
X51456400Y-106990600D02*
X44252600Y-106990600D01*
X44252600Y-106990600D02*
X43180000Y-105918000D01*
X37465000Y-125189700D02*
X34290000Y-122014700D01*
X34290000Y-122014700D02*
X34290000Y-111336200D01*
X34290000Y-111336200D02*
X29417400Y-106463600D01*
X29417400Y-106463600D02*
X29417400Y-105441400D01*
X29417400Y-105441400D02*
X30037100Y-104821700D01*
X30037100Y-104821700D02*
X42083700Y-104821700D01*
X42083700Y-104821700D02*
X43180000Y-105918000D01*
X37465000Y-126365000D02*
X37465000Y-125189700D01*
X40640000Y-105918000D02*
X42162900Y-107440900D01*
X42162900Y-107440900D02*
X51829100Y-107440900D01*
X51829100Y-107440900D02*
X54869000Y-104401000D01*
X54869000Y-104401000D02*
X65666000Y-104401000D01*
X65666000Y-104401000D02*
X67183000Y-105918000D01*
X70485000Y-127729700D02*
X70117600Y-127729700D01*
X70117600Y-127729700D02*
X69309700Y-126921800D01*
X69309700Y-126921800D02*
X69309700Y-125805700D01*
X69309700Y-125805700D02*
X68453000Y-124949000D01*
X68453000Y-124949000D02*
X68453000Y-118231700D01*
X68453000Y-118231700D02*
X68452900Y-118231700D01*
X68452900Y-118231700D02*
X67273300Y-117052100D01*
X67273300Y-117052100D02*
X67273300Y-106008300D01*
X67273300Y-106008300D02*
X67183000Y-105918000D01*
X70485000Y-128905000D02*
X70485000Y-127729700D01*
X64643000Y-105918000D02*
X65822700Y-107097700D01*
X65822700Y-107097700D02*
X65822700Y-124858700D01*
X65822700Y-124858700D02*
X66769700Y-125805700D01*
X66769700Y-125805700D02*
X66769700Y-126921800D01*
X66769700Y-126921800D02*
X67577600Y-127729700D01*
X67577600Y-127729700D02*
X67945000Y-127729700D01*
X67945000Y-128905000D02*
X67945000Y-127729700D01*
X59563000Y-105918000D02*
X58533600Y-104888600D01*
X58533600Y-104888600D02*
X56100400Y-104888600D01*
X56100400Y-104888600D02*
X53097800Y-107891200D01*
X53097800Y-107891200D02*
X34993200Y-107891200D01*
X34993200Y-107891200D02*
X33020000Y-105918000D01*
X65405000Y-128905000D02*
X65405000Y-127729700D01*
X65405000Y-127729700D02*
X65037600Y-127729700D01*
X65037600Y-127729700D02*
X64229700Y-126921800D01*
X64229700Y-126921800D02*
X64229700Y-125805700D01*
X64229700Y-125805700D02*
X63373000Y-124949000D01*
X63373000Y-124949000D02*
X63373000Y-109728000D01*
X63373000Y-109728000D02*
X59563000Y-105918000D01*
X42646100Y-117348000D02*
X45692500Y-117348000D01*
X45692500Y-117348000D02*
X57023000Y-106017500D01*
X57023000Y-106017500D02*
X57023000Y-105918000D01*
X30480000Y-105918000D02*
X31216100Y-105918000D01*
X31216100Y-105918000D02*
X42646100Y-117348000D01*
X50165000Y-126365000D02*
X48539400Y-124739400D01*
X48539400Y-124739400D02*
X45285000Y-124739400D01*
X45285000Y-124739400D02*
X42150100Y-121604500D01*
X42150100Y-121604500D02*
X42150100Y-118486900D01*
X42150100Y-118486900D02*
X42646100Y-117990900D01*
X42646100Y-117990900D02*
X42646100Y-117348000D01*
D18*
X48260000Y-105918000D02*
X48260000Y-101600000D01*
X48260000Y-101600000D02*
X49530000Y-100330000D01*
X70922700Y-101728400D02*
X70922700Y-115318000D01*
X70922700Y-115318000D02*
X68743800Y-117496900D01*
X58420000Y-100330000D02*
X59620300Y-100330000D01*
X70922700Y-101728400D02*
X71120000Y-101531100D01*
X71120000Y-101531100D02*
X71120000Y-101530300D01*
X59620300Y-100330000D02*
X59620300Y-100705100D01*
X59620300Y-100705100D02*
X60643600Y-101728400D01*
X60643600Y-101728400D02*
X70922700Y-101728400D01*
X71120000Y-100330000D02*
X71120000Y-101530300D01*
D17*
X47839800Y-114174900D02*
X55696800Y-106317900D01*
X46990000Y-100330000D02*
X47392000Y-100732000D01*
X47392000Y-100732000D02*
X47392000Y-104903900D01*
X47392000Y-104903900D02*
X47392100Y-104903900D01*
X42339200Y-123891700D02*
X41699700Y-123252200D01*
X41699700Y-123252200D02*
X41699700Y-117911500D01*
X41699700Y-117911500D02*
X41920800Y-117690400D01*
X32385000Y-128905000D02*
X31159300Y-127679300D01*
X31159300Y-127679300D02*
X31159300Y-125328600D01*
X31159300Y-125328600D02*
X31795400Y-124692500D01*
X34925000Y-127729700D02*
X34557600Y-127729700D01*
X34557600Y-127729700D02*
X33749700Y-126921800D01*
X33749700Y-126921800D02*
X33749700Y-125621000D01*
X33749700Y-125621000D02*
X32095900Y-123967200D01*
X32095900Y-123967200D02*
X31394700Y-123967200D01*
X31394700Y-123967200D02*
X29399100Y-121971600D01*
X29399100Y-121971600D02*
X29399100Y-110153900D01*
X34925000Y-128905000D02*
X34925000Y-127729700D01*
X29845000Y-128905000D02*
X29845000Y-127729700D01*
X29845000Y-127729700D02*
X29477700Y-127729700D01*
X29477700Y-127729700D02*
X28439400Y-126691400D01*
X28439400Y-126691400D02*
X28439400Y-105024300D01*
X28439400Y-105024300D02*
X32058400Y-101405300D01*
X32058400Y-101405300D02*
X33214700Y-101405300D01*
X33214700Y-101405300D02*
X34290000Y-100330000D01*
M02*
