G04 #@! TF.GenerationSoftware,KiCad,Pcbnew,5.99.0-unknown-r16821-0ff20c18*
G04 #@! TF.CreationDate,2019-10-24T19:33:04-05:00*
G04 #@! TF.ProjectId,led_module,6c65645f-6d6f-4647-956c-652e6b696361,C*
G04 #@! TF.SameCoordinates,Original*
G04 #@! TF.FileFunction,Copper,L1,Top*
G04 #@! TF.FilePolarity,Positive*
%FSLAX46Y46*%
G04 Gerber Fmt 4.6, Leading zero omitted, Abs format (unit mm)*
G04 Created by KiCad (PCBNEW 5.99.0-unknown-r16821-0ff20c18) date 2019-10-24 19:33:04*
%MOMM*%
%LPD*%
G04 APERTURE LIST*
%ADD10R,1.500000X1.500000*%
%ADD11C,1.500000*%
%ADD12R,1.408000X1.408000*%
%ADD13C,1.408000*%
%ADD14O,1.700000X1.700000*%
%ADD15R,1.700000X1.700000*%
%ADD16C,0.800000*%
%ADD17C,0.250000*%
%ADD18C,0.500000*%
G04 APERTURE END LIST*
D10*
X71120000Y-100330000D03*
D11*
X76200000Y-100330000D03*
X73660000Y-100330000D03*
D10*
X58420000Y-100330000D03*
D11*
X63500000Y-100330000D03*
X60960000Y-100330000D03*
D10*
X44450000Y-100330000D03*
D11*
X49530000Y-100330000D03*
X46990000Y-100330000D03*
D10*
X31750000Y-100330000D03*
D11*
X36830000Y-100330000D03*
X34290000Y-100330000D03*
D12*
X57023000Y-121158000D03*
D13*
X59563000Y-121158000D03*
X62103000Y-121158000D03*
X64643000Y-121158000D03*
X67183000Y-121158000D03*
X69723000Y-121158000D03*
X72263000Y-121158000D03*
X74803000Y-121158000D03*
X77343000Y-121158000D03*
X77343000Y-105918000D03*
X74803000Y-105918000D03*
X72263000Y-105918000D03*
X69723000Y-105918000D03*
X67183000Y-105918000D03*
X64643000Y-105918000D03*
X62103000Y-105918000D03*
X59563000Y-105918000D03*
X57023000Y-105918000D03*
D12*
X30480000Y-121158000D03*
D13*
X33020000Y-121158000D03*
X35560000Y-121158000D03*
X38100000Y-121158000D03*
X40640000Y-121158000D03*
X43180000Y-121158000D03*
X45720000Y-121158000D03*
X48260000Y-121158000D03*
X50800000Y-121158000D03*
X50800000Y-105918000D03*
X48260000Y-105918000D03*
X45720000Y-105918000D03*
X43180000Y-105918000D03*
X40640000Y-105918000D03*
X38100000Y-105918000D03*
X35560000Y-105918000D03*
X33020000Y-105918000D03*
X30480000Y-105918000D03*
D14*
X29845000Y-128905000D03*
X29845000Y-126365000D03*
X32385000Y-128905000D03*
X32385000Y-126365000D03*
X34925000Y-128905000D03*
X34925000Y-126365000D03*
X37465000Y-128905000D03*
X37465000Y-126365000D03*
X40005000Y-128905000D03*
X40005000Y-126365000D03*
X42545000Y-128905000D03*
X42545000Y-126365000D03*
X45085000Y-128905000D03*
X45085000Y-126365000D03*
X47625000Y-128905000D03*
X47625000Y-126365000D03*
X50165000Y-128905000D03*
X50165000Y-126365000D03*
X52705000Y-128905000D03*
X52705000Y-126365000D03*
X55245000Y-128905000D03*
X55245000Y-126365000D03*
X57785000Y-128905000D03*
X57785000Y-126365000D03*
X60325000Y-128905000D03*
X60325000Y-126365000D03*
X62865000Y-128905000D03*
X62865000Y-126365000D03*
X65405000Y-128905000D03*
X65405000Y-126365000D03*
X67945000Y-128905000D03*
X67945000Y-126365000D03*
X70485000Y-128905000D03*
X70485000Y-126365000D03*
X73025000Y-128905000D03*
X73025000Y-126365000D03*
X75565000Y-128905000D03*
X75565000Y-126365000D03*
X78105000Y-128905000D03*
D15*
X78105000Y-126365000D03*
D16*
X57273300Y-118513700D03*
X55842000Y-112644000D03*
X51178600Y-119799500D03*
X33561600Y-119063700D03*
X64122000Y-114900200D03*
X39777900Y-118482000D03*
X66548000Y-113449600D03*
X41106800Y-116839700D03*
X36478900Y-112223100D03*
X68743800Y-117496900D03*
X47392100Y-104903900D03*
X55696800Y-106317900D03*
X47839800Y-114174900D03*
X41920800Y-117690400D03*
X42339200Y-123891700D03*
X31795400Y-124692500D03*
X29399100Y-110153900D03*
D17*
X30480000Y-121158000D02*
X30480000Y-120128700D01*
X57023000Y-121158000D02*
X57023000Y-120128700D01*
X57273300Y-118513700D02*
X57273300Y-119878400D01*
X57273300Y-119878400D02*
X57023000Y-120128700D01*
X30480000Y-120128700D02*
X37964700Y-112644000D01*
X37964700Y-112644000D02*
X55842000Y-112644000D01*
X56609700Y-128905000D02*
X56609700Y-128537600D01*
X56609700Y-128537600D02*
X55801800Y-127729700D01*
X55801800Y-127729700D02*
X47288700Y-127729700D01*
X47288700Y-127729700D02*
X46355000Y-126796000D01*
X46355000Y-126796000D02*
X46355000Y-125896200D01*
X46355000Y-125896200D02*
X43790300Y-123331500D01*
X43790300Y-123331500D02*
X42804800Y-123331500D01*
X42804800Y-123331500D02*
X42639700Y-123166400D01*
X42639700Y-123166400D02*
X35028400Y-123166400D01*
X35028400Y-123166400D02*
X33020000Y-121158000D01*
X51178600Y-119799500D02*
X50593800Y-119214700D01*
X50593800Y-119214700D02*
X33712600Y-119214700D01*
X33712600Y-119214700D02*
X33561600Y-119063700D01*
X57785000Y-128905000D02*
X56609700Y-128905000D01*
X39777900Y-118482000D02*
X42170600Y-118482000D01*
X42170600Y-118482000D02*
X45752400Y-114900200D01*
X45752400Y-114900200D02*
X64122000Y-114900200D01*
X41106800Y-116839700D02*
X44496900Y-113449600D01*
X44496900Y-113449600D02*
X66548000Y-113449600D01*
X65405000Y-126365000D02*
X66580300Y-126365000D01*
X66580300Y-126365000D02*
X66580300Y-126732300D01*
X66580300Y-126732300D02*
X67388400Y-127540400D01*
X67388400Y-127540400D02*
X68470600Y-127540400D01*
X68470600Y-127540400D02*
X69149800Y-126861200D01*
X69149800Y-126861200D02*
X69149800Y-123124800D01*
X69149800Y-123124800D02*
X67183000Y-121158000D01*
X72263000Y-121158000D02*
X72263000Y-119955000D01*
X72263000Y-119955000D02*
X69074800Y-116766800D01*
X69074800Y-116766800D02*
X57994500Y-116766800D01*
X57994500Y-116766800D02*
X52106100Y-122655200D01*
X52106100Y-122655200D02*
X47217200Y-122655200D01*
X47217200Y-122655200D02*
X45720000Y-121158000D01*
X48260000Y-121158000D02*
X49306800Y-122204800D01*
X49306800Y-122204800D02*
X51881300Y-122204800D01*
X51881300Y-122204800D02*
X57769600Y-116316500D01*
X57769600Y-116316500D02*
X69961500Y-116316500D01*
X69961500Y-116316500D02*
X74803000Y-121158000D01*
X50800000Y-121158000D02*
X50845900Y-121158000D01*
X50845900Y-121158000D02*
X56137700Y-115866200D01*
X56137700Y-115866200D02*
X72051200Y-115866200D01*
X72051200Y-115866200D02*
X77343000Y-121158000D01*
X36478900Y-112223100D02*
X41279800Y-107422200D01*
X41279800Y-107422200D02*
X49295800Y-107422200D01*
X49295800Y-107422200D02*
X50800000Y-105918000D01*
X72263000Y-105918000D02*
X74742700Y-103438300D01*
X74742700Y-103438300D02*
X74742700Y-99816600D01*
X74742700Y-99816600D02*
X74180700Y-99254600D01*
X74180700Y-99254600D02*
X63015100Y-99254600D01*
X63015100Y-99254600D02*
X62389400Y-99880300D01*
X62389400Y-99880300D02*
X62389400Y-100460700D01*
X62389400Y-100460700D02*
X59206700Y-103643400D01*
X59206700Y-103643400D02*
X47626900Y-103643400D01*
X47626900Y-103643400D02*
X45720000Y-105550300D01*
X45720000Y-105550300D02*
X45720000Y-105918000D01*
X38100000Y-105918000D02*
X39153900Y-106971900D01*
X39153900Y-106971900D02*
X48662000Y-106971900D01*
X48662000Y-106971900D02*
X49397300Y-106236600D01*
X49397300Y-106236600D02*
X49397300Y-105856100D01*
X49397300Y-105856100D02*
X50401700Y-104851700D01*
X50401700Y-104851700D02*
X52403400Y-104851700D01*
X52403400Y-104851700D02*
X54594900Y-107043200D01*
X54594900Y-107043200D02*
X63517800Y-107043200D01*
X63517800Y-107043200D02*
X64643000Y-105918000D01*
D18*
X35560000Y-105918000D02*
X36830000Y-104648000D01*
X36830000Y-104648000D02*
X36830000Y-100330000D01*
X74803000Y-105918000D02*
X76200000Y-104521000D01*
X76200000Y-104521000D02*
X76200000Y-100330000D01*
X62103000Y-105918000D02*
X62103000Y-101727000D01*
X62103000Y-101727000D02*
X63500000Y-100330000D01*
X62865000Y-128905000D02*
X64165300Y-130205300D01*
X64165300Y-130205300D02*
X73025000Y-130205300D01*
X73025000Y-128905000D02*
X73025000Y-130205300D01*
X58420000Y-100330000D02*
X57219700Y-100330000D01*
X43849900Y-100330000D02*
X45050200Y-99129700D01*
X45050200Y-99129700D02*
X56019400Y-99129700D01*
X56019400Y-99129700D02*
X57219700Y-100330000D01*
X43849900Y-100330000D02*
X43249700Y-100330000D01*
X44450000Y-100330000D02*
X43849900Y-100330000D01*
X31750000Y-100330000D02*
X32950300Y-100330000D01*
X32950300Y-100330000D02*
X32950300Y-99954900D01*
X32950300Y-99954900D02*
X33775500Y-99129700D01*
X33775500Y-99129700D02*
X42049400Y-99129700D01*
X42049400Y-99129700D02*
X43249700Y-100330000D01*
X66009200Y-125064700D02*
X47625000Y-125064700D01*
X67945000Y-126365000D02*
X66644700Y-125064700D01*
X66644700Y-125064700D02*
X66009200Y-125064700D01*
X66009200Y-125064700D02*
X66009200Y-120231500D01*
X66009200Y-120231500D02*
X68743800Y-117496900D01*
X29845000Y-125064700D02*
X31865600Y-123044100D01*
X31865600Y-123044100D02*
X31865600Y-120670300D01*
X31865600Y-120670300D02*
X32608200Y-119927700D01*
X32608200Y-119927700D02*
X41044000Y-119927700D01*
X41044000Y-119927700D02*
X41910000Y-120793700D01*
X41910000Y-120793700D02*
X41910000Y-121583800D01*
X41910000Y-121583800D02*
X43082300Y-122756100D01*
X43082300Y-122756100D02*
X45316400Y-122756100D01*
X45316400Y-122756100D02*
X47625000Y-125064700D01*
X42545000Y-130205300D02*
X55245000Y-130205300D01*
X37465000Y-128905000D02*
X38765300Y-130205300D01*
X38765300Y-130205300D02*
X42545000Y-130205300D01*
X42545000Y-128905000D02*
X42545000Y-130205300D01*
X62865000Y-128905000D02*
X61564700Y-130205300D01*
X61564700Y-130205300D02*
X55245000Y-130205300D01*
X47625000Y-126365000D02*
X47625000Y-125064700D01*
X29845000Y-126365000D02*
X29845000Y-125064700D01*
X55245000Y-128905000D02*
X55245000Y-130205300D01*
D17*
X41920800Y-117690400D02*
X45436300Y-114174900D01*
X45436300Y-114174900D02*
X47839800Y-114174900D01*
X55696800Y-106317900D02*
X53742300Y-104363400D01*
X53742300Y-104363400D02*
X47932600Y-104363400D01*
X47932600Y-104363400D02*
X47392100Y-104903900D01*
X31795400Y-124692500D02*
X32596200Y-123891700D01*
X32596200Y-123891700D02*
X42339200Y-123891700D01*
X60960000Y-100330000D02*
X59150200Y-98520200D01*
X59150200Y-98520200D02*
X31590700Y-98520200D01*
X31590700Y-98520200D02*
X29399100Y-100711800D01*
X29399100Y-100711800D02*
X29399100Y-110153900D01*
X38829700Y-128905000D02*
X38829700Y-128537600D01*
X38829700Y-128537600D02*
X38021800Y-127729700D01*
X38021800Y-127729700D02*
X29547300Y-127729700D01*
X29547300Y-127729700D02*
X28656300Y-126838700D01*
X28656300Y-126838700D02*
X28656300Y-121071500D01*
X28656300Y-121071500D02*
X41855300Y-107872500D01*
X41855300Y-107872500D02*
X64153800Y-107872500D01*
X64153800Y-107872500D02*
X65913000Y-106113300D01*
X65913000Y-106113300D02*
X65913000Y-105730600D01*
X65913000Y-105730600D02*
X69961200Y-101682400D01*
X69961200Y-101682400D02*
X72307600Y-101682400D01*
X72307600Y-101682400D02*
X73660000Y-100330000D01*
X40005000Y-128905000D02*
X38829700Y-128905000D01*
M02*
