G04 #@! TF.GenerationSoftware,KiCad,Pcbnew,5.99.0-unknown-r16821-0ff20c18*
G04 #@! TF.CreationDate,2019-09-29T17:51:57-05:00*
G04 #@! TF.ProjectId,led_module,6c65645f-6d6f-4647-956c-652e6b696361,rev?*
G04 #@! TF.SameCoordinates,Original*
G04 #@! TF.FileFunction,Copper,L2,Bot*
G04 #@! TF.FilePolarity,Positive*
%FSLAX46Y46*%
G04 Gerber Fmt 4.6, Leading zero omitted, Abs format (unit mm)*
G04 Created by KiCad (PCBNEW 5.99.0-unknown-r16821-0ff20c18) date 2019-09-29 17:51:57*
%MOMM*%
%LPD*%
G04 APERTURE LIST*
%ADD10O,1.700000X1.700000*%
%ADD11R,1.700000X1.700000*%
%ADD12R,1.408000X1.408000*%
%ADD13C,1.408000*%
%ADD14C,0.250000*%
G04 APERTURE END LIST*
D10*
X29845000Y-128905000D03*
X29845000Y-126365000D03*
X32385000Y-128905000D03*
X32385000Y-126365000D03*
X34925000Y-128905000D03*
X34925000Y-126365000D03*
X37465000Y-128905000D03*
X37465000Y-126365000D03*
X40005000Y-128905000D03*
X40005000Y-126365000D03*
X42545000Y-128905000D03*
X42545000Y-126365000D03*
X45085000Y-128905000D03*
X45085000Y-126365000D03*
X47625000Y-128905000D03*
X47625000Y-126365000D03*
X50165000Y-128905000D03*
X50165000Y-126365000D03*
X52705000Y-128905000D03*
X52705000Y-126365000D03*
X55245000Y-128905000D03*
X55245000Y-126365000D03*
X57785000Y-128905000D03*
X57785000Y-126365000D03*
X60325000Y-128905000D03*
X60325000Y-126365000D03*
X62865000Y-128905000D03*
X62865000Y-126365000D03*
X65405000Y-128905000D03*
X65405000Y-126365000D03*
X67945000Y-128905000D03*
X67945000Y-126365000D03*
X70485000Y-128905000D03*
X70485000Y-126365000D03*
X73025000Y-128905000D03*
X73025000Y-126365000D03*
X75565000Y-128905000D03*
X75565000Y-126365000D03*
X78105000Y-128905000D03*
D11*
X78105000Y-126365000D03*
D12*
X57023000Y-121158000D03*
D13*
X59563000Y-121158000D03*
X62103000Y-121158000D03*
X64643000Y-121158000D03*
X67183000Y-121158000D03*
X69723000Y-121158000D03*
X72263000Y-121158000D03*
X74803000Y-121158000D03*
X77343000Y-121158000D03*
X77343000Y-105918000D03*
X74803000Y-105918000D03*
X72263000Y-105918000D03*
X69723000Y-105918000D03*
X67183000Y-105918000D03*
X64643000Y-105918000D03*
X62103000Y-105918000D03*
X59563000Y-105918000D03*
X57023000Y-105918000D03*
D12*
X30480000Y-121158000D03*
D13*
X33020000Y-121158000D03*
X35560000Y-121158000D03*
X38100000Y-121158000D03*
X40640000Y-121158000D03*
X43180000Y-121158000D03*
X45720000Y-121158000D03*
X48260000Y-121158000D03*
X50800000Y-121158000D03*
X50800000Y-105918000D03*
X48260000Y-105918000D03*
X45720000Y-105918000D03*
X43180000Y-105918000D03*
X40640000Y-105918000D03*
X38100000Y-105918000D03*
X35560000Y-105918000D03*
X33020000Y-105918000D03*
X30480000Y-105918000D03*
D14*
X41180300Y-129272400D02*
X41180300Y-128905000D01*
X41988200Y-130080300D02*
X41180300Y-129272400D01*
X48208500Y-130080300D02*
X41988200Y-130080300D01*
X48895000Y-129393800D02*
X48208500Y-130080300D01*
X48895000Y-128510800D02*
X48895000Y-129393800D01*
X49865400Y-127540400D02*
X48895000Y-128510800D01*
X55754000Y-127540400D02*
X49865400Y-127540400D01*
X56515000Y-126779400D02*
X55754000Y-127540400D01*
X56515000Y-124061300D02*
X56515000Y-126779400D01*
X58133700Y-122442600D02*
X56515000Y-124061300D01*
X58133700Y-121058700D02*
X58133700Y-122442600D01*
X65936900Y-113255500D02*
X58133700Y-121058700D01*
X67465500Y-113255500D02*
X65936900Y-113255500D01*
X74803000Y-105918000D02*
X67465500Y-113255500D01*
X40005000Y-128905000D02*
X41180300Y-128905000D01*
X30212400Y-127729700D02*
X29845000Y-127729700D01*
X31020300Y-126921800D02*
X30212400Y-127729700D01*
X31020300Y-124137200D02*
X31020300Y-126921800D01*
X31990600Y-123166900D02*
X31020300Y-124137200D01*
X31990600Y-109487400D02*
X31990600Y-123166900D01*
X35560000Y-105918000D02*
X31990600Y-109487400D01*
X29845000Y-128905000D02*
X29845000Y-127729700D01*
X33560300Y-129272400D02*
X33560300Y-128905000D01*
X34368200Y-130080300D02*
X33560300Y-129272400D01*
X37951900Y-130080300D02*
X34368200Y-130080300D01*
X38640300Y-129391900D02*
X37951900Y-130080300D01*
X38640300Y-128592200D02*
X38640300Y-129391900D01*
X39502800Y-127729700D02*
X38640300Y-128592200D01*
X42886300Y-127729700D02*
X39502800Y-127729700D01*
X43720400Y-126895600D02*
X42886300Y-127729700D01*
X43720400Y-122376600D02*
X43720400Y-126895600D01*
X44227100Y-121869900D02*
X43720400Y-122376600D01*
X44227100Y-116200900D02*
X44227100Y-121869900D01*
X48260000Y-112168000D02*
X44227100Y-116200900D01*
X48260000Y-105918000D02*
X48260000Y-112168000D01*
X32385000Y-128905000D02*
X33560300Y-128905000D01*
X50165000Y-126365000D02*
X50165000Y-125189700D01*
X47188100Y-115752900D02*
X57023000Y-105918000D01*
X47188100Y-122212800D02*
X47188100Y-115752900D01*
X50165000Y-125189700D02*
X47188100Y-122212800D01*
X44677500Y-124782200D02*
X45085000Y-125189700D01*
X44677500Y-116806000D02*
X44677500Y-124782200D01*
X56594900Y-104888600D02*
X44677500Y-116806000D01*
X58533600Y-104888600D02*
X56594900Y-104888600D01*
X59563000Y-105918000D02*
X58533600Y-104888600D01*
X45085000Y-126365000D02*
X45085000Y-125189700D01*
X42545000Y-126365000D02*
X42545000Y-125189700D01*
X42148100Y-124792800D02*
X42545000Y-125189700D01*
X42148100Y-116792400D02*
X42148100Y-124792800D01*
X44234400Y-114706100D02*
X42148100Y-116792400D01*
X44234400Y-105070000D02*
X44234400Y-114706100D01*
X44048000Y-104883600D02*
X44234400Y-105070000D01*
X42692100Y-104883600D02*
X44048000Y-104883600D01*
X41676900Y-105898800D02*
X42692100Y-104883600D01*
X41676900Y-106458500D02*
X41676900Y-105898800D01*
X41178700Y-106956700D02*
X41676900Y-106458500D01*
X39138700Y-106956700D02*
X41178700Y-106956700D01*
X38100000Y-105918000D02*
X39138700Y-106956700D01*
X62712900Y-103987900D02*
X64643000Y-105918000D01*
X45316500Y-103987900D02*
X62712900Y-103987900D01*
X44234400Y-105070000D02*
X45316500Y-103987900D01*
X40005000Y-126365000D02*
X38829700Y-126365000D01*
X38829700Y-126732400D02*
X38829700Y-126365000D01*
X38021800Y-127540300D02*
X38829700Y-126732400D01*
X36975500Y-127540300D02*
X38021800Y-127540300D01*
X36246100Y-126810900D02*
X36975500Y-127540300D01*
X36246100Y-122080100D02*
X36246100Y-126810900D01*
X36603700Y-121722500D02*
X36246100Y-122080100D01*
X36603700Y-105883600D02*
X36603700Y-121722500D01*
X37616400Y-104870900D02*
X36603700Y-105883600D01*
X39592900Y-104870900D02*
X37616400Y-104870900D01*
X40640000Y-105918000D02*
X39592900Y-104870900D01*
X64798800Y-103533800D02*
X67183000Y-105918000D01*
X43024200Y-103533800D02*
X64798800Y-103533800D01*
X40640000Y-105918000D02*
X43024200Y-103533800D01*
X39529400Y-123125300D02*
X37465000Y-125189700D01*
X39529400Y-109568600D02*
X39529400Y-123125300D01*
X43180000Y-105918000D02*
X39529400Y-109568600D01*
X37465000Y-126365000D02*
X37465000Y-125189700D01*
X71209600Y-106971400D02*
X72263000Y-105918000D01*
X61679100Y-106971400D02*
X71209600Y-106971400D01*
X60833000Y-106125300D02*
X61679100Y-106971400D01*
X60833000Y-105631900D02*
X60833000Y-106125300D01*
X59639300Y-104438200D02*
X60833000Y-105631900D01*
X47199800Y-104438200D02*
X59639300Y-104438200D01*
X45720000Y-105918000D02*
X47199800Y-104438200D01*
X50800000Y-123284700D02*
X52705000Y-125189700D01*
X50800000Y-121158000D02*
X50800000Y-123284700D01*
X52705000Y-126365000D02*
X52705000Y-125189700D01*
X55245000Y-124121900D02*
X55245000Y-126365000D01*
X51215900Y-120092800D02*
X55245000Y-124121900D01*
X49325200Y-120092800D02*
X51215900Y-120092800D01*
X48260000Y-121158000D02*
X49325200Y-120092800D01*
X71230300Y-120125300D02*
X72263000Y-121158000D01*
X66755600Y-120125300D02*
X71230300Y-120125300D01*
X65913000Y-120967900D02*
X66755600Y-120125300D01*
X65913000Y-121411000D02*
X65913000Y-120967900D01*
X61500300Y-125823700D02*
X65913000Y-121411000D01*
X61500300Y-126365000D02*
X61500300Y-125823700D01*
X60325000Y-126365000D02*
X61500300Y-126365000D01*
X66675000Y-124206000D02*
X69723000Y-121158000D01*
X66675000Y-126796000D02*
X66675000Y-124206000D01*
X65930600Y-127540400D02*
X66675000Y-126796000D01*
X64848400Y-127540400D02*
X65930600Y-127540400D01*
X64040300Y-126732300D02*
X64848400Y-127540400D01*
X64040300Y-126365000D02*
X64040300Y-126732300D01*
X62865000Y-126365000D02*
X64040300Y-126365000D01*
X65405000Y-122936000D02*
X65405000Y-126365000D01*
X67183000Y-121158000D02*
X65405000Y-122936000D01*
X70485000Y-126365000D02*
X70485000Y-125189700D01*
X73293600Y-122381100D02*
X70485000Y-125189700D01*
X73293600Y-120711500D02*
X73293600Y-122381100D01*
X72255300Y-119673200D02*
X73293600Y-120711500D01*
X66127800Y-119673200D02*
X72255300Y-119673200D01*
X64643000Y-121158000D02*
X66127800Y-119673200D01*
X73743900Y-124470800D02*
X73025000Y-125189700D01*
X73743900Y-120522100D02*
X73743900Y-124470800D01*
X72444100Y-119222300D02*
X73743900Y-120522100D01*
X61498700Y-119222300D02*
X72444100Y-119222300D01*
X59563000Y-121158000D02*
X61498700Y-119222300D01*
X73025000Y-126365000D02*
X73025000Y-125189700D01*
M02*
