M48
; DRILL file {KiCad 5.99.0-unknown-r16821-0ff20c18} date Thu 24 Oct 2019 07:33:06 PM CDT
; FORMAT={-:-/ absolute / inch / decimal}
; #@! TF.CreationDate,2019-10-24T19:33:06-05:00
; #@! TF.GenerationSoftware,Kicad,Pcbnew,5.99.0-unknown-r16821-0ff20c18
FMAT,2
INCH
T1C0.0157
T2C0.0315
T3C0.0354
T4C0.0394
%
G90
G05
T1
X1.1574Y-4.3368
X1.2518Y-4.9092
X1.3213Y-4.6875
X1.4362Y-4.4182
X1.5661Y-4.6646
X1.6184Y-4.6
X1.6504Y-4.6335
X1.6669Y-4.8776
X1.8658Y-4.1301
X1.8835Y-4.4951
X2.0149Y-4.7165
X2.1928Y-4.1857
X2.1985Y-4.4348
X2.2549Y-4.6659
X2.5245Y-4.5236
X2.62Y-4.4665
X2.7064Y-4.6259
T2
X1.25Y-3.95
X1.35Y-3.95
X1.45Y-3.95
X2.8Y-3.95
X2.9Y-3.95
X3.0Y-3.95
X2.3Y-3.95
X2.4Y-3.95
X2.5Y-3.95
X1.75Y-3.95
X1.85Y-3.95
X1.95Y-3.95
T3
X2.245Y-4.17
X2.245Y-4.77
X2.345Y-4.17
X2.345Y-4.77
X2.445Y-4.17
X2.445Y-4.77
X2.545Y-4.17
X2.545Y-4.77
X2.645Y-4.17
X2.645Y-4.77
X2.745Y-4.17
X2.745Y-4.77
X2.845Y-4.17
X2.845Y-4.77
X2.945Y-4.17
X2.945Y-4.77
X3.045Y-4.17
X3.045Y-4.77
X1.2Y-4.17
X1.2Y-4.77
X1.3Y-4.17
X1.3Y-4.77
X1.4Y-4.17
X1.4Y-4.77
X1.5Y-4.17
X1.5Y-4.77
X1.6Y-4.17
X1.6Y-4.77
X1.7Y-4.17
X1.7Y-4.77
X1.8Y-4.17
X1.8Y-4.77
X1.9Y-4.17
X1.9Y-4.77
X2.0Y-4.17
X2.0Y-4.77
T4
X1.175Y-4.975
X1.175Y-5.075
X1.275Y-4.975
X1.275Y-5.075
X1.375Y-4.975
X1.375Y-5.075
X1.475Y-4.975
X1.475Y-5.075
X1.575Y-4.975
X1.575Y-5.075
X1.675Y-4.975
X1.675Y-5.075
X1.775Y-4.975
X1.775Y-5.075
X1.875Y-4.975
X1.875Y-5.075
X1.975Y-4.975
X1.975Y-5.075
X2.075Y-4.975
X2.075Y-5.075
X2.175Y-4.975
X2.175Y-5.075
X2.275Y-4.975
X2.275Y-5.075
X2.375Y-4.975
X2.375Y-5.075
X2.475Y-4.975
X2.475Y-5.075
X2.575Y-4.975
X2.575Y-5.075
X2.675Y-4.975
X2.675Y-5.075
X2.775Y-4.975
X2.775Y-5.075
X2.875Y-4.975
X2.875Y-5.075
X2.975Y-4.975
X2.975Y-5.075
X3.075Y-4.975
X3.075Y-5.075
T0
M30
