M48
; DRILL file {KiCad 5.99.0-unknown-r16821-0ff20c18} date Sun 13 Oct 2019 02:57:20 PM CDT
; FORMAT={-:-/ absolute / inch / decimal}
; #@! TF.CreationDate,2019-10-13T14:57:20-05:00
; #@! TF.GenerationSoftware,Kicad,Pcbnew,5.99.0-unknown-r16821-0ff20c18
FMAT,2
INCH
T1C0.0157
T2C0.0295
T3C0.0354
T4C0.0394
%
G90
G05
T1
X1.4176Y-4.8249
X1.496Y-4.6259
X1.5795Y-4.3192
X1.676Y-4.6238
X1.7184Y-4.6224
X1.719Y-4.3302
X1.7918Y-4.0335
X1.8311Y-4.0164
X2.0117Y-4.5773
X2.0956Y-4.0875
X2.1069Y-4.1319
X2.1892Y-4.1836
X2.2197Y-4.5852
X2.6282Y-4.3011
X2.7064Y-4.2325
X2.7336Y-4.0586
T2
X2.35Y-3.95
X2.4Y-3.95
X2.45Y-3.95
X1.8Y-3.95
X1.85Y-3.95
X1.9Y-3.95
X1.3Y-3.95
X1.35Y-3.95
X1.4Y-3.95
X2.85Y-3.95
X2.9Y-3.95
X2.95Y-3.95
T3
X2.245Y-4.17
X2.245Y-4.77
X2.345Y-4.17
X2.345Y-4.77
X2.445Y-4.17
X2.445Y-4.77
X2.545Y-4.17
X2.545Y-4.77
X2.645Y-4.17
X2.645Y-4.77
X2.745Y-4.17
X2.745Y-4.77
X2.845Y-4.17
X2.845Y-4.77
X2.945Y-4.17
X2.945Y-4.77
X3.045Y-4.17
X3.045Y-4.77
X1.2Y-4.17
X1.2Y-4.77
X1.3Y-4.17
X1.3Y-4.77
X1.4Y-4.17
X1.4Y-4.77
X1.5Y-4.17
X1.5Y-4.77
X1.6Y-4.17
X1.6Y-4.77
X1.7Y-4.17
X1.7Y-4.77
X1.8Y-4.17
X1.8Y-4.77
X1.9Y-4.17
X1.9Y-4.77
X2.0Y-4.17
X2.0Y-4.77
T4
X1.175Y-4.975
X1.175Y-5.075
X1.275Y-4.975
X1.275Y-5.075
X1.375Y-4.975
X1.375Y-5.075
X1.475Y-4.975
X1.475Y-5.075
X1.575Y-4.975
X1.575Y-5.075
X1.675Y-4.975
X1.675Y-5.075
X1.775Y-4.975
X1.775Y-5.075
X1.875Y-4.975
X1.875Y-5.075
X1.975Y-4.975
X1.975Y-5.075
X2.075Y-4.975
X2.075Y-5.075
X2.175Y-4.975
X2.175Y-5.075
X2.275Y-4.975
X2.275Y-5.075
X2.375Y-4.975
X2.375Y-5.075
X2.475Y-4.975
X2.475Y-5.075
X2.575Y-4.975
X2.575Y-5.075
X2.675Y-4.975
X2.675Y-5.075
X2.775Y-4.975
X2.775Y-5.075
X2.875Y-4.975
X2.875Y-5.075
X2.975Y-4.975
X2.975Y-5.075
X3.075Y-4.975
X3.075Y-5.075
T0
M30
