G04 #@! TF.GenerationSoftware,KiCad,Pcbnew,5.99.0-unknown-r16821-0ff20c18*
G04 #@! TF.CreationDate,2019-10-13T14:57:24-05:00*
G04 #@! TF.ProjectId,led_module,6c65645f-6d6f-4647-956c-652e6b696361,B*
G04 #@! TF.SameCoordinates,Original*
G04 #@! TF.FileFunction,Legend,Bot*
G04 #@! TF.FilePolarity,Positive*
%FSLAX46Y46*%
G04 Gerber Fmt 4.6, Leading zero omitted, Abs format (unit mm)*
G04 Created by KiCad (PCBNEW 5.99.0-unknown-r16821-0ff20c18) date 2019-10-13 14:57:24*
%MOMM*%
%LPD*%
G04 APERTURE LIST*
%ADD10C,0.010000*%
%ADD11C,0.120000*%
%ADD12C,0.150000*%
G04 APERTURE END LIST*
D10*
G36*
X56989763Y-117548269D02*
G01*
X56990300Y-117591802D01*
X56992019Y-117737344D01*
X56992365Y-117848711D01*
X56990277Y-117929804D01*
X56984698Y-117984522D01*
X56974567Y-118016761D01*
X56958826Y-118030422D01*
X56936417Y-118029403D01*
X56906280Y-118017603D01*
X56867355Y-117998920D01*
X56859038Y-117994933D01*
X56824402Y-117975419D01*
X56806314Y-117952202D01*
X56799392Y-117913492D01*
X56798256Y-117847497D01*
X56798205Y-117729000D01*
X56676141Y-117729000D01*
X56601055Y-117725712D01*
X56542015Y-117712377D01*
X56492986Y-117685423D01*
X56489330Y-117682788D01*
X56439581Y-117638286D01*
X56404959Y-117584523D01*
X56383123Y-117514154D01*
X56371737Y-117419830D01*
X56368960Y-117313271D01*
X56563846Y-117313271D01*
X56563880Y-117331131D01*
X56565735Y-117411748D01*
X56571693Y-117464447D01*
X56583506Y-117498668D01*
X56602923Y-117523846D01*
X56604133Y-117525049D01*
X56651858Y-117557628D01*
X56698110Y-117554417D01*
X56750350Y-117514965D01*
X56763128Y-117501482D01*
X56781949Y-117473837D01*
X56792562Y-117437880D01*
X56797252Y-117383364D01*
X56798308Y-117300042D01*
X56797394Y-117249598D01*
X56787477Y-117157857D01*
X56764842Y-117097752D01*
X56727238Y-117064900D01*
X56672416Y-117054923D01*
X56649317Y-117057050D01*
X56609350Y-117078147D01*
X56582926Y-117125161D01*
X56568330Y-117202175D01*
X56563846Y-117313271D01*
X56368960Y-117313271D01*
X56368462Y-117294206D01*
X56369187Y-117202536D01*
X56372490Y-117133098D01*
X56379828Y-117084945D01*
X56392655Y-117048866D01*
X56412423Y-117015648D01*
X56430569Y-116990261D01*
X56496461Y-116921727D01*
X56571114Y-116884505D01*
X56664904Y-116872722D01*
X56772240Y-116884467D01*
X56865031Y-116926595D01*
X56938421Y-117000898D01*
X56943954Y-117008764D01*
X56956857Y-117029668D01*
X56966742Y-117053555D01*
X56974093Y-117085582D01*
X56979394Y-117130905D01*
X56983127Y-117194679D01*
X56985778Y-117282060D01*
X56986096Y-117300042D01*
X56987828Y-117398205D01*
X56989763Y-117548269D01*
X56989763Y-117548269D01*
G37*
X56989763Y-117548269D02*
X56990300Y-117591802D01*
X56992019Y-117737344D01*
X56992365Y-117848711D01*
X56990277Y-117929804D01*
X56984698Y-117984522D01*
X56974567Y-118016761D01*
X56958826Y-118030422D01*
X56936417Y-118029403D01*
X56906280Y-118017603D01*
X56867355Y-117998920D01*
X56859038Y-117994933D01*
X56824402Y-117975419D01*
X56806314Y-117952202D01*
X56799392Y-117913492D01*
X56798256Y-117847497D01*
X56798205Y-117729000D01*
X56676141Y-117729000D01*
X56601055Y-117725712D01*
X56542015Y-117712377D01*
X56492986Y-117685423D01*
X56489330Y-117682788D01*
X56439581Y-117638286D01*
X56404959Y-117584523D01*
X56383123Y-117514154D01*
X56371737Y-117419830D01*
X56368960Y-117313271D01*
X56563846Y-117313271D01*
X56563880Y-117331131D01*
X56565735Y-117411748D01*
X56571693Y-117464447D01*
X56583506Y-117498668D01*
X56602923Y-117523846D01*
X56604133Y-117525049D01*
X56651858Y-117557628D01*
X56698110Y-117554417D01*
X56750350Y-117514965D01*
X56763128Y-117501482D01*
X56781949Y-117473837D01*
X56792562Y-117437880D01*
X56797252Y-117383364D01*
X56798308Y-117300042D01*
X56797394Y-117249598D01*
X56787477Y-117157857D01*
X56764842Y-117097752D01*
X56727238Y-117064900D01*
X56672416Y-117054923D01*
X56649317Y-117057050D01*
X56609350Y-117078147D01*
X56582926Y-117125161D01*
X56568330Y-117202175D01*
X56563846Y-117313271D01*
X56368960Y-117313271D01*
X56368462Y-117294206D01*
X56369187Y-117202536D01*
X56372490Y-117133098D01*
X56379828Y-117084945D01*
X56392655Y-117048866D01*
X56412423Y-117015648D01*
X56430569Y-116990261D01*
X56496461Y-116921727D01*
X56571114Y-116884505D01*
X56664904Y-116872722D01*
X56772240Y-116884467D01*
X56865031Y-116926595D01*
X56938421Y-117000898D01*
X56943954Y-117008764D01*
X56956857Y-117029668D01*
X56966742Y-117053555D01*
X56974093Y-117085582D01*
X56979394Y-117130905D01*
X56983127Y-117194679D01*
X56985778Y-117282060D01*
X56986096Y-117300042D01*
X56987828Y-117398205D01*
X56989763Y-117548269D01*
G36*
X55266372Y-116881684D02*
G01*
X55357629Y-116924569D01*
X55432416Y-116998729D01*
X55447917Y-117021944D01*
X55460774Y-117048256D01*
X55469893Y-117081420D01*
X55476102Y-117127881D01*
X55480233Y-117194082D01*
X55483116Y-117286468D01*
X55485579Y-117411485D01*
X55491697Y-117758278D01*
X55440303Y-117738738D01*
X55393246Y-117720787D01*
X55358015Y-117703511D01*
X55335017Y-117681242D01*
X55321655Y-117647165D01*
X55315328Y-117594463D01*
X55313437Y-117516323D01*
X55313385Y-117405928D01*
X55313117Y-117317935D01*
X55311521Y-117233502D01*
X55307712Y-117175834D01*
X55300820Y-117137988D01*
X55289975Y-117113024D01*
X55274308Y-117094000D01*
X55235792Y-117067153D01*
X55171091Y-117057034D01*
X55107081Y-117082606D01*
X55102856Y-117085880D01*
X55089689Y-117101007D01*
X55079975Y-117125268D01*
X55072903Y-117164650D01*
X55067656Y-117225141D01*
X55063421Y-117312729D01*
X55059385Y-117433402D01*
X55049615Y-117756515D01*
X54883539Y-117682065D01*
X54883539Y-117387062D01*
X54883883Y-117306919D01*
X54886847Y-117195431D01*
X54894351Y-117112421D01*
X54908190Y-117051199D01*
X54930155Y-117005075D01*
X54962039Y-116967358D01*
X55005633Y-116931358D01*
X55068336Y-116895089D01*
X55167117Y-116871412D01*
X55266372Y-116881684D01*
X55266372Y-116881684D01*
G37*
X55266372Y-116881684D02*
X55357629Y-116924569D01*
X55432416Y-116998729D01*
X55447917Y-117021944D01*
X55460774Y-117048256D01*
X55469893Y-117081420D01*
X55476102Y-117127881D01*
X55480233Y-117194082D01*
X55483116Y-117286468D01*
X55485579Y-117411485D01*
X55491697Y-117758278D01*
X55440303Y-117738738D01*
X55393246Y-117720787D01*
X55358015Y-117703511D01*
X55335017Y-117681242D01*
X55321655Y-117647165D01*
X55315328Y-117594463D01*
X55313437Y-117516323D01*
X55313385Y-117405928D01*
X55313117Y-117317935D01*
X55311521Y-117233502D01*
X55307712Y-117175834D01*
X55300820Y-117137988D01*
X55289975Y-117113024D01*
X55274308Y-117094000D01*
X55235792Y-117067153D01*
X55171091Y-117057034D01*
X55107081Y-117082606D01*
X55102856Y-117085880D01*
X55089689Y-117101007D01*
X55079975Y-117125268D01*
X55072903Y-117164650D01*
X55067656Y-117225141D01*
X55063421Y-117312729D01*
X55059385Y-117433402D01*
X55049615Y-117756515D01*
X54883539Y-117682065D01*
X54883539Y-117387062D01*
X54883883Y-117306919D01*
X54886847Y-117195431D01*
X54894351Y-117112421D01*
X54908190Y-117051199D01*
X54930155Y-117005075D01*
X54962039Y-116967358D01*
X55005633Y-116931358D01*
X55068336Y-116895089D01*
X55167117Y-116871412D01*
X55266372Y-116881684D01*
G36*
X57736135Y-117330105D02*
G01*
X57735076Y-117424584D01*
X57731436Y-117490414D01*
X57723892Y-117536394D01*
X57711122Y-117571321D01*
X57691803Y-117603995D01*
X57687050Y-117610775D01*
X57636759Y-117664231D01*
X57579457Y-117704547D01*
X57550032Y-117717629D01*
X57444299Y-117739450D01*
X57339734Y-117725336D01*
X57243368Y-117677105D01*
X57162235Y-117596579D01*
X57155385Y-117585791D01*
X57133097Y-117523153D01*
X57118079Y-117435935D01*
X57110792Y-117335210D01*
X57111611Y-117242037D01*
X57308796Y-117242037D01*
X57310349Y-117371114D01*
X57310974Y-117379420D01*
X57320077Y-117450643D01*
X57336288Y-117495809D01*
X57363660Y-117526752D01*
X57409553Y-117555737D01*
X57454942Y-117557261D01*
X57501692Y-117523846D01*
X57509824Y-117515053D01*
X57525754Y-117488741D01*
X57535159Y-117450520D01*
X57539632Y-117391349D01*
X57540769Y-117302182D01*
X57538822Y-117218664D01*
X57529105Y-117139095D01*
X57509047Y-117088808D01*
X57476240Y-117062513D01*
X57428280Y-117054923D01*
X57410016Y-117056432D01*
X57358848Y-117084107D01*
X57325035Y-117146172D01*
X57308796Y-117242037D01*
X57111611Y-117242037D01*
X57111699Y-117232052D01*
X57121262Y-117137533D01*
X57139943Y-117062727D01*
X57163951Y-117012905D01*
X57231536Y-116935409D01*
X57323114Y-116887256D01*
X57435213Y-116870703D01*
X57465151Y-116871599D01*
X57553315Y-116889929D01*
X57625733Y-116936104D01*
X57692192Y-117015648D01*
X57696147Y-117021548D01*
X57714040Y-117053288D01*
X57725678Y-117089163D01*
X57732371Y-117137906D01*
X57735426Y-117208249D01*
X57736106Y-117302182D01*
X57736154Y-117308923D01*
X57736135Y-117330105D01*
X57736135Y-117330105D01*
G37*
X57736135Y-117330105D02*
X57735076Y-117424584D01*
X57731436Y-117490414D01*
X57723892Y-117536394D01*
X57711122Y-117571321D01*
X57691803Y-117603995D01*
X57687050Y-117610775D01*
X57636759Y-117664231D01*
X57579457Y-117704547D01*
X57550032Y-117717629D01*
X57444299Y-117739450D01*
X57339734Y-117725336D01*
X57243368Y-117677105D01*
X57162235Y-117596579D01*
X57155385Y-117585791D01*
X57133097Y-117523153D01*
X57118079Y-117435935D01*
X57110792Y-117335210D01*
X57111611Y-117242037D01*
X57308796Y-117242037D01*
X57310349Y-117371114D01*
X57310974Y-117379420D01*
X57320077Y-117450643D01*
X57336288Y-117495809D01*
X57363660Y-117526752D01*
X57409553Y-117555737D01*
X57454942Y-117557261D01*
X57501692Y-117523846D01*
X57509824Y-117515053D01*
X57525754Y-117488741D01*
X57535159Y-117450520D01*
X57539632Y-117391349D01*
X57540769Y-117302182D01*
X57538822Y-117218664D01*
X57529105Y-117139095D01*
X57509047Y-117088808D01*
X57476240Y-117062513D01*
X57428280Y-117054923D01*
X57410016Y-117056432D01*
X57358848Y-117084107D01*
X57325035Y-117146172D01*
X57308796Y-117242037D01*
X57111611Y-117242037D01*
X57111699Y-117232052D01*
X57121262Y-117137533D01*
X57139943Y-117062727D01*
X57163951Y-117012905D01*
X57231536Y-116935409D01*
X57323114Y-116887256D01*
X57435213Y-116870703D01*
X57465151Y-116871599D01*
X57553315Y-116889929D01*
X57625733Y-116936104D01*
X57692192Y-117015648D01*
X57696147Y-117021548D01*
X57714040Y-117053288D01*
X57725678Y-117089163D01*
X57732371Y-117137906D01*
X57735426Y-117208249D01*
X57736106Y-117302182D01*
X57736154Y-117308923D01*
X57736135Y-117330105D01*
G36*
X56244574Y-117401643D02*
G01*
X56241066Y-117433021D01*
X56214927Y-117544705D01*
X56167694Y-117629642D01*
X56095862Y-117694741D01*
X56091802Y-117697428D01*
X56000487Y-117735634D01*
X55905144Y-117739034D01*
X55813274Y-117709939D01*
X55732379Y-117650660D01*
X55669962Y-117563510D01*
X55668914Y-117561409D01*
X55648173Y-117507289D01*
X55632980Y-117445781D01*
X55624921Y-117388039D01*
X55625582Y-117345215D01*
X55636548Y-117328462D01*
X55646290Y-117329480D01*
X55692877Y-117348009D01*
X55745682Y-117382081D01*
X55790603Y-117421522D01*
X55813535Y-117456155D01*
X55837373Y-117503133D01*
X55886230Y-117545862D01*
X55942963Y-117562923D01*
X55963758Y-117557990D01*
X56004804Y-117533157D01*
X56040557Y-117498685D01*
X56055846Y-117467411D01*
X56055842Y-117467295D01*
X56038495Y-117452933D01*
X55992247Y-117427025D01*
X55924067Y-117393210D01*
X55840923Y-117355129D01*
X55840466Y-117354927D01*
X55750138Y-117314709D01*
X55689592Y-117285733D01*
X55652888Y-117263474D01*
X55634086Y-117243407D01*
X55627246Y-117221009D01*
X55626429Y-117191756D01*
X55632112Y-117136363D01*
X55825000Y-117136363D01*
X55844911Y-117153777D01*
X55894521Y-117179872D01*
X55895976Y-117180610D01*
X55954506Y-117208483D01*
X56006868Y-117230719D01*
X56040086Y-117240126D01*
X56053410Y-117227552D01*
X56055846Y-117184468D01*
X56045724Y-117130847D01*
X56010631Y-117082119D01*
X55959823Y-117056856D01*
X55903181Y-117059406D01*
X55850584Y-117094120D01*
X55829910Y-117118107D01*
X55825000Y-117136363D01*
X55632112Y-117136363D01*
X55633622Y-117121654D01*
X55669184Y-117026412D01*
X55728714Y-116951567D01*
X55805746Y-116899745D01*
X55893815Y-116873573D01*
X55986454Y-116875676D01*
X56077198Y-116908681D01*
X56159579Y-116975215D01*
X56205222Y-117041055D01*
X56238008Y-117135036D01*
X56243339Y-117184468D01*
X56250787Y-117253536D01*
X56244574Y-117401643D01*
X56244574Y-117401643D01*
G37*
X56244574Y-117401643D02*
X56241066Y-117433021D01*
X56214927Y-117544705D01*
X56167694Y-117629642D01*
X56095862Y-117694741D01*
X56091802Y-117697428D01*
X56000487Y-117735634D01*
X55905144Y-117739034D01*
X55813274Y-117709939D01*
X55732379Y-117650660D01*
X55669962Y-117563510D01*
X55668914Y-117561409D01*
X55648173Y-117507289D01*
X55632980Y-117445781D01*
X55624921Y-117388039D01*
X55625582Y-117345215D01*
X55636548Y-117328462D01*
X55646290Y-117329480D01*
X55692877Y-117348009D01*
X55745682Y-117382081D01*
X55790603Y-117421522D01*
X55813535Y-117456155D01*
X55837373Y-117503133D01*
X55886230Y-117545862D01*
X55942963Y-117562923D01*
X55963758Y-117557990D01*
X56004804Y-117533157D01*
X56040557Y-117498685D01*
X56055846Y-117467411D01*
X56055842Y-117467295D01*
X56038495Y-117452933D01*
X55992247Y-117427025D01*
X55924067Y-117393210D01*
X55840923Y-117355129D01*
X55840466Y-117354927D01*
X55750138Y-117314709D01*
X55689592Y-117285733D01*
X55652888Y-117263474D01*
X55634086Y-117243407D01*
X55627246Y-117221009D01*
X55626429Y-117191756D01*
X55632112Y-117136363D01*
X55825000Y-117136363D01*
X55844911Y-117153777D01*
X55894521Y-117179872D01*
X55895976Y-117180610D01*
X55954506Y-117208483D01*
X56006868Y-117230719D01*
X56040086Y-117240126D01*
X56053410Y-117227552D01*
X56055846Y-117184468D01*
X56045724Y-117130847D01*
X56010631Y-117082119D01*
X55959823Y-117056856D01*
X55903181Y-117059406D01*
X55850584Y-117094120D01*
X55829910Y-117118107D01*
X55825000Y-117136363D01*
X55632112Y-117136363D01*
X55633622Y-117121654D01*
X55669184Y-117026412D01*
X55728714Y-116951567D01*
X55805746Y-116899745D01*
X55893815Y-116873573D01*
X55986454Y-116875676D01*
X56077198Y-116908681D01*
X56159579Y-116975215D01*
X56205222Y-117041055D01*
X56238008Y-117135036D01*
X56243339Y-117184468D01*
X56250787Y-117253536D01*
X56244574Y-117401643D01*
G36*
X54316923Y-116681806D02*
G01*
X54316923Y-117216455D01*
X54316660Y-117355094D01*
X54315958Y-117479805D01*
X54314883Y-117585557D01*
X54313500Y-117667322D01*
X54311874Y-117720069D01*
X54310070Y-117738769D01*
X54309364Y-117738706D01*
X54285387Y-117731912D01*
X54241685Y-117717320D01*
X54180154Y-117695870D01*
X54180154Y-117420617D01*
X54179763Y-117312466D01*
X54177946Y-117234026D01*
X54173767Y-117180647D01*
X54166286Y-117145256D01*
X54154567Y-117120779D01*
X54137671Y-117100144D01*
X54126152Y-117089170D01*
X54063864Y-117058775D01*
X53995211Y-117061466D01*
X53932298Y-117097406D01*
X53923139Y-117106325D01*
X53908471Y-117124844D01*
X53898433Y-117149326D01*
X53892151Y-117186393D01*
X53888748Y-117242667D01*
X53887349Y-117324771D01*
X53887077Y-117439329D01*
X53886947Y-117497430D01*
X53886099Y-117592993D01*
X53884594Y-117669526D01*
X53882585Y-117720345D01*
X53880223Y-117738769D01*
X53879518Y-117738706D01*
X53855541Y-117731912D01*
X53811839Y-117717320D01*
X53750308Y-117695870D01*
X53750338Y-117419358D01*
X53750384Y-117394742D01*
X53752970Y-117266419D01*
X53760913Y-117169384D01*
X53776155Y-117097057D01*
X53800636Y-117042855D01*
X53836298Y-117000198D01*
X53885082Y-116962505D01*
X53932661Y-116938910D01*
X54008732Y-116920672D01*
X54083556Y-116919636D01*
X54141077Y-116937378D01*
X54145402Y-116939829D01*
X54158738Y-116939566D01*
X54167851Y-116919039D01*
X54174428Y-116871980D01*
X54180154Y-116792120D01*
X54189923Y-116628236D01*
X54316923Y-116681806D01*
X54316923Y-116681806D01*
G37*
X54316923Y-116681806D02*
X54316923Y-117216455D01*
X54316660Y-117355094D01*
X54315958Y-117479805D01*
X54314883Y-117585557D01*
X54313500Y-117667322D01*
X54311874Y-117720069D01*
X54310070Y-117738769D01*
X54309364Y-117738706D01*
X54285387Y-117731912D01*
X54241685Y-117717320D01*
X54180154Y-117695870D01*
X54180154Y-117420617D01*
X54179763Y-117312466D01*
X54177946Y-117234026D01*
X54173767Y-117180647D01*
X54166286Y-117145256D01*
X54154567Y-117120779D01*
X54137671Y-117100144D01*
X54126152Y-117089170D01*
X54063864Y-117058775D01*
X53995211Y-117061466D01*
X53932298Y-117097406D01*
X53923139Y-117106325D01*
X53908471Y-117124844D01*
X53898433Y-117149326D01*
X53892151Y-117186393D01*
X53888748Y-117242667D01*
X53887349Y-117324771D01*
X53887077Y-117439329D01*
X53886947Y-117497430D01*
X53886099Y-117592993D01*
X53884594Y-117669526D01*
X53882585Y-117720345D01*
X53880223Y-117738769D01*
X53879518Y-117738706D01*
X53855541Y-117731912D01*
X53811839Y-117717320D01*
X53750308Y-117695870D01*
X53750338Y-117419358D01*
X53750384Y-117394742D01*
X53752970Y-117266419D01*
X53760913Y-117169384D01*
X53776155Y-117097057D01*
X53800636Y-117042855D01*
X53836298Y-117000198D01*
X53885082Y-116962505D01*
X53932661Y-116938910D01*
X54008732Y-116920672D01*
X54083556Y-116919636D01*
X54141077Y-116937378D01*
X54145402Y-116939829D01*
X54158738Y-116939566D01*
X54167851Y-116919039D01*
X54174428Y-116871980D01*
X54180154Y-116792120D01*
X54189923Y-116628236D01*
X54316923Y-116681806D01*
G36*
X53460458Y-116939228D02*
G01*
X53527622Y-116978389D01*
X53557169Y-117008902D01*
X53613948Y-117100110D01*
X53633077Y-117199548D01*
X53633077Y-117267960D01*
X53570191Y-117241518D01*
X53526700Y-117214837D01*
X53492426Y-117159446D01*
X53488907Y-117148024D01*
X53451028Y-117089838D01*
X53393936Y-117058407D01*
X53328383Y-117057058D01*
X53265117Y-117089116D01*
X53255672Y-117097383D01*
X53224087Y-117133311D01*
X53218871Y-117164635D01*
X53242765Y-117195391D01*
X53298510Y-117229617D01*
X53388846Y-117271350D01*
X53394956Y-117273993D01*
X53495241Y-117320755D01*
X53563735Y-117362181D01*
X53605899Y-117403542D01*
X53627193Y-117450111D01*
X53633077Y-117507160D01*
X53625366Y-117570408D01*
X53586430Y-117651364D01*
X53517932Y-117709522D01*
X53468388Y-117726983D01*
X53398469Y-117736537D01*
X53330575Y-117734496D01*
X53282093Y-117720082D01*
X53276943Y-117716493D01*
X53263267Y-117691416D01*
X53272757Y-117647218D01*
X53289246Y-117612527D01*
X53315687Y-117598084D01*
X53365834Y-117598803D01*
X53435453Y-117594660D01*
X53480943Y-117566054D01*
X53496308Y-117513104D01*
X53496294Y-117511582D01*
X53486983Y-117480845D01*
X53455311Y-117452643D01*
X53393731Y-117420136D01*
X53309986Y-117380998D01*
X53254518Y-117359706D01*
X53222497Y-117361079D01*
X53207534Y-117389203D01*
X53203242Y-117448170D01*
X53203231Y-117542068D01*
X53202752Y-117600031D01*
X53200556Y-117671612D01*
X53196986Y-117720606D01*
X53192491Y-117738769D01*
X53191290Y-117738646D01*
X53165319Y-117728802D01*
X53122305Y-117708028D01*
X53062859Y-117677287D01*
X53069923Y-117400298D01*
X53070414Y-117381928D01*
X53076025Y-117252992D01*
X53085938Y-117155814D01*
X53102175Y-117083925D01*
X53126759Y-117030852D01*
X53161715Y-116990127D01*
X53209064Y-116955279D01*
X53209940Y-116954733D01*
X53286499Y-116926303D01*
X53375044Y-116921500D01*
X53460458Y-116939228D01*
X53460458Y-116939228D01*
G37*
X53460458Y-116939228D02*
X53527622Y-116978389D01*
X53557169Y-117008902D01*
X53613948Y-117100110D01*
X53633077Y-117199548D01*
X53633077Y-117267960D01*
X53570191Y-117241518D01*
X53526700Y-117214837D01*
X53492426Y-117159446D01*
X53488907Y-117148024D01*
X53451028Y-117089838D01*
X53393936Y-117058407D01*
X53328383Y-117057058D01*
X53265117Y-117089116D01*
X53255672Y-117097383D01*
X53224087Y-117133311D01*
X53218871Y-117164635D01*
X53242765Y-117195391D01*
X53298510Y-117229617D01*
X53388846Y-117271350D01*
X53394956Y-117273993D01*
X53495241Y-117320755D01*
X53563735Y-117362181D01*
X53605899Y-117403542D01*
X53627193Y-117450111D01*
X53633077Y-117507160D01*
X53625366Y-117570408D01*
X53586430Y-117651364D01*
X53517932Y-117709522D01*
X53468388Y-117726983D01*
X53398469Y-117736537D01*
X53330575Y-117734496D01*
X53282093Y-117720082D01*
X53276943Y-117716493D01*
X53263267Y-117691416D01*
X53272757Y-117647218D01*
X53289246Y-117612527D01*
X53315687Y-117598084D01*
X53365834Y-117598803D01*
X53435453Y-117594660D01*
X53480943Y-117566054D01*
X53496308Y-117513104D01*
X53496294Y-117511582D01*
X53486983Y-117480845D01*
X53455311Y-117452643D01*
X53393731Y-117420136D01*
X53309986Y-117380998D01*
X53254518Y-117359706D01*
X53222497Y-117361079D01*
X53207534Y-117389203D01*
X53203242Y-117448170D01*
X53203231Y-117542068D01*
X53202752Y-117600031D01*
X53200556Y-117671612D01*
X53196986Y-117720606D01*
X53192491Y-117738769D01*
X53191290Y-117738646D01*
X53165319Y-117728802D01*
X53122305Y-117708028D01*
X53062859Y-117677287D01*
X53069923Y-117400298D01*
X53070414Y-117381928D01*
X53076025Y-117252992D01*
X53085938Y-117155814D01*
X53102175Y-117083925D01*
X53126759Y-117030852D01*
X53161715Y-116990127D01*
X53209064Y-116955279D01*
X53209940Y-116954733D01*
X53286499Y-116926303D01*
X53375044Y-116921500D01*
X53460458Y-116939228D01*
G36*
X52811892Y-116947167D02*
G01*
X52818060Y-116950581D01*
X52868447Y-116989692D01*
X52913498Y-117039975D01*
X52921355Y-117051339D01*
X52936376Y-117077860D01*
X52947107Y-117109336D01*
X52954486Y-117152591D01*
X52959452Y-117214449D01*
X52962942Y-117301733D01*
X52965893Y-117421269D01*
X52966311Y-117441478D01*
X52967654Y-117572499D01*
X52965761Y-117665296D01*
X52960605Y-117720507D01*
X52952158Y-117738769D01*
X52926594Y-117733301D01*
X52883166Y-117716733D01*
X52872940Y-117711888D01*
X52856967Y-117700920D01*
X52845954Y-117682890D01*
X52838750Y-117651396D01*
X52834208Y-117600036D01*
X52831180Y-117522410D01*
X52828516Y-117412115D01*
X52827785Y-117379875D01*
X52824965Y-117278050D01*
X52821304Y-117206788D01*
X52815694Y-117159332D01*
X52807029Y-117128925D01*
X52794202Y-117108810D01*
X52776105Y-117092229D01*
X52722525Y-117063161D01*
X52656612Y-117057564D01*
X52597635Y-117079807D01*
X52555203Y-117125859D01*
X52538923Y-117191692D01*
X52538470Y-117209587D01*
X52529578Y-117241982D01*
X52503325Y-117246925D01*
X52451919Y-117227633D01*
X52440013Y-117221446D01*
X52407835Y-117185058D01*
X52407198Y-117130954D01*
X52437856Y-117056128D01*
X52465978Y-117015350D01*
X52537883Y-116957421D01*
X52626638Y-116924670D01*
X52721542Y-116920212D01*
X52811892Y-116947167D01*
X52811892Y-116947167D01*
G37*
X52811892Y-116947167D02*
X52818060Y-116950581D01*
X52868447Y-116989692D01*
X52913498Y-117039975D01*
X52921355Y-117051339D01*
X52936376Y-117077860D01*
X52947107Y-117109336D01*
X52954486Y-117152591D01*
X52959452Y-117214449D01*
X52962942Y-117301733D01*
X52965893Y-117421269D01*
X52966311Y-117441478D01*
X52967654Y-117572499D01*
X52965761Y-117665296D01*
X52960605Y-117720507D01*
X52952158Y-117738769D01*
X52926594Y-117733301D01*
X52883166Y-117716733D01*
X52872940Y-117711888D01*
X52856967Y-117700920D01*
X52845954Y-117682890D01*
X52838750Y-117651396D01*
X52834208Y-117600036D01*
X52831180Y-117522410D01*
X52828516Y-117412115D01*
X52827785Y-117379875D01*
X52824965Y-117278050D01*
X52821304Y-117206788D01*
X52815694Y-117159332D01*
X52807029Y-117128925D01*
X52794202Y-117108810D01*
X52776105Y-117092229D01*
X52722525Y-117063161D01*
X52656612Y-117057564D01*
X52597635Y-117079807D01*
X52555203Y-117125859D01*
X52538923Y-117191692D01*
X52538470Y-117209587D01*
X52529578Y-117241982D01*
X52503325Y-117246925D01*
X52451919Y-117227633D01*
X52440013Y-117221446D01*
X52407835Y-117185058D01*
X52407198Y-117130954D01*
X52437856Y-117056128D01*
X52465978Y-117015350D01*
X52537883Y-116957421D01*
X52626638Y-116924670D01*
X52721542Y-116920212D01*
X52811892Y-116947167D01*
G36*
X52302839Y-117404652D02*
G01*
X52291810Y-117508507D01*
X52267814Y-117586333D01*
X52228043Y-117645760D01*
X52169688Y-117694418D01*
X52114100Y-117722546D01*
X52020751Y-117738199D01*
X51927530Y-117721084D01*
X51843272Y-117673388D01*
X51776818Y-117597294D01*
X51768793Y-117583262D01*
X51758196Y-117558679D01*
X51750335Y-117527309D01*
X51744807Y-117483769D01*
X51741206Y-117422678D01*
X51739128Y-117338655D01*
X51739065Y-117331200D01*
X51874615Y-117331200D01*
X51875077Y-117402316D01*
X51877999Y-117466641D01*
X51885221Y-117508166D01*
X51898561Y-117536067D01*
X51919836Y-117559517D01*
X51924821Y-117564025D01*
X51988863Y-117597295D01*
X52056625Y-117593890D01*
X52119734Y-117554042D01*
X52138526Y-117533398D01*
X52154254Y-117506029D01*
X52163039Y-117468192D01*
X52166859Y-117410355D01*
X52167692Y-117322986D01*
X52167281Y-117256319D01*
X52164434Y-117191245D01*
X52157256Y-117149251D01*
X52143889Y-117121063D01*
X52122472Y-117097406D01*
X52109890Y-117086753D01*
X52044699Y-117058057D01*
X51976400Y-117062575D01*
X51917098Y-117100144D01*
X51904333Y-117115040D01*
X51888764Y-117143089D01*
X51879762Y-117182258D01*
X51875617Y-117241858D01*
X51874615Y-117331200D01*
X51739065Y-117331200D01*
X51738167Y-117226320D01*
X51737919Y-117080289D01*
X51737846Y-116626963D01*
X51801346Y-116653564D01*
X51818136Y-116660845D01*
X51844859Y-116677287D01*
X51860156Y-116702187D01*
X51868563Y-116745732D01*
X51874615Y-116818106D01*
X51880144Y-116883089D01*
X51887450Y-116925750D01*
X51897918Y-116941670D01*
X51913692Y-116937400D01*
X51953890Y-116922397D01*
X52025728Y-116918678D01*
X52103010Y-116932572D01*
X52169688Y-116962505D01*
X52206371Y-116990211D01*
X52253472Y-117044269D01*
X52283638Y-117113577D01*
X52299678Y-117205765D01*
X52304191Y-117322986D01*
X52304401Y-117328462D01*
X52302839Y-117404652D01*
X52302839Y-117404652D01*
G37*
X52302839Y-117404652D02*
X52291810Y-117508507D01*
X52267814Y-117586333D01*
X52228043Y-117645760D01*
X52169688Y-117694418D01*
X52114100Y-117722546D01*
X52020751Y-117738199D01*
X51927530Y-117721084D01*
X51843272Y-117673388D01*
X51776818Y-117597294D01*
X51768793Y-117583262D01*
X51758196Y-117558679D01*
X51750335Y-117527309D01*
X51744807Y-117483769D01*
X51741206Y-117422678D01*
X51739128Y-117338655D01*
X51739065Y-117331200D01*
X51874615Y-117331200D01*
X51875077Y-117402316D01*
X51877999Y-117466641D01*
X51885221Y-117508166D01*
X51898561Y-117536067D01*
X51919836Y-117559517D01*
X51924821Y-117564025D01*
X51988863Y-117597295D01*
X52056625Y-117593890D01*
X52119734Y-117554042D01*
X52138526Y-117533398D01*
X52154254Y-117506029D01*
X52163039Y-117468192D01*
X52166859Y-117410355D01*
X52167692Y-117322986D01*
X52167281Y-117256319D01*
X52164434Y-117191245D01*
X52157256Y-117149251D01*
X52143889Y-117121063D01*
X52122472Y-117097406D01*
X52109890Y-117086753D01*
X52044699Y-117058057D01*
X51976400Y-117062575D01*
X51917098Y-117100144D01*
X51904333Y-117115040D01*
X51888764Y-117143089D01*
X51879762Y-117182258D01*
X51875617Y-117241858D01*
X51874615Y-117331200D01*
X51739065Y-117331200D01*
X51738167Y-117226320D01*
X51737919Y-117080289D01*
X51737846Y-116626963D01*
X51801346Y-116653564D01*
X51818136Y-116660845D01*
X51844859Y-116677287D01*
X51860156Y-116702187D01*
X51868563Y-116745732D01*
X51874615Y-116818106D01*
X51880144Y-116883089D01*
X51887450Y-116925750D01*
X51897918Y-116941670D01*
X51913692Y-116937400D01*
X51953890Y-116922397D01*
X52025728Y-116918678D01*
X52103010Y-116932572D01*
X52169688Y-116962505D01*
X52206371Y-116990211D01*
X52253472Y-117044269D01*
X52283638Y-117113577D01*
X52299678Y-117205765D01*
X52304191Y-117322986D01*
X52304401Y-117328462D01*
X52302839Y-117404652D01*
G36*
X51527998Y-116924034D02*
G01*
X51570850Y-116940829D01*
X51620615Y-116963503D01*
X51620615Y-117618533D01*
X51558785Y-117680363D01*
X51544662Y-117694228D01*
X51505536Y-117725046D01*
X51466078Y-117735028D01*
X51407362Y-117730433D01*
X51383456Y-117727462D01*
X51321801Y-117721176D01*
X51278692Y-117718672D01*
X51265905Y-117719055D01*
X51213446Y-117723200D01*
X51150022Y-117730433D01*
X51129730Y-117732918D01*
X51078610Y-117733895D01*
X51041207Y-117718462D01*
X50998599Y-117680363D01*
X50936769Y-117618533D01*
X50936769Y-117268343D01*
X50937251Y-117164857D01*
X50938753Y-117066192D01*
X50941089Y-116988068D01*
X50944071Y-116936662D01*
X50947509Y-116918154D01*
X50948230Y-116918204D01*
X50973203Y-116927413D01*
X51015399Y-116947707D01*
X51072549Y-116977261D01*
X51077928Y-117284746D01*
X51083308Y-117592231D01*
X51200539Y-117592231D01*
X51205885Y-117255192D01*
X51207579Y-117163574D01*
X51210005Y-117065649D01*
X51212634Y-116987906D01*
X51215246Y-116936642D01*
X51217623Y-116918154D01*
X51218306Y-116918219D01*
X51241996Y-116925020D01*
X51285546Y-116939604D01*
X51347077Y-116961054D01*
X51347376Y-117257104D01*
X51347676Y-117308532D01*
X51349754Y-117408466D01*
X51353470Y-117491925D01*
X51358430Y-117551377D01*
X51364240Y-117579287D01*
X51385024Y-117594214D01*
X51427440Y-117598825D01*
X51474077Y-117592231D01*
X51479423Y-117255192D01*
X51481336Y-117169546D01*
X51485303Y-117068172D01*
X51490491Y-116988655D01*
X51496499Y-116936736D01*
X51502927Y-116918154D01*
X51527998Y-116924034D01*
X51527998Y-116924034D01*
G37*
X51527998Y-116924034D02*
X51570850Y-116940829D01*
X51620615Y-116963503D01*
X51620615Y-117618533D01*
X51558785Y-117680363D01*
X51544662Y-117694228D01*
X51505536Y-117725046D01*
X51466078Y-117735028D01*
X51407362Y-117730433D01*
X51383456Y-117727462D01*
X51321801Y-117721176D01*
X51278692Y-117718672D01*
X51265905Y-117719055D01*
X51213446Y-117723200D01*
X51150022Y-117730433D01*
X51129730Y-117732918D01*
X51078610Y-117733895D01*
X51041207Y-117718462D01*
X50998599Y-117680363D01*
X50936769Y-117618533D01*
X50936769Y-117268343D01*
X50937251Y-117164857D01*
X50938753Y-117066192D01*
X50941089Y-116988068D01*
X50944071Y-116936662D01*
X50947509Y-116918154D01*
X50948230Y-116918204D01*
X50973203Y-116927413D01*
X51015399Y-116947707D01*
X51072549Y-116977261D01*
X51077928Y-117284746D01*
X51083308Y-117592231D01*
X51200539Y-117592231D01*
X51205885Y-117255192D01*
X51207579Y-117163574D01*
X51210005Y-117065649D01*
X51212634Y-116987906D01*
X51215246Y-116936642D01*
X51217623Y-116918154D01*
X51218306Y-116918219D01*
X51241996Y-116925020D01*
X51285546Y-116939604D01*
X51347077Y-116961054D01*
X51347376Y-117257104D01*
X51347676Y-117308532D01*
X51349754Y-117408466D01*
X51353470Y-117491925D01*
X51358430Y-117551377D01*
X51364240Y-117579287D01*
X51385024Y-117594214D01*
X51427440Y-117598825D01*
X51474077Y-117592231D01*
X51479423Y-117255192D01*
X51481336Y-117169546D01*
X51485303Y-117068172D01*
X51490491Y-116988655D01*
X51496499Y-116936736D01*
X51502927Y-116918154D01*
X51527998Y-116924034D01*
G36*
X50603936Y-116919911D02*
G01*
X50645807Y-116930547D01*
X50684791Y-116957062D01*
X50734965Y-117006420D01*
X50767232Y-117041279D01*
X50800844Y-117086534D01*
X50816003Y-117128951D01*
X50819539Y-117182768D01*
X50819539Y-117270850D01*
X50759470Y-117239787D01*
X50711867Y-117201936D01*
X50679261Y-117150950D01*
X50673661Y-117137088D01*
X50630992Y-117083358D01*
X50571707Y-117056417D01*
X50507061Y-117059039D01*
X50448308Y-117094000D01*
X50423450Y-117122394D01*
X50408970Y-117158718D01*
X50424470Y-117191046D01*
X50472667Y-117223565D01*
X50556274Y-117260461D01*
X50568962Y-117265557D01*
X50645078Y-117298907D01*
X50710396Y-117331793D01*
X50751953Y-117357769D01*
X50793576Y-117404167D01*
X50821247Y-117478211D01*
X50818310Y-117557670D01*
X50785571Y-117632868D01*
X50723841Y-117694131D01*
X50673858Y-117720210D01*
X50577303Y-117738470D01*
X50523647Y-117736007D01*
X50473976Y-117722687D01*
X50454919Y-117694739D01*
X50462045Y-117648710D01*
X50464118Y-117642624D01*
X50480556Y-117610349D01*
X50507926Y-117598133D01*
X50560068Y-117598950D01*
X50596884Y-117600061D01*
X50639961Y-117590528D01*
X50669475Y-117562026D01*
X50686286Y-117526935D01*
X50688161Y-117490175D01*
X50688074Y-117489961D01*
X50666279Y-117470098D01*
X50619632Y-117441192D01*
X50559278Y-117408886D01*
X50496360Y-117378823D01*
X50442023Y-117356646D01*
X50407410Y-117348000D01*
X50402260Y-117356467D01*
X50395778Y-117396309D01*
X50391339Y-117461371D01*
X50389692Y-117543385D01*
X50389309Y-117600153D01*
X50387505Y-117671648D01*
X50384558Y-117720610D01*
X50380843Y-117738769D01*
X50361424Y-117732667D01*
X50322227Y-117716095D01*
X50272462Y-117693420D01*
X50272462Y-117402509D01*
X50272780Y-117327940D01*
X50275789Y-117214701D01*
X50283454Y-117130692D01*
X50297562Y-117069520D01*
X50319899Y-117024795D01*
X50352253Y-116990124D01*
X50396410Y-116959117D01*
X50452667Y-116933528D01*
X50556540Y-116918154D01*
X50603936Y-116919911D01*
X50603936Y-116919911D01*
G37*
X50603936Y-116919911D02*
X50645807Y-116930547D01*
X50684791Y-116957062D01*
X50734965Y-117006420D01*
X50767232Y-117041279D01*
X50800844Y-117086534D01*
X50816003Y-117128951D01*
X50819539Y-117182768D01*
X50819539Y-117270850D01*
X50759470Y-117239787D01*
X50711867Y-117201936D01*
X50679261Y-117150950D01*
X50673661Y-117137088D01*
X50630992Y-117083358D01*
X50571707Y-117056417D01*
X50507061Y-117059039D01*
X50448308Y-117094000D01*
X50423450Y-117122394D01*
X50408970Y-117158718D01*
X50424470Y-117191046D01*
X50472667Y-117223565D01*
X50556274Y-117260461D01*
X50568962Y-117265557D01*
X50645078Y-117298907D01*
X50710396Y-117331793D01*
X50751953Y-117357769D01*
X50793576Y-117404167D01*
X50821247Y-117478211D01*
X50818310Y-117557670D01*
X50785571Y-117632868D01*
X50723841Y-117694131D01*
X50673858Y-117720210D01*
X50577303Y-117738470D01*
X50523647Y-117736007D01*
X50473976Y-117722687D01*
X50454919Y-117694739D01*
X50462045Y-117648710D01*
X50464118Y-117642624D01*
X50480556Y-117610349D01*
X50507926Y-117598133D01*
X50560068Y-117598950D01*
X50596884Y-117600061D01*
X50639961Y-117590528D01*
X50669475Y-117562026D01*
X50686286Y-117526935D01*
X50688161Y-117490175D01*
X50688074Y-117489961D01*
X50666279Y-117470098D01*
X50619632Y-117441192D01*
X50559278Y-117408886D01*
X50496360Y-117378823D01*
X50442023Y-117356646D01*
X50407410Y-117348000D01*
X50402260Y-117356467D01*
X50395778Y-117396309D01*
X50391339Y-117461371D01*
X50389692Y-117543385D01*
X50389309Y-117600153D01*
X50387505Y-117671648D01*
X50384558Y-117720610D01*
X50380843Y-117738769D01*
X50361424Y-117732667D01*
X50322227Y-117716095D01*
X50272462Y-117693420D01*
X50272462Y-117402509D01*
X50272780Y-117327940D01*
X50275789Y-117214701D01*
X50283454Y-117130692D01*
X50297562Y-117069520D01*
X50319899Y-117024795D01*
X50352253Y-116990124D01*
X50396410Y-116959117D01*
X50452667Y-116933528D01*
X50556540Y-116918154D01*
X50603936Y-116919911D01*
G36*
X49951501Y-116926476D02*
G01*
X50032167Y-116956440D01*
X50065714Y-116978954D01*
X50099687Y-117011212D01*
X50123919Y-117052246D01*
X50140001Y-117108108D01*
X50149521Y-117184851D01*
X50154068Y-117288525D01*
X50155231Y-117425184D01*
X50155003Y-117495805D01*
X50153860Y-117592308D01*
X50151919Y-117669323D01*
X50149365Y-117720319D01*
X50146381Y-117738769D01*
X50126962Y-117732667D01*
X50087766Y-117716095D01*
X50086589Y-117715558D01*
X50066235Y-117704903D01*
X50052546Y-117690282D01*
X50044199Y-117664673D01*
X50039874Y-117621054D01*
X50038248Y-117552403D01*
X50038000Y-117451698D01*
X50037500Y-117387813D01*
X50032164Y-117267751D01*
X50019945Y-117179809D01*
X49999552Y-117119375D01*
X49969695Y-117081836D01*
X49929082Y-117062581D01*
X49923448Y-117061239D01*
X49847378Y-117060191D01*
X49788052Y-117094271D01*
X49747077Y-117162598D01*
X49739770Y-117182351D01*
X49723114Y-117226066D01*
X49714679Y-117246155D01*
X49697356Y-117243387D01*
X49659525Y-117228365D01*
X49624240Y-117203556D01*
X49608154Y-117156670D01*
X49612952Y-117123087D01*
X49642431Y-117054967D01*
X49690098Y-116991134D01*
X49745839Y-116946988D01*
X49769193Y-116936782D01*
X49857619Y-116919718D01*
X49951501Y-116926476D01*
X49951501Y-116926476D01*
G37*
X49951501Y-116926476D02*
X50032167Y-116956440D01*
X50065714Y-116978954D01*
X50099687Y-117011212D01*
X50123919Y-117052246D01*
X50140001Y-117108108D01*
X50149521Y-117184851D01*
X50154068Y-117288525D01*
X50155231Y-117425184D01*
X50155003Y-117495805D01*
X50153860Y-117592308D01*
X50151919Y-117669323D01*
X50149365Y-117720319D01*
X50146381Y-117738769D01*
X50126962Y-117732667D01*
X50087766Y-117716095D01*
X50086589Y-117715558D01*
X50066235Y-117704903D01*
X50052546Y-117690282D01*
X50044199Y-117664673D01*
X50039874Y-117621054D01*
X50038248Y-117552403D01*
X50038000Y-117451698D01*
X50037500Y-117387813D01*
X50032164Y-117267751D01*
X50019945Y-117179809D01*
X49999552Y-117119375D01*
X49969695Y-117081836D01*
X49929082Y-117062581D01*
X49923448Y-117061239D01*
X49847378Y-117060191D01*
X49788052Y-117094271D01*
X49747077Y-117162598D01*
X49739770Y-117182351D01*
X49723114Y-117226066D01*
X49714679Y-117246155D01*
X49697356Y-117243387D01*
X49659525Y-117228365D01*
X49624240Y-117203556D01*
X49608154Y-117156670D01*
X49612952Y-117123087D01*
X49642431Y-117054967D01*
X49690098Y-116991134D01*
X49745839Y-116946988D01*
X49769193Y-116936782D01*
X49857619Y-116919718D01*
X49951501Y-116926476D01*
G36*
X49490413Y-117384449D02*
G01*
X49485641Y-117487047D01*
X49473150Y-117562126D01*
X49450121Y-117617748D01*
X49413732Y-117661975D01*
X49361162Y-117702869D01*
X49327714Y-117721466D01*
X49274098Y-117733991D01*
X49198780Y-117733003D01*
X49156672Y-117729035D01*
X49105879Y-117716920D01*
X49065280Y-117690585D01*
X49018049Y-117641514D01*
X49011738Y-117634346D01*
X48969277Y-117579189D01*
X48949018Y-117531150D01*
X48943846Y-117474184D01*
X48943846Y-117390471D01*
X49002346Y-117412552D01*
X49044994Y-117438364D01*
X49082064Y-117498928D01*
X49089803Y-117518320D01*
X49133074Y-117573235D01*
X49191976Y-117600879D01*
X49256111Y-117598393D01*
X49315077Y-117562923D01*
X49335342Y-117540805D01*
X49353720Y-117507436D01*
X49347971Y-117477117D01*
X49314887Y-117445913D01*
X49251261Y-117409887D01*
X49153885Y-117365103D01*
X48953615Y-117277445D01*
X48948301Y-117190607D01*
X48950299Y-117135296D01*
X49080783Y-117135296D01*
X49090688Y-117169538D01*
X49135756Y-117206096D01*
X49217557Y-117247692D01*
X49231092Y-117253718D01*
X49295818Y-117281753D01*
X49344247Y-117301472D01*
X49366751Y-117308923D01*
X49370161Y-117303438D01*
X49371529Y-117269948D01*
X49366651Y-117216116D01*
X49354364Y-117163473D01*
X49316041Y-117097151D01*
X49260720Y-117059780D01*
X49194640Y-117054721D01*
X49124040Y-117085339D01*
X49104474Y-117100648D01*
X49080783Y-117135296D01*
X48950299Y-117135296D01*
X48950647Y-117125663D01*
X48980186Y-117043590D01*
X49017472Y-116998361D01*
X49094776Y-116947838D01*
X49186478Y-116922316D01*
X49281274Y-116924336D01*
X49367859Y-116956440D01*
X49386920Y-116968767D01*
X49430640Y-117006912D01*
X49460540Y-117055167D01*
X49478968Y-117120710D01*
X49488270Y-117210720D01*
X49489499Y-117269948D01*
X49490794Y-117332376D01*
X49490413Y-117384449D01*
X49490413Y-117384449D01*
G37*
X49490413Y-117384449D02*
X49485641Y-117487047D01*
X49473150Y-117562126D01*
X49450121Y-117617748D01*
X49413732Y-117661975D01*
X49361162Y-117702869D01*
X49327714Y-117721466D01*
X49274098Y-117733991D01*
X49198780Y-117733003D01*
X49156672Y-117729035D01*
X49105879Y-117716920D01*
X49065280Y-117690585D01*
X49018049Y-117641514D01*
X49011738Y-117634346D01*
X48969277Y-117579189D01*
X48949018Y-117531150D01*
X48943846Y-117474184D01*
X48943846Y-117390471D01*
X49002346Y-117412552D01*
X49044994Y-117438364D01*
X49082064Y-117498928D01*
X49089803Y-117518320D01*
X49133074Y-117573235D01*
X49191976Y-117600879D01*
X49256111Y-117598393D01*
X49315077Y-117562923D01*
X49335342Y-117540805D01*
X49353720Y-117507436D01*
X49347971Y-117477117D01*
X49314887Y-117445913D01*
X49251261Y-117409887D01*
X49153885Y-117365103D01*
X48953615Y-117277445D01*
X48948301Y-117190607D01*
X48950299Y-117135296D01*
X49080783Y-117135296D01*
X49090688Y-117169538D01*
X49135756Y-117206096D01*
X49217557Y-117247692D01*
X49231092Y-117253718D01*
X49295818Y-117281753D01*
X49344247Y-117301472D01*
X49366751Y-117308923D01*
X49370161Y-117303438D01*
X49371529Y-117269948D01*
X49366651Y-117216116D01*
X49354364Y-117163473D01*
X49316041Y-117097151D01*
X49260720Y-117059780D01*
X49194640Y-117054721D01*
X49124040Y-117085339D01*
X49104474Y-117100648D01*
X49080783Y-117135296D01*
X48950299Y-117135296D01*
X48950647Y-117125663D01*
X48980186Y-117043590D01*
X49017472Y-116998361D01*
X49094776Y-116947838D01*
X49186478Y-116922316D01*
X49281274Y-116924336D01*
X49367859Y-116956440D01*
X49386920Y-116968767D01*
X49430640Y-117006912D01*
X49460540Y-117055167D01*
X49478968Y-117120710D01*
X49488270Y-117210720D01*
X49489499Y-117269948D01*
X49490794Y-117332376D01*
X49490413Y-117384449D01*
G36*
X53357575Y-110587693D02*
G01*
X53493371Y-110587807D01*
X53595576Y-110588472D01*
X53669122Y-110590182D01*
X53718942Y-110593429D01*
X53749967Y-110598706D01*
X53767129Y-110606507D01*
X53775361Y-110617325D01*
X53779594Y-110631654D01*
X53779716Y-110632168D01*
X53786672Y-110665851D01*
X53799320Y-110730917D01*
X53816360Y-110820542D01*
X53836496Y-110927904D01*
X53858429Y-111046178D01*
X53860218Y-111055856D01*
X53882083Y-111170650D01*
X53902430Y-111271480D01*
X53919934Y-111352217D01*
X53933271Y-111406734D01*
X53941116Y-111428901D01*
X53941158Y-111428936D01*
X53965884Y-111441200D01*
X54016631Y-111461576D01*
X54082462Y-111485674D01*
X54086169Y-111486983D01*
X54170331Y-111518791D01*
X54268230Y-111558685D01*
X54359435Y-111598353D01*
X54509407Y-111666420D01*
X54841499Y-111439639D01*
X54864889Y-111423688D01*
X54965080Y-111355890D01*
X55054480Y-111296208D01*
X55127745Y-111248156D01*
X55179527Y-111215250D01*
X55204480Y-111201004D01*
X55221577Y-111204270D01*
X55260395Y-111229571D01*
X55320385Y-111279675D01*
X55403210Y-111355989D01*
X55510535Y-111459922D01*
X55520139Y-111469382D01*
X55605302Y-111554145D01*
X55680949Y-111630937D01*
X55742449Y-111694947D01*
X55785173Y-111741361D01*
X55804489Y-111765369D01*
X55804552Y-111765485D01*
X55807006Y-111783763D01*
X55797956Y-111813411D01*
X55775119Y-111858486D01*
X55736213Y-111923044D01*
X55678954Y-112011140D01*
X55601059Y-112126830D01*
X55587785Y-112146357D01*
X55520652Y-112245278D01*
X55461410Y-112332848D01*
X55413588Y-112403831D01*
X55380715Y-112452991D01*
X55366318Y-112475095D01*
X55365232Y-112479777D01*
X55372044Y-112514710D01*
X55392450Y-112571753D01*
X55423123Y-112641172D01*
X55464808Y-112731959D01*
X55511352Y-112839686D01*
X55550877Y-112937192D01*
X55560676Y-112962430D01*
X55586340Y-113026870D01*
X55605193Y-113071763D01*
X55613710Y-113088616D01*
X55623111Y-113089875D01*
X55665363Y-113097159D01*
X55734521Y-113109739D01*
X55823387Y-113126246D01*
X55924768Y-113145312D01*
X56031467Y-113165569D01*
X56136288Y-113185647D01*
X56232036Y-113204179D01*
X56311516Y-113219795D01*
X56367530Y-113231127D01*
X56392885Y-113236807D01*
X56397088Y-113238408D01*
X56407334Y-113247045D01*
X56414957Y-113265433D01*
X56420338Y-113298460D01*
X56423859Y-113351013D01*
X56425901Y-113427979D01*
X56426847Y-113534246D01*
X56427077Y-113674701D01*
X56427077Y-114101845D01*
X56324500Y-114122091D01*
X56312092Y-114124518D01*
X56246199Y-114137088D01*
X56155084Y-114154170D01*
X56049104Y-114173829D01*
X55938615Y-114194132D01*
X55895105Y-114202299D01*
X55797882Y-114222167D01*
X55716858Y-114240954D01*
X55659477Y-114256859D01*
X55633187Y-114268079D01*
X55621273Y-114286411D01*
X55599583Y-114334916D01*
X55577395Y-114397692D01*
X55569585Y-114421200D01*
X55540835Y-114498366D01*
X55503752Y-114589694D01*
X55464375Y-114680093D01*
X55443315Y-114727310D01*
X55413311Y-114797837D01*
X55392692Y-114850655D01*
X55385026Y-114876912D01*
X55385452Y-114878894D01*
X55399993Y-114906751D01*
X55432783Y-114960510D01*
X55480493Y-115034963D01*
X55539798Y-115124897D01*
X55607369Y-115225104D01*
X55829713Y-115551416D01*
X55537601Y-115844016D01*
X55509349Y-115872171D01*
X55422961Y-115956449D01*
X55345756Y-116029128D01*
X55282258Y-116086112D01*
X55236990Y-116123307D01*
X55214474Y-116136616D01*
X55190023Y-116126490D01*
X55138819Y-116097421D01*
X55066747Y-116052896D01*
X54979460Y-115996411D01*
X54882612Y-115931462D01*
X54787486Y-115867314D01*
X54701669Y-115810827D01*
X54631652Y-115766184D01*
X54582876Y-115736855D01*
X54560783Y-115726308D01*
X54559488Y-115726404D01*
X54530139Y-115736802D01*
X54478093Y-115761012D01*
X54413708Y-115794249D01*
X54413032Y-115794613D01*
X54327521Y-115837441D01*
X54268926Y-115858365D01*
X54232571Y-115858423D01*
X54213775Y-115838654D01*
X54205819Y-115819195D01*
X54184347Y-115767080D01*
X54151273Y-115686964D01*
X54108356Y-115583107D01*
X54057356Y-115459767D01*
X54000033Y-115321201D01*
X53938146Y-115171670D01*
X53882052Y-115035636D01*
X53824977Y-114896050D01*
X53774479Y-114771315D01*
X53732254Y-114665672D01*
X53699995Y-114583365D01*
X53679397Y-114528635D01*
X53672154Y-114505726D01*
X53685986Y-114484718D01*
X53724412Y-114449642D01*
X53778807Y-114408887D01*
X53909395Y-114302267D01*
X54026260Y-114166025D01*
X54111780Y-114016118D01*
X54165431Y-113856971D01*
X54186684Y-113693012D01*
X54175014Y-113528667D01*
X54129894Y-113368361D01*
X54050797Y-113216520D01*
X53937197Y-113077572D01*
X53877965Y-113023460D01*
X53736054Y-112927782D01*
X53584206Y-112865405D01*
X53426861Y-112834844D01*
X53268456Y-112834615D01*
X53113429Y-112863232D01*
X52966220Y-112919210D01*
X52831266Y-113001064D01*
X52713005Y-113107309D01*
X52615877Y-113236459D01*
X52544318Y-113387031D01*
X52502769Y-113557539D01*
X52495143Y-113639722D01*
X52505634Y-113817775D01*
X52552882Y-113986704D01*
X52635489Y-114143522D01*
X52752059Y-114285245D01*
X52901193Y-114408887D01*
X52953561Y-114447982D01*
X52992832Y-114483443D01*
X53007846Y-114505692D01*
X53001859Y-114525088D01*
X52982432Y-114577059D01*
X52951194Y-114657002D01*
X52909839Y-114760673D01*
X52860061Y-114883832D01*
X52803553Y-115022234D01*
X52742009Y-115171637D01*
X52686008Y-115307020D01*
X52628184Y-115446852D01*
X52576500Y-115571872D01*
X52532718Y-115677822D01*
X52498597Y-115760441D01*
X52475898Y-115815472D01*
X52466380Y-115838654D01*
X52466269Y-115838928D01*
X52447228Y-115858503D01*
X52410694Y-115858279D01*
X52351954Y-115837210D01*
X52266292Y-115794249D01*
X52259549Y-115790631D01*
X52195938Y-115758087D01*
X52145707Y-115735050D01*
X52119218Y-115726308D01*
X52097506Y-115736639D01*
X52048984Y-115765788D01*
X51979163Y-115810287D01*
X51893484Y-115866668D01*
X51797388Y-115931462D01*
X51702706Y-115994984D01*
X51615132Y-116051705D01*
X51542642Y-116096547D01*
X51490889Y-116126016D01*
X51465526Y-116136616D01*
X51461206Y-116135270D01*
X51431092Y-116114056D01*
X51379640Y-116070237D01*
X51311375Y-116007909D01*
X51230820Y-115931170D01*
X51142500Y-115844116D01*
X50850488Y-115551617D01*
X51305360Y-114882525D01*
X51236208Y-114732916D01*
X51236003Y-114732473D01*
X51194477Y-114637101D01*
X51152044Y-114530896D01*
X51117858Y-114436769D01*
X51112684Y-114421588D01*
X51086601Y-114351109D01*
X51063081Y-114296342D01*
X51046677Y-114268079D01*
X51039996Y-114264088D01*
X50999892Y-114250697D01*
X50931795Y-114233373D01*
X50843145Y-114213917D01*
X50741385Y-114194132D01*
X50710904Y-114188551D01*
X50600628Y-114168233D01*
X50497731Y-114149095D01*
X50412569Y-114133070D01*
X50355500Y-114122091D01*
X50252923Y-114101845D01*
X50252923Y-113674701D01*
X50252946Y-113622180D01*
X50253379Y-113494047D01*
X50254659Y-113398420D01*
X50257168Y-113330411D01*
X50261286Y-113285133D01*
X50267395Y-113257697D01*
X50275878Y-113243218D01*
X50287115Y-113236807D01*
X50297994Y-113234209D01*
X50342347Y-113225022D01*
X50413106Y-113210991D01*
X50503074Y-113193486D01*
X50605056Y-113173874D01*
X50711857Y-113153525D01*
X50816281Y-113133807D01*
X50911132Y-113116089D01*
X50989214Y-113101738D01*
X51043332Y-113092124D01*
X51066291Y-113088616D01*
X51067842Y-113086497D01*
X51080325Y-113059006D01*
X51101927Y-113006406D01*
X51129123Y-112937192D01*
X51166866Y-112843937D01*
X51213328Y-112736159D01*
X51256878Y-112641172D01*
X51266858Y-112619851D01*
X51294862Y-112553086D01*
X51311641Y-112501590D01*
X51313854Y-112475095D01*
X51312713Y-112473218D01*
X51294584Y-112445565D01*
X51258644Y-112391849D01*
X51208418Y-112317303D01*
X51147430Y-112227162D01*
X51079205Y-112126657D01*
X51002330Y-112012470D01*
X50944663Y-111923770D01*
X50905426Y-111858721D01*
X50882350Y-111813295D01*
X50873166Y-111783463D01*
X50875604Y-111765195D01*
X50876424Y-111763825D01*
X50898477Y-111737205D01*
X50943436Y-111688697D01*
X51006673Y-111623108D01*
X51083559Y-111545247D01*
X51169465Y-111459922D01*
X51258579Y-111373334D01*
X51345872Y-111291947D01*
X51410018Y-111237035D01*
X51452679Y-111207190D01*
X51475521Y-111201004D01*
X51478505Y-111202394D01*
X51509936Y-111221127D01*
X51566997Y-111257733D01*
X51644343Y-111308697D01*
X51736626Y-111370504D01*
X51838502Y-111439639D01*
X52170593Y-111666420D01*
X52320566Y-111598353D01*
X52324923Y-111596381D01*
X52417000Y-111556491D01*
X52514683Y-111516818D01*
X52597539Y-111485674D01*
X52597905Y-111485545D01*
X52663685Y-111461456D01*
X52714323Y-111441110D01*
X52738884Y-111428901D01*
X52739282Y-111428458D01*
X52747619Y-111403456D01*
X52761341Y-111346598D01*
X52779123Y-111264014D01*
X52799641Y-111161831D01*
X52821571Y-111046178D01*
X52822336Y-111042033D01*
X52844229Y-110924019D01*
X52864281Y-110817151D01*
X52881192Y-110728252D01*
X52893667Y-110664145D01*
X52900406Y-110631654D01*
X52900837Y-110629853D01*
X52905273Y-110615944D01*
X52914263Y-110605489D01*
X52932737Y-110597996D01*
X52965628Y-110592972D01*
X53017868Y-110589922D01*
X53094388Y-110588355D01*
X53200122Y-110587776D01*
X53340000Y-110587692D01*
X53357575Y-110587693D01*
X53357575Y-110587693D01*
G37*
X53357575Y-110587693D02*
X53493371Y-110587807D01*
X53595576Y-110588472D01*
X53669122Y-110590182D01*
X53718942Y-110593429D01*
X53749967Y-110598706D01*
X53767129Y-110606507D01*
X53775361Y-110617325D01*
X53779594Y-110631654D01*
X53779716Y-110632168D01*
X53786672Y-110665851D01*
X53799320Y-110730917D01*
X53816360Y-110820542D01*
X53836496Y-110927904D01*
X53858429Y-111046178D01*
X53860218Y-111055856D01*
X53882083Y-111170650D01*
X53902430Y-111271480D01*
X53919934Y-111352217D01*
X53933271Y-111406734D01*
X53941116Y-111428901D01*
X53941158Y-111428936D01*
X53965884Y-111441200D01*
X54016631Y-111461576D01*
X54082462Y-111485674D01*
X54086169Y-111486983D01*
X54170331Y-111518791D01*
X54268230Y-111558685D01*
X54359435Y-111598353D01*
X54509407Y-111666420D01*
X54841499Y-111439639D01*
X54864889Y-111423688D01*
X54965080Y-111355890D01*
X55054480Y-111296208D01*
X55127745Y-111248156D01*
X55179527Y-111215250D01*
X55204480Y-111201004D01*
X55221577Y-111204270D01*
X55260395Y-111229571D01*
X55320385Y-111279675D01*
X55403210Y-111355989D01*
X55510535Y-111459922D01*
X55520139Y-111469382D01*
X55605302Y-111554145D01*
X55680949Y-111630937D01*
X55742449Y-111694947D01*
X55785173Y-111741361D01*
X55804489Y-111765369D01*
X55804552Y-111765485D01*
X55807006Y-111783763D01*
X55797956Y-111813411D01*
X55775119Y-111858486D01*
X55736213Y-111923044D01*
X55678954Y-112011140D01*
X55601059Y-112126830D01*
X55587785Y-112146357D01*
X55520652Y-112245278D01*
X55461410Y-112332848D01*
X55413588Y-112403831D01*
X55380715Y-112452991D01*
X55366318Y-112475095D01*
X55365232Y-112479777D01*
X55372044Y-112514710D01*
X55392450Y-112571753D01*
X55423123Y-112641172D01*
X55464808Y-112731959D01*
X55511352Y-112839686D01*
X55550877Y-112937192D01*
X55560676Y-112962430D01*
X55586340Y-113026870D01*
X55605193Y-113071763D01*
X55613710Y-113088616D01*
X55623111Y-113089875D01*
X55665363Y-113097159D01*
X55734521Y-113109739D01*
X55823387Y-113126246D01*
X55924768Y-113145312D01*
X56031467Y-113165569D01*
X56136288Y-113185647D01*
X56232036Y-113204179D01*
X56311516Y-113219795D01*
X56367530Y-113231127D01*
X56392885Y-113236807D01*
X56397088Y-113238408D01*
X56407334Y-113247045D01*
X56414957Y-113265433D01*
X56420338Y-113298460D01*
X56423859Y-113351013D01*
X56425901Y-113427979D01*
X56426847Y-113534246D01*
X56427077Y-113674701D01*
X56427077Y-114101845D01*
X56324500Y-114122091D01*
X56312092Y-114124518D01*
X56246199Y-114137088D01*
X56155084Y-114154170D01*
X56049104Y-114173829D01*
X55938615Y-114194132D01*
X55895105Y-114202299D01*
X55797882Y-114222167D01*
X55716858Y-114240954D01*
X55659477Y-114256859D01*
X55633187Y-114268079D01*
X55621273Y-114286411D01*
X55599583Y-114334916D01*
X55577395Y-114397692D01*
X55569585Y-114421200D01*
X55540835Y-114498366D01*
X55503752Y-114589694D01*
X55464375Y-114680093D01*
X55443315Y-114727310D01*
X55413311Y-114797837D01*
X55392692Y-114850655D01*
X55385026Y-114876912D01*
X55385452Y-114878894D01*
X55399993Y-114906751D01*
X55432783Y-114960510D01*
X55480493Y-115034963D01*
X55539798Y-115124897D01*
X55607369Y-115225104D01*
X55829713Y-115551416D01*
X55537601Y-115844016D01*
X55509349Y-115872171D01*
X55422961Y-115956449D01*
X55345756Y-116029128D01*
X55282258Y-116086112D01*
X55236990Y-116123307D01*
X55214474Y-116136616D01*
X55190023Y-116126490D01*
X55138819Y-116097421D01*
X55066747Y-116052896D01*
X54979460Y-115996411D01*
X54882612Y-115931462D01*
X54787486Y-115867314D01*
X54701669Y-115810827D01*
X54631652Y-115766184D01*
X54582876Y-115736855D01*
X54560783Y-115726308D01*
X54559488Y-115726404D01*
X54530139Y-115736802D01*
X54478093Y-115761012D01*
X54413708Y-115794249D01*
X54413032Y-115794613D01*
X54327521Y-115837441D01*
X54268926Y-115858365D01*
X54232571Y-115858423D01*
X54213775Y-115838654D01*
X54205819Y-115819195D01*
X54184347Y-115767080D01*
X54151273Y-115686964D01*
X54108356Y-115583107D01*
X54057356Y-115459767D01*
X54000033Y-115321201D01*
X53938146Y-115171670D01*
X53882052Y-115035636D01*
X53824977Y-114896050D01*
X53774479Y-114771315D01*
X53732254Y-114665672D01*
X53699995Y-114583365D01*
X53679397Y-114528635D01*
X53672154Y-114505726D01*
X53685986Y-114484718D01*
X53724412Y-114449642D01*
X53778807Y-114408887D01*
X53909395Y-114302267D01*
X54026260Y-114166025D01*
X54111780Y-114016118D01*
X54165431Y-113856971D01*
X54186684Y-113693012D01*
X54175014Y-113528667D01*
X54129894Y-113368361D01*
X54050797Y-113216520D01*
X53937197Y-113077572D01*
X53877965Y-113023460D01*
X53736054Y-112927782D01*
X53584206Y-112865405D01*
X53426861Y-112834844D01*
X53268456Y-112834615D01*
X53113429Y-112863232D01*
X52966220Y-112919210D01*
X52831266Y-113001064D01*
X52713005Y-113107309D01*
X52615877Y-113236459D01*
X52544318Y-113387031D01*
X52502769Y-113557539D01*
X52495143Y-113639722D01*
X52505634Y-113817775D01*
X52552882Y-113986704D01*
X52635489Y-114143522D01*
X52752059Y-114285245D01*
X52901193Y-114408887D01*
X52953561Y-114447982D01*
X52992832Y-114483443D01*
X53007846Y-114505692D01*
X53001859Y-114525088D01*
X52982432Y-114577059D01*
X52951194Y-114657002D01*
X52909839Y-114760673D01*
X52860061Y-114883832D01*
X52803553Y-115022234D01*
X52742009Y-115171637D01*
X52686008Y-115307020D01*
X52628184Y-115446852D01*
X52576500Y-115571872D01*
X52532718Y-115677822D01*
X52498597Y-115760441D01*
X52475898Y-115815472D01*
X52466380Y-115838654D01*
X52466269Y-115838928D01*
X52447228Y-115858503D01*
X52410694Y-115858279D01*
X52351954Y-115837210D01*
X52266292Y-115794249D01*
X52259549Y-115790631D01*
X52195938Y-115758087D01*
X52145707Y-115735050D01*
X52119218Y-115726308D01*
X52097506Y-115736639D01*
X52048984Y-115765788D01*
X51979163Y-115810287D01*
X51893484Y-115866668D01*
X51797388Y-115931462D01*
X51702706Y-115994984D01*
X51615132Y-116051705D01*
X51542642Y-116096547D01*
X51490889Y-116126016D01*
X51465526Y-116136616D01*
X51461206Y-116135270D01*
X51431092Y-116114056D01*
X51379640Y-116070237D01*
X51311375Y-116007909D01*
X51230820Y-115931170D01*
X51142500Y-115844116D01*
X50850488Y-115551617D01*
X51305360Y-114882525D01*
X51236208Y-114732916D01*
X51236003Y-114732473D01*
X51194477Y-114637101D01*
X51152044Y-114530896D01*
X51117858Y-114436769D01*
X51112684Y-114421588D01*
X51086601Y-114351109D01*
X51063081Y-114296342D01*
X51046677Y-114268079D01*
X51039996Y-114264088D01*
X50999892Y-114250697D01*
X50931795Y-114233373D01*
X50843145Y-114213917D01*
X50741385Y-114194132D01*
X50710904Y-114188551D01*
X50600628Y-114168233D01*
X50497731Y-114149095D01*
X50412569Y-114133070D01*
X50355500Y-114122091D01*
X50252923Y-114101845D01*
X50252923Y-113674701D01*
X50252946Y-113622180D01*
X50253379Y-113494047D01*
X50254659Y-113398420D01*
X50257168Y-113330411D01*
X50261286Y-113285133D01*
X50267395Y-113257697D01*
X50275878Y-113243218D01*
X50287115Y-113236807D01*
X50297994Y-113234209D01*
X50342347Y-113225022D01*
X50413106Y-113210991D01*
X50503074Y-113193486D01*
X50605056Y-113173874D01*
X50711857Y-113153525D01*
X50816281Y-113133807D01*
X50911132Y-113116089D01*
X50989214Y-113101738D01*
X51043332Y-113092124D01*
X51066291Y-113088616D01*
X51067842Y-113086497D01*
X51080325Y-113059006D01*
X51101927Y-113006406D01*
X51129123Y-112937192D01*
X51166866Y-112843937D01*
X51213328Y-112736159D01*
X51256878Y-112641172D01*
X51266858Y-112619851D01*
X51294862Y-112553086D01*
X51311641Y-112501590D01*
X51313854Y-112475095D01*
X51312713Y-112473218D01*
X51294584Y-112445565D01*
X51258644Y-112391849D01*
X51208418Y-112317303D01*
X51147430Y-112227162D01*
X51079205Y-112126657D01*
X51002330Y-112012470D01*
X50944663Y-111923770D01*
X50905426Y-111858721D01*
X50882350Y-111813295D01*
X50873166Y-111783463D01*
X50875604Y-111765195D01*
X50876424Y-111763825D01*
X50898477Y-111737205D01*
X50943436Y-111688697D01*
X51006673Y-111623108D01*
X51083559Y-111545247D01*
X51169465Y-111459922D01*
X51258579Y-111373334D01*
X51345872Y-111291947D01*
X51410018Y-111237035D01*
X51452679Y-111207190D01*
X51475521Y-111201004D01*
X51478505Y-111202394D01*
X51509936Y-111221127D01*
X51566997Y-111257733D01*
X51644343Y-111308697D01*
X51736626Y-111370504D01*
X51838502Y-111439639D01*
X52170593Y-111666420D01*
X52320566Y-111598353D01*
X52324923Y-111596381D01*
X52417000Y-111556491D01*
X52514683Y-111516818D01*
X52597539Y-111485674D01*
X52597905Y-111485545D01*
X52663685Y-111461456D01*
X52714323Y-111441110D01*
X52738884Y-111428901D01*
X52739282Y-111428458D01*
X52747619Y-111403456D01*
X52761341Y-111346598D01*
X52779123Y-111264014D01*
X52799641Y-111161831D01*
X52821571Y-111046178D01*
X52822336Y-111042033D01*
X52844229Y-110924019D01*
X52864281Y-110817151D01*
X52881192Y-110728252D01*
X52893667Y-110664145D01*
X52900406Y-110631654D01*
X52900837Y-110629853D01*
X52905273Y-110615944D01*
X52914263Y-110605489D01*
X52932737Y-110597996D01*
X52965628Y-110592972D01*
X53017868Y-110589922D01*
X53094388Y-110588355D01*
X53200122Y-110587776D01*
X53340000Y-110587692D01*
X53357575Y-110587693D01*
D11*
X79435000Y-126365000D02*
X79435000Y-125035000D01*
X79435000Y-125035000D02*
X78105000Y-125035000D01*
X79435000Y-127635000D02*
X76835000Y-127635000D01*
X76835000Y-127635000D02*
X76835000Y-125035000D01*
X76835000Y-125035000D02*
X28515000Y-125035000D01*
X28515000Y-130235000D02*
X28515000Y-125035000D01*
X79435000Y-130235000D02*
X28515000Y-130235000D01*
X79435000Y-130235000D02*
X79435000Y-127635000D01*
D12*
X79287619Y-123523333D02*
X78573333Y-123523333D01*
X78430476Y-123570952D01*
X78335238Y-123666190D01*
X78287619Y-123809047D01*
X78287619Y-123904285D01*
X78287619Y-122523333D02*
X78287619Y-123094761D01*
X78287619Y-122809047D02*
X79287619Y-122809047D01*
X79144761Y-122904285D01*
X79049523Y-122999523D01*
X79001904Y-123094761D01*
M02*
