G04 #@! TF.GenerationSoftware,KiCad,Pcbnew,5.99.0-unknown-r17121-d4cea0f2*
G04 #@! TF.CreationDate,2019-12-07T19:18:22-06:00*
G04 #@! TF.ProjectId,led_module,6c65645f-6d6f-4647-956c-652e6b696361,C*
G04 #@! TF.SameCoordinates,Original*
G04 #@! TF.FileFunction,Legend,Top*
G04 #@! TF.FilePolarity,Positive*
%FSLAX46Y46*%
G04 Gerber Fmt 4.6, Leading zero omitted, Abs format (unit mm)*
G04 Created by KiCad (PCBNEW 5.99.0-unknown-r17121-d4cea0f2) date 2019-12-07 19:18:22*
%MOMM*%
%LPD*%
G04 APERTURE LIST*
%ADD10C,0.120000*%
%ADD11C,0.200000*%
%ADD12C,0.127000*%
%ADD13C,0.150000*%
%ADD14C,0.050000*%
G04 APERTURE END LIST*
D10*
X71720000Y-102030000D02*
X75570000Y-102030000D01*
X71337369Y-101452045D02*
G75*
G03X71720000Y-102030000I2322631J1122045D01*
G01*
X71303600Y-99231193D02*
G75*
G02X73660000Y-97730000I2356400J-1098807D01*
G01*
X76016400Y-99231193D02*
G75*
G03X73660000Y-97730000I-2356400J-1098807D01*
G01*
X75962383Y-101442264D02*
G75*
G02X75570000Y-102030000I-2302383J1112264D01*
G01*
X59020000Y-102030000D02*
X62870000Y-102030000D01*
X58637369Y-101452045D02*
G75*
G03X59020000Y-102030000I2322631J1122045D01*
G01*
X58603600Y-99231193D02*
G75*
G02X60960000Y-97730000I2356400J-1098807D01*
G01*
X63316400Y-99231193D02*
G75*
G03X60960000Y-97730000I-2356400J-1098807D01*
G01*
X63262383Y-101442264D02*
G75*
G02X62870000Y-102030000I-2302383J1112264D01*
G01*
X45050000Y-102030000D02*
X48900000Y-102030000D01*
X44667369Y-101452045D02*
G75*
G03X45050000Y-102030000I2322631J1122045D01*
G01*
X44633600Y-99231193D02*
G75*
G02X46990000Y-97730000I2356400J-1098807D01*
G01*
X49346400Y-99231193D02*
G75*
G03X46990000Y-97730000I-2356400J-1098807D01*
G01*
X49292383Y-101442264D02*
G75*
G02X48900000Y-102030000I-2302383J1112264D01*
G01*
X32350000Y-102030000D02*
X36200000Y-102030000D01*
X31967369Y-101452045D02*
G75*
G03X32350000Y-102030000I2322631J1122045D01*
G01*
X31933600Y-99231193D02*
G75*
G02X34290000Y-97730000I2356400J-1098807D01*
G01*
X36646400Y-99231193D02*
G75*
G03X34290000Y-97730000I-2356400J-1098807D01*
G01*
X36592383Y-101442264D02*
G75*
G02X36200000Y-102030000I-2302383J1112264D01*
G01*
D11*
X57033000Y-123838000D02*
G75*
G03X57033000Y-123838000I-100000J0D01*
G01*
D12*
X79693000Y-123063000D02*
X54673000Y-123063000D01*
X54673000Y-123063000D02*
X54673000Y-104013000D01*
X54673000Y-104013000D02*
X79693000Y-104013000D01*
X79693000Y-104013000D02*
X79693000Y-123063000D01*
D11*
X30490000Y-123838000D02*
G75*
G03X30490000Y-123838000I-100000J0D01*
G01*
D12*
X53150000Y-123063000D02*
X28130000Y-123063000D01*
X28130000Y-123063000D02*
X28130000Y-104013000D01*
X28130000Y-104013000D02*
X53150000Y-104013000D01*
X53150000Y-104013000D02*
X53150000Y-123063000D01*
D13*
X69754761Y-98337619D02*
X69659523Y-98290000D01*
X69564285Y-98194761D01*
X69421428Y-98051904D01*
X69326190Y-98004285D01*
X69230952Y-98004285D01*
X69278571Y-98242380D02*
X69183333Y-98194761D01*
X69088095Y-98099523D01*
X69040476Y-97909047D01*
X69040476Y-97575714D01*
X69088095Y-97385238D01*
X69183333Y-97290000D01*
X69278571Y-97242380D01*
X69469047Y-97242380D01*
X69564285Y-97290000D01*
X69659523Y-97385238D01*
X69707142Y-97575714D01*
X69707142Y-97909047D01*
X69659523Y-98099523D01*
X69564285Y-98194761D01*
X69469047Y-98242380D01*
X69278571Y-98242380D01*
X70564285Y-97575714D02*
X70564285Y-98242380D01*
X70326190Y-97194761D02*
X70088095Y-97909047D01*
X70707142Y-97909047D01*
X57054761Y-98337619D02*
X56959523Y-98290000D01*
X56864285Y-98194761D01*
X56721428Y-98051904D01*
X56626190Y-98004285D01*
X56530952Y-98004285D01*
X56578571Y-98242380D02*
X56483333Y-98194761D01*
X56388095Y-98099523D01*
X56340476Y-97909047D01*
X56340476Y-97575714D01*
X56388095Y-97385238D01*
X56483333Y-97290000D01*
X56578571Y-97242380D01*
X56769047Y-97242380D01*
X56864285Y-97290000D01*
X56959523Y-97385238D01*
X57007142Y-97575714D01*
X57007142Y-97909047D01*
X56959523Y-98099523D01*
X56864285Y-98194761D01*
X56769047Y-98242380D01*
X56578571Y-98242380D01*
X57340476Y-97242380D02*
X57959523Y-97242380D01*
X57626190Y-97623333D01*
X57769047Y-97623333D01*
X57864285Y-97670952D01*
X57911904Y-97718571D01*
X57959523Y-97813809D01*
X57959523Y-98051904D01*
X57911904Y-98147142D01*
X57864285Y-98194761D01*
X57769047Y-98242380D01*
X57483333Y-98242380D01*
X57388095Y-98194761D01*
X57340476Y-98147142D01*
X43084761Y-98337619D02*
X42989523Y-98290000D01*
X42894285Y-98194761D01*
X42751428Y-98051904D01*
X42656190Y-98004285D01*
X42560952Y-98004285D01*
X42608571Y-98242380D02*
X42513333Y-98194761D01*
X42418095Y-98099523D01*
X42370476Y-97909047D01*
X42370476Y-97575714D01*
X42418095Y-97385238D01*
X42513333Y-97290000D01*
X42608571Y-97242380D01*
X42799047Y-97242380D01*
X42894285Y-97290000D01*
X42989523Y-97385238D01*
X43037142Y-97575714D01*
X43037142Y-97909047D01*
X42989523Y-98099523D01*
X42894285Y-98194761D01*
X42799047Y-98242380D01*
X42608571Y-98242380D01*
X43418095Y-97337619D02*
X43465714Y-97290000D01*
X43560952Y-97242380D01*
X43799047Y-97242380D01*
X43894285Y-97290000D01*
X43941904Y-97337619D01*
X43989523Y-97432857D01*
X43989523Y-97528095D01*
X43941904Y-97670952D01*
X43370476Y-98242380D01*
X43989523Y-98242380D01*
X30384761Y-98337619D02*
X30289523Y-98290000D01*
X30194285Y-98194761D01*
X30051428Y-98051904D01*
X29956190Y-98004285D01*
X29860952Y-98004285D01*
X29908571Y-98242380D02*
X29813333Y-98194761D01*
X29718095Y-98099523D01*
X29670476Y-97909047D01*
X29670476Y-97575714D01*
X29718095Y-97385238D01*
X29813333Y-97290000D01*
X29908571Y-97242380D01*
X30099047Y-97242380D01*
X30194285Y-97290000D01*
X30289523Y-97385238D01*
X30337142Y-97575714D01*
X30337142Y-97909047D01*
X30289523Y-98099523D01*
X30194285Y-98194761D01*
X30099047Y-98242380D01*
X29908571Y-98242380D01*
X31289523Y-98242380D02*
X30718095Y-98242380D01*
X31003809Y-98242380D02*
X31003809Y-97242380D01*
X30908571Y-97385238D01*
X30813333Y-97480476D01*
X30718095Y-97528095D01*
D14*
X54899565Y-103159556D02*
X54899565Y-102519484D01*
X55051964Y-102519484D01*
X55143402Y-102549964D01*
X55204362Y-102610923D01*
X55234841Y-102671882D01*
X55265321Y-102793800D01*
X55265321Y-102885239D01*
X55234841Y-103007158D01*
X55204362Y-103068117D01*
X55143402Y-103129076D01*
X55051964Y-103159556D01*
X54899565Y-103159556D01*
X55509158Y-102580443D02*
X55539637Y-102549964D01*
X55600597Y-102519484D01*
X55752995Y-102519484D01*
X55813954Y-102549964D01*
X55844434Y-102580443D01*
X55874913Y-102641402D01*
X55874913Y-102702362D01*
X55844434Y-102793800D01*
X55478678Y-103159556D01*
X55874913Y-103159556D01*
X74944452Y-103159660D02*
X74639546Y-103159660D01*
X74639546Y-102519358D01*
X75066414Y-102519358D02*
X75432301Y-102519358D01*
X75249358Y-103159660D02*
X75249358Y-102519358D01*
X75645735Y-103159660D02*
X75645735Y-102519358D01*
X75889660Y-102519358D01*
X75950641Y-102549849D01*
X75981131Y-102580339D01*
X76011622Y-102641320D01*
X76011622Y-102732792D01*
X75981131Y-102793773D01*
X75950641Y-102824264D01*
X75889660Y-102854754D01*
X75645735Y-102854754D01*
X76286037Y-102915735D02*
X76773886Y-102915735D01*
X77048301Y-102580339D02*
X77078792Y-102549849D01*
X77139773Y-102519358D01*
X77292226Y-102519358D01*
X77353207Y-102549849D01*
X77383698Y-102580339D01*
X77414188Y-102641320D01*
X77414188Y-102702301D01*
X77383698Y-102793773D01*
X77017811Y-103159660D01*
X77414188Y-103159660D01*
X77627622Y-102519358D02*
X78054490Y-102519358D01*
X77780075Y-103159660D01*
X78389887Y-102793773D02*
X78328905Y-102763283D01*
X78298415Y-102732792D01*
X78267924Y-102671811D01*
X78267924Y-102641320D01*
X78298415Y-102580339D01*
X78328905Y-102549849D01*
X78389887Y-102519358D01*
X78511849Y-102519358D01*
X78572830Y-102549849D01*
X78603321Y-102580339D01*
X78633811Y-102641320D01*
X78633811Y-102671811D01*
X78603321Y-102732792D01*
X78572830Y-102763283D01*
X78511849Y-102793773D01*
X78389887Y-102793773D01*
X78328905Y-102824264D01*
X78298415Y-102854754D01*
X78267924Y-102915735D01*
X78267924Y-103037698D01*
X78298415Y-103098679D01*
X78328905Y-103129169D01*
X78389887Y-103159660D01*
X78511849Y-103159660D01*
X78572830Y-103129169D01*
X78603321Y-103098679D01*
X78633811Y-103037698D01*
X78633811Y-102915735D01*
X78603321Y-102854754D01*
X78572830Y-102824264D01*
X78511849Y-102793773D01*
X79182641Y-102732792D02*
X79182641Y-103159660D01*
X79030189Y-102488867D02*
X78877736Y-102946226D01*
X79274113Y-102946226D01*
X79518038Y-102824264D02*
X79731472Y-102824264D01*
X79822943Y-103159660D02*
X79518038Y-103159660D01*
X79518038Y-102519358D01*
X79822943Y-102519358D01*
X28229565Y-103159556D02*
X28229565Y-102519484D01*
X28381964Y-102519484D01*
X28473402Y-102549964D01*
X28534362Y-102610923D01*
X28564841Y-102671882D01*
X28595321Y-102793800D01*
X28595321Y-102885239D01*
X28564841Y-103007158D01*
X28534362Y-103068117D01*
X28473402Y-103129076D01*
X28381964Y-103159556D01*
X28229565Y-103159556D01*
X29204913Y-103159556D02*
X28839158Y-103159556D01*
X29022036Y-103159556D02*
X29022036Y-102519484D01*
X28961076Y-102610923D01*
X28900117Y-102671882D01*
X28839158Y-102702362D01*
X48401452Y-103159660D02*
X48096546Y-103159660D01*
X48096546Y-102519358D01*
X48523414Y-102519358D02*
X48889301Y-102519358D01*
X48706358Y-103159660D02*
X48706358Y-102519358D01*
X49102735Y-103159660D02*
X49102735Y-102519358D01*
X49346660Y-102519358D01*
X49407641Y-102549849D01*
X49438131Y-102580339D01*
X49468622Y-102641320D01*
X49468622Y-102732792D01*
X49438131Y-102793773D01*
X49407641Y-102824264D01*
X49346660Y-102854754D01*
X49102735Y-102854754D01*
X49743037Y-102915735D02*
X50230886Y-102915735D01*
X50505301Y-102580339D02*
X50535792Y-102549849D01*
X50596773Y-102519358D01*
X50749226Y-102519358D01*
X50810207Y-102549849D01*
X50840698Y-102580339D01*
X50871188Y-102641320D01*
X50871188Y-102702301D01*
X50840698Y-102793773D01*
X50474811Y-103159660D01*
X50871188Y-103159660D01*
X51084622Y-102519358D02*
X51511490Y-102519358D01*
X51237075Y-103159660D01*
X51846887Y-102793773D02*
X51785905Y-102763283D01*
X51755415Y-102732792D01*
X51724924Y-102671811D01*
X51724924Y-102641320D01*
X51755415Y-102580339D01*
X51785905Y-102549849D01*
X51846887Y-102519358D01*
X51968849Y-102519358D01*
X52029830Y-102549849D01*
X52060321Y-102580339D01*
X52090811Y-102641320D01*
X52090811Y-102671811D01*
X52060321Y-102732792D01*
X52029830Y-102763283D01*
X51968849Y-102793773D01*
X51846887Y-102793773D01*
X51785905Y-102824264D01*
X51755415Y-102854754D01*
X51724924Y-102915735D01*
X51724924Y-103037698D01*
X51755415Y-103098679D01*
X51785905Y-103129169D01*
X51846887Y-103159660D01*
X51968849Y-103159660D01*
X52029830Y-103129169D01*
X52060321Y-103098679D01*
X52090811Y-103037698D01*
X52090811Y-102915735D01*
X52060321Y-102854754D01*
X52029830Y-102824264D01*
X51968849Y-102793773D01*
X52639641Y-102732792D02*
X52639641Y-103159660D01*
X52487189Y-102488867D02*
X52334736Y-102946226D01*
X52731113Y-102946226D01*
X52975038Y-102824264D02*
X53188472Y-102824264D01*
X53279943Y-103159660D02*
X52975038Y-103159660D01*
X52975038Y-102519358D01*
X53279943Y-102519358D01*
M02*
