G04 #@! TF.GenerationSoftware,KiCad,Pcbnew,5.99.0-unknown-r16821-0ff20c18*
G04 #@! TF.CreationDate,2019-09-29T17:51:57-05:00*
G04 #@! TF.ProjectId,led_module,6c65645f-6d6f-4647-956c-652e6b696361,rev?*
G04 #@! TF.SameCoordinates,Original*
G04 #@! TF.FileFunction,Copper,L1,Top*
G04 #@! TF.FilePolarity,Positive*
%FSLAX46Y46*%
G04 Gerber Fmt 4.6, Leading zero omitted, Abs format (unit mm)*
G04 Created by KiCad (PCBNEW 5.99.0-unknown-r16821-0ff20c18) date 2019-09-29 17:51:57*
%MOMM*%
%LPD*%
G04 APERTURE LIST*
%ADD10O,1.700000X1.700000*%
%ADD11R,1.700000X1.700000*%
%ADD12R,1.408000X1.408000*%
%ADD13C,1.408000*%
%ADD14C,0.250000*%
G04 APERTURE END LIST*
D10*
X29845000Y-128905000D03*
X29845000Y-126365000D03*
X32385000Y-128905000D03*
X32385000Y-126365000D03*
X34925000Y-128905000D03*
X34925000Y-126365000D03*
X37465000Y-128905000D03*
X37465000Y-126365000D03*
X40005000Y-128905000D03*
X40005000Y-126365000D03*
X42545000Y-128905000D03*
X42545000Y-126365000D03*
X45085000Y-128905000D03*
X45085000Y-126365000D03*
X47625000Y-128905000D03*
X47625000Y-126365000D03*
X50165000Y-128905000D03*
X50165000Y-126365000D03*
X52705000Y-128905000D03*
X52705000Y-126365000D03*
X55245000Y-128905000D03*
X55245000Y-126365000D03*
X57785000Y-128905000D03*
X57785000Y-126365000D03*
X60325000Y-128905000D03*
X60325000Y-126365000D03*
X62865000Y-128905000D03*
X62865000Y-126365000D03*
X65405000Y-128905000D03*
X65405000Y-126365000D03*
X67945000Y-128905000D03*
X67945000Y-126365000D03*
X70485000Y-128905000D03*
X70485000Y-126365000D03*
X73025000Y-128905000D03*
X73025000Y-126365000D03*
X75565000Y-128905000D03*
X75565000Y-126365000D03*
X78105000Y-128905000D03*
D11*
X78105000Y-126365000D03*
D12*
X57023000Y-121158000D03*
D13*
X59563000Y-121158000D03*
X62103000Y-121158000D03*
X64643000Y-121158000D03*
X67183000Y-121158000D03*
X69723000Y-121158000D03*
X72263000Y-121158000D03*
X74803000Y-121158000D03*
X77343000Y-121158000D03*
X77343000Y-105918000D03*
X74803000Y-105918000D03*
X72263000Y-105918000D03*
X69723000Y-105918000D03*
X67183000Y-105918000D03*
X64643000Y-105918000D03*
X62103000Y-105918000D03*
X59563000Y-105918000D03*
X57023000Y-105918000D03*
D12*
X30480000Y-121158000D03*
D13*
X33020000Y-121158000D03*
X35560000Y-121158000D03*
X38100000Y-121158000D03*
X40640000Y-121158000D03*
X43180000Y-121158000D03*
X45720000Y-121158000D03*
X48260000Y-121158000D03*
X50800000Y-121158000D03*
X50800000Y-105918000D03*
X48260000Y-105918000D03*
X45720000Y-105918000D03*
X43180000Y-105918000D03*
X40640000Y-105918000D03*
X38100000Y-105918000D03*
X35560000Y-105918000D03*
X33020000Y-105918000D03*
X30480000Y-105918000D03*
D14*
X33749700Y-128537600D02*
X33749700Y-128905000D01*
X32941800Y-127729700D02*
X33749700Y-128537600D01*
X32048700Y-127729700D02*
X32941800Y-127729700D01*
X31209600Y-126890600D02*
X32048700Y-127729700D01*
X31209600Y-125826500D02*
X31209600Y-126890600D01*
X28506700Y-123123600D02*
X31209600Y-125826500D01*
X28506700Y-117753400D02*
X28506700Y-123123600D01*
X39370000Y-106890100D02*
X28506700Y-117753400D01*
X39370000Y-105710900D02*
X39370000Y-106890100D01*
X41125000Y-103955900D02*
X39370000Y-105710900D01*
X52979100Y-103955900D02*
X41125000Y-103955900D01*
X55993600Y-106970400D02*
X52979100Y-103955900D01*
X61050600Y-106970400D02*
X55993600Y-106970400D01*
X62103000Y-105918000D02*
X61050600Y-106970400D01*
X34925000Y-128905000D02*
X33749700Y-128905000D01*
X54610500Y-103505500D02*
X57023000Y-105918000D01*
X36516700Y-103505500D02*
X54610500Y-103505500D01*
X34130700Y-105891500D02*
X36516700Y-103505500D01*
X34130700Y-106263200D02*
X34130700Y-105891500D01*
X33435600Y-106958300D02*
X34130700Y-106263200D01*
X31520300Y-106958300D02*
X33435600Y-106958300D01*
X30480000Y-105918000D02*
X31520300Y-106958300D01*
X35882900Y-103055100D02*
X33020000Y-105918000D01*
X56700100Y-103055100D02*
X35882900Y-103055100D01*
X59563000Y-105918000D02*
X56700100Y-103055100D01*
X68220200Y-107420800D02*
X69723000Y-105918000D01*
X53778000Y-107420800D02*
X68220200Y-107420800D01*
X50772300Y-104415100D02*
X53778000Y-107420800D01*
X44682900Y-104415100D02*
X50772300Y-104415100D01*
X43180000Y-105918000D02*
X44682900Y-104415100D01*
X34925000Y-126365000D02*
X33749700Y-126365000D01*
X33443800Y-118194200D02*
X45720000Y-105918000D01*
X31541000Y-118194200D02*
X33443800Y-118194200D01*
X29450600Y-120284600D02*
X31541000Y-118194200D01*
X29450600Y-122016600D02*
X29450600Y-120284600D01*
X32623700Y-125189700D02*
X29450600Y-122016600D01*
X32905300Y-125189700D02*
X32623700Y-125189700D01*
X33749700Y-126034100D02*
X32905300Y-125189700D01*
X33749700Y-126365000D02*
X33749700Y-126034100D01*
X52753100Y-107871100D02*
X50800000Y-105918000D01*
X75389900Y-107871100D02*
X52753100Y-107871100D01*
X77343000Y-105918000D02*
X75389900Y-107871100D01*
X28957100Y-122937100D02*
X32385000Y-126365000D01*
X28957100Y-120140900D02*
X28957100Y-122937100D01*
X32135500Y-116962500D02*
X28957100Y-120140900D01*
X33615000Y-116962500D02*
X32135500Y-116962500D01*
X44690700Y-105886800D02*
X33615000Y-116962500D01*
X44690700Y-105463300D02*
X44690700Y-105886800D01*
X45288600Y-104865400D02*
X44690700Y-105463300D01*
X49747400Y-104865400D02*
X45288600Y-104865400D01*
X50800000Y-105918000D02*
X49747400Y-104865400D01*
X74363200Y-124137800D02*
X77343000Y-121158000D01*
X65889600Y-124137800D02*
X74363200Y-124137800D01*
X64135000Y-125892400D02*
X65889600Y-124137800D01*
X64135000Y-126796000D02*
X64135000Y-125892400D01*
X63390600Y-127540400D02*
X64135000Y-126796000D01*
X54688400Y-127540400D02*
X63390600Y-127540400D01*
X53880300Y-126732300D02*
X54688400Y-127540400D01*
X53880300Y-126365000D02*
X53880300Y-126732300D01*
X52705000Y-126365000D02*
X53880300Y-126365000D01*
X72867900Y-123093100D02*
X74803000Y-121158000D01*
X50195100Y-123093100D02*
X72867900Y-123093100D01*
X48260000Y-121158000D02*
X50195100Y-123093100D01*
X59149700Y-125997600D02*
X59149700Y-126365000D01*
X58341800Y-125189700D02*
X59149700Y-125997600D01*
X49751700Y-125189700D02*
X58341800Y-125189700D01*
X45720000Y-121158000D02*
X49751700Y-125189700D01*
X60325000Y-126365000D02*
X59149700Y-126365000D01*
X62865000Y-126365000D02*
X61689700Y-126365000D01*
X44209800Y-120128200D02*
X43180000Y-121158000D01*
X46159500Y-120128200D02*
X44209800Y-120128200D01*
X46990000Y-120958700D02*
X46159500Y-120128200D01*
X46990000Y-121374900D02*
X46990000Y-120958700D01*
X49363800Y-123748700D02*
X46990000Y-121374900D01*
X59440700Y-123748700D02*
X49363800Y-123748700D01*
X61689700Y-125997700D02*
X59440700Y-123748700D01*
X61689700Y-126365000D02*
X61689700Y-125997700D01*
X42623600Y-119174400D02*
X40640000Y-121158000D01*
X61597600Y-119174400D02*
X42623600Y-119174400D01*
X63373100Y-120949900D02*
X61597600Y-119174400D01*
X63373100Y-121414100D02*
X63373100Y-120949900D01*
X64146400Y-122187400D02*
X63373100Y-121414100D01*
X66153600Y-122187400D02*
X64146400Y-122187400D01*
X67183000Y-121158000D02*
X66153600Y-122187400D01*
X40533900Y-118724100D02*
X38100000Y-121158000D01*
X62209100Y-118724100D02*
X40533900Y-118724100D01*
X64643000Y-121158000D02*
X62209100Y-118724100D01*
X34050400Y-122188400D02*
X33020000Y-121158000D01*
X41099700Y-122188400D02*
X34050400Y-122188400D01*
X41910000Y-121378100D02*
X41099700Y-122188400D01*
X41910000Y-120951500D02*
X41910000Y-121378100D01*
X43236700Y-119624800D02*
X41910000Y-120951500D01*
X58029800Y-119624800D02*
X43236700Y-119624800D01*
X59563000Y-121158000D02*
X58029800Y-119624800D01*
X57023000Y-121158000D02*
X58052300Y-121158000D01*
X75565000Y-126365000D02*
X75565000Y-125189700D01*
X30480000Y-121158000D02*
X31509300Y-121158000D01*
X69239900Y-120109800D02*
X68453000Y-120896700D01*
X77854500Y-120109800D02*
X69239900Y-120109800D01*
X78412100Y-120667400D02*
X77854500Y-120109800D01*
X78412100Y-122342600D02*
X78412100Y-120667400D01*
X75565000Y-125189700D02*
X78412100Y-122342600D01*
X59532000Y-122637700D02*
X58052300Y-121158000D01*
X67172900Y-122637700D02*
X59532000Y-122637700D01*
X68453000Y-121357600D02*
X67172900Y-122637700D01*
X68453000Y-120896700D02*
X68453000Y-121357600D01*
X65830100Y-118273800D02*
X68453000Y-120896700D01*
X34393500Y-118273800D02*
X65830100Y-118273800D01*
X31509300Y-121158000D02*
X34393500Y-118273800D01*
M02*
