G04 #@! TF.GenerationSoftware,KiCad,Pcbnew,5.99.0-unknown-r17121-d4cea0f2*
G04 #@! TF.CreationDate,2019-12-07T19:03:38-06:00*
G04 #@! TF.ProjectId,dip_switch_pmod,6469705f-7377-4697-9463-685f706d6f64,A*
G04 #@! TF.SameCoordinates,Original*
G04 #@! TF.FileFunction,Soldermask,Top*
G04 #@! TF.FilePolarity,Negative*
%FSLAX46Y46*%
G04 Gerber Fmt 4.6, Leading zero omitted, Abs format (unit mm)*
G04 Created by KiCad (PCBNEW 5.99.0-unknown-r17121-d4cea0f2) date 2019-12-07 19:03:38*
%MOMM*%
%LPD*%
G04 APERTURE LIST*
%ADD10C,0.150000*%
G04 APERTURE END LIST*
D10*
X161234476Y-84375809D02*
X161520190Y-84137714D01*
X161234476Y-83947238D02*
X161901142Y-83947238D01*
X161901142Y-84232952D01*
X161853523Y-84328190D01*
X161758285Y-84375809D01*
X161663047Y-84375809D01*
X161567809Y-84328190D01*
X161520190Y-84232952D01*
X161520190Y-83947238D01*
X162234476Y-84137714D02*
X162186857Y-83899619D01*
X162044000Y-83661523D01*
X161805904Y-83518666D01*
X161567809Y-83471047D01*
X161329714Y-83518666D01*
X161091619Y-83661523D01*
X160948761Y-83899619D01*
X160901142Y-84137714D01*
X160948761Y-84375809D01*
X161091619Y-84613904D01*
X161329714Y-84756761D01*
X161567809Y-84804380D01*
X161805904Y-84756761D01*
X162044000Y-84613904D01*
X162186857Y-84375809D01*
X162234476Y-84137714D01*
X161853523Y-86042476D02*
X161901142Y-85947238D01*
X161901142Y-85756761D01*
X161853523Y-85661523D01*
X161758285Y-85566285D01*
X161663047Y-85518666D01*
X161472571Y-85518666D01*
X161377333Y-85566285D01*
X161282095Y-85661523D01*
X161234476Y-85756761D01*
X161234476Y-85947238D01*
X161282095Y-86042476D01*
X162234476Y-85852000D02*
X162186857Y-85613904D01*
X162044000Y-85375809D01*
X161805904Y-85232952D01*
X161567809Y-85185333D01*
X161329714Y-85232952D01*
X161091619Y-85375809D01*
X160948761Y-85613904D01*
X160901142Y-85852000D01*
X160948761Y-86090095D01*
X161091619Y-86328190D01*
X161329714Y-86471047D01*
X161567809Y-86518666D01*
X161805904Y-86471047D01*
X162044000Y-86328190D01*
X162186857Y-86090095D01*
X162234476Y-85852000D01*
X161234476Y-87804380D02*
X161520190Y-87566285D01*
X161234476Y-87375809D02*
X161901142Y-87375809D01*
X161901142Y-87661523D01*
X161853523Y-87756761D01*
X161758285Y-87804380D01*
X161663047Y-87804380D01*
X161567809Y-87756761D01*
X161520190Y-87661523D01*
X161520190Y-87375809D01*
X162234476Y-87566285D02*
X162186857Y-87328190D01*
X162044000Y-87090095D01*
X161805904Y-86947238D01*
X161567809Y-86899619D01*
X161329714Y-86947238D01*
X161091619Y-87090095D01*
X160948761Y-87328190D01*
X160901142Y-87566285D01*
X160948761Y-87804380D01*
X161091619Y-88042476D01*
X161329714Y-88185333D01*
X161567809Y-88232952D01*
X161805904Y-88185333D01*
X162044000Y-88042476D01*
X162186857Y-87804380D01*
X162234476Y-87566285D01*
G36*
X130844902Y-97104283D02*
G01*
X130889637Y-97104595D01*
X130933460Y-97113590D01*
X130983360Y-97118835D01*
X131025132Y-97132408D01*
X131062723Y-97140124D01*
X131109851Y-97159935D01*
X131163488Y-97177363D01*
X131196099Y-97196191D01*
X131225614Y-97208598D01*
X131273301Y-97240763D01*
X131327511Y-97272061D01*
X131350826Y-97293054D01*
X131372101Y-97307404D01*
X131417183Y-97352802D01*
X131468261Y-97398793D01*
X131483003Y-97419083D01*
X131496608Y-97432784D01*
X131535643Y-97491537D01*
X131579586Y-97552019D01*
X131587221Y-97569168D01*
X131594388Y-97579955D01*
X131623865Y-97651472D01*
X131656621Y-97725042D01*
X131659211Y-97737225D01*
X131661724Y-97743323D01*
X131678292Y-97826997D01*
X131695999Y-97910301D01*
X131695999Y-98099699D01*
X131693115Y-98113269D01*
X131693030Y-98119331D01*
X131674342Y-98201585D01*
X131656621Y-98284958D01*
X131654129Y-98290555D01*
X131654078Y-98290780D01*
X131582210Y-98452197D01*
X131582078Y-98452385D01*
X131579586Y-98457981D01*
X131529480Y-98526946D01*
X131480357Y-98596582D01*
X131475585Y-98601126D01*
X131468261Y-98611207D01*
X131408396Y-98665110D01*
X131352396Y-98718438D01*
X131341464Y-98725376D01*
X131327511Y-98737939D01*
X131262764Y-98775321D01*
X131203211Y-98813114D01*
X131185209Y-98820097D01*
X131163488Y-98832637D01*
X131098115Y-98853878D01*
X131038468Y-98877014D01*
X131013200Y-98881469D01*
X130983360Y-98891165D01*
X130921095Y-98897709D01*
X130864460Y-98907695D01*
X130832459Y-98907025D01*
X130795000Y-98910962D01*
X130738902Y-98905066D01*
X130687799Y-98903996D01*
X130650323Y-98895756D01*
X130606640Y-98891165D01*
X130558917Y-98875659D01*
X130515225Y-98866052D01*
X130474230Y-98848142D01*
X130426512Y-98832637D01*
X130388473Y-98810675D01*
X130353310Y-98795313D01*
X130311337Y-98766141D01*
X130262489Y-98737939D01*
X130234504Y-98712741D01*
X130208215Y-98694470D01*
X130168257Y-98653092D01*
X130121739Y-98611207D01*
X130103296Y-98585823D01*
X130085473Y-98567366D01*
X130050821Y-98513597D01*
X130010414Y-98457981D01*
X130000212Y-98435066D01*
X129989754Y-98418839D01*
X129963789Y-98353261D01*
X129933379Y-98284958D01*
X129929476Y-98266596D01*
X129924707Y-98254551D01*
X129910740Y-98178448D01*
X129894001Y-98099699D01*
X129894001Y-98087246D01*
X129892811Y-98080762D01*
X129894001Y-97995535D01*
X129894001Y-97910301D01*
X129895275Y-97904308D01*
X129895278Y-97904077D01*
X129932015Y-97731246D01*
X129932105Y-97731036D01*
X129933379Y-97725042D01*
X129968042Y-97647188D01*
X130001622Y-97568839D01*
X130005348Y-97563397D01*
X130010414Y-97552019D01*
X130057746Y-97486872D01*
X130101452Y-97423041D01*
X130110706Y-97413979D01*
X130121739Y-97398793D01*
X130177297Y-97348769D01*
X130227693Y-97299417D01*
X130243848Y-97288846D01*
X130262489Y-97272061D01*
X130322026Y-97237687D01*
X130375551Y-97202662D01*
X130399340Y-97193050D01*
X130426512Y-97177363D01*
X130486045Y-97158019D01*
X130539376Y-97136472D01*
X130570820Y-97130474D01*
X130606640Y-97118835D01*
X130662744Y-97112938D01*
X130712945Y-97103362D01*
X130751312Y-97103630D01*
X130795000Y-97099038D01*
X130844902Y-97104283D01*
G37*
G36*
X128304902Y-97104283D02*
G01*
X128349637Y-97104595D01*
X128393460Y-97113590D01*
X128443360Y-97118835D01*
X128485132Y-97132408D01*
X128522723Y-97140124D01*
X128569851Y-97159935D01*
X128623488Y-97177363D01*
X128656099Y-97196191D01*
X128685614Y-97208598D01*
X128733301Y-97240763D01*
X128787511Y-97272061D01*
X128810826Y-97293054D01*
X128832101Y-97307404D01*
X128877183Y-97352802D01*
X128928261Y-97398793D01*
X128943003Y-97419083D01*
X128956608Y-97432784D01*
X128995643Y-97491537D01*
X129039586Y-97552019D01*
X129047221Y-97569168D01*
X129054388Y-97579955D01*
X129083865Y-97651472D01*
X129116621Y-97725042D01*
X129119211Y-97737225D01*
X129121724Y-97743323D01*
X129138292Y-97826997D01*
X129155999Y-97910301D01*
X129155999Y-98099699D01*
X129153115Y-98113269D01*
X129153030Y-98119331D01*
X129134342Y-98201585D01*
X129116621Y-98284958D01*
X129114129Y-98290555D01*
X129114078Y-98290780D01*
X129042210Y-98452197D01*
X129042078Y-98452385D01*
X129039586Y-98457981D01*
X128989480Y-98526946D01*
X128940357Y-98596582D01*
X128935585Y-98601126D01*
X128928261Y-98611207D01*
X128868396Y-98665110D01*
X128812396Y-98718438D01*
X128801464Y-98725376D01*
X128787511Y-98737939D01*
X128722764Y-98775321D01*
X128663211Y-98813114D01*
X128645209Y-98820097D01*
X128623488Y-98832637D01*
X128558115Y-98853878D01*
X128498468Y-98877014D01*
X128473200Y-98881469D01*
X128443360Y-98891165D01*
X128381095Y-98897709D01*
X128324460Y-98907695D01*
X128292459Y-98907025D01*
X128255000Y-98910962D01*
X128198902Y-98905066D01*
X128147799Y-98903996D01*
X128110323Y-98895756D01*
X128066640Y-98891165D01*
X128018917Y-98875659D01*
X127975225Y-98866052D01*
X127934230Y-98848142D01*
X127886512Y-98832637D01*
X127848473Y-98810675D01*
X127813310Y-98795313D01*
X127771337Y-98766141D01*
X127722489Y-98737939D01*
X127694504Y-98712741D01*
X127668215Y-98694470D01*
X127628257Y-98653092D01*
X127581739Y-98611207D01*
X127563296Y-98585823D01*
X127545473Y-98567366D01*
X127510821Y-98513597D01*
X127470414Y-98457981D01*
X127460212Y-98435066D01*
X127449754Y-98418839D01*
X127423789Y-98353261D01*
X127393379Y-98284958D01*
X127389476Y-98266596D01*
X127384707Y-98254551D01*
X127370740Y-98178448D01*
X127354001Y-98099699D01*
X127354001Y-98087246D01*
X127352811Y-98080762D01*
X127354001Y-97995535D01*
X127354001Y-97910301D01*
X127355275Y-97904308D01*
X127355278Y-97904077D01*
X127392015Y-97731246D01*
X127392105Y-97731036D01*
X127393379Y-97725042D01*
X127428042Y-97647188D01*
X127461622Y-97568839D01*
X127465348Y-97563397D01*
X127470414Y-97552019D01*
X127517746Y-97486872D01*
X127561452Y-97423041D01*
X127570706Y-97413979D01*
X127581739Y-97398793D01*
X127637297Y-97348769D01*
X127687693Y-97299417D01*
X127703848Y-97288846D01*
X127722489Y-97272061D01*
X127782026Y-97237687D01*
X127835551Y-97202662D01*
X127859340Y-97193050D01*
X127886512Y-97177363D01*
X127946045Y-97158019D01*
X127999376Y-97136472D01*
X128030820Y-97130474D01*
X128066640Y-97118835D01*
X128122744Y-97112938D01*
X128172945Y-97103362D01*
X128211312Y-97103630D01*
X128255000Y-97099038D01*
X128304902Y-97104283D01*
G37*
G36*
X159387976Y-96937826D02*
G01*
X159429766Y-96935782D01*
X159474056Y-96942639D01*
X159524810Y-96945476D01*
X159565163Y-96956743D01*
X159600621Y-96962232D01*
X159648204Y-96979928D01*
X159702898Y-96995199D01*
X159734622Y-97012067D01*
X159762659Y-97022494D01*
X159810757Y-97052549D01*
X159866153Y-97082004D01*
X159888968Y-97101421D01*
X159909271Y-97114108D01*
X159954641Y-97157313D01*
X160006961Y-97201841D01*
X160021463Y-97220947D01*
X160034472Y-97233335D01*
X160073616Y-97289655D01*
X160118751Y-97349118D01*
X160126302Y-97365459D01*
X160133142Y-97375301D01*
X160162508Y-97443817D01*
X160196307Y-97516965D01*
X160198885Y-97528692D01*
X160201247Y-97534202D01*
X160217429Y-97613036D01*
X160236011Y-97697551D01*
X160235345Y-97888388D01*
X160216181Y-97972738D01*
X160199443Y-98051485D01*
X160197041Y-98056982D01*
X160194381Y-98068692D01*
X160160069Y-98141609D01*
X160130227Y-98209915D01*
X160123318Y-98219709D01*
X160115655Y-98235994D01*
X160070114Y-98295130D01*
X160030570Y-98351187D01*
X160017472Y-98363487D01*
X160002840Y-98382487D01*
X159950227Y-98426635D01*
X159904544Y-98469534D01*
X159884147Y-98482082D01*
X159861199Y-98501338D01*
X159805600Y-98530405D01*
X159757293Y-98560123D01*
X159729184Y-98570354D01*
X159697341Y-98587001D01*
X159642534Y-98601892D01*
X159594831Y-98619254D01*
X159559340Y-98624495D01*
X159518911Y-98635479D01*
X159468139Y-98637962D01*
X159423803Y-98644509D01*
X159382027Y-98642174D01*
X159334233Y-98644511D01*
X159289992Y-98637028D01*
X159251189Y-98634859D01*
X159204980Y-98622650D01*
X159151923Y-98613676D01*
X159115839Y-98599097D01*
X159084035Y-98590694D01*
X159035897Y-98566799D01*
X158980488Y-98544412D01*
X158953311Y-98525804D01*
X158929182Y-98513826D01*
X158882128Y-98477063D01*
X158827926Y-98439950D01*
X158809469Y-98420295D01*
X158792950Y-98407389D01*
X158750400Y-98357393D01*
X158701354Y-98305164D01*
X158690608Y-98287138D01*
X158680896Y-98275726D01*
X158646401Y-98212981D01*
X158606678Y-98146344D01*
X158601943Y-98132111D01*
X158597610Y-98124229D01*
X158574692Y-98050192D01*
X158548314Y-97970898D01*
X158547372Y-97961934D01*
X158546486Y-97959072D01*
X158538347Y-97876068D01*
X158528987Y-97787012D01*
X158538967Y-97698044D01*
X158547687Y-97615078D01*
X158548593Y-97612220D01*
X158549598Y-97603265D01*
X158576530Y-97524153D01*
X158599963Y-97450281D01*
X158604350Y-97442432D01*
X158609184Y-97428231D01*
X158649382Y-97361857D01*
X158684304Y-97299371D01*
X158694092Y-97288031D01*
X158704967Y-97270075D01*
X158754385Y-97218181D01*
X158797273Y-97168495D01*
X158813879Y-97155707D01*
X158832477Y-97136177D01*
X158886952Y-97099433D01*
X158934250Y-97063009D01*
X158958458Y-97051202D01*
X158985765Y-97032783D01*
X159041319Y-97010787D01*
X159089633Y-96987223D01*
X159121503Y-96979040D01*
X159157679Y-96964717D01*
X159210795Y-96956114D01*
X159257088Y-96944228D01*
X159295903Y-96942330D01*
X159340199Y-96935155D01*
X159387976Y-96937826D01*
G37*
G36*
X156847976Y-96937826D02*
G01*
X156889766Y-96935782D01*
X156934056Y-96942639D01*
X156984810Y-96945476D01*
X157025163Y-96956743D01*
X157060621Y-96962232D01*
X157108204Y-96979928D01*
X157162898Y-96995199D01*
X157194622Y-97012067D01*
X157222659Y-97022494D01*
X157270757Y-97052549D01*
X157326153Y-97082004D01*
X157348968Y-97101421D01*
X157369271Y-97114108D01*
X157414641Y-97157313D01*
X157466961Y-97201841D01*
X157481463Y-97220947D01*
X157494472Y-97233335D01*
X157533616Y-97289655D01*
X157578751Y-97349118D01*
X157586302Y-97365459D01*
X157593142Y-97375301D01*
X157622508Y-97443817D01*
X157656307Y-97516965D01*
X157658885Y-97528692D01*
X157661247Y-97534202D01*
X157677429Y-97613036D01*
X157696011Y-97697551D01*
X157695345Y-97888388D01*
X157676181Y-97972738D01*
X157659443Y-98051485D01*
X157657041Y-98056982D01*
X157654381Y-98068692D01*
X157620069Y-98141609D01*
X157590227Y-98209915D01*
X157583318Y-98219709D01*
X157575655Y-98235994D01*
X157530114Y-98295130D01*
X157490570Y-98351187D01*
X157477472Y-98363487D01*
X157462840Y-98382487D01*
X157410227Y-98426635D01*
X157364544Y-98469534D01*
X157344147Y-98482082D01*
X157321199Y-98501338D01*
X157265600Y-98530405D01*
X157217293Y-98560123D01*
X157189184Y-98570354D01*
X157157341Y-98587001D01*
X157102534Y-98601892D01*
X157054831Y-98619254D01*
X157019340Y-98624495D01*
X156978911Y-98635479D01*
X156928139Y-98637962D01*
X156883803Y-98644509D01*
X156842027Y-98642174D01*
X156794233Y-98644511D01*
X156749992Y-98637028D01*
X156711189Y-98634859D01*
X156664980Y-98622650D01*
X156611923Y-98613676D01*
X156575839Y-98599097D01*
X156544035Y-98590694D01*
X156495897Y-98566799D01*
X156440488Y-98544412D01*
X156413311Y-98525804D01*
X156389182Y-98513826D01*
X156342128Y-98477063D01*
X156287926Y-98439950D01*
X156269469Y-98420295D01*
X156252950Y-98407389D01*
X156210400Y-98357393D01*
X156161354Y-98305164D01*
X156150608Y-98287138D01*
X156140896Y-98275726D01*
X156106401Y-98212981D01*
X156066678Y-98146344D01*
X156061943Y-98132111D01*
X156057610Y-98124229D01*
X156034692Y-98050192D01*
X156008314Y-97970898D01*
X156007372Y-97961934D01*
X156006486Y-97959072D01*
X155998347Y-97876068D01*
X155988987Y-97787012D01*
X155998967Y-97698044D01*
X156007687Y-97615078D01*
X156008593Y-97612220D01*
X156009598Y-97603265D01*
X156036530Y-97524153D01*
X156059963Y-97450281D01*
X156064350Y-97442432D01*
X156069184Y-97428231D01*
X156109382Y-97361857D01*
X156144304Y-97299371D01*
X156154092Y-97288031D01*
X156164967Y-97270075D01*
X156214385Y-97218181D01*
X156257273Y-97168495D01*
X156273879Y-97155707D01*
X156292477Y-97136177D01*
X156346952Y-97099433D01*
X156394250Y-97063009D01*
X156418458Y-97051202D01*
X156445765Y-97032783D01*
X156501319Y-97010787D01*
X156549633Y-96987223D01*
X156581503Y-96979040D01*
X156617679Y-96964717D01*
X156670795Y-96956114D01*
X156717088Y-96944228D01*
X156755903Y-96942330D01*
X156800199Y-96935155D01*
X156847976Y-96937826D01*
G37*
G36*
X141607976Y-96937826D02*
G01*
X141649766Y-96935782D01*
X141694056Y-96942639D01*
X141744810Y-96945476D01*
X141785163Y-96956743D01*
X141820621Y-96962232D01*
X141868204Y-96979928D01*
X141922898Y-96995199D01*
X141954622Y-97012067D01*
X141982659Y-97022494D01*
X142030757Y-97052549D01*
X142086153Y-97082004D01*
X142108968Y-97101421D01*
X142129271Y-97114108D01*
X142174641Y-97157313D01*
X142226961Y-97201841D01*
X142241463Y-97220947D01*
X142254472Y-97233335D01*
X142293616Y-97289655D01*
X142338751Y-97349118D01*
X142346302Y-97365459D01*
X142353142Y-97375301D01*
X142382508Y-97443817D01*
X142416307Y-97516965D01*
X142418885Y-97528692D01*
X142421247Y-97534202D01*
X142437429Y-97613036D01*
X142456011Y-97697551D01*
X142455345Y-97888388D01*
X142436181Y-97972738D01*
X142419443Y-98051485D01*
X142417041Y-98056982D01*
X142414381Y-98068692D01*
X142380069Y-98141609D01*
X142350227Y-98209915D01*
X142343318Y-98219709D01*
X142335655Y-98235994D01*
X142290114Y-98295130D01*
X142250570Y-98351187D01*
X142237472Y-98363487D01*
X142222840Y-98382487D01*
X142170227Y-98426635D01*
X142124544Y-98469534D01*
X142104147Y-98482082D01*
X142081199Y-98501338D01*
X142025600Y-98530405D01*
X141977293Y-98560123D01*
X141949184Y-98570354D01*
X141917341Y-98587001D01*
X141862534Y-98601892D01*
X141814831Y-98619254D01*
X141779340Y-98624495D01*
X141738911Y-98635479D01*
X141688139Y-98637962D01*
X141643803Y-98644509D01*
X141602027Y-98642174D01*
X141554233Y-98644511D01*
X141509992Y-98637028D01*
X141471189Y-98634859D01*
X141424980Y-98622650D01*
X141371923Y-98613676D01*
X141335839Y-98599097D01*
X141304035Y-98590694D01*
X141255897Y-98566799D01*
X141200488Y-98544412D01*
X141173311Y-98525804D01*
X141149182Y-98513826D01*
X141102128Y-98477063D01*
X141047926Y-98439950D01*
X141029469Y-98420295D01*
X141012950Y-98407389D01*
X140970400Y-98357393D01*
X140921354Y-98305164D01*
X140910608Y-98287138D01*
X140900896Y-98275726D01*
X140866401Y-98212981D01*
X140826678Y-98146344D01*
X140821943Y-98132111D01*
X140817610Y-98124229D01*
X140794692Y-98050192D01*
X140768314Y-97970898D01*
X140767372Y-97961934D01*
X140766486Y-97959072D01*
X140758347Y-97876068D01*
X140748987Y-97787012D01*
X140758967Y-97698044D01*
X140767687Y-97615078D01*
X140768593Y-97612220D01*
X140769598Y-97603265D01*
X140796530Y-97524153D01*
X140819963Y-97450281D01*
X140824350Y-97442432D01*
X140829184Y-97428231D01*
X140869382Y-97361857D01*
X140904304Y-97299371D01*
X140914092Y-97288031D01*
X140924967Y-97270075D01*
X140974385Y-97218181D01*
X141017273Y-97168495D01*
X141033879Y-97155707D01*
X141052477Y-97136177D01*
X141106952Y-97099433D01*
X141154250Y-97063009D01*
X141178458Y-97051202D01*
X141205765Y-97032783D01*
X141261319Y-97010787D01*
X141309633Y-96987223D01*
X141341503Y-96979040D01*
X141377679Y-96964717D01*
X141430795Y-96956114D01*
X141477088Y-96944228D01*
X141515903Y-96942330D01*
X141560199Y-96935155D01*
X141607976Y-96937826D01*
G37*
G36*
X154307976Y-96937826D02*
G01*
X154349766Y-96935782D01*
X154394056Y-96942639D01*
X154444810Y-96945476D01*
X154485163Y-96956743D01*
X154520621Y-96962232D01*
X154568204Y-96979928D01*
X154622898Y-96995199D01*
X154654622Y-97012067D01*
X154682659Y-97022494D01*
X154730757Y-97052549D01*
X154786153Y-97082004D01*
X154808968Y-97101421D01*
X154829271Y-97114108D01*
X154874641Y-97157313D01*
X154926961Y-97201841D01*
X154941463Y-97220947D01*
X154954472Y-97233335D01*
X154993616Y-97289655D01*
X155038751Y-97349118D01*
X155046302Y-97365459D01*
X155053142Y-97375301D01*
X155082508Y-97443817D01*
X155116307Y-97516965D01*
X155118885Y-97528692D01*
X155121247Y-97534202D01*
X155137429Y-97613036D01*
X155156011Y-97697551D01*
X155155345Y-97888388D01*
X155136181Y-97972738D01*
X155119443Y-98051485D01*
X155117041Y-98056982D01*
X155114381Y-98068692D01*
X155080069Y-98141609D01*
X155050227Y-98209915D01*
X155043318Y-98219709D01*
X155035655Y-98235994D01*
X154990114Y-98295130D01*
X154950570Y-98351187D01*
X154937472Y-98363487D01*
X154922840Y-98382487D01*
X154870227Y-98426635D01*
X154824544Y-98469534D01*
X154804147Y-98482082D01*
X154781199Y-98501338D01*
X154725600Y-98530405D01*
X154677293Y-98560123D01*
X154649184Y-98570354D01*
X154617341Y-98587001D01*
X154562534Y-98601892D01*
X154514831Y-98619254D01*
X154479340Y-98624495D01*
X154438911Y-98635479D01*
X154388139Y-98637962D01*
X154343803Y-98644509D01*
X154302027Y-98642174D01*
X154254233Y-98644511D01*
X154209992Y-98637028D01*
X154171189Y-98634859D01*
X154124980Y-98622650D01*
X154071923Y-98613676D01*
X154035839Y-98599097D01*
X154004035Y-98590694D01*
X153955897Y-98566799D01*
X153900488Y-98544412D01*
X153873311Y-98525804D01*
X153849182Y-98513826D01*
X153802128Y-98477063D01*
X153747926Y-98439950D01*
X153729469Y-98420295D01*
X153712950Y-98407389D01*
X153670400Y-98357393D01*
X153621354Y-98305164D01*
X153610608Y-98287138D01*
X153600896Y-98275726D01*
X153566401Y-98212981D01*
X153526678Y-98146344D01*
X153521943Y-98132111D01*
X153517610Y-98124229D01*
X153494692Y-98050192D01*
X153468314Y-97970898D01*
X153467372Y-97961934D01*
X153466486Y-97959072D01*
X153458347Y-97876068D01*
X153448987Y-97787012D01*
X153458967Y-97698044D01*
X153467687Y-97615078D01*
X153468593Y-97612220D01*
X153469598Y-97603265D01*
X153496530Y-97524153D01*
X153519963Y-97450281D01*
X153524350Y-97442432D01*
X153529184Y-97428231D01*
X153569382Y-97361857D01*
X153604304Y-97299371D01*
X153614092Y-97288031D01*
X153624967Y-97270075D01*
X153674385Y-97218181D01*
X153717273Y-97168495D01*
X153733879Y-97155707D01*
X153752477Y-97136177D01*
X153806952Y-97099433D01*
X153854250Y-97063009D01*
X153878458Y-97051202D01*
X153905765Y-97032783D01*
X153961319Y-97010787D01*
X154009633Y-96987223D01*
X154041503Y-96979040D01*
X154077679Y-96964717D01*
X154130795Y-96956114D01*
X154177088Y-96944228D01*
X154215903Y-96942330D01*
X154260199Y-96935155D01*
X154307976Y-96937826D01*
G37*
G36*
X144147976Y-96937826D02*
G01*
X144189766Y-96935782D01*
X144234056Y-96942639D01*
X144284810Y-96945476D01*
X144325163Y-96956743D01*
X144360621Y-96962232D01*
X144408204Y-96979928D01*
X144462898Y-96995199D01*
X144494622Y-97012067D01*
X144522659Y-97022494D01*
X144570757Y-97052549D01*
X144626153Y-97082004D01*
X144648968Y-97101421D01*
X144669271Y-97114108D01*
X144714641Y-97157313D01*
X144766961Y-97201841D01*
X144781463Y-97220947D01*
X144794472Y-97233335D01*
X144833616Y-97289655D01*
X144878751Y-97349118D01*
X144886302Y-97365459D01*
X144893142Y-97375301D01*
X144922508Y-97443817D01*
X144956307Y-97516965D01*
X144958885Y-97528692D01*
X144961247Y-97534202D01*
X144977429Y-97613036D01*
X144996011Y-97697551D01*
X144995345Y-97888388D01*
X144976181Y-97972738D01*
X144959443Y-98051485D01*
X144957041Y-98056982D01*
X144954381Y-98068692D01*
X144920069Y-98141609D01*
X144890227Y-98209915D01*
X144883318Y-98219709D01*
X144875655Y-98235994D01*
X144830114Y-98295130D01*
X144790570Y-98351187D01*
X144777472Y-98363487D01*
X144762840Y-98382487D01*
X144710227Y-98426635D01*
X144664544Y-98469534D01*
X144644147Y-98482082D01*
X144621199Y-98501338D01*
X144565600Y-98530405D01*
X144517293Y-98560123D01*
X144489184Y-98570354D01*
X144457341Y-98587001D01*
X144402534Y-98601892D01*
X144354831Y-98619254D01*
X144319340Y-98624495D01*
X144278911Y-98635479D01*
X144228139Y-98637962D01*
X144183803Y-98644509D01*
X144142027Y-98642174D01*
X144094233Y-98644511D01*
X144049992Y-98637028D01*
X144011189Y-98634859D01*
X143964980Y-98622650D01*
X143911923Y-98613676D01*
X143875839Y-98599097D01*
X143844035Y-98590694D01*
X143795897Y-98566799D01*
X143740488Y-98544412D01*
X143713311Y-98525804D01*
X143689182Y-98513826D01*
X143642128Y-98477063D01*
X143587926Y-98439950D01*
X143569469Y-98420295D01*
X143552950Y-98407389D01*
X143510400Y-98357393D01*
X143461354Y-98305164D01*
X143450608Y-98287138D01*
X143440896Y-98275726D01*
X143406401Y-98212981D01*
X143366678Y-98146344D01*
X143361943Y-98132111D01*
X143357610Y-98124229D01*
X143334692Y-98050192D01*
X143308314Y-97970898D01*
X143307372Y-97961934D01*
X143306486Y-97959072D01*
X143298347Y-97876068D01*
X143288987Y-97787012D01*
X143298967Y-97698044D01*
X143307687Y-97615078D01*
X143308593Y-97612220D01*
X143309598Y-97603265D01*
X143336530Y-97524153D01*
X143359963Y-97450281D01*
X143364350Y-97442432D01*
X143369184Y-97428231D01*
X143409382Y-97361857D01*
X143444304Y-97299371D01*
X143454092Y-97288031D01*
X143464967Y-97270075D01*
X143514385Y-97218181D01*
X143557273Y-97168495D01*
X143573879Y-97155707D01*
X143592477Y-97136177D01*
X143646952Y-97099433D01*
X143694250Y-97063009D01*
X143718458Y-97051202D01*
X143745765Y-97032783D01*
X143801319Y-97010787D01*
X143849633Y-96987223D01*
X143881503Y-96979040D01*
X143917679Y-96964717D01*
X143970795Y-96956114D01*
X144017088Y-96944228D01*
X144055903Y-96942330D01*
X144100199Y-96935155D01*
X144147976Y-96937826D01*
G37*
G36*
X151767976Y-96937826D02*
G01*
X151809766Y-96935782D01*
X151854056Y-96942639D01*
X151904810Y-96945476D01*
X151945163Y-96956743D01*
X151980621Y-96962232D01*
X152028204Y-96979928D01*
X152082898Y-96995199D01*
X152114622Y-97012067D01*
X152142659Y-97022494D01*
X152190757Y-97052549D01*
X152246153Y-97082004D01*
X152268968Y-97101421D01*
X152289271Y-97114108D01*
X152334641Y-97157313D01*
X152386961Y-97201841D01*
X152401463Y-97220947D01*
X152414472Y-97233335D01*
X152453616Y-97289655D01*
X152498751Y-97349118D01*
X152506302Y-97365459D01*
X152513142Y-97375301D01*
X152542508Y-97443817D01*
X152576307Y-97516965D01*
X152578885Y-97528692D01*
X152581247Y-97534202D01*
X152597429Y-97613036D01*
X152616011Y-97697551D01*
X152615345Y-97888388D01*
X152596181Y-97972738D01*
X152579443Y-98051485D01*
X152577041Y-98056982D01*
X152574381Y-98068692D01*
X152540069Y-98141609D01*
X152510227Y-98209915D01*
X152503318Y-98219709D01*
X152495655Y-98235994D01*
X152450114Y-98295130D01*
X152410570Y-98351187D01*
X152397472Y-98363487D01*
X152382840Y-98382487D01*
X152330227Y-98426635D01*
X152284544Y-98469534D01*
X152264147Y-98482082D01*
X152241199Y-98501338D01*
X152185600Y-98530405D01*
X152137293Y-98560123D01*
X152109184Y-98570354D01*
X152077341Y-98587001D01*
X152022534Y-98601892D01*
X151974831Y-98619254D01*
X151939340Y-98624495D01*
X151898911Y-98635479D01*
X151848139Y-98637962D01*
X151803803Y-98644509D01*
X151762027Y-98642174D01*
X151714233Y-98644511D01*
X151669992Y-98637028D01*
X151631189Y-98634859D01*
X151584980Y-98622650D01*
X151531923Y-98613676D01*
X151495839Y-98599097D01*
X151464035Y-98590694D01*
X151415897Y-98566799D01*
X151360488Y-98544412D01*
X151333311Y-98525804D01*
X151309182Y-98513826D01*
X151262128Y-98477063D01*
X151207926Y-98439950D01*
X151189469Y-98420295D01*
X151172950Y-98407389D01*
X151130400Y-98357393D01*
X151081354Y-98305164D01*
X151070608Y-98287138D01*
X151060896Y-98275726D01*
X151026401Y-98212981D01*
X150986678Y-98146344D01*
X150981943Y-98132111D01*
X150977610Y-98124229D01*
X150954692Y-98050192D01*
X150928314Y-97970898D01*
X150927372Y-97961934D01*
X150926486Y-97959072D01*
X150918347Y-97876068D01*
X150908987Y-97787012D01*
X150918967Y-97698044D01*
X150927687Y-97615078D01*
X150928593Y-97612220D01*
X150929598Y-97603265D01*
X150956530Y-97524153D01*
X150979963Y-97450281D01*
X150984350Y-97442432D01*
X150989184Y-97428231D01*
X151029382Y-97361857D01*
X151064304Y-97299371D01*
X151074092Y-97288031D01*
X151084967Y-97270075D01*
X151134385Y-97218181D01*
X151177273Y-97168495D01*
X151193879Y-97155707D01*
X151212477Y-97136177D01*
X151266952Y-97099433D01*
X151314250Y-97063009D01*
X151338458Y-97051202D01*
X151365765Y-97032783D01*
X151421319Y-97010787D01*
X151469633Y-96987223D01*
X151501503Y-96979040D01*
X151537679Y-96964717D01*
X151590795Y-96956114D01*
X151637088Y-96944228D01*
X151675903Y-96942330D01*
X151720199Y-96935155D01*
X151767976Y-96937826D01*
G37*
G36*
X146687976Y-96937826D02*
G01*
X146729766Y-96935782D01*
X146774056Y-96942639D01*
X146824810Y-96945476D01*
X146865163Y-96956743D01*
X146900621Y-96962232D01*
X146948204Y-96979928D01*
X147002898Y-96995199D01*
X147034622Y-97012067D01*
X147062659Y-97022494D01*
X147110757Y-97052549D01*
X147166153Y-97082004D01*
X147188968Y-97101421D01*
X147209271Y-97114108D01*
X147254641Y-97157313D01*
X147306961Y-97201841D01*
X147321463Y-97220947D01*
X147334472Y-97233335D01*
X147373616Y-97289655D01*
X147418751Y-97349118D01*
X147426302Y-97365459D01*
X147433142Y-97375301D01*
X147462508Y-97443817D01*
X147496307Y-97516965D01*
X147498885Y-97528692D01*
X147501247Y-97534202D01*
X147517429Y-97613036D01*
X147536011Y-97697551D01*
X147535345Y-97888388D01*
X147516181Y-97972738D01*
X147499443Y-98051485D01*
X147497041Y-98056982D01*
X147494381Y-98068692D01*
X147460069Y-98141609D01*
X147430227Y-98209915D01*
X147423318Y-98219709D01*
X147415655Y-98235994D01*
X147370114Y-98295130D01*
X147330570Y-98351187D01*
X147317472Y-98363487D01*
X147302840Y-98382487D01*
X147250227Y-98426635D01*
X147204544Y-98469534D01*
X147184147Y-98482082D01*
X147161199Y-98501338D01*
X147105600Y-98530405D01*
X147057293Y-98560123D01*
X147029184Y-98570354D01*
X146997341Y-98587001D01*
X146942534Y-98601892D01*
X146894831Y-98619254D01*
X146859340Y-98624495D01*
X146818911Y-98635479D01*
X146768139Y-98637962D01*
X146723803Y-98644509D01*
X146682027Y-98642174D01*
X146634233Y-98644511D01*
X146589992Y-98637028D01*
X146551189Y-98634859D01*
X146504980Y-98622650D01*
X146451923Y-98613676D01*
X146415839Y-98599097D01*
X146384035Y-98590694D01*
X146335897Y-98566799D01*
X146280488Y-98544412D01*
X146253311Y-98525804D01*
X146229182Y-98513826D01*
X146182128Y-98477063D01*
X146127926Y-98439950D01*
X146109469Y-98420295D01*
X146092950Y-98407389D01*
X146050400Y-98357393D01*
X146001354Y-98305164D01*
X145990608Y-98287138D01*
X145980896Y-98275726D01*
X145946401Y-98212981D01*
X145906678Y-98146344D01*
X145901943Y-98132111D01*
X145897610Y-98124229D01*
X145874692Y-98050192D01*
X145848314Y-97970898D01*
X145847372Y-97961934D01*
X145846486Y-97959072D01*
X145838347Y-97876068D01*
X145828987Y-97787012D01*
X145838967Y-97698044D01*
X145847687Y-97615078D01*
X145848593Y-97612220D01*
X145849598Y-97603265D01*
X145876530Y-97524153D01*
X145899963Y-97450281D01*
X145904350Y-97442432D01*
X145909184Y-97428231D01*
X145949382Y-97361857D01*
X145984304Y-97299371D01*
X145994092Y-97288031D01*
X146004967Y-97270075D01*
X146054385Y-97218181D01*
X146097273Y-97168495D01*
X146113879Y-97155707D01*
X146132477Y-97136177D01*
X146186952Y-97099433D01*
X146234250Y-97063009D01*
X146258458Y-97051202D01*
X146285765Y-97032783D01*
X146341319Y-97010787D01*
X146389633Y-96987223D01*
X146421503Y-96979040D01*
X146457679Y-96964717D01*
X146510795Y-96956114D01*
X146557088Y-96944228D01*
X146595903Y-96942330D01*
X146640199Y-96935155D01*
X146687976Y-96937826D01*
G37*
G36*
X149227976Y-96937826D02*
G01*
X149269766Y-96935782D01*
X149314056Y-96942639D01*
X149364810Y-96945476D01*
X149405163Y-96956743D01*
X149440621Y-96962232D01*
X149488204Y-96979928D01*
X149542898Y-96995199D01*
X149574622Y-97012067D01*
X149602659Y-97022494D01*
X149650757Y-97052549D01*
X149706153Y-97082004D01*
X149728968Y-97101421D01*
X149749271Y-97114108D01*
X149794641Y-97157313D01*
X149846961Y-97201841D01*
X149861463Y-97220947D01*
X149874472Y-97233335D01*
X149913616Y-97289655D01*
X149958751Y-97349118D01*
X149966302Y-97365459D01*
X149973142Y-97375301D01*
X150002508Y-97443817D01*
X150036307Y-97516965D01*
X150038885Y-97528692D01*
X150041247Y-97534202D01*
X150057429Y-97613036D01*
X150076011Y-97697551D01*
X150075345Y-97888388D01*
X150056181Y-97972738D01*
X150039443Y-98051485D01*
X150037041Y-98056982D01*
X150034381Y-98068692D01*
X150000069Y-98141609D01*
X149970227Y-98209915D01*
X149963318Y-98219709D01*
X149955655Y-98235994D01*
X149910114Y-98295130D01*
X149870570Y-98351187D01*
X149857472Y-98363487D01*
X149842840Y-98382487D01*
X149790227Y-98426635D01*
X149744544Y-98469534D01*
X149724147Y-98482082D01*
X149701199Y-98501338D01*
X149645600Y-98530405D01*
X149597293Y-98560123D01*
X149569184Y-98570354D01*
X149537341Y-98587001D01*
X149482534Y-98601892D01*
X149434831Y-98619254D01*
X149399340Y-98624495D01*
X149358911Y-98635479D01*
X149308139Y-98637962D01*
X149263803Y-98644509D01*
X149222027Y-98642174D01*
X149174233Y-98644511D01*
X149129992Y-98637028D01*
X149091189Y-98634859D01*
X149044980Y-98622650D01*
X148991923Y-98613676D01*
X148955839Y-98599097D01*
X148924035Y-98590694D01*
X148875897Y-98566799D01*
X148820488Y-98544412D01*
X148793311Y-98525804D01*
X148769182Y-98513826D01*
X148722128Y-98477063D01*
X148667926Y-98439950D01*
X148649469Y-98420295D01*
X148632950Y-98407389D01*
X148590400Y-98357393D01*
X148541354Y-98305164D01*
X148530608Y-98287138D01*
X148520896Y-98275726D01*
X148486401Y-98212981D01*
X148446678Y-98146344D01*
X148441943Y-98132111D01*
X148437610Y-98124229D01*
X148414692Y-98050192D01*
X148388314Y-97970898D01*
X148387372Y-97961934D01*
X148386486Y-97959072D01*
X148378347Y-97876068D01*
X148368987Y-97787012D01*
X148378967Y-97698044D01*
X148387687Y-97615078D01*
X148388593Y-97612220D01*
X148389598Y-97603265D01*
X148416530Y-97524153D01*
X148439963Y-97450281D01*
X148444350Y-97442432D01*
X148449184Y-97428231D01*
X148489382Y-97361857D01*
X148524304Y-97299371D01*
X148534092Y-97288031D01*
X148544967Y-97270075D01*
X148594385Y-97218181D01*
X148637273Y-97168495D01*
X148653879Y-97155707D01*
X148672477Y-97136177D01*
X148726952Y-97099433D01*
X148774250Y-97063009D01*
X148798458Y-97051202D01*
X148825765Y-97032783D01*
X148881319Y-97010787D01*
X148929633Y-96987223D01*
X148961503Y-96979040D01*
X148997679Y-96964717D01*
X149050795Y-96956114D01*
X149097088Y-96944228D01*
X149135903Y-96942330D01*
X149180199Y-96935155D01*
X149227976Y-96937826D01*
G37*
G36*
X139884899Y-96941959D02*
G01*
X139901769Y-96953231D01*
X139913041Y-96970101D01*
X139919448Y-97002312D01*
X139919448Y-98577688D01*
X139916999Y-98590000D01*
X139913041Y-98609899D01*
X139901769Y-98626769D01*
X139884899Y-98638041D01*
X139865000Y-98641999D01*
X139852688Y-98644448D01*
X138277312Y-98644448D01*
X138245101Y-98638041D01*
X138228231Y-98626769D01*
X138216959Y-98609899D01*
X138210552Y-98577688D01*
X138210552Y-97002312D01*
X138216959Y-96970101D01*
X138228231Y-96953231D01*
X138245101Y-96941959D01*
X138277312Y-96935552D01*
X139852688Y-96935552D01*
X139884899Y-96941959D01*
G37*
G36*
X128304902Y-94564283D02*
G01*
X128349637Y-94564595D01*
X128393460Y-94573590D01*
X128443360Y-94578835D01*
X128485132Y-94592408D01*
X128522723Y-94600124D01*
X128569851Y-94619935D01*
X128623488Y-94637363D01*
X128656099Y-94656191D01*
X128685614Y-94668598D01*
X128733301Y-94700763D01*
X128787511Y-94732061D01*
X128810826Y-94753054D01*
X128832101Y-94767404D01*
X128877183Y-94812802D01*
X128928261Y-94858793D01*
X128943003Y-94879083D01*
X128956608Y-94892784D01*
X128995643Y-94951537D01*
X129039586Y-95012019D01*
X129047221Y-95029168D01*
X129054388Y-95039955D01*
X129083865Y-95111472D01*
X129116621Y-95185042D01*
X129119211Y-95197225D01*
X129121724Y-95203323D01*
X129138292Y-95286997D01*
X129155999Y-95370301D01*
X129155999Y-95559699D01*
X129153115Y-95573269D01*
X129153030Y-95579331D01*
X129134342Y-95661585D01*
X129116621Y-95744958D01*
X129114129Y-95750555D01*
X129114078Y-95750780D01*
X129042210Y-95912197D01*
X129042078Y-95912385D01*
X129039586Y-95917981D01*
X128989480Y-95986946D01*
X128940357Y-96056582D01*
X128935585Y-96061126D01*
X128928261Y-96071207D01*
X128868396Y-96125110D01*
X128812396Y-96178438D01*
X128801464Y-96185376D01*
X128787511Y-96197939D01*
X128722764Y-96235321D01*
X128663211Y-96273114D01*
X128645209Y-96280097D01*
X128623488Y-96292637D01*
X128558115Y-96313878D01*
X128498468Y-96337014D01*
X128473200Y-96341469D01*
X128443360Y-96351165D01*
X128381095Y-96357709D01*
X128324460Y-96367695D01*
X128292459Y-96367025D01*
X128255000Y-96370962D01*
X128198902Y-96365066D01*
X128147799Y-96363996D01*
X128110323Y-96355756D01*
X128066640Y-96351165D01*
X128018917Y-96335659D01*
X127975225Y-96326052D01*
X127934230Y-96308142D01*
X127886512Y-96292637D01*
X127848473Y-96270675D01*
X127813310Y-96255313D01*
X127771337Y-96226141D01*
X127722489Y-96197939D01*
X127694504Y-96172741D01*
X127668215Y-96154470D01*
X127628257Y-96113092D01*
X127581739Y-96071207D01*
X127563296Y-96045823D01*
X127545473Y-96027366D01*
X127510821Y-95973597D01*
X127470414Y-95917981D01*
X127460212Y-95895066D01*
X127449754Y-95878839D01*
X127423789Y-95813261D01*
X127393379Y-95744958D01*
X127389476Y-95726596D01*
X127384707Y-95714551D01*
X127370740Y-95638448D01*
X127354001Y-95559699D01*
X127354001Y-95547246D01*
X127352811Y-95540762D01*
X127354001Y-95455535D01*
X127354001Y-95370301D01*
X127355275Y-95364308D01*
X127355278Y-95364077D01*
X127392015Y-95191246D01*
X127392105Y-95191036D01*
X127393379Y-95185042D01*
X127428042Y-95107188D01*
X127461622Y-95028839D01*
X127465348Y-95023397D01*
X127470414Y-95012019D01*
X127517746Y-94946872D01*
X127561452Y-94883041D01*
X127570706Y-94873979D01*
X127581739Y-94858793D01*
X127637297Y-94808769D01*
X127687693Y-94759417D01*
X127703848Y-94748846D01*
X127722489Y-94732061D01*
X127782026Y-94697687D01*
X127835551Y-94662662D01*
X127859340Y-94653050D01*
X127886512Y-94637363D01*
X127946045Y-94618019D01*
X127999376Y-94596472D01*
X128030820Y-94590474D01*
X128066640Y-94578835D01*
X128122744Y-94572938D01*
X128172945Y-94563362D01*
X128211312Y-94563630D01*
X128255000Y-94559038D01*
X128304902Y-94564283D01*
G37*
G36*
X130844902Y-94564283D02*
G01*
X130889637Y-94564595D01*
X130933460Y-94573590D01*
X130983360Y-94578835D01*
X131025132Y-94592408D01*
X131062723Y-94600124D01*
X131109851Y-94619935D01*
X131163488Y-94637363D01*
X131196099Y-94656191D01*
X131225614Y-94668598D01*
X131273301Y-94700763D01*
X131327511Y-94732061D01*
X131350826Y-94753054D01*
X131372101Y-94767404D01*
X131417183Y-94812802D01*
X131468261Y-94858793D01*
X131483003Y-94879083D01*
X131496608Y-94892784D01*
X131535643Y-94951537D01*
X131579586Y-95012019D01*
X131587221Y-95029168D01*
X131594388Y-95039955D01*
X131623865Y-95111472D01*
X131656621Y-95185042D01*
X131659211Y-95197225D01*
X131661724Y-95203323D01*
X131678292Y-95286997D01*
X131695999Y-95370301D01*
X131695999Y-95559699D01*
X131693115Y-95573269D01*
X131693030Y-95579331D01*
X131674342Y-95661585D01*
X131656621Y-95744958D01*
X131654129Y-95750555D01*
X131654078Y-95750780D01*
X131582210Y-95912197D01*
X131582078Y-95912385D01*
X131579586Y-95917981D01*
X131529480Y-95986946D01*
X131480357Y-96056582D01*
X131475585Y-96061126D01*
X131468261Y-96071207D01*
X131408396Y-96125110D01*
X131352396Y-96178438D01*
X131341464Y-96185376D01*
X131327511Y-96197939D01*
X131262764Y-96235321D01*
X131203211Y-96273114D01*
X131185209Y-96280097D01*
X131163488Y-96292637D01*
X131098115Y-96313878D01*
X131038468Y-96337014D01*
X131013200Y-96341469D01*
X130983360Y-96351165D01*
X130921095Y-96357709D01*
X130864460Y-96367695D01*
X130832459Y-96367025D01*
X130795000Y-96370962D01*
X130738902Y-96365066D01*
X130687799Y-96363996D01*
X130650323Y-96355756D01*
X130606640Y-96351165D01*
X130558917Y-96335659D01*
X130515225Y-96326052D01*
X130474230Y-96308142D01*
X130426512Y-96292637D01*
X130388473Y-96270675D01*
X130353310Y-96255313D01*
X130311337Y-96226141D01*
X130262489Y-96197939D01*
X130234504Y-96172741D01*
X130208215Y-96154470D01*
X130168257Y-96113092D01*
X130121739Y-96071207D01*
X130103296Y-96045823D01*
X130085473Y-96027366D01*
X130050821Y-95973597D01*
X130010414Y-95917981D01*
X130000212Y-95895066D01*
X129989754Y-95878839D01*
X129963789Y-95813261D01*
X129933379Y-95744958D01*
X129929476Y-95726596D01*
X129924707Y-95714551D01*
X129910740Y-95638448D01*
X129894001Y-95559699D01*
X129894001Y-95547246D01*
X129892811Y-95540762D01*
X129894001Y-95455535D01*
X129894001Y-95370301D01*
X129895275Y-95364308D01*
X129895278Y-95364077D01*
X129932015Y-95191246D01*
X129932105Y-95191036D01*
X129933379Y-95185042D01*
X129968042Y-95107188D01*
X130001622Y-95028839D01*
X130005348Y-95023397D01*
X130010414Y-95012019D01*
X130057746Y-94946872D01*
X130101452Y-94883041D01*
X130110706Y-94873979D01*
X130121739Y-94858793D01*
X130177297Y-94808769D01*
X130227693Y-94759417D01*
X130243848Y-94748846D01*
X130262489Y-94732061D01*
X130322026Y-94697687D01*
X130375551Y-94662662D01*
X130399340Y-94653050D01*
X130426512Y-94637363D01*
X130486045Y-94618019D01*
X130539376Y-94596472D01*
X130570820Y-94590474D01*
X130606640Y-94578835D01*
X130662744Y-94572938D01*
X130712945Y-94563362D01*
X130751312Y-94563630D01*
X130795000Y-94559038D01*
X130844902Y-94564283D01*
G37*
G36*
X150497976Y-92492826D02*
G01*
X150539766Y-92490782D01*
X150584056Y-92497639D01*
X150634810Y-92500476D01*
X150675163Y-92511743D01*
X150710621Y-92517232D01*
X150758204Y-92534928D01*
X150812898Y-92550199D01*
X150844622Y-92567067D01*
X150872659Y-92577494D01*
X150920757Y-92607549D01*
X150976153Y-92637004D01*
X150998968Y-92656421D01*
X151019271Y-92669108D01*
X151064641Y-92712313D01*
X151116961Y-92756841D01*
X151131463Y-92775947D01*
X151144472Y-92788335D01*
X151183616Y-92844655D01*
X151228751Y-92904118D01*
X151236302Y-92920459D01*
X151243142Y-92930301D01*
X151272508Y-92998817D01*
X151306307Y-93071965D01*
X151308885Y-93083692D01*
X151311247Y-93089202D01*
X151327429Y-93168036D01*
X151346011Y-93252551D01*
X151345345Y-93443388D01*
X151326181Y-93527738D01*
X151309443Y-93606485D01*
X151307041Y-93611982D01*
X151304381Y-93623692D01*
X151270069Y-93696609D01*
X151240227Y-93764915D01*
X151233318Y-93774709D01*
X151225655Y-93790994D01*
X151180114Y-93850130D01*
X151140570Y-93906187D01*
X151127472Y-93918487D01*
X151112840Y-93937487D01*
X151060227Y-93981635D01*
X151014544Y-94024534D01*
X150994147Y-94037082D01*
X150971199Y-94056338D01*
X150915600Y-94085405D01*
X150867293Y-94115123D01*
X150839184Y-94125354D01*
X150807341Y-94142001D01*
X150752534Y-94156892D01*
X150704831Y-94174254D01*
X150669340Y-94179495D01*
X150628911Y-94190479D01*
X150578139Y-94192962D01*
X150533803Y-94199509D01*
X150492027Y-94197174D01*
X150444233Y-94199511D01*
X150399992Y-94192028D01*
X150361189Y-94189859D01*
X150314980Y-94177650D01*
X150261923Y-94168676D01*
X150225839Y-94154097D01*
X150194035Y-94145694D01*
X150145897Y-94121799D01*
X150090488Y-94099412D01*
X150063311Y-94080804D01*
X150039182Y-94068826D01*
X149992128Y-94032063D01*
X149937926Y-93994950D01*
X149919469Y-93975295D01*
X149902950Y-93962389D01*
X149860400Y-93912393D01*
X149811354Y-93860164D01*
X149800608Y-93842138D01*
X149790896Y-93830726D01*
X149756401Y-93767981D01*
X149716678Y-93701344D01*
X149711943Y-93687111D01*
X149707610Y-93679229D01*
X149684692Y-93605192D01*
X149658314Y-93525898D01*
X149657372Y-93516934D01*
X149656486Y-93514072D01*
X149648347Y-93431068D01*
X149638987Y-93342012D01*
X149648967Y-93253044D01*
X149657687Y-93170078D01*
X149658593Y-93167220D01*
X149659598Y-93158265D01*
X149686530Y-93079153D01*
X149709963Y-93005281D01*
X149714350Y-92997432D01*
X149719184Y-92983231D01*
X149759382Y-92916857D01*
X149794304Y-92854371D01*
X149804092Y-92843031D01*
X149814967Y-92825075D01*
X149864385Y-92773181D01*
X149907273Y-92723495D01*
X149923879Y-92710707D01*
X149942477Y-92691177D01*
X149996952Y-92654433D01*
X150044250Y-92618009D01*
X150068458Y-92606202D01*
X150095765Y-92587783D01*
X150151319Y-92565787D01*
X150199633Y-92542223D01*
X150231503Y-92534040D01*
X150267679Y-92519717D01*
X150320795Y-92511114D01*
X150367088Y-92499228D01*
X150405903Y-92497330D01*
X150450199Y-92490155D01*
X150497976Y-92492826D01*
G37*
G36*
X142877976Y-92492826D02*
G01*
X142919766Y-92490782D01*
X142964056Y-92497639D01*
X143014810Y-92500476D01*
X143055163Y-92511743D01*
X143090621Y-92517232D01*
X143138204Y-92534928D01*
X143192898Y-92550199D01*
X143224622Y-92567067D01*
X143252659Y-92577494D01*
X143300757Y-92607549D01*
X143356153Y-92637004D01*
X143378968Y-92656421D01*
X143399271Y-92669108D01*
X143444641Y-92712313D01*
X143496961Y-92756841D01*
X143511463Y-92775947D01*
X143524472Y-92788335D01*
X143563616Y-92844655D01*
X143608751Y-92904118D01*
X143616302Y-92920459D01*
X143623142Y-92930301D01*
X143652508Y-92998817D01*
X143686307Y-93071965D01*
X143688885Y-93083692D01*
X143691247Y-93089202D01*
X143707429Y-93168036D01*
X143726011Y-93252551D01*
X143725345Y-93443388D01*
X143706181Y-93527738D01*
X143689443Y-93606485D01*
X143687041Y-93611982D01*
X143684381Y-93623692D01*
X143650069Y-93696609D01*
X143620227Y-93764915D01*
X143613318Y-93774709D01*
X143605655Y-93790994D01*
X143560114Y-93850130D01*
X143520570Y-93906187D01*
X143507472Y-93918487D01*
X143492840Y-93937487D01*
X143440227Y-93981635D01*
X143394544Y-94024534D01*
X143374147Y-94037082D01*
X143351199Y-94056338D01*
X143295600Y-94085405D01*
X143247293Y-94115123D01*
X143219184Y-94125354D01*
X143187341Y-94142001D01*
X143132534Y-94156892D01*
X143084831Y-94174254D01*
X143049340Y-94179495D01*
X143008911Y-94190479D01*
X142958139Y-94192962D01*
X142913803Y-94199509D01*
X142872027Y-94197174D01*
X142824233Y-94199511D01*
X142779992Y-94192028D01*
X142741189Y-94189859D01*
X142694980Y-94177650D01*
X142641923Y-94168676D01*
X142605839Y-94154097D01*
X142574035Y-94145694D01*
X142525897Y-94121799D01*
X142470488Y-94099412D01*
X142443311Y-94080804D01*
X142419182Y-94068826D01*
X142372128Y-94032063D01*
X142317926Y-93994950D01*
X142299469Y-93975295D01*
X142282950Y-93962389D01*
X142240400Y-93912393D01*
X142191354Y-93860164D01*
X142180608Y-93842138D01*
X142170896Y-93830726D01*
X142136401Y-93767981D01*
X142096678Y-93701344D01*
X142091943Y-93687111D01*
X142087610Y-93679229D01*
X142064692Y-93605192D01*
X142038314Y-93525898D01*
X142037372Y-93516934D01*
X142036486Y-93514072D01*
X142028347Y-93431068D01*
X142018987Y-93342012D01*
X142028967Y-93253044D01*
X142037687Y-93170078D01*
X142038593Y-93167220D01*
X142039598Y-93158265D01*
X142066530Y-93079153D01*
X142089963Y-93005281D01*
X142094350Y-92997432D01*
X142099184Y-92983231D01*
X142139382Y-92916857D01*
X142174304Y-92854371D01*
X142184092Y-92843031D01*
X142194967Y-92825075D01*
X142244385Y-92773181D01*
X142287273Y-92723495D01*
X142303879Y-92710707D01*
X142322477Y-92691177D01*
X142376952Y-92654433D01*
X142424250Y-92618009D01*
X142448458Y-92606202D01*
X142475765Y-92587783D01*
X142531319Y-92565787D01*
X142579633Y-92542223D01*
X142611503Y-92534040D01*
X142647679Y-92519717D01*
X142700795Y-92511114D01*
X142747088Y-92499228D01*
X142785903Y-92497330D01*
X142830199Y-92490155D01*
X142877976Y-92492826D01*
G37*
G36*
X153037976Y-92492826D02*
G01*
X153079766Y-92490782D01*
X153124056Y-92497639D01*
X153174810Y-92500476D01*
X153215163Y-92511743D01*
X153250621Y-92517232D01*
X153298204Y-92534928D01*
X153352898Y-92550199D01*
X153384622Y-92567067D01*
X153412659Y-92577494D01*
X153460757Y-92607549D01*
X153516153Y-92637004D01*
X153538968Y-92656421D01*
X153559271Y-92669108D01*
X153604641Y-92712313D01*
X153656961Y-92756841D01*
X153671463Y-92775947D01*
X153684472Y-92788335D01*
X153723616Y-92844655D01*
X153768751Y-92904118D01*
X153776302Y-92920459D01*
X153783142Y-92930301D01*
X153812508Y-92998817D01*
X153846307Y-93071965D01*
X153848885Y-93083692D01*
X153851247Y-93089202D01*
X153867429Y-93168036D01*
X153886011Y-93252551D01*
X153885345Y-93443388D01*
X153866181Y-93527738D01*
X153849443Y-93606485D01*
X153847041Y-93611982D01*
X153844381Y-93623692D01*
X153810069Y-93696609D01*
X153780227Y-93764915D01*
X153773318Y-93774709D01*
X153765655Y-93790994D01*
X153720114Y-93850130D01*
X153680570Y-93906187D01*
X153667472Y-93918487D01*
X153652840Y-93937487D01*
X153600227Y-93981635D01*
X153554544Y-94024534D01*
X153534147Y-94037082D01*
X153511199Y-94056338D01*
X153455600Y-94085405D01*
X153407293Y-94115123D01*
X153379184Y-94125354D01*
X153347341Y-94142001D01*
X153292534Y-94156892D01*
X153244831Y-94174254D01*
X153209340Y-94179495D01*
X153168911Y-94190479D01*
X153118139Y-94192962D01*
X153073803Y-94199509D01*
X153032027Y-94197174D01*
X152984233Y-94199511D01*
X152939992Y-94192028D01*
X152901189Y-94189859D01*
X152854980Y-94177650D01*
X152801923Y-94168676D01*
X152765839Y-94154097D01*
X152734035Y-94145694D01*
X152685897Y-94121799D01*
X152630488Y-94099412D01*
X152603311Y-94080804D01*
X152579182Y-94068826D01*
X152532128Y-94032063D01*
X152477926Y-93994950D01*
X152459469Y-93975295D01*
X152442950Y-93962389D01*
X152400400Y-93912393D01*
X152351354Y-93860164D01*
X152340608Y-93842138D01*
X152330896Y-93830726D01*
X152296401Y-93767981D01*
X152256678Y-93701344D01*
X152251943Y-93687111D01*
X152247610Y-93679229D01*
X152224692Y-93605192D01*
X152198314Y-93525898D01*
X152197372Y-93516934D01*
X152196486Y-93514072D01*
X152188347Y-93431068D01*
X152178987Y-93342012D01*
X152188967Y-93253044D01*
X152197687Y-93170078D01*
X152198593Y-93167220D01*
X152199598Y-93158265D01*
X152226530Y-93079153D01*
X152249963Y-93005281D01*
X152254350Y-92997432D01*
X152259184Y-92983231D01*
X152299382Y-92916857D01*
X152334304Y-92854371D01*
X152344092Y-92843031D01*
X152354967Y-92825075D01*
X152404385Y-92773181D01*
X152447273Y-92723495D01*
X152463879Y-92710707D01*
X152482477Y-92691177D01*
X152536952Y-92654433D01*
X152584250Y-92618009D01*
X152608458Y-92606202D01*
X152635765Y-92587783D01*
X152691319Y-92565787D01*
X152739633Y-92542223D01*
X152771503Y-92534040D01*
X152807679Y-92519717D01*
X152860795Y-92511114D01*
X152907088Y-92499228D01*
X152945903Y-92497330D01*
X152990199Y-92490155D01*
X153037976Y-92492826D01*
G37*
G36*
X158117976Y-92492826D02*
G01*
X158159766Y-92490782D01*
X158204056Y-92497639D01*
X158254810Y-92500476D01*
X158295163Y-92511743D01*
X158330621Y-92517232D01*
X158378204Y-92534928D01*
X158432898Y-92550199D01*
X158464622Y-92567067D01*
X158492659Y-92577494D01*
X158540757Y-92607549D01*
X158596153Y-92637004D01*
X158618968Y-92656421D01*
X158639271Y-92669108D01*
X158684641Y-92712313D01*
X158736961Y-92756841D01*
X158751463Y-92775947D01*
X158764472Y-92788335D01*
X158803616Y-92844655D01*
X158848751Y-92904118D01*
X158856302Y-92920459D01*
X158863142Y-92930301D01*
X158892508Y-92998817D01*
X158926307Y-93071965D01*
X158928885Y-93083692D01*
X158931247Y-93089202D01*
X158947429Y-93168036D01*
X158966011Y-93252551D01*
X158965345Y-93443388D01*
X158946181Y-93527738D01*
X158929443Y-93606485D01*
X158927041Y-93611982D01*
X158924381Y-93623692D01*
X158890069Y-93696609D01*
X158860227Y-93764915D01*
X158853318Y-93774709D01*
X158845655Y-93790994D01*
X158800114Y-93850130D01*
X158760570Y-93906187D01*
X158747472Y-93918487D01*
X158732840Y-93937487D01*
X158680227Y-93981635D01*
X158634544Y-94024534D01*
X158614147Y-94037082D01*
X158591199Y-94056338D01*
X158535600Y-94085405D01*
X158487293Y-94115123D01*
X158459184Y-94125354D01*
X158427341Y-94142001D01*
X158372534Y-94156892D01*
X158324831Y-94174254D01*
X158289340Y-94179495D01*
X158248911Y-94190479D01*
X158198139Y-94192962D01*
X158153803Y-94199509D01*
X158112027Y-94197174D01*
X158064233Y-94199511D01*
X158019992Y-94192028D01*
X157981189Y-94189859D01*
X157934980Y-94177650D01*
X157881923Y-94168676D01*
X157845839Y-94154097D01*
X157814035Y-94145694D01*
X157765897Y-94121799D01*
X157710488Y-94099412D01*
X157683311Y-94080804D01*
X157659182Y-94068826D01*
X157612128Y-94032063D01*
X157557926Y-93994950D01*
X157539469Y-93975295D01*
X157522950Y-93962389D01*
X157480400Y-93912393D01*
X157431354Y-93860164D01*
X157420608Y-93842138D01*
X157410896Y-93830726D01*
X157376401Y-93767981D01*
X157336678Y-93701344D01*
X157331943Y-93687111D01*
X157327610Y-93679229D01*
X157304692Y-93605192D01*
X157278314Y-93525898D01*
X157277372Y-93516934D01*
X157276486Y-93514072D01*
X157268347Y-93431068D01*
X157258987Y-93342012D01*
X157268967Y-93253044D01*
X157277687Y-93170078D01*
X157278593Y-93167220D01*
X157279598Y-93158265D01*
X157306530Y-93079153D01*
X157329963Y-93005281D01*
X157334350Y-92997432D01*
X157339184Y-92983231D01*
X157379382Y-92916857D01*
X157414304Y-92854371D01*
X157424092Y-92843031D01*
X157434967Y-92825075D01*
X157484385Y-92773181D01*
X157527273Y-92723495D01*
X157543879Y-92710707D01*
X157562477Y-92691177D01*
X157616952Y-92654433D01*
X157664250Y-92618009D01*
X157688458Y-92606202D01*
X157715765Y-92587783D01*
X157771319Y-92565787D01*
X157819633Y-92542223D01*
X157851503Y-92534040D01*
X157887679Y-92519717D01*
X157940795Y-92511114D01*
X157987088Y-92499228D01*
X158025903Y-92497330D01*
X158070199Y-92490155D01*
X158117976Y-92492826D01*
G37*
G36*
X145417976Y-92492826D02*
G01*
X145459766Y-92490782D01*
X145504056Y-92497639D01*
X145554810Y-92500476D01*
X145595163Y-92511743D01*
X145630621Y-92517232D01*
X145678204Y-92534928D01*
X145732898Y-92550199D01*
X145764622Y-92567067D01*
X145792659Y-92577494D01*
X145840757Y-92607549D01*
X145896153Y-92637004D01*
X145918968Y-92656421D01*
X145939271Y-92669108D01*
X145984641Y-92712313D01*
X146036961Y-92756841D01*
X146051463Y-92775947D01*
X146064472Y-92788335D01*
X146103616Y-92844655D01*
X146148751Y-92904118D01*
X146156302Y-92920459D01*
X146163142Y-92930301D01*
X146192508Y-92998817D01*
X146226307Y-93071965D01*
X146228885Y-93083692D01*
X146231247Y-93089202D01*
X146247429Y-93168036D01*
X146266011Y-93252551D01*
X146265345Y-93443388D01*
X146246181Y-93527738D01*
X146229443Y-93606485D01*
X146227041Y-93611982D01*
X146224381Y-93623692D01*
X146190069Y-93696609D01*
X146160227Y-93764915D01*
X146153318Y-93774709D01*
X146145655Y-93790994D01*
X146100114Y-93850130D01*
X146060570Y-93906187D01*
X146047472Y-93918487D01*
X146032840Y-93937487D01*
X145980227Y-93981635D01*
X145934544Y-94024534D01*
X145914147Y-94037082D01*
X145891199Y-94056338D01*
X145835600Y-94085405D01*
X145787293Y-94115123D01*
X145759184Y-94125354D01*
X145727341Y-94142001D01*
X145672534Y-94156892D01*
X145624831Y-94174254D01*
X145589340Y-94179495D01*
X145548911Y-94190479D01*
X145498139Y-94192962D01*
X145453803Y-94199509D01*
X145412027Y-94197174D01*
X145364233Y-94199511D01*
X145319992Y-94192028D01*
X145281189Y-94189859D01*
X145234980Y-94177650D01*
X145181923Y-94168676D01*
X145145839Y-94154097D01*
X145114035Y-94145694D01*
X145065897Y-94121799D01*
X145010488Y-94099412D01*
X144983311Y-94080804D01*
X144959182Y-94068826D01*
X144912128Y-94032063D01*
X144857926Y-93994950D01*
X144839469Y-93975295D01*
X144822950Y-93962389D01*
X144780400Y-93912393D01*
X144731354Y-93860164D01*
X144720608Y-93842138D01*
X144710896Y-93830726D01*
X144676401Y-93767981D01*
X144636678Y-93701344D01*
X144631943Y-93687111D01*
X144627610Y-93679229D01*
X144604692Y-93605192D01*
X144578314Y-93525898D01*
X144577372Y-93516934D01*
X144576486Y-93514072D01*
X144568347Y-93431068D01*
X144558987Y-93342012D01*
X144568967Y-93253044D01*
X144577687Y-93170078D01*
X144578593Y-93167220D01*
X144579598Y-93158265D01*
X144606530Y-93079153D01*
X144629963Y-93005281D01*
X144634350Y-92997432D01*
X144639184Y-92983231D01*
X144679382Y-92916857D01*
X144714304Y-92854371D01*
X144724092Y-92843031D01*
X144734967Y-92825075D01*
X144784385Y-92773181D01*
X144827273Y-92723495D01*
X144843879Y-92710707D01*
X144862477Y-92691177D01*
X144916952Y-92654433D01*
X144964250Y-92618009D01*
X144988458Y-92606202D01*
X145015765Y-92587783D01*
X145071319Y-92565787D01*
X145119633Y-92542223D01*
X145151503Y-92534040D01*
X145187679Y-92519717D01*
X145240795Y-92511114D01*
X145287088Y-92499228D01*
X145325903Y-92497330D01*
X145370199Y-92490155D01*
X145417976Y-92492826D01*
G37*
G36*
X155577976Y-92492826D02*
G01*
X155619766Y-92490782D01*
X155664056Y-92497639D01*
X155714810Y-92500476D01*
X155755163Y-92511743D01*
X155790621Y-92517232D01*
X155838204Y-92534928D01*
X155892898Y-92550199D01*
X155924622Y-92567067D01*
X155952659Y-92577494D01*
X156000757Y-92607549D01*
X156056153Y-92637004D01*
X156078968Y-92656421D01*
X156099271Y-92669108D01*
X156144641Y-92712313D01*
X156196961Y-92756841D01*
X156211463Y-92775947D01*
X156224472Y-92788335D01*
X156263616Y-92844655D01*
X156308751Y-92904118D01*
X156316302Y-92920459D01*
X156323142Y-92930301D01*
X156352508Y-92998817D01*
X156386307Y-93071965D01*
X156388885Y-93083692D01*
X156391247Y-93089202D01*
X156407429Y-93168036D01*
X156426011Y-93252551D01*
X156425345Y-93443388D01*
X156406181Y-93527738D01*
X156389443Y-93606485D01*
X156387041Y-93611982D01*
X156384381Y-93623692D01*
X156350069Y-93696609D01*
X156320227Y-93764915D01*
X156313318Y-93774709D01*
X156305655Y-93790994D01*
X156260114Y-93850130D01*
X156220570Y-93906187D01*
X156207472Y-93918487D01*
X156192840Y-93937487D01*
X156140227Y-93981635D01*
X156094544Y-94024534D01*
X156074147Y-94037082D01*
X156051199Y-94056338D01*
X155995600Y-94085405D01*
X155947293Y-94115123D01*
X155919184Y-94125354D01*
X155887341Y-94142001D01*
X155832534Y-94156892D01*
X155784831Y-94174254D01*
X155749340Y-94179495D01*
X155708911Y-94190479D01*
X155658139Y-94192962D01*
X155613803Y-94199509D01*
X155572027Y-94197174D01*
X155524233Y-94199511D01*
X155479992Y-94192028D01*
X155441189Y-94189859D01*
X155394980Y-94177650D01*
X155341923Y-94168676D01*
X155305839Y-94154097D01*
X155274035Y-94145694D01*
X155225897Y-94121799D01*
X155170488Y-94099412D01*
X155143311Y-94080804D01*
X155119182Y-94068826D01*
X155072128Y-94032063D01*
X155017926Y-93994950D01*
X154999469Y-93975295D01*
X154982950Y-93962389D01*
X154940400Y-93912393D01*
X154891354Y-93860164D01*
X154880608Y-93842138D01*
X154870896Y-93830726D01*
X154836401Y-93767981D01*
X154796678Y-93701344D01*
X154791943Y-93687111D01*
X154787610Y-93679229D01*
X154764692Y-93605192D01*
X154738314Y-93525898D01*
X154737372Y-93516934D01*
X154736486Y-93514072D01*
X154728347Y-93431068D01*
X154718987Y-93342012D01*
X154728967Y-93253044D01*
X154737687Y-93170078D01*
X154738593Y-93167220D01*
X154739598Y-93158265D01*
X154766530Y-93079153D01*
X154789963Y-93005281D01*
X154794350Y-92997432D01*
X154799184Y-92983231D01*
X154839382Y-92916857D01*
X154874304Y-92854371D01*
X154884092Y-92843031D01*
X154894967Y-92825075D01*
X154944385Y-92773181D01*
X154987273Y-92723495D01*
X155003879Y-92710707D01*
X155022477Y-92691177D01*
X155076952Y-92654433D01*
X155124250Y-92618009D01*
X155148458Y-92606202D01*
X155175765Y-92587783D01*
X155231319Y-92565787D01*
X155279633Y-92542223D01*
X155311503Y-92534040D01*
X155347679Y-92519717D01*
X155400795Y-92511114D01*
X155447088Y-92499228D01*
X155485903Y-92497330D01*
X155530199Y-92490155D01*
X155577976Y-92492826D01*
G37*
G36*
X147957976Y-92492826D02*
G01*
X147999766Y-92490782D01*
X148044056Y-92497639D01*
X148094810Y-92500476D01*
X148135163Y-92511743D01*
X148170621Y-92517232D01*
X148218204Y-92534928D01*
X148272898Y-92550199D01*
X148304622Y-92567067D01*
X148332659Y-92577494D01*
X148380757Y-92607549D01*
X148436153Y-92637004D01*
X148458968Y-92656421D01*
X148479271Y-92669108D01*
X148524641Y-92712313D01*
X148576961Y-92756841D01*
X148591463Y-92775947D01*
X148604472Y-92788335D01*
X148643616Y-92844655D01*
X148688751Y-92904118D01*
X148696302Y-92920459D01*
X148703142Y-92930301D01*
X148732508Y-92998817D01*
X148766307Y-93071965D01*
X148768885Y-93083692D01*
X148771247Y-93089202D01*
X148787429Y-93168036D01*
X148806011Y-93252551D01*
X148805345Y-93443388D01*
X148786181Y-93527738D01*
X148769443Y-93606485D01*
X148767041Y-93611982D01*
X148764381Y-93623692D01*
X148730069Y-93696609D01*
X148700227Y-93764915D01*
X148693318Y-93774709D01*
X148685655Y-93790994D01*
X148640114Y-93850130D01*
X148600570Y-93906187D01*
X148587472Y-93918487D01*
X148572840Y-93937487D01*
X148520227Y-93981635D01*
X148474544Y-94024534D01*
X148454147Y-94037082D01*
X148431199Y-94056338D01*
X148375600Y-94085405D01*
X148327293Y-94115123D01*
X148299184Y-94125354D01*
X148267341Y-94142001D01*
X148212534Y-94156892D01*
X148164831Y-94174254D01*
X148129340Y-94179495D01*
X148088911Y-94190479D01*
X148038139Y-94192962D01*
X147993803Y-94199509D01*
X147952027Y-94197174D01*
X147904233Y-94199511D01*
X147859992Y-94192028D01*
X147821189Y-94189859D01*
X147774980Y-94177650D01*
X147721923Y-94168676D01*
X147685839Y-94154097D01*
X147654035Y-94145694D01*
X147605897Y-94121799D01*
X147550488Y-94099412D01*
X147523311Y-94080804D01*
X147499182Y-94068826D01*
X147452128Y-94032063D01*
X147397926Y-93994950D01*
X147379469Y-93975295D01*
X147362950Y-93962389D01*
X147320400Y-93912393D01*
X147271354Y-93860164D01*
X147260608Y-93842138D01*
X147250896Y-93830726D01*
X147216401Y-93767981D01*
X147176678Y-93701344D01*
X147171943Y-93687111D01*
X147167610Y-93679229D01*
X147144692Y-93605192D01*
X147118314Y-93525898D01*
X147117372Y-93516934D01*
X147116486Y-93514072D01*
X147108347Y-93431068D01*
X147098987Y-93342012D01*
X147108967Y-93253044D01*
X147117687Y-93170078D01*
X147118593Y-93167220D01*
X147119598Y-93158265D01*
X147146530Y-93079153D01*
X147169963Y-93005281D01*
X147174350Y-92997432D01*
X147179184Y-92983231D01*
X147219382Y-92916857D01*
X147254304Y-92854371D01*
X147264092Y-92843031D01*
X147274967Y-92825075D01*
X147324385Y-92773181D01*
X147367273Y-92723495D01*
X147383879Y-92710707D01*
X147402477Y-92691177D01*
X147456952Y-92654433D01*
X147504250Y-92618009D01*
X147528458Y-92606202D01*
X147555765Y-92587783D01*
X147611319Y-92565787D01*
X147659633Y-92542223D01*
X147691503Y-92534040D01*
X147727679Y-92519717D01*
X147780795Y-92511114D01*
X147827088Y-92499228D01*
X147865903Y-92497330D01*
X147910199Y-92490155D01*
X147957976Y-92492826D01*
G37*
G36*
X141154899Y-92496959D02*
G01*
X141171769Y-92508231D01*
X141183041Y-92525101D01*
X141189448Y-92557312D01*
X141189448Y-94132688D01*
X141186999Y-94145000D01*
X141183041Y-94164899D01*
X141171769Y-94181769D01*
X141154899Y-94193041D01*
X141135000Y-94196999D01*
X141122688Y-94199448D01*
X139547312Y-94199448D01*
X139515101Y-94193041D01*
X139498231Y-94181769D01*
X139486959Y-94164899D01*
X139480552Y-94132688D01*
X139480552Y-92557312D01*
X139486959Y-92525101D01*
X139498231Y-92508231D01*
X139515101Y-92496959D01*
X139547312Y-92490552D01*
X141122688Y-92490552D01*
X141154899Y-92496959D01*
G37*
G36*
X130844902Y-92024283D02*
G01*
X130889637Y-92024595D01*
X130933460Y-92033590D01*
X130983360Y-92038835D01*
X131025132Y-92052408D01*
X131062723Y-92060124D01*
X131109851Y-92079935D01*
X131163488Y-92097363D01*
X131196099Y-92116191D01*
X131225614Y-92128598D01*
X131273301Y-92160763D01*
X131327511Y-92192061D01*
X131350826Y-92213054D01*
X131372101Y-92227404D01*
X131417183Y-92272802D01*
X131468261Y-92318793D01*
X131483003Y-92339083D01*
X131496608Y-92352784D01*
X131535643Y-92411537D01*
X131579586Y-92472019D01*
X131587221Y-92489168D01*
X131594388Y-92499955D01*
X131623865Y-92571472D01*
X131656621Y-92645042D01*
X131659211Y-92657225D01*
X131661724Y-92663323D01*
X131678292Y-92746997D01*
X131695999Y-92830301D01*
X131695999Y-93019699D01*
X131693115Y-93033269D01*
X131693030Y-93039331D01*
X131674342Y-93121585D01*
X131656621Y-93204958D01*
X131654129Y-93210555D01*
X131654078Y-93210780D01*
X131582210Y-93372197D01*
X131582078Y-93372385D01*
X131579586Y-93377981D01*
X131529480Y-93446946D01*
X131480357Y-93516582D01*
X131475585Y-93521126D01*
X131468261Y-93531207D01*
X131408396Y-93585110D01*
X131352396Y-93638438D01*
X131341464Y-93645376D01*
X131327511Y-93657939D01*
X131262764Y-93695321D01*
X131203211Y-93733114D01*
X131185209Y-93740097D01*
X131163488Y-93752637D01*
X131098115Y-93773878D01*
X131038468Y-93797014D01*
X131013200Y-93801469D01*
X130983360Y-93811165D01*
X130921095Y-93817709D01*
X130864460Y-93827695D01*
X130832459Y-93827025D01*
X130795000Y-93830962D01*
X130738902Y-93825066D01*
X130687799Y-93823996D01*
X130650323Y-93815756D01*
X130606640Y-93811165D01*
X130558917Y-93795659D01*
X130515225Y-93786052D01*
X130474230Y-93768142D01*
X130426512Y-93752637D01*
X130388473Y-93730675D01*
X130353310Y-93715313D01*
X130311337Y-93686141D01*
X130262489Y-93657939D01*
X130234504Y-93632741D01*
X130208215Y-93614470D01*
X130168257Y-93573092D01*
X130121739Y-93531207D01*
X130103296Y-93505823D01*
X130085473Y-93487366D01*
X130050821Y-93433597D01*
X130010414Y-93377981D01*
X130000212Y-93355066D01*
X129989754Y-93338839D01*
X129963789Y-93273261D01*
X129933379Y-93204958D01*
X129929476Y-93186596D01*
X129924707Y-93174551D01*
X129910740Y-93098448D01*
X129894001Y-93019699D01*
X129894001Y-93007246D01*
X129892811Y-93000762D01*
X129894001Y-92915535D01*
X129894001Y-92830301D01*
X129895275Y-92824308D01*
X129895278Y-92824077D01*
X129932015Y-92651246D01*
X129932105Y-92651036D01*
X129933379Y-92645042D01*
X129968042Y-92567188D01*
X130001622Y-92488839D01*
X130005348Y-92483397D01*
X130010414Y-92472019D01*
X130057746Y-92406872D01*
X130101452Y-92343041D01*
X130110706Y-92333979D01*
X130121739Y-92318793D01*
X130177297Y-92268769D01*
X130227693Y-92219417D01*
X130243848Y-92208846D01*
X130262489Y-92192061D01*
X130322026Y-92157687D01*
X130375551Y-92122662D01*
X130399340Y-92113050D01*
X130426512Y-92097363D01*
X130486045Y-92078019D01*
X130539376Y-92056472D01*
X130570820Y-92050474D01*
X130606640Y-92038835D01*
X130662744Y-92032938D01*
X130712945Y-92023362D01*
X130751312Y-92023630D01*
X130795000Y-92019038D01*
X130844902Y-92024283D01*
G37*
G36*
X128304902Y-92024283D02*
G01*
X128349637Y-92024595D01*
X128393460Y-92033590D01*
X128443360Y-92038835D01*
X128485132Y-92052408D01*
X128522723Y-92060124D01*
X128569851Y-92079935D01*
X128623488Y-92097363D01*
X128656099Y-92116191D01*
X128685614Y-92128598D01*
X128733301Y-92160763D01*
X128787511Y-92192061D01*
X128810826Y-92213054D01*
X128832101Y-92227404D01*
X128877183Y-92272802D01*
X128928261Y-92318793D01*
X128943003Y-92339083D01*
X128956608Y-92352784D01*
X128995643Y-92411537D01*
X129039586Y-92472019D01*
X129047221Y-92489168D01*
X129054388Y-92499955D01*
X129083865Y-92571472D01*
X129116621Y-92645042D01*
X129119211Y-92657225D01*
X129121724Y-92663323D01*
X129138292Y-92746997D01*
X129155999Y-92830301D01*
X129155999Y-93019699D01*
X129153115Y-93033269D01*
X129153030Y-93039331D01*
X129134342Y-93121585D01*
X129116621Y-93204958D01*
X129114129Y-93210555D01*
X129114078Y-93210780D01*
X129042210Y-93372197D01*
X129042078Y-93372385D01*
X129039586Y-93377981D01*
X128989480Y-93446946D01*
X128940357Y-93516582D01*
X128935585Y-93521126D01*
X128928261Y-93531207D01*
X128868396Y-93585110D01*
X128812396Y-93638438D01*
X128801464Y-93645376D01*
X128787511Y-93657939D01*
X128722764Y-93695321D01*
X128663211Y-93733114D01*
X128645209Y-93740097D01*
X128623488Y-93752637D01*
X128558115Y-93773878D01*
X128498468Y-93797014D01*
X128473200Y-93801469D01*
X128443360Y-93811165D01*
X128381095Y-93817709D01*
X128324460Y-93827695D01*
X128292459Y-93827025D01*
X128255000Y-93830962D01*
X128198902Y-93825066D01*
X128147799Y-93823996D01*
X128110323Y-93815756D01*
X128066640Y-93811165D01*
X128018917Y-93795659D01*
X127975225Y-93786052D01*
X127934230Y-93768142D01*
X127886512Y-93752637D01*
X127848473Y-93730675D01*
X127813310Y-93715313D01*
X127771337Y-93686141D01*
X127722489Y-93657939D01*
X127694504Y-93632741D01*
X127668215Y-93614470D01*
X127628257Y-93573092D01*
X127581739Y-93531207D01*
X127563296Y-93505823D01*
X127545473Y-93487366D01*
X127510821Y-93433597D01*
X127470414Y-93377981D01*
X127460212Y-93355066D01*
X127449754Y-93338839D01*
X127423789Y-93273261D01*
X127393379Y-93204958D01*
X127389476Y-93186596D01*
X127384707Y-93174551D01*
X127370740Y-93098448D01*
X127354001Y-93019699D01*
X127354001Y-93007246D01*
X127352811Y-93000762D01*
X127354001Y-92915535D01*
X127354001Y-92830301D01*
X127355275Y-92824308D01*
X127355278Y-92824077D01*
X127392015Y-92651246D01*
X127392105Y-92651036D01*
X127393379Y-92645042D01*
X127428042Y-92567188D01*
X127461622Y-92488839D01*
X127465348Y-92483397D01*
X127470414Y-92472019D01*
X127517746Y-92406872D01*
X127561452Y-92343041D01*
X127570706Y-92333979D01*
X127581739Y-92318793D01*
X127637297Y-92268769D01*
X127687693Y-92219417D01*
X127703848Y-92208846D01*
X127722489Y-92192061D01*
X127782026Y-92157687D01*
X127835551Y-92122662D01*
X127859340Y-92113050D01*
X127886512Y-92097363D01*
X127946045Y-92078019D01*
X127999376Y-92056472D01*
X128030820Y-92050474D01*
X128066640Y-92038835D01*
X128122744Y-92032938D01*
X128172945Y-92023362D01*
X128211312Y-92023630D01*
X128255000Y-92019038D01*
X128304902Y-92024283D01*
G37*
G36*
X128304902Y-89484283D02*
G01*
X128349637Y-89484595D01*
X128393460Y-89493590D01*
X128443360Y-89498835D01*
X128485132Y-89512408D01*
X128522723Y-89520124D01*
X128569851Y-89539935D01*
X128623488Y-89557363D01*
X128656099Y-89576191D01*
X128685614Y-89588598D01*
X128733301Y-89620763D01*
X128787511Y-89652061D01*
X128810826Y-89673054D01*
X128832101Y-89687404D01*
X128877183Y-89732802D01*
X128928261Y-89778793D01*
X128943003Y-89799083D01*
X128956608Y-89812784D01*
X128995643Y-89871537D01*
X129039586Y-89932019D01*
X129047221Y-89949168D01*
X129054388Y-89959955D01*
X129083865Y-90031472D01*
X129116621Y-90105042D01*
X129119211Y-90117225D01*
X129121724Y-90123323D01*
X129138292Y-90206997D01*
X129155999Y-90290301D01*
X129155999Y-90479699D01*
X129153115Y-90493269D01*
X129153030Y-90499331D01*
X129134342Y-90581585D01*
X129116621Y-90664958D01*
X129114129Y-90670555D01*
X129114078Y-90670780D01*
X129042210Y-90832197D01*
X129042078Y-90832385D01*
X129039586Y-90837981D01*
X128989480Y-90906946D01*
X128940357Y-90976582D01*
X128935585Y-90981126D01*
X128928261Y-90991207D01*
X128868396Y-91045110D01*
X128812396Y-91098438D01*
X128801464Y-91105376D01*
X128787511Y-91117939D01*
X128722764Y-91155321D01*
X128663211Y-91193114D01*
X128645209Y-91200097D01*
X128623488Y-91212637D01*
X128558115Y-91233878D01*
X128498468Y-91257014D01*
X128473200Y-91261469D01*
X128443360Y-91271165D01*
X128381095Y-91277709D01*
X128324460Y-91287695D01*
X128292459Y-91287025D01*
X128255000Y-91290962D01*
X128198902Y-91285066D01*
X128147799Y-91283996D01*
X128110323Y-91275756D01*
X128066640Y-91271165D01*
X128018917Y-91255659D01*
X127975225Y-91246052D01*
X127934230Y-91228142D01*
X127886512Y-91212637D01*
X127848473Y-91190675D01*
X127813310Y-91175313D01*
X127771337Y-91146141D01*
X127722489Y-91117939D01*
X127694504Y-91092741D01*
X127668215Y-91074470D01*
X127628257Y-91033092D01*
X127581739Y-90991207D01*
X127563296Y-90965823D01*
X127545473Y-90947366D01*
X127510821Y-90893597D01*
X127470414Y-90837981D01*
X127460212Y-90815066D01*
X127449754Y-90798839D01*
X127423789Y-90733261D01*
X127393379Y-90664958D01*
X127389476Y-90646596D01*
X127384707Y-90634551D01*
X127370740Y-90558448D01*
X127354001Y-90479699D01*
X127354001Y-90467246D01*
X127352811Y-90460762D01*
X127354001Y-90375535D01*
X127354001Y-90290301D01*
X127355275Y-90284308D01*
X127355278Y-90284077D01*
X127392015Y-90111246D01*
X127392105Y-90111036D01*
X127393379Y-90105042D01*
X127428042Y-90027188D01*
X127461622Y-89948839D01*
X127465348Y-89943397D01*
X127470414Y-89932019D01*
X127517746Y-89866872D01*
X127561452Y-89803041D01*
X127570706Y-89793979D01*
X127581739Y-89778793D01*
X127637297Y-89728769D01*
X127687693Y-89679417D01*
X127703848Y-89668846D01*
X127722489Y-89652061D01*
X127782026Y-89617687D01*
X127835551Y-89582662D01*
X127859340Y-89573050D01*
X127886512Y-89557363D01*
X127946045Y-89538019D01*
X127999376Y-89516472D01*
X128030820Y-89510474D01*
X128066640Y-89498835D01*
X128122744Y-89492938D01*
X128172945Y-89483362D01*
X128211312Y-89483630D01*
X128255000Y-89479038D01*
X128304902Y-89484283D01*
G37*
G36*
X130844902Y-89484283D02*
G01*
X130889637Y-89484595D01*
X130933460Y-89493590D01*
X130983360Y-89498835D01*
X131025132Y-89512408D01*
X131062723Y-89520124D01*
X131109851Y-89539935D01*
X131163488Y-89557363D01*
X131196099Y-89576191D01*
X131225614Y-89588598D01*
X131273301Y-89620763D01*
X131327511Y-89652061D01*
X131350826Y-89673054D01*
X131372101Y-89687404D01*
X131417183Y-89732802D01*
X131468261Y-89778793D01*
X131483003Y-89799083D01*
X131496608Y-89812784D01*
X131535643Y-89871537D01*
X131579586Y-89932019D01*
X131587221Y-89949168D01*
X131594388Y-89959955D01*
X131623865Y-90031472D01*
X131656621Y-90105042D01*
X131659211Y-90117225D01*
X131661724Y-90123323D01*
X131678292Y-90206997D01*
X131695999Y-90290301D01*
X131695999Y-90479699D01*
X131693115Y-90493269D01*
X131693030Y-90499331D01*
X131674342Y-90581585D01*
X131656621Y-90664958D01*
X131654129Y-90670555D01*
X131654078Y-90670780D01*
X131582210Y-90832197D01*
X131582078Y-90832385D01*
X131579586Y-90837981D01*
X131529480Y-90906946D01*
X131480357Y-90976582D01*
X131475585Y-90981126D01*
X131468261Y-90991207D01*
X131408396Y-91045110D01*
X131352396Y-91098438D01*
X131341464Y-91105376D01*
X131327511Y-91117939D01*
X131262764Y-91155321D01*
X131203211Y-91193114D01*
X131185209Y-91200097D01*
X131163488Y-91212637D01*
X131098115Y-91233878D01*
X131038468Y-91257014D01*
X131013200Y-91261469D01*
X130983360Y-91271165D01*
X130921095Y-91277709D01*
X130864460Y-91287695D01*
X130832459Y-91287025D01*
X130795000Y-91290962D01*
X130738902Y-91285066D01*
X130687799Y-91283996D01*
X130650323Y-91275756D01*
X130606640Y-91271165D01*
X130558917Y-91255659D01*
X130515225Y-91246052D01*
X130474230Y-91228142D01*
X130426512Y-91212637D01*
X130388473Y-91190675D01*
X130353310Y-91175313D01*
X130311337Y-91146141D01*
X130262489Y-91117939D01*
X130234504Y-91092741D01*
X130208215Y-91074470D01*
X130168257Y-91033092D01*
X130121739Y-90991207D01*
X130103296Y-90965823D01*
X130085473Y-90947366D01*
X130050821Y-90893597D01*
X130010414Y-90837981D01*
X130000212Y-90815066D01*
X129989754Y-90798839D01*
X129963789Y-90733261D01*
X129933379Y-90664958D01*
X129929476Y-90646596D01*
X129924707Y-90634551D01*
X129910740Y-90558448D01*
X129894001Y-90479699D01*
X129894001Y-90467246D01*
X129892811Y-90460762D01*
X129894001Y-90375535D01*
X129894001Y-90290301D01*
X129895275Y-90284308D01*
X129895278Y-90284077D01*
X129932015Y-90111246D01*
X129932105Y-90111036D01*
X129933379Y-90105042D01*
X129968042Y-90027188D01*
X130001622Y-89948839D01*
X130005348Y-89943397D01*
X130010414Y-89932019D01*
X130057746Y-89866872D01*
X130101452Y-89803041D01*
X130110706Y-89793979D01*
X130121739Y-89778793D01*
X130177297Y-89728769D01*
X130227693Y-89679417D01*
X130243848Y-89668846D01*
X130262489Y-89652061D01*
X130322026Y-89617687D01*
X130375551Y-89582662D01*
X130399340Y-89573050D01*
X130426512Y-89557363D01*
X130486045Y-89538019D01*
X130539376Y-89516472D01*
X130570820Y-89510474D01*
X130606640Y-89498835D01*
X130662744Y-89492938D01*
X130712945Y-89483362D01*
X130751312Y-89483630D01*
X130795000Y-89479038D01*
X130844902Y-89484283D01*
G37*
G36*
X130844902Y-86944283D02*
G01*
X130889637Y-86944595D01*
X130933460Y-86953590D01*
X130983360Y-86958835D01*
X131025132Y-86972408D01*
X131062723Y-86980124D01*
X131109851Y-86999935D01*
X131163488Y-87017363D01*
X131196099Y-87036191D01*
X131225614Y-87048598D01*
X131273301Y-87080763D01*
X131327511Y-87112061D01*
X131350826Y-87133054D01*
X131372101Y-87147404D01*
X131417183Y-87192802D01*
X131468261Y-87238793D01*
X131483003Y-87259083D01*
X131496608Y-87272784D01*
X131535643Y-87331537D01*
X131579586Y-87392019D01*
X131587221Y-87409168D01*
X131594388Y-87419955D01*
X131623865Y-87491472D01*
X131656621Y-87565042D01*
X131659211Y-87577225D01*
X131661724Y-87583323D01*
X131678292Y-87666997D01*
X131695999Y-87750301D01*
X131695999Y-87939699D01*
X131693115Y-87953269D01*
X131693030Y-87959331D01*
X131674342Y-88041585D01*
X131656621Y-88124958D01*
X131654129Y-88130555D01*
X131654078Y-88130780D01*
X131582210Y-88292197D01*
X131582078Y-88292385D01*
X131579586Y-88297981D01*
X131529480Y-88366946D01*
X131480357Y-88436582D01*
X131475585Y-88441126D01*
X131468261Y-88451207D01*
X131408396Y-88505110D01*
X131352396Y-88558438D01*
X131341464Y-88565376D01*
X131327511Y-88577939D01*
X131262764Y-88615321D01*
X131203211Y-88653114D01*
X131185209Y-88660097D01*
X131163488Y-88672637D01*
X131098115Y-88693878D01*
X131038468Y-88717014D01*
X131013200Y-88721469D01*
X130983360Y-88731165D01*
X130921095Y-88737709D01*
X130864460Y-88747695D01*
X130832459Y-88747025D01*
X130795000Y-88750962D01*
X130738902Y-88745066D01*
X130687799Y-88743996D01*
X130650323Y-88735756D01*
X130606640Y-88731165D01*
X130558917Y-88715659D01*
X130515225Y-88706052D01*
X130474230Y-88688142D01*
X130426512Y-88672637D01*
X130388473Y-88650675D01*
X130353310Y-88635313D01*
X130311337Y-88606141D01*
X130262489Y-88577939D01*
X130234504Y-88552741D01*
X130208215Y-88534470D01*
X130168257Y-88493092D01*
X130121739Y-88451207D01*
X130103296Y-88425823D01*
X130085473Y-88407366D01*
X130050821Y-88353597D01*
X130010414Y-88297981D01*
X130000212Y-88275066D01*
X129989754Y-88258839D01*
X129963789Y-88193261D01*
X129933379Y-88124958D01*
X129929476Y-88106596D01*
X129924707Y-88094551D01*
X129910740Y-88018448D01*
X129894001Y-87939699D01*
X129894001Y-87927246D01*
X129892811Y-87920762D01*
X129894001Y-87835535D01*
X129894001Y-87750301D01*
X129895275Y-87744308D01*
X129895278Y-87744077D01*
X129932015Y-87571246D01*
X129932105Y-87571036D01*
X129933379Y-87565042D01*
X129968042Y-87487188D01*
X130001622Y-87408839D01*
X130005348Y-87403397D01*
X130010414Y-87392019D01*
X130057746Y-87326872D01*
X130101452Y-87263041D01*
X130110706Y-87253979D01*
X130121739Y-87238793D01*
X130177297Y-87188769D01*
X130227693Y-87139417D01*
X130243848Y-87128846D01*
X130262489Y-87112061D01*
X130322026Y-87077687D01*
X130375551Y-87042662D01*
X130399340Y-87033050D01*
X130426512Y-87017363D01*
X130486045Y-86998019D01*
X130539376Y-86976472D01*
X130570820Y-86970474D01*
X130606640Y-86958835D01*
X130662744Y-86952938D01*
X130712945Y-86943362D01*
X130751312Y-86943630D01*
X130795000Y-86939038D01*
X130844902Y-86944283D01*
G37*
G36*
X128304902Y-86944283D02*
G01*
X128349637Y-86944595D01*
X128393460Y-86953590D01*
X128443360Y-86958835D01*
X128485132Y-86972408D01*
X128522723Y-86980124D01*
X128569851Y-86999935D01*
X128623488Y-87017363D01*
X128656099Y-87036191D01*
X128685614Y-87048598D01*
X128733301Y-87080763D01*
X128787511Y-87112061D01*
X128810826Y-87133054D01*
X128832101Y-87147404D01*
X128877183Y-87192802D01*
X128928261Y-87238793D01*
X128943003Y-87259083D01*
X128956608Y-87272784D01*
X128995643Y-87331537D01*
X129039586Y-87392019D01*
X129047221Y-87409168D01*
X129054388Y-87419955D01*
X129083865Y-87491472D01*
X129116621Y-87565042D01*
X129119211Y-87577225D01*
X129121724Y-87583323D01*
X129138292Y-87666997D01*
X129155999Y-87750301D01*
X129155999Y-87939699D01*
X129153115Y-87953269D01*
X129153030Y-87959331D01*
X129134342Y-88041585D01*
X129116621Y-88124958D01*
X129114129Y-88130555D01*
X129114078Y-88130780D01*
X129042210Y-88292197D01*
X129042078Y-88292385D01*
X129039586Y-88297981D01*
X128989480Y-88366946D01*
X128940357Y-88436582D01*
X128935585Y-88441126D01*
X128928261Y-88451207D01*
X128868396Y-88505110D01*
X128812396Y-88558438D01*
X128801464Y-88565376D01*
X128787511Y-88577939D01*
X128722764Y-88615321D01*
X128663211Y-88653114D01*
X128645209Y-88660097D01*
X128623488Y-88672637D01*
X128558115Y-88693878D01*
X128498468Y-88717014D01*
X128473200Y-88721469D01*
X128443360Y-88731165D01*
X128381095Y-88737709D01*
X128324460Y-88747695D01*
X128292459Y-88747025D01*
X128255000Y-88750962D01*
X128198902Y-88745066D01*
X128147799Y-88743996D01*
X128110323Y-88735756D01*
X128066640Y-88731165D01*
X128018917Y-88715659D01*
X127975225Y-88706052D01*
X127934230Y-88688142D01*
X127886512Y-88672637D01*
X127848473Y-88650675D01*
X127813310Y-88635313D01*
X127771337Y-88606141D01*
X127722489Y-88577939D01*
X127694504Y-88552741D01*
X127668215Y-88534470D01*
X127628257Y-88493092D01*
X127581739Y-88451207D01*
X127563296Y-88425823D01*
X127545473Y-88407366D01*
X127510821Y-88353597D01*
X127470414Y-88297981D01*
X127460212Y-88275066D01*
X127449754Y-88258839D01*
X127423789Y-88193261D01*
X127393379Y-88124958D01*
X127389476Y-88106596D01*
X127384707Y-88094551D01*
X127370740Y-88018448D01*
X127354001Y-87939699D01*
X127354001Y-87927246D01*
X127352811Y-87920762D01*
X127354001Y-87835535D01*
X127354001Y-87750301D01*
X127355275Y-87744308D01*
X127355278Y-87744077D01*
X127392015Y-87571246D01*
X127392105Y-87571036D01*
X127393379Y-87565042D01*
X127428042Y-87487188D01*
X127461622Y-87408839D01*
X127465348Y-87403397D01*
X127470414Y-87392019D01*
X127517746Y-87326872D01*
X127561452Y-87263041D01*
X127570706Y-87253979D01*
X127581739Y-87238793D01*
X127637297Y-87188769D01*
X127687693Y-87139417D01*
X127703848Y-87128846D01*
X127722489Y-87112061D01*
X127782026Y-87077687D01*
X127835551Y-87042662D01*
X127859340Y-87033050D01*
X127886512Y-87017363D01*
X127946045Y-86998019D01*
X127999376Y-86976472D01*
X128030820Y-86970474D01*
X128066640Y-86958835D01*
X128122744Y-86952938D01*
X128172945Y-86943362D01*
X128211312Y-86943630D01*
X128255000Y-86939038D01*
X128304902Y-86944283D01*
G37*
G36*
X155577976Y-84872826D02*
G01*
X155619766Y-84870782D01*
X155664056Y-84877639D01*
X155714810Y-84880476D01*
X155755163Y-84891743D01*
X155790621Y-84897232D01*
X155838204Y-84914928D01*
X155892898Y-84930199D01*
X155924622Y-84947067D01*
X155952659Y-84957494D01*
X156000757Y-84987549D01*
X156056153Y-85017004D01*
X156078968Y-85036421D01*
X156099271Y-85049108D01*
X156144641Y-85092313D01*
X156196961Y-85136841D01*
X156211463Y-85155947D01*
X156224472Y-85168335D01*
X156263616Y-85224655D01*
X156308751Y-85284118D01*
X156316302Y-85300459D01*
X156323142Y-85310301D01*
X156352508Y-85378817D01*
X156386307Y-85451965D01*
X156388885Y-85463692D01*
X156391247Y-85469202D01*
X156407429Y-85548036D01*
X156426011Y-85632551D01*
X156425345Y-85823388D01*
X156406181Y-85907738D01*
X156389443Y-85986485D01*
X156387041Y-85991982D01*
X156384381Y-86003692D01*
X156350069Y-86076609D01*
X156320227Y-86144915D01*
X156313318Y-86154709D01*
X156305655Y-86170994D01*
X156260114Y-86230130D01*
X156220570Y-86286187D01*
X156207472Y-86298487D01*
X156192840Y-86317487D01*
X156140227Y-86361635D01*
X156094544Y-86404534D01*
X156074147Y-86417082D01*
X156051199Y-86436338D01*
X155995600Y-86465405D01*
X155947293Y-86495123D01*
X155919184Y-86505354D01*
X155887341Y-86522001D01*
X155832534Y-86536892D01*
X155784831Y-86554254D01*
X155749340Y-86559495D01*
X155708911Y-86570479D01*
X155658139Y-86572962D01*
X155613803Y-86579509D01*
X155572027Y-86577174D01*
X155524233Y-86579511D01*
X155479992Y-86572028D01*
X155441189Y-86569859D01*
X155394980Y-86557650D01*
X155341923Y-86548676D01*
X155305839Y-86534097D01*
X155274035Y-86525694D01*
X155225897Y-86501799D01*
X155170488Y-86479412D01*
X155143311Y-86460804D01*
X155119182Y-86448826D01*
X155072128Y-86412063D01*
X155017926Y-86374950D01*
X154999469Y-86355295D01*
X154982950Y-86342389D01*
X154940400Y-86292393D01*
X154891354Y-86240164D01*
X154880608Y-86222138D01*
X154870896Y-86210726D01*
X154836401Y-86147981D01*
X154796678Y-86081344D01*
X154791943Y-86067111D01*
X154787610Y-86059229D01*
X154764692Y-85985192D01*
X154738314Y-85905898D01*
X154737372Y-85896934D01*
X154736486Y-85894072D01*
X154728347Y-85811068D01*
X154718987Y-85722012D01*
X154728967Y-85633044D01*
X154737687Y-85550078D01*
X154738593Y-85547220D01*
X154739598Y-85538265D01*
X154766530Y-85459153D01*
X154789963Y-85385281D01*
X154794350Y-85377432D01*
X154799184Y-85363231D01*
X154839382Y-85296857D01*
X154874304Y-85234371D01*
X154884092Y-85223031D01*
X154894967Y-85205075D01*
X154944385Y-85153181D01*
X154987273Y-85103495D01*
X155003879Y-85090707D01*
X155022477Y-85071177D01*
X155076952Y-85034433D01*
X155124250Y-84998009D01*
X155148458Y-84986202D01*
X155175765Y-84967783D01*
X155231319Y-84945787D01*
X155279633Y-84922223D01*
X155311503Y-84914040D01*
X155347679Y-84899717D01*
X155400795Y-84891114D01*
X155447088Y-84879228D01*
X155485903Y-84877330D01*
X155530199Y-84870155D01*
X155577976Y-84872826D01*
G37*
G36*
X140337976Y-84872826D02*
G01*
X140379766Y-84870782D01*
X140424056Y-84877639D01*
X140474810Y-84880476D01*
X140515163Y-84891743D01*
X140550621Y-84897232D01*
X140598204Y-84914928D01*
X140652898Y-84930199D01*
X140684622Y-84947067D01*
X140712659Y-84957494D01*
X140760757Y-84987549D01*
X140816153Y-85017004D01*
X140838968Y-85036421D01*
X140859271Y-85049108D01*
X140904641Y-85092313D01*
X140956961Y-85136841D01*
X140971463Y-85155947D01*
X140984472Y-85168335D01*
X141023616Y-85224655D01*
X141068751Y-85284118D01*
X141076302Y-85300459D01*
X141083142Y-85310301D01*
X141112508Y-85378817D01*
X141146307Y-85451965D01*
X141148885Y-85463692D01*
X141151247Y-85469202D01*
X141167429Y-85548036D01*
X141186011Y-85632551D01*
X141185345Y-85823388D01*
X141166181Y-85907738D01*
X141149443Y-85986485D01*
X141147041Y-85991982D01*
X141144381Y-86003692D01*
X141110069Y-86076609D01*
X141080227Y-86144915D01*
X141073318Y-86154709D01*
X141065655Y-86170994D01*
X141020114Y-86230130D01*
X140980570Y-86286187D01*
X140967472Y-86298487D01*
X140952840Y-86317487D01*
X140900227Y-86361635D01*
X140854544Y-86404534D01*
X140834147Y-86417082D01*
X140811199Y-86436338D01*
X140755600Y-86465405D01*
X140707293Y-86495123D01*
X140679184Y-86505354D01*
X140647341Y-86522001D01*
X140592534Y-86536892D01*
X140544831Y-86554254D01*
X140509340Y-86559495D01*
X140468911Y-86570479D01*
X140418139Y-86572962D01*
X140373803Y-86579509D01*
X140332027Y-86577174D01*
X140284233Y-86579511D01*
X140239992Y-86572028D01*
X140201189Y-86569859D01*
X140154980Y-86557650D01*
X140101923Y-86548676D01*
X140065839Y-86534097D01*
X140034035Y-86525694D01*
X139985897Y-86501799D01*
X139930488Y-86479412D01*
X139903311Y-86460804D01*
X139879182Y-86448826D01*
X139832128Y-86412063D01*
X139777926Y-86374950D01*
X139759469Y-86355295D01*
X139742950Y-86342389D01*
X139700400Y-86292393D01*
X139651354Y-86240164D01*
X139640608Y-86222138D01*
X139630896Y-86210726D01*
X139596401Y-86147981D01*
X139556678Y-86081344D01*
X139551943Y-86067111D01*
X139547610Y-86059229D01*
X139524692Y-85985192D01*
X139498314Y-85905898D01*
X139497372Y-85896934D01*
X139496486Y-85894072D01*
X139488347Y-85811068D01*
X139478987Y-85722012D01*
X139488967Y-85633044D01*
X139497687Y-85550078D01*
X139498593Y-85547220D01*
X139499598Y-85538265D01*
X139526530Y-85459153D01*
X139549963Y-85385281D01*
X139554350Y-85377432D01*
X139559184Y-85363231D01*
X139599382Y-85296857D01*
X139634304Y-85234371D01*
X139644092Y-85223031D01*
X139654967Y-85205075D01*
X139704385Y-85153181D01*
X139747273Y-85103495D01*
X139763879Y-85090707D01*
X139782477Y-85071177D01*
X139836952Y-85034433D01*
X139884250Y-84998009D01*
X139908458Y-84986202D01*
X139935765Y-84967783D01*
X139991319Y-84945787D01*
X140039633Y-84922223D01*
X140071503Y-84914040D01*
X140107679Y-84899717D01*
X140160795Y-84891114D01*
X140207088Y-84879228D01*
X140245903Y-84877330D01*
X140290199Y-84870155D01*
X140337976Y-84872826D01*
G37*
G36*
X153037976Y-84872826D02*
G01*
X153079766Y-84870782D01*
X153124056Y-84877639D01*
X153174810Y-84880476D01*
X153215163Y-84891743D01*
X153250621Y-84897232D01*
X153298204Y-84914928D01*
X153352898Y-84930199D01*
X153384622Y-84947067D01*
X153412659Y-84957494D01*
X153460757Y-84987549D01*
X153516153Y-85017004D01*
X153538968Y-85036421D01*
X153559271Y-85049108D01*
X153604641Y-85092313D01*
X153656961Y-85136841D01*
X153671463Y-85155947D01*
X153684472Y-85168335D01*
X153723616Y-85224655D01*
X153768751Y-85284118D01*
X153776302Y-85300459D01*
X153783142Y-85310301D01*
X153812508Y-85378817D01*
X153846307Y-85451965D01*
X153848885Y-85463692D01*
X153851247Y-85469202D01*
X153867429Y-85548036D01*
X153886011Y-85632551D01*
X153885345Y-85823388D01*
X153866181Y-85907738D01*
X153849443Y-85986485D01*
X153847041Y-85991982D01*
X153844381Y-86003692D01*
X153810069Y-86076609D01*
X153780227Y-86144915D01*
X153773318Y-86154709D01*
X153765655Y-86170994D01*
X153720114Y-86230130D01*
X153680570Y-86286187D01*
X153667472Y-86298487D01*
X153652840Y-86317487D01*
X153600227Y-86361635D01*
X153554544Y-86404534D01*
X153534147Y-86417082D01*
X153511199Y-86436338D01*
X153455600Y-86465405D01*
X153407293Y-86495123D01*
X153379184Y-86505354D01*
X153347341Y-86522001D01*
X153292534Y-86536892D01*
X153244831Y-86554254D01*
X153209340Y-86559495D01*
X153168911Y-86570479D01*
X153118139Y-86572962D01*
X153073803Y-86579509D01*
X153032027Y-86577174D01*
X152984233Y-86579511D01*
X152939992Y-86572028D01*
X152901189Y-86569859D01*
X152854980Y-86557650D01*
X152801923Y-86548676D01*
X152765839Y-86534097D01*
X152734035Y-86525694D01*
X152685897Y-86501799D01*
X152630488Y-86479412D01*
X152603311Y-86460804D01*
X152579182Y-86448826D01*
X152532128Y-86412063D01*
X152477926Y-86374950D01*
X152459469Y-86355295D01*
X152442950Y-86342389D01*
X152400400Y-86292393D01*
X152351354Y-86240164D01*
X152340608Y-86222138D01*
X152330896Y-86210726D01*
X152296401Y-86147981D01*
X152256678Y-86081344D01*
X152251943Y-86067111D01*
X152247610Y-86059229D01*
X152224692Y-85985192D01*
X152198314Y-85905898D01*
X152197372Y-85896934D01*
X152196486Y-85894072D01*
X152188347Y-85811068D01*
X152178987Y-85722012D01*
X152188967Y-85633044D01*
X152197687Y-85550078D01*
X152198593Y-85547220D01*
X152199598Y-85538265D01*
X152226530Y-85459153D01*
X152249963Y-85385281D01*
X152254350Y-85377432D01*
X152259184Y-85363231D01*
X152299382Y-85296857D01*
X152334304Y-85234371D01*
X152344092Y-85223031D01*
X152354967Y-85205075D01*
X152404385Y-85153181D01*
X152447273Y-85103495D01*
X152463879Y-85090707D01*
X152482477Y-85071177D01*
X152536952Y-85034433D01*
X152584250Y-84998009D01*
X152608458Y-84986202D01*
X152635765Y-84967783D01*
X152691319Y-84945787D01*
X152739633Y-84922223D01*
X152771503Y-84914040D01*
X152807679Y-84899717D01*
X152860795Y-84891114D01*
X152907088Y-84879228D01*
X152945903Y-84877330D01*
X152990199Y-84870155D01*
X153037976Y-84872826D01*
G37*
G36*
X142877976Y-84872826D02*
G01*
X142919766Y-84870782D01*
X142964056Y-84877639D01*
X143014810Y-84880476D01*
X143055163Y-84891743D01*
X143090621Y-84897232D01*
X143138204Y-84914928D01*
X143192898Y-84930199D01*
X143224622Y-84947067D01*
X143252659Y-84957494D01*
X143300757Y-84987549D01*
X143356153Y-85017004D01*
X143378968Y-85036421D01*
X143399271Y-85049108D01*
X143444641Y-85092313D01*
X143496961Y-85136841D01*
X143511463Y-85155947D01*
X143524472Y-85168335D01*
X143563616Y-85224655D01*
X143608751Y-85284118D01*
X143616302Y-85300459D01*
X143623142Y-85310301D01*
X143652508Y-85378817D01*
X143686307Y-85451965D01*
X143688885Y-85463692D01*
X143691247Y-85469202D01*
X143707429Y-85548036D01*
X143726011Y-85632551D01*
X143725345Y-85823388D01*
X143706181Y-85907738D01*
X143689443Y-85986485D01*
X143687041Y-85991982D01*
X143684381Y-86003692D01*
X143650069Y-86076609D01*
X143620227Y-86144915D01*
X143613318Y-86154709D01*
X143605655Y-86170994D01*
X143560114Y-86230130D01*
X143520570Y-86286187D01*
X143507472Y-86298487D01*
X143492840Y-86317487D01*
X143440227Y-86361635D01*
X143394544Y-86404534D01*
X143374147Y-86417082D01*
X143351199Y-86436338D01*
X143295600Y-86465405D01*
X143247293Y-86495123D01*
X143219184Y-86505354D01*
X143187341Y-86522001D01*
X143132534Y-86536892D01*
X143084831Y-86554254D01*
X143049340Y-86559495D01*
X143008911Y-86570479D01*
X142958139Y-86572962D01*
X142913803Y-86579509D01*
X142872027Y-86577174D01*
X142824233Y-86579511D01*
X142779992Y-86572028D01*
X142741189Y-86569859D01*
X142694980Y-86557650D01*
X142641923Y-86548676D01*
X142605839Y-86534097D01*
X142574035Y-86525694D01*
X142525897Y-86501799D01*
X142470488Y-86479412D01*
X142443311Y-86460804D01*
X142419182Y-86448826D01*
X142372128Y-86412063D01*
X142317926Y-86374950D01*
X142299469Y-86355295D01*
X142282950Y-86342389D01*
X142240400Y-86292393D01*
X142191354Y-86240164D01*
X142180608Y-86222138D01*
X142170896Y-86210726D01*
X142136401Y-86147981D01*
X142096678Y-86081344D01*
X142091943Y-86067111D01*
X142087610Y-86059229D01*
X142064692Y-85985192D01*
X142038314Y-85905898D01*
X142037372Y-85896934D01*
X142036486Y-85894072D01*
X142028347Y-85811068D01*
X142018987Y-85722012D01*
X142028967Y-85633044D01*
X142037687Y-85550078D01*
X142038593Y-85547220D01*
X142039598Y-85538265D01*
X142066530Y-85459153D01*
X142089963Y-85385281D01*
X142094350Y-85377432D01*
X142099184Y-85363231D01*
X142139382Y-85296857D01*
X142174304Y-85234371D01*
X142184092Y-85223031D01*
X142194967Y-85205075D01*
X142244385Y-85153181D01*
X142287273Y-85103495D01*
X142303879Y-85090707D01*
X142322477Y-85071177D01*
X142376952Y-85034433D01*
X142424250Y-84998009D01*
X142448458Y-84986202D01*
X142475765Y-84967783D01*
X142531319Y-84945787D01*
X142579633Y-84922223D01*
X142611503Y-84914040D01*
X142647679Y-84899717D01*
X142700795Y-84891114D01*
X142747088Y-84879228D01*
X142785903Y-84877330D01*
X142830199Y-84870155D01*
X142877976Y-84872826D01*
G37*
G36*
X150497976Y-84872826D02*
G01*
X150539766Y-84870782D01*
X150584056Y-84877639D01*
X150634810Y-84880476D01*
X150675163Y-84891743D01*
X150710621Y-84897232D01*
X150758204Y-84914928D01*
X150812898Y-84930199D01*
X150844622Y-84947067D01*
X150872659Y-84957494D01*
X150920757Y-84987549D01*
X150976153Y-85017004D01*
X150998968Y-85036421D01*
X151019271Y-85049108D01*
X151064641Y-85092313D01*
X151116961Y-85136841D01*
X151131463Y-85155947D01*
X151144472Y-85168335D01*
X151183616Y-85224655D01*
X151228751Y-85284118D01*
X151236302Y-85300459D01*
X151243142Y-85310301D01*
X151272508Y-85378817D01*
X151306307Y-85451965D01*
X151308885Y-85463692D01*
X151311247Y-85469202D01*
X151327429Y-85548036D01*
X151346011Y-85632551D01*
X151345345Y-85823388D01*
X151326181Y-85907738D01*
X151309443Y-85986485D01*
X151307041Y-85991982D01*
X151304381Y-86003692D01*
X151270069Y-86076609D01*
X151240227Y-86144915D01*
X151233318Y-86154709D01*
X151225655Y-86170994D01*
X151180114Y-86230130D01*
X151140570Y-86286187D01*
X151127472Y-86298487D01*
X151112840Y-86317487D01*
X151060227Y-86361635D01*
X151014544Y-86404534D01*
X150994147Y-86417082D01*
X150971199Y-86436338D01*
X150915600Y-86465405D01*
X150867293Y-86495123D01*
X150839184Y-86505354D01*
X150807341Y-86522001D01*
X150752534Y-86536892D01*
X150704831Y-86554254D01*
X150669340Y-86559495D01*
X150628911Y-86570479D01*
X150578139Y-86572962D01*
X150533803Y-86579509D01*
X150492027Y-86577174D01*
X150444233Y-86579511D01*
X150399992Y-86572028D01*
X150361189Y-86569859D01*
X150314980Y-86557650D01*
X150261923Y-86548676D01*
X150225839Y-86534097D01*
X150194035Y-86525694D01*
X150145897Y-86501799D01*
X150090488Y-86479412D01*
X150063311Y-86460804D01*
X150039182Y-86448826D01*
X149992128Y-86412063D01*
X149937926Y-86374950D01*
X149919469Y-86355295D01*
X149902950Y-86342389D01*
X149860400Y-86292393D01*
X149811354Y-86240164D01*
X149800608Y-86222138D01*
X149790896Y-86210726D01*
X149756401Y-86147981D01*
X149716678Y-86081344D01*
X149711943Y-86067111D01*
X149707610Y-86059229D01*
X149684692Y-85985192D01*
X149658314Y-85905898D01*
X149657372Y-85896934D01*
X149656486Y-85894072D01*
X149648347Y-85811068D01*
X149638987Y-85722012D01*
X149648967Y-85633044D01*
X149657687Y-85550078D01*
X149658593Y-85547220D01*
X149659598Y-85538265D01*
X149686530Y-85459153D01*
X149709963Y-85385281D01*
X149714350Y-85377432D01*
X149719184Y-85363231D01*
X149759382Y-85296857D01*
X149794304Y-85234371D01*
X149804092Y-85223031D01*
X149814967Y-85205075D01*
X149864385Y-85153181D01*
X149907273Y-85103495D01*
X149923879Y-85090707D01*
X149942477Y-85071177D01*
X149996952Y-85034433D01*
X150044250Y-84998009D01*
X150068458Y-84986202D01*
X150095765Y-84967783D01*
X150151319Y-84945787D01*
X150199633Y-84922223D01*
X150231503Y-84914040D01*
X150267679Y-84899717D01*
X150320795Y-84891114D01*
X150367088Y-84879228D01*
X150405903Y-84877330D01*
X150450199Y-84870155D01*
X150497976Y-84872826D01*
G37*
G36*
X145417976Y-84872826D02*
G01*
X145459766Y-84870782D01*
X145504056Y-84877639D01*
X145554810Y-84880476D01*
X145595163Y-84891743D01*
X145630621Y-84897232D01*
X145678204Y-84914928D01*
X145732898Y-84930199D01*
X145764622Y-84947067D01*
X145792659Y-84957494D01*
X145840757Y-84987549D01*
X145896153Y-85017004D01*
X145918968Y-85036421D01*
X145939271Y-85049108D01*
X145984641Y-85092313D01*
X146036961Y-85136841D01*
X146051463Y-85155947D01*
X146064472Y-85168335D01*
X146103616Y-85224655D01*
X146148751Y-85284118D01*
X146156302Y-85300459D01*
X146163142Y-85310301D01*
X146192508Y-85378817D01*
X146226307Y-85451965D01*
X146228885Y-85463692D01*
X146231247Y-85469202D01*
X146247429Y-85548036D01*
X146266011Y-85632551D01*
X146265345Y-85823388D01*
X146246181Y-85907738D01*
X146229443Y-85986485D01*
X146227041Y-85991982D01*
X146224381Y-86003692D01*
X146190069Y-86076609D01*
X146160227Y-86144915D01*
X146153318Y-86154709D01*
X146145655Y-86170994D01*
X146100114Y-86230130D01*
X146060570Y-86286187D01*
X146047472Y-86298487D01*
X146032840Y-86317487D01*
X145980227Y-86361635D01*
X145934544Y-86404534D01*
X145914147Y-86417082D01*
X145891199Y-86436338D01*
X145835600Y-86465405D01*
X145787293Y-86495123D01*
X145759184Y-86505354D01*
X145727341Y-86522001D01*
X145672534Y-86536892D01*
X145624831Y-86554254D01*
X145589340Y-86559495D01*
X145548911Y-86570479D01*
X145498139Y-86572962D01*
X145453803Y-86579509D01*
X145412027Y-86577174D01*
X145364233Y-86579511D01*
X145319992Y-86572028D01*
X145281189Y-86569859D01*
X145234980Y-86557650D01*
X145181923Y-86548676D01*
X145145839Y-86534097D01*
X145114035Y-86525694D01*
X145065897Y-86501799D01*
X145010488Y-86479412D01*
X144983311Y-86460804D01*
X144959182Y-86448826D01*
X144912128Y-86412063D01*
X144857926Y-86374950D01*
X144839469Y-86355295D01*
X144822950Y-86342389D01*
X144780400Y-86292393D01*
X144731354Y-86240164D01*
X144720608Y-86222138D01*
X144710896Y-86210726D01*
X144676401Y-86147981D01*
X144636678Y-86081344D01*
X144631943Y-86067111D01*
X144627610Y-86059229D01*
X144604692Y-85985192D01*
X144578314Y-85905898D01*
X144577372Y-85896934D01*
X144576486Y-85894072D01*
X144568347Y-85811068D01*
X144558987Y-85722012D01*
X144568967Y-85633044D01*
X144577687Y-85550078D01*
X144578593Y-85547220D01*
X144579598Y-85538265D01*
X144606530Y-85459153D01*
X144629963Y-85385281D01*
X144634350Y-85377432D01*
X144639184Y-85363231D01*
X144679382Y-85296857D01*
X144714304Y-85234371D01*
X144724092Y-85223031D01*
X144734967Y-85205075D01*
X144784385Y-85153181D01*
X144827273Y-85103495D01*
X144843879Y-85090707D01*
X144862477Y-85071177D01*
X144916952Y-85034433D01*
X144964250Y-84998009D01*
X144988458Y-84986202D01*
X145015765Y-84967783D01*
X145071319Y-84945787D01*
X145119633Y-84922223D01*
X145151503Y-84914040D01*
X145187679Y-84899717D01*
X145240795Y-84891114D01*
X145287088Y-84879228D01*
X145325903Y-84877330D01*
X145370199Y-84870155D01*
X145417976Y-84872826D01*
G37*
G36*
X158117976Y-84872826D02*
G01*
X158159766Y-84870782D01*
X158204056Y-84877639D01*
X158254810Y-84880476D01*
X158295163Y-84891743D01*
X158330621Y-84897232D01*
X158378204Y-84914928D01*
X158432898Y-84930199D01*
X158464622Y-84947067D01*
X158492659Y-84957494D01*
X158540757Y-84987549D01*
X158596153Y-85017004D01*
X158618968Y-85036421D01*
X158639271Y-85049108D01*
X158684641Y-85092313D01*
X158736961Y-85136841D01*
X158751463Y-85155947D01*
X158764472Y-85168335D01*
X158803616Y-85224655D01*
X158848751Y-85284118D01*
X158856302Y-85300459D01*
X158863142Y-85310301D01*
X158892508Y-85378817D01*
X158926307Y-85451965D01*
X158928885Y-85463692D01*
X158931247Y-85469202D01*
X158947429Y-85548036D01*
X158966011Y-85632551D01*
X158965345Y-85823388D01*
X158946181Y-85907738D01*
X158929443Y-85986485D01*
X158927041Y-85991982D01*
X158924381Y-86003692D01*
X158890069Y-86076609D01*
X158860227Y-86144915D01*
X158853318Y-86154709D01*
X158845655Y-86170994D01*
X158800114Y-86230130D01*
X158760570Y-86286187D01*
X158747472Y-86298487D01*
X158732840Y-86317487D01*
X158680227Y-86361635D01*
X158634544Y-86404534D01*
X158614147Y-86417082D01*
X158591199Y-86436338D01*
X158535600Y-86465405D01*
X158487293Y-86495123D01*
X158459184Y-86505354D01*
X158427341Y-86522001D01*
X158372534Y-86536892D01*
X158324831Y-86554254D01*
X158289340Y-86559495D01*
X158248911Y-86570479D01*
X158198139Y-86572962D01*
X158153803Y-86579509D01*
X158112027Y-86577174D01*
X158064233Y-86579511D01*
X158019992Y-86572028D01*
X157981189Y-86569859D01*
X157934980Y-86557650D01*
X157881923Y-86548676D01*
X157845839Y-86534097D01*
X157814035Y-86525694D01*
X157765897Y-86501799D01*
X157710488Y-86479412D01*
X157683311Y-86460804D01*
X157659182Y-86448826D01*
X157612128Y-86412063D01*
X157557926Y-86374950D01*
X157539469Y-86355295D01*
X157522950Y-86342389D01*
X157480400Y-86292393D01*
X157431354Y-86240164D01*
X157420608Y-86222138D01*
X157410896Y-86210726D01*
X157376401Y-86147981D01*
X157336678Y-86081344D01*
X157331943Y-86067111D01*
X157327610Y-86059229D01*
X157304692Y-85985192D01*
X157278314Y-85905898D01*
X157277372Y-85896934D01*
X157276486Y-85894072D01*
X157268347Y-85811068D01*
X157258987Y-85722012D01*
X157268967Y-85633044D01*
X157277687Y-85550078D01*
X157278593Y-85547220D01*
X157279598Y-85538265D01*
X157306530Y-85459153D01*
X157329963Y-85385281D01*
X157334350Y-85377432D01*
X157339184Y-85363231D01*
X157379382Y-85296857D01*
X157414304Y-85234371D01*
X157424092Y-85223031D01*
X157434967Y-85205075D01*
X157484385Y-85153181D01*
X157527273Y-85103495D01*
X157543879Y-85090707D01*
X157562477Y-85071177D01*
X157616952Y-85034433D01*
X157664250Y-84998009D01*
X157688458Y-84986202D01*
X157715765Y-84967783D01*
X157771319Y-84945787D01*
X157819633Y-84922223D01*
X157851503Y-84914040D01*
X157887679Y-84899717D01*
X157940795Y-84891114D01*
X157987088Y-84879228D01*
X158025903Y-84877330D01*
X158070199Y-84870155D01*
X158117976Y-84872826D01*
G37*
G36*
X147957976Y-84872826D02*
G01*
X147999766Y-84870782D01*
X148044056Y-84877639D01*
X148094810Y-84880476D01*
X148135163Y-84891743D01*
X148170621Y-84897232D01*
X148218204Y-84914928D01*
X148272898Y-84930199D01*
X148304622Y-84947067D01*
X148332659Y-84957494D01*
X148380757Y-84987549D01*
X148436153Y-85017004D01*
X148458968Y-85036421D01*
X148479271Y-85049108D01*
X148524641Y-85092313D01*
X148576961Y-85136841D01*
X148591463Y-85155947D01*
X148604472Y-85168335D01*
X148643616Y-85224655D01*
X148688751Y-85284118D01*
X148696302Y-85300459D01*
X148703142Y-85310301D01*
X148732508Y-85378817D01*
X148766307Y-85451965D01*
X148768885Y-85463692D01*
X148771247Y-85469202D01*
X148787429Y-85548036D01*
X148806011Y-85632551D01*
X148805345Y-85823388D01*
X148786181Y-85907738D01*
X148769443Y-85986485D01*
X148767041Y-85991982D01*
X148764381Y-86003692D01*
X148730069Y-86076609D01*
X148700227Y-86144915D01*
X148693318Y-86154709D01*
X148685655Y-86170994D01*
X148640114Y-86230130D01*
X148600570Y-86286187D01*
X148587472Y-86298487D01*
X148572840Y-86317487D01*
X148520227Y-86361635D01*
X148474544Y-86404534D01*
X148454147Y-86417082D01*
X148431199Y-86436338D01*
X148375600Y-86465405D01*
X148327293Y-86495123D01*
X148299184Y-86505354D01*
X148267341Y-86522001D01*
X148212534Y-86536892D01*
X148164831Y-86554254D01*
X148129340Y-86559495D01*
X148088911Y-86570479D01*
X148038139Y-86572962D01*
X147993803Y-86579509D01*
X147952027Y-86577174D01*
X147904233Y-86579511D01*
X147859992Y-86572028D01*
X147821189Y-86569859D01*
X147774980Y-86557650D01*
X147721923Y-86548676D01*
X147685839Y-86534097D01*
X147654035Y-86525694D01*
X147605897Y-86501799D01*
X147550488Y-86479412D01*
X147523311Y-86460804D01*
X147499182Y-86448826D01*
X147452128Y-86412063D01*
X147397926Y-86374950D01*
X147379469Y-86355295D01*
X147362950Y-86342389D01*
X147320400Y-86292393D01*
X147271354Y-86240164D01*
X147260608Y-86222138D01*
X147250896Y-86210726D01*
X147216401Y-86147981D01*
X147176678Y-86081344D01*
X147171943Y-86067111D01*
X147167610Y-86059229D01*
X147144692Y-85985192D01*
X147118314Y-85905898D01*
X147117372Y-85896934D01*
X147116486Y-85894072D01*
X147108347Y-85811068D01*
X147098987Y-85722012D01*
X147108967Y-85633044D01*
X147117687Y-85550078D01*
X147118593Y-85547220D01*
X147119598Y-85538265D01*
X147146530Y-85459153D01*
X147169963Y-85385281D01*
X147174350Y-85377432D01*
X147179184Y-85363231D01*
X147219382Y-85296857D01*
X147254304Y-85234371D01*
X147264092Y-85223031D01*
X147274967Y-85205075D01*
X147324385Y-85153181D01*
X147367273Y-85103495D01*
X147383879Y-85090707D01*
X147402477Y-85071177D01*
X147456952Y-85034433D01*
X147504250Y-84998009D01*
X147528458Y-84986202D01*
X147555765Y-84967783D01*
X147611319Y-84945787D01*
X147659633Y-84922223D01*
X147691503Y-84914040D01*
X147727679Y-84899717D01*
X147780795Y-84891114D01*
X147827088Y-84879228D01*
X147865903Y-84877330D01*
X147910199Y-84870155D01*
X147957976Y-84872826D01*
G37*
G36*
X128304902Y-84404283D02*
G01*
X128349637Y-84404595D01*
X128393460Y-84413590D01*
X128443360Y-84418835D01*
X128485132Y-84432408D01*
X128522723Y-84440124D01*
X128569851Y-84459935D01*
X128623488Y-84477363D01*
X128656099Y-84496191D01*
X128685614Y-84508598D01*
X128733301Y-84540763D01*
X128787511Y-84572061D01*
X128810826Y-84593054D01*
X128832101Y-84607404D01*
X128877183Y-84652802D01*
X128928261Y-84698793D01*
X128943003Y-84719083D01*
X128956608Y-84732784D01*
X128995643Y-84791537D01*
X129039586Y-84852019D01*
X129047221Y-84869168D01*
X129054388Y-84879955D01*
X129083865Y-84951472D01*
X129116621Y-85025042D01*
X129119211Y-85037225D01*
X129121724Y-85043323D01*
X129138292Y-85126997D01*
X129155999Y-85210301D01*
X129155999Y-85399699D01*
X129153115Y-85413269D01*
X129153030Y-85419331D01*
X129134342Y-85501585D01*
X129116621Y-85584958D01*
X129114129Y-85590555D01*
X129114078Y-85590780D01*
X129042210Y-85752197D01*
X129042078Y-85752385D01*
X129039586Y-85757981D01*
X128989480Y-85826946D01*
X128940357Y-85896582D01*
X128935585Y-85901126D01*
X128928261Y-85911207D01*
X128868396Y-85965110D01*
X128812396Y-86018438D01*
X128801464Y-86025376D01*
X128787511Y-86037939D01*
X128722764Y-86075321D01*
X128663211Y-86113114D01*
X128645209Y-86120097D01*
X128623488Y-86132637D01*
X128558115Y-86153878D01*
X128498468Y-86177014D01*
X128473200Y-86181469D01*
X128443360Y-86191165D01*
X128381095Y-86197709D01*
X128324460Y-86207695D01*
X128292459Y-86207025D01*
X128255000Y-86210962D01*
X128198902Y-86205066D01*
X128147799Y-86203996D01*
X128110323Y-86195756D01*
X128066640Y-86191165D01*
X128018917Y-86175659D01*
X127975225Y-86166052D01*
X127934230Y-86148142D01*
X127886512Y-86132637D01*
X127848473Y-86110675D01*
X127813310Y-86095313D01*
X127771337Y-86066141D01*
X127722489Y-86037939D01*
X127694504Y-86012741D01*
X127668215Y-85994470D01*
X127628257Y-85953092D01*
X127581739Y-85911207D01*
X127563296Y-85885823D01*
X127545473Y-85867366D01*
X127510821Y-85813597D01*
X127470414Y-85757981D01*
X127460212Y-85735066D01*
X127449754Y-85718839D01*
X127423789Y-85653261D01*
X127393379Y-85584958D01*
X127389476Y-85566596D01*
X127384707Y-85554551D01*
X127370740Y-85478448D01*
X127354001Y-85399699D01*
X127354001Y-85387246D01*
X127352811Y-85380762D01*
X127354001Y-85295535D01*
X127354001Y-85210301D01*
X127355275Y-85204308D01*
X127355278Y-85204077D01*
X127392015Y-85031246D01*
X127392105Y-85031036D01*
X127393379Y-85025042D01*
X127428042Y-84947188D01*
X127461622Y-84868839D01*
X127465348Y-84863397D01*
X127470414Y-84852019D01*
X127517746Y-84786872D01*
X127561452Y-84723041D01*
X127570706Y-84713979D01*
X127581739Y-84698793D01*
X127637297Y-84648769D01*
X127687693Y-84599417D01*
X127703848Y-84588846D01*
X127722489Y-84572061D01*
X127782026Y-84537687D01*
X127835551Y-84502662D01*
X127859340Y-84493050D01*
X127886512Y-84477363D01*
X127946045Y-84458019D01*
X127999376Y-84436472D01*
X128030820Y-84430474D01*
X128066640Y-84418835D01*
X128122744Y-84412938D01*
X128172945Y-84403362D01*
X128211312Y-84403630D01*
X128255000Y-84399038D01*
X128304902Y-84404283D01*
G37*
G36*
X131664899Y-84406959D02*
G01*
X131681769Y-84418231D01*
X131693041Y-84435101D01*
X131699448Y-84467312D01*
X131699448Y-86142688D01*
X131696999Y-86155000D01*
X131693041Y-86174899D01*
X131681769Y-86191769D01*
X131664899Y-86203041D01*
X131645000Y-86206999D01*
X131632688Y-86209448D01*
X129957312Y-86209448D01*
X129925101Y-86203041D01*
X129908231Y-86191769D01*
X129896959Y-86174899D01*
X129890552Y-86142688D01*
X129890552Y-84467312D01*
X129896959Y-84435101D01*
X129908231Y-84418231D01*
X129925101Y-84406959D01*
X129957312Y-84400552D01*
X131632688Y-84400552D01*
X131664899Y-84406959D01*
G37*
M02*
