G04 #@! TF.GenerationSoftware,KiCad,Pcbnew,5.99.0-unknown-r17121-d4cea0f2*
G04 #@! TF.CreationDate,2019-12-07T19:03:38-06:00*
G04 #@! TF.ProjectId,dip_switch_pmod,6469705f-7377-4697-9463-685f706d6f64,A*
G04 #@! TF.SameCoordinates,Original*
G04 #@! TF.FileFunction,Legend,Bot*
G04 #@! TF.FilePolarity,Positive*
%FSLAX46Y46*%
G04 Gerber Fmt 4.6, Leading zero omitted, Abs format (unit mm)*
G04 Created by KiCad (PCBNEW 5.99.0-unknown-r17121-d4cea0f2) date 2019-12-07 19:03:38*
%MOMM*%
%LPD*%
G04 APERTURE LIST*
%ADD10C,0.300000*%
%ADD11C,0.010000*%
G04 APERTURE END LIST*
D10*
X156725000Y-88275928D02*
X156867857Y-88204500D01*
X156939285Y-88133071D01*
X157010714Y-87990214D01*
X157010714Y-87918785D01*
X156939285Y-87775928D01*
X156867857Y-87704500D01*
X156725000Y-87633071D01*
X156439285Y-87633071D01*
X156296428Y-87704500D01*
X156225000Y-87775928D01*
X156153571Y-87918785D01*
X156153571Y-87990214D01*
X156225000Y-88133071D01*
X156296428Y-88204500D01*
X156439285Y-88275928D01*
X156725000Y-88275928D01*
X156867857Y-88347357D01*
X156939285Y-88418785D01*
X157010714Y-88561642D01*
X157010714Y-88847357D01*
X156939285Y-88990214D01*
X156867857Y-89061642D01*
X156725000Y-89133071D01*
X156439285Y-89133071D01*
X156296428Y-89061642D01*
X156225000Y-88990214D01*
X156153571Y-88847357D01*
X156153571Y-88561642D01*
X156225000Y-88418785D01*
X156296428Y-88347357D01*
X156439285Y-88275928D01*
X155510714Y-89133071D02*
X155510714Y-87633071D01*
X154939285Y-87633071D01*
X154796428Y-87704500D01*
X154725000Y-87775928D01*
X154653571Y-87918785D01*
X154653571Y-88133071D01*
X154725000Y-88275928D01*
X154796428Y-88347357D01*
X154939285Y-88418785D01*
X155510714Y-88418785D01*
X152867857Y-89133071D02*
X152867857Y-87633071D01*
X152510714Y-87633071D01*
X152296428Y-87704500D01*
X152153571Y-87847357D01*
X152082142Y-87990214D01*
X152010714Y-88275928D01*
X152010714Y-88490214D01*
X152082142Y-88775928D01*
X152153571Y-88918785D01*
X152296428Y-89061642D01*
X152510714Y-89133071D01*
X152867857Y-89133071D01*
X151367857Y-89133071D02*
X151367857Y-87633071D01*
X150653571Y-89133071D02*
X150653571Y-87633071D01*
X150082142Y-87633071D01*
X149939285Y-87704500D01*
X149867857Y-87775928D01*
X149796428Y-87918785D01*
X149796428Y-88133071D01*
X149867857Y-88275928D01*
X149939285Y-88347357D01*
X150082142Y-88418785D01*
X150653571Y-88418785D01*
X148082142Y-89061642D02*
X147867857Y-89133071D01*
X147510714Y-89133071D01*
X147367857Y-89061642D01*
X147296428Y-88990214D01*
X147225000Y-88847357D01*
X147225000Y-88704500D01*
X147296428Y-88561642D01*
X147367857Y-88490214D01*
X147510714Y-88418785D01*
X147796428Y-88347357D01*
X147939285Y-88275928D01*
X148010714Y-88204500D01*
X148082142Y-88061642D01*
X148082142Y-87918785D01*
X148010714Y-87775928D01*
X147939285Y-87704500D01*
X147796428Y-87633071D01*
X147439285Y-87633071D01*
X147225000Y-87704500D01*
X146725000Y-88133071D02*
X146439285Y-89133071D01*
X146153571Y-88418785D01*
X145867857Y-89133071D01*
X145582142Y-88133071D01*
X145010714Y-89133071D02*
X145010714Y-88133071D01*
X145010714Y-87633071D02*
X145082142Y-87704500D01*
X145010714Y-87775928D01*
X144939285Y-87704500D01*
X145010714Y-87633071D01*
X145010714Y-87775928D01*
X144510714Y-88133071D02*
X143939285Y-88133071D01*
X144296428Y-87633071D02*
X144296428Y-88918785D01*
X144225000Y-89061642D01*
X144082142Y-89133071D01*
X143939285Y-89133071D01*
X142796428Y-89061642D02*
X142939285Y-89133071D01*
X143225000Y-89133071D01*
X143367857Y-89061642D01*
X143439285Y-88990214D01*
X143510714Y-88847357D01*
X143510714Y-88418785D01*
X143439285Y-88275928D01*
X143367857Y-88204500D01*
X143225000Y-88133071D01*
X142939285Y-88133071D01*
X142796428Y-88204500D01*
X142153571Y-89133071D02*
X142153571Y-87633071D01*
X141510714Y-89133071D02*
X141510714Y-88347357D01*
X141582142Y-88204500D01*
X141725000Y-88133071D01*
X141939285Y-88133071D01*
X142082142Y-88204500D01*
X142153571Y-88275928D01*
X152010714Y-91548071D02*
X152010714Y-90048071D01*
X151439285Y-90048071D01*
X151296428Y-90119500D01*
X151225000Y-90190928D01*
X151153571Y-90333785D01*
X151153571Y-90548071D01*
X151225000Y-90690928D01*
X151296428Y-90762357D01*
X151439285Y-90833785D01*
X152010714Y-90833785D01*
X150510714Y-91548071D02*
X150510714Y-90048071D01*
X150010714Y-91119500D01*
X149510714Y-90048071D01*
X149510714Y-91548071D01*
X148510714Y-90048071D02*
X148225000Y-90048071D01*
X148082142Y-90119500D01*
X147939285Y-90262357D01*
X147867857Y-90548071D01*
X147867857Y-91048071D01*
X147939285Y-91333785D01*
X148082142Y-91476642D01*
X148225000Y-91548071D01*
X148510714Y-91548071D01*
X148653571Y-91476642D01*
X148796428Y-91333785D01*
X148867857Y-91048071D01*
X148867857Y-90548071D01*
X148796428Y-90262357D01*
X148653571Y-90119500D01*
X148510714Y-90048071D01*
X147225000Y-91548071D02*
X147225000Y-90048071D01*
X146867857Y-90048071D01*
X146653571Y-90119500D01*
X146510714Y-90262357D01*
X146439285Y-90405214D01*
X146367857Y-90690928D01*
X146367857Y-90905214D01*
X146439285Y-91190928D01*
X146510714Y-91333785D01*
X146653571Y-91476642D01*
X146867857Y-91548071D01*
X147225000Y-91548071D01*
G36*
X138503269Y-88044237D02*
G01*
X138546802Y-88043700D01*
X138692344Y-88041981D01*
X138803711Y-88041635D01*
X138884804Y-88043723D01*
X138939522Y-88049302D01*
X138971761Y-88059433D01*
X138985422Y-88075174D01*
X138984403Y-88097583D01*
X138972603Y-88127720D01*
X138953920Y-88166645D01*
X138949933Y-88174962D01*
X138930419Y-88209598D01*
X138907202Y-88227686D01*
X138868492Y-88234608D01*
X138802497Y-88235744D01*
X138684000Y-88235795D01*
X138684000Y-88357859D01*
X138680712Y-88432945D01*
X138667377Y-88491985D01*
X138640423Y-88541014D01*
X138637788Y-88544670D01*
X138593286Y-88594419D01*
X138539523Y-88629041D01*
X138469154Y-88650877D01*
X138374830Y-88662263D01*
X138249206Y-88665538D01*
X138157536Y-88664813D01*
X138088098Y-88661510D01*
X138039945Y-88654172D01*
X138003866Y-88641345D01*
X137970648Y-88621577D01*
X137945261Y-88603431D01*
X137876727Y-88537539D01*
X137839505Y-88462886D01*
X137827722Y-88369096D01*
X137828543Y-88361584D01*
X138009923Y-88361584D01*
X138012050Y-88384683D01*
X138033147Y-88424650D01*
X138080161Y-88451074D01*
X138157175Y-88465670D01*
X138268271Y-88470154D01*
X138286131Y-88470120D01*
X138366748Y-88468265D01*
X138419447Y-88462307D01*
X138453668Y-88450494D01*
X138478846Y-88431077D01*
X138480049Y-88429867D01*
X138512628Y-88382142D01*
X138509417Y-88335890D01*
X138469965Y-88283650D01*
X138456482Y-88270872D01*
X138428837Y-88252051D01*
X138392880Y-88241438D01*
X138338364Y-88236748D01*
X138255042Y-88235692D01*
X138204598Y-88236606D01*
X138112857Y-88246523D01*
X138052752Y-88269158D01*
X138019900Y-88306762D01*
X138009923Y-88361584D01*
X137828543Y-88361584D01*
X137839467Y-88261760D01*
X137881595Y-88168969D01*
X137955898Y-88095579D01*
X137963764Y-88090046D01*
X137984668Y-88077143D01*
X138008555Y-88067258D01*
X138040582Y-88059907D01*
X138085905Y-88054606D01*
X138149679Y-88050873D01*
X138237060Y-88048222D01*
X138255042Y-88047904D01*
X138353205Y-88046172D01*
X138503269Y-88044237D01*
G37*
D11*
X138503269Y-88044237D02*
X138546802Y-88043700D01*
X138692344Y-88041981D01*
X138803711Y-88041635D01*
X138884804Y-88043723D01*
X138939522Y-88049302D01*
X138971761Y-88059433D01*
X138985422Y-88075174D01*
X138984403Y-88097583D01*
X138972603Y-88127720D01*
X138953920Y-88166645D01*
X138949933Y-88174962D01*
X138930419Y-88209598D01*
X138907202Y-88227686D01*
X138868492Y-88234608D01*
X138802497Y-88235744D01*
X138684000Y-88235795D01*
X138684000Y-88357859D01*
X138680712Y-88432945D01*
X138667377Y-88491985D01*
X138640423Y-88541014D01*
X138637788Y-88544670D01*
X138593286Y-88594419D01*
X138539523Y-88629041D01*
X138469154Y-88650877D01*
X138374830Y-88662263D01*
X138249206Y-88665538D01*
X138157536Y-88664813D01*
X138088098Y-88661510D01*
X138039945Y-88654172D01*
X138003866Y-88641345D01*
X137970648Y-88621577D01*
X137945261Y-88603431D01*
X137876727Y-88537539D01*
X137839505Y-88462886D01*
X137827722Y-88369096D01*
X137828543Y-88361584D01*
X138009923Y-88361584D01*
X138012050Y-88384683D01*
X138033147Y-88424650D01*
X138080161Y-88451074D01*
X138157175Y-88465670D01*
X138268271Y-88470154D01*
X138286131Y-88470120D01*
X138366748Y-88468265D01*
X138419447Y-88462307D01*
X138453668Y-88450494D01*
X138478846Y-88431077D01*
X138480049Y-88429867D01*
X138512628Y-88382142D01*
X138509417Y-88335890D01*
X138469965Y-88283650D01*
X138456482Y-88270872D01*
X138428837Y-88252051D01*
X138392880Y-88241438D01*
X138338364Y-88236748D01*
X138255042Y-88235692D01*
X138204598Y-88236606D01*
X138112857Y-88246523D01*
X138052752Y-88269158D01*
X138019900Y-88306762D01*
X138009923Y-88361584D01*
X137828543Y-88361584D01*
X137839467Y-88261760D01*
X137881595Y-88168969D01*
X137955898Y-88095579D01*
X137963764Y-88090046D01*
X137984668Y-88077143D01*
X138008555Y-88067258D01*
X138040582Y-88059907D01*
X138085905Y-88054606D01*
X138149679Y-88050873D01*
X138237060Y-88048222D01*
X138255042Y-88047904D01*
X138353205Y-88046172D01*
X138503269Y-88044237D01*
G36*
X138693738Y-89593697D02*
G01*
X138675787Y-89640754D01*
X138658511Y-89675985D01*
X138636242Y-89698983D01*
X138602165Y-89712345D01*
X138549463Y-89718672D01*
X138471323Y-89720563D01*
X138360928Y-89720615D01*
X138272935Y-89720883D01*
X138188502Y-89722479D01*
X138130834Y-89726288D01*
X138092988Y-89733180D01*
X138068024Y-89744025D01*
X138049000Y-89759692D01*
X138022153Y-89798208D01*
X138012034Y-89862909D01*
X138037606Y-89926919D01*
X138040880Y-89931144D01*
X138056007Y-89944311D01*
X138080268Y-89954025D01*
X138119650Y-89961097D01*
X138180141Y-89966344D01*
X138267729Y-89970579D01*
X138388402Y-89974615D01*
X138711515Y-89984385D01*
X138637065Y-90150461D01*
X138342062Y-90150461D01*
X138261919Y-90150117D01*
X138150431Y-90147153D01*
X138067421Y-90139649D01*
X138006199Y-90125810D01*
X137960075Y-90103845D01*
X137922358Y-90071961D01*
X137886358Y-90028367D01*
X137850089Y-89965664D01*
X137826412Y-89866883D01*
X137836684Y-89767628D01*
X137879569Y-89676371D01*
X137953729Y-89601584D01*
X137976944Y-89586083D01*
X138003256Y-89573226D01*
X138036420Y-89564107D01*
X138082881Y-89557898D01*
X138149082Y-89553767D01*
X138241468Y-89550884D01*
X138366485Y-89548421D01*
X138713278Y-89542303D01*
X138693738Y-89593697D01*
G37*
X138693738Y-89593697D02*
X138675787Y-89640754D01*
X138658511Y-89675985D01*
X138636242Y-89698983D01*
X138602165Y-89712345D01*
X138549463Y-89718672D01*
X138471323Y-89720563D01*
X138360928Y-89720615D01*
X138272935Y-89720883D01*
X138188502Y-89722479D01*
X138130834Y-89726288D01*
X138092988Y-89733180D01*
X138068024Y-89744025D01*
X138049000Y-89759692D01*
X138022153Y-89798208D01*
X138012034Y-89862909D01*
X138037606Y-89926919D01*
X138040880Y-89931144D01*
X138056007Y-89944311D01*
X138080268Y-89954025D01*
X138119650Y-89961097D01*
X138180141Y-89966344D01*
X138267729Y-89970579D01*
X138388402Y-89974615D01*
X138711515Y-89984385D01*
X138637065Y-90150461D01*
X138342062Y-90150461D01*
X138261919Y-90150117D01*
X138150431Y-90147153D01*
X138067421Y-90139649D01*
X138006199Y-90125810D01*
X137960075Y-90103845D01*
X137922358Y-90071961D01*
X137886358Y-90028367D01*
X137850089Y-89965664D01*
X137826412Y-89866883D01*
X137836684Y-89767628D01*
X137879569Y-89676371D01*
X137953729Y-89601584D01*
X137976944Y-89586083D01*
X138003256Y-89573226D01*
X138036420Y-89564107D01*
X138082881Y-89557898D01*
X138149082Y-89553767D01*
X138241468Y-89550884D01*
X138366485Y-89548421D01*
X138713278Y-89542303D01*
X138693738Y-89593697D01*
G36*
X138285105Y-87297865D02*
G01*
X138379584Y-87298924D01*
X138445414Y-87302564D01*
X138491394Y-87310108D01*
X138526321Y-87322878D01*
X138558995Y-87342197D01*
X138565775Y-87346950D01*
X138619231Y-87397241D01*
X138659547Y-87454543D01*
X138672629Y-87483968D01*
X138694450Y-87589701D01*
X138680336Y-87694266D01*
X138632105Y-87790632D01*
X138551579Y-87871765D01*
X138540791Y-87878615D01*
X138478153Y-87900903D01*
X138390935Y-87915921D01*
X138290210Y-87923208D01*
X138187052Y-87922301D01*
X138092533Y-87912738D01*
X138017727Y-87894057D01*
X137967905Y-87870049D01*
X137890409Y-87802464D01*
X137842256Y-87710886D01*
X137826727Y-87605720D01*
X138009923Y-87605720D01*
X138011432Y-87623984D01*
X138039107Y-87675152D01*
X138101172Y-87708965D01*
X138197037Y-87725204D01*
X138326114Y-87723651D01*
X138334420Y-87723026D01*
X138405643Y-87713923D01*
X138450809Y-87697712D01*
X138481752Y-87670340D01*
X138510737Y-87624447D01*
X138512261Y-87579058D01*
X138478846Y-87532308D01*
X138470053Y-87524176D01*
X138443741Y-87508246D01*
X138405520Y-87498841D01*
X138346349Y-87494368D01*
X138257182Y-87493231D01*
X138173664Y-87495178D01*
X138094095Y-87504895D01*
X138043808Y-87524953D01*
X138017513Y-87557760D01*
X138009923Y-87605720D01*
X137826727Y-87605720D01*
X137825703Y-87598787D01*
X137826599Y-87568849D01*
X137844929Y-87480685D01*
X137891104Y-87408267D01*
X137970648Y-87341808D01*
X137976548Y-87337853D01*
X138008288Y-87319960D01*
X138044163Y-87308322D01*
X138092906Y-87301629D01*
X138163249Y-87298574D01*
X138257182Y-87297894D01*
X138263923Y-87297846D01*
X138285105Y-87297865D01*
G37*
X138285105Y-87297865D02*
X138379584Y-87298924D01*
X138445414Y-87302564D01*
X138491394Y-87310108D01*
X138526321Y-87322878D01*
X138558995Y-87342197D01*
X138565775Y-87346950D01*
X138619231Y-87397241D01*
X138659547Y-87454543D01*
X138672629Y-87483968D01*
X138694450Y-87589701D01*
X138680336Y-87694266D01*
X138632105Y-87790632D01*
X138551579Y-87871765D01*
X138540791Y-87878615D01*
X138478153Y-87900903D01*
X138390935Y-87915921D01*
X138290210Y-87923208D01*
X138187052Y-87922301D01*
X138092533Y-87912738D01*
X138017727Y-87894057D01*
X137967905Y-87870049D01*
X137890409Y-87802464D01*
X137842256Y-87710886D01*
X137826727Y-87605720D01*
X138009923Y-87605720D01*
X138011432Y-87623984D01*
X138039107Y-87675152D01*
X138101172Y-87708965D01*
X138197037Y-87725204D01*
X138326114Y-87723651D01*
X138334420Y-87723026D01*
X138405643Y-87713923D01*
X138450809Y-87697712D01*
X138481752Y-87670340D01*
X138510737Y-87624447D01*
X138512261Y-87579058D01*
X138478846Y-87532308D01*
X138470053Y-87524176D01*
X138443741Y-87508246D01*
X138405520Y-87498841D01*
X138346349Y-87494368D01*
X138257182Y-87493231D01*
X138173664Y-87495178D01*
X138094095Y-87504895D01*
X138043808Y-87524953D01*
X138017513Y-87557760D01*
X138009923Y-87605720D01*
X137826727Y-87605720D01*
X137825703Y-87598787D01*
X137826599Y-87568849D01*
X137844929Y-87480685D01*
X137891104Y-87408267D01*
X137970648Y-87341808D01*
X137976548Y-87337853D01*
X138008288Y-87319960D01*
X138044163Y-87308322D01*
X138092906Y-87301629D01*
X138163249Y-87298574D01*
X138257182Y-87297894D01*
X138263923Y-87297846D01*
X138285105Y-87297865D01*
G36*
X138356643Y-88789426D02*
G01*
X138388021Y-88792934D01*
X138499705Y-88819073D01*
X138584642Y-88866306D01*
X138649741Y-88938138D01*
X138652428Y-88942198D01*
X138690634Y-89033513D01*
X138694034Y-89128856D01*
X138664939Y-89220726D01*
X138605660Y-89301621D01*
X138518510Y-89364038D01*
X138516409Y-89365086D01*
X138462289Y-89385827D01*
X138400781Y-89401020D01*
X138343039Y-89409079D01*
X138300215Y-89408418D01*
X138283462Y-89397452D01*
X138284480Y-89387710D01*
X138303009Y-89341123D01*
X138337081Y-89288318D01*
X138376522Y-89243397D01*
X138411155Y-89220465D01*
X138458133Y-89196627D01*
X138500862Y-89147770D01*
X138517923Y-89091037D01*
X138512990Y-89070242D01*
X138488157Y-89029196D01*
X138453685Y-88993443D01*
X138422411Y-88978154D01*
X138422295Y-88978158D01*
X138407933Y-88995505D01*
X138382025Y-89041753D01*
X138348210Y-89109933D01*
X138310129Y-89193077D01*
X138309927Y-89193534D01*
X138269709Y-89283862D01*
X138240733Y-89344408D01*
X138218474Y-89381112D01*
X138198407Y-89399914D01*
X138176009Y-89406754D01*
X138146756Y-89407571D01*
X138076654Y-89400378D01*
X137981412Y-89364816D01*
X137906567Y-89305286D01*
X137854745Y-89228254D01*
X137828573Y-89140185D01*
X137830071Y-89074177D01*
X138011856Y-89074177D01*
X138014406Y-89130819D01*
X138049120Y-89183416D01*
X138073107Y-89204090D01*
X138091363Y-89209000D01*
X138108777Y-89189089D01*
X138134872Y-89139479D01*
X138135610Y-89138024D01*
X138163483Y-89079494D01*
X138185719Y-89027132D01*
X138195126Y-88993914D01*
X138182552Y-88980590D01*
X138139468Y-88978154D01*
X138085847Y-88988276D01*
X138037119Y-89023369D01*
X138011856Y-89074177D01*
X137830071Y-89074177D01*
X137830676Y-89047546D01*
X137863681Y-88956802D01*
X137930215Y-88874421D01*
X137996055Y-88828778D01*
X138090036Y-88795992D01*
X138139468Y-88790661D01*
X138208536Y-88783213D01*
X138356643Y-88789426D01*
G37*
X138356643Y-88789426D02*
X138388021Y-88792934D01*
X138499705Y-88819073D01*
X138584642Y-88866306D01*
X138649741Y-88938138D01*
X138652428Y-88942198D01*
X138690634Y-89033513D01*
X138694034Y-89128856D01*
X138664939Y-89220726D01*
X138605660Y-89301621D01*
X138518510Y-89364038D01*
X138516409Y-89365086D01*
X138462289Y-89385827D01*
X138400781Y-89401020D01*
X138343039Y-89409079D01*
X138300215Y-89408418D01*
X138283462Y-89397452D01*
X138284480Y-89387710D01*
X138303009Y-89341123D01*
X138337081Y-89288318D01*
X138376522Y-89243397D01*
X138411155Y-89220465D01*
X138458133Y-89196627D01*
X138500862Y-89147770D01*
X138517923Y-89091037D01*
X138512990Y-89070242D01*
X138488157Y-89029196D01*
X138453685Y-88993443D01*
X138422411Y-88978154D01*
X138422295Y-88978158D01*
X138407933Y-88995505D01*
X138382025Y-89041753D01*
X138348210Y-89109933D01*
X138310129Y-89193077D01*
X138309927Y-89193534D01*
X138269709Y-89283862D01*
X138240733Y-89344408D01*
X138218474Y-89381112D01*
X138198407Y-89399914D01*
X138176009Y-89406754D01*
X138146756Y-89407571D01*
X138076654Y-89400378D01*
X137981412Y-89364816D01*
X137906567Y-89305286D01*
X137854745Y-89228254D01*
X137828573Y-89140185D01*
X137830071Y-89074177D01*
X138011856Y-89074177D01*
X138014406Y-89130819D01*
X138049120Y-89183416D01*
X138073107Y-89204090D01*
X138091363Y-89209000D01*
X138108777Y-89189089D01*
X138134872Y-89139479D01*
X138135610Y-89138024D01*
X138163483Y-89079494D01*
X138185719Y-89027132D01*
X138195126Y-88993914D01*
X138182552Y-88980590D01*
X138139468Y-88978154D01*
X138085847Y-88988276D01*
X138037119Y-89023369D01*
X138011856Y-89074177D01*
X137830071Y-89074177D01*
X137830676Y-89047546D01*
X137863681Y-88956802D01*
X137930215Y-88874421D01*
X137996055Y-88828778D01*
X138090036Y-88795992D01*
X138139468Y-88790661D01*
X138208536Y-88783213D01*
X138356643Y-88789426D01*
G36*
X138310094Y-90717340D02*
G01*
X138434805Y-90718042D01*
X138540557Y-90719117D01*
X138622322Y-90720500D01*
X138675069Y-90722126D01*
X138693769Y-90723930D01*
X138693706Y-90724636D01*
X138686912Y-90748613D01*
X138672320Y-90792315D01*
X138650870Y-90853846D01*
X138375617Y-90853846D01*
X138267466Y-90854237D01*
X138189026Y-90856054D01*
X138135647Y-90860233D01*
X138100256Y-90867714D01*
X138075779Y-90879433D01*
X138055144Y-90896329D01*
X138044170Y-90907848D01*
X138013775Y-90970136D01*
X138016466Y-91038789D01*
X138052406Y-91101702D01*
X138061325Y-91110861D01*
X138079844Y-91125529D01*
X138104326Y-91135567D01*
X138141393Y-91141849D01*
X138197667Y-91145252D01*
X138279771Y-91146651D01*
X138394329Y-91146923D01*
X138452430Y-91147053D01*
X138547993Y-91147901D01*
X138624526Y-91149406D01*
X138675345Y-91151415D01*
X138693769Y-91153777D01*
X138693706Y-91154482D01*
X138686912Y-91178459D01*
X138672320Y-91222161D01*
X138650870Y-91283692D01*
X138374358Y-91283662D01*
X138349742Y-91283616D01*
X138221419Y-91281030D01*
X138124384Y-91273087D01*
X138052057Y-91257845D01*
X137997855Y-91233364D01*
X137955198Y-91197702D01*
X137917505Y-91148918D01*
X137893910Y-91101339D01*
X137875672Y-91025268D01*
X137874636Y-90950444D01*
X137892378Y-90892923D01*
X137894829Y-90888598D01*
X137894566Y-90875262D01*
X137874039Y-90866149D01*
X137826980Y-90859572D01*
X137747120Y-90853846D01*
X137583236Y-90844077D01*
X137636806Y-90717077D01*
X138171455Y-90717077D01*
X138310094Y-90717340D01*
G37*
X138310094Y-90717340D02*
X138434805Y-90718042D01*
X138540557Y-90719117D01*
X138622322Y-90720500D01*
X138675069Y-90722126D01*
X138693769Y-90723930D01*
X138693706Y-90724636D01*
X138686912Y-90748613D01*
X138672320Y-90792315D01*
X138650870Y-90853846D01*
X138375617Y-90853846D01*
X138267466Y-90854237D01*
X138189026Y-90856054D01*
X138135647Y-90860233D01*
X138100256Y-90867714D01*
X138075779Y-90879433D01*
X138055144Y-90896329D01*
X138044170Y-90907848D01*
X138013775Y-90970136D01*
X138016466Y-91038789D01*
X138052406Y-91101702D01*
X138061325Y-91110861D01*
X138079844Y-91125529D01*
X138104326Y-91135567D01*
X138141393Y-91141849D01*
X138197667Y-91145252D01*
X138279771Y-91146651D01*
X138394329Y-91146923D01*
X138452430Y-91147053D01*
X138547993Y-91147901D01*
X138624526Y-91149406D01*
X138675345Y-91151415D01*
X138693769Y-91153777D01*
X138693706Y-91154482D01*
X138686912Y-91178459D01*
X138672320Y-91222161D01*
X138650870Y-91283692D01*
X138374358Y-91283662D01*
X138349742Y-91283616D01*
X138221419Y-91281030D01*
X138124384Y-91273087D01*
X138052057Y-91257845D01*
X137997855Y-91233364D01*
X137955198Y-91197702D01*
X137917505Y-91148918D01*
X137893910Y-91101339D01*
X137875672Y-91025268D01*
X137874636Y-90950444D01*
X137892378Y-90892923D01*
X137894829Y-90888598D01*
X137894566Y-90875262D01*
X137874039Y-90866149D01*
X137826980Y-90859572D01*
X137747120Y-90853846D01*
X137583236Y-90844077D01*
X137636806Y-90717077D01*
X138171455Y-90717077D01*
X138310094Y-90717340D01*
G36*
X138196518Y-91463809D02*
G01*
X138169837Y-91507300D01*
X138114446Y-91541574D01*
X138103024Y-91545093D01*
X138044838Y-91582972D01*
X138013407Y-91640064D01*
X138012058Y-91705617D01*
X138044116Y-91768883D01*
X138052383Y-91778328D01*
X138088311Y-91809913D01*
X138119635Y-91815129D01*
X138150391Y-91791235D01*
X138184617Y-91735490D01*
X138226350Y-91645154D01*
X138228993Y-91639044D01*
X138275755Y-91538759D01*
X138317181Y-91470265D01*
X138358542Y-91428101D01*
X138405111Y-91406807D01*
X138462160Y-91400923D01*
X138525408Y-91408634D01*
X138606364Y-91447570D01*
X138664522Y-91516068D01*
X138681983Y-91565612D01*
X138691537Y-91635531D01*
X138689496Y-91703425D01*
X138675082Y-91751907D01*
X138671493Y-91757057D01*
X138646416Y-91770733D01*
X138602218Y-91761243D01*
X138567527Y-91744754D01*
X138553084Y-91718313D01*
X138553803Y-91668166D01*
X138549660Y-91598547D01*
X138521054Y-91553057D01*
X138468104Y-91537692D01*
X138466582Y-91537706D01*
X138435845Y-91547017D01*
X138407643Y-91578689D01*
X138375136Y-91640269D01*
X138335998Y-91724014D01*
X138314706Y-91779482D01*
X138316079Y-91811503D01*
X138344203Y-91826466D01*
X138403170Y-91830758D01*
X138497068Y-91830769D01*
X138555031Y-91831248D01*
X138626612Y-91833444D01*
X138675606Y-91837014D01*
X138693769Y-91841509D01*
X138693646Y-91842710D01*
X138683802Y-91868681D01*
X138663028Y-91911695D01*
X138632287Y-91971141D01*
X138355298Y-91964077D01*
X138336928Y-91963586D01*
X138207992Y-91957975D01*
X138110814Y-91948062D01*
X138038925Y-91931825D01*
X137985852Y-91907241D01*
X137945127Y-91872285D01*
X137910279Y-91824936D01*
X137909733Y-91824060D01*
X137881303Y-91747501D01*
X137876500Y-91658956D01*
X137894228Y-91573542D01*
X137933389Y-91506378D01*
X137963902Y-91476831D01*
X138055110Y-91420052D01*
X138154548Y-91400923D01*
X138222960Y-91400923D01*
X138196518Y-91463809D01*
G37*
X138196518Y-91463809D02*
X138169837Y-91507300D01*
X138114446Y-91541574D01*
X138103024Y-91545093D01*
X138044838Y-91582972D01*
X138013407Y-91640064D01*
X138012058Y-91705617D01*
X138044116Y-91768883D01*
X138052383Y-91778328D01*
X138088311Y-91809913D01*
X138119635Y-91815129D01*
X138150391Y-91791235D01*
X138184617Y-91735490D01*
X138226350Y-91645154D01*
X138228993Y-91639044D01*
X138275755Y-91538759D01*
X138317181Y-91470265D01*
X138358542Y-91428101D01*
X138405111Y-91406807D01*
X138462160Y-91400923D01*
X138525408Y-91408634D01*
X138606364Y-91447570D01*
X138664522Y-91516068D01*
X138681983Y-91565612D01*
X138691537Y-91635531D01*
X138689496Y-91703425D01*
X138675082Y-91751907D01*
X138671493Y-91757057D01*
X138646416Y-91770733D01*
X138602218Y-91761243D01*
X138567527Y-91744754D01*
X138553084Y-91718313D01*
X138553803Y-91668166D01*
X138549660Y-91598547D01*
X138521054Y-91553057D01*
X138468104Y-91537692D01*
X138466582Y-91537706D01*
X138435845Y-91547017D01*
X138407643Y-91578689D01*
X138375136Y-91640269D01*
X138335998Y-91724014D01*
X138314706Y-91779482D01*
X138316079Y-91811503D01*
X138344203Y-91826466D01*
X138403170Y-91830758D01*
X138497068Y-91830769D01*
X138555031Y-91831248D01*
X138626612Y-91833444D01*
X138675606Y-91837014D01*
X138693769Y-91841509D01*
X138693646Y-91842710D01*
X138683802Y-91868681D01*
X138663028Y-91911695D01*
X138632287Y-91971141D01*
X138355298Y-91964077D01*
X138336928Y-91963586D01*
X138207992Y-91957975D01*
X138110814Y-91948062D01*
X138038925Y-91931825D01*
X137985852Y-91907241D01*
X137945127Y-91872285D01*
X137910279Y-91824936D01*
X137909733Y-91824060D01*
X137881303Y-91747501D01*
X137876500Y-91658956D01*
X137894228Y-91573542D01*
X137933389Y-91506378D01*
X137963902Y-91476831D01*
X138055110Y-91420052D01*
X138154548Y-91400923D01*
X138222960Y-91400923D01*
X138196518Y-91463809D01*
G36*
X138620296Y-92068239D02*
G01*
X138675507Y-92073395D01*
X138693769Y-92081842D01*
X138688301Y-92107406D01*
X138671733Y-92150834D01*
X138666888Y-92161060D01*
X138655920Y-92177033D01*
X138637890Y-92188046D01*
X138606396Y-92195250D01*
X138555036Y-92199792D01*
X138477410Y-92202820D01*
X138367115Y-92205484D01*
X138334875Y-92206215D01*
X138233050Y-92209035D01*
X138161788Y-92212696D01*
X138114332Y-92218306D01*
X138083925Y-92226971D01*
X138063810Y-92239798D01*
X138047229Y-92257895D01*
X138018161Y-92311475D01*
X138012564Y-92377388D01*
X138034807Y-92436365D01*
X138080859Y-92478797D01*
X138146692Y-92495077D01*
X138164587Y-92495530D01*
X138196982Y-92504422D01*
X138201925Y-92530675D01*
X138182633Y-92582081D01*
X138176446Y-92593987D01*
X138140058Y-92626165D01*
X138085954Y-92626802D01*
X138011128Y-92596144D01*
X137970350Y-92568022D01*
X137912421Y-92496117D01*
X137879670Y-92407362D01*
X137875212Y-92312458D01*
X137902167Y-92222108D01*
X137905581Y-92215940D01*
X137944692Y-92165553D01*
X137994975Y-92120502D01*
X138006339Y-92112645D01*
X138032860Y-92097624D01*
X138064336Y-92086893D01*
X138107591Y-92079514D01*
X138169449Y-92074548D01*
X138256733Y-92071058D01*
X138376269Y-92068107D01*
X138396478Y-92067689D01*
X138527499Y-92066346D01*
X138620296Y-92068239D01*
G37*
X138620296Y-92068239D02*
X138675507Y-92073395D01*
X138693769Y-92081842D01*
X138688301Y-92107406D01*
X138671733Y-92150834D01*
X138666888Y-92161060D01*
X138655920Y-92177033D01*
X138637890Y-92188046D01*
X138606396Y-92195250D01*
X138555036Y-92199792D01*
X138477410Y-92202820D01*
X138367115Y-92205484D01*
X138334875Y-92206215D01*
X138233050Y-92209035D01*
X138161788Y-92212696D01*
X138114332Y-92218306D01*
X138083925Y-92226971D01*
X138063810Y-92239798D01*
X138047229Y-92257895D01*
X138018161Y-92311475D01*
X138012564Y-92377388D01*
X138034807Y-92436365D01*
X138080859Y-92478797D01*
X138146692Y-92495077D01*
X138164587Y-92495530D01*
X138196982Y-92504422D01*
X138201925Y-92530675D01*
X138182633Y-92582081D01*
X138176446Y-92593987D01*
X138140058Y-92626165D01*
X138085954Y-92626802D01*
X138011128Y-92596144D01*
X137970350Y-92568022D01*
X137912421Y-92496117D01*
X137879670Y-92407362D01*
X137875212Y-92312458D01*
X137902167Y-92222108D01*
X137905581Y-92215940D01*
X137944692Y-92165553D01*
X137994975Y-92120502D01*
X138006339Y-92112645D01*
X138032860Y-92097624D01*
X138064336Y-92086893D01*
X138107591Y-92079514D01*
X138169449Y-92074548D01*
X138256733Y-92071058D01*
X138376269Y-92068107D01*
X138396478Y-92067689D01*
X138527499Y-92066346D01*
X138620296Y-92068239D01*
G36*
X138359652Y-92731161D02*
G01*
X138463507Y-92742190D01*
X138541333Y-92766186D01*
X138600760Y-92805957D01*
X138649418Y-92864312D01*
X138677546Y-92919900D01*
X138693199Y-93013249D01*
X138676084Y-93106470D01*
X138628388Y-93190728D01*
X138552294Y-93257182D01*
X138538262Y-93265207D01*
X138513679Y-93275804D01*
X138482309Y-93283665D01*
X138438769Y-93289193D01*
X138377678Y-93292794D01*
X138293655Y-93294872D01*
X138181320Y-93295833D01*
X138035289Y-93296081D01*
X137581963Y-93296154D01*
X137608564Y-93232654D01*
X137615845Y-93215864D01*
X137632287Y-93189141D01*
X137657187Y-93173844D01*
X137700732Y-93165437D01*
X137773106Y-93159385D01*
X137838089Y-93153856D01*
X137880750Y-93146550D01*
X137896670Y-93136082D01*
X137892400Y-93120308D01*
X137877397Y-93080110D01*
X137873678Y-93008272D01*
X137877088Y-92989301D01*
X138013057Y-92989301D01*
X138017575Y-93057600D01*
X138055144Y-93116902D01*
X138070040Y-93129667D01*
X138098089Y-93145236D01*
X138137258Y-93154238D01*
X138196858Y-93158383D01*
X138286200Y-93159385D01*
X138357316Y-93158923D01*
X138421641Y-93156001D01*
X138463166Y-93148779D01*
X138491067Y-93135439D01*
X138514517Y-93114164D01*
X138519025Y-93109179D01*
X138552295Y-93045137D01*
X138548890Y-92977375D01*
X138509042Y-92914266D01*
X138488398Y-92895474D01*
X138461029Y-92879746D01*
X138423192Y-92870961D01*
X138365355Y-92867141D01*
X138277986Y-92866308D01*
X138211319Y-92866719D01*
X138146245Y-92869566D01*
X138104251Y-92876744D01*
X138076063Y-92890111D01*
X138052406Y-92911528D01*
X138041753Y-92924110D01*
X138013057Y-92989301D01*
X137877088Y-92989301D01*
X137887572Y-92930990D01*
X137917505Y-92864312D01*
X137945211Y-92827629D01*
X137999269Y-92780528D01*
X138068577Y-92750362D01*
X138160765Y-92734322D01*
X138277986Y-92729809D01*
X138283462Y-92729599D01*
X138359652Y-92731161D01*
G37*
X138359652Y-92731161D02*
X138463507Y-92742190D01*
X138541333Y-92766186D01*
X138600760Y-92805957D01*
X138649418Y-92864312D01*
X138677546Y-92919900D01*
X138693199Y-93013249D01*
X138676084Y-93106470D01*
X138628388Y-93190728D01*
X138552294Y-93257182D01*
X138538262Y-93265207D01*
X138513679Y-93275804D01*
X138482309Y-93283665D01*
X138438769Y-93289193D01*
X138377678Y-93292794D01*
X138293655Y-93294872D01*
X138181320Y-93295833D01*
X138035289Y-93296081D01*
X137581963Y-93296154D01*
X137608564Y-93232654D01*
X137615845Y-93215864D01*
X137632287Y-93189141D01*
X137657187Y-93173844D01*
X137700732Y-93165437D01*
X137773106Y-93159385D01*
X137838089Y-93153856D01*
X137880750Y-93146550D01*
X137896670Y-93136082D01*
X137892400Y-93120308D01*
X137877397Y-93080110D01*
X137873678Y-93008272D01*
X137877088Y-92989301D01*
X138013057Y-92989301D01*
X138017575Y-93057600D01*
X138055144Y-93116902D01*
X138070040Y-93129667D01*
X138098089Y-93145236D01*
X138137258Y-93154238D01*
X138196858Y-93158383D01*
X138286200Y-93159385D01*
X138357316Y-93158923D01*
X138421641Y-93156001D01*
X138463166Y-93148779D01*
X138491067Y-93135439D01*
X138514517Y-93114164D01*
X138519025Y-93109179D01*
X138552295Y-93045137D01*
X138548890Y-92977375D01*
X138509042Y-92914266D01*
X138488398Y-92895474D01*
X138461029Y-92879746D01*
X138423192Y-92870961D01*
X138365355Y-92867141D01*
X138277986Y-92866308D01*
X138211319Y-92866719D01*
X138146245Y-92869566D01*
X138104251Y-92876744D01*
X138076063Y-92890111D01*
X138052406Y-92911528D01*
X138041753Y-92924110D01*
X138013057Y-92989301D01*
X137877088Y-92989301D01*
X137887572Y-92930990D01*
X137917505Y-92864312D01*
X137945211Y-92827629D01*
X137999269Y-92780528D01*
X138068577Y-92750362D01*
X138160765Y-92734322D01*
X138277986Y-92729809D01*
X138283462Y-92729599D01*
X138359652Y-92731161D01*
G36*
X138635363Y-93475215D02*
G01*
X138649228Y-93489338D01*
X138680046Y-93528464D01*
X138690028Y-93567922D01*
X138685433Y-93626638D01*
X138682462Y-93650544D01*
X138676176Y-93712199D01*
X138673672Y-93755308D01*
X138674055Y-93768095D01*
X138678200Y-93820554D01*
X138685433Y-93883978D01*
X138687918Y-93904270D01*
X138688895Y-93955390D01*
X138673462Y-93992793D01*
X138635363Y-94035401D01*
X138573533Y-94097231D01*
X138223343Y-94097231D01*
X138119857Y-94096749D01*
X138021192Y-94095247D01*
X137943068Y-94092911D01*
X137891662Y-94089929D01*
X137873154Y-94086491D01*
X137873204Y-94085770D01*
X137882413Y-94060797D01*
X137902707Y-94018601D01*
X137932261Y-93961451D01*
X138239746Y-93956072D01*
X138547231Y-93950692D01*
X138547231Y-93833461D01*
X138210192Y-93828115D01*
X138118574Y-93826421D01*
X138020649Y-93823995D01*
X137942906Y-93821366D01*
X137891642Y-93818754D01*
X137873154Y-93816377D01*
X137873219Y-93815694D01*
X137880020Y-93792004D01*
X137894604Y-93748454D01*
X137916054Y-93686923D01*
X138212104Y-93686624D01*
X138263532Y-93686324D01*
X138363466Y-93684246D01*
X138446925Y-93680530D01*
X138506377Y-93675570D01*
X138534287Y-93669760D01*
X138549214Y-93648976D01*
X138553825Y-93606560D01*
X138547231Y-93559923D01*
X138210192Y-93554577D01*
X138124546Y-93552664D01*
X138023172Y-93548697D01*
X137943655Y-93543509D01*
X137891736Y-93537501D01*
X137873154Y-93531073D01*
X137879034Y-93506002D01*
X137895829Y-93463150D01*
X137918503Y-93413385D01*
X138573533Y-93413385D01*
X138635363Y-93475215D01*
G37*
X138635363Y-93475215D02*
X138649228Y-93489338D01*
X138680046Y-93528464D01*
X138690028Y-93567922D01*
X138685433Y-93626638D01*
X138682462Y-93650544D01*
X138676176Y-93712199D01*
X138673672Y-93755308D01*
X138674055Y-93768095D01*
X138678200Y-93820554D01*
X138685433Y-93883978D01*
X138687918Y-93904270D01*
X138688895Y-93955390D01*
X138673462Y-93992793D01*
X138635363Y-94035401D01*
X138573533Y-94097231D01*
X138223343Y-94097231D01*
X138119857Y-94096749D01*
X138021192Y-94095247D01*
X137943068Y-94092911D01*
X137891662Y-94089929D01*
X137873154Y-94086491D01*
X137873204Y-94085770D01*
X137882413Y-94060797D01*
X137902707Y-94018601D01*
X137932261Y-93961451D01*
X138239746Y-93956072D01*
X138547231Y-93950692D01*
X138547231Y-93833461D01*
X138210192Y-93828115D01*
X138118574Y-93826421D01*
X138020649Y-93823995D01*
X137942906Y-93821366D01*
X137891642Y-93818754D01*
X137873154Y-93816377D01*
X137873219Y-93815694D01*
X137880020Y-93792004D01*
X137894604Y-93748454D01*
X137916054Y-93686923D01*
X138212104Y-93686624D01*
X138263532Y-93686324D01*
X138363466Y-93684246D01*
X138446925Y-93680530D01*
X138506377Y-93675570D01*
X138534287Y-93669760D01*
X138549214Y-93648976D01*
X138553825Y-93606560D01*
X138547231Y-93559923D01*
X138210192Y-93554577D01*
X138124546Y-93552664D01*
X138023172Y-93548697D01*
X137943655Y-93543509D01*
X137891736Y-93537501D01*
X137873154Y-93531073D01*
X137879034Y-93506002D01*
X137895829Y-93463150D01*
X137918503Y-93413385D01*
X138573533Y-93413385D01*
X138635363Y-93475215D01*
G36*
X138512670Y-94215690D02*
G01*
X138587868Y-94248429D01*
X138649131Y-94310159D01*
X138675210Y-94360142D01*
X138693470Y-94456697D01*
X138691007Y-94510353D01*
X138677687Y-94560024D01*
X138649739Y-94579081D01*
X138603710Y-94571955D01*
X138597624Y-94569882D01*
X138565349Y-94553444D01*
X138553133Y-94526074D01*
X138553950Y-94473932D01*
X138555061Y-94437116D01*
X138545528Y-94394039D01*
X138517026Y-94364525D01*
X138481935Y-94347714D01*
X138445175Y-94345839D01*
X138444961Y-94345926D01*
X138425098Y-94367721D01*
X138396192Y-94414368D01*
X138363886Y-94474722D01*
X138333823Y-94537640D01*
X138311646Y-94591977D01*
X138303000Y-94626590D01*
X138311467Y-94631740D01*
X138351309Y-94638222D01*
X138416371Y-94642661D01*
X138498385Y-94644308D01*
X138555153Y-94644691D01*
X138626648Y-94646495D01*
X138675610Y-94649442D01*
X138693769Y-94653157D01*
X138687667Y-94672576D01*
X138671095Y-94711773D01*
X138648420Y-94761538D01*
X138357509Y-94761538D01*
X138282940Y-94761220D01*
X138169701Y-94758211D01*
X138085692Y-94750546D01*
X138024520Y-94736438D01*
X137979795Y-94714101D01*
X137945124Y-94681747D01*
X137914117Y-94637590D01*
X137888528Y-94581333D01*
X137873154Y-94477460D01*
X137874911Y-94430064D01*
X137885547Y-94388193D01*
X137912062Y-94349209D01*
X137961420Y-94299035D01*
X137996279Y-94266768D01*
X138041534Y-94233156D01*
X138083951Y-94217997D01*
X138137768Y-94214461D01*
X138225850Y-94214461D01*
X138194787Y-94274530D01*
X138156936Y-94322133D01*
X138105950Y-94354739D01*
X138092088Y-94360339D01*
X138038358Y-94403008D01*
X138011417Y-94462293D01*
X138014039Y-94526939D01*
X138049000Y-94585692D01*
X138077394Y-94610550D01*
X138113718Y-94625030D01*
X138146046Y-94609530D01*
X138178565Y-94561333D01*
X138215461Y-94477726D01*
X138220557Y-94465038D01*
X138253907Y-94388922D01*
X138286793Y-94323604D01*
X138312769Y-94282047D01*
X138359167Y-94240424D01*
X138433211Y-94212753D01*
X138512670Y-94215690D01*
G37*
X138512670Y-94215690D02*
X138587868Y-94248429D01*
X138649131Y-94310159D01*
X138675210Y-94360142D01*
X138693470Y-94456697D01*
X138691007Y-94510353D01*
X138677687Y-94560024D01*
X138649739Y-94579081D01*
X138603710Y-94571955D01*
X138597624Y-94569882D01*
X138565349Y-94553444D01*
X138553133Y-94526074D01*
X138553950Y-94473932D01*
X138555061Y-94437116D01*
X138545528Y-94394039D01*
X138517026Y-94364525D01*
X138481935Y-94347714D01*
X138445175Y-94345839D01*
X138444961Y-94345926D01*
X138425098Y-94367721D01*
X138396192Y-94414368D01*
X138363886Y-94474722D01*
X138333823Y-94537640D01*
X138311646Y-94591977D01*
X138303000Y-94626590D01*
X138311467Y-94631740D01*
X138351309Y-94638222D01*
X138416371Y-94642661D01*
X138498385Y-94644308D01*
X138555153Y-94644691D01*
X138626648Y-94646495D01*
X138675610Y-94649442D01*
X138693769Y-94653157D01*
X138687667Y-94672576D01*
X138671095Y-94711773D01*
X138648420Y-94761538D01*
X138357509Y-94761538D01*
X138282940Y-94761220D01*
X138169701Y-94758211D01*
X138085692Y-94750546D01*
X138024520Y-94736438D01*
X137979795Y-94714101D01*
X137945124Y-94681747D01*
X137914117Y-94637590D01*
X137888528Y-94581333D01*
X137873154Y-94477460D01*
X137874911Y-94430064D01*
X137885547Y-94388193D01*
X137912062Y-94349209D01*
X137961420Y-94299035D01*
X137996279Y-94266768D01*
X138041534Y-94233156D01*
X138083951Y-94217997D01*
X138137768Y-94214461D01*
X138225850Y-94214461D01*
X138194787Y-94274530D01*
X138156936Y-94322133D01*
X138105950Y-94354739D01*
X138092088Y-94360339D01*
X138038358Y-94403008D01*
X138011417Y-94462293D01*
X138014039Y-94526939D01*
X138049000Y-94585692D01*
X138077394Y-94610550D01*
X138113718Y-94625030D01*
X138146046Y-94609530D01*
X138178565Y-94561333D01*
X138215461Y-94477726D01*
X138220557Y-94465038D01*
X138253907Y-94388922D01*
X138286793Y-94323604D01*
X138312769Y-94282047D01*
X138359167Y-94240424D01*
X138433211Y-94212753D01*
X138512670Y-94215690D01*
G36*
X138450805Y-94878997D02*
G01*
X138547308Y-94880140D01*
X138624323Y-94882081D01*
X138675319Y-94884635D01*
X138693769Y-94887619D01*
X138687667Y-94907038D01*
X138671095Y-94946234D01*
X138670558Y-94947411D01*
X138659903Y-94967765D01*
X138645282Y-94981454D01*
X138619673Y-94989801D01*
X138576054Y-94994126D01*
X138507403Y-94995752D01*
X138406698Y-94996000D01*
X138342813Y-94996500D01*
X138222751Y-95001836D01*
X138134809Y-95014055D01*
X138074375Y-95034448D01*
X138036836Y-95064305D01*
X138017581Y-95104918D01*
X138016239Y-95110552D01*
X138015191Y-95186622D01*
X138049271Y-95245948D01*
X138117598Y-95286923D01*
X138137351Y-95294230D01*
X138181066Y-95310886D01*
X138201155Y-95319321D01*
X138198387Y-95336644D01*
X138183365Y-95374475D01*
X138158556Y-95409760D01*
X138111670Y-95425846D01*
X138078087Y-95421048D01*
X138009967Y-95391569D01*
X137946134Y-95343902D01*
X137901988Y-95288161D01*
X137891782Y-95264807D01*
X137874718Y-95176381D01*
X137881476Y-95082499D01*
X137911440Y-95001833D01*
X137933954Y-94968286D01*
X137966212Y-94934313D01*
X138007246Y-94910081D01*
X138063108Y-94893999D01*
X138139851Y-94884479D01*
X138243525Y-94879932D01*
X138380184Y-94878769D01*
X138450805Y-94878997D01*
G37*
X138450805Y-94878997D02*
X138547308Y-94880140D01*
X138624323Y-94882081D01*
X138675319Y-94884635D01*
X138693769Y-94887619D01*
X138687667Y-94907038D01*
X138671095Y-94946234D01*
X138670558Y-94947411D01*
X138659903Y-94967765D01*
X138645282Y-94981454D01*
X138619673Y-94989801D01*
X138576054Y-94994126D01*
X138507403Y-94995752D01*
X138406698Y-94996000D01*
X138342813Y-94996500D01*
X138222751Y-95001836D01*
X138134809Y-95014055D01*
X138074375Y-95034448D01*
X138036836Y-95064305D01*
X138017581Y-95104918D01*
X138016239Y-95110552D01*
X138015191Y-95186622D01*
X138049271Y-95245948D01*
X138117598Y-95286923D01*
X138137351Y-95294230D01*
X138181066Y-95310886D01*
X138201155Y-95319321D01*
X138198387Y-95336644D01*
X138183365Y-95374475D01*
X138158556Y-95409760D01*
X138111670Y-95425846D01*
X138078087Y-95421048D01*
X138009967Y-95391569D01*
X137946134Y-95343902D01*
X137901988Y-95288161D01*
X137891782Y-95264807D01*
X137874718Y-95176381D01*
X137881476Y-95082499D01*
X137911440Y-95001833D01*
X137933954Y-94968286D01*
X137966212Y-94934313D01*
X138007246Y-94910081D01*
X138063108Y-94893999D01*
X138139851Y-94884479D01*
X138243525Y-94879932D01*
X138380184Y-94878769D01*
X138450805Y-94878997D01*
G36*
X138339449Y-95543587D02*
G01*
X138442047Y-95548359D01*
X138517126Y-95560850D01*
X138572748Y-95583879D01*
X138616975Y-95620268D01*
X138657869Y-95672838D01*
X138676466Y-95706286D01*
X138688991Y-95759902D01*
X138688003Y-95835220D01*
X138684035Y-95877328D01*
X138671920Y-95928121D01*
X138645585Y-95968720D01*
X138596514Y-96015951D01*
X138589346Y-96022262D01*
X138534189Y-96064723D01*
X138486150Y-96084982D01*
X138429184Y-96090154D01*
X138345471Y-96090154D01*
X138367552Y-96031654D01*
X138393364Y-95989006D01*
X138453928Y-95951936D01*
X138473320Y-95944197D01*
X138528235Y-95900926D01*
X138555879Y-95842024D01*
X138553393Y-95777889D01*
X138517923Y-95718923D01*
X138495805Y-95698658D01*
X138462436Y-95680280D01*
X138432117Y-95686029D01*
X138400913Y-95719113D01*
X138364887Y-95782739D01*
X138320103Y-95880115D01*
X138232445Y-96080385D01*
X138145607Y-96085699D01*
X138080663Y-96083353D01*
X137998590Y-96053814D01*
X137953361Y-96016528D01*
X137902838Y-95939224D01*
X137877316Y-95847522D01*
X137877489Y-95839360D01*
X138009721Y-95839360D01*
X138040339Y-95909960D01*
X138055648Y-95929526D01*
X138090296Y-95953217D01*
X138124538Y-95943312D01*
X138161096Y-95898244D01*
X138202692Y-95816443D01*
X138208718Y-95802908D01*
X138236753Y-95738182D01*
X138256472Y-95689753D01*
X138263923Y-95667249D01*
X138258438Y-95663839D01*
X138224948Y-95662471D01*
X138171116Y-95667349D01*
X138118473Y-95679636D01*
X138052151Y-95717959D01*
X138014780Y-95773280D01*
X138009721Y-95839360D01*
X137877489Y-95839360D01*
X137879336Y-95752726D01*
X137911440Y-95666141D01*
X137923767Y-95647080D01*
X137961912Y-95603360D01*
X138010167Y-95573460D01*
X138075710Y-95555032D01*
X138165720Y-95545730D01*
X138224948Y-95544501D01*
X138287376Y-95543206D01*
X138339449Y-95543587D01*
G37*
X138339449Y-95543587D02*
X138442047Y-95548359D01*
X138517126Y-95560850D01*
X138572748Y-95583879D01*
X138616975Y-95620268D01*
X138657869Y-95672838D01*
X138676466Y-95706286D01*
X138688991Y-95759902D01*
X138688003Y-95835220D01*
X138684035Y-95877328D01*
X138671920Y-95928121D01*
X138645585Y-95968720D01*
X138596514Y-96015951D01*
X138589346Y-96022262D01*
X138534189Y-96064723D01*
X138486150Y-96084982D01*
X138429184Y-96090154D01*
X138345471Y-96090154D01*
X138367552Y-96031654D01*
X138393364Y-95989006D01*
X138453928Y-95951936D01*
X138473320Y-95944197D01*
X138528235Y-95900926D01*
X138555879Y-95842024D01*
X138553393Y-95777889D01*
X138517923Y-95718923D01*
X138495805Y-95698658D01*
X138462436Y-95680280D01*
X138432117Y-95686029D01*
X138400913Y-95719113D01*
X138364887Y-95782739D01*
X138320103Y-95880115D01*
X138232445Y-96080385D01*
X138145607Y-96085699D01*
X138080663Y-96083353D01*
X137998590Y-96053814D01*
X137953361Y-96016528D01*
X137902838Y-95939224D01*
X137877316Y-95847522D01*
X137877489Y-95839360D01*
X138009721Y-95839360D01*
X138040339Y-95909960D01*
X138055648Y-95929526D01*
X138090296Y-95953217D01*
X138124538Y-95943312D01*
X138161096Y-95898244D01*
X138202692Y-95816443D01*
X138208718Y-95802908D01*
X138236753Y-95738182D01*
X138256472Y-95689753D01*
X138263923Y-95667249D01*
X138258438Y-95663839D01*
X138224948Y-95662471D01*
X138171116Y-95667349D01*
X138118473Y-95679636D01*
X138052151Y-95717959D01*
X138014780Y-95773280D01*
X138009721Y-95839360D01*
X137877489Y-95839360D01*
X137879336Y-95752726D01*
X137911440Y-95666141D01*
X137923767Y-95647080D01*
X137961912Y-95603360D01*
X138010167Y-95573460D01*
X138075710Y-95555032D01*
X138165720Y-95545730D01*
X138224948Y-95544501D01*
X138287376Y-95543206D01*
X138339449Y-95543587D01*
G36*
X135077091Y-88709500D02*
G01*
X135079518Y-88721908D01*
X135092088Y-88787801D01*
X135109170Y-88878916D01*
X135128829Y-88984896D01*
X135149132Y-89095385D01*
X135157299Y-89138895D01*
X135177167Y-89236118D01*
X135195954Y-89317142D01*
X135211859Y-89374523D01*
X135223079Y-89400813D01*
X135241411Y-89412727D01*
X135289916Y-89434417D01*
X135352692Y-89456605D01*
X135376200Y-89464415D01*
X135453366Y-89493165D01*
X135544694Y-89530248D01*
X135635093Y-89569625D01*
X135682310Y-89590685D01*
X135752837Y-89620689D01*
X135805655Y-89641308D01*
X135831912Y-89648974D01*
X135833894Y-89648548D01*
X135861751Y-89634007D01*
X135915510Y-89601217D01*
X135989963Y-89553507D01*
X136079897Y-89494202D01*
X136180104Y-89426631D01*
X136506416Y-89204287D01*
X136799016Y-89496399D01*
X136827171Y-89524651D01*
X136911449Y-89611039D01*
X136984128Y-89688244D01*
X137041112Y-89751742D01*
X137078307Y-89797010D01*
X137091616Y-89819526D01*
X137081490Y-89843977D01*
X137052421Y-89895181D01*
X137007896Y-89967253D01*
X136951411Y-90054540D01*
X136886462Y-90151388D01*
X136822314Y-90246514D01*
X136765827Y-90332331D01*
X136721184Y-90402348D01*
X136691855Y-90451124D01*
X136681308Y-90473217D01*
X136681404Y-90474512D01*
X136691802Y-90503861D01*
X136716012Y-90555907D01*
X136749249Y-90620292D01*
X136749613Y-90620968D01*
X136792441Y-90706479D01*
X136813365Y-90765074D01*
X136813423Y-90801429D01*
X136793654Y-90820225D01*
X136774195Y-90828181D01*
X136722080Y-90849653D01*
X136641964Y-90882727D01*
X136538107Y-90925644D01*
X136414767Y-90976644D01*
X136276201Y-91033967D01*
X136126670Y-91095854D01*
X135990636Y-91151948D01*
X135851050Y-91209023D01*
X135726315Y-91259521D01*
X135620672Y-91301746D01*
X135538365Y-91334005D01*
X135483635Y-91354603D01*
X135460726Y-91361846D01*
X135439718Y-91348014D01*
X135404642Y-91309588D01*
X135363887Y-91255193D01*
X135257267Y-91124605D01*
X135121025Y-91007740D01*
X134971118Y-90922220D01*
X134811971Y-90868569D01*
X134648012Y-90847316D01*
X134483667Y-90858986D01*
X134323361Y-90904106D01*
X134171520Y-90983203D01*
X134032572Y-91096803D01*
X133978460Y-91156035D01*
X133882782Y-91297946D01*
X133820405Y-91449794D01*
X133789844Y-91607139D01*
X133789615Y-91765544D01*
X133818232Y-91920571D01*
X133874210Y-92067780D01*
X133956064Y-92202734D01*
X134062309Y-92320995D01*
X134191459Y-92418123D01*
X134342031Y-92489682D01*
X134512539Y-92531231D01*
X134594722Y-92538857D01*
X134772775Y-92528366D01*
X134941704Y-92481118D01*
X135098522Y-92398511D01*
X135240245Y-92281941D01*
X135363887Y-92132807D01*
X135402982Y-92080439D01*
X135438443Y-92041168D01*
X135460692Y-92026154D01*
X135480088Y-92032141D01*
X135532059Y-92051568D01*
X135612002Y-92082806D01*
X135715673Y-92124161D01*
X135838832Y-92173939D01*
X135977234Y-92230447D01*
X136126637Y-92291991D01*
X136262020Y-92347992D01*
X136401852Y-92405816D01*
X136526872Y-92457500D01*
X136632822Y-92501282D01*
X136715441Y-92535403D01*
X136770472Y-92558102D01*
X136793654Y-92567620D01*
X136793928Y-92567731D01*
X136813503Y-92586772D01*
X136813279Y-92623306D01*
X136792210Y-92682046D01*
X136749249Y-92767708D01*
X136745631Y-92774451D01*
X136713087Y-92838062D01*
X136690050Y-92888293D01*
X136681308Y-92914782D01*
X136691639Y-92936494D01*
X136720788Y-92985016D01*
X136765287Y-93054837D01*
X136821668Y-93140516D01*
X136886462Y-93236612D01*
X136949984Y-93331294D01*
X137006705Y-93418868D01*
X137051547Y-93491358D01*
X137081016Y-93543111D01*
X137091616Y-93568474D01*
X137090270Y-93572794D01*
X137069056Y-93602908D01*
X137025237Y-93654360D01*
X136962909Y-93722625D01*
X136886170Y-93803180D01*
X136799116Y-93891500D01*
X136506617Y-94183512D01*
X135837525Y-93728640D01*
X135687916Y-93797792D01*
X135687473Y-93797997D01*
X135592101Y-93839523D01*
X135485896Y-93881956D01*
X135391769Y-93916142D01*
X135376588Y-93921316D01*
X135306109Y-93947399D01*
X135251342Y-93970919D01*
X135223079Y-93987323D01*
X135219088Y-93994004D01*
X135205697Y-94034108D01*
X135188373Y-94102205D01*
X135168917Y-94190855D01*
X135149132Y-94292615D01*
X135143551Y-94323096D01*
X135123233Y-94433372D01*
X135104095Y-94536269D01*
X135088070Y-94621431D01*
X135077091Y-94678500D01*
X135056845Y-94781077D01*
X134629701Y-94781077D01*
X134577180Y-94781054D01*
X134449047Y-94780621D01*
X134353420Y-94779341D01*
X134285411Y-94776832D01*
X134240133Y-94772714D01*
X134212697Y-94766605D01*
X134198218Y-94758122D01*
X134191807Y-94746885D01*
X134189209Y-94736006D01*
X134180022Y-94691653D01*
X134165991Y-94620894D01*
X134148486Y-94530926D01*
X134128874Y-94428944D01*
X134108525Y-94322143D01*
X134088807Y-94217719D01*
X134071089Y-94122868D01*
X134056738Y-94044786D01*
X134047124Y-93990668D01*
X134043616Y-93967709D01*
X134041497Y-93966158D01*
X134014006Y-93953675D01*
X133961406Y-93932073D01*
X133892192Y-93904877D01*
X133798937Y-93867134D01*
X133691159Y-93820672D01*
X133596172Y-93777122D01*
X133574851Y-93767142D01*
X133508086Y-93739138D01*
X133456590Y-93722359D01*
X133430095Y-93720146D01*
X133428218Y-93721287D01*
X133400565Y-93739416D01*
X133346849Y-93775356D01*
X133272303Y-93825582D01*
X133182162Y-93886570D01*
X133081657Y-93954795D01*
X132967470Y-94031670D01*
X132878770Y-94089337D01*
X132813721Y-94128574D01*
X132768295Y-94151650D01*
X132738463Y-94160834D01*
X132720195Y-94158396D01*
X132718825Y-94157576D01*
X132692205Y-94135523D01*
X132643697Y-94090564D01*
X132578108Y-94027327D01*
X132500247Y-93950441D01*
X132414922Y-93864535D01*
X132328334Y-93775421D01*
X132246947Y-93688128D01*
X132192035Y-93623982D01*
X132162190Y-93581321D01*
X132156004Y-93558479D01*
X132157394Y-93555495D01*
X132176127Y-93524064D01*
X132212733Y-93467003D01*
X132263697Y-93389657D01*
X132325504Y-93297374D01*
X132394639Y-93195498D01*
X132621420Y-92863407D01*
X132553353Y-92713434D01*
X132551381Y-92709077D01*
X132511491Y-92617000D01*
X132471818Y-92519317D01*
X132440674Y-92436461D01*
X132440545Y-92436095D01*
X132416456Y-92370315D01*
X132396110Y-92319677D01*
X132383901Y-92295116D01*
X132383458Y-92294718D01*
X132358456Y-92286381D01*
X132301598Y-92272659D01*
X132219014Y-92254877D01*
X132116831Y-92234359D01*
X132001178Y-92212429D01*
X131997033Y-92211664D01*
X131879019Y-92189771D01*
X131772151Y-92169719D01*
X131683252Y-92152808D01*
X131619145Y-92140333D01*
X131586654Y-92133594D01*
X131584853Y-92133163D01*
X131570944Y-92128727D01*
X131560489Y-92119737D01*
X131552996Y-92101263D01*
X131547972Y-92068372D01*
X131544922Y-92016132D01*
X131543355Y-91939612D01*
X131542776Y-91833878D01*
X131542692Y-91694000D01*
X131542693Y-91676425D01*
X131542807Y-91540629D01*
X131543472Y-91438424D01*
X131545182Y-91364878D01*
X131548429Y-91315058D01*
X131553706Y-91284033D01*
X131561507Y-91266871D01*
X131572325Y-91258639D01*
X131586654Y-91254406D01*
X131587168Y-91254284D01*
X131620851Y-91247328D01*
X131685917Y-91234680D01*
X131775542Y-91217640D01*
X131882904Y-91197504D01*
X132001178Y-91175571D01*
X132010856Y-91173782D01*
X132125650Y-91151917D01*
X132226480Y-91131570D01*
X132307217Y-91114066D01*
X132361734Y-91100729D01*
X132383901Y-91092884D01*
X132383936Y-91092842D01*
X132396200Y-91068116D01*
X132416576Y-91017369D01*
X132440674Y-90951538D01*
X132441983Y-90947831D01*
X132473791Y-90863669D01*
X132513685Y-90765770D01*
X132553353Y-90674565D01*
X132621420Y-90524593D01*
X132394639Y-90192501D01*
X132378688Y-90169111D01*
X132310890Y-90068920D01*
X132251208Y-89979520D01*
X132203156Y-89906255D01*
X132170250Y-89854473D01*
X132156004Y-89829520D01*
X132159270Y-89812423D01*
X132184571Y-89773605D01*
X132234675Y-89713615D01*
X132310989Y-89630790D01*
X132414922Y-89523465D01*
X132424382Y-89513861D01*
X132509145Y-89428698D01*
X132585937Y-89353051D01*
X132649947Y-89291551D01*
X132696361Y-89248827D01*
X132720369Y-89229511D01*
X132720485Y-89229448D01*
X132738763Y-89226994D01*
X132768411Y-89236044D01*
X132813486Y-89258881D01*
X132878044Y-89297787D01*
X132966140Y-89355046D01*
X133081830Y-89432941D01*
X133101357Y-89446215D01*
X133200278Y-89513348D01*
X133287848Y-89572590D01*
X133358831Y-89620412D01*
X133407991Y-89653285D01*
X133430095Y-89667682D01*
X133434777Y-89668768D01*
X133469710Y-89661956D01*
X133526753Y-89641550D01*
X133596172Y-89610877D01*
X133686959Y-89569192D01*
X133794686Y-89522648D01*
X133892192Y-89483123D01*
X133917430Y-89473324D01*
X133981870Y-89447660D01*
X134026763Y-89428807D01*
X134043616Y-89420290D01*
X134044875Y-89410889D01*
X134052159Y-89368637D01*
X134064739Y-89299479D01*
X134081246Y-89210613D01*
X134100312Y-89109232D01*
X134120569Y-89002533D01*
X134140647Y-88897712D01*
X134159179Y-88801964D01*
X134174795Y-88722484D01*
X134186127Y-88666470D01*
X134191807Y-88641115D01*
X134193408Y-88636912D01*
X134202045Y-88626666D01*
X134220433Y-88619043D01*
X134253460Y-88613662D01*
X134306013Y-88610141D01*
X134382979Y-88608099D01*
X134489246Y-88607153D01*
X134629701Y-88606923D01*
X135056845Y-88606923D01*
X135077091Y-88709500D01*
G37*
X135077091Y-88709500D02*
X135079518Y-88721908D01*
X135092088Y-88787801D01*
X135109170Y-88878916D01*
X135128829Y-88984896D01*
X135149132Y-89095385D01*
X135157299Y-89138895D01*
X135177167Y-89236118D01*
X135195954Y-89317142D01*
X135211859Y-89374523D01*
X135223079Y-89400813D01*
X135241411Y-89412727D01*
X135289916Y-89434417D01*
X135352692Y-89456605D01*
X135376200Y-89464415D01*
X135453366Y-89493165D01*
X135544694Y-89530248D01*
X135635093Y-89569625D01*
X135682310Y-89590685D01*
X135752837Y-89620689D01*
X135805655Y-89641308D01*
X135831912Y-89648974D01*
X135833894Y-89648548D01*
X135861751Y-89634007D01*
X135915510Y-89601217D01*
X135989963Y-89553507D01*
X136079897Y-89494202D01*
X136180104Y-89426631D01*
X136506416Y-89204287D01*
X136799016Y-89496399D01*
X136827171Y-89524651D01*
X136911449Y-89611039D01*
X136984128Y-89688244D01*
X137041112Y-89751742D01*
X137078307Y-89797010D01*
X137091616Y-89819526D01*
X137081490Y-89843977D01*
X137052421Y-89895181D01*
X137007896Y-89967253D01*
X136951411Y-90054540D01*
X136886462Y-90151388D01*
X136822314Y-90246514D01*
X136765827Y-90332331D01*
X136721184Y-90402348D01*
X136691855Y-90451124D01*
X136681308Y-90473217D01*
X136681404Y-90474512D01*
X136691802Y-90503861D01*
X136716012Y-90555907D01*
X136749249Y-90620292D01*
X136749613Y-90620968D01*
X136792441Y-90706479D01*
X136813365Y-90765074D01*
X136813423Y-90801429D01*
X136793654Y-90820225D01*
X136774195Y-90828181D01*
X136722080Y-90849653D01*
X136641964Y-90882727D01*
X136538107Y-90925644D01*
X136414767Y-90976644D01*
X136276201Y-91033967D01*
X136126670Y-91095854D01*
X135990636Y-91151948D01*
X135851050Y-91209023D01*
X135726315Y-91259521D01*
X135620672Y-91301746D01*
X135538365Y-91334005D01*
X135483635Y-91354603D01*
X135460726Y-91361846D01*
X135439718Y-91348014D01*
X135404642Y-91309588D01*
X135363887Y-91255193D01*
X135257267Y-91124605D01*
X135121025Y-91007740D01*
X134971118Y-90922220D01*
X134811971Y-90868569D01*
X134648012Y-90847316D01*
X134483667Y-90858986D01*
X134323361Y-90904106D01*
X134171520Y-90983203D01*
X134032572Y-91096803D01*
X133978460Y-91156035D01*
X133882782Y-91297946D01*
X133820405Y-91449794D01*
X133789844Y-91607139D01*
X133789615Y-91765544D01*
X133818232Y-91920571D01*
X133874210Y-92067780D01*
X133956064Y-92202734D01*
X134062309Y-92320995D01*
X134191459Y-92418123D01*
X134342031Y-92489682D01*
X134512539Y-92531231D01*
X134594722Y-92538857D01*
X134772775Y-92528366D01*
X134941704Y-92481118D01*
X135098522Y-92398511D01*
X135240245Y-92281941D01*
X135363887Y-92132807D01*
X135402982Y-92080439D01*
X135438443Y-92041168D01*
X135460692Y-92026154D01*
X135480088Y-92032141D01*
X135532059Y-92051568D01*
X135612002Y-92082806D01*
X135715673Y-92124161D01*
X135838832Y-92173939D01*
X135977234Y-92230447D01*
X136126637Y-92291991D01*
X136262020Y-92347992D01*
X136401852Y-92405816D01*
X136526872Y-92457500D01*
X136632822Y-92501282D01*
X136715441Y-92535403D01*
X136770472Y-92558102D01*
X136793654Y-92567620D01*
X136793928Y-92567731D01*
X136813503Y-92586772D01*
X136813279Y-92623306D01*
X136792210Y-92682046D01*
X136749249Y-92767708D01*
X136745631Y-92774451D01*
X136713087Y-92838062D01*
X136690050Y-92888293D01*
X136681308Y-92914782D01*
X136691639Y-92936494D01*
X136720788Y-92985016D01*
X136765287Y-93054837D01*
X136821668Y-93140516D01*
X136886462Y-93236612D01*
X136949984Y-93331294D01*
X137006705Y-93418868D01*
X137051547Y-93491358D01*
X137081016Y-93543111D01*
X137091616Y-93568474D01*
X137090270Y-93572794D01*
X137069056Y-93602908D01*
X137025237Y-93654360D01*
X136962909Y-93722625D01*
X136886170Y-93803180D01*
X136799116Y-93891500D01*
X136506617Y-94183512D01*
X135837525Y-93728640D01*
X135687916Y-93797792D01*
X135687473Y-93797997D01*
X135592101Y-93839523D01*
X135485896Y-93881956D01*
X135391769Y-93916142D01*
X135376588Y-93921316D01*
X135306109Y-93947399D01*
X135251342Y-93970919D01*
X135223079Y-93987323D01*
X135219088Y-93994004D01*
X135205697Y-94034108D01*
X135188373Y-94102205D01*
X135168917Y-94190855D01*
X135149132Y-94292615D01*
X135143551Y-94323096D01*
X135123233Y-94433372D01*
X135104095Y-94536269D01*
X135088070Y-94621431D01*
X135077091Y-94678500D01*
X135056845Y-94781077D01*
X134629701Y-94781077D01*
X134577180Y-94781054D01*
X134449047Y-94780621D01*
X134353420Y-94779341D01*
X134285411Y-94776832D01*
X134240133Y-94772714D01*
X134212697Y-94766605D01*
X134198218Y-94758122D01*
X134191807Y-94746885D01*
X134189209Y-94736006D01*
X134180022Y-94691653D01*
X134165991Y-94620894D01*
X134148486Y-94530926D01*
X134128874Y-94428944D01*
X134108525Y-94322143D01*
X134088807Y-94217719D01*
X134071089Y-94122868D01*
X134056738Y-94044786D01*
X134047124Y-93990668D01*
X134043616Y-93967709D01*
X134041497Y-93966158D01*
X134014006Y-93953675D01*
X133961406Y-93932073D01*
X133892192Y-93904877D01*
X133798937Y-93867134D01*
X133691159Y-93820672D01*
X133596172Y-93777122D01*
X133574851Y-93767142D01*
X133508086Y-93739138D01*
X133456590Y-93722359D01*
X133430095Y-93720146D01*
X133428218Y-93721287D01*
X133400565Y-93739416D01*
X133346849Y-93775356D01*
X133272303Y-93825582D01*
X133182162Y-93886570D01*
X133081657Y-93954795D01*
X132967470Y-94031670D01*
X132878770Y-94089337D01*
X132813721Y-94128574D01*
X132768295Y-94151650D01*
X132738463Y-94160834D01*
X132720195Y-94158396D01*
X132718825Y-94157576D01*
X132692205Y-94135523D01*
X132643697Y-94090564D01*
X132578108Y-94027327D01*
X132500247Y-93950441D01*
X132414922Y-93864535D01*
X132328334Y-93775421D01*
X132246947Y-93688128D01*
X132192035Y-93623982D01*
X132162190Y-93581321D01*
X132156004Y-93558479D01*
X132157394Y-93555495D01*
X132176127Y-93524064D01*
X132212733Y-93467003D01*
X132263697Y-93389657D01*
X132325504Y-93297374D01*
X132394639Y-93195498D01*
X132621420Y-92863407D01*
X132553353Y-92713434D01*
X132551381Y-92709077D01*
X132511491Y-92617000D01*
X132471818Y-92519317D01*
X132440674Y-92436461D01*
X132440545Y-92436095D01*
X132416456Y-92370315D01*
X132396110Y-92319677D01*
X132383901Y-92295116D01*
X132383458Y-92294718D01*
X132358456Y-92286381D01*
X132301598Y-92272659D01*
X132219014Y-92254877D01*
X132116831Y-92234359D01*
X132001178Y-92212429D01*
X131997033Y-92211664D01*
X131879019Y-92189771D01*
X131772151Y-92169719D01*
X131683252Y-92152808D01*
X131619145Y-92140333D01*
X131586654Y-92133594D01*
X131584853Y-92133163D01*
X131570944Y-92128727D01*
X131560489Y-92119737D01*
X131552996Y-92101263D01*
X131547972Y-92068372D01*
X131544922Y-92016132D01*
X131543355Y-91939612D01*
X131542776Y-91833878D01*
X131542692Y-91694000D01*
X131542693Y-91676425D01*
X131542807Y-91540629D01*
X131543472Y-91438424D01*
X131545182Y-91364878D01*
X131548429Y-91315058D01*
X131553706Y-91284033D01*
X131561507Y-91266871D01*
X131572325Y-91258639D01*
X131586654Y-91254406D01*
X131587168Y-91254284D01*
X131620851Y-91247328D01*
X131685917Y-91234680D01*
X131775542Y-91217640D01*
X131882904Y-91197504D01*
X132001178Y-91175571D01*
X132010856Y-91173782D01*
X132125650Y-91151917D01*
X132226480Y-91131570D01*
X132307217Y-91114066D01*
X132361734Y-91100729D01*
X132383901Y-91092884D01*
X132383936Y-91092842D01*
X132396200Y-91068116D01*
X132416576Y-91017369D01*
X132440674Y-90951538D01*
X132441983Y-90947831D01*
X132473791Y-90863669D01*
X132513685Y-90765770D01*
X132553353Y-90674565D01*
X132621420Y-90524593D01*
X132394639Y-90192501D01*
X132378688Y-90169111D01*
X132310890Y-90068920D01*
X132251208Y-89979520D01*
X132203156Y-89906255D01*
X132170250Y-89854473D01*
X132156004Y-89829520D01*
X132159270Y-89812423D01*
X132184571Y-89773605D01*
X132234675Y-89713615D01*
X132310989Y-89630790D01*
X132414922Y-89523465D01*
X132424382Y-89513861D01*
X132509145Y-89428698D01*
X132585937Y-89353051D01*
X132649947Y-89291551D01*
X132696361Y-89248827D01*
X132720369Y-89229511D01*
X132720485Y-89229448D01*
X132738763Y-89226994D01*
X132768411Y-89236044D01*
X132813486Y-89258881D01*
X132878044Y-89297787D01*
X132966140Y-89355046D01*
X133081830Y-89432941D01*
X133101357Y-89446215D01*
X133200278Y-89513348D01*
X133287848Y-89572590D01*
X133358831Y-89620412D01*
X133407991Y-89653285D01*
X133430095Y-89667682D01*
X133434777Y-89668768D01*
X133469710Y-89661956D01*
X133526753Y-89641550D01*
X133596172Y-89610877D01*
X133686959Y-89569192D01*
X133794686Y-89522648D01*
X133892192Y-89483123D01*
X133917430Y-89473324D01*
X133981870Y-89447660D01*
X134026763Y-89428807D01*
X134043616Y-89420290D01*
X134044875Y-89410889D01*
X134052159Y-89368637D01*
X134064739Y-89299479D01*
X134081246Y-89210613D01*
X134100312Y-89109232D01*
X134120569Y-89002533D01*
X134140647Y-88897712D01*
X134159179Y-88801964D01*
X134174795Y-88722484D01*
X134186127Y-88666470D01*
X134191807Y-88641115D01*
X134193408Y-88636912D01*
X134202045Y-88626666D01*
X134220433Y-88619043D01*
X134253460Y-88613662D01*
X134306013Y-88610141D01*
X134382979Y-88608099D01*
X134489246Y-88607153D01*
X134629701Y-88606923D01*
X135056845Y-88606923D01*
X135077091Y-88709500D01*
M02*
