G04 #@! TF.GenerationSoftware,KiCad,Pcbnew,5.99.0-unknown-r17121-d4cea0f2*
G04 #@! TF.CreationDate,2019-12-07T19:03:38-06:00*
G04 #@! TF.ProjectId,dip_switch_pmod,6469705f-7377-4697-9463-685f706d6f64,A*
G04 #@! TF.SameCoordinates,Original*
G04 #@! TF.FileFunction,Copper,L2,Bot*
G04 #@! TF.FilePolarity,Positive*
%FSLAX46Y46*%
G04 Gerber Fmt 4.6, Leading zero omitted, Abs format (unit mm)*
G04 Created by KiCad (PCBNEW 5.99.0-unknown-r17121-d4cea0f2) date 2019-12-07 19:03:38*
%MOMM*%
%LPD*%
G04 APERTURE LIST*
%ADD10O,1.700000X1.700000*%
%ADD11R,1.700000X1.700000*%
%ADD12O,1.600000X1.600000*%
%ADD13R,1.600000X1.600000*%
%ADD14C,0.250000*%
%ADD15C,0.500000*%
G04 APERTURE END LIST*
D10*
X128255000Y-98005000D03*
X130795000Y-98005000D03*
X128255000Y-95465000D03*
X130795000Y-95465000D03*
X128255000Y-92925000D03*
X130795000Y-92925000D03*
X128255000Y-90385000D03*
X130795000Y-90385000D03*
X128255000Y-87845000D03*
X130795000Y-87845000D03*
X128255000Y-85305000D03*
D11*
X130795000Y-85305000D03*
D12*
X140335000Y-85725000D03*
X158115000Y-93345000D03*
X142875000Y-85725000D03*
X155575000Y-93345000D03*
X145415000Y-85725000D03*
X153035000Y-93345000D03*
X147955000Y-85725000D03*
X150495000Y-93345000D03*
X150495000Y-85725000D03*
X147955000Y-93345000D03*
X153035000Y-85725000D03*
X145415000Y-93345000D03*
X155575000Y-85725000D03*
X142875000Y-93345000D03*
X158115000Y-85725000D03*
D13*
X140335000Y-93345000D03*
D12*
X159385000Y-97790000D03*
X156845000Y-97790000D03*
X154305000Y-97790000D03*
X151765000Y-97790000D03*
X149225000Y-97790000D03*
X146685000Y-97790000D03*
X144145000Y-97790000D03*
X141605000Y-97790000D03*
D13*
X139065000Y-97790000D03*
D14*
X131970300Y-86105600D02*
X131970300Y-85305000D01*
X139209700Y-93345000D02*
X131970300Y-86105600D01*
X140335000Y-93345000D02*
X139209700Y-93345000D01*
X130795000Y-85305000D02*
X131970300Y-85305000D01*
X141605000Y-95740300D02*
X140335000Y-94470300D01*
X141605000Y-97790000D02*
X141605000Y-95740300D01*
X140335000Y-93345000D02*
X140335000Y-94470300D01*
X144145000Y-95740300D02*
X142875000Y-94470300D01*
X144145000Y-97790000D02*
X144145000Y-95740300D01*
X142875000Y-93345000D02*
X142875000Y-94470300D01*
X146685000Y-95740300D02*
X145415000Y-94470300D01*
X146685000Y-97790000D02*
X146685000Y-95740300D01*
X145415000Y-93345000D02*
X145415000Y-94470300D01*
X147955000Y-93345000D02*
X147955000Y-94470300D01*
X149225000Y-95740300D02*
X149225000Y-97790000D01*
X147955000Y-94470300D02*
X149225000Y-95740300D01*
X138064300Y-99019000D02*
X131970300Y-92925000D01*
X147152000Y-99019000D02*
X138064300Y-99019000D01*
X148099700Y-98071300D02*
X147152000Y-99019000D01*
X148099700Y-97790000D02*
X148099700Y-98071300D01*
X149225000Y-97790000D02*
X148099700Y-97790000D01*
X130795000Y-92925000D02*
X131970300Y-92925000D01*
X129430300Y-84496900D02*
X129430300Y-85305000D01*
X129797500Y-84129700D02*
X129430300Y-84496900D01*
X134055600Y-84129700D02*
X129797500Y-84129700D01*
X142145600Y-92219700D02*
X134055600Y-84129700D01*
X148525800Y-92219700D02*
X142145600Y-92219700D01*
X149369700Y-93063600D02*
X148525800Y-92219700D01*
X149369700Y-93345000D02*
X149369700Y-93063600D01*
X150495000Y-93345000D02*
X149369700Y-93345000D01*
X128255000Y-85305000D02*
X129430300Y-85305000D01*
X151765000Y-95740300D02*
X150495000Y-94470300D01*
X151765000Y-97790000D02*
X151765000Y-95740300D01*
X150495000Y-93345000D02*
X150495000Y-94470300D01*
X154305000Y-95740300D02*
X153035000Y-94470300D01*
X154305000Y-97790000D02*
X154305000Y-95740300D01*
X153035000Y-93345000D02*
X153035000Y-94470300D01*
X156845000Y-95740300D02*
X155575000Y-94470300D01*
X156845000Y-97790000D02*
X156845000Y-95740300D01*
X155575000Y-93345000D02*
X155575000Y-94470300D01*
X159385000Y-95740300D02*
X158115000Y-94470300D01*
X159385000Y-97790000D02*
X159385000Y-95740300D01*
X158115000Y-93345000D02*
X158115000Y-94470300D01*
D15*
X153035000Y-85725000D02*
X150495000Y-85725000D01*
X150495000Y-85725000D02*
X147955000Y-85725000D01*
X126853400Y-96603400D02*
X128255000Y-98005000D01*
X126853400Y-84725800D02*
X126853400Y-96603400D01*
X128177500Y-83401700D02*
X126853400Y-84725800D01*
X136661400Y-83401700D02*
X128177500Y-83401700D01*
X138984700Y-85725000D02*
X136661400Y-83401700D01*
X140335000Y-85725000D02*
X138984700Y-85725000D01*
M02*
