G04 #@! TF.GenerationSoftware,KiCad,Pcbnew,5.99.0-unknown-r17121-d4cea0f2*
G04 #@! TF.CreationDate,2019-12-07T19:03:37-06:00*
G04 #@! TF.ProjectId,dip_switch_pmod,6469705f-7377-4697-9463-685f706d6f64,A*
G04 #@! TF.SameCoordinates,Original*
G04 #@! TF.FileFunction,Copper,L1,Top*
G04 #@! TF.FilePolarity,Positive*
%FSLAX46Y46*%
G04 Gerber Fmt 4.6, Leading zero omitted, Abs format (unit mm)*
G04 Created by KiCad (PCBNEW 5.99.0-unknown-r17121-d4cea0f2) date 2019-12-07 19:03:37*
%MOMM*%
%LPD*%
G04 APERTURE LIST*
%ADD10O,1.700000X1.700000*%
%ADD11R,1.700000X1.700000*%
%ADD12O,1.600000X1.600000*%
%ADD13R,1.600000X1.600000*%
%ADD14C,0.250000*%
%ADD15C,0.500000*%
%ADD16C,0.254000*%
G04 APERTURE END LIST*
D10*
X128255000Y-98005000D03*
X130795000Y-98005000D03*
X128255000Y-95465000D03*
X130795000Y-95465000D03*
X128255000Y-92925000D03*
X130795000Y-92925000D03*
X128255000Y-90385000D03*
X130795000Y-90385000D03*
X128255000Y-87845000D03*
X130795000Y-87845000D03*
X128255000Y-85305000D03*
D11*
X130795000Y-85305000D03*
D12*
X140335000Y-85725000D03*
X158115000Y-93345000D03*
X142875000Y-85725000D03*
X155575000Y-93345000D03*
X145415000Y-85725000D03*
X153035000Y-93345000D03*
X147955000Y-85725000D03*
X150495000Y-93345000D03*
X150495000Y-85725000D03*
X147955000Y-93345000D03*
X153035000Y-85725000D03*
X145415000Y-93345000D03*
X155575000Y-85725000D03*
X142875000Y-93345000D03*
X158115000Y-85725000D03*
D13*
X140335000Y-93345000D03*
D12*
X159385000Y-97790000D03*
X156845000Y-97790000D03*
X154305000Y-97790000D03*
X151765000Y-97790000D03*
X149225000Y-97790000D03*
X146685000Y-97790000D03*
X144145000Y-97790000D03*
X141605000Y-97790000D03*
D13*
X139065000Y-97790000D03*
D14*
X136953000Y-87845000D02*
X130795000Y-87845000D01*
X141749700Y-92641700D02*
X136953000Y-87845000D01*
X141749700Y-93345000D02*
X141749700Y-92641700D01*
X142875000Y-93345000D02*
X141749700Y-93345000D01*
X145415000Y-93345000D02*
X144289700Y-93345000D01*
X130795000Y-90385000D02*
X131970300Y-90385000D01*
X133244200Y-90385000D02*
X131970300Y-90385000D01*
X137377900Y-94518700D02*
X133244200Y-90385000D01*
X143397300Y-94518700D02*
X137377900Y-94518700D01*
X144289700Y-93626300D02*
X143397300Y-94518700D01*
X144289700Y-93345000D02*
X144289700Y-93626300D01*
X129430300Y-87477600D02*
X129430300Y-87845000D01*
X130238200Y-86669700D02*
X129430300Y-87477600D01*
X131519900Y-86669700D02*
X130238200Y-86669700D01*
X131889900Y-87039700D02*
X131519900Y-86669700D01*
X145885700Y-87039700D02*
X131889900Y-87039700D01*
X151909700Y-93063700D02*
X145885700Y-87039700D01*
X151909700Y-93345000D02*
X151909700Y-93063700D01*
X153035000Y-93345000D02*
X151909700Y-93345000D01*
X128255000Y-87845000D02*
X129430300Y-87845000D01*
X155575000Y-93345000D02*
X154449700Y-93345000D01*
X128255000Y-90385000D02*
X129430300Y-90385000D01*
X129430300Y-90752400D02*
X129430300Y-90385000D01*
X130238200Y-91560300D02*
X129430300Y-90752400D01*
X133782600Y-91560300D02*
X130238200Y-91560300D01*
X137191400Y-94969100D02*
X133782600Y-91560300D01*
X153106900Y-94969100D02*
X137191400Y-94969100D01*
X154449700Y-93626300D02*
X153106900Y-94969100D01*
X154449700Y-93345000D02*
X154449700Y-93626300D01*
X129430300Y-93292400D02*
X129430300Y-92925000D01*
X130238200Y-94100300D02*
X129430300Y-93292400D01*
X133366700Y-94100300D02*
X130238200Y-94100300D01*
X134685900Y-95419500D02*
X133366700Y-94100300D01*
X155196500Y-95419500D02*
X134685900Y-95419500D01*
X156989700Y-93626300D02*
X155196500Y-95419500D01*
X156989700Y-93345000D02*
X156989700Y-93626300D01*
X158115000Y-93345000D02*
X156989700Y-93345000D01*
X128255000Y-92925000D02*
X129430300Y-92925000D01*
D15*
X139065000Y-97790000D02*
X137714700Y-97790000D01*
X134520300Y-97790000D02*
X137714700Y-97790000D01*
X132195300Y-95465000D02*
X134520300Y-97790000D01*
X131004400Y-95465000D02*
X132195300Y-95465000D01*
X131004400Y-95465000D02*
X130795000Y-95465000D01*
X130795000Y-95465000D02*
X128255000Y-95465000D01*
X158115000Y-85725000D02*
X155575000Y-85725000D01*
X155575000Y-85725000D02*
X153035000Y-85725000D01*
X147955000Y-85725000D02*
X145415000Y-85725000D01*
X145415000Y-85725000D02*
X142875000Y-85725000D01*
X142875000Y-85725000D02*
X140335000Y-85725000D01*
X130795000Y-98005000D02*
X128255000Y-98005000D01*
G36*
X161851851Y-83185139D02*
G01*
X161867796Y-83186659D01*
X162036252Y-83201693D01*
X162143984Y-83231165D01*
X162244796Y-83279250D01*
X162335503Y-83344430D01*
X162413226Y-83424633D01*
X162475527Y-83517348D01*
X162520421Y-83619617D01*
X162547676Y-83733143D01*
X162558150Y-83875769D01*
X162561001Y-83888790D01*
X162561001Y-88774000D01*
X160781000Y-88774000D01*
X160781000Y-83184000D01*
X161847265Y-83184000D01*
X161851851Y-83185139D01*
G37*
D16*
X161851851Y-83185139D02*
X161867796Y-83186659D01*
X162036252Y-83201693D01*
X162143984Y-83231165D01*
X162244796Y-83279250D01*
X162335503Y-83344430D01*
X162413226Y-83424633D01*
X162475527Y-83517348D01*
X162520421Y-83619617D01*
X162547676Y-83733143D01*
X162558150Y-83875769D01*
X162561001Y-83888790D01*
X162561001Y-88774000D01*
X160781000Y-88774000D01*
X160781000Y-83184000D01*
X161847265Y-83184000D01*
X161851851Y-83185139D01*
M02*
