M48
; DRILL file {KiCad 5.99.0-unknown-r17121-d4cea0f2} date Sat 07 Dec 2019 07:03:35 PM CST
; FORMAT={-:-/ absolute / inch / decimal}
; #@! TF.CreationDate,2019-12-07T19:03:35-06:00
; #@! TF.GenerationSoftware,Kicad,Pcbnew,5.99.0-unknown-r17121-d4cea0f2
FMAT,2
INCH
T1C0.0315
T2C0.0394
%
G90
G05
T1
X5.525Y-3.375
X5.525Y-3.675
X5.625Y-3.375
X5.625Y-3.675
X5.725Y-3.375
X5.725Y-3.675
X5.825Y-3.375
X5.825Y-3.675
X5.925Y-3.375
X5.925Y-3.675
X6.025Y-3.375
X6.025Y-3.675
X6.125Y-3.375
X6.125Y-3.675
X6.225Y-3.375
X6.225Y-3.675
X5.475Y-3.85
X5.575Y-3.85
X5.675Y-3.85
X5.775Y-3.85
X5.875Y-3.85
X5.975Y-3.85
X6.075Y-3.85
X6.175Y-3.85
X6.275Y-3.85
T2
X5.0494Y-3.3585
X5.0494Y-3.4585
X5.0494Y-3.5585
X5.0494Y-3.6585
X5.0494Y-3.7585
X5.0494Y-3.8585
X5.1494Y-3.3585
X5.1494Y-3.4585
X5.1494Y-3.5585
X5.1494Y-3.6585
X5.1494Y-3.7585
X5.1494Y-3.8585
T0
M30
