G04 #@! TF.GenerationSoftware,KiCad,Pcbnew,5.99.0-unknown-r17121-d4cea0f2*
G04 #@! TF.CreationDate,2019-12-07T19:23:27-06:00*
G04 #@! TF.ProjectId,7_segment_led_module,375f7365-676d-4656-9e74-5f6c65645f6d,A*
G04 #@! TF.SameCoordinates,Original*
G04 #@! TF.FileFunction,Soldermask,Bot*
G04 #@! TF.FilePolarity,Negative*
%FSLAX46Y46*%
G04 Gerber Fmt 4.6, Leading zero omitted, Abs format (unit mm)*
G04 Created by KiCad (PCBNEW 5.99.0-unknown-r17121-d4cea0f2) date 2019-12-07 19:23:27*
%MOMM*%
%LPD*%
G04 APERTURE LIST*
G04 APERTURE END LIST*
G36*
X157529902Y-95619283D02*
G01*
X157574637Y-95619595D01*
X157618460Y-95628590D01*
X157668360Y-95633835D01*
X157710132Y-95647408D01*
X157747723Y-95655124D01*
X157794851Y-95674935D01*
X157848488Y-95692363D01*
X157881099Y-95711191D01*
X157910614Y-95723598D01*
X157958301Y-95755763D01*
X158012511Y-95787061D01*
X158035826Y-95808054D01*
X158057101Y-95822404D01*
X158102183Y-95867802D01*
X158153261Y-95913793D01*
X158168003Y-95934083D01*
X158181608Y-95947784D01*
X158220643Y-96006537D01*
X158264586Y-96067019D01*
X158272221Y-96084168D01*
X158279388Y-96094955D01*
X158308865Y-96166472D01*
X158341621Y-96240042D01*
X158344211Y-96252225D01*
X158346724Y-96258323D01*
X158363292Y-96341997D01*
X158380999Y-96425301D01*
X158380999Y-96614699D01*
X158378115Y-96628269D01*
X158378030Y-96634331D01*
X158359342Y-96716585D01*
X158341621Y-96799958D01*
X158339129Y-96805555D01*
X158339078Y-96805780D01*
X158267210Y-96967197D01*
X158267078Y-96967385D01*
X158264586Y-96972981D01*
X158214480Y-97041946D01*
X158165357Y-97111582D01*
X158160585Y-97116126D01*
X158153261Y-97126207D01*
X158093396Y-97180110D01*
X158037396Y-97233438D01*
X158026464Y-97240376D01*
X158012511Y-97252939D01*
X157947764Y-97290321D01*
X157888211Y-97328114D01*
X157870209Y-97335097D01*
X157848488Y-97347637D01*
X157783115Y-97368878D01*
X157723468Y-97392014D01*
X157698200Y-97396469D01*
X157668360Y-97406165D01*
X157606095Y-97412709D01*
X157549460Y-97422695D01*
X157517459Y-97422025D01*
X157480000Y-97425962D01*
X157423902Y-97420066D01*
X157372799Y-97418996D01*
X157335323Y-97410756D01*
X157291640Y-97406165D01*
X157243917Y-97390659D01*
X157200225Y-97381052D01*
X157159230Y-97363142D01*
X157111512Y-97347637D01*
X157073473Y-97325675D01*
X157038310Y-97310313D01*
X156996337Y-97281141D01*
X156947489Y-97252939D01*
X156919504Y-97227741D01*
X156893215Y-97209470D01*
X156853257Y-97168092D01*
X156806739Y-97126207D01*
X156788296Y-97100823D01*
X156770473Y-97082366D01*
X156735821Y-97028597D01*
X156695414Y-96972981D01*
X156685212Y-96950066D01*
X156674754Y-96933839D01*
X156648789Y-96868261D01*
X156618379Y-96799958D01*
X156614476Y-96781596D01*
X156609707Y-96769551D01*
X156595740Y-96693448D01*
X156579001Y-96614699D01*
X156579001Y-96602246D01*
X156577811Y-96595762D01*
X156579001Y-96510535D01*
X156579001Y-96425301D01*
X156580275Y-96419308D01*
X156580278Y-96419077D01*
X156617015Y-96246246D01*
X156617105Y-96246036D01*
X156618379Y-96240042D01*
X156653042Y-96162188D01*
X156686622Y-96083839D01*
X156690348Y-96078397D01*
X156695414Y-96067019D01*
X156742746Y-96001872D01*
X156786452Y-95938041D01*
X156795706Y-95928979D01*
X156806739Y-95913793D01*
X156862297Y-95863769D01*
X156912693Y-95814417D01*
X156928848Y-95803846D01*
X156947489Y-95787061D01*
X157007026Y-95752687D01*
X157060551Y-95717662D01*
X157084340Y-95708050D01*
X157111512Y-95692363D01*
X157171045Y-95673019D01*
X157224376Y-95651472D01*
X157255820Y-95645474D01*
X157291640Y-95633835D01*
X157347744Y-95627938D01*
X157397945Y-95618362D01*
X157436312Y-95618630D01*
X157480000Y-95614038D01*
X157529902Y-95619283D01*
G37*
G36*
X162609902Y-95619283D02*
G01*
X162654637Y-95619595D01*
X162698460Y-95628590D01*
X162748360Y-95633835D01*
X162790132Y-95647408D01*
X162827723Y-95655124D01*
X162874851Y-95674935D01*
X162928488Y-95692363D01*
X162961099Y-95711191D01*
X162990614Y-95723598D01*
X163038301Y-95755763D01*
X163092511Y-95787061D01*
X163115826Y-95808054D01*
X163137101Y-95822404D01*
X163182183Y-95867802D01*
X163233261Y-95913793D01*
X163248003Y-95934083D01*
X163261608Y-95947784D01*
X163300643Y-96006537D01*
X163344586Y-96067019D01*
X163352221Y-96084168D01*
X163359388Y-96094955D01*
X163388865Y-96166472D01*
X163421621Y-96240042D01*
X163424211Y-96252225D01*
X163426724Y-96258323D01*
X163443292Y-96341997D01*
X163460999Y-96425301D01*
X163460999Y-96614699D01*
X163458115Y-96628269D01*
X163458030Y-96634331D01*
X163439342Y-96716585D01*
X163421621Y-96799958D01*
X163419129Y-96805555D01*
X163419078Y-96805780D01*
X163347210Y-96967197D01*
X163347078Y-96967385D01*
X163344586Y-96972981D01*
X163294480Y-97041946D01*
X163245357Y-97111582D01*
X163240585Y-97116126D01*
X163233261Y-97126207D01*
X163173396Y-97180110D01*
X163117396Y-97233438D01*
X163106464Y-97240376D01*
X163092511Y-97252939D01*
X163027764Y-97290321D01*
X162968211Y-97328114D01*
X162950209Y-97335097D01*
X162928488Y-97347637D01*
X162863115Y-97368878D01*
X162803468Y-97392014D01*
X162778200Y-97396469D01*
X162748360Y-97406165D01*
X162686095Y-97412709D01*
X162629460Y-97422695D01*
X162597459Y-97422025D01*
X162560000Y-97425962D01*
X162503902Y-97420066D01*
X162452799Y-97418996D01*
X162415323Y-97410756D01*
X162371640Y-97406165D01*
X162323917Y-97390659D01*
X162280225Y-97381052D01*
X162239230Y-97363142D01*
X162191512Y-97347637D01*
X162153473Y-97325675D01*
X162118310Y-97310313D01*
X162076337Y-97281141D01*
X162027489Y-97252939D01*
X161999504Y-97227741D01*
X161973215Y-97209470D01*
X161933257Y-97168092D01*
X161886739Y-97126207D01*
X161868296Y-97100823D01*
X161850473Y-97082366D01*
X161815821Y-97028597D01*
X161775414Y-96972981D01*
X161765212Y-96950066D01*
X161754754Y-96933839D01*
X161728789Y-96868261D01*
X161698379Y-96799958D01*
X161694476Y-96781596D01*
X161689707Y-96769551D01*
X161675740Y-96693448D01*
X161659001Y-96614699D01*
X161659001Y-96602246D01*
X161657811Y-96595762D01*
X161659001Y-96510535D01*
X161659001Y-96425301D01*
X161660275Y-96419308D01*
X161660278Y-96419077D01*
X161697015Y-96246246D01*
X161697105Y-96246036D01*
X161698379Y-96240042D01*
X161733042Y-96162188D01*
X161766622Y-96083839D01*
X161770348Y-96078397D01*
X161775414Y-96067019D01*
X161822746Y-96001872D01*
X161866452Y-95938041D01*
X161875706Y-95928979D01*
X161886739Y-95913793D01*
X161942297Y-95863769D01*
X161992693Y-95814417D01*
X162008848Y-95803846D01*
X162027489Y-95787061D01*
X162087026Y-95752687D01*
X162140551Y-95717662D01*
X162164340Y-95708050D01*
X162191512Y-95692363D01*
X162251045Y-95673019D01*
X162304376Y-95651472D01*
X162335820Y-95645474D01*
X162371640Y-95633835D01*
X162427744Y-95627938D01*
X162477945Y-95618362D01*
X162516312Y-95618630D01*
X162560000Y-95614038D01*
X162609902Y-95619283D01*
G37*
G36*
X139749902Y-95619283D02*
G01*
X139794637Y-95619595D01*
X139838460Y-95628590D01*
X139888360Y-95633835D01*
X139930132Y-95647408D01*
X139967723Y-95655124D01*
X140014851Y-95674935D01*
X140068488Y-95692363D01*
X140101099Y-95711191D01*
X140130614Y-95723598D01*
X140178301Y-95755763D01*
X140232511Y-95787061D01*
X140255826Y-95808054D01*
X140277101Y-95822404D01*
X140322183Y-95867802D01*
X140373261Y-95913793D01*
X140388003Y-95934083D01*
X140401608Y-95947784D01*
X140440643Y-96006537D01*
X140484586Y-96067019D01*
X140492221Y-96084168D01*
X140499388Y-96094955D01*
X140528865Y-96166472D01*
X140561621Y-96240042D01*
X140564211Y-96252225D01*
X140566724Y-96258323D01*
X140583292Y-96341997D01*
X140600999Y-96425301D01*
X140600999Y-96614699D01*
X140598115Y-96628269D01*
X140598030Y-96634331D01*
X140579342Y-96716585D01*
X140561621Y-96799958D01*
X140559129Y-96805555D01*
X140559078Y-96805780D01*
X140487210Y-96967197D01*
X140487078Y-96967385D01*
X140484586Y-96972981D01*
X140434480Y-97041946D01*
X140385357Y-97111582D01*
X140380585Y-97116126D01*
X140373261Y-97126207D01*
X140313396Y-97180110D01*
X140257396Y-97233438D01*
X140246464Y-97240376D01*
X140232511Y-97252939D01*
X140167764Y-97290321D01*
X140108211Y-97328114D01*
X140090209Y-97335097D01*
X140068488Y-97347637D01*
X140003115Y-97368878D01*
X139943468Y-97392014D01*
X139918200Y-97396469D01*
X139888360Y-97406165D01*
X139826095Y-97412709D01*
X139769460Y-97422695D01*
X139737459Y-97422025D01*
X139700000Y-97425962D01*
X139643902Y-97420066D01*
X139592799Y-97418996D01*
X139555323Y-97410756D01*
X139511640Y-97406165D01*
X139463917Y-97390659D01*
X139420225Y-97381052D01*
X139379230Y-97363142D01*
X139331512Y-97347637D01*
X139293473Y-97325675D01*
X139258310Y-97310313D01*
X139216337Y-97281141D01*
X139167489Y-97252939D01*
X139139504Y-97227741D01*
X139113215Y-97209470D01*
X139073257Y-97168092D01*
X139026739Y-97126207D01*
X139008296Y-97100823D01*
X138990473Y-97082366D01*
X138955821Y-97028597D01*
X138915414Y-96972981D01*
X138905212Y-96950066D01*
X138894754Y-96933839D01*
X138868789Y-96868261D01*
X138838379Y-96799958D01*
X138834476Y-96781596D01*
X138829707Y-96769551D01*
X138815740Y-96693448D01*
X138799001Y-96614699D01*
X138799001Y-96602246D01*
X138797811Y-96595762D01*
X138799001Y-96510535D01*
X138799001Y-96425301D01*
X138800275Y-96419308D01*
X138800278Y-96419077D01*
X138837015Y-96246246D01*
X138837105Y-96246036D01*
X138838379Y-96240042D01*
X138873042Y-96162188D01*
X138906622Y-96083839D01*
X138910348Y-96078397D01*
X138915414Y-96067019D01*
X138962746Y-96001872D01*
X139006452Y-95938041D01*
X139015706Y-95928979D01*
X139026739Y-95913793D01*
X139082297Y-95863769D01*
X139132693Y-95814417D01*
X139148848Y-95803846D01*
X139167489Y-95787061D01*
X139227026Y-95752687D01*
X139280551Y-95717662D01*
X139304340Y-95708050D01*
X139331512Y-95692363D01*
X139391045Y-95673019D01*
X139444376Y-95651472D01*
X139475820Y-95645474D01*
X139511640Y-95633835D01*
X139567744Y-95627938D01*
X139617945Y-95618362D01*
X139656312Y-95618630D01*
X139700000Y-95614038D01*
X139749902Y-95619283D01*
G37*
G36*
X165149902Y-95619283D02*
G01*
X165194637Y-95619595D01*
X165238460Y-95628590D01*
X165288360Y-95633835D01*
X165330132Y-95647408D01*
X165367723Y-95655124D01*
X165414851Y-95674935D01*
X165468488Y-95692363D01*
X165501099Y-95711191D01*
X165530614Y-95723598D01*
X165578301Y-95755763D01*
X165632511Y-95787061D01*
X165655826Y-95808054D01*
X165677101Y-95822404D01*
X165722183Y-95867802D01*
X165773261Y-95913793D01*
X165788003Y-95934083D01*
X165801608Y-95947784D01*
X165840643Y-96006537D01*
X165884586Y-96067019D01*
X165892221Y-96084168D01*
X165899388Y-96094955D01*
X165928865Y-96166472D01*
X165961621Y-96240042D01*
X165964211Y-96252225D01*
X165966724Y-96258323D01*
X165983292Y-96341997D01*
X166000999Y-96425301D01*
X166000999Y-96614699D01*
X165998115Y-96628269D01*
X165998030Y-96634331D01*
X165979342Y-96716585D01*
X165961621Y-96799958D01*
X165959129Y-96805555D01*
X165959078Y-96805780D01*
X165887210Y-96967197D01*
X165887078Y-96967385D01*
X165884586Y-96972981D01*
X165834480Y-97041946D01*
X165785357Y-97111582D01*
X165780585Y-97116126D01*
X165773261Y-97126207D01*
X165713396Y-97180110D01*
X165657396Y-97233438D01*
X165646464Y-97240376D01*
X165632511Y-97252939D01*
X165567764Y-97290321D01*
X165508211Y-97328114D01*
X165490209Y-97335097D01*
X165468488Y-97347637D01*
X165403115Y-97368878D01*
X165343468Y-97392014D01*
X165318200Y-97396469D01*
X165288360Y-97406165D01*
X165226095Y-97412709D01*
X165169460Y-97422695D01*
X165137459Y-97422025D01*
X165100000Y-97425962D01*
X165043902Y-97420066D01*
X164992799Y-97418996D01*
X164955323Y-97410756D01*
X164911640Y-97406165D01*
X164863917Y-97390659D01*
X164820225Y-97381052D01*
X164779230Y-97363142D01*
X164731512Y-97347637D01*
X164693473Y-97325675D01*
X164658310Y-97310313D01*
X164616337Y-97281141D01*
X164567489Y-97252939D01*
X164539504Y-97227741D01*
X164513215Y-97209470D01*
X164473257Y-97168092D01*
X164426739Y-97126207D01*
X164408296Y-97100823D01*
X164390473Y-97082366D01*
X164355821Y-97028597D01*
X164315414Y-96972981D01*
X164305212Y-96950066D01*
X164294754Y-96933839D01*
X164268789Y-96868261D01*
X164238379Y-96799958D01*
X164234476Y-96781596D01*
X164229707Y-96769551D01*
X164215740Y-96693448D01*
X164199001Y-96614699D01*
X164199001Y-96602246D01*
X164197811Y-96595762D01*
X164199001Y-96510535D01*
X164199001Y-96425301D01*
X164200275Y-96419308D01*
X164200278Y-96419077D01*
X164237015Y-96246246D01*
X164237105Y-96246036D01*
X164238379Y-96240042D01*
X164273042Y-96162188D01*
X164306622Y-96083839D01*
X164310348Y-96078397D01*
X164315414Y-96067019D01*
X164362746Y-96001872D01*
X164406452Y-95938041D01*
X164415706Y-95928979D01*
X164426739Y-95913793D01*
X164482297Y-95863769D01*
X164532693Y-95814417D01*
X164548848Y-95803846D01*
X164567489Y-95787061D01*
X164627026Y-95752687D01*
X164680551Y-95717662D01*
X164704340Y-95708050D01*
X164731512Y-95692363D01*
X164791045Y-95673019D01*
X164844376Y-95651472D01*
X164875820Y-95645474D01*
X164911640Y-95633835D01*
X164967744Y-95627938D01*
X165017945Y-95618362D01*
X165056312Y-95618630D01*
X165100000Y-95614038D01*
X165149902Y-95619283D01*
G37*
G36*
X167689902Y-95619283D02*
G01*
X167734637Y-95619595D01*
X167778460Y-95628590D01*
X167828360Y-95633835D01*
X167870132Y-95647408D01*
X167907723Y-95655124D01*
X167954851Y-95674935D01*
X168008488Y-95692363D01*
X168041099Y-95711191D01*
X168070614Y-95723598D01*
X168118301Y-95755763D01*
X168172511Y-95787061D01*
X168195826Y-95808054D01*
X168217101Y-95822404D01*
X168262183Y-95867802D01*
X168313261Y-95913793D01*
X168328003Y-95934083D01*
X168341608Y-95947784D01*
X168380643Y-96006537D01*
X168424586Y-96067019D01*
X168432221Y-96084168D01*
X168439388Y-96094955D01*
X168468865Y-96166472D01*
X168501621Y-96240042D01*
X168504211Y-96252225D01*
X168506724Y-96258323D01*
X168523292Y-96341997D01*
X168540999Y-96425301D01*
X168540999Y-96614699D01*
X168538115Y-96628269D01*
X168538030Y-96634331D01*
X168519342Y-96716585D01*
X168501621Y-96799958D01*
X168499129Y-96805555D01*
X168499078Y-96805780D01*
X168427210Y-96967197D01*
X168427078Y-96967385D01*
X168424586Y-96972981D01*
X168374480Y-97041946D01*
X168325357Y-97111582D01*
X168320585Y-97116126D01*
X168313261Y-97126207D01*
X168253396Y-97180110D01*
X168197396Y-97233438D01*
X168186464Y-97240376D01*
X168172511Y-97252939D01*
X168107764Y-97290321D01*
X168048211Y-97328114D01*
X168030209Y-97335097D01*
X168008488Y-97347637D01*
X167943115Y-97368878D01*
X167883468Y-97392014D01*
X167858200Y-97396469D01*
X167828360Y-97406165D01*
X167766095Y-97412709D01*
X167709460Y-97422695D01*
X167677459Y-97422025D01*
X167640000Y-97425962D01*
X167583902Y-97420066D01*
X167532799Y-97418996D01*
X167495323Y-97410756D01*
X167451640Y-97406165D01*
X167403917Y-97390659D01*
X167360225Y-97381052D01*
X167319230Y-97363142D01*
X167271512Y-97347637D01*
X167233473Y-97325675D01*
X167198310Y-97310313D01*
X167156337Y-97281141D01*
X167107489Y-97252939D01*
X167079504Y-97227741D01*
X167053215Y-97209470D01*
X167013257Y-97168092D01*
X166966739Y-97126207D01*
X166948296Y-97100823D01*
X166930473Y-97082366D01*
X166895821Y-97028597D01*
X166855414Y-96972981D01*
X166845212Y-96950066D01*
X166834754Y-96933839D01*
X166808789Y-96868261D01*
X166778379Y-96799958D01*
X166774476Y-96781596D01*
X166769707Y-96769551D01*
X166755740Y-96693448D01*
X166739001Y-96614699D01*
X166739001Y-96602246D01*
X166737811Y-96595762D01*
X166739001Y-96510535D01*
X166739001Y-96425301D01*
X166740275Y-96419308D01*
X166740278Y-96419077D01*
X166777015Y-96246246D01*
X166777105Y-96246036D01*
X166778379Y-96240042D01*
X166813042Y-96162188D01*
X166846622Y-96083839D01*
X166850348Y-96078397D01*
X166855414Y-96067019D01*
X166902746Y-96001872D01*
X166946452Y-95938041D01*
X166955706Y-95928979D01*
X166966739Y-95913793D01*
X167022297Y-95863769D01*
X167072693Y-95814417D01*
X167088848Y-95803846D01*
X167107489Y-95787061D01*
X167167026Y-95752687D01*
X167220551Y-95717662D01*
X167244340Y-95708050D01*
X167271512Y-95692363D01*
X167331045Y-95673019D01*
X167384376Y-95651472D01*
X167415820Y-95645474D01*
X167451640Y-95633835D01*
X167507744Y-95627938D01*
X167557945Y-95618362D01*
X167596312Y-95618630D01*
X167640000Y-95614038D01*
X167689902Y-95619283D01*
G37*
G36*
X160069902Y-95619283D02*
G01*
X160114637Y-95619595D01*
X160158460Y-95628590D01*
X160208360Y-95633835D01*
X160250132Y-95647408D01*
X160287723Y-95655124D01*
X160334851Y-95674935D01*
X160388488Y-95692363D01*
X160421099Y-95711191D01*
X160450614Y-95723598D01*
X160498301Y-95755763D01*
X160552511Y-95787061D01*
X160575826Y-95808054D01*
X160597101Y-95822404D01*
X160642183Y-95867802D01*
X160693261Y-95913793D01*
X160708003Y-95934083D01*
X160721608Y-95947784D01*
X160760643Y-96006537D01*
X160804586Y-96067019D01*
X160812221Y-96084168D01*
X160819388Y-96094955D01*
X160848865Y-96166472D01*
X160881621Y-96240042D01*
X160884211Y-96252225D01*
X160886724Y-96258323D01*
X160903292Y-96341997D01*
X160920999Y-96425301D01*
X160920999Y-96614699D01*
X160918115Y-96628269D01*
X160918030Y-96634331D01*
X160899342Y-96716585D01*
X160881621Y-96799958D01*
X160879129Y-96805555D01*
X160879078Y-96805780D01*
X160807210Y-96967197D01*
X160807078Y-96967385D01*
X160804586Y-96972981D01*
X160754480Y-97041946D01*
X160705357Y-97111582D01*
X160700585Y-97116126D01*
X160693261Y-97126207D01*
X160633396Y-97180110D01*
X160577396Y-97233438D01*
X160566464Y-97240376D01*
X160552511Y-97252939D01*
X160487764Y-97290321D01*
X160428211Y-97328114D01*
X160410209Y-97335097D01*
X160388488Y-97347637D01*
X160323115Y-97368878D01*
X160263468Y-97392014D01*
X160238200Y-97396469D01*
X160208360Y-97406165D01*
X160146095Y-97412709D01*
X160089460Y-97422695D01*
X160057459Y-97422025D01*
X160020000Y-97425962D01*
X159963902Y-97420066D01*
X159912799Y-97418996D01*
X159875323Y-97410756D01*
X159831640Y-97406165D01*
X159783917Y-97390659D01*
X159740225Y-97381052D01*
X159699230Y-97363142D01*
X159651512Y-97347637D01*
X159613473Y-97325675D01*
X159578310Y-97310313D01*
X159536337Y-97281141D01*
X159487489Y-97252939D01*
X159459504Y-97227741D01*
X159433215Y-97209470D01*
X159393257Y-97168092D01*
X159346739Y-97126207D01*
X159328296Y-97100823D01*
X159310473Y-97082366D01*
X159275821Y-97028597D01*
X159235414Y-96972981D01*
X159225212Y-96950066D01*
X159214754Y-96933839D01*
X159188789Y-96868261D01*
X159158379Y-96799958D01*
X159154476Y-96781596D01*
X159149707Y-96769551D01*
X159135740Y-96693448D01*
X159119001Y-96614699D01*
X159119001Y-96602246D01*
X159117811Y-96595762D01*
X159119001Y-96510535D01*
X159119001Y-96425301D01*
X159120275Y-96419308D01*
X159120278Y-96419077D01*
X159157015Y-96246246D01*
X159157105Y-96246036D01*
X159158379Y-96240042D01*
X159193042Y-96162188D01*
X159226622Y-96083839D01*
X159230348Y-96078397D01*
X159235414Y-96067019D01*
X159282746Y-96001872D01*
X159326452Y-95938041D01*
X159335706Y-95928979D01*
X159346739Y-95913793D01*
X159402297Y-95863769D01*
X159452693Y-95814417D01*
X159468848Y-95803846D01*
X159487489Y-95787061D01*
X159547026Y-95752687D01*
X159600551Y-95717662D01*
X159624340Y-95708050D01*
X159651512Y-95692363D01*
X159711045Y-95673019D01*
X159764376Y-95651472D01*
X159795820Y-95645474D01*
X159831640Y-95633835D01*
X159887744Y-95627938D01*
X159937945Y-95618362D01*
X159976312Y-95618630D01*
X160020000Y-95614038D01*
X160069902Y-95619283D01*
G37*
G36*
X170229902Y-95619283D02*
G01*
X170274637Y-95619595D01*
X170318460Y-95628590D01*
X170368360Y-95633835D01*
X170410132Y-95647408D01*
X170447723Y-95655124D01*
X170494851Y-95674935D01*
X170548488Y-95692363D01*
X170581099Y-95711191D01*
X170610614Y-95723598D01*
X170658301Y-95755763D01*
X170712511Y-95787061D01*
X170735826Y-95808054D01*
X170757101Y-95822404D01*
X170802183Y-95867802D01*
X170853261Y-95913793D01*
X170868003Y-95934083D01*
X170881608Y-95947784D01*
X170920643Y-96006537D01*
X170964586Y-96067019D01*
X170972221Y-96084168D01*
X170979388Y-96094955D01*
X171008865Y-96166472D01*
X171041621Y-96240042D01*
X171044211Y-96252225D01*
X171046724Y-96258323D01*
X171063292Y-96341997D01*
X171080999Y-96425301D01*
X171080999Y-96614699D01*
X171078115Y-96628269D01*
X171078030Y-96634331D01*
X171059342Y-96716585D01*
X171041621Y-96799958D01*
X171039129Y-96805555D01*
X171039078Y-96805780D01*
X170967210Y-96967197D01*
X170967078Y-96967385D01*
X170964586Y-96972981D01*
X170914480Y-97041946D01*
X170865357Y-97111582D01*
X170860585Y-97116126D01*
X170853261Y-97126207D01*
X170793396Y-97180110D01*
X170737396Y-97233438D01*
X170726464Y-97240376D01*
X170712511Y-97252939D01*
X170647764Y-97290321D01*
X170588211Y-97328114D01*
X170570209Y-97335097D01*
X170548488Y-97347637D01*
X170483115Y-97368878D01*
X170423468Y-97392014D01*
X170398200Y-97396469D01*
X170368360Y-97406165D01*
X170306095Y-97412709D01*
X170249460Y-97422695D01*
X170217459Y-97422025D01*
X170180000Y-97425962D01*
X170123902Y-97420066D01*
X170072799Y-97418996D01*
X170035323Y-97410756D01*
X169991640Y-97406165D01*
X169943917Y-97390659D01*
X169900225Y-97381052D01*
X169859230Y-97363142D01*
X169811512Y-97347637D01*
X169773473Y-97325675D01*
X169738310Y-97310313D01*
X169696337Y-97281141D01*
X169647489Y-97252939D01*
X169619504Y-97227741D01*
X169593215Y-97209470D01*
X169553257Y-97168092D01*
X169506739Y-97126207D01*
X169488296Y-97100823D01*
X169470473Y-97082366D01*
X169435821Y-97028597D01*
X169395414Y-96972981D01*
X169385212Y-96950066D01*
X169374754Y-96933839D01*
X169348789Y-96868261D01*
X169318379Y-96799958D01*
X169314476Y-96781596D01*
X169309707Y-96769551D01*
X169295740Y-96693448D01*
X169279001Y-96614699D01*
X169279001Y-96602246D01*
X169277811Y-96595762D01*
X169279001Y-96510535D01*
X169279001Y-96425301D01*
X169280275Y-96419308D01*
X169280278Y-96419077D01*
X169317015Y-96246246D01*
X169317105Y-96246036D01*
X169318379Y-96240042D01*
X169353042Y-96162188D01*
X169386622Y-96083839D01*
X169390348Y-96078397D01*
X169395414Y-96067019D01*
X169442746Y-96001872D01*
X169486452Y-95938041D01*
X169495706Y-95928979D01*
X169506739Y-95913793D01*
X169562297Y-95863769D01*
X169612693Y-95814417D01*
X169628848Y-95803846D01*
X169647489Y-95787061D01*
X169707026Y-95752687D01*
X169760551Y-95717662D01*
X169784340Y-95708050D01*
X169811512Y-95692363D01*
X169871045Y-95673019D01*
X169924376Y-95651472D01*
X169955820Y-95645474D01*
X169991640Y-95633835D01*
X170047744Y-95627938D01*
X170097945Y-95618362D01*
X170136312Y-95618630D01*
X170180000Y-95614038D01*
X170229902Y-95619283D01*
G37*
G36*
X154989902Y-95619283D02*
G01*
X155034637Y-95619595D01*
X155078460Y-95628590D01*
X155128360Y-95633835D01*
X155170132Y-95647408D01*
X155207723Y-95655124D01*
X155254851Y-95674935D01*
X155308488Y-95692363D01*
X155341099Y-95711191D01*
X155370614Y-95723598D01*
X155418301Y-95755763D01*
X155472511Y-95787061D01*
X155495826Y-95808054D01*
X155517101Y-95822404D01*
X155562183Y-95867802D01*
X155613261Y-95913793D01*
X155628003Y-95934083D01*
X155641608Y-95947784D01*
X155680643Y-96006537D01*
X155724586Y-96067019D01*
X155732221Y-96084168D01*
X155739388Y-96094955D01*
X155768865Y-96166472D01*
X155801621Y-96240042D01*
X155804211Y-96252225D01*
X155806724Y-96258323D01*
X155823292Y-96341997D01*
X155840999Y-96425301D01*
X155840999Y-96614699D01*
X155838115Y-96628269D01*
X155838030Y-96634331D01*
X155819342Y-96716585D01*
X155801621Y-96799958D01*
X155799129Y-96805555D01*
X155799078Y-96805780D01*
X155727210Y-96967197D01*
X155727078Y-96967385D01*
X155724586Y-96972981D01*
X155674480Y-97041946D01*
X155625357Y-97111582D01*
X155620585Y-97116126D01*
X155613261Y-97126207D01*
X155553396Y-97180110D01*
X155497396Y-97233438D01*
X155486464Y-97240376D01*
X155472511Y-97252939D01*
X155407764Y-97290321D01*
X155348211Y-97328114D01*
X155330209Y-97335097D01*
X155308488Y-97347637D01*
X155243115Y-97368878D01*
X155183468Y-97392014D01*
X155158200Y-97396469D01*
X155128360Y-97406165D01*
X155066095Y-97412709D01*
X155009460Y-97422695D01*
X154977459Y-97422025D01*
X154940000Y-97425962D01*
X154883902Y-97420066D01*
X154832799Y-97418996D01*
X154795323Y-97410756D01*
X154751640Y-97406165D01*
X154703917Y-97390659D01*
X154660225Y-97381052D01*
X154619230Y-97363142D01*
X154571512Y-97347637D01*
X154533473Y-97325675D01*
X154498310Y-97310313D01*
X154456337Y-97281141D01*
X154407489Y-97252939D01*
X154379504Y-97227741D01*
X154353215Y-97209470D01*
X154313257Y-97168092D01*
X154266739Y-97126207D01*
X154248296Y-97100823D01*
X154230473Y-97082366D01*
X154195821Y-97028597D01*
X154155414Y-96972981D01*
X154145212Y-96950066D01*
X154134754Y-96933839D01*
X154108789Y-96868261D01*
X154078379Y-96799958D01*
X154074476Y-96781596D01*
X154069707Y-96769551D01*
X154055740Y-96693448D01*
X154039001Y-96614699D01*
X154039001Y-96602246D01*
X154037811Y-96595762D01*
X154039001Y-96510535D01*
X154039001Y-96425301D01*
X154040275Y-96419308D01*
X154040278Y-96419077D01*
X154077015Y-96246246D01*
X154077105Y-96246036D01*
X154078379Y-96240042D01*
X154113042Y-96162188D01*
X154146622Y-96083839D01*
X154150348Y-96078397D01*
X154155414Y-96067019D01*
X154202746Y-96001872D01*
X154246452Y-95938041D01*
X154255706Y-95928979D01*
X154266739Y-95913793D01*
X154322297Y-95863769D01*
X154372693Y-95814417D01*
X154388848Y-95803846D01*
X154407489Y-95787061D01*
X154467026Y-95752687D01*
X154520551Y-95717662D01*
X154544340Y-95708050D01*
X154571512Y-95692363D01*
X154631045Y-95673019D01*
X154684376Y-95651472D01*
X154715820Y-95645474D01*
X154751640Y-95633835D01*
X154807744Y-95627938D01*
X154857945Y-95618362D01*
X154896312Y-95618630D01*
X154940000Y-95614038D01*
X154989902Y-95619283D01*
G37*
G36*
X137209902Y-95619283D02*
G01*
X137254637Y-95619595D01*
X137298460Y-95628590D01*
X137348360Y-95633835D01*
X137390132Y-95647408D01*
X137427723Y-95655124D01*
X137474851Y-95674935D01*
X137528488Y-95692363D01*
X137561099Y-95711191D01*
X137590614Y-95723598D01*
X137638301Y-95755763D01*
X137692511Y-95787061D01*
X137715826Y-95808054D01*
X137737101Y-95822404D01*
X137782183Y-95867802D01*
X137833261Y-95913793D01*
X137848003Y-95934083D01*
X137861608Y-95947784D01*
X137900643Y-96006537D01*
X137944586Y-96067019D01*
X137952221Y-96084168D01*
X137959388Y-96094955D01*
X137988865Y-96166472D01*
X138021621Y-96240042D01*
X138024211Y-96252225D01*
X138026724Y-96258323D01*
X138043292Y-96341997D01*
X138060999Y-96425301D01*
X138060999Y-96614699D01*
X138058115Y-96628269D01*
X138058030Y-96634331D01*
X138039342Y-96716585D01*
X138021621Y-96799958D01*
X138019129Y-96805555D01*
X138019078Y-96805780D01*
X137947210Y-96967197D01*
X137947078Y-96967385D01*
X137944586Y-96972981D01*
X137894480Y-97041946D01*
X137845357Y-97111582D01*
X137840585Y-97116126D01*
X137833261Y-97126207D01*
X137773396Y-97180110D01*
X137717396Y-97233438D01*
X137706464Y-97240376D01*
X137692511Y-97252939D01*
X137627764Y-97290321D01*
X137568211Y-97328114D01*
X137550209Y-97335097D01*
X137528488Y-97347637D01*
X137463115Y-97368878D01*
X137403468Y-97392014D01*
X137378200Y-97396469D01*
X137348360Y-97406165D01*
X137286095Y-97412709D01*
X137229460Y-97422695D01*
X137197459Y-97422025D01*
X137160000Y-97425962D01*
X137103902Y-97420066D01*
X137052799Y-97418996D01*
X137015323Y-97410756D01*
X136971640Y-97406165D01*
X136923917Y-97390659D01*
X136880225Y-97381052D01*
X136839230Y-97363142D01*
X136791512Y-97347637D01*
X136753473Y-97325675D01*
X136718310Y-97310313D01*
X136676337Y-97281141D01*
X136627489Y-97252939D01*
X136599504Y-97227741D01*
X136573215Y-97209470D01*
X136533257Y-97168092D01*
X136486739Y-97126207D01*
X136468296Y-97100823D01*
X136450473Y-97082366D01*
X136415821Y-97028597D01*
X136375414Y-96972981D01*
X136365212Y-96950066D01*
X136354754Y-96933839D01*
X136328789Y-96868261D01*
X136298379Y-96799958D01*
X136294476Y-96781596D01*
X136289707Y-96769551D01*
X136275740Y-96693448D01*
X136259001Y-96614699D01*
X136259001Y-96602246D01*
X136257811Y-96595762D01*
X136259001Y-96510535D01*
X136259001Y-96425301D01*
X136260275Y-96419308D01*
X136260278Y-96419077D01*
X136297015Y-96246246D01*
X136297105Y-96246036D01*
X136298379Y-96240042D01*
X136333042Y-96162188D01*
X136366622Y-96083839D01*
X136370348Y-96078397D01*
X136375414Y-96067019D01*
X136422746Y-96001872D01*
X136466452Y-95938041D01*
X136475706Y-95928979D01*
X136486739Y-95913793D01*
X136542297Y-95863769D01*
X136592693Y-95814417D01*
X136608848Y-95803846D01*
X136627489Y-95787061D01*
X136687026Y-95752687D01*
X136740551Y-95717662D01*
X136764340Y-95708050D01*
X136791512Y-95692363D01*
X136851045Y-95673019D01*
X136904376Y-95651472D01*
X136935820Y-95645474D01*
X136971640Y-95633835D01*
X137027744Y-95627938D01*
X137077945Y-95618362D01*
X137116312Y-95618630D01*
X137160000Y-95614038D01*
X137209902Y-95619283D01*
G37*
G36*
X172769902Y-95619283D02*
G01*
X172814637Y-95619595D01*
X172858460Y-95628590D01*
X172908360Y-95633835D01*
X172950132Y-95647408D01*
X172987723Y-95655124D01*
X173034851Y-95674935D01*
X173088488Y-95692363D01*
X173121099Y-95711191D01*
X173150614Y-95723598D01*
X173198301Y-95755763D01*
X173252511Y-95787061D01*
X173275826Y-95808054D01*
X173297101Y-95822404D01*
X173342183Y-95867802D01*
X173393261Y-95913793D01*
X173408003Y-95934083D01*
X173421608Y-95947784D01*
X173460643Y-96006537D01*
X173504586Y-96067019D01*
X173512221Y-96084168D01*
X173519388Y-96094955D01*
X173548865Y-96166472D01*
X173581621Y-96240042D01*
X173584211Y-96252225D01*
X173586724Y-96258323D01*
X173603292Y-96341997D01*
X173620999Y-96425301D01*
X173620999Y-96614699D01*
X173618115Y-96628269D01*
X173618030Y-96634331D01*
X173599342Y-96716585D01*
X173581621Y-96799958D01*
X173579129Y-96805555D01*
X173579078Y-96805780D01*
X173507210Y-96967197D01*
X173507078Y-96967385D01*
X173504586Y-96972981D01*
X173454480Y-97041946D01*
X173405357Y-97111582D01*
X173400585Y-97116126D01*
X173393261Y-97126207D01*
X173333396Y-97180110D01*
X173277396Y-97233438D01*
X173266464Y-97240376D01*
X173252511Y-97252939D01*
X173187764Y-97290321D01*
X173128211Y-97328114D01*
X173110209Y-97335097D01*
X173088488Y-97347637D01*
X173023115Y-97368878D01*
X172963468Y-97392014D01*
X172938200Y-97396469D01*
X172908360Y-97406165D01*
X172846095Y-97412709D01*
X172789460Y-97422695D01*
X172757459Y-97422025D01*
X172720000Y-97425962D01*
X172663902Y-97420066D01*
X172612799Y-97418996D01*
X172575323Y-97410756D01*
X172531640Y-97406165D01*
X172483917Y-97390659D01*
X172440225Y-97381052D01*
X172399230Y-97363142D01*
X172351512Y-97347637D01*
X172313473Y-97325675D01*
X172278310Y-97310313D01*
X172236337Y-97281141D01*
X172187489Y-97252939D01*
X172159504Y-97227741D01*
X172133215Y-97209470D01*
X172093257Y-97168092D01*
X172046739Y-97126207D01*
X172028296Y-97100823D01*
X172010473Y-97082366D01*
X171975821Y-97028597D01*
X171935414Y-96972981D01*
X171925212Y-96950066D01*
X171914754Y-96933839D01*
X171888789Y-96868261D01*
X171858379Y-96799958D01*
X171854476Y-96781596D01*
X171849707Y-96769551D01*
X171835740Y-96693448D01*
X171819001Y-96614699D01*
X171819001Y-96602246D01*
X171817811Y-96595762D01*
X171819001Y-96510535D01*
X171819001Y-96425301D01*
X171820275Y-96419308D01*
X171820278Y-96419077D01*
X171857015Y-96246246D01*
X171857105Y-96246036D01*
X171858379Y-96240042D01*
X171893042Y-96162188D01*
X171926622Y-96083839D01*
X171930348Y-96078397D01*
X171935414Y-96067019D01*
X171982746Y-96001872D01*
X172026452Y-95938041D01*
X172035706Y-95928979D01*
X172046739Y-95913793D01*
X172102297Y-95863769D01*
X172152693Y-95814417D01*
X172168848Y-95803846D01*
X172187489Y-95787061D01*
X172247026Y-95752687D01*
X172300551Y-95717662D01*
X172324340Y-95708050D01*
X172351512Y-95692363D01*
X172411045Y-95673019D01*
X172464376Y-95651472D01*
X172495820Y-95645474D01*
X172531640Y-95633835D01*
X172587744Y-95627938D01*
X172637945Y-95618362D01*
X172676312Y-95618630D01*
X172720000Y-95614038D01*
X172769902Y-95619283D01*
G37*
G36*
X142289902Y-95619283D02*
G01*
X142334637Y-95619595D01*
X142378460Y-95628590D01*
X142428360Y-95633835D01*
X142470132Y-95647408D01*
X142507723Y-95655124D01*
X142554851Y-95674935D01*
X142608488Y-95692363D01*
X142641099Y-95711191D01*
X142670614Y-95723598D01*
X142718301Y-95755763D01*
X142772511Y-95787061D01*
X142795826Y-95808054D01*
X142817101Y-95822404D01*
X142862183Y-95867802D01*
X142913261Y-95913793D01*
X142928003Y-95934083D01*
X142941608Y-95947784D01*
X142980643Y-96006537D01*
X143024586Y-96067019D01*
X143032221Y-96084168D01*
X143039388Y-96094955D01*
X143068865Y-96166472D01*
X143101621Y-96240042D01*
X143104211Y-96252225D01*
X143106724Y-96258323D01*
X143123292Y-96341997D01*
X143140999Y-96425301D01*
X143140999Y-96614699D01*
X143138115Y-96628269D01*
X143138030Y-96634331D01*
X143119342Y-96716585D01*
X143101621Y-96799958D01*
X143099129Y-96805555D01*
X143099078Y-96805780D01*
X143027210Y-96967197D01*
X143027078Y-96967385D01*
X143024586Y-96972981D01*
X142974480Y-97041946D01*
X142925357Y-97111582D01*
X142920585Y-97116126D01*
X142913261Y-97126207D01*
X142853396Y-97180110D01*
X142797396Y-97233438D01*
X142786464Y-97240376D01*
X142772511Y-97252939D01*
X142707764Y-97290321D01*
X142648211Y-97328114D01*
X142630209Y-97335097D01*
X142608488Y-97347637D01*
X142543115Y-97368878D01*
X142483468Y-97392014D01*
X142458200Y-97396469D01*
X142428360Y-97406165D01*
X142366095Y-97412709D01*
X142309460Y-97422695D01*
X142277459Y-97422025D01*
X142240000Y-97425962D01*
X142183902Y-97420066D01*
X142132799Y-97418996D01*
X142095323Y-97410756D01*
X142051640Y-97406165D01*
X142003917Y-97390659D01*
X141960225Y-97381052D01*
X141919230Y-97363142D01*
X141871512Y-97347637D01*
X141833473Y-97325675D01*
X141798310Y-97310313D01*
X141756337Y-97281141D01*
X141707489Y-97252939D01*
X141679504Y-97227741D01*
X141653215Y-97209470D01*
X141613257Y-97168092D01*
X141566739Y-97126207D01*
X141548296Y-97100823D01*
X141530473Y-97082366D01*
X141495821Y-97028597D01*
X141455414Y-96972981D01*
X141445212Y-96950066D01*
X141434754Y-96933839D01*
X141408789Y-96868261D01*
X141378379Y-96799958D01*
X141374476Y-96781596D01*
X141369707Y-96769551D01*
X141355740Y-96693448D01*
X141339001Y-96614699D01*
X141339001Y-96602246D01*
X141337811Y-96595762D01*
X141339001Y-96510535D01*
X141339001Y-96425301D01*
X141340275Y-96419308D01*
X141340278Y-96419077D01*
X141377015Y-96246246D01*
X141377105Y-96246036D01*
X141378379Y-96240042D01*
X141413042Y-96162188D01*
X141446622Y-96083839D01*
X141450348Y-96078397D01*
X141455414Y-96067019D01*
X141502746Y-96001872D01*
X141546452Y-95938041D01*
X141555706Y-95928979D01*
X141566739Y-95913793D01*
X141622297Y-95863769D01*
X141672693Y-95814417D01*
X141688848Y-95803846D01*
X141707489Y-95787061D01*
X141767026Y-95752687D01*
X141820551Y-95717662D01*
X141844340Y-95708050D01*
X141871512Y-95692363D01*
X141931045Y-95673019D01*
X141984376Y-95651472D01*
X142015820Y-95645474D01*
X142051640Y-95633835D01*
X142107744Y-95627938D01*
X142157945Y-95618362D01*
X142196312Y-95618630D01*
X142240000Y-95614038D01*
X142289902Y-95619283D01*
G37*
G36*
X175309902Y-95619283D02*
G01*
X175354637Y-95619595D01*
X175398460Y-95628590D01*
X175448360Y-95633835D01*
X175490132Y-95647408D01*
X175527723Y-95655124D01*
X175574851Y-95674935D01*
X175628488Y-95692363D01*
X175661099Y-95711191D01*
X175690614Y-95723598D01*
X175738301Y-95755763D01*
X175792511Y-95787061D01*
X175815826Y-95808054D01*
X175837101Y-95822404D01*
X175882183Y-95867802D01*
X175933261Y-95913793D01*
X175948003Y-95934083D01*
X175961608Y-95947784D01*
X176000643Y-96006537D01*
X176044586Y-96067019D01*
X176052221Y-96084168D01*
X176059388Y-96094955D01*
X176088865Y-96166472D01*
X176121621Y-96240042D01*
X176124211Y-96252225D01*
X176126724Y-96258323D01*
X176143292Y-96341997D01*
X176160999Y-96425301D01*
X176160999Y-96614699D01*
X176158115Y-96628269D01*
X176158030Y-96634331D01*
X176139342Y-96716585D01*
X176121621Y-96799958D01*
X176119129Y-96805555D01*
X176119078Y-96805780D01*
X176047210Y-96967197D01*
X176047078Y-96967385D01*
X176044586Y-96972981D01*
X175994480Y-97041946D01*
X175945357Y-97111582D01*
X175940585Y-97116126D01*
X175933261Y-97126207D01*
X175873396Y-97180110D01*
X175817396Y-97233438D01*
X175806464Y-97240376D01*
X175792511Y-97252939D01*
X175727764Y-97290321D01*
X175668211Y-97328114D01*
X175650209Y-97335097D01*
X175628488Y-97347637D01*
X175563115Y-97368878D01*
X175503468Y-97392014D01*
X175478200Y-97396469D01*
X175448360Y-97406165D01*
X175386095Y-97412709D01*
X175329460Y-97422695D01*
X175297459Y-97422025D01*
X175260000Y-97425962D01*
X175203902Y-97420066D01*
X175152799Y-97418996D01*
X175115323Y-97410756D01*
X175071640Y-97406165D01*
X175023917Y-97390659D01*
X174980225Y-97381052D01*
X174939230Y-97363142D01*
X174891512Y-97347637D01*
X174853473Y-97325675D01*
X174818310Y-97310313D01*
X174776337Y-97281141D01*
X174727489Y-97252939D01*
X174699504Y-97227741D01*
X174673215Y-97209470D01*
X174633257Y-97168092D01*
X174586739Y-97126207D01*
X174568296Y-97100823D01*
X174550473Y-97082366D01*
X174515821Y-97028597D01*
X174475414Y-96972981D01*
X174465212Y-96950066D01*
X174454754Y-96933839D01*
X174428789Y-96868261D01*
X174398379Y-96799958D01*
X174394476Y-96781596D01*
X174389707Y-96769551D01*
X174375740Y-96693448D01*
X174359001Y-96614699D01*
X174359001Y-96602246D01*
X174357811Y-96595762D01*
X174359001Y-96510535D01*
X174359001Y-96425301D01*
X174360275Y-96419308D01*
X174360278Y-96419077D01*
X174397015Y-96246246D01*
X174397105Y-96246036D01*
X174398379Y-96240042D01*
X174433042Y-96162188D01*
X174466622Y-96083839D01*
X174470348Y-96078397D01*
X174475414Y-96067019D01*
X174522746Y-96001872D01*
X174566452Y-95938041D01*
X174575706Y-95928979D01*
X174586739Y-95913793D01*
X174642297Y-95863769D01*
X174692693Y-95814417D01*
X174708848Y-95803846D01*
X174727489Y-95787061D01*
X174787026Y-95752687D01*
X174840551Y-95717662D01*
X174864340Y-95708050D01*
X174891512Y-95692363D01*
X174951045Y-95673019D01*
X175004376Y-95651472D01*
X175035820Y-95645474D01*
X175071640Y-95633835D01*
X175127744Y-95627938D01*
X175177945Y-95618362D01*
X175216312Y-95618630D01*
X175260000Y-95614038D01*
X175309902Y-95619283D01*
G37*
G36*
X152449902Y-95619283D02*
G01*
X152494637Y-95619595D01*
X152538460Y-95628590D01*
X152588360Y-95633835D01*
X152630132Y-95647408D01*
X152667723Y-95655124D01*
X152714851Y-95674935D01*
X152768488Y-95692363D01*
X152801099Y-95711191D01*
X152830614Y-95723598D01*
X152878301Y-95755763D01*
X152932511Y-95787061D01*
X152955826Y-95808054D01*
X152977101Y-95822404D01*
X153022183Y-95867802D01*
X153073261Y-95913793D01*
X153088003Y-95934083D01*
X153101608Y-95947784D01*
X153140643Y-96006537D01*
X153184586Y-96067019D01*
X153192221Y-96084168D01*
X153199388Y-96094955D01*
X153228865Y-96166472D01*
X153261621Y-96240042D01*
X153264211Y-96252225D01*
X153266724Y-96258323D01*
X153283292Y-96341997D01*
X153300999Y-96425301D01*
X153300999Y-96614699D01*
X153298115Y-96628269D01*
X153298030Y-96634331D01*
X153279342Y-96716585D01*
X153261621Y-96799958D01*
X153259129Y-96805555D01*
X153259078Y-96805780D01*
X153187210Y-96967197D01*
X153187078Y-96967385D01*
X153184586Y-96972981D01*
X153134480Y-97041946D01*
X153085357Y-97111582D01*
X153080585Y-97116126D01*
X153073261Y-97126207D01*
X153013396Y-97180110D01*
X152957396Y-97233438D01*
X152946464Y-97240376D01*
X152932511Y-97252939D01*
X152867764Y-97290321D01*
X152808211Y-97328114D01*
X152790209Y-97335097D01*
X152768488Y-97347637D01*
X152703115Y-97368878D01*
X152643468Y-97392014D01*
X152618200Y-97396469D01*
X152588360Y-97406165D01*
X152526095Y-97412709D01*
X152469460Y-97422695D01*
X152437459Y-97422025D01*
X152400000Y-97425962D01*
X152343902Y-97420066D01*
X152292799Y-97418996D01*
X152255323Y-97410756D01*
X152211640Y-97406165D01*
X152163917Y-97390659D01*
X152120225Y-97381052D01*
X152079230Y-97363142D01*
X152031512Y-97347637D01*
X151993473Y-97325675D01*
X151958310Y-97310313D01*
X151916337Y-97281141D01*
X151867489Y-97252939D01*
X151839504Y-97227741D01*
X151813215Y-97209470D01*
X151773257Y-97168092D01*
X151726739Y-97126207D01*
X151708296Y-97100823D01*
X151690473Y-97082366D01*
X151655821Y-97028597D01*
X151615414Y-96972981D01*
X151605212Y-96950066D01*
X151594754Y-96933839D01*
X151568789Y-96868261D01*
X151538379Y-96799958D01*
X151534476Y-96781596D01*
X151529707Y-96769551D01*
X151515740Y-96693448D01*
X151499001Y-96614699D01*
X151499001Y-96602246D01*
X151497811Y-96595762D01*
X151499001Y-96510535D01*
X151499001Y-96425301D01*
X151500275Y-96419308D01*
X151500278Y-96419077D01*
X151537015Y-96246246D01*
X151537105Y-96246036D01*
X151538379Y-96240042D01*
X151573042Y-96162188D01*
X151606622Y-96083839D01*
X151610348Y-96078397D01*
X151615414Y-96067019D01*
X151662746Y-96001872D01*
X151706452Y-95938041D01*
X151715706Y-95928979D01*
X151726739Y-95913793D01*
X151782297Y-95863769D01*
X151832693Y-95814417D01*
X151848848Y-95803846D01*
X151867489Y-95787061D01*
X151927026Y-95752687D01*
X151980551Y-95717662D01*
X152004340Y-95708050D01*
X152031512Y-95692363D01*
X152091045Y-95673019D01*
X152144376Y-95651472D01*
X152175820Y-95645474D01*
X152211640Y-95633835D01*
X152267744Y-95627938D01*
X152317945Y-95618362D01*
X152356312Y-95618630D01*
X152400000Y-95614038D01*
X152449902Y-95619283D01*
G37*
G36*
X177849902Y-95619283D02*
G01*
X177894637Y-95619595D01*
X177938460Y-95628590D01*
X177988360Y-95633835D01*
X178030132Y-95647408D01*
X178067723Y-95655124D01*
X178114851Y-95674935D01*
X178168488Y-95692363D01*
X178201099Y-95711191D01*
X178230614Y-95723598D01*
X178278301Y-95755763D01*
X178332511Y-95787061D01*
X178355826Y-95808054D01*
X178377101Y-95822404D01*
X178422183Y-95867802D01*
X178473261Y-95913793D01*
X178488003Y-95934083D01*
X178501608Y-95947784D01*
X178540643Y-96006537D01*
X178584586Y-96067019D01*
X178592221Y-96084168D01*
X178599388Y-96094955D01*
X178628865Y-96166472D01*
X178661621Y-96240042D01*
X178664211Y-96252225D01*
X178666724Y-96258323D01*
X178683292Y-96341997D01*
X178700999Y-96425301D01*
X178700999Y-96614699D01*
X178698115Y-96628269D01*
X178698030Y-96634331D01*
X178679342Y-96716585D01*
X178661621Y-96799958D01*
X178659129Y-96805555D01*
X178659078Y-96805780D01*
X178587210Y-96967197D01*
X178587078Y-96967385D01*
X178584586Y-96972981D01*
X178534480Y-97041946D01*
X178485357Y-97111582D01*
X178480585Y-97116126D01*
X178473261Y-97126207D01*
X178413396Y-97180110D01*
X178357396Y-97233438D01*
X178346464Y-97240376D01*
X178332511Y-97252939D01*
X178267764Y-97290321D01*
X178208211Y-97328114D01*
X178190209Y-97335097D01*
X178168488Y-97347637D01*
X178103115Y-97368878D01*
X178043468Y-97392014D01*
X178018200Y-97396469D01*
X177988360Y-97406165D01*
X177926095Y-97412709D01*
X177869460Y-97422695D01*
X177837459Y-97422025D01*
X177800000Y-97425962D01*
X177743902Y-97420066D01*
X177692799Y-97418996D01*
X177655323Y-97410756D01*
X177611640Y-97406165D01*
X177563917Y-97390659D01*
X177520225Y-97381052D01*
X177479230Y-97363142D01*
X177431512Y-97347637D01*
X177393473Y-97325675D01*
X177358310Y-97310313D01*
X177316337Y-97281141D01*
X177267489Y-97252939D01*
X177239504Y-97227741D01*
X177213215Y-97209470D01*
X177173257Y-97168092D01*
X177126739Y-97126207D01*
X177108296Y-97100823D01*
X177090473Y-97082366D01*
X177055821Y-97028597D01*
X177015414Y-96972981D01*
X177005212Y-96950066D01*
X176994754Y-96933839D01*
X176968789Y-96868261D01*
X176938379Y-96799958D01*
X176934476Y-96781596D01*
X176929707Y-96769551D01*
X176915740Y-96693448D01*
X176899001Y-96614699D01*
X176899001Y-96602246D01*
X176897811Y-96595762D01*
X176899001Y-96510535D01*
X176899001Y-96425301D01*
X176900275Y-96419308D01*
X176900278Y-96419077D01*
X176937015Y-96246246D01*
X176937105Y-96246036D01*
X176938379Y-96240042D01*
X176973042Y-96162188D01*
X177006622Y-96083839D01*
X177010348Y-96078397D01*
X177015414Y-96067019D01*
X177062746Y-96001872D01*
X177106452Y-95938041D01*
X177115706Y-95928979D01*
X177126739Y-95913793D01*
X177182297Y-95863769D01*
X177232693Y-95814417D01*
X177248848Y-95803846D01*
X177267489Y-95787061D01*
X177327026Y-95752687D01*
X177380551Y-95717662D01*
X177404340Y-95708050D01*
X177431512Y-95692363D01*
X177491045Y-95673019D01*
X177544376Y-95651472D01*
X177575820Y-95645474D01*
X177611640Y-95633835D01*
X177667744Y-95627938D01*
X177717945Y-95618362D01*
X177756312Y-95618630D01*
X177800000Y-95614038D01*
X177849902Y-95619283D01*
G37*
G36*
X134669902Y-95619283D02*
G01*
X134714637Y-95619595D01*
X134758460Y-95628590D01*
X134808360Y-95633835D01*
X134850132Y-95647408D01*
X134887723Y-95655124D01*
X134934851Y-95674935D01*
X134988488Y-95692363D01*
X135021099Y-95711191D01*
X135050614Y-95723598D01*
X135098301Y-95755763D01*
X135152511Y-95787061D01*
X135175826Y-95808054D01*
X135197101Y-95822404D01*
X135242183Y-95867802D01*
X135293261Y-95913793D01*
X135308003Y-95934083D01*
X135321608Y-95947784D01*
X135360643Y-96006537D01*
X135404586Y-96067019D01*
X135412221Y-96084168D01*
X135419388Y-96094955D01*
X135448865Y-96166472D01*
X135481621Y-96240042D01*
X135484211Y-96252225D01*
X135486724Y-96258323D01*
X135503292Y-96341997D01*
X135520999Y-96425301D01*
X135520999Y-96614699D01*
X135518115Y-96628269D01*
X135518030Y-96634331D01*
X135499342Y-96716585D01*
X135481621Y-96799958D01*
X135479129Y-96805555D01*
X135479078Y-96805780D01*
X135407210Y-96967197D01*
X135407078Y-96967385D01*
X135404586Y-96972981D01*
X135354480Y-97041946D01*
X135305357Y-97111582D01*
X135300585Y-97116126D01*
X135293261Y-97126207D01*
X135233396Y-97180110D01*
X135177396Y-97233438D01*
X135166464Y-97240376D01*
X135152511Y-97252939D01*
X135087764Y-97290321D01*
X135028211Y-97328114D01*
X135010209Y-97335097D01*
X134988488Y-97347637D01*
X134923115Y-97368878D01*
X134863468Y-97392014D01*
X134838200Y-97396469D01*
X134808360Y-97406165D01*
X134746095Y-97412709D01*
X134689460Y-97422695D01*
X134657459Y-97422025D01*
X134620000Y-97425962D01*
X134563902Y-97420066D01*
X134512799Y-97418996D01*
X134475323Y-97410756D01*
X134431640Y-97406165D01*
X134383917Y-97390659D01*
X134340225Y-97381052D01*
X134299230Y-97363142D01*
X134251512Y-97347637D01*
X134213473Y-97325675D01*
X134178310Y-97310313D01*
X134136337Y-97281141D01*
X134087489Y-97252939D01*
X134059504Y-97227741D01*
X134033215Y-97209470D01*
X133993257Y-97168092D01*
X133946739Y-97126207D01*
X133928296Y-97100823D01*
X133910473Y-97082366D01*
X133875821Y-97028597D01*
X133835414Y-96972981D01*
X133825212Y-96950066D01*
X133814754Y-96933839D01*
X133788789Y-96868261D01*
X133758379Y-96799958D01*
X133754476Y-96781596D01*
X133749707Y-96769551D01*
X133735740Y-96693448D01*
X133719001Y-96614699D01*
X133719001Y-96602246D01*
X133717811Y-96595762D01*
X133719001Y-96510535D01*
X133719001Y-96425301D01*
X133720275Y-96419308D01*
X133720278Y-96419077D01*
X133757015Y-96246246D01*
X133757105Y-96246036D01*
X133758379Y-96240042D01*
X133793042Y-96162188D01*
X133826622Y-96083839D01*
X133830348Y-96078397D01*
X133835414Y-96067019D01*
X133882746Y-96001872D01*
X133926452Y-95938041D01*
X133935706Y-95928979D01*
X133946739Y-95913793D01*
X134002297Y-95863769D01*
X134052693Y-95814417D01*
X134068848Y-95803846D01*
X134087489Y-95787061D01*
X134147026Y-95752687D01*
X134200551Y-95717662D01*
X134224340Y-95708050D01*
X134251512Y-95692363D01*
X134311045Y-95673019D01*
X134364376Y-95651472D01*
X134395820Y-95645474D01*
X134431640Y-95633835D01*
X134487744Y-95627938D01*
X134537945Y-95618362D01*
X134576312Y-95618630D01*
X134620000Y-95614038D01*
X134669902Y-95619283D01*
G37*
G36*
X180389902Y-95619283D02*
G01*
X180434637Y-95619595D01*
X180478460Y-95628590D01*
X180528360Y-95633835D01*
X180570132Y-95647408D01*
X180607723Y-95655124D01*
X180654851Y-95674935D01*
X180708488Y-95692363D01*
X180741099Y-95711191D01*
X180770614Y-95723598D01*
X180818301Y-95755763D01*
X180872511Y-95787061D01*
X180895826Y-95808054D01*
X180917101Y-95822404D01*
X180962183Y-95867802D01*
X181013261Y-95913793D01*
X181028003Y-95934083D01*
X181041608Y-95947784D01*
X181080643Y-96006537D01*
X181124586Y-96067019D01*
X181132221Y-96084168D01*
X181139388Y-96094955D01*
X181168865Y-96166472D01*
X181201621Y-96240042D01*
X181204211Y-96252225D01*
X181206724Y-96258323D01*
X181223292Y-96341997D01*
X181240999Y-96425301D01*
X181240999Y-96614699D01*
X181238115Y-96628269D01*
X181238030Y-96634331D01*
X181219342Y-96716585D01*
X181201621Y-96799958D01*
X181199129Y-96805555D01*
X181199078Y-96805780D01*
X181127210Y-96967197D01*
X181127078Y-96967385D01*
X181124586Y-96972981D01*
X181074480Y-97041946D01*
X181025357Y-97111582D01*
X181020585Y-97116126D01*
X181013261Y-97126207D01*
X180953396Y-97180110D01*
X180897396Y-97233438D01*
X180886464Y-97240376D01*
X180872511Y-97252939D01*
X180807764Y-97290321D01*
X180748211Y-97328114D01*
X180730209Y-97335097D01*
X180708488Y-97347637D01*
X180643115Y-97368878D01*
X180583468Y-97392014D01*
X180558200Y-97396469D01*
X180528360Y-97406165D01*
X180466095Y-97412709D01*
X180409460Y-97422695D01*
X180377459Y-97422025D01*
X180340000Y-97425962D01*
X180283902Y-97420066D01*
X180232799Y-97418996D01*
X180195323Y-97410756D01*
X180151640Y-97406165D01*
X180103917Y-97390659D01*
X180060225Y-97381052D01*
X180019230Y-97363142D01*
X179971512Y-97347637D01*
X179933473Y-97325675D01*
X179898310Y-97310313D01*
X179856337Y-97281141D01*
X179807489Y-97252939D01*
X179779504Y-97227741D01*
X179753215Y-97209470D01*
X179713257Y-97168092D01*
X179666739Y-97126207D01*
X179648296Y-97100823D01*
X179630473Y-97082366D01*
X179595821Y-97028597D01*
X179555414Y-96972981D01*
X179545212Y-96950066D01*
X179534754Y-96933839D01*
X179508789Y-96868261D01*
X179478379Y-96799958D01*
X179474476Y-96781596D01*
X179469707Y-96769551D01*
X179455740Y-96693448D01*
X179439001Y-96614699D01*
X179439001Y-96602246D01*
X179437811Y-96595762D01*
X179439001Y-96510535D01*
X179439001Y-96425301D01*
X179440275Y-96419308D01*
X179440278Y-96419077D01*
X179477015Y-96246246D01*
X179477105Y-96246036D01*
X179478379Y-96240042D01*
X179513042Y-96162188D01*
X179546622Y-96083839D01*
X179550348Y-96078397D01*
X179555414Y-96067019D01*
X179602746Y-96001872D01*
X179646452Y-95938041D01*
X179655706Y-95928979D01*
X179666739Y-95913793D01*
X179722297Y-95863769D01*
X179772693Y-95814417D01*
X179788848Y-95803846D01*
X179807489Y-95787061D01*
X179867026Y-95752687D01*
X179920551Y-95717662D01*
X179944340Y-95708050D01*
X179971512Y-95692363D01*
X180031045Y-95673019D01*
X180084376Y-95651472D01*
X180115820Y-95645474D01*
X180151640Y-95633835D01*
X180207744Y-95627938D01*
X180257945Y-95618362D01*
X180296312Y-95618630D01*
X180340000Y-95614038D01*
X180389902Y-95619283D01*
G37*
G36*
X149909902Y-95619283D02*
G01*
X149954637Y-95619595D01*
X149998460Y-95628590D01*
X150048360Y-95633835D01*
X150090132Y-95647408D01*
X150127723Y-95655124D01*
X150174851Y-95674935D01*
X150228488Y-95692363D01*
X150261099Y-95711191D01*
X150290614Y-95723598D01*
X150338301Y-95755763D01*
X150392511Y-95787061D01*
X150415826Y-95808054D01*
X150437101Y-95822404D01*
X150482183Y-95867802D01*
X150533261Y-95913793D01*
X150548003Y-95934083D01*
X150561608Y-95947784D01*
X150600643Y-96006537D01*
X150644586Y-96067019D01*
X150652221Y-96084168D01*
X150659388Y-96094955D01*
X150688865Y-96166472D01*
X150721621Y-96240042D01*
X150724211Y-96252225D01*
X150726724Y-96258323D01*
X150743292Y-96341997D01*
X150760999Y-96425301D01*
X150760999Y-96614699D01*
X150758115Y-96628269D01*
X150758030Y-96634331D01*
X150739342Y-96716585D01*
X150721621Y-96799958D01*
X150719129Y-96805555D01*
X150719078Y-96805780D01*
X150647210Y-96967197D01*
X150647078Y-96967385D01*
X150644586Y-96972981D01*
X150594480Y-97041946D01*
X150545357Y-97111582D01*
X150540585Y-97116126D01*
X150533261Y-97126207D01*
X150473396Y-97180110D01*
X150417396Y-97233438D01*
X150406464Y-97240376D01*
X150392511Y-97252939D01*
X150327764Y-97290321D01*
X150268211Y-97328114D01*
X150250209Y-97335097D01*
X150228488Y-97347637D01*
X150163115Y-97368878D01*
X150103468Y-97392014D01*
X150078200Y-97396469D01*
X150048360Y-97406165D01*
X149986095Y-97412709D01*
X149929460Y-97422695D01*
X149897459Y-97422025D01*
X149860000Y-97425962D01*
X149803902Y-97420066D01*
X149752799Y-97418996D01*
X149715323Y-97410756D01*
X149671640Y-97406165D01*
X149623917Y-97390659D01*
X149580225Y-97381052D01*
X149539230Y-97363142D01*
X149491512Y-97347637D01*
X149453473Y-97325675D01*
X149418310Y-97310313D01*
X149376337Y-97281141D01*
X149327489Y-97252939D01*
X149299504Y-97227741D01*
X149273215Y-97209470D01*
X149233257Y-97168092D01*
X149186739Y-97126207D01*
X149168296Y-97100823D01*
X149150473Y-97082366D01*
X149115821Y-97028597D01*
X149075414Y-96972981D01*
X149065212Y-96950066D01*
X149054754Y-96933839D01*
X149028789Y-96868261D01*
X148998379Y-96799958D01*
X148994476Y-96781596D01*
X148989707Y-96769551D01*
X148975740Y-96693448D01*
X148959001Y-96614699D01*
X148959001Y-96602246D01*
X148957811Y-96595762D01*
X148959001Y-96510535D01*
X148959001Y-96425301D01*
X148960275Y-96419308D01*
X148960278Y-96419077D01*
X148997015Y-96246246D01*
X148997105Y-96246036D01*
X148998379Y-96240042D01*
X149033042Y-96162188D01*
X149066622Y-96083839D01*
X149070348Y-96078397D01*
X149075414Y-96067019D01*
X149122746Y-96001872D01*
X149166452Y-95938041D01*
X149175706Y-95928979D01*
X149186739Y-95913793D01*
X149242297Y-95863769D01*
X149292693Y-95814417D01*
X149308848Y-95803846D01*
X149327489Y-95787061D01*
X149387026Y-95752687D01*
X149440551Y-95717662D01*
X149464340Y-95708050D01*
X149491512Y-95692363D01*
X149551045Y-95673019D01*
X149604376Y-95651472D01*
X149635820Y-95645474D01*
X149671640Y-95633835D01*
X149727744Y-95627938D01*
X149777945Y-95618362D01*
X149816312Y-95618630D01*
X149860000Y-95614038D01*
X149909902Y-95619283D01*
G37*
G36*
X182929902Y-95619283D02*
G01*
X182974637Y-95619595D01*
X183018460Y-95628590D01*
X183068360Y-95633835D01*
X183110132Y-95647408D01*
X183147723Y-95655124D01*
X183194851Y-95674935D01*
X183248488Y-95692363D01*
X183281099Y-95711191D01*
X183310614Y-95723598D01*
X183358301Y-95755763D01*
X183412511Y-95787061D01*
X183435826Y-95808054D01*
X183457101Y-95822404D01*
X183502183Y-95867802D01*
X183553261Y-95913793D01*
X183568003Y-95934083D01*
X183581608Y-95947784D01*
X183620643Y-96006537D01*
X183664586Y-96067019D01*
X183672221Y-96084168D01*
X183679388Y-96094955D01*
X183708865Y-96166472D01*
X183741621Y-96240042D01*
X183744211Y-96252225D01*
X183746724Y-96258323D01*
X183763292Y-96341997D01*
X183780999Y-96425301D01*
X183780999Y-96614699D01*
X183778115Y-96628269D01*
X183778030Y-96634331D01*
X183759342Y-96716585D01*
X183741621Y-96799958D01*
X183739129Y-96805555D01*
X183739078Y-96805780D01*
X183667210Y-96967197D01*
X183667078Y-96967385D01*
X183664586Y-96972981D01*
X183614480Y-97041946D01*
X183565357Y-97111582D01*
X183560585Y-97116126D01*
X183553261Y-97126207D01*
X183493396Y-97180110D01*
X183437396Y-97233438D01*
X183426464Y-97240376D01*
X183412511Y-97252939D01*
X183347764Y-97290321D01*
X183288211Y-97328114D01*
X183270209Y-97335097D01*
X183248488Y-97347637D01*
X183183115Y-97368878D01*
X183123468Y-97392014D01*
X183098200Y-97396469D01*
X183068360Y-97406165D01*
X183006095Y-97412709D01*
X182949460Y-97422695D01*
X182917459Y-97422025D01*
X182880000Y-97425962D01*
X182823902Y-97420066D01*
X182772799Y-97418996D01*
X182735323Y-97410756D01*
X182691640Y-97406165D01*
X182643917Y-97390659D01*
X182600225Y-97381052D01*
X182559230Y-97363142D01*
X182511512Y-97347637D01*
X182473473Y-97325675D01*
X182438310Y-97310313D01*
X182396337Y-97281141D01*
X182347489Y-97252939D01*
X182319504Y-97227741D01*
X182293215Y-97209470D01*
X182253257Y-97168092D01*
X182206739Y-97126207D01*
X182188296Y-97100823D01*
X182170473Y-97082366D01*
X182135821Y-97028597D01*
X182095414Y-96972981D01*
X182085212Y-96950066D01*
X182074754Y-96933839D01*
X182048789Y-96868261D01*
X182018379Y-96799958D01*
X182014476Y-96781596D01*
X182009707Y-96769551D01*
X181995740Y-96693448D01*
X181979001Y-96614699D01*
X181979001Y-96602246D01*
X181977811Y-96595762D01*
X181979001Y-96510535D01*
X181979001Y-96425301D01*
X181980275Y-96419308D01*
X181980278Y-96419077D01*
X182017015Y-96246246D01*
X182017105Y-96246036D01*
X182018379Y-96240042D01*
X182053042Y-96162188D01*
X182086622Y-96083839D01*
X182090348Y-96078397D01*
X182095414Y-96067019D01*
X182142746Y-96001872D01*
X182186452Y-95938041D01*
X182195706Y-95928979D01*
X182206739Y-95913793D01*
X182262297Y-95863769D01*
X182312693Y-95814417D01*
X182328848Y-95803846D01*
X182347489Y-95787061D01*
X182407026Y-95752687D01*
X182460551Y-95717662D01*
X182484340Y-95708050D01*
X182511512Y-95692363D01*
X182571045Y-95673019D01*
X182624376Y-95651472D01*
X182655820Y-95645474D01*
X182691640Y-95633835D01*
X182747744Y-95627938D01*
X182797945Y-95618362D01*
X182836312Y-95618630D01*
X182880000Y-95614038D01*
X182929902Y-95619283D01*
G37*
G36*
X147369902Y-95619283D02*
G01*
X147414637Y-95619595D01*
X147458460Y-95628590D01*
X147508360Y-95633835D01*
X147550132Y-95647408D01*
X147587723Y-95655124D01*
X147634851Y-95674935D01*
X147688488Y-95692363D01*
X147721099Y-95711191D01*
X147750614Y-95723598D01*
X147798301Y-95755763D01*
X147852511Y-95787061D01*
X147875826Y-95808054D01*
X147897101Y-95822404D01*
X147942183Y-95867802D01*
X147993261Y-95913793D01*
X148008003Y-95934083D01*
X148021608Y-95947784D01*
X148060643Y-96006537D01*
X148104586Y-96067019D01*
X148112221Y-96084168D01*
X148119388Y-96094955D01*
X148148865Y-96166472D01*
X148181621Y-96240042D01*
X148184211Y-96252225D01*
X148186724Y-96258323D01*
X148203292Y-96341997D01*
X148220999Y-96425301D01*
X148220999Y-96614699D01*
X148218115Y-96628269D01*
X148218030Y-96634331D01*
X148199342Y-96716585D01*
X148181621Y-96799958D01*
X148179129Y-96805555D01*
X148179078Y-96805780D01*
X148107210Y-96967197D01*
X148107078Y-96967385D01*
X148104586Y-96972981D01*
X148054480Y-97041946D01*
X148005357Y-97111582D01*
X148000585Y-97116126D01*
X147993261Y-97126207D01*
X147933396Y-97180110D01*
X147877396Y-97233438D01*
X147866464Y-97240376D01*
X147852511Y-97252939D01*
X147787764Y-97290321D01*
X147728211Y-97328114D01*
X147710209Y-97335097D01*
X147688488Y-97347637D01*
X147623115Y-97368878D01*
X147563468Y-97392014D01*
X147538200Y-97396469D01*
X147508360Y-97406165D01*
X147446095Y-97412709D01*
X147389460Y-97422695D01*
X147357459Y-97422025D01*
X147320000Y-97425962D01*
X147263902Y-97420066D01*
X147212799Y-97418996D01*
X147175323Y-97410756D01*
X147131640Y-97406165D01*
X147083917Y-97390659D01*
X147040225Y-97381052D01*
X146999230Y-97363142D01*
X146951512Y-97347637D01*
X146913473Y-97325675D01*
X146878310Y-97310313D01*
X146836337Y-97281141D01*
X146787489Y-97252939D01*
X146759504Y-97227741D01*
X146733215Y-97209470D01*
X146693257Y-97168092D01*
X146646739Y-97126207D01*
X146628296Y-97100823D01*
X146610473Y-97082366D01*
X146575821Y-97028597D01*
X146535414Y-96972981D01*
X146525212Y-96950066D01*
X146514754Y-96933839D01*
X146488789Y-96868261D01*
X146458379Y-96799958D01*
X146454476Y-96781596D01*
X146449707Y-96769551D01*
X146435740Y-96693448D01*
X146419001Y-96614699D01*
X146419001Y-96602246D01*
X146417811Y-96595762D01*
X146419001Y-96510535D01*
X146419001Y-96425301D01*
X146420275Y-96419308D01*
X146420278Y-96419077D01*
X146457015Y-96246246D01*
X146457105Y-96246036D01*
X146458379Y-96240042D01*
X146493042Y-96162188D01*
X146526622Y-96083839D01*
X146530348Y-96078397D01*
X146535414Y-96067019D01*
X146582746Y-96001872D01*
X146626452Y-95938041D01*
X146635706Y-95928979D01*
X146646739Y-95913793D01*
X146702297Y-95863769D01*
X146752693Y-95814417D01*
X146768848Y-95803846D01*
X146787489Y-95787061D01*
X146847026Y-95752687D01*
X146900551Y-95717662D01*
X146924340Y-95708050D01*
X146951512Y-95692363D01*
X147011045Y-95673019D01*
X147064376Y-95651472D01*
X147095820Y-95645474D01*
X147131640Y-95633835D01*
X147187744Y-95627938D01*
X147237945Y-95618362D01*
X147276312Y-95618630D01*
X147320000Y-95614038D01*
X147369902Y-95619283D01*
G37*
G36*
X144829902Y-95619283D02*
G01*
X144874637Y-95619595D01*
X144918460Y-95628590D01*
X144968360Y-95633835D01*
X145010132Y-95647408D01*
X145047723Y-95655124D01*
X145094851Y-95674935D01*
X145148488Y-95692363D01*
X145181099Y-95711191D01*
X145210614Y-95723598D01*
X145258301Y-95755763D01*
X145312511Y-95787061D01*
X145335826Y-95808054D01*
X145357101Y-95822404D01*
X145402183Y-95867802D01*
X145453261Y-95913793D01*
X145468003Y-95934083D01*
X145481608Y-95947784D01*
X145520643Y-96006537D01*
X145564586Y-96067019D01*
X145572221Y-96084168D01*
X145579388Y-96094955D01*
X145608865Y-96166472D01*
X145641621Y-96240042D01*
X145644211Y-96252225D01*
X145646724Y-96258323D01*
X145663292Y-96341997D01*
X145680999Y-96425301D01*
X145680999Y-96614699D01*
X145678115Y-96628269D01*
X145678030Y-96634331D01*
X145659342Y-96716585D01*
X145641621Y-96799958D01*
X145639129Y-96805555D01*
X145639078Y-96805780D01*
X145567210Y-96967197D01*
X145567078Y-96967385D01*
X145564586Y-96972981D01*
X145514480Y-97041946D01*
X145465357Y-97111582D01*
X145460585Y-97116126D01*
X145453261Y-97126207D01*
X145393396Y-97180110D01*
X145337396Y-97233438D01*
X145326464Y-97240376D01*
X145312511Y-97252939D01*
X145247764Y-97290321D01*
X145188211Y-97328114D01*
X145170209Y-97335097D01*
X145148488Y-97347637D01*
X145083115Y-97368878D01*
X145023468Y-97392014D01*
X144998200Y-97396469D01*
X144968360Y-97406165D01*
X144906095Y-97412709D01*
X144849460Y-97422695D01*
X144817459Y-97422025D01*
X144780000Y-97425962D01*
X144723902Y-97420066D01*
X144672799Y-97418996D01*
X144635323Y-97410756D01*
X144591640Y-97406165D01*
X144543917Y-97390659D01*
X144500225Y-97381052D01*
X144459230Y-97363142D01*
X144411512Y-97347637D01*
X144373473Y-97325675D01*
X144338310Y-97310313D01*
X144296337Y-97281141D01*
X144247489Y-97252939D01*
X144219504Y-97227741D01*
X144193215Y-97209470D01*
X144153257Y-97168092D01*
X144106739Y-97126207D01*
X144088296Y-97100823D01*
X144070473Y-97082366D01*
X144035821Y-97028597D01*
X143995414Y-96972981D01*
X143985212Y-96950066D01*
X143974754Y-96933839D01*
X143948789Y-96868261D01*
X143918379Y-96799958D01*
X143914476Y-96781596D01*
X143909707Y-96769551D01*
X143895740Y-96693448D01*
X143879001Y-96614699D01*
X143879001Y-96602246D01*
X143877811Y-96595762D01*
X143879001Y-96510535D01*
X143879001Y-96425301D01*
X143880275Y-96419308D01*
X143880278Y-96419077D01*
X143917015Y-96246246D01*
X143917105Y-96246036D01*
X143918379Y-96240042D01*
X143953042Y-96162188D01*
X143986622Y-96083839D01*
X143990348Y-96078397D01*
X143995414Y-96067019D01*
X144042746Y-96001872D01*
X144086452Y-95938041D01*
X144095706Y-95928979D01*
X144106739Y-95913793D01*
X144162297Y-95863769D01*
X144212693Y-95814417D01*
X144228848Y-95803846D01*
X144247489Y-95787061D01*
X144307026Y-95752687D01*
X144360551Y-95717662D01*
X144384340Y-95708050D01*
X144411512Y-95692363D01*
X144471045Y-95673019D01*
X144524376Y-95651472D01*
X144555820Y-95645474D01*
X144591640Y-95633835D01*
X144647744Y-95627938D01*
X144697945Y-95618362D01*
X144736312Y-95618630D01*
X144780000Y-95614038D01*
X144829902Y-95619283D01*
G37*
G36*
X137209902Y-93079283D02*
G01*
X137254637Y-93079595D01*
X137298460Y-93088590D01*
X137348360Y-93093835D01*
X137390132Y-93107408D01*
X137427723Y-93115124D01*
X137474851Y-93134935D01*
X137528488Y-93152363D01*
X137561099Y-93171191D01*
X137590614Y-93183598D01*
X137638301Y-93215763D01*
X137692511Y-93247061D01*
X137715826Y-93268054D01*
X137737101Y-93282404D01*
X137782183Y-93327802D01*
X137833261Y-93373793D01*
X137848003Y-93394083D01*
X137861608Y-93407784D01*
X137900643Y-93466537D01*
X137944586Y-93527019D01*
X137952221Y-93544168D01*
X137959388Y-93554955D01*
X137988865Y-93626472D01*
X138021621Y-93700042D01*
X138024211Y-93712225D01*
X138026724Y-93718323D01*
X138043292Y-93801997D01*
X138060999Y-93885301D01*
X138060999Y-94074699D01*
X138058115Y-94088269D01*
X138058030Y-94094331D01*
X138039342Y-94176585D01*
X138021621Y-94259958D01*
X138019129Y-94265555D01*
X138019078Y-94265780D01*
X137947210Y-94427197D01*
X137947078Y-94427385D01*
X137944586Y-94432981D01*
X137894480Y-94501946D01*
X137845357Y-94571582D01*
X137840585Y-94576126D01*
X137833261Y-94586207D01*
X137773396Y-94640110D01*
X137717396Y-94693438D01*
X137706464Y-94700376D01*
X137692511Y-94712939D01*
X137627764Y-94750321D01*
X137568211Y-94788114D01*
X137550209Y-94795097D01*
X137528488Y-94807637D01*
X137463115Y-94828878D01*
X137403468Y-94852014D01*
X137378200Y-94856469D01*
X137348360Y-94866165D01*
X137286095Y-94872709D01*
X137229460Y-94882695D01*
X137197459Y-94882025D01*
X137160000Y-94885962D01*
X137103902Y-94880066D01*
X137052799Y-94878996D01*
X137015323Y-94870756D01*
X136971640Y-94866165D01*
X136923917Y-94850659D01*
X136880225Y-94841052D01*
X136839230Y-94823142D01*
X136791512Y-94807637D01*
X136753473Y-94785675D01*
X136718310Y-94770313D01*
X136676337Y-94741141D01*
X136627489Y-94712939D01*
X136599504Y-94687741D01*
X136573215Y-94669470D01*
X136533257Y-94628092D01*
X136486739Y-94586207D01*
X136468296Y-94560823D01*
X136450473Y-94542366D01*
X136415821Y-94488597D01*
X136375414Y-94432981D01*
X136365212Y-94410066D01*
X136354754Y-94393839D01*
X136328789Y-94328261D01*
X136298379Y-94259958D01*
X136294476Y-94241596D01*
X136289707Y-94229551D01*
X136275740Y-94153448D01*
X136259001Y-94074699D01*
X136259001Y-94062246D01*
X136257811Y-94055762D01*
X136259001Y-93970535D01*
X136259001Y-93885301D01*
X136260275Y-93879308D01*
X136260278Y-93879077D01*
X136297015Y-93706246D01*
X136297105Y-93706036D01*
X136298379Y-93700042D01*
X136333042Y-93622188D01*
X136366622Y-93543839D01*
X136370348Y-93538397D01*
X136375414Y-93527019D01*
X136422746Y-93461872D01*
X136466452Y-93398041D01*
X136475706Y-93388979D01*
X136486739Y-93373793D01*
X136542297Y-93323769D01*
X136592693Y-93274417D01*
X136608848Y-93263846D01*
X136627489Y-93247061D01*
X136687026Y-93212687D01*
X136740551Y-93177662D01*
X136764340Y-93168050D01*
X136791512Y-93152363D01*
X136851045Y-93133019D01*
X136904376Y-93111472D01*
X136935820Y-93105474D01*
X136971640Y-93093835D01*
X137027744Y-93087938D01*
X137077945Y-93078362D01*
X137116312Y-93078630D01*
X137160000Y-93074038D01*
X137209902Y-93079283D01*
G37*
G36*
X172769902Y-93079283D02*
G01*
X172814637Y-93079595D01*
X172858460Y-93088590D01*
X172908360Y-93093835D01*
X172950132Y-93107408D01*
X172987723Y-93115124D01*
X173034851Y-93134935D01*
X173088488Y-93152363D01*
X173121099Y-93171191D01*
X173150614Y-93183598D01*
X173198301Y-93215763D01*
X173252511Y-93247061D01*
X173275826Y-93268054D01*
X173297101Y-93282404D01*
X173342183Y-93327802D01*
X173393261Y-93373793D01*
X173408003Y-93394083D01*
X173421608Y-93407784D01*
X173460643Y-93466537D01*
X173504586Y-93527019D01*
X173512221Y-93544168D01*
X173519388Y-93554955D01*
X173548865Y-93626472D01*
X173581621Y-93700042D01*
X173584211Y-93712225D01*
X173586724Y-93718323D01*
X173603292Y-93801997D01*
X173620999Y-93885301D01*
X173620999Y-94074699D01*
X173618115Y-94088269D01*
X173618030Y-94094331D01*
X173599342Y-94176585D01*
X173581621Y-94259958D01*
X173579129Y-94265555D01*
X173579078Y-94265780D01*
X173507210Y-94427197D01*
X173507078Y-94427385D01*
X173504586Y-94432981D01*
X173454480Y-94501946D01*
X173405357Y-94571582D01*
X173400585Y-94576126D01*
X173393261Y-94586207D01*
X173333396Y-94640110D01*
X173277396Y-94693438D01*
X173266464Y-94700376D01*
X173252511Y-94712939D01*
X173187764Y-94750321D01*
X173128211Y-94788114D01*
X173110209Y-94795097D01*
X173088488Y-94807637D01*
X173023115Y-94828878D01*
X172963468Y-94852014D01*
X172938200Y-94856469D01*
X172908360Y-94866165D01*
X172846095Y-94872709D01*
X172789460Y-94882695D01*
X172757459Y-94882025D01*
X172720000Y-94885962D01*
X172663902Y-94880066D01*
X172612799Y-94878996D01*
X172575323Y-94870756D01*
X172531640Y-94866165D01*
X172483917Y-94850659D01*
X172440225Y-94841052D01*
X172399230Y-94823142D01*
X172351512Y-94807637D01*
X172313473Y-94785675D01*
X172278310Y-94770313D01*
X172236337Y-94741141D01*
X172187489Y-94712939D01*
X172159504Y-94687741D01*
X172133215Y-94669470D01*
X172093257Y-94628092D01*
X172046739Y-94586207D01*
X172028296Y-94560823D01*
X172010473Y-94542366D01*
X171975821Y-94488597D01*
X171935414Y-94432981D01*
X171925212Y-94410066D01*
X171914754Y-94393839D01*
X171888789Y-94328261D01*
X171858379Y-94259958D01*
X171854476Y-94241596D01*
X171849707Y-94229551D01*
X171835740Y-94153448D01*
X171819001Y-94074699D01*
X171819001Y-94062246D01*
X171817811Y-94055762D01*
X171819001Y-93970535D01*
X171819001Y-93885301D01*
X171820275Y-93879308D01*
X171820278Y-93879077D01*
X171857015Y-93706246D01*
X171857105Y-93706036D01*
X171858379Y-93700042D01*
X171893042Y-93622188D01*
X171926622Y-93543839D01*
X171930348Y-93538397D01*
X171935414Y-93527019D01*
X171982746Y-93461872D01*
X172026452Y-93398041D01*
X172035706Y-93388979D01*
X172046739Y-93373793D01*
X172102297Y-93323769D01*
X172152693Y-93274417D01*
X172168848Y-93263846D01*
X172187489Y-93247061D01*
X172247026Y-93212687D01*
X172300551Y-93177662D01*
X172324340Y-93168050D01*
X172351512Y-93152363D01*
X172411045Y-93133019D01*
X172464376Y-93111472D01*
X172495820Y-93105474D01*
X172531640Y-93093835D01*
X172587744Y-93087938D01*
X172637945Y-93078362D01*
X172676312Y-93078630D01*
X172720000Y-93074038D01*
X172769902Y-93079283D01*
G37*
G36*
X162609902Y-93079283D02*
G01*
X162654637Y-93079595D01*
X162698460Y-93088590D01*
X162748360Y-93093835D01*
X162790132Y-93107408D01*
X162827723Y-93115124D01*
X162874851Y-93134935D01*
X162928488Y-93152363D01*
X162961099Y-93171191D01*
X162990614Y-93183598D01*
X163038301Y-93215763D01*
X163092511Y-93247061D01*
X163115826Y-93268054D01*
X163137101Y-93282404D01*
X163182183Y-93327802D01*
X163233261Y-93373793D01*
X163248003Y-93394083D01*
X163261608Y-93407784D01*
X163300643Y-93466537D01*
X163344586Y-93527019D01*
X163352221Y-93544168D01*
X163359388Y-93554955D01*
X163388865Y-93626472D01*
X163421621Y-93700042D01*
X163424211Y-93712225D01*
X163426724Y-93718323D01*
X163443292Y-93801997D01*
X163460999Y-93885301D01*
X163460999Y-94074699D01*
X163458115Y-94088269D01*
X163458030Y-94094331D01*
X163439342Y-94176585D01*
X163421621Y-94259958D01*
X163419129Y-94265555D01*
X163419078Y-94265780D01*
X163347210Y-94427197D01*
X163347078Y-94427385D01*
X163344586Y-94432981D01*
X163294480Y-94501946D01*
X163245357Y-94571582D01*
X163240585Y-94576126D01*
X163233261Y-94586207D01*
X163173396Y-94640110D01*
X163117396Y-94693438D01*
X163106464Y-94700376D01*
X163092511Y-94712939D01*
X163027764Y-94750321D01*
X162968211Y-94788114D01*
X162950209Y-94795097D01*
X162928488Y-94807637D01*
X162863115Y-94828878D01*
X162803468Y-94852014D01*
X162778200Y-94856469D01*
X162748360Y-94866165D01*
X162686095Y-94872709D01*
X162629460Y-94882695D01*
X162597459Y-94882025D01*
X162560000Y-94885962D01*
X162503902Y-94880066D01*
X162452799Y-94878996D01*
X162415323Y-94870756D01*
X162371640Y-94866165D01*
X162323917Y-94850659D01*
X162280225Y-94841052D01*
X162239230Y-94823142D01*
X162191512Y-94807637D01*
X162153473Y-94785675D01*
X162118310Y-94770313D01*
X162076337Y-94741141D01*
X162027489Y-94712939D01*
X161999504Y-94687741D01*
X161973215Y-94669470D01*
X161933257Y-94628092D01*
X161886739Y-94586207D01*
X161868296Y-94560823D01*
X161850473Y-94542366D01*
X161815821Y-94488597D01*
X161775414Y-94432981D01*
X161765212Y-94410066D01*
X161754754Y-94393839D01*
X161728789Y-94328261D01*
X161698379Y-94259958D01*
X161694476Y-94241596D01*
X161689707Y-94229551D01*
X161675740Y-94153448D01*
X161659001Y-94074699D01*
X161659001Y-94062246D01*
X161657811Y-94055762D01*
X161659001Y-93970535D01*
X161659001Y-93885301D01*
X161660275Y-93879308D01*
X161660278Y-93879077D01*
X161697015Y-93706246D01*
X161697105Y-93706036D01*
X161698379Y-93700042D01*
X161733042Y-93622188D01*
X161766622Y-93543839D01*
X161770348Y-93538397D01*
X161775414Y-93527019D01*
X161822746Y-93461872D01*
X161866452Y-93398041D01*
X161875706Y-93388979D01*
X161886739Y-93373793D01*
X161942297Y-93323769D01*
X161992693Y-93274417D01*
X162008848Y-93263846D01*
X162027489Y-93247061D01*
X162087026Y-93212687D01*
X162140551Y-93177662D01*
X162164340Y-93168050D01*
X162191512Y-93152363D01*
X162251045Y-93133019D01*
X162304376Y-93111472D01*
X162335820Y-93105474D01*
X162371640Y-93093835D01*
X162427744Y-93087938D01*
X162477945Y-93078362D01*
X162516312Y-93078630D01*
X162560000Y-93074038D01*
X162609902Y-93079283D01*
G37*
G36*
X149909902Y-93079283D02*
G01*
X149954637Y-93079595D01*
X149998460Y-93088590D01*
X150048360Y-93093835D01*
X150090132Y-93107408D01*
X150127723Y-93115124D01*
X150174851Y-93134935D01*
X150228488Y-93152363D01*
X150261099Y-93171191D01*
X150290614Y-93183598D01*
X150338301Y-93215763D01*
X150392511Y-93247061D01*
X150415826Y-93268054D01*
X150437101Y-93282404D01*
X150482183Y-93327802D01*
X150533261Y-93373793D01*
X150548003Y-93394083D01*
X150561608Y-93407784D01*
X150600643Y-93466537D01*
X150644586Y-93527019D01*
X150652221Y-93544168D01*
X150659388Y-93554955D01*
X150688865Y-93626472D01*
X150721621Y-93700042D01*
X150724211Y-93712225D01*
X150726724Y-93718323D01*
X150743292Y-93801997D01*
X150760999Y-93885301D01*
X150760999Y-94074699D01*
X150758115Y-94088269D01*
X150758030Y-94094331D01*
X150739342Y-94176585D01*
X150721621Y-94259958D01*
X150719129Y-94265555D01*
X150719078Y-94265780D01*
X150647210Y-94427197D01*
X150647078Y-94427385D01*
X150644586Y-94432981D01*
X150594480Y-94501946D01*
X150545357Y-94571582D01*
X150540585Y-94576126D01*
X150533261Y-94586207D01*
X150473396Y-94640110D01*
X150417396Y-94693438D01*
X150406464Y-94700376D01*
X150392511Y-94712939D01*
X150327764Y-94750321D01*
X150268211Y-94788114D01*
X150250209Y-94795097D01*
X150228488Y-94807637D01*
X150163115Y-94828878D01*
X150103468Y-94852014D01*
X150078200Y-94856469D01*
X150048360Y-94866165D01*
X149986095Y-94872709D01*
X149929460Y-94882695D01*
X149897459Y-94882025D01*
X149860000Y-94885962D01*
X149803902Y-94880066D01*
X149752799Y-94878996D01*
X149715323Y-94870756D01*
X149671640Y-94866165D01*
X149623917Y-94850659D01*
X149580225Y-94841052D01*
X149539230Y-94823142D01*
X149491512Y-94807637D01*
X149453473Y-94785675D01*
X149418310Y-94770313D01*
X149376337Y-94741141D01*
X149327489Y-94712939D01*
X149299504Y-94687741D01*
X149273215Y-94669470D01*
X149233257Y-94628092D01*
X149186739Y-94586207D01*
X149168296Y-94560823D01*
X149150473Y-94542366D01*
X149115821Y-94488597D01*
X149075414Y-94432981D01*
X149065212Y-94410066D01*
X149054754Y-94393839D01*
X149028789Y-94328261D01*
X148998379Y-94259958D01*
X148994476Y-94241596D01*
X148989707Y-94229551D01*
X148975740Y-94153448D01*
X148959001Y-94074699D01*
X148959001Y-94062246D01*
X148957811Y-94055762D01*
X148959001Y-93970535D01*
X148959001Y-93885301D01*
X148960275Y-93879308D01*
X148960278Y-93879077D01*
X148997015Y-93706246D01*
X148997105Y-93706036D01*
X148998379Y-93700042D01*
X149033042Y-93622188D01*
X149066622Y-93543839D01*
X149070348Y-93538397D01*
X149075414Y-93527019D01*
X149122746Y-93461872D01*
X149166452Y-93398041D01*
X149175706Y-93388979D01*
X149186739Y-93373793D01*
X149242297Y-93323769D01*
X149292693Y-93274417D01*
X149308848Y-93263846D01*
X149327489Y-93247061D01*
X149387026Y-93212687D01*
X149440551Y-93177662D01*
X149464340Y-93168050D01*
X149491512Y-93152363D01*
X149551045Y-93133019D01*
X149604376Y-93111472D01*
X149635820Y-93105474D01*
X149671640Y-93093835D01*
X149727744Y-93087938D01*
X149777945Y-93078362D01*
X149816312Y-93078630D01*
X149860000Y-93074038D01*
X149909902Y-93079283D01*
G37*
G36*
X139749902Y-93079283D02*
G01*
X139794637Y-93079595D01*
X139838460Y-93088590D01*
X139888360Y-93093835D01*
X139930132Y-93107408D01*
X139967723Y-93115124D01*
X140014851Y-93134935D01*
X140068488Y-93152363D01*
X140101099Y-93171191D01*
X140130614Y-93183598D01*
X140178301Y-93215763D01*
X140232511Y-93247061D01*
X140255826Y-93268054D01*
X140277101Y-93282404D01*
X140322183Y-93327802D01*
X140373261Y-93373793D01*
X140388003Y-93394083D01*
X140401608Y-93407784D01*
X140440643Y-93466537D01*
X140484586Y-93527019D01*
X140492221Y-93544168D01*
X140499388Y-93554955D01*
X140528865Y-93626472D01*
X140561621Y-93700042D01*
X140564211Y-93712225D01*
X140566724Y-93718323D01*
X140583292Y-93801997D01*
X140600999Y-93885301D01*
X140600999Y-94074699D01*
X140598115Y-94088269D01*
X140598030Y-94094331D01*
X140579342Y-94176585D01*
X140561621Y-94259958D01*
X140559129Y-94265555D01*
X140559078Y-94265780D01*
X140487210Y-94427197D01*
X140487078Y-94427385D01*
X140484586Y-94432981D01*
X140434480Y-94501946D01*
X140385357Y-94571582D01*
X140380585Y-94576126D01*
X140373261Y-94586207D01*
X140313396Y-94640110D01*
X140257396Y-94693438D01*
X140246464Y-94700376D01*
X140232511Y-94712939D01*
X140167764Y-94750321D01*
X140108211Y-94788114D01*
X140090209Y-94795097D01*
X140068488Y-94807637D01*
X140003115Y-94828878D01*
X139943468Y-94852014D01*
X139918200Y-94856469D01*
X139888360Y-94866165D01*
X139826095Y-94872709D01*
X139769460Y-94882695D01*
X139737459Y-94882025D01*
X139700000Y-94885962D01*
X139643902Y-94880066D01*
X139592799Y-94878996D01*
X139555323Y-94870756D01*
X139511640Y-94866165D01*
X139463917Y-94850659D01*
X139420225Y-94841052D01*
X139379230Y-94823142D01*
X139331512Y-94807637D01*
X139293473Y-94785675D01*
X139258310Y-94770313D01*
X139216337Y-94741141D01*
X139167489Y-94712939D01*
X139139504Y-94687741D01*
X139113215Y-94669470D01*
X139073257Y-94628092D01*
X139026739Y-94586207D01*
X139008296Y-94560823D01*
X138990473Y-94542366D01*
X138955821Y-94488597D01*
X138915414Y-94432981D01*
X138905212Y-94410066D01*
X138894754Y-94393839D01*
X138868789Y-94328261D01*
X138838379Y-94259958D01*
X138834476Y-94241596D01*
X138829707Y-94229551D01*
X138815740Y-94153448D01*
X138799001Y-94074699D01*
X138799001Y-94062246D01*
X138797811Y-94055762D01*
X138799001Y-93970535D01*
X138799001Y-93885301D01*
X138800275Y-93879308D01*
X138800278Y-93879077D01*
X138837015Y-93706246D01*
X138837105Y-93706036D01*
X138838379Y-93700042D01*
X138873042Y-93622188D01*
X138906622Y-93543839D01*
X138910348Y-93538397D01*
X138915414Y-93527019D01*
X138962746Y-93461872D01*
X139006452Y-93398041D01*
X139015706Y-93388979D01*
X139026739Y-93373793D01*
X139082297Y-93323769D01*
X139132693Y-93274417D01*
X139148848Y-93263846D01*
X139167489Y-93247061D01*
X139227026Y-93212687D01*
X139280551Y-93177662D01*
X139304340Y-93168050D01*
X139331512Y-93152363D01*
X139391045Y-93133019D01*
X139444376Y-93111472D01*
X139475820Y-93105474D01*
X139511640Y-93093835D01*
X139567744Y-93087938D01*
X139617945Y-93078362D01*
X139656312Y-93078630D01*
X139700000Y-93074038D01*
X139749902Y-93079283D01*
G37*
G36*
X147369902Y-93079283D02*
G01*
X147414637Y-93079595D01*
X147458460Y-93088590D01*
X147508360Y-93093835D01*
X147550132Y-93107408D01*
X147587723Y-93115124D01*
X147634851Y-93134935D01*
X147688488Y-93152363D01*
X147721099Y-93171191D01*
X147750614Y-93183598D01*
X147798301Y-93215763D01*
X147852511Y-93247061D01*
X147875826Y-93268054D01*
X147897101Y-93282404D01*
X147942183Y-93327802D01*
X147993261Y-93373793D01*
X148008003Y-93394083D01*
X148021608Y-93407784D01*
X148060643Y-93466537D01*
X148104586Y-93527019D01*
X148112221Y-93544168D01*
X148119388Y-93554955D01*
X148148865Y-93626472D01*
X148181621Y-93700042D01*
X148184211Y-93712225D01*
X148186724Y-93718323D01*
X148203292Y-93801997D01*
X148220999Y-93885301D01*
X148220999Y-94074699D01*
X148218115Y-94088269D01*
X148218030Y-94094331D01*
X148199342Y-94176585D01*
X148181621Y-94259958D01*
X148179129Y-94265555D01*
X148179078Y-94265780D01*
X148107210Y-94427197D01*
X148107078Y-94427385D01*
X148104586Y-94432981D01*
X148054480Y-94501946D01*
X148005357Y-94571582D01*
X148000585Y-94576126D01*
X147993261Y-94586207D01*
X147933396Y-94640110D01*
X147877396Y-94693438D01*
X147866464Y-94700376D01*
X147852511Y-94712939D01*
X147787764Y-94750321D01*
X147728211Y-94788114D01*
X147710209Y-94795097D01*
X147688488Y-94807637D01*
X147623115Y-94828878D01*
X147563468Y-94852014D01*
X147538200Y-94856469D01*
X147508360Y-94866165D01*
X147446095Y-94872709D01*
X147389460Y-94882695D01*
X147357459Y-94882025D01*
X147320000Y-94885962D01*
X147263902Y-94880066D01*
X147212799Y-94878996D01*
X147175323Y-94870756D01*
X147131640Y-94866165D01*
X147083917Y-94850659D01*
X147040225Y-94841052D01*
X146999230Y-94823142D01*
X146951512Y-94807637D01*
X146913473Y-94785675D01*
X146878310Y-94770313D01*
X146836337Y-94741141D01*
X146787489Y-94712939D01*
X146759504Y-94687741D01*
X146733215Y-94669470D01*
X146693257Y-94628092D01*
X146646739Y-94586207D01*
X146628296Y-94560823D01*
X146610473Y-94542366D01*
X146575821Y-94488597D01*
X146535414Y-94432981D01*
X146525212Y-94410066D01*
X146514754Y-94393839D01*
X146488789Y-94328261D01*
X146458379Y-94259958D01*
X146454476Y-94241596D01*
X146449707Y-94229551D01*
X146435740Y-94153448D01*
X146419001Y-94074699D01*
X146419001Y-94062246D01*
X146417811Y-94055762D01*
X146419001Y-93970535D01*
X146419001Y-93885301D01*
X146420275Y-93879308D01*
X146420278Y-93879077D01*
X146457015Y-93706246D01*
X146457105Y-93706036D01*
X146458379Y-93700042D01*
X146493042Y-93622188D01*
X146526622Y-93543839D01*
X146530348Y-93538397D01*
X146535414Y-93527019D01*
X146582746Y-93461872D01*
X146626452Y-93398041D01*
X146635706Y-93388979D01*
X146646739Y-93373793D01*
X146702297Y-93323769D01*
X146752693Y-93274417D01*
X146768848Y-93263846D01*
X146787489Y-93247061D01*
X146847026Y-93212687D01*
X146900551Y-93177662D01*
X146924340Y-93168050D01*
X146951512Y-93152363D01*
X147011045Y-93133019D01*
X147064376Y-93111472D01*
X147095820Y-93105474D01*
X147131640Y-93093835D01*
X147187744Y-93087938D01*
X147237945Y-93078362D01*
X147276312Y-93078630D01*
X147320000Y-93074038D01*
X147369902Y-93079283D01*
G37*
G36*
X142289902Y-93079283D02*
G01*
X142334637Y-93079595D01*
X142378460Y-93088590D01*
X142428360Y-93093835D01*
X142470132Y-93107408D01*
X142507723Y-93115124D01*
X142554851Y-93134935D01*
X142608488Y-93152363D01*
X142641099Y-93171191D01*
X142670614Y-93183598D01*
X142718301Y-93215763D01*
X142772511Y-93247061D01*
X142795826Y-93268054D01*
X142817101Y-93282404D01*
X142862183Y-93327802D01*
X142913261Y-93373793D01*
X142928003Y-93394083D01*
X142941608Y-93407784D01*
X142980643Y-93466537D01*
X143024586Y-93527019D01*
X143032221Y-93544168D01*
X143039388Y-93554955D01*
X143068865Y-93626472D01*
X143101621Y-93700042D01*
X143104211Y-93712225D01*
X143106724Y-93718323D01*
X143123292Y-93801997D01*
X143140999Y-93885301D01*
X143140999Y-94074699D01*
X143138115Y-94088269D01*
X143138030Y-94094331D01*
X143119342Y-94176585D01*
X143101621Y-94259958D01*
X143099129Y-94265555D01*
X143099078Y-94265780D01*
X143027210Y-94427197D01*
X143027078Y-94427385D01*
X143024586Y-94432981D01*
X142974480Y-94501946D01*
X142925357Y-94571582D01*
X142920585Y-94576126D01*
X142913261Y-94586207D01*
X142853396Y-94640110D01*
X142797396Y-94693438D01*
X142786464Y-94700376D01*
X142772511Y-94712939D01*
X142707764Y-94750321D01*
X142648211Y-94788114D01*
X142630209Y-94795097D01*
X142608488Y-94807637D01*
X142543115Y-94828878D01*
X142483468Y-94852014D01*
X142458200Y-94856469D01*
X142428360Y-94866165D01*
X142366095Y-94872709D01*
X142309460Y-94882695D01*
X142277459Y-94882025D01*
X142240000Y-94885962D01*
X142183902Y-94880066D01*
X142132799Y-94878996D01*
X142095323Y-94870756D01*
X142051640Y-94866165D01*
X142003917Y-94850659D01*
X141960225Y-94841052D01*
X141919230Y-94823142D01*
X141871512Y-94807637D01*
X141833473Y-94785675D01*
X141798310Y-94770313D01*
X141756337Y-94741141D01*
X141707489Y-94712939D01*
X141679504Y-94687741D01*
X141653215Y-94669470D01*
X141613257Y-94628092D01*
X141566739Y-94586207D01*
X141548296Y-94560823D01*
X141530473Y-94542366D01*
X141495821Y-94488597D01*
X141455414Y-94432981D01*
X141445212Y-94410066D01*
X141434754Y-94393839D01*
X141408789Y-94328261D01*
X141378379Y-94259958D01*
X141374476Y-94241596D01*
X141369707Y-94229551D01*
X141355740Y-94153448D01*
X141339001Y-94074699D01*
X141339001Y-94062246D01*
X141337811Y-94055762D01*
X141339001Y-93970535D01*
X141339001Y-93885301D01*
X141340275Y-93879308D01*
X141340278Y-93879077D01*
X141377015Y-93706246D01*
X141377105Y-93706036D01*
X141378379Y-93700042D01*
X141413042Y-93622188D01*
X141446622Y-93543839D01*
X141450348Y-93538397D01*
X141455414Y-93527019D01*
X141502746Y-93461872D01*
X141546452Y-93398041D01*
X141555706Y-93388979D01*
X141566739Y-93373793D01*
X141622297Y-93323769D01*
X141672693Y-93274417D01*
X141688848Y-93263846D01*
X141707489Y-93247061D01*
X141767026Y-93212687D01*
X141820551Y-93177662D01*
X141844340Y-93168050D01*
X141871512Y-93152363D01*
X141931045Y-93133019D01*
X141984376Y-93111472D01*
X142015820Y-93105474D01*
X142051640Y-93093835D01*
X142107744Y-93087938D01*
X142157945Y-93078362D01*
X142196312Y-93078630D01*
X142240000Y-93074038D01*
X142289902Y-93079283D01*
G37*
G36*
X152449902Y-93079283D02*
G01*
X152494637Y-93079595D01*
X152538460Y-93088590D01*
X152588360Y-93093835D01*
X152630132Y-93107408D01*
X152667723Y-93115124D01*
X152714851Y-93134935D01*
X152768488Y-93152363D01*
X152801099Y-93171191D01*
X152830614Y-93183598D01*
X152878301Y-93215763D01*
X152932511Y-93247061D01*
X152955826Y-93268054D01*
X152977101Y-93282404D01*
X153022183Y-93327802D01*
X153073261Y-93373793D01*
X153088003Y-93394083D01*
X153101608Y-93407784D01*
X153140643Y-93466537D01*
X153184586Y-93527019D01*
X153192221Y-93544168D01*
X153199388Y-93554955D01*
X153228865Y-93626472D01*
X153261621Y-93700042D01*
X153264211Y-93712225D01*
X153266724Y-93718323D01*
X153283292Y-93801997D01*
X153300999Y-93885301D01*
X153300999Y-94074699D01*
X153298115Y-94088269D01*
X153298030Y-94094331D01*
X153279342Y-94176585D01*
X153261621Y-94259958D01*
X153259129Y-94265555D01*
X153259078Y-94265780D01*
X153187210Y-94427197D01*
X153187078Y-94427385D01*
X153184586Y-94432981D01*
X153134480Y-94501946D01*
X153085357Y-94571582D01*
X153080585Y-94576126D01*
X153073261Y-94586207D01*
X153013396Y-94640110D01*
X152957396Y-94693438D01*
X152946464Y-94700376D01*
X152932511Y-94712939D01*
X152867764Y-94750321D01*
X152808211Y-94788114D01*
X152790209Y-94795097D01*
X152768488Y-94807637D01*
X152703115Y-94828878D01*
X152643468Y-94852014D01*
X152618200Y-94856469D01*
X152588360Y-94866165D01*
X152526095Y-94872709D01*
X152469460Y-94882695D01*
X152437459Y-94882025D01*
X152400000Y-94885962D01*
X152343902Y-94880066D01*
X152292799Y-94878996D01*
X152255323Y-94870756D01*
X152211640Y-94866165D01*
X152163917Y-94850659D01*
X152120225Y-94841052D01*
X152079230Y-94823142D01*
X152031512Y-94807637D01*
X151993473Y-94785675D01*
X151958310Y-94770313D01*
X151916337Y-94741141D01*
X151867489Y-94712939D01*
X151839504Y-94687741D01*
X151813215Y-94669470D01*
X151773257Y-94628092D01*
X151726739Y-94586207D01*
X151708296Y-94560823D01*
X151690473Y-94542366D01*
X151655821Y-94488597D01*
X151615414Y-94432981D01*
X151605212Y-94410066D01*
X151594754Y-94393839D01*
X151568789Y-94328261D01*
X151538379Y-94259958D01*
X151534476Y-94241596D01*
X151529707Y-94229551D01*
X151515740Y-94153448D01*
X151499001Y-94074699D01*
X151499001Y-94062246D01*
X151497811Y-94055762D01*
X151499001Y-93970535D01*
X151499001Y-93885301D01*
X151500275Y-93879308D01*
X151500278Y-93879077D01*
X151537015Y-93706246D01*
X151537105Y-93706036D01*
X151538379Y-93700042D01*
X151573042Y-93622188D01*
X151606622Y-93543839D01*
X151610348Y-93538397D01*
X151615414Y-93527019D01*
X151662746Y-93461872D01*
X151706452Y-93398041D01*
X151715706Y-93388979D01*
X151726739Y-93373793D01*
X151782297Y-93323769D01*
X151832693Y-93274417D01*
X151848848Y-93263846D01*
X151867489Y-93247061D01*
X151927026Y-93212687D01*
X151980551Y-93177662D01*
X152004340Y-93168050D01*
X152031512Y-93152363D01*
X152091045Y-93133019D01*
X152144376Y-93111472D01*
X152175820Y-93105474D01*
X152211640Y-93093835D01*
X152267744Y-93087938D01*
X152317945Y-93078362D01*
X152356312Y-93078630D01*
X152400000Y-93074038D01*
X152449902Y-93079283D01*
G37*
G36*
X157529902Y-93079283D02*
G01*
X157574637Y-93079595D01*
X157618460Y-93088590D01*
X157668360Y-93093835D01*
X157710132Y-93107408D01*
X157747723Y-93115124D01*
X157794851Y-93134935D01*
X157848488Y-93152363D01*
X157881099Y-93171191D01*
X157910614Y-93183598D01*
X157958301Y-93215763D01*
X158012511Y-93247061D01*
X158035826Y-93268054D01*
X158057101Y-93282404D01*
X158102183Y-93327802D01*
X158153261Y-93373793D01*
X158168003Y-93394083D01*
X158181608Y-93407784D01*
X158220643Y-93466537D01*
X158264586Y-93527019D01*
X158272221Y-93544168D01*
X158279388Y-93554955D01*
X158308865Y-93626472D01*
X158341621Y-93700042D01*
X158344211Y-93712225D01*
X158346724Y-93718323D01*
X158363292Y-93801997D01*
X158380999Y-93885301D01*
X158380999Y-94074699D01*
X158378115Y-94088269D01*
X158378030Y-94094331D01*
X158359342Y-94176585D01*
X158341621Y-94259958D01*
X158339129Y-94265555D01*
X158339078Y-94265780D01*
X158267210Y-94427197D01*
X158267078Y-94427385D01*
X158264586Y-94432981D01*
X158214480Y-94501946D01*
X158165357Y-94571582D01*
X158160585Y-94576126D01*
X158153261Y-94586207D01*
X158093396Y-94640110D01*
X158037396Y-94693438D01*
X158026464Y-94700376D01*
X158012511Y-94712939D01*
X157947764Y-94750321D01*
X157888211Y-94788114D01*
X157870209Y-94795097D01*
X157848488Y-94807637D01*
X157783115Y-94828878D01*
X157723468Y-94852014D01*
X157698200Y-94856469D01*
X157668360Y-94866165D01*
X157606095Y-94872709D01*
X157549460Y-94882695D01*
X157517459Y-94882025D01*
X157480000Y-94885962D01*
X157423902Y-94880066D01*
X157372799Y-94878996D01*
X157335323Y-94870756D01*
X157291640Y-94866165D01*
X157243917Y-94850659D01*
X157200225Y-94841052D01*
X157159230Y-94823142D01*
X157111512Y-94807637D01*
X157073473Y-94785675D01*
X157038310Y-94770313D01*
X156996337Y-94741141D01*
X156947489Y-94712939D01*
X156919504Y-94687741D01*
X156893215Y-94669470D01*
X156853257Y-94628092D01*
X156806739Y-94586207D01*
X156788296Y-94560823D01*
X156770473Y-94542366D01*
X156735821Y-94488597D01*
X156695414Y-94432981D01*
X156685212Y-94410066D01*
X156674754Y-94393839D01*
X156648789Y-94328261D01*
X156618379Y-94259958D01*
X156614476Y-94241596D01*
X156609707Y-94229551D01*
X156595740Y-94153448D01*
X156579001Y-94074699D01*
X156579001Y-94062246D01*
X156577811Y-94055762D01*
X156579001Y-93970535D01*
X156579001Y-93885301D01*
X156580275Y-93879308D01*
X156580278Y-93879077D01*
X156617015Y-93706246D01*
X156617105Y-93706036D01*
X156618379Y-93700042D01*
X156653042Y-93622188D01*
X156686622Y-93543839D01*
X156690348Y-93538397D01*
X156695414Y-93527019D01*
X156742746Y-93461872D01*
X156786452Y-93398041D01*
X156795706Y-93388979D01*
X156806739Y-93373793D01*
X156862297Y-93323769D01*
X156912693Y-93274417D01*
X156928848Y-93263846D01*
X156947489Y-93247061D01*
X157007026Y-93212687D01*
X157060551Y-93177662D01*
X157084340Y-93168050D01*
X157111512Y-93152363D01*
X157171045Y-93133019D01*
X157224376Y-93111472D01*
X157255820Y-93105474D01*
X157291640Y-93093835D01*
X157347744Y-93087938D01*
X157397945Y-93078362D01*
X157436312Y-93078630D01*
X157480000Y-93074038D01*
X157529902Y-93079283D01*
G37*
G36*
X154989902Y-93079283D02*
G01*
X155034637Y-93079595D01*
X155078460Y-93088590D01*
X155128360Y-93093835D01*
X155170132Y-93107408D01*
X155207723Y-93115124D01*
X155254851Y-93134935D01*
X155308488Y-93152363D01*
X155341099Y-93171191D01*
X155370614Y-93183598D01*
X155418301Y-93215763D01*
X155472511Y-93247061D01*
X155495826Y-93268054D01*
X155517101Y-93282404D01*
X155562183Y-93327802D01*
X155613261Y-93373793D01*
X155628003Y-93394083D01*
X155641608Y-93407784D01*
X155680643Y-93466537D01*
X155724586Y-93527019D01*
X155732221Y-93544168D01*
X155739388Y-93554955D01*
X155768865Y-93626472D01*
X155801621Y-93700042D01*
X155804211Y-93712225D01*
X155806724Y-93718323D01*
X155823292Y-93801997D01*
X155840999Y-93885301D01*
X155840999Y-94074699D01*
X155838115Y-94088269D01*
X155838030Y-94094331D01*
X155819342Y-94176585D01*
X155801621Y-94259958D01*
X155799129Y-94265555D01*
X155799078Y-94265780D01*
X155727210Y-94427197D01*
X155727078Y-94427385D01*
X155724586Y-94432981D01*
X155674480Y-94501946D01*
X155625357Y-94571582D01*
X155620585Y-94576126D01*
X155613261Y-94586207D01*
X155553396Y-94640110D01*
X155497396Y-94693438D01*
X155486464Y-94700376D01*
X155472511Y-94712939D01*
X155407764Y-94750321D01*
X155348211Y-94788114D01*
X155330209Y-94795097D01*
X155308488Y-94807637D01*
X155243115Y-94828878D01*
X155183468Y-94852014D01*
X155158200Y-94856469D01*
X155128360Y-94866165D01*
X155066095Y-94872709D01*
X155009460Y-94882695D01*
X154977459Y-94882025D01*
X154940000Y-94885962D01*
X154883902Y-94880066D01*
X154832799Y-94878996D01*
X154795323Y-94870756D01*
X154751640Y-94866165D01*
X154703917Y-94850659D01*
X154660225Y-94841052D01*
X154619230Y-94823142D01*
X154571512Y-94807637D01*
X154533473Y-94785675D01*
X154498310Y-94770313D01*
X154456337Y-94741141D01*
X154407489Y-94712939D01*
X154379504Y-94687741D01*
X154353215Y-94669470D01*
X154313257Y-94628092D01*
X154266739Y-94586207D01*
X154248296Y-94560823D01*
X154230473Y-94542366D01*
X154195821Y-94488597D01*
X154155414Y-94432981D01*
X154145212Y-94410066D01*
X154134754Y-94393839D01*
X154108789Y-94328261D01*
X154078379Y-94259958D01*
X154074476Y-94241596D01*
X154069707Y-94229551D01*
X154055740Y-94153448D01*
X154039001Y-94074699D01*
X154039001Y-94062246D01*
X154037811Y-94055762D01*
X154039001Y-93970535D01*
X154039001Y-93885301D01*
X154040275Y-93879308D01*
X154040278Y-93879077D01*
X154077015Y-93706246D01*
X154077105Y-93706036D01*
X154078379Y-93700042D01*
X154113042Y-93622188D01*
X154146622Y-93543839D01*
X154150348Y-93538397D01*
X154155414Y-93527019D01*
X154202746Y-93461872D01*
X154246452Y-93398041D01*
X154255706Y-93388979D01*
X154266739Y-93373793D01*
X154322297Y-93323769D01*
X154372693Y-93274417D01*
X154388848Y-93263846D01*
X154407489Y-93247061D01*
X154467026Y-93212687D01*
X154520551Y-93177662D01*
X154544340Y-93168050D01*
X154571512Y-93152363D01*
X154631045Y-93133019D01*
X154684376Y-93111472D01*
X154715820Y-93105474D01*
X154751640Y-93093835D01*
X154807744Y-93087938D01*
X154857945Y-93078362D01*
X154896312Y-93078630D01*
X154940000Y-93074038D01*
X154989902Y-93079283D01*
G37*
G36*
X144829902Y-93079283D02*
G01*
X144874637Y-93079595D01*
X144918460Y-93088590D01*
X144968360Y-93093835D01*
X145010132Y-93107408D01*
X145047723Y-93115124D01*
X145094851Y-93134935D01*
X145148488Y-93152363D01*
X145181099Y-93171191D01*
X145210614Y-93183598D01*
X145258301Y-93215763D01*
X145312511Y-93247061D01*
X145335826Y-93268054D01*
X145357101Y-93282404D01*
X145402183Y-93327802D01*
X145453261Y-93373793D01*
X145468003Y-93394083D01*
X145481608Y-93407784D01*
X145520643Y-93466537D01*
X145564586Y-93527019D01*
X145572221Y-93544168D01*
X145579388Y-93554955D01*
X145608865Y-93626472D01*
X145641621Y-93700042D01*
X145644211Y-93712225D01*
X145646724Y-93718323D01*
X145663292Y-93801997D01*
X145680999Y-93885301D01*
X145680999Y-94074699D01*
X145678115Y-94088269D01*
X145678030Y-94094331D01*
X145659342Y-94176585D01*
X145641621Y-94259958D01*
X145639129Y-94265555D01*
X145639078Y-94265780D01*
X145567210Y-94427197D01*
X145567078Y-94427385D01*
X145564586Y-94432981D01*
X145514480Y-94501946D01*
X145465357Y-94571582D01*
X145460585Y-94576126D01*
X145453261Y-94586207D01*
X145393396Y-94640110D01*
X145337396Y-94693438D01*
X145326464Y-94700376D01*
X145312511Y-94712939D01*
X145247764Y-94750321D01*
X145188211Y-94788114D01*
X145170209Y-94795097D01*
X145148488Y-94807637D01*
X145083115Y-94828878D01*
X145023468Y-94852014D01*
X144998200Y-94856469D01*
X144968360Y-94866165D01*
X144906095Y-94872709D01*
X144849460Y-94882695D01*
X144817459Y-94882025D01*
X144780000Y-94885962D01*
X144723902Y-94880066D01*
X144672799Y-94878996D01*
X144635323Y-94870756D01*
X144591640Y-94866165D01*
X144543917Y-94850659D01*
X144500225Y-94841052D01*
X144459230Y-94823142D01*
X144411512Y-94807637D01*
X144373473Y-94785675D01*
X144338310Y-94770313D01*
X144296337Y-94741141D01*
X144247489Y-94712939D01*
X144219504Y-94687741D01*
X144193215Y-94669470D01*
X144153257Y-94628092D01*
X144106739Y-94586207D01*
X144088296Y-94560823D01*
X144070473Y-94542366D01*
X144035821Y-94488597D01*
X143995414Y-94432981D01*
X143985212Y-94410066D01*
X143974754Y-94393839D01*
X143948789Y-94328261D01*
X143918379Y-94259958D01*
X143914476Y-94241596D01*
X143909707Y-94229551D01*
X143895740Y-94153448D01*
X143879001Y-94074699D01*
X143879001Y-94062246D01*
X143877811Y-94055762D01*
X143879001Y-93970535D01*
X143879001Y-93885301D01*
X143880275Y-93879308D01*
X143880278Y-93879077D01*
X143917015Y-93706246D01*
X143917105Y-93706036D01*
X143918379Y-93700042D01*
X143953042Y-93622188D01*
X143986622Y-93543839D01*
X143990348Y-93538397D01*
X143995414Y-93527019D01*
X144042746Y-93461872D01*
X144086452Y-93398041D01*
X144095706Y-93388979D01*
X144106739Y-93373793D01*
X144162297Y-93323769D01*
X144212693Y-93274417D01*
X144228848Y-93263846D01*
X144247489Y-93247061D01*
X144307026Y-93212687D01*
X144360551Y-93177662D01*
X144384340Y-93168050D01*
X144411512Y-93152363D01*
X144471045Y-93133019D01*
X144524376Y-93111472D01*
X144555820Y-93105474D01*
X144591640Y-93093835D01*
X144647744Y-93087938D01*
X144697945Y-93078362D01*
X144736312Y-93078630D01*
X144780000Y-93074038D01*
X144829902Y-93079283D01*
G37*
G36*
X175309902Y-93079283D02*
G01*
X175354637Y-93079595D01*
X175398460Y-93088590D01*
X175448360Y-93093835D01*
X175490132Y-93107408D01*
X175527723Y-93115124D01*
X175574851Y-93134935D01*
X175628488Y-93152363D01*
X175661099Y-93171191D01*
X175690614Y-93183598D01*
X175738301Y-93215763D01*
X175792511Y-93247061D01*
X175815826Y-93268054D01*
X175837101Y-93282404D01*
X175882183Y-93327802D01*
X175933261Y-93373793D01*
X175948003Y-93394083D01*
X175961608Y-93407784D01*
X176000643Y-93466537D01*
X176044586Y-93527019D01*
X176052221Y-93544168D01*
X176059388Y-93554955D01*
X176088865Y-93626472D01*
X176121621Y-93700042D01*
X176124211Y-93712225D01*
X176126724Y-93718323D01*
X176143292Y-93801997D01*
X176160999Y-93885301D01*
X176160999Y-94074699D01*
X176158115Y-94088269D01*
X176158030Y-94094331D01*
X176139342Y-94176585D01*
X176121621Y-94259958D01*
X176119129Y-94265555D01*
X176119078Y-94265780D01*
X176047210Y-94427197D01*
X176047078Y-94427385D01*
X176044586Y-94432981D01*
X175994480Y-94501946D01*
X175945357Y-94571582D01*
X175940585Y-94576126D01*
X175933261Y-94586207D01*
X175873396Y-94640110D01*
X175817396Y-94693438D01*
X175806464Y-94700376D01*
X175792511Y-94712939D01*
X175727764Y-94750321D01*
X175668211Y-94788114D01*
X175650209Y-94795097D01*
X175628488Y-94807637D01*
X175563115Y-94828878D01*
X175503468Y-94852014D01*
X175478200Y-94856469D01*
X175448360Y-94866165D01*
X175386095Y-94872709D01*
X175329460Y-94882695D01*
X175297459Y-94882025D01*
X175260000Y-94885962D01*
X175203902Y-94880066D01*
X175152799Y-94878996D01*
X175115323Y-94870756D01*
X175071640Y-94866165D01*
X175023917Y-94850659D01*
X174980225Y-94841052D01*
X174939230Y-94823142D01*
X174891512Y-94807637D01*
X174853473Y-94785675D01*
X174818310Y-94770313D01*
X174776337Y-94741141D01*
X174727489Y-94712939D01*
X174699504Y-94687741D01*
X174673215Y-94669470D01*
X174633257Y-94628092D01*
X174586739Y-94586207D01*
X174568296Y-94560823D01*
X174550473Y-94542366D01*
X174515821Y-94488597D01*
X174475414Y-94432981D01*
X174465212Y-94410066D01*
X174454754Y-94393839D01*
X174428789Y-94328261D01*
X174398379Y-94259958D01*
X174394476Y-94241596D01*
X174389707Y-94229551D01*
X174375740Y-94153448D01*
X174359001Y-94074699D01*
X174359001Y-94062246D01*
X174357811Y-94055762D01*
X174359001Y-93970535D01*
X174359001Y-93885301D01*
X174360275Y-93879308D01*
X174360278Y-93879077D01*
X174397015Y-93706246D01*
X174397105Y-93706036D01*
X174398379Y-93700042D01*
X174433042Y-93622188D01*
X174466622Y-93543839D01*
X174470348Y-93538397D01*
X174475414Y-93527019D01*
X174522746Y-93461872D01*
X174566452Y-93398041D01*
X174575706Y-93388979D01*
X174586739Y-93373793D01*
X174642297Y-93323769D01*
X174692693Y-93274417D01*
X174708848Y-93263846D01*
X174727489Y-93247061D01*
X174787026Y-93212687D01*
X174840551Y-93177662D01*
X174864340Y-93168050D01*
X174891512Y-93152363D01*
X174951045Y-93133019D01*
X175004376Y-93111472D01*
X175035820Y-93105474D01*
X175071640Y-93093835D01*
X175127744Y-93087938D01*
X175177945Y-93078362D01*
X175216312Y-93078630D01*
X175260000Y-93074038D01*
X175309902Y-93079283D01*
G37*
G36*
X134669902Y-93079283D02*
G01*
X134714637Y-93079595D01*
X134758460Y-93088590D01*
X134808360Y-93093835D01*
X134850132Y-93107408D01*
X134887723Y-93115124D01*
X134934851Y-93134935D01*
X134988488Y-93152363D01*
X135021099Y-93171191D01*
X135050614Y-93183598D01*
X135098301Y-93215763D01*
X135152511Y-93247061D01*
X135175826Y-93268054D01*
X135197101Y-93282404D01*
X135242183Y-93327802D01*
X135293261Y-93373793D01*
X135308003Y-93394083D01*
X135321608Y-93407784D01*
X135360643Y-93466537D01*
X135404586Y-93527019D01*
X135412221Y-93544168D01*
X135419388Y-93554955D01*
X135448865Y-93626472D01*
X135481621Y-93700042D01*
X135484211Y-93712225D01*
X135486724Y-93718323D01*
X135503292Y-93801997D01*
X135520999Y-93885301D01*
X135520999Y-94074699D01*
X135518115Y-94088269D01*
X135518030Y-94094331D01*
X135499342Y-94176585D01*
X135481621Y-94259958D01*
X135479129Y-94265555D01*
X135479078Y-94265780D01*
X135407210Y-94427197D01*
X135407078Y-94427385D01*
X135404586Y-94432981D01*
X135354480Y-94501946D01*
X135305357Y-94571582D01*
X135300585Y-94576126D01*
X135293261Y-94586207D01*
X135233396Y-94640110D01*
X135177396Y-94693438D01*
X135166464Y-94700376D01*
X135152511Y-94712939D01*
X135087764Y-94750321D01*
X135028211Y-94788114D01*
X135010209Y-94795097D01*
X134988488Y-94807637D01*
X134923115Y-94828878D01*
X134863468Y-94852014D01*
X134838200Y-94856469D01*
X134808360Y-94866165D01*
X134746095Y-94872709D01*
X134689460Y-94882695D01*
X134657459Y-94882025D01*
X134620000Y-94885962D01*
X134563902Y-94880066D01*
X134512799Y-94878996D01*
X134475323Y-94870756D01*
X134431640Y-94866165D01*
X134383917Y-94850659D01*
X134340225Y-94841052D01*
X134299230Y-94823142D01*
X134251512Y-94807637D01*
X134213473Y-94785675D01*
X134178310Y-94770313D01*
X134136337Y-94741141D01*
X134087489Y-94712939D01*
X134059504Y-94687741D01*
X134033215Y-94669470D01*
X133993257Y-94628092D01*
X133946739Y-94586207D01*
X133928296Y-94560823D01*
X133910473Y-94542366D01*
X133875821Y-94488597D01*
X133835414Y-94432981D01*
X133825212Y-94410066D01*
X133814754Y-94393839D01*
X133788789Y-94328261D01*
X133758379Y-94259958D01*
X133754476Y-94241596D01*
X133749707Y-94229551D01*
X133735740Y-94153448D01*
X133719001Y-94074699D01*
X133719001Y-94062246D01*
X133717811Y-94055762D01*
X133719001Y-93970535D01*
X133719001Y-93885301D01*
X133720275Y-93879308D01*
X133720278Y-93879077D01*
X133757015Y-93706246D01*
X133757105Y-93706036D01*
X133758379Y-93700042D01*
X133793042Y-93622188D01*
X133826622Y-93543839D01*
X133830348Y-93538397D01*
X133835414Y-93527019D01*
X133882746Y-93461872D01*
X133926452Y-93398041D01*
X133935706Y-93388979D01*
X133946739Y-93373793D01*
X134002297Y-93323769D01*
X134052693Y-93274417D01*
X134068848Y-93263846D01*
X134087489Y-93247061D01*
X134147026Y-93212687D01*
X134200551Y-93177662D01*
X134224340Y-93168050D01*
X134251512Y-93152363D01*
X134311045Y-93133019D01*
X134364376Y-93111472D01*
X134395820Y-93105474D01*
X134431640Y-93093835D01*
X134487744Y-93087938D01*
X134537945Y-93078362D01*
X134576312Y-93078630D01*
X134620000Y-93074038D01*
X134669902Y-93079283D01*
G37*
G36*
X160069902Y-93079283D02*
G01*
X160114637Y-93079595D01*
X160158460Y-93088590D01*
X160208360Y-93093835D01*
X160250132Y-93107408D01*
X160287723Y-93115124D01*
X160334851Y-93134935D01*
X160388488Y-93152363D01*
X160421099Y-93171191D01*
X160450614Y-93183598D01*
X160498301Y-93215763D01*
X160552511Y-93247061D01*
X160575826Y-93268054D01*
X160597101Y-93282404D01*
X160642183Y-93327802D01*
X160693261Y-93373793D01*
X160708003Y-93394083D01*
X160721608Y-93407784D01*
X160760643Y-93466537D01*
X160804586Y-93527019D01*
X160812221Y-93544168D01*
X160819388Y-93554955D01*
X160848865Y-93626472D01*
X160881621Y-93700042D01*
X160884211Y-93712225D01*
X160886724Y-93718323D01*
X160903292Y-93801997D01*
X160920999Y-93885301D01*
X160920999Y-94074699D01*
X160918115Y-94088269D01*
X160918030Y-94094331D01*
X160899342Y-94176585D01*
X160881621Y-94259958D01*
X160879129Y-94265555D01*
X160879078Y-94265780D01*
X160807210Y-94427197D01*
X160807078Y-94427385D01*
X160804586Y-94432981D01*
X160754480Y-94501946D01*
X160705357Y-94571582D01*
X160700585Y-94576126D01*
X160693261Y-94586207D01*
X160633396Y-94640110D01*
X160577396Y-94693438D01*
X160566464Y-94700376D01*
X160552511Y-94712939D01*
X160487764Y-94750321D01*
X160428211Y-94788114D01*
X160410209Y-94795097D01*
X160388488Y-94807637D01*
X160323115Y-94828878D01*
X160263468Y-94852014D01*
X160238200Y-94856469D01*
X160208360Y-94866165D01*
X160146095Y-94872709D01*
X160089460Y-94882695D01*
X160057459Y-94882025D01*
X160020000Y-94885962D01*
X159963902Y-94880066D01*
X159912799Y-94878996D01*
X159875323Y-94870756D01*
X159831640Y-94866165D01*
X159783917Y-94850659D01*
X159740225Y-94841052D01*
X159699230Y-94823142D01*
X159651512Y-94807637D01*
X159613473Y-94785675D01*
X159578310Y-94770313D01*
X159536337Y-94741141D01*
X159487489Y-94712939D01*
X159459504Y-94687741D01*
X159433215Y-94669470D01*
X159393257Y-94628092D01*
X159346739Y-94586207D01*
X159328296Y-94560823D01*
X159310473Y-94542366D01*
X159275821Y-94488597D01*
X159235414Y-94432981D01*
X159225212Y-94410066D01*
X159214754Y-94393839D01*
X159188789Y-94328261D01*
X159158379Y-94259958D01*
X159154476Y-94241596D01*
X159149707Y-94229551D01*
X159135740Y-94153448D01*
X159119001Y-94074699D01*
X159119001Y-94062246D01*
X159117811Y-94055762D01*
X159119001Y-93970535D01*
X159119001Y-93885301D01*
X159120275Y-93879308D01*
X159120278Y-93879077D01*
X159157015Y-93706246D01*
X159157105Y-93706036D01*
X159158379Y-93700042D01*
X159193042Y-93622188D01*
X159226622Y-93543839D01*
X159230348Y-93538397D01*
X159235414Y-93527019D01*
X159282746Y-93461872D01*
X159326452Y-93398041D01*
X159335706Y-93388979D01*
X159346739Y-93373793D01*
X159402297Y-93323769D01*
X159452693Y-93274417D01*
X159468848Y-93263846D01*
X159487489Y-93247061D01*
X159547026Y-93212687D01*
X159600551Y-93177662D01*
X159624340Y-93168050D01*
X159651512Y-93152363D01*
X159711045Y-93133019D01*
X159764376Y-93111472D01*
X159795820Y-93105474D01*
X159831640Y-93093835D01*
X159887744Y-93087938D01*
X159937945Y-93078362D01*
X159976312Y-93078630D01*
X160020000Y-93074038D01*
X160069902Y-93079283D01*
G37*
G36*
X177849902Y-93079283D02*
G01*
X177894637Y-93079595D01*
X177938460Y-93088590D01*
X177988360Y-93093835D01*
X178030132Y-93107408D01*
X178067723Y-93115124D01*
X178114851Y-93134935D01*
X178168488Y-93152363D01*
X178201099Y-93171191D01*
X178230614Y-93183598D01*
X178278301Y-93215763D01*
X178332511Y-93247061D01*
X178355826Y-93268054D01*
X178377101Y-93282404D01*
X178422183Y-93327802D01*
X178473261Y-93373793D01*
X178488003Y-93394083D01*
X178501608Y-93407784D01*
X178540643Y-93466537D01*
X178584586Y-93527019D01*
X178592221Y-93544168D01*
X178599388Y-93554955D01*
X178628865Y-93626472D01*
X178661621Y-93700042D01*
X178664211Y-93712225D01*
X178666724Y-93718323D01*
X178683292Y-93801997D01*
X178700999Y-93885301D01*
X178700999Y-94074699D01*
X178698115Y-94088269D01*
X178698030Y-94094331D01*
X178679342Y-94176585D01*
X178661621Y-94259958D01*
X178659129Y-94265555D01*
X178659078Y-94265780D01*
X178587210Y-94427197D01*
X178587078Y-94427385D01*
X178584586Y-94432981D01*
X178534480Y-94501946D01*
X178485357Y-94571582D01*
X178480585Y-94576126D01*
X178473261Y-94586207D01*
X178413396Y-94640110D01*
X178357396Y-94693438D01*
X178346464Y-94700376D01*
X178332511Y-94712939D01*
X178267764Y-94750321D01*
X178208211Y-94788114D01*
X178190209Y-94795097D01*
X178168488Y-94807637D01*
X178103115Y-94828878D01*
X178043468Y-94852014D01*
X178018200Y-94856469D01*
X177988360Y-94866165D01*
X177926095Y-94872709D01*
X177869460Y-94882695D01*
X177837459Y-94882025D01*
X177800000Y-94885962D01*
X177743902Y-94880066D01*
X177692799Y-94878996D01*
X177655323Y-94870756D01*
X177611640Y-94866165D01*
X177563917Y-94850659D01*
X177520225Y-94841052D01*
X177479230Y-94823142D01*
X177431512Y-94807637D01*
X177393473Y-94785675D01*
X177358310Y-94770313D01*
X177316337Y-94741141D01*
X177267489Y-94712939D01*
X177239504Y-94687741D01*
X177213215Y-94669470D01*
X177173257Y-94628092D01*
X177126739Y-94586207D01*
X177108296Y-94560823D01*
X177090473Y-94542366D01*
X177055821Y-94488597D01*
X177015414Y-94432981D01*
X177005212Y-94410066D01*
X176994754Y-94393839D01*
X176968789Y-94328261D01*
X176938379Y-94259958D01*
X176934476Y-94241596D01*
X176929707Y-94229551D01*
X176915740Y-94153448D01*
X176899001Y-94074699D01*
X176899001Y-94062246D01*
X176897811Y-94055762D01*
X176899001Y-93970535D01*
X176899001Y-93885301D01*
X176900275Y-93879308D01*
X176900278Y-93879077D01*
X176937015Y-93706246D01*
X176937105Y-93706036D01*
X176938379Y-93700042D01*
X176973042Y-93622188D01*
X177006622Y-93543839D01*
X177010348Y-93538397D01*
X177015414Y-93527019D01*
X177062746Y-93461872D01*
X177106452Y-93398041D01*
X177115706Y-93388979D01*
X177126739Y-93373793D01*
X177182297Y-93323769D01*
X177232693Y-93274417D01*
X177248848Y-93263846D01*
X177267489Y-93247061D01*
X177327026Y-93212687D01*
X177380551Y-93177662D01*
X177404340Y-93168050D01*
X177431512Y-93152363D01*
X177491045Y-93133019D01*
X177544376Y-93111472D01*
X177575820Y-93105474D01*
X177611640Y-93093835D01*
X177667744Y-93087938D01*
X177717945Y-93078362D01*
X177756312Y-93078630D01*
X177800000Y-93074038D01*
X177849902Y-93079283D01*
G37*
G36*
X165149902Y-93079283D02*
G01*
X165194637Y-93079595D01*
X165238460Y-93088590D01*
X165288360Y-93093835D01*
X165330132Y-93107408D01*
X165367723Y-93115124D01*
X165414851Y-93134935D01*
X165468488Y-93152363D01*
X165501099Y-93171191D01*
X165530614Y-93183598D01*
X165578301Y-93215763D01*
X165632511Y-93247061D01*
X165655826Y-93268054D01*
X165677101Y-93282404D01*
X165722183Y-93327802D01*
X165773261Y-93373793D01*
X165788003Y-93394083D01*
X165801608Y-93407784D01*
X165840643Y-93466537D01*
X165884586Y-93527019D01*
X165892221Y-93544168D01*
X165899388Y-93554955D01*
X165928865Y-93626472D01*
X165961621Y-93700042D01*
X165964211Y-93712225D01*
X165966724Y-93718323D01*
X165983292Y-93801997D01*
X166000999Y-93885301D01*
X166000999Y-94074699D01*
X165998115Y-94088269D01*
X165998030Y-94094331D01*
X165979342Y-94176585D01*
X165961621Y-94259958D01*
X165959129Y-94265555D01*
X165959078Y-94265780D01*
X165887210Y-94427197D01*
X165887078Y-94427385D01*
X165884586Y-94432981D01*
X165834480Y-94501946D01*
X165785357Y-94571582D01*
X165780585Y-94576126D01*
X165773261Y-94586207D01*
X165713396Y-94640110D01*
X165657396Y-94693438D01*
X165646464Y-94700376D01*
X165632511Y-94712939D01*
X165567764Y-94750321D01*
X165508211Y-94788114D01*
X165490209Y-94795097D01*
X165468488Y-94807637D01*
X165403115Y-94828878D01*
X165343468Y-94852014D01*
X165318200Y-94856469D01*
X165288360Y-94866165D01*
X165226095Y-94872709D01*
X165169460Y-94882695D01*
X165137459Y-94882025D01*
X165100000Y-94885962D01*
X165043902Y-94880066D01*
X164992799Y-94878996D01*
X164955323Y-94870756D01*
X164911640Y-94866165D01*
X164863917Y-94850659D01*
X164820225Y-94841052D01*
X164779230Y-94823142D01*
X164731512Y-94807637D01*
X164693473Y-94785675D01*
X164658310Y-94770313D01*
X164616337Y-94741141D01*
X164567489Y-94712939D01*
X164539504Y-94687741D01*
X164513215Y-94669470D01*
X164473257Y-94628092D01*
X164426739Y-94586207D01*
X164408296Y-94560823D01*
X164390473Y-94542366D01*
X164355821Y-94488597D01*
X164315414Y-94432981D01*
X164305212Y-94410066D01*
X164294754Y-94393839D01*
X164268789Y-94328261D01*
X164238379Y-94259958D01*
X164234476Y-94241596D01*
X164229707Y-94229551D01*
X164215740Y-94153448D01*
X164199001Y-94074699D01*
X164199001Y-94062246D01*
X164197811Y-94055762D01*
X164199001Y-93970535D01*
X164199001Y-93885301D01*
X164200275Y-93879308D01*
X164200278Y-93879077D01*
X164237015Y-93706246D01*
X164237105Y-93706036D01*
X164238379Y-93700042D01*
X164273042Y-93622188D01*
X164306622Y-93543839D01*
X164310348Y-93538397D01*
X164315414Y-93527019D01*
X164362746Y-93461872D01*
X164406452Y-93398041D01*
X164415706Y-93388979D01*
X164426739Y-93373793D01*
X164482297Y-93323769D01*
X164532693Y-93274417D01*
X164548848Y-93263846D01*
X164567489Y-93247061D01*
X164627026Y-93212687D01*
X164680551Y-93177662D01*
X164704340Y-93168050D01*
X164731512Y-93152363D01*
X164791045Y-93133019D01*
X164844376Y-93111472D01*
X164875820Y-93105474D01*
X164911640Y-93093835D01*
X164967744Y-93087938D01*
X165017945Y-93078362D01*
X165056312Y-93078630D01*
X165100000Y-93074038D01*
X165149902Y-93079283D01*
G37*
G36*
X167689902Y-93079283D02*
G01*
X167734637Y-93079595D01*
X167778460Y-93088590D01*
X167828360Y-93093835D01*
X167870132Y-93107408D01*
X167907723Y-93115124D01*
X167954851Y-93134935D01*
X168008488Y-93152363D01*
X168041099Y-93171191D01*
X168070614Y-93183598D01*
X168118301Y-93215763D01*
X168172511Y-93247061D01*
X168195826Y-93268054D01*
X168217101Y-93282404D01*
X168262183Y-93327802D01*
X168313261Y-93373793D01*
X168328003Y-93394083D01*
X168341608Y-93407784D01*
X168380643Y-93466537D01*
X168424586Y-93527019D01*
X168432221Y-93544168D01*
X168439388Y-93554955D01*
X168468865Y-93626472D01*
X168501621Y-93700042D01*
X168504211Y-93712225D01*
X168506724Y-93718323D01*
X168523292Y-93801997D01*
X168540999Y-93885301D01*
X168540999Y-94074699D01*
X168538115Y-94088269D01*
X168538030Y-94094331D01*
X168519342Y-94176585D01*
X168501621Y-94259958D01*
X168499129Y-94265555D01*
X168499078Y-94265780D01*
X168427210Y-94427197D01*
X168427078Y-94427385D01*
X168424586Y-94432981D01*
X168374480Y-94501946D01*
X168325357Y-94571582D01*
X168320585Y-94576126D01*
X168313261Y-94586207D01*
X168253396Y-94640110D01*
X168197396Y-94693438D01*
X168186464Y-94700376D01*
X168172511Y-94712939D01*
X168107764Y-94750321D01*
X168048211Y-94788114D01*
X168030209Y-94795097D01*
X168008488Y-94807637D01*
X167943115Y-94828878D01*
X167883468Y-94852014D01*
X167858200Y-94856469D01*
X167828360Y-94866165D01*
X167766095Y-94872709D01*
X167709460Y-94882695D01*
X167677459Y-94882025D01*
X167640000Y-94885962D01*
X167583902Y-94880066D01*
X167532799Y-94878996D01*
X167495323Y-94870756D01*
X167451640Y-94866165D01*
X167403917Y-94850659D01*
X167360225Y-94841052D01*
X167319230Y-94823142D01*
X167271512Y-94807637D01*
X167233473Y-94785675D01*
X167198310Y-94770313D01*
X167156337Y-94741141D01*
X167107489Y-94712939D01*
X167079504Y-94687741D01*
X167053215Y-94669470D01*
X167013257Y-94628092D01*
X166966739Y-94586207D01*
X166948296Y-94560823D01*
X166930473Y-94542366D01*
X166895821Y-94488597D01*
X166855414Y-94432981D01*
X166845212Y-94410066D01*
X166834754Y-94393839D01*
X166808789Y-94328261D01*
X166778379Y-94259958D01*
X166774476Y-94241596D01*
X166769707Y-94229551D01*
X166755740Y-94153448D01*
X166739001Y-94074699D01*
X166739001Y-94062246D01*
X166737811Y-94055762D01*
X166739001Y-93970535D01*
X166739001Y-93885301D01*
X166740275Y-93879308D01*
X166740278Y-93879077D01*
X166777015Y-93706246D01*
X166777105Y-93706036D01*
X166778379Y-93700042D01*
X166813042Y-93622188D01*
X166846622Y-93543839D01*
X166850348Y-93538397D01*
X166855414Y-93527019D01*
X166902746Y-93461872D01*
X166946452Y-93398041D01*
X166955706Y-93388979D01*
X166966739Y-93373793D01*
X167022297Y-93323769D01*
X167072693Y-93274417D01*
X167088848Y-93263846D01*
X167107489Y-93247061D01*
X167167026Y-93212687D01*
X167220551Y-93177662D01*
X167244340Y-93168050D01*
X167271512Y-93152363D01*
X167331045Y-93133019D01*
X167384376Y-93111472D01*
X167415820Y-93105474D01*
X167451640Y-93093835D01*
X167507744Y-93087938D01*
X167557945Y-93078362D01*
X167596312Y-93078630D01*
X167640000Y-93074038D01*
X167689902Y-93079283D01*
G37*
G36*
X180389902Y-93079283D02*
G01*
X180434637Y-93079595D01*
X180478460Y-93088590D01*
X180528360Y-93093835D01*
X180570132Y-93107408D01*
X180607723Y-93115124D01*
X180654851Y-93134935D01*
X180708488Y-93152363D01*
X180741099Y-93171191D01*
X180770614Y-93183598D01*
X180818301Y-93215763D01*
X180872511Y-93247061D01*
X180895826Y-93268054D01*
X180917101Y-93282404D01*
X180962183Y-93327802D01*
X181013261Y-93373793D01*
X181028003Y-93394083D01*
X181041608Y-93407784D01*
X181080643Y-93466537D01*
X181124586Y-93527019D01*
X181132221Y-93544168D01*
X181139388Y-93554955D01*
X181168865Y-93626472D01*
X181201621Y-93700042D01*
X181204211Y-93712225D01*
X181206724Y-93718323D01*
X181223292Y-93801997D01*
X181240999Y-93885301D01*
X181240999Y-94074699D01*
X181238115Y-94088269D01*
X181238030Y-94094331D01*
X181219342Y-94176585D01*
X181201621Y-94259958D01*
X181199129Y-94265555D01*
X181199078Y-94265780D01*
X181127210Y-94427197D01*
X181127078Y-94427385D01*
X181124586Y-94432981D01*
X181074480Y-94501946D01*
X181025357Y-94571582D01*
X181020585Y-94576126D01*
X181013261Y-94586207D01*
X180953396Y-94640110D01*
X180897396Y-94693438D01*
X180886464Y-94700376D01*
X180872511Y-94712939D01*
X180807764Y-94750321D01*
X180748211Y-94788114D01*
X180730209Y-94795097D01*
X180708488Y-94807637D01*
X180643115Y-94828878D01*
X180583468Y-94852014D01*
X180558200Y-94856469D01*
X180528360Y-94866165D01*
X180466095Y-94872709D01*
X180409460Y-94882695D01*
X180377459Y-94882025D01*
X180340000Y-94885962D01*
X180283902Y-94880066D01*
X180232799Y-94878996D01*
X180195323Y-94870756D01*
X180151640Y-94866165D01*
X180103917Y-94850659D01*
X180060225Y-94841052D01*
X180019230Y-94823142D01*
X179971512Y-94807637D01*
X179933473Y-94785675D01*
X179898310Y-94770313D01*
X179856337Y-94741141D01*
X179807489Y-94712939D01*
X179779504Y-94687741D01*
X179753215Y-94669470D01*
X179713257Y-94628092D01*
X179666739Y-94586207D01*
X179648296Y-94560823D01*
X179630473Y-94542366D01*
X179595821Y-94488597D01*
X179555414Y-94432981D01*
X179545212Y-94410066D01*
X179534754Y-94393839D01*
X179508789Y-94328261D01*
X179478379Y-94259958D01*
X179474476Y-94241596D01*
X179469707Y-94229551D01*
X179455740Y-94153448D01*
X179439001Y-94074699D01*
X179439001Y-94062246D01*
X179437811Y-94055762D01*
X179439001Y-93970535D01*
X179439001Y-93885301D01*
X179440275Y-93879308D01*
X179440278Y-93879077D01*
X179477015Y-93706246D01*
X179477105Y-93706036D01*
X179478379Y-93700042D01*
X179513042Y-93622188D01*
X179546622Y-93543839D01*
X179550348Y-93538397D01*
X179555414Y-93527019D01*
X179602746Y-93461872D01*
X179646452Y-93398041D01*
X179655706Y-93388979D01*
X179666739Y-93373793D01*
X179722297Y-93323769D01*
X179772693Y-93274417D01*
X179788848Y-93263846D01*
X179807489Y-93247061D01*
X179867026Y-93212687D01*
X179920551Y-93177662D01*
X179944340Y-93168050D01*
X179971512Y-93152363D01*
X180031045Y-93133019D01*
X180084376Y-93111472D01*
X180115820Y-93105474D01*
X180151640Y-93093835D01*
X180207744Y-93087938D01*
X180257945Y-93078362D01*
X180296312Y-93078630D01*
X180340000Y-93074038D01*
X180389902Y-93079283D01*
G37*
G36*
X170229902Y-93079283D02*
G01*
X170274637Y-93079595D01*
X170318460Y-93088590D01*
X170368360Y-93093835D01*
X170410132Y-93107408D01*
X170447723Y-93115124D01*
X170494851Y-93134935D01*
X170548488Y-93152363D01*
X170581099Y-93171191D01*
X170610614Y-93183598D01*
X170658301Y-93215763D01*
X170712511Y-93247061D01*
X170735826Y-93268054D01*
X170757101Y-93282404D01*
X170802183Y-93327802D01*
X170853261Y-93373793D01*
X170868003Y-93394083D01*
X170881608Y-93407784D01*
X170920643Y-93466537D01*
X170964586Y-93527019D01*
X170972221Y-93544168D01*
X170979388Y-93554955D01*
X171008865Y-93626472D01*
X171041621Y-93700042D01*
X171044211Y-93712225D01*
X171046724Y-93718323D01*
X171063292Y-93801997D01*
X171080999Y-93885301D01*
X171080999Y-94074699D01*
X171078115Y-94088269D01*
X171078030Y-94094331D01*
X171059342Y-94176585D01*
X171041621Y-94259958D01*
X171039129Y-94265555D01*
X171039078Y-94265780D01*
X170967210Y-94427197D01*
X170967078Y-94427385D01*
X170964586Y-94432981D01*
X170914480Y-94501946D01*
X170865357Y-94571582D01*
X170860585Y-94576126D01*
X170853261Y-94586207D01*
X170793396Y-94640110D01*
X170737396Y-94693438D01*
X170726464Y-94700376D01*
X170712511Y-94712939D01*
X170647764Y-94750321D01*
X170588211Y-94788114D01*
X170570209Y-94795097D01*
X170548488Y-94807637D01*
X170483115Y-94828878D01*
X170423468Y-94852014D01*
X170398200Y-94856469D01*
X170368360Y-94866165D01*
X170306095Y-94872709D01*
X170249460Y-94882695D01*
X170217459Y-94882025D01*
X170180000Y-94885962D01*
X170123902Y-94880066D01*
X170072799Y-94878996D01*
X170035323Y-94870756D01*
X169991640Y-94866165D01*
X169943917Y-94850659D01*
X169900225Y-94841052D01*
X169859230Y-94823142D01*
X169811512Y-94807637D01*
X169773473Y-94785675D01*
X169738310Y-94770313D01*
X169696337Y-94741141D01*
X169647489Y-94712939D01*
X169619504Y-94687741D01*
X169593215Y-94669470D01*
X169553257Y-94628092D01*
X169506739Y-94586207D01*
X169488296Y-94560823D01*
X169470473Y-94542366D01*
X169435821Y-94488597D01*
X169395414Y-94432981D01*
X169385212Y-94410066D01*
X169374754Y-94393839D01*
X169348789Y-94328261D01*
X169318379Y-94259958D01*
X169314476Y-94241596D01*
X169309707Y-94229551D01*
X169295740Y-94153448D01*
X169279001Y-94074699D01*
X169279001Y-94062246D01*
X169277811Y-94055762D01*
X169279001Y-93970535D01*
X169279001Y-93885301D01*
X169280275Y-93879308D01*
X169280278Y-93879077D01*
X169317015Y-93706246D01*
X169317105Y-93706036D01*
X169318379Y-93700042D01*
X169353042Y-93622188D01*
X169386622Y-93543839D01*
X169390348Y-93538397D01*
X169395414Y-93527019D01*
X169442746Y-93461872D01*
X169486452Y-93398041D01*
X169495706Y-93388979D01*
X169506739Y-93373793D01*
X169562297Y-93323769D01*
X169612693Y-93274417D01*
X169628848Y-93263846D01*
X169647489Y-93247061D01*
X169707026Y-93212687D01*
X169760551Y-93177662D01*
X169784340Y-93168050D01*
X169811512Y-93152363D01*
X169871045Y-93133019D01*
X169924376Y-93111472D01*
X169955820Y-93105474D01*
X169991640Y-93093835D01*
X170047744Y-93087938D01*
X170097945Y-93078362D01*
X170136312Y-93078630D01*
X170180000Y-93074038D01*
X170229902Y-93079283D01*
G37*
G36*
X183749899Y-93081959D02*
G01*
X183766769Y-93093231D01*
X183778041Y-93110101D01*
X183784448Y-93142312D01*
X183784448Y-94817688D01*
X183781999Y-94830000D01*
X183778041Y-94849899D01*
X183766769Y-94866769D01*
X183749899Y-94878041D01*
X183730000Y-94881999D01*
X183717688Y-94884448D01*
X182042312Y-94884448D01*
X182010101Y-94878041D01*
X181993231Y-94866769D01*
X181981959Y-94849899D01*
X181975552Y-94817688D01*
X181975552Y-93142312D01*
X181981959Y-93110101D01*
X181993231Y-93093231D01*
X182010101Y-93081959D01*
X182042312Y-93075552D01*
X183717688Y-93075552D01*
X183749899Y-93081959D01*
G37*
G36*
X159884308Y-88084245D02*
G01*
X159935442Y-88084602D01*
X159974208Y-88093695D01*
X160007453Y-88097189D01*
X160055075Y-88112662D01*
X160110397Y-88125638D01*
X160141102Y-88140614D01*
X160167593Y-88149221D01*
X160215718Y-88177006D01*
X160271913Y-88204414D01*
X160294132Y-88222278D01*
X160313407Y-88233407D01*
X160358743Y-88274227D01*
X160411962Y-88317017D01*
X160426159Y-88334929D01*
X160438539Y-88346076D01*
X160477535Y-88399749D01*
X160523584Y-88457849D01*
X160531015Y-88473360D01*
X160537506Y-88482293D01*
X160566540Y-88547504D01*
X160601232Y-88619911D01*
X160603789Y-88631167D01*
X160605991Y-88636112D01*
X160621645Y-88709759D01*
X160641045Y-88795148D01*
X160640968Y-88800667D01*
X160640999Y-88800813D01*
X160640999Y-88969187D01*
X160638446Y-88981197D01*
X160638223Y-88997183D01*
X160619781Y-89069008D01*
X160605991Y-89133888D01*
X160599217Y-89149103D01*
X160593533Y-89171240D01*
X160562321Y-89231972D01*
X160537506Y-89287707D01*
X160524422Y-89305716D01*
X160511391Y-89331071D01*
X160471205Y-89378963D01*
X160438539Y-89423924D01*
X160417839Y-89442563D01*
X160395880Y-89468732D01*
X160350622Y-89503085D01*
X160313407Y-89536593D01*
X160284451Y-89553311D01*
X160252741Y-89577380D01*
X160206177Y-89598502D01*
X160167593Y-89620779D01*
X160130500Y-89632831D01*
X160089089Y-89651616D01*
X160044541Y-89660761D01*
X160007453Y-89672811D01*
X159963153Y-89677467D01*
X159913056Y-89687751D01*
X159873250Y-89686917D01*
X159840000Y-89690412D01*
X159790196Y-89685177D01*
X159733392Y-89683987D01*
X159700244Y-89675722D01*
X159672547Y-89672811D01*
X159619704Y-89655641D01*
X159559027Y-89640513D01*
X159533578Y-89627658D01*
X159512407Y-89620779D01*
X159459572Y-89590274D01*
X159398627Y-89559489D01*
X159381017Y-89544921D01*
X159366593Y-89536593D01*
X159317302Y-89492211D01*
X159260163Y-89444942D01*
X159249667Y-89431313D01*
X159241461Y-89423924D01*
X159199501Y-89366171D01*
X159150518Y-89302565D01*
X159145677Y-89292088D01*
X159142494Y-89287707D01*
X159111854Y-89218890D01*
X159075141Y-89139435D01*
X159037779Y-88963658D01*
X159039001Y-88876143D01*
X159039001Y-88800813D01*
X159040127Y-88795516D01*
X159040288Y-88783973D01*
X159059170Y-88705926D01*
X159074009Y-88636112D01*
X159078500Y-88626026D01*
X159082544Y-88609309D01*
X159115514Y-88542891D01*
X159142494Y-88482293D01*
X159152283Y-88468820D01*
X159162446Y-88448346D01*
X159205604Y-88395430D01*
X159241461Y-88346076D01*
X159258004Y-88331181D01*
X159276024Y-88309086D01*
X159325298Y-88270589D01*
X159366593Y-88233407D01*
X159390713Y-88219481D01*
X159417632Y-88198450D01*
X159469039Y-88174260D01*
X159512407Y-88149221D01*
X159544203Y-88138890D01*
X159580232Y-88121936D01*
X159630183Y-88110954D01*
X159672547Y-88097189D01*
X159711331Y-88093112D01*
X159755743Y-88083348D01*
X159801209Y-88083665D01*
X159840000Y-88079588D01*
X159884308Y-88084245D01*
G37*
G36*
X164964308Y-88084245D02*
G01*
X165015442Y-88084602D01*
X165054208Y-88093695D01*
X165087453Y-88097189D01*
X165135075Y-88112662D01*
X165190397Y-88125638D01*
X165221102Y-88140614D01*
X165247593Y-88149221D01*
X165295718Y-88177006D01*
X165351913Y-88204414D01*
X165374132Y-88222278D01*
X165393407Y-88233407D01*
X165438743Y-88274227D01*
X165491962Y-88317017D01*
X165506159Y-88334929D01*
X165518539Y-88346076D01*
X165557535Y-88399749D01*
X165603584Y-88457849D01*
X165611015Y-88473360D01*
X165617506Y-88482293D01*
X165646540Y-88547504D01*
X165681232Y-88619911D01*
X165683789Y-88631167D01*
X165685991Y-88636112D01*
X165701645Y-88709759D01*
X165721045Y-88795148D01*
X165720968Y-88800667D01*
X165720999Y-88800813D01*
X165720999Y-88969187D01*
X165718446Y-88981197D01*
X165718223Y-88997183D01*
X165699781Y-89069008D01*
X165685991Y-89133888D01*
X165679217Y-89149103D01*
X165673533Y-89171240D01*
X165642321Y-89231972D01*
X165617506Y-89287707D01*
X165604422Y-89305716D01*
X165591391Y-89331071D01*
X165551205Y-89378963D01*
X165518539Y-89423924D01*
X165497839Y-89442563D01*
X165475880Y-89468732D01*
X165430622Y-89503085D01*
X165393407Y-89536593D01*
X165364451Y-89553311D01*
X165332741Y-89577380D01*
X165286177Y-89598502D01*
X165247593Y-89620779D01*
X165210500Y-89632831D01*
X165169089Y-89651616D01*
X165124541Y-89660761D01*
X165087453Y-89672811D01*
X165043153Y-89677467D01*
X164993056Y-89687751D01*
X164953250Y-89686917D01*
X164920000Y-89690412D01*
X164870196Y-89685177D01*
X164813392Y-89683987D01*
X164780244Y-89675722D01*
X164752547Y-89672811D01*
X164699704Y-89655641D01*
X164639027Y-89640513D01*
X164613578Y-89627658D01*
X164592407Y-89620779D01*
X164539572Y-89590274D01*
X164478627Y-89559489D01*
X164461017Y-89544921D01*
X164446593Y-89536593D01*
X164397302Y-89492211D01*
X164340163Y-89444942D01*
X164329667Y-89431313D01*
X164321461Y-89423924D01*
X164279501Y-89366171D01*
X164230518Y-89302565D01*
X164225677Y-89292088D01*
X164222494Y-89287707D01*
X164191854Y-89218890D01*
X164155141Y-89139435D01*
X164117779Y-88963658D01*
X164119001Y-88876143D01*
X164119001Y-88800813D01*
X164120127Y-88795516D01*
X164120288Y-88783973D01*
X164139170Y-88705926D01*
X164154009Y-88636112D01*
X164158500Y-88626026D01*
X164162544Y-88609309D01*
X164195514Y-88542891D01*
X164222494Y-88482293D01*
X164232283Y-88468820D01*
X164242446Y-88448346D01*
X164285604Y-88395430D01*
X164321461Y-88346076D01*
X164338004Y-88331181D01*
X164356024Y-88309086D01*
X164405298Y-88270589D01*
X164446593Y-88233407D01*
X164470713Y-88219481D01*
X164497632Y-88198450D01*
X164549039Y-88174260D01*
X164592407Y-88149221D01*
X164624203Y-88138890D01*
X164660232Y-88121936D01*
X164710183Y-88110954D01*
X164752547Y-88097189D01*
X164791331Y-88093112D01*
X164835743Y-88083348D01*
X164881209Y-88083665D01*
X164920000Y-88079588D01*
X164964308Y-88084245D01*
G37*
G36*
X162424308Y-88084245D02*
G01*
X162475442Y-88084602D01*
X162514208Y-88093695D01*
X162547453Y-88097189D01*
X162595075Y-88112662D01*
X162650397Y-88125638D01*
X162681102Y-88140614D01*
X162707593Y-88149221D01*
X162755718Y-88177006D01*
X162811913Y-88204414D01*
X162834132Y-88222278D01*
X162853407Y-88233407D01*
X162898743Y-88274227D01*
X162951962Y-88317017D01*
X162966159Y-88334929D01*
X162978539Y-88346076D01*
X163017535Y-88399749D01*
X163063584Y-88457849D01*
X163071015Y-88473360D01*
X163077506Y-88482293D01*
X163106540Y-88547504D01*
X163141232Y-88619911D01*
X163143789Y-88631167D01*
X163145991Y-88636112D01*
X163161645Y-88709759D01*
X163181045Y-88795148D01*
X163180968Y-88800667D01*
X163180999Y-88800813D01*
X163180999Y-88969187D01*
X163178446Y-88981197D01*
X163178223Y-88997183D01*
X163159781Y-89069008D01*
X163145991Y-89133888D01*
X163139217Y-89149103D01*
X163133533Y-89171240D01*
X163102321Y-89231972D01*
X163077506Y-89287707D01*
X163064422Y-89305716D01*
X163051391Y-89331071D01*
X163011205Y-89378963D01*
X162978539Y-89423924D01*
X162957839Y-89442563D01*
X162935880Y-89468732D01*
X162890622Y-89503085D01*
X162853407Y-89536593D01*
X162824451Y-89553311D01*
X162792741Y-89577380D01*
X162746177Y-89598502D01*
X162707593Y-89620779D01*
X162670500Y-89632831D01*
X162629089Y-89651616D01*
X162584541Y-89660761D01*
X162547453Y-89672811D01*
X162503153Y-89677467D01*
X162453056Y-89687751D01*
X162413250Y-89686917D01*
X162380000Y-89690412D01*
X162330196Y-89685177D01*
X162273392Y-89683987D01*
X162240244Y-89675722D01*
X162212547Y-89672811D01*
X162159704Y-89655641D01*
X162099027Y-89640513D01*
X162073578Y-89627658D01*
X162052407Y-89620779D01*
X161999572Y-89590274D01*
X161938627Y-89559489D01*
X161921017Y-89544921D01*
X161906593Y-89536593D01*
X161857302Y-89492211D01*
X161800163Y-89444942D01*
X161789667Y-89431313D01*
X161781461Y-89423924D01*
X161739501Y-89366171D01*
X161690518Y-89302565D01*
X161685677Y-89292088D01*
X161682494Y-89287707D01*
X161651854Y-89218890D01*
X161615141Y-89139435D01*
X161577779Y-88963658D01*
X161579001Y-88876143D01*
X161579001Y-88800813D01*
X161580127Y-88795516D01*
X161580288Y-88783973D01*
X161599170Y-88705926D01*
X161614009Y-88636112D01*
X161618500Y-88626026D01*
X161622544Y-88609309D01*
X161655514Y-88542891D01*
X161682494Y-88482293D01*
X161692283Y-88468820D01*
X161702446Y-88448346D01*
X161745604Y-88395430D01*
X161781461Y-88346076D01*
X161798004Y-88331181D01*
X161816024Y-88309086D01*
X161865298Y-88270589D01*
X161906593Y-88233407D01*
X161930713Y-88219481D01*
X161957632Y-88198450D01*
X162009039Y-88174260D01*
X162052407Y-88149221D01*
X162084203Y-88138890D01*
X162120232Y-88121936D01*
X162170183Y-88110954D01*
X162212547Y-88097189D01*
X162251331Y-88093112D01*
X162295743Y-88083348D01*
X162341209Y-88083665D01*
X162380000Y-88079588D01*
X162424308Y-88084245D01*
G37*
G36*
X157344308Y-88084245D02*
G01*
X157395442Y-88084602D01*
X157434208Y-88093695D01*
X157467453Y-88097189D01*
X157515075Y-88112662D01*
X157570397Y-88125638D01*
X157601102Y-88140614D01*
X157627593Y-88149221D01*
X157675718Y-88177006D01*
X157731913Y-88204414D01*
X157754132Y-88222278D01*
X157773407Y-88233407D01*
X157818743Y-88274227D01*
X157871962Y-88317017D01*
X157886159Y-88334929D01*
X157898539Y-88346076D01*
X157937535Y-88399749D01*
X157983584Y-88457849D01*
X157991015Y-88473360D01*
X157997506Y-88482293D01*
X158026540Y-88547504D01*
X158061232Y-88619911D01*
X158063789Y-88631167D01*
X158065991Y-88636112D01*
X158081645Y-88709759D01*
X158101045Y-88795148D01*
X158100968Y-88800667D01*
X158100999Y-88800813D01*
X158100999Y-88969187D01*
X158098446Y-88981197D01*
X158098223Y-88997183D01*
X158079781Y-89069008D01*
X158065991Y-89133888D01*
X158059217Y-89149103D01*
X158053533Y-89171240D01*
X158022321Y-89231972D01*
X157997506Y-89287707D01*
X157984422Y-89305716D01*
X157971391Y-89331071D01*
X157931205Y-89378963D01*
X157898539Y-89423924D01*
X157877839Y-89442563D01*
X157855880Y-89468732D01*
X157810622Y-89503085D01*
X157773407Y-89536593D01*
X157744451Y-89553311D01*
X157712741Y-89577380D01*
X157666177Y-89598502D01*
X157627593Y-89620779D01*
X157590500Y-89632831D01*
X157549089Y-89651616D01*
X157504541Y-89660761D01*
X157467453Y-89672811D01*
X157423153Y-89677467D01*
X157373056Y-89687751D01*
X157333250Y-89686917D01*
X157300000Y-89690412D01*
X157250196Y-89685177D01*
X157193392Y-89683987D01*
X157160244Y-89675722D01*
X157132547Y-89672811D01*
X157079704Y-89655641D01*
X157019027Y-89640513D01*
X156993578Y-89627658D01*
X156972407Y-89620779D01*
X156919572Y-89590274D01*
X156858627Y-89559489D01*
X156841017Y-89544921D01*
X156826593Y-89536593D01*
X156777302Y-89492211D01*
X156720163Y-89444942D01*
X156709667Y-89431313D01*
X156701461Y-89423924D01*
X156659501Y-89366171D01*
X156610518Y-89302565D01*
X156605677Y-89292088D01*
X156602494Y-89287707D01*
X156571854Y-89218890D01*
X156535141Y-89139435D01*
X156497779Y-88963658D01*
X156499001Y-88876143D01*
X156499001Y-88800813D01*
X156500127Y-88795516D01*
X156500288Y-88783973D01*
X156519170Y-88705926D01*
X156534009Y-88636112D01*
X156538500Y-88626026D01*
X156542544Y-88609309D01*
X156575514Y-88542891D01*
X156602494Y-88482293D01*
X156612283Y-88468820D01*
X156622446Y-88448346D01*
X156665604Y-88395430D01*
X156701461Y-88346076D01*
X156718004Y-88331181D01*
X156736024Y-88309086D01*
X156785298Y-88270589D01*
X156826593Y-88233407D01*
X156850713Y-88219481D01*
X156877632Y-88198450D01*
X156929039Y-88174260D01*
X156972407Y-88149221D01*
X157004203Y-88138890D01*
X157040232Y-88121936D01*
X157090183Y-88110954D01*
X157132547Y-88097189D01*
X157171331Y-88093112D01*
X157215743Y-88083348D01*
X157261209Y-88083665D01*
X157300000Y-88079588D01*
X157344308Y-88084245D01*
G37*
G36*
X154804308Y-88084245D02*
G01*
X154855442Y-88084602D01*
X154894208Y-88093695D01*
X154927453Y-88097189D01*
X154975075Y-88112662D01*
X155030397Y-88125638D01*
X155061102Y-88140614D01*
X155087593Y-88149221D01*
X155135718Y-88177006D01*
X155191913Y-88204414D01*
X155214132Y-88222278D01*
X155233407Y-88233407D01*
X155278743Y-88274227D01*
X155331962Y-88317017D01*
X155346159Y-88334929D01*
X155358539Y-88346076D01*
X155397535Y-88399749D01*
X155443584Y-88457849D01*
X155451015Y-88473360D01*
X155457506Y-88482293D01*
X155486540Y-88547504D01*
X155521232Y-88619911D01*
X155523789Y-88631167D01*
X155525991Y-88636112D01*
X155541645Y-88709759D01*
X155561045Y-88795148D01*
X155560968Y-88800667D01*
X155560999Y-88800813D01*
X155560999Y-88969187D01*
X155558446Y-88981197D01*
X155558223Y-88997183D01*
X155539781Y-89069008D01*
X155525991Y-89133888D01*
X155519217Y-89149103D01*
X155513533Y-89171240D01*
X155482321Y-89231972D01*
X155457506Y-89287707D01*
X155444422Y-89305716D01*
X155431391Y-89331071D01*
X155391205Y-89378963D01*
X155358539Y-89423924D01*
X155337839Y-89442563D01*
X155315880Y-89468732D01*
X155270622Y-89503085D01*
X155233407Y-89536593D01*
X155204451Y-89553311D01*
X155172741Y-89577380D01*
X155126177Y-89598502D01*
X155087593Y-89620779D01*
X155050500Y-89632831D01*
X155009089Y-89651616D01*
X154964541Y-89660761D01*
X154927453Y-89672811D01*
X154883153Y-89677467D01*
X154833056Y-89687751D01*
X154793250Y-89686917D01*
X154760000Y-89690412D01*
X154710196Y-89685177D01*
X154653392Y-89683987D01*
X154620244Y-89675722D01*
X154592547Y-89672811D01*
X154539704Y-89655641D01*
X154479027Y-89640513D01*
X154453578Y-89627658D01*
X154432407Y-89620779D01*
X154379572Y-89590274D01*
X154318627Y-89559489D01*
X154301017Y-89544921D01*
X154286593Y-89536593D01*
X154237302Y-89492211D01*
X154180163Y-89444942D01*
X154169667Y-89431313D01*
X154161461Y-89423924D01*
X154119501Y-89366171D01*
X154070518Y-89302565D01*
X154065677Y-89292088D01*
X154062494Y-89287707D01*
X154031854Y-89218890D01*
X153995141Y-89139435D01*
X153957779Y-88963658D01*
X153959001Y-88876143D01*
X153959001Y-88800813D01*
X153960127Y-88795516D01*
X153960288Y-88783973D01*
X153979170Y-88705926D01*
X153994009Y-88636112D01*
X153998500Y-88626026D01*
X154002544Y-88609309D01*
X154035514Y-88542891D01*
X154062494Y-88482293D01*
X154072283Y-88468820D01*
X154082446Y-88448346D01*
X154125604Y-88395430D01*
X154161461Y-88346076D01*
X154178004Y-88331181D01*
X154196024Y-88309086D01*
X154245298Y-88270589D01*
X154286593Y-88233407D01*
X154310713Y-88219481D01*
X154337632Y-88198450D01*
X154389039Y-88174260D01*
X154432407Y-88149221D01*
X154464203Y-88138890D01*
X154500232Y-88121936D01*
X154550183Y-88110954D01*
X154592547Y-88097189D01*
X154631331Y-88093112D01*
X154675743Y-88083348D01*
X154721209Y-88083665D01*
X154760000Y-88079588D01*
X154804308Y-88084245D01*
G37*
G36*
X152989899Y-88086959D02*
G01*
X153006769Y-88098231D01*
X153018041Y-88115101D01*
X153024448Y-88147312D01*
X153024448Y-89622688D01*
X153021999Y-89635000D01*
X153018041Y-89654899D01*
X153006769Y-89671769D01*
X152989899Y-89683041D01*
X152970000Y-89686999D01*
X152957688Y-89689448D01*
X151482312Y-89689448D01*
X151450101Y-89683041D01*
X151433231Y-89671769D01*
X151421959Y-89654899D01*
X151415552Y-89622688D01*
X151415552Y-88147312D01*
X151421959Y-88115101D01*
X151433231Y-88098231D01*
X151450101Y-88086959D01*
X151482312Y-88080552D01*
X152957688Y-88080552D01*
X152989899Y-88086959D01*
G37*
G36*
X159884308Y-72844245D02*
G01*
X159935442Y-72844602D01*
X159974208Y-72853695D01*
X160007453Y-72857189D01*
X160055075Y-72872662D01*
X160110397Y-72885638D01*
X160141102Y-72900614D01*
X160167593Y-72909221D01*
X160215718Y-72937006D01*
X160271913Y-72964414D01*
X160294132Y-72982278D01*
X160313407Y-72993407D01*
X160358743Y-73034227D01*
X160411962Y-73077017D01*
X160426159Y-73094929D01*
X160438539Y-73106076D01*
X160477535Y-73159749D01*
X160523584Y-73217849D01*
X160531015Y-73233360D01*
X160537506Y-73242293D01*
X160566540Y-73307504D01*
X160601232Y-73379911D01*
X160603789Y-73391167D01*
X160605991Y-73396112D01*
X160621645Y-73469759D01*
X160641045Y-73555148D01*
X160640968Y-73560667D01*
X160640999Y-73560813D01*
X160640999Y-73729187D01*
X160638446Y-73741197D01*
X160638223Y-73757183D01*
X160619781Y-73829008D01*
X160605991Y-73893888D01*
X160599217Y-73909103D01*
X160593533Y-73931240D01*
X160562321Y-73991972D01*
X160537506Y-74047707D01*
X160524422Y-74065716D01*
X160511391Y-74091071D01*
X160471205Y-74138963D01*
X160438539Y-74183924D01*
X160417839Y-74202563D01*
X160395880Y-74228732D01*
X160350622Y-74263085D01*
X160313407Y-74296593D01*
X160284451Y-74313311D01*
X160252741Y-74337380D01*
X160206177Y-74358502D01*
X160167593Y-74380779D01*
X160130500Y-74392831D01*
X160089089Y-74411616D01*
X160044541Y-74420761D01*
X160007453Y-74432811D01*
X159963153Y-74437467D01*
X159913056Y-74447751D01*
X159873250Y-74446917D01*
X159840000Y-74450412D01*
X159790196Y-74445177D01*
X159733392Y-74443987D01*
X159700244Y-74435722D01*
X159672547Y-74432811D01*
X159619704Y-74415641D01*
X159559027Y-74400513D01*
X159533578Y-74387658D01*
X159512407Y-74380779D01*
X159459572Y-74350274D01*
X159398627Y-74319489D01*
X159381017Y-74304921D01*
X159366593Y-74296593D01*
X159317302Y-74252211D01*
X159260163Y-74204942D01*
X159249667Y-74191313D01*
X159241461Y-74183924D01*
X159199501Y-74126171D01*
X159150518Y-74062565D01*
X159145677Y-74052088D01*
X159142494Y-74047707D01*
X159111854Y-73978890D01*
X159075141Y-73899435D01*
X159037779Y-73723658D01*
X159039001Y-73636143D01*
X159039001Y-73560813D01*
X159040127Y-73555516D01*
X159040288Y-73543973D01*
X159059170Y-73465926D01*
X159074009Y-73396112D01*
X159078500Y-73386026D01*
X159082544Y-73369309D01*
X159115514Y-73302891D01*
X159142494Y-73242293D01*
X159152283Y-73228820D01*
X159162446Y-73208346D01*
X159205604Y-73155430D01*
X159241461Y-73106076D01*
X159258004Y-73091181D01*
X159276024Y-73069086D01*
X159325298Y-73030589D01*
X159366593Y-72993407D01*
X159390713Y-72979481D01*
X159417632Y-72958450D01*
X159469039Y-72934260D01*
X159512407Y-72909221D01*
X159544203Y-72898890D01*
X159580232Y-72881936D01*
X159630183Y-72870954D01*
X159672547Y-72857189D01*
X159711331Y-72853112D01*
X159755743Y-72843348D01*
X159801209Y-72843665D01*
X159840000Y-72839588D01*
X159884308Y-72844245D01*
G37*
G36*
X162424308Y-72844245D02*
G01*
X162475442Y-72844602D01*
X162514208Y-72853695D01*
X162547453Y-72857189D01*
X162595075Y-72872662D01*
X162650397Y-72885638D01*
X162681102Y-72900614D01*
X162707593Y-72909221D01*
X162755718Y-72937006D01*
X162811913Y-72964414D01*
X162834132Y-72982278D01*
X162853407Y-72993407D01*
X162898743Y-73034227D01*
X162951962Y-73077017D01*
X162966159Y-73094929D01*
X162978539Y-73106076D01*
X163017535Y-73159749D01*
X163063584Y-73217849D01*
X163071015Y-73233360D01*
X163077506Y-73242293D01*
X163106540Y-73307504D01*
X163141232Y-73379911D01*
X163143789Y-73391167D01*
X163145991Y-73396112D01*
X163161645Y-73469759D01*
X163181045Y-73555148D01*
X163180968Y-73560667D01*
X163180999Y-73560813D01*
X163180999Y-73729187D01*
X163178446Y-73741197D01*
X163178223Y-73757183D01*
X163159781Y-73829008D01*
X163145991Y-73893888D01*
X163139217Y-73909103D01*
X163133533Y-73931240D01*
X163102321Y-73991972D01*
X163077506Y-74047707D01*
X163064422Y-74065716D01*
X163051391Y-74091071D01*
X163011205Y-74138963D01*
X162978539Y-74183924D01*
X162957839Y-74202563D01*
X162935880Y-74228732D01*
X162890622Y-74263085D01*
X162853407Y-74296593D01*
X162824451Y-74313311D01*
X162792741Y-74337380D01*
X162746177Y-74358502D01*
X162707593Y-74380779D01*
X162670500Y-74392831D01*
X162629089Y-74411616D01*
X162584541Y-74420761D01*
X162547453Y-74432811D01*
X162503153Y-74437467D01*
X162453056Y-74447751D01*
X162413250Y-74446917D01*
X162380000Y-74450412D01*
X162330196Y-74445177D01*
X162273392Y-74443987D01*
X162240244Y-74435722D01*
X162212547Y-74432811D01*
X162159704Y-74415641D01*
X162099027Y-74400513D01*
X162073578Y-74387658D01*
X162052407Y-74380779D01*
X161999572Y-74350274D01*
X161938627Y-74319489D01*
X161921017Y-74304921D01*
X161906593Y-74296593D01*
X161857302Y-74252211D01*
X161800163Y-74204942D01*
X161789667Y-74191313D01*
X161781461Y-74183924D01*
X161739501Y-74126171D01*
X161690518Y-74062565D01*
X161685677Y-74052088D01*
X161682494Y-74047707D01*
X161651854Y-73978890D01*
X161615141Y-73899435D01*
X161577779Y-73723658D01*
X161579001Y-73636143D01*
X161579001Y-73560813D01*
X161580127Y-73555516D01*
X161580288Y-73543973D01*
X161599170Y-73465926D01*
X161614009Y-73396112D01*
X161618500Y-73386026D01*
X161622544Y-73369309D01*
X161655514Y-73302891D01*
X161682494Y-73242293D01*
X161692283Y-73228820D01*
X161702446Y-73208346D01*
X161745604Y-73155430D01*
X161781461Y-73106076D01*
X161798004Y-73091181D01*
X161816024Y-73069086D01*
X161865298Y-73030589D01*
X161906593Y-72993407D01*
X161930713Y-72979481D01*
X161957632Y-72958450D01*
X162009039Y-72934260D01*
X162052407Y-72909221D01*
X162084203Y-72898890D01*
X162120232Y-72881936D01*
X162170183Y-72870954D01*
X162212547Y-72857189D01*
X162251331Y-72853112D01*
X162295743Y-72843348D01*
X162341209Y-72843665D01*
X162380000Y-72839588D01*
X162424308Y-72844245D01*
G37*
G36*
X157344308Y-72844245D02*
G01*
X157395442Y-72844602D01*
X157434208Y-72853695D01*
X157467453Y-72857189D01*
X157515075Y-72872662D01*
X157570397Y-72885638D01*
X157601102Y-72900614D01*
X157627593Y-72909221D01*
X157675718Y-72937006D01*
X157731913Y-72964414D01*
X157754132Y-72982278D01*
X157773407Y-72993407D01*
X157818743Y-73034227D01*
X157871962Y-73077017D01*
X157886159Y-73094929D01*
X157898539Y-73106076D01*
X157937535Y-73159749D01*
X157983584Y-73217849D01*
X157991015Y-73233360D01*
X157997506Y-73242293D01*
X158026540Y-73307504D01*
X158061232Y-73379911D01*
X158063789Y-73391167D01*
X158065991Y-73396112D01*
X158081645Y-73469759D01*
X158101045Y-73555148D01*
X158100968Y-73560667D01*
X158100999Y-73560813D01*
X158100999Y-73729187D01*
X158098446Y-73741197D01*
X158098223Y-73757183D01*
X158079781Y-73829008D01*
X158065991Y-73893888D01*
X158059217Y-73909103D01*
X158053533Y-73931240D01*
X158022321Y-73991972D01*
X157997506Y-74047707D01*
X157984422Y-74065716D01*
X157971391Y-74091071D01*
X157931205Y-74138963D01*
X157898539Y-74183924D01*
X157877839Y-74202563D01*
X157855880Y-74228732D01*
X157810622Y-74263085D01*
X157773407Y-74296593D01*
X157744451Y-74313311D01*
X157712741Y-74337380D01*
X157666177Y-74358502D01*
X157627593Y-74380779D01*
X157590500Y-74392831D01*
X157549089Y-74411616D01*
X157504541Y-74420761D01*
X157467453Y-74432811D01*
X157423153Y-74437467D01*
X157373056Y-74447751D01*
X157333250Y-74446917D01*
X157300000Y-74450412D01*
X157250196Y-74445177D01*
X157193392Y-74443987D01*
X157160244Y-74435722D01*
X157132547Y-74432811D01*
X157079704Y-74415641D01*
X157019027Y-74400513D01*
X156993578Y-74387658D01*
X156972407Y-74380779D01*
X156919572Y-74350274D01*
X156858627Y-74319489D01*
X156841017Y-74304921D01*
X156826593Y-74296593D01*
X156777302Y-74252211D01*
X156720163Y-74204942D01*
X156709667Y-74191313D01*
X156701461Y-74183924D01*
X156659501Y-74126171D01*
X156610518Y-74062565D01*
X156605677Y-74052088D01*
X156602494Y-74047707D01*
X156571854Y-73978890D01*
X156535141Y-73899435D01*
X156497779Y-73723658D01*
X156499001Y-73636143D01*
X156499001Y-73560813D01*
X156500127Y-73555516D01*
X156500288Y-73543973D01*
X156519170Y-73465926D01*
X156534009Y-73396112D01*
X156538500Y-73386026D01*
X156542544Y-73369309D01*
X156575514Y-73302891D01*
X156602494Y-73242293D01*
X156612283Y-73228820D01*
X156622446Y-73208346D01*
X156665604Y-73155430D01*
X156701461Y-73106076D01*
X156718004Y-73091181D01*
X156736024Y-73069086D01*
X156785298Y-73030589D01*
X156826593Y-72993407D01*
X156850713Y-72979481D01*
X156877632Y-72958450D01*
X156929039Y-72934260D01*
X156972407Y-72909221D01*
X157004203Y-72898890D01*
X157040232Y-72881936D01*
X157090183Y-72870954D01*
X157132547Y-72857189D01*
X157171331Y-72853112D01*
X157215743Y-72843348D01*
X157261209Y-72843665D01*
X157300000Y-72839588D01*
X157344308Y-72844245D01*
G37*
G36*
X152264308Y-72844245D02*
G01*
X152315442Y-72844602D01*
X152354208Y-72853695D01*
X152387453Y-72857189D01*
X152435075Y-72872662D01*
X152490397Y-72885638D01*
X152521102Y-72900614D01*
X152547593Y-72909221D01*
X152595718Y-72937006D01*
X152651913Y-72964414D01*
X152674132Y-72982278D01*
X152693407Y-72993407D01*
X152738743Y-73034227D01*
X152791962Y-73077017D01*
X152806159Y-73094929D01*
X152818539Y-73106076D01*
X152857535Y-73159749D01*
X152903584Y-73217849D01*
X152911015Y-73233360D01*
X152917506Y-73242293D01*
X152946540Y-73307504D01*
X152981232Y-73379911D01*
X152983789Y-73391167D01*
X152985991Y-73396112D01*
X153001645Y-73469759D01*
X153021045Y-73555148D01*
X153020968Y-73560667D01*
X153020999Y-73560813D01*
X153020999Y-73729187D01*
X153018446Y-73741197D01*
X153018223Y-73757183D01*
X152999781Y-73829008D01*
X152985991Y-73893888D01*
X152979217Y-73909103D01*
X152973533Y-73931240D01*
X152942321Y-73991972D01*
X152917506Y-74047707D01*
X152904422Y-74065716D01*
X152891391Y-74091071D01*
X152851205Y-74138963D01*
X152818539Y-74183924D01*
X152797839Y-74202563D01*
X152775880Y-74228732D01*
X152730622Y-74263085D01*
X152693407Y-74296593D01*
X152664451Y-74313311D01*
X152632741Y-74337380D01*
X152586177Y-74358502D01*
X152547593Y-74380779D01*
X152510500Y-74392831D01*
X152469089Y-74411616D01*
X152424541Y-74420761D01*
X152387453Y-74432811D01*
X152343153Y-74437467D01*
X152293056Y-74447751D01*
X152253250Y-74446917D01*
X152220000Y-74450412D01*
X152170196Y-74445177D01*
X152113392Y-74443987D01*
X152080244Y-74435722D01*
X152052547Y-74432811D01*
X151999704Y-74415641D01*
X151939027Y-74400513D01*
X151913578Y-74387658D01*
X151892407Y-74380779D01*
X151839572Y-74350274D01*
X151778627Y-74319489D01*
X151761017Y-74304921D01*
X151746593Y-74296593D01*
X151697302Y-74252211D01*
X151640163Y-74204942D01*
X151629667Y-74191313D01*
X151621461Y-74183924D01*
X151579501Y-74126171D01*
X151530518Y-74062565D01*
X151525677Y-74052088D01*
X151522494Y-74047707D01*
X151491854Y-73978890D01*
X151455141Y-73899435D01*
X151417779Y-73723658D01*
X151419001Y-73636143D01*
X151419001Y-73560813D01*
X151420127Y-73555516D01*
X151420288Y-73543973D01*
X151439170Y-73465926D01*
X151454009Y-73396112D01*
X151458500Y-73386026D01*
X151462544Y-73369309D01*
X151495514Y-73302891D01*
X151522494Y-73242293D01*
X151532283Y-73228820D01*
X151542446Y-73208346D01*
X151585604Y-73155430D01*
X151621461Y-73106076D01*
X151638004Y-73091181D01*
X151656024Y-73069086D01*
X151705298Y-73030589D01*
X151746593Y-72993407D01*
X151770713Y-72979481D01*
X151797632Y-72958450D01*
X151849039Y-72934260D01*
X151892407Y-72909221D01*
X151924203Y-72898890D01*
X151960232Y-72881936D01*
X152010183Y-72870954D01*
X152052547Y-72857189D01*
X152091331Y-72853112D01*
X152135743Y-72843348D01*
X152181209Y-72843665D01*
X152220000Y-72839588D01*
X152264308Y-72844245D01*
G37*
G36*
X154804308Y-72844245D02*
G01*
X154855442Y-72844602D01*
X154894208Y-72853695D01*
X154927453Y-72857189D01*
X154975075Y-72872662D01*
X155030397Y-72885638D01*
X155061102Y-72900614D01*
X155087593Y-72909221D01*
X155135718Y-72937006D01*
X155191913Y-72964414D01*
X155214132Y-72982278D01*
X155233407Y-72993407D01*
X155278743Y-73034227D01*
X155331962Y-73077017D01*
X155346159Y-73094929D01*
X155358539Y-73106076D01*
X155397535Y-73159749D01*
X155443584Y-73217849D01*
X155451015Y-73233360D01*
X155457506Y-73242293D01*
X155486540Y-73307504D01*
X155521232Y-73379911D01*
X155523789Y-73391167D01*
X155525991Y-73396112D01*
X155541645Y-73469759D01*
X155561045Y-73555148D01*
X155560968Y-73560667D01*
X155560999Y-73560813D01*
X155560999Y-73729187D01*
X155558446Y-73741197D01*
X155558223Y-73757183D01*
X155539781Y-73829008D01*
X155525991Y-73893888D01*
X155519217Y-73909103D01*
X155513533Y-73931240D01*
X155482321Y-73991972D01*
X155457506Y-74047707D01*
X155444422Y-74065716D01*
X155431391Y-74091071D01*
X155391205Y-74138963D01*
X155358539Y-74183924D01*
X155337839Y-74202563D01*
X155315880Y-74228732D01*
X155270622Y-74263085D01*
X155233407Y-74296593D01*
X155204451Y-74313311D01*
X155172741Y-74337380D01*
X155126177Y-74358502D01*
X155087593Y-74380779D01*
X155050500Y-74392831D01*
X155009089Y-74411616D01*
X154964541Y-74420761D01*
X154927453Y-74432811D01*
X154883153Y-74437467D01*
X154833056Y-74447751D01*
X154793250Y-74446917D01*
X154760000Y-74450412D01*
X154710196Y-74445177D01*
X154653392Y-74443987D01*
X154620244Y-74435722D01*
X154592547Y-74432811D01*
X154539704Y-74415641D01*
X154479027Y-74400513D01*
X154453578Y-74387658D01*
X154432407Y-74380779D01*
X154379572Y-74350274D01*
X154318627Y-74319489D01*
X154301017Y-74304921D01*
X154286593Y-74296593D01*
X154237302Y-74252211D01*
X154180163Y-74204942D01*
X154169667Y-74191313D01*
X154161461Y-74183924D01*
X154119501Y-74126171D01*
X154070518Y-74062565D01*
X154065677Y-74052088D01*
X154062494Y-74047707D01*
X154031854Y-73978890D01*
X153995141Y-73899435D01*
X153957779Y-73723658D01*
X153959001Y-73636143D01*
X153959001Y-73560813D01*
X153960127Y-73555516D01*
X153960288Y-73543973D01*
X153979170Y-73465926D01*
X153994009Y-73396112D01*
X153998500Y-73386026D01*
X154002544Y-73369309D01*
X154035514Y-73302891D01*
X154062494Y-73242293D01*
X154072283Y-73228820D01*
X154082446Y-73208346D01*
X154125604Y-73155430D01*
X154161461Y-73106076D01*
X154178004Y-73091181D01*
X154196024Y-73069086D01*
X154245298Y-73030589D01*
X154286593Y-72993407D01*
X154310713Y-72979481D01*
X154337632Y-72958450D01*
X154389039Y-72934260D01*
X154432407Y-72909221D01*
X154464203Y-72898890D01*
X154500232Y-72881936D01*
X154550183Y-72870954D01*
X154592547Y-72857189D01*
X154631331Y-72853112D01*
X154675743Y-72843348D01*
X154721209Y-72843665D01*
X154760000Y-72839588D01*
X154804308Y-72844245D01*
G37*
G36*
X164964308Y-72844245D02*
G01*
X165015442Y-72844602D01*
X165054208Y-72853695D01*
X165087453Y-72857189D01*
X165135075Y-72872662D01*
X165190397Y-72885638D01*
X165221102Y-72900614D01*
X165247593Y-72909221D01*
X165295718Y-72937006D01*
X165351913Y-72964414D01*
X165374132Y-72982278D01*
X165393407Y-72993407D01*
X165438743Y-73034227D01*
X165491962Y-73077017D01*
X165506159Y-73094929D01*
X165518539Y-73106076D01*
X165557535Y-73159749D01*
X165603584Y-73217849D01*
X165611015Y-73233360D01*
X165617506Y-73242293D01*
X165646540Y-73307504D01*
X165681232Y-73379911D01*
X165683789Y-73391167D01*
X165685991Y-73396112D01*
X165701645Y-73469759D01*
X165721045Y-73555148D01*
X165720968Y-73560667D01*
X165720999Y-73560813D01*
X165720999Y-73729187D01*
X165718446Y-73741197D01*
X165718223Y-73757183D01*
X165699781Y-73829008D01*
X165685991Y-73893888D01*
X165679217Y-73909103D01*
X165673533Y-73931240D01*
X165642321Y-73991972D01*
X165617506Y-74047707D01*
X165604422Y-74065716D01*
X165591391Y-74091071D01*
X165551205Y-74138963D01*
X165518539Y-74183924D01*
X165497839Y-74202563D01*
X165475880Y-74228732D01*
X165430622Y-74263085D01*
X165393407Y-74296593D01*
X165364451Y-74313311D01*
X165332741Y-74337380D01*
X165286177Y-74358502D01*
X165247593Y-74380779D01*
X165210500Y-74392831D01*
X165169089Y-74411616D01*
X165124541Y-74420761D01*
X165087453Y-74432811D01*
X165043153Y-74437467D01*
X164993056Y-74447751D01*
X164953250Y-74446917D01*
X164920000Y-74450412D01*
X164870196Y-74445177D01*
X164813392Y-74443987D01*
X164780244Y-74435722D01*
X164752547Y-74432811D01*
X164699704Y-74415641D01*
X164639027Y-74400513D01*
X164613578Y-74387658D01*
X164592407Y-74380779D01*
X164539572Y-74350274D01*
X164478627Y-74319489D01*
X164461017Y-74304921D01*
X164446593Y-74296593D01*
X164397302Y-74252211D01*
X164340163Y-74204942D01*
X164329667Y-74191313D01*
X164321461Y-74183924D01*
X164279501Y-74126171D01*
X164230518Y-74062565D01*
X164225677Y-74052088D01*
X164222494Y-74047707D01*
X164191854Y-73978890D01*
X164155141Y-73899435D01*
X164117779Y-73723658D01*
X164119001Y-73636143D01*
X164119001Y-73560813D01*
X164120127Y-73555516D01*
X164120288Y-73543973D01*
X164139170Y-73465926D01*
X164154009Y-73396112D01*
X164158500Y-73386026D01*
X164162544Y-73369309D01*
X164195514Y-73302891D01*
X164222494Y-73242293D01*
X164232283Y-73228820D01*
X164242446Y-73208346D01*
X164285604Y-73155430D01*
X164321461Y-73106076D01*
X164338004Y-73091181D01*
X164356024Y-73069086D01*
X164405298Y-73030589D01*
X164446593Y-72993407D01*
X164470713Y-72979481D01*
X164497632Y-72958450D01*
X164549039Y-72934260D01*
X164592407Y-72909221D01*
X164624203Y-72898890D01*
X164660232Y-72881936D01*
X164710183Y-72870954D01*
X164752547Y-72857189D01*
X164791331Y-72853112D01*
X164835743Y-72843348D01*
X164881209Y-72843665D01*
X164920000Y-72839588D01*
X164964308Y-72844245D01*
G37*
G36*
X170649308Y-67439245D02*
G01*
X170700442Y-67439602D01*
X170739208Y-67448695D01*
X170772453Y-67452189D01*
X170820075Y-67467662D01*
X170875397Y-67480638D01*
X170906102Y-67495614D01*
X170932593Y-67504221D01*
X170980718Y-67532006D01*
X171036913Y-67559414D01*
X171059132Y-67577278D01*
X171078407Y-67588407D01*
X171123743Y-67629227D01*
X171176962Y-67672017D01*
X171191159Y-67689929D01*
X171203539Y-67701076D01*
X171242535Y-67754749D01*
X171288584Y-67812849D01*
X171296015Y-67828360D01*
X171302506Y-67837293D01*
X171331540Y-67902504D01*
X171366232Y-67974911D01*
X171368789Y-67986167D01*
X171370991Y-67991112D01*
X171386645Y-68064759D01*
X171406045Y-68150148D01*
X171405968Y-68155667D01*
X171405999Y-68155813D01*
X171405999Y-68324187D01*
X171403446Y-68336197D01*
X171403223Y-68352183D01*
X171384781Y-68424008D01*
X171370991Y-68488888D01*
X171364217Y-68504103D01*
X171358533Y-68526240D01*
X171327321Y-68586972D01*
X171302506Y-68642707D01*
X171289422Y-68660716D01*
X171276391Y-68686071D01*
X171236205Y-68733963D01*
X171203539Y-68778924D01*
X171182839Y-68797563D01*
X171160880Y-68823732D01*
X171115622Y-68858085D01*
X171078407Y-68891593D01*
X171049451Y-68908311D01*
X171017741Y-68932380D01*
X170971177Y-68953502D01*
X170932593Y-68975779D01*
X170895500Y-68987831D01*
X170854089Y-69006616D01*
X170809541Y-69015761D01*
X170772453Y-69027811D01*
X170728153Y-69032467D01*
X170678056Y-69042751D01*
X170638250Y-69041917D01*
X170605000Y-69045412D01*
X170555196Y-69040177D01*
X170498392Y-69038987D01*
X170465244Y-69030722D01*
X170437547Y-69027811D01*
X170384704Y-69010641D01*
X170324027Y-68995513D01*
X170298578Y-68982658D01*
X170277407Y-68975779D01*
X170224572Y-68945274D01*
X170163627Y-68914489D01*
X170146017Y-68899921D01*
X170131593Y-68891593D01*
X170082302Y-68847211D01*
X170025163Y-68799942D01*
X170014667Y-68786313D01*
X170006461Y-68778924D01*
X169964501Y-68721171D01*
X169915518Y-68657565D01*
X169910677Y-68647088D01*
X169907494Y-68642707D01*
X169876854Y-68573890D01*
X169840141Y-68494435D01*
X169802779Y-68318658D01*
X169804001Y-68231143D01*
X169804001Y-68155813D01*
X169805127Y-68150516D01*
X169805288Y-68138973D01*
X169824170Y-68060926D01*
X169839009Y-67991112D01*
X169843500Y-67981026D01*
X169847544Y-67964309D01*
X169880514Y-67897891D01*
X169907494Y-67837293D01*
X169917283Y-67823820D01*
X169927446Y-67803346D01*
X169970604Y-67750430D01*
X170006461Y-67701076D01*
X170023004Y-67686181D01*
X170041024Y-67664086D01*
X170090298Y-67625589D01*
X170131593Y-67588407D01*
X170155713Y-67574481D01*
X170182632Y-67553450D01*
X170234039Y-67529260D01*
X170277407Y-67504221D01*
X170309203Y-67493890D01*
X170345232Y-67476936D01*
X170395183Y-67465954D01*
X170437547Y-67452189D01*
X170476331Y-67448112D01*
X170520743Y-67438348D01*
X170566209Y-67438665D01*
X170605000Y-67434588D01*
X170649308Y-67439245D01*
G37*
G36*
X173189308Y-67439245D02*
G01*
X173240442Y-67439602D01*
X173279208Y-67448695D01*
X173312453Y-67452189D01*
X173360075Y-67467662D01*
X173415397Y-67480638D01*
X173446102Y-67495614D01*
X173472593Y-67504221D01*
X173520718Y-67532006D01*
X173576913Y-67559414D01*
X173599132Y-67577278D01*
X173618407Y-67588407D01*
X173663743Y-67629227D01*
X173716962Y-67672017D01*
X173731159Y-67689929D01*
X173743539Y-67701076D01*
X173782535Y-67754749D01*
X173828584Y-67812849D01*
X173836015Y-67828360D01*
X173842506Y-67837293D01*
X173871540Y-67902504D01*
X173906232Y-67974911D01*
X173908789Y-67986167D01*
X173910991Y-67991112D01*
X173926645Y-68064759D01*
X173946045Y-68150148D01*
X173945968Y-68155667D01*
X173945999Y-68155813D01*
X173945999Y-68324187D01*
X173943446Y-68336197D01*
X173943223Y-68352183D01*
X173924781Y-68424008D01*
X173910991Y-68488888D01*
X173904217Y-68504103D01*
X173898533Y-68526240D01*
X173867321Y-68586972D01*
X173842506Y-68642707D01*
X173829422Y-68660716D01*
X173816391Y-68686071D01*
X173776205Y-68733963D01*
X173743539Y-68778924D01*
X173722839Y-68797563D01*
X173700880Y-68823732D01*
X173655622Y-68858085D01*
X173618407Y-68891593D01*
X173589451Y-68908311D01*
X173557741Y-68932380D01*
X173511177Y-68953502D01*
X173472593Y-68975779D01*
X173435500Y-68987831D01*
X173394089Y-69006616D01*
X173349541Y-69015761D01*
X173312453Y-69027811D01*
X173268153Y-69032467D01*
X173218056Y-69042751D01*
X173178250Y-69041917D01*
X173145000Y-69045412D01*
X173095196Y-69040177D01*
X173038392Y-69038987D01*
X173005244Y-69030722D01*
X172977547Y-69027811D01*
X172924704Y-69010641D01*
X172864027Y-68995513D01*
X172838578Y-68982658D01*
X172817407Y-68975779D01*
X172764572Y-68945274D01*
X172703627Y-68914489D01*
X172686017Y-68899921D01*
X172671593Y-68891593D01*
X172622302Y-68847211D01*
X172565163Y-68799942D01*
X172554667Y-68786313D01*
X172546461Y-68778924D01*
X172504501Y-68721171D01*
X172455518Y-68657565D01*
X172450677Y-68647088D01*
X172447494Y-68642707D01*
X172416854Y-68573890D01*
X172380141Y-68494435D01*
X172342779Y-68318658D01*
X172344001Y-68231143D01*
X172344001Y-68155813D01*
X172345127Y-68150516D01*
X172345288Y-68138973D01*
X172364170Y-68060926D01*
X172379009Y-67991112D01*
X172383500Y-67981026D01*
X172387544Y-67964309D01*
X172420514Y-67897891D01*
X172447494Y-67837293D01*
X172457283Y-67823820D01*
X172467446Y-67803346D01*
X172510604Y-67750430D01*
X172546461Y-67701076D01*
X172563004Y-67686181D01*
X172581024Y-67664086D01*
X172630298Y-67625589D01*
X172671593Y-67588407D01*
X172695713Y-67574481D01*
X172722632Y-67553450D01*
X172774039Y-67529260D01*
X172817407Y-67504221D01*
X172849203Y-67493890D01*
X172885232Y-67476936D01*
X172935183Y-67465954D01*
X172977547Y-67452189D01*
X173016331Y-67448112D01*
X173060743Y-67438348D01*
X173106209Y-67438665D01*
X173145000Y-67434588D01*
X173189308Y-67439245D01*
G37*
G36*
X165039308Y-67439245D02*
G01*
X165090442Y-67439602D01*
X165129208Y-67448695D01*
X165162453Y-67452189D01*
X165210075Y-67467662D01*
X165265397Y-67480638D01*
X165296102Y-67495614D01*
X165322593Y-67504221D01*
X165370718Y-67532006D01*
X165426913Y-67559414D01*
X165449132Y-67577278D01*
X165468407Y-67588407D01*
X165513743Y-67629227D01*
X165566962Y-67672017D01*
X165581159Y-67689929D01*
X165593539Y-67701076D01*
X165632535Y-67754749D01*
X165678584Y-67812849D01*
X165686015Y-67828360D01*
X165692506Y-67837293D01*
X165721540Y-67902504D01*
X165756232Y-67974911D01*
X165758789Y-67986167D01*
X165760991Y-67991112D01*
X165776645Y-68064759D01*
X165796045Y-68150148D01*
X165795968Y-68155667D01*
X165795999Y-68155813D01*
X165795999Y-68324187D01*
X165793446Y-68336197D01*
X165793223Y-68352183D01*
X165774781Y-68424008D01*
X165760991Y-68488888D01*
X165754217Y-68504103D01*
X165748533Y-68526240D01*
X165717321Y-68586972D01*
X165692506Y-68642707D01*
X165679422Y-68660716D01*
X165666391Y-68686071D01*
X165626205Y-68733963D01*
X165593539Y-68778924D01*
X165572839Y-68797563D01*
X165550880Y-68823732D01*
X165505622Y-68858085D01*
X165468407Y-68891593D01*
X165439451Y-68908311D01*
X165407741Y-68932380D01*
X165361177Y-68953502D01*
X165322593Y-68975779D01*
X165285500Y-68987831D01*
X165244089Y-69006616D01*
X165199541Y-69015761D01*
X165162453Y-69027811D01*
X165118153Y-69032467D01*
X165068056Y-69042751D01*
X165028250Y-69041917D01*
X164995000Y-69045412D01*
X164945196Y-69040177D01*
X164888392Y-69038987D01*
X164855244Y-69030722D01*
X164827547Y-69027811D01*
X164774704Y-69010641D01*
X164714027Y-68995513D01*
X164688578Y-68982658D01*
X164667407Y-68975779D01*
X164614572Y-68945274D01*
X164553627Y-68914489D01*
X164536017Y-68899921D01*
X164521593Y-68891593D01*
X164472302Y-68847211D01*
X164415163Y-68799942D01*
X164404667Y-68786313D01*
X164396461Y-68778924D01*
X164354501Y-68721171D01*
X164305518Y-68657565D01*
X164300677Y-68647088D01*
X164297494Y-68642707D01*
X164266854Y-68573890D01*
X164230141Y-68494435D01*
X164192779Y-68318658D01*
X164194001Y-68231143D01*
X164194001Y-68155813D01*
X164195127Y-68150516D01*
X164195288Y-68138973D01*
X164214170Y-68060926D01*
X164229009Y-67991112D01*
X164233500Y-67981026D01*
X164237544Y-67964309D01*
X164270514Y-67897891D01*
X164297494Y-67837293D01*
X164307283Y-67823820D01*
X164317446Y-67803346D01*
X164360604Y-67750430D01*
X164396461Y-67701076D01*
X164413004Y-67686181D01*
X164431024Y-67664086D01*
X164480298Y-67625589D01*
X164521593Y-67588407D01*
X164545713Y-67574481D01*
X164572632Y-67553450D01*
X164624039Y-67529260D01*
X164667407Y-67504221D01*
X164699203Y-67493890D01*
X164735232Y-67476936D01*
X164785183Y-67465954D01*
X164827547Y-67452189D01*
X164866331Y-67448112D01*
X164910743Y-67438348D01*
X164956209Y-67438665D01*
X164995000Y-67434588D01*
X165039308Y-67439245D01*
G37*
G36*
X162499308Y-67439245D02*
G01*
X162550442Y-67439602D01*
X162589208Y-67448695D01*
X162622453Y-67452189D01*
X162670075Y-67467662D01*
X162725397Y-67480638D01*
X162756102Y-67495614D01*
X162782593Y-67504221D01*
X162830718Y-67532006D01*
X162886913Y-67559414D01*
X162909132Y-67577278D01*
X162928407Y-67588407D01*
X162973743Y-67629227D01*
X163026962Y-67672017D01*
X163041159Y-67689929D01*
X163053539Y-67701076D01*
X163092535Y-67754749D01*
X163138584Y-67812849D01*
X163146015Y-67828360D01*
X163152506Y-67837293D01*
X163181540Y-67902504D01*
X163216232Y-67974911D01*
X163218789Y-67986167D01*
X163220991Y-67991112D01*
X163236645Y-68064759D01*
X163256045Y-68150148D01*
X163255968Y-68155667D01*
X163255999Y-68155813D01*
X163255999Y-68324187D01*
X163253446Y-68336197D01*
X163253223Y-68352183D01*
X163234781Y-68424008D01*
X163220991Y-68488888D01*
X163214217Y-68504103D01*
X163208533Y-68526240D01*
X163177321Y-68586972D01*
X163152506Y-68642707D01*
X163139422Y-68660716D01*
X163126391Y-68686071D01*
X163086205Y-68733963D01*
X163053539Y-68778924D01*
X163032839Y-68797563D01*
X163010880Y-68823732D01*
X162965622Y-68858085D01*
X162928407Y-68891593D01*
X162899451Y-68908311D01*
X162867741Y-68932380D01*
X162821177Y-68953502D01*
X162782593Y-68975779D01*
X162745500Y-68987831D01*
X162704089Y-69006616D01*
X162659541Y-69015761D01*
X162622453Y-69027811D01*
X162578153Y-69032467D01*
X162528056Y-69042751D01*
X162488250Y-69041917D01*
X162455000Y-69045412D01*
X162405196Y-69040177D01*
X162348392Y-69038987D01*
X162315244Y-69030722D01*
X162287547Y-69027811D01*
X162234704Y-69010641D01*
X162174027Y-68995513D01*
X162148578Y-68982658D01*
X162127407Y-68975779D01*
X162074572Y-68945274D01*
X162013627Y-68914489D01*
X161996017Y-68899921D01*
X161981593Y-68891593D01*
X161932302Y-68847211D01*
X161875163Y-68799942D01*
X161864667Y-68786313D01*
X161856461Y-68778924D01*
X161814501Y-68721171D01*
X161765518Y-68657565D01*
X161760677Y-68647088D01*
X161757494Y-68642707D01*
X161726854Y-68573890D01*
X161690141Y-68494435D01*
X161652779Y-68318658D01*
X161654001Y-68231143D01*
X161654001Y-68155813D01*
X161655127Y-68150516D01*
X161655288Y-68138973D01*
X161674170Y-68060926D01*
X161689009Y-67991112D01*
X161693500Y-67981026D01*
X161697544Y-67964309D01*
X161730514Y-67897891D01*
X161757494Y-67837293D01*
X161767283Y-67823820D01*
X161777446Y-67803346D01*
X161820604Y-67750430D01*
X161856461Y-67701076D01*
X161873004Y-67686181D01*
X161891024Y-67664086D01*
X161940298Y-67625589D01*
X161981593Y-67588407D01*
X162005713Y-67574481D01*
X162032632Y-67553450D01*
X162084039Y-67529260D01*
X162127407Y-67504221D01*
X162159203Y-67493890D01*
X162195232Y-67476936D01*
X162245183Y-67465954D01*
X162287547Y-67452189D01*
X162326331Y-67448112D01*
X162370743Y-67438348D01*
X162416209Y-67438665D01*
X162455000Y-67434588D01*
X162499308Y-67439245D01*
G37*
G36*
X154349308Y-67439245D02*
G01*
X154400442Y-67439602D01*
X154439208Y-67448695D01*
X154472453Y-67452189D01*
X154520075Y-67467662D01*
X154575397Y-67480638D01*
X154606102Y-67495614D01*
X154632593Y-67504221D01*
X154680718Y-67532006D01*
X154736913Y-67559414D01*
X154759132Y-67577278D01*
X154778407Y-67588407D01*
X154823743Y-67629227D01*
X154876962Y-67672017D01*
X154891159Y-67689929D01*
X154903539Y-67701076D01*
X154942535Y-67754749D01*
X154988584Y-67812849D01*
X154996015Y-67828360D01*
X155002506Y-67837293D01*
X155031540Y-67902504D01*
X155066232Y-67974911D01*
X155068789Y-67986167D01*
X155070991Y-67991112D01*
X155086645Y-68064759D01*
X155106045Y-68150148D01*
X155105968Y-68155667D01*
X155105999Y-68155813D01*
X155105999Y-68324187D01*
X155103446Y-68336197D01*
X155103223Y-68352183D01*
X155084781Y-68424008D01*
X155070991Y-68488888D01*
X155064217Y-68504103D01*
X155058533Y-68526240D01*
X155027321Y-68586972D01*
X155002506Y-68642707D01*
X154989422Y-68660716D01*
X154976391Y-68686071D01*
X154936205Y-68733963D01*
X154903539Y-68778924D01*
X154882839Y-68797563D01*
X154860880Y-68823732D01*
X154815622Y-68858085D01*
X154778407Y-68891593D01*
X154749451Y-68908311D01*
X154717741Y-68932380D01*
X154671177Y-68953502D01*
X154632593Y-68975779D01*
X154595500Y-68987831D01*
X154554089Y-69006616D01*
X154509541Y-69015761D01*
X154472453Y-69027811D01*
X154428153Y-69032467D01*
X154378056Y-69042751D01*
X154338250Y-69041917D01*
X154305000Y-69045412D01*
X154255196Y-69040177D01*
X154198392Y-69038987D01*
X154165244Y-69030722D01*
X154137547Y-69027811D01*
X154084704Y-69010641D01*
X154024027Y-68995513D01*
X153998578Y-68982658D01*
X153977407Y-68975779D01*
X153924572Y-68945274D01*
X153863627Y-68914489D01*
X153846017Y-68899921D01*
X153831593Y-68891593D01*
X153782302Y-68847211D01*
X153725163Y-68799942D01*
X153714667Y-68786313D01*
X153706461Y-68778924D01*
X153664501Y-68721171D01*
X153615518Y-68657565D01*
X153610677Y-68647088D01*
X153607494Y-68642707D01*
X153576854Y-68573890D01*
X153540141Y-68494435D01*
X153502779Y-68318658D01*
X153504001Y-68231143D01*
X153504001Y-68155813D01*
X153505127Y-68150516D01*
X153505288Y-68138973D01*
X153524170Y-68060926D01*
X153539009Y-67991112D01*
X153543500Y-67981026D01*
X153547544Y-67964309D01*
X153580514Y-67897891D01*
X153607494Y-67837293D01*
X153617283Y-67823820D01*
X153627446Y-67803346D01*
X153670604Y-67750430D01*
X153706461Y-67701076D01*
X153723004Y-67686181D01*
X153741024Y-67664086D01*
X153790298Y-67625589D01*
X153831593Y-67588407D01*
X153855713Y-67574481D01*
X153882632Y-67553450D01*
X153934039Y-67529260D01*
X153977407Y-67504221D01*
X154009203Y-67493890D01*
X154045232Y-67476936D01*
X154095183Y-67465954D01*
X154137547Y-67452189D01*
X154176331Y-67448112D01*
X154220743Y-67438348D01*
X154266209Y-67438665D01*
X154305000Y-67434588D01*
X154349308Y-67439245D01*
G37*
G36*
X156889308Y-67439245D02*
G01*
X156940442Y-67439602D01*
X156979208Y-67448695D01*
X157012453Y-67452189D01*
X157060075Y-67467662D01*
X157115397Y-67480638D01*
X157146102Y-67495614D01*
X157172593Y-67504221D01*
X157220718Y-67532006D01*
X157276913Y-67559414D01*
X157299132Y-67577278D01*
X157318407Y-67588407D01*
X157363743Y-67629227D01*
X157416962Y-67672017D01*
X157431159Y-67689929D01*
X157443539Y-67701076D01*
X157482535Y-67754749D01*
X157528584Y-67812849D01*
X157536015Y-67828360D01*
X157542506Y-67837293D01*
X157571540Y-67902504D01*
X157606232Y-67974911D01*
X157608789Y-67986167D01*
X157610991Y-67991112D01*
X157626645Y-68064759D01*
X157646045Y-68150148D01*
X157645968Y-68155667D01*
X157645999Y-68155813D01*
X157645999Y-68324187D01*
X157643446Y-68336197D01*
X157643223Y-68352183D01*
X157624781Y-68424008D01*
X157610991Y-68488888D01*
X157604217Y-68504103D01*
X157598533Y-68526240D01*
X157567321Y-68586972D01*
X157542506Y-68642707D01*
X157529422Y-68660716D01*
X157516391Y-68686071D01*
X157476205Y-68733963D01*
X157443539Y-68778924D01*
X157422839Y-68797563D01*
X157400880Y-68823732D01*
X157355622Y-68858085D01*
X157318407Y-68891593D01*
X157289451Y-68908311D01*
X157257741Y-68932380D01*
X157211177Y-68953502D01*
X157172593Y-68975779D01*
X157135500Y-68987831D01*
X157094089Y-69006616D01*
X157049541Y-69015761D01*
X157012453Y-69027811D01*
X156968153Y-69032467D01*
X156918056Y-69042751D01*
X156878250Y-69041917D01*
X156845000Y-69045412D01*
X156795196Y-69040177D01*
X156738392Y-69038987D01*
X156705244Y-69030722D01*
X156677547Y-69027811D01*
X156624704Y-69010641D01*
X156564027Y-68995513D01*
X156538578Y-68982658D01*
X156517407Y-68975779D01*
X156464572Y-68945274D01*
X156403627Y-68914489D01*
X156386017Y-68899921D01*
X156371593Y-68891593D01*
X156322302Y-68847211D01*
X156265163Y-68799942D01*
X156254667Y-68786313D01*
X156246461Y-68778924D01*
X156204501Y-68721171D01*
X156155518Y-68657565D01*
X156150677Y-68647088D01*
X156147494Y-68642707D01*
X156116854Y-68573890D01*
X156080141Y-68494435D01*
X156042779Y-68318658D01*
X156044001Y-68231143D01*
X156044001Y-68155813D01*
X156045127Y-68150516D01*
X156045288Y-68138973D01*
X156064170Y-68060926D01*
X156079009Y-67991112D01*
X156083500Y-67981026D01*
X156087544Y-67964309D01*
X156120514Y-67897891D01*
X156147494Y-67837293D01*
X156157283Y-67823820D01*
X156167446Y-67803346D01*
X156210604Y-67750430D01*
X156246461Y-67701076D01*
X156263004Y-67686181D01*
X156281024Y-67664086D01*
X156330298Y-67625589D01*
X156371593Y-67588407D01*
X156395713Y-67574481D01*
X156422632Y-67553450D01*
X156474039Y-67529260D01*
X156517407Y-67504221D01*
X156549203Y-67493890D01*
X156585232Y-67476936D01*
X156635183Y-67465954D01*
X156677547Y-67452189D01*
X156716331Y-67448112D01*
X156760743Y-67438348D01*
X156806209Y-67438665D01*
X156845000Y-67434588D01*
X156889308Y-67439245D01*
G37*
G36*
X148739308Y-67439245D02*
G01*
X148790442Y-67439602D01*
X148829208Y-67448695D01*
X148862453Y-67452189D01*
X148910075Y-67467662D01*
X148965397Y-67480638D01*
X148996102Y-67495614D01*
X149022593Y-67504221D01*
X149070718Y-67532006D01*
X149126913Y-67559414D01*
X149149132Y-67577278D01*
X149168407Y-67588407D01*
X149213743Y-67629227D01*
X149266962Y-67672017D01*
X149281159Y-67689929D01*
X149293539Y-67701076D01*
X149332535Y-67754749D01*
X149378584Y-67812849D01*
X149386015Y-67828360D01*
X149392506Y-67837293D01*
X149421540Y-67902504D01*
X149456232Y-67974911D01*
X149458789Y-67986167D01*
X149460991Y-67991112D01*
X149476645Y-68064759D01*
X149496045Y-68150148D01*
X149495968Y-68155667D01*
X149495999Y-68155813D01*
X149495999Y-68324187D01*
X149493446Y-68336197D01*
X149493223Y-68352183D01*
X149474781Y-68424008D01*
X149460991Y-68488888D01*
X149454217Y-68504103D01*
X149448533Y-68526240D01*
X149417321Y-68586972D01*
X149392506Y-68642707D01*
X149379422Y-68660716D01*
X149366391Y-68686071D01*
X149326205Y-68733963D01*
X149293539Y-68778924D01*
X149272839Y-68797563D01*
X149250880Y-68823732D01*
X149205622Y-68858085D01*
X149168407Y-68891593D01*
X149139451Y-68908311D01*
X149107741Y-68932380D01*
X149061177Y-68953502D01*
X149022593Y-68975779D01*
X148985500Y-68987831D01*
X148944089Y-69006616D01*
X148899541Y-69015761D01*
X148862453Y-69027811D01*
X148818153Y-69032467D01*
X148768056Y-69042751D01*
X148728250Y-69041917D01*
X148695000Y-69045412D01*
X148645196Y-69040177D01*
X148588392Y-69038987D01*
X148555244Y-69030722D01*
X148527547Y-69027811D01*
X148474704Y-69010641D01*
X148414027Y-68995513D01*
X148388578Y-68982658D01*
X148367407Y-68975779D01*
X148314572Y-68945274D01*
X148253627Y-68914489D01*
X148236017Y-68899921D01*
X148221593Y-68891593D01*
X148172302Y-68847211D01*
X148115163Y-68799942D01*
X148104667Y-68786313D01*
X148096461Y-68778924D01*
X148054501Y-68721171D01*
X148005518Y-68657565D01*
X148000677Y-68647088D01*
X147997494Y-68642707D01*
X147966854Y-68573890D01*
X147930141Y-68494435D01*
X147892779Y-68318658D01*
X147894001Y-68231143D01*
X147894001Y-68155813D01*
X147895127Y-68150516D01*
X147895288Y-68138973D01*
X147914170Y-68060926D01*
X147929009Y-67991112D01*
X147933500Y-67981026D01*
X147937544Y-67964309D01*
X147970514Y-67897891D01*
X147997494Y-67837293D01*
X148007283Y-67823820D01*
X148017446Y-67803346D01*
X148060604Y-67750430D01*
X148096461Y-67701076D01*
X148113004Y-67686181D01*
X148131024Y-67664086D01*
X148180298Y-67625589D01*
X148221593Y-67588407D01*
X148245713Y-67574481D01*
X148272632Y-67553450D01*
X148324039Y-67529260D01*
X148367407Y-67504221D01*
X148399203Y-67493890D01*
X148435232Y-67476936D01*
X148485183Y-67465954D01*
X148527547Y-67452189D01*
X148566331Y-67448112D01*
X148610743Y-67438348D01*
X148656209Y-67438665D01*
X148695000Y-67434588D01*
X148739308Y-67439245D01*
G37*
G36*
X146199308Y-67439245D02*
G01*
X146250442Y-67439602D01*
X146289208Y-67448695D01*
X146322453Y-67452189D01*
X146370075Y-67467662D01*
X146425397Y-67480638D01*
X146456102Y-67495614D01*
X146482593Y-67504221D01*
X146530718Y-67532006D01*
X146586913Y-67559414D01*
X146609132Y-67577278D01*
X146628407Y-67588407D01*
X146673743Y-67629227D01*
X146726962Y-67672017D01*
X146741159Y-67689929D01*
X146753539Y-67701076D01*
X146792535Y-67754749D01*
X146838584Y-67812849D01*
X146846015Y-67828360D01*
X146852506Y-67837293D01*
X146881540Y-67902504D01*
X146916232Y-67974911D01*
X146918789Y-67986167D01*
X146920991Y-67991112D01*
X146936645Y-68064759D01*
X146956045Y-68150148D01*
X146955968Y-68155667D01*
X146955999Y-68155813D01*
X146955999Y-68324187D01*
X146953446Y-68336197D01*
X146953223Y-68352183D01*
X146934781Y-68424008D01*
X146920991Y-68488888D01*
X146914217Y-68504103D01*
X146908533Y-68526240D01*
X146877321Y-68586972D01*
X146852506Y-68642707D01*
X146839422Y-68660716D01*
X146826391Y-68686071D01*
X146786205Y-68733963D01*
X146753539Y-68778924D01*
X146732839Y-68797563D01*
X146710880Y-68823732D01*
X146665622Y-68858085D01*
X146628407Y-68891593D01*
X146599451Y-68908311D01*
X146567741Y-68932380D01*
X146521177Y-68953502D01*
X146482593Y-68975779D01*
X146445500Y-68987831D01*
X146404089Y-69006616D01*
X146359541Y-69015761D01*
X146322453Y-69027811D01*
X146278153Y-69032467D01*
X146228056Y-69042751D01*
X146188250Y-69041917D01*
X146155000Y-69045412D01*
X146105196Y-69040177D01*
X146048392Y-69038987D01*
X146015244Y-69030722D01*
X145987547Y-69027811D01*
X145934704Y-69010641D01*
X145874027Y-68995513D01*
X145848578Y-68982658D01*
X145827407Y-68975779D01*
X145774572Y-68945274D01*
X145713627Y-68914489D01*
X145696017Y-68899921D01*
X145681593Y-68891593D01*
X145632302Y-68847211D01*
X145575163Y-68799942D01*
X145564667Y-68786313D01*
X145556461Y-68778924D01*
X145514501Y-68721171D01*
X145465518Y-68657565D01*
X145460677Y-68647088D01*
X145457494Y-68642707D01*
X145426854Y-68573890D01*
X145390141Y-68494435D01*
X145352779Y-68318658D01*
X145354001Y-68231143D01*
X145354001Y-68155813D01*
X145355127Y-68150516D01*
X145355288Y-68138973D01*
X145374170Y-68060926D01*
X145389009Y-67991112D01*
X145393500Y-67981026D01*
X145397544Y-67964309D01*
X145430514Y-67897891D01*
X145457494Y-67837293D01*
X145467283Y-67823820D01*
X145477446Y-67803346D01*
X145520604Y-67750430D01*
X145556461Y-67701076D01*
X145573004Y-67686181D01*
X145591024Y-67664086D01*
X145640298Y-67625589D01*
X145681593Y-67588407D01*
X145705713Y-67574481D01*
X145732632Y-67553450D01*
X145784039Y-67529260D01*
X145827407Y-67504221D01*
X145859203Y-67493890D01*
X145895232Y-67476936D01*
X145945183Y-67465954D01*
X145987547Y-67452189D01*
X146026331Y-67448112D01*
X146070743Y-67438348D01*
X146116209Y-67438665D01*
X146155000Y-67434588D01*
X146199308Y-67439245D01*
G37*
G36*
X144384899Y-67441959D02*
G01*
X144401769Y-67453231D01*
X144413041Y-67470101D01*
X144419448Y-67502312D01*
X144419448Y-68977688D01*
X144416999Y-68990000D01*
X144413041Y-69009899D01*
X144401769Y-69026769D01*
X144384899Y-69038041D01*
X144365000Y-69041999D01*
X144352688Y-69044448D01*
X142877312Y-69044448D01*
X142845101Y-69038041D01*
X142828231Y-69026769D01*
X142816959Y-69009899D01*
X142810552Y-68977688D01*
X142810552Y-67502312D01*
X142816959Y-67470101D01*
X142828231Y-67453231D01*
X142845101Y-67441959D01*
X142877312Y-67435552D01*
X144352688Y-67435552D01*
X144384899Y-67441959D01*
G37*
G36*
X168834899Y-67441959D02*
G01*
X168851769Y-67453231D01*
X168863041Y-67470101D01*
X168869448Y-67502312D01*
X168869448Y-68977688D01*
X168866999Y-68990000D01*
X168863041Y-69009899D01*
X168851769Y-69026769D01*
X168834899Y-69038041D01*
X168815000Y-69041999D01*
X168802688Y-69044448D01*
X167327312Y-69044448D01*
X167295101Y-69038041D01*
X167278231Y-69026769D01*
X167266959Y-69009899D01*
X167260552Y-68977688D01*
X167260552Y-67502312D01*
X167266959Y-67470101D01*
X167278231Y-67453231D01*
X167295101Y-67441959D01*
X167327312Y-67435552D01*
X168802688Y-67435552D01*
X168834899Y-67441959D01*
G37*
G36*
X160684899Y-67441959D02*
G01*
X160701769Y-67453231D01*
X160713041Y-67470101D01*
X160719448Y-67502312D01*
X160719448Y-68977688D01*
X160716999Y-68990000D01*
X160713041Y-69009899D01*
X160701769Y-69026769D01*
X160684899Y-69038041D01*
X160665000Y-69041999D01*
X160652688Y-69044448D01*
X159177312Y-69044448D01*
X159145101Y-69038041D01*
X159128231Y-69026769D01*
X159116959Y-69009899D01*
X159110552Y-68977688D01*
X159110552Y-67502312D01*
X159116959Y-67470101D01*
X159128231Y-67453231D01*
X159145101Y-67441959D01*
X159177312Y-67435552D01*
X160652688Y-67435552D01*
X160684899Y-67441959D01*
G37*
G36*
X152534899Y-67441959D02*
G01*
X152551769Y-67453231D01*
X152563041Y-67470101D01*
X152569448Y-67502312D01*
X152569448Y-68977688D01*
X152566999Y-68990000D01*
X152563041Y-69009899D01*
X152551769Y-69026769D01*
X152534899Y-69038041D01*
X152515000Y-69041999D01*
X152502688Y-69044448D01*
X151027312Y-69044448D01*
X150995101Y-69038041D01*
X150978231Y-69026769D01*
X150966959Y-69009899D01*
X150960552Y-68977688D01*
X150960552Y-67502312D01*
X150966959Y-67470101D01*
X150978231Y-67453231D01*
X150995101Y-67441959D01*
X151027312Y-67435552D01*
X152502688Y-67435552D01*
X152534899Y-67441959D01*
G37*
M02*
