G04 #@! TF.GenerationSoftware,KiCad,Pcbnew,5.99.0-unknown-r17121-d4cea0f2*
G04 #@! TF.CreationDate,2019-12-07T19:23:27-06:00*
G04 #@! TF.ProjectId,7_segment_led_module,375f7365-676d-4656-9e74-5f6c65645f6d,A*
G04 #@! TF.SameCoordinates,Original*
G04 #@! TF.FileFunction,Legend,Top*
G04 #@! TF.FilePolarity,Positive*
%FSLAX46Y46*%
G04 Gerber Fmt 4.6, Leading zero omitted, Abs format (unit mm)*
G04 Created by KiCad (PCBNEW 5.99.0-unknown-r17121-d4cea0f2) date 2019-12-07 19:23:27*
%MOMM*%
%LPD*%
G04 APERTURE LIST*
%ADD10C,0.120000*%
%ADD11C,0.150000*%
G04 APERTURE END LIST*
D10*
X151220000Y-91135000D02*
X153220000Y-91135000D01*
X183840000Y-71645000D02*
X133300000Y-71645000D01*
X183840000Y-90885000D02*
X183840000Y-71645000D01*
X133300000Y-90885000D02*
X183840000Y-90885000D01*
X133300000Y-90885000D02*
X133300000Y-71645000D01*
X172929184Y-69362795D02*
G75*
G02X172405000Y-70090000I-2324184J1122795D01*
G01*
X172961400Y-67141193D02*
G75*
G03X170605000Y-65640000I-2356400J-1098807D01*
G01*
X168248600Y-67141193D02*
G75*
G02X170605000Y-65640000I2356400J-1098807D01*
G01*
X168280816Y-69362795D02*
G75*
G03X168805000Y-70090000I2324184J1122795D01*
G01*
X168805000Y-70090000D02*
X172405000Y-70090000D01*
X164779184Y-69362795D02*
G75*
G02X164255000Y-70090000I-2324184J1122795D01*
G01*
X164811400Y-67141193D02*
G75*
G03X162455000Y-65640000I-2356400J-1098807D01*
G01*
X160098600Y-67141193D02*
G75*
G02X162455000Y-65640000I2356400J-1098807D01*
G01*
X160130816Y-69362795D02*
G75*
G03X160655000Y-70090000I2324184J1122795D01*
G01*
X160655000Y-70090000D02*
X164255000Y-70090000D01*
X156629184Y-69362795D02*
G75*
G02X156105000Y-70090000I-2324184J1122795D01*
G01*
X156661400Y-67141193D02*
G75*
G03X154305000Y-65640000I-2356400J-1098807D01*
G01*
X151948600Y-67141193D02*
G75*
G02X154305000Y-65640000I2356400J-1098807D01*
G01*
X151980816Y-69362795D02*
G75*
G03X152505000Y-70090000I2324184J1122795D01*
G01*
X152505000Y-70090000D02*
X156105000Y-70090000D01*
X148479184Y-69362795D02*
G75*
G02X147955000Y-70090000I-2324184J1122795D01*
G01*
X148511400Y-67141193D02*
G75*
G03X146155000Y-65640000I-2356400J-1098807D01*
G01*
X143798600Y-67141193D02*
G75*
G02X146155000Y-65640000I2356400J-1098807D01*
G01*
X143830816Y-69362795D02*
G75*
G03X144355000Y-70090000I2324184J1122795D01*
G01*
X144355000Y-70090000D02*
X147955000Y-70090000D01*
D11*
X133437380Y-70611904D02*
X134246904Y-70611904D01*
X134342142Y-70564285D01*
X134389761Y-70516666D01*
X134437380Y-70421428D01*
X134437380Y-70230952D01*
X134389761Y-70135714D01*
X134342142Y-70088095D01*
X134246904Y-70040476D01*
X133437380Y-70040476D01*
X134437380Y-69040476D02*
X134437380Y-69611904D01*
X134437380Y-69326190D02*
X133437380Y-69326190D01*
X133580238Y-69421428D01*
X133675476Y-69516666D01*
X133723095Y-69611904D01*
X170509761Y-65227619D02*
X170414523Y-65180000D01*
X170319285Y-65084761D01*
X170176428Y-64941904D01*
X170081190Y-64894285D01*
X169985952Y-64894285D01*
X170033571Y-65132380D02*
X169938333Y-65084761D01*
X169843095Y-64989523D01*
X169795476Y-64799047D01*
X169795476Y-64465714D01*
X169843095Y-64275238D01*
X169938333Y-64180000D01*
X170033571Y-64132380D01*
X170224047Y-64132380D01*
X170319285Y-64180000D01*
X170414523Y-64275238D01*
X170462142Y-64465714D01*
X170462142Y-64799047D01*
X170414523Y-64989523D01*
X170319285Y-65084761D01*
X170224047Y-65132380D01*
X170033571Y-65132380D01*
X171319285Y-64465714D02*
X171319285Y-65132380D01*
X171081190Y-64084761D02*
X170843095Y-64799047D01*
X171462142Y-64799047D01*
X162359761Y-65227619D02*
X162264523Y-65180000D01*
X162169285Y-65084761D01*
X162026428Y-64941904D01*
X161931190Y-64894285D01*
X161835952Y-64894285D01*
X161883571Y-65132380D02*
X161788333Y-65084761D01*
X161693095Y-64989523D01*
X161645476Y-64799047D01*
X161645476Y-64465714D01*
X161693095Y-64275238D01*
X161788333Y-64180000D01*
X161883571Y-64132380D01*
X162074047Y-64132380D01*
X162169285Y-64180000D01*
X162264523Y-64275238D01*
X162312142Y-64465714D01*
X162312142Y-64799047D01*
X162264523Y-64989523D01*
X162169285Y-65084761D01*
X162074047Y-65132380D01*
X161883571Y-65132380D01*
X162645476Y-64132380D02*
X163264523Y-64132380D01*
X162931190Y-64513333D01*
X163074047Y-64513333D01*
X163169285Y-64560952D01*
X163216904Y-64608571D01*
X163264523Y-64703809D01*
X163264523Y-64941904D01*
X163216904Y-65037142D01*
X163169285Y-65084761D01*
X163074047Y-65132380D01*
X162788333Y-65132380D01*
X162693095Y-65084761D01*
X162645476Y-65037142D01*
X154209761Y-65227619D02*
X154114523Y-65180000D01*
X154019285Y-65084761D01*
X153876428Y-64941904D01*
X153781190Y-64894285D01*
X153685952Y-64894285D01*
X153733571Y-65132380D02*
X153638333Y-65084761D01*
X153543095Y-64989523D01*
X153495476Y-64799047D01*
X153495476Y-64465714D01*
X153543095Y-64275238D01*
X153638333Y-64180000D01*
X153733571Y-64132380D01*
X153924047Y-64132380D01*
X154019285Y-64180000D01*
X154114523Y-64275238D01*
X154162142Y-64465714D01*
X154162142Y-64799047D01*
X154114523Y-64989523D01*
X154019285Y-65084761D01*
X153924047Y-65132380D01*
X153733571Y-65132380D01*
X154543095Y-64227619D02*
X154590714Y-64180000D01*
X154685952Y-64132380D01*
X154924047Y-64132380D01*
X155019285Y-64180000D01*
X155066904Y-64227619D01*
X155114523Y-64322857D01*
X155114523Y-64418095D01*
X155066904Y-64560952D01*
X154495476Y-65132380D01*
X155114523Y-65132380D01*
X146059761Y-65227619D02*
X145964523Y-65180000D01*
X145869285Y-65084761D01*
X145726428Y-64941904D01*
X145631190Y-64894285D01*
X145535952Y-64894285D01*
X145583571Y-65132380D02*
X145488333Y-65084761D01*
X145393095Y-64989523D01*
X145345476Y-64799047D01*
X145345476Y-64465714D01*
X145393095Y-64275238D01*
X145488333Y-64180000D01*
X145583571Y-64132380D01*
X145774047Y-64132380D01*
X145869285Y-64180000D01*
X145964523Y-64275238D01*
X146012142Y-64465714D01*
X146012142Y-64799047D01*
X145964523Y-64989523D01*
X145869285Y-65084761D01*
X145774047Y-65132380D01*
X145583571Y-65132380D01*
X146964523Y-65132380D02*
X146393095Y-65132380D01*
X146678809Y-65132380D02*
X146678809Y-64132380D01*
X146583571Y-64275238D01*
X146488333Y-64370476D01*
X146393095Y-64418095D01*
M02*
