G04 #@! TF.GenerationSoftware,KiCad,Pcbnew,5.99.0-unknown-r17121-d4cea0f2*
G04 #@! TF.CreationDate,2019-12-07T19:23:26-06:00*
G04 #@! TF.ProjectId,7_segment_led_module,375f7365-676d-4656-9e74-5f6c65645f6d,A*
G04 #@! TF.SameCoordinates,Original*
G04 #@! TF.FileFunction,Copper,L2,Bot*
G04 #@! TF.FilePolarity,Positive*
%FSLAX46Y46*%
G04 Gerber Fmt 4.6, Leading zero omitted, Abs format (unit mm)*
G04 Created by KiCad (PCBNEW 5.99.0-unknown-r17121-d4cea0f2) date 2019-12-07 19:23:26*
%MOMM*%
%LPD*%
G04 APERTURE LIST*
%ADD10C,1.500000*%
%ADD11R,1.500000X1.500000*%
%ADD12O,1.700000X1.700000*%
%ADD13R,1.700000X1.700000*%
%ADD14C,0.250000*%
%ADD15C,0.400000*%
G04 APERTURE END LIST*
D10*
X152220000Y-73645000D03*
X154760000Y-73645000D03*
X157300000Y-73645000D03*
X159840000Y-73645000D03*
X162380000Y-73645000D03*
X164920000Y-73645000D03*
X164920000Y-88885000D03*
X162380000Y-88885000D03*
X159840000Y-88885000D03*
X157300000Y-88885000D03*
X154760000Y-88885000D03*
D11*
X152220000Y-88885000D03*
X168065000Y-68240000D03*
D10*
X173145000Y-68240000D03*
X170605000Y-68240000D03*
D11*
X159915000Y-68240000D03*
D10*
X164995000Y-68240000D03*
X162455000Y-68240000D03*
D11*
X151765000Y-68240000D03*
D10*
X156845000Y-68240000D03*
X154305000Y-68240000D03*
D11*
X143615000Y-68240000D03*
D10*
X148695000Y-68240000D03*
X146155000Y-68240000D03*
D12*
X134620000Y-96520000D03*
X134620000Y-93980000D03*
X137160000Y-96520000D03*
X137160000Y-93980000D03*
X139700000Y-96520000D03*
X139700000Y-93980000D03*
X142240000Y-96520000D03*
X142240000Y-93980000D03*
X144780000Y-96520000D03*
X144780000Y-93980000D03*
X147320000Y-96520000D03*
X147320000Y-93980000D03*
X149860000Y-96520000D03*
X149860000Y-93980000D03*
X152400000Y-96520000D03*
X152400000Y-93980000D03*
X154940000Y-96520000D03*
X154940000Y-93980000D03*
X157480000Y-96520000D03*
X157480000Y-93980000D03*
X160020000Y-96520000D03*
X160020000Y-93980000D03*
X162560000Y-96520000D03*
X162560000Y-93980000D03*
X165100000Y-96520000D03*
X165100000Y-93980000D03*
X167640000Y-96520000D03*
X167640000Y-93980000D03*
X170180000Y-96520000D03*
X170180000Y-93980000D03*
X172720000Y-96520000D03*
X172720000Y-93980000D03*
X175260000Y-96520000D03*
X175260000Y-93980000D03*
X177800000Y-96520000D03*
X177800000Y-93980000D03*
X180340000Y-96520000D03*
X180340000Y-93980000D03*
X182880000Y-96520000D03*
D13*
X182880000Y-93980000D03*
D14*
X134620000Y-96520000D02*
X134620000Y-95344700D01*
X134620000Y-95344700D02*
X134987400Y-95344700D01*
X134987400Y-95344700D02*
X135795300Y-94536800D01*
X135795300Y-94536800D02*
X135795300Y-78599700D01*
X135795300Y-78599700D02*
X146155000Y-68240000D01*
D15*
X172720000Y-92804700D02*
X168065000Y-88149700D01*
X168065000Y-88149700D02*
X168065000Y-68240000D01*
D14*
X147320000Y-96520000D02*
X148495300Y-96520000D01*
X152400000Y-93980000D02*
X151224700Y-93980000D01*
X151224700Y-93980000D02*
X151224700Y-94347400D01*
X151224700Y-94347400D02*
X150227400Y-95344700D01*
X150227400Y-95344700D02*
X149303200Y-95344700D01*
X149303200Y-95344700D02*
X148495300Y-96152600D01*
X148495300Y-96152600D02*
X148495300Y-96520000D01*
X142240000Y-96520000D02*
X143415300Y-96520000D01*
X147320000Y-96520000D02*
X146144700Y-96520000D01*
X146144700Y-96520000D02*
X146144700Y-96887300D01*
X146144700Y-96887300D02*
X145336700Y-97695300D01*
X145336700Y-97695300D02*
X144223200Y-97695300D01*
X144223200Y-97695300D02*
X143415300Y-96887400D01*
X143415300Y-96887400D02*
X143415300Y-96520000D01*
D15*
X172720000Y-93980000D02*
X172720000Y-92804700D01*
D14*
X160020000Y-96520000D02*
X161195300Y-96520000D01*
X167640000Y-96520000D02*
X166464700Y-96520000D01*
X166464700Y-96520000D02*
X166464700Y-96887300D01*
X166464700Y-96887300D02*
X165656700Y-97695300D01*
X165656700Y-97695300D02*
X162003200Y-97695300D01*
X162003200Y-97695300D02*
X161195300Y-96887400D01*
X161195300Y-96887400D02*
X161195300Y-96520000D01*
X137160000Y-96520000D02*
X137160000Y-95344700D01*
X137160000Y-95344700D02*
X137527400Y-95344700D01*
X137527400Y-95344700D02*
X138335300Y-94536800D01*
X138335300Y-94536800D02*
X138335300Y-84209700D01*
X138335300Y-84209700D02*
X154305000Y-68240000D01*
X139700000Y-96520000D02*
X139700000Y-95344700D01*
X139700000Y-95344700D02*
X140067400Y-95344700D01*
X140067400Y-95344700D02*
X140875300Y-94536800D01*
X140875300Y-94536800D02*
X140875300Y-92969600D01*
X140875300Y-92969600D02*
X155210400Y-78634500D01*
X155210400Y-78634500D02*
X155210400Y-74894800D01*
X155210400Y-74894800D02*
X156030000Y-74075200D01*
X156030000Y-74075200D02*
X156030000Y-73355200D01*
X156030000Y-73355200D02*
X160066600Y-69318600D01*
X160066600Y-69318600D02*
X161376400Y-69318600D01*
X161376400Y-69318600D02*
X162455000Y-68240000D01*
X154760000Y-73645000D02*
X154760000Y-77744700D01*
X154760000Y-77744700D02*
X139700000Y-92804700D01*
X139700000Y-93980000D02*
X139700000Y-92804700D01*
X154940000Y-93980000D02*
X154940000Y-92804700D01*
X154940000Y-92804700D02*
X155870700Y-91874000D01*
X155870700Y-91874000D02*
X155870700Y-75074300D01*
X155870700Y-75074300D02*
X157300000Y-73645000D01*
X157480000Y-93980000D02*
X158655300Y-93980000D01*
X158655300Y-93980000D02*
X158655300Y-94347300D01*
X158655300Y-94347300D02*
X159503300Y-95195300D01*
X159503300Y-95195300D02*
X160469500Y-95195300D01*
X160469500Y-95195300D02*
X161200200Y-94464600D01*
X161200200Y-94464600D02*
X161200200Y-90245200D01*
X161200200Y-90245200D02*
X159840000Y-88885000D01*
X160020000Y-93980000D02*
X160020000Y-92804700D01*
X160020000Y-92804700D02*
X157300000Y-90084700D01*
X157300000Y-90084700D02*
X157300000Y-88885000D01*
X167640000Y-93980000D02*
X166464700Y-93980000D01*
X166464700Y-93980000D02*
X166464700Y-92969700D01*
X166464700Y-92969700D02*
X162380000Y-88885000D01*
X164995000Y-68240000D02*
X164995000Y-71030000D01*
X164995000Y-71030000D02*
X162380000Y-73645000D01*
D15*
X161290000Y-66675000D02*
X159915000Y-68050000D01*
X165424700Y-66675000D02*
X161290000Y-66675000D01*
X168065000Y-68240000D02*
X166989700Y-68240000D01*
X159915000Y-68050000D02*
X159915000Y-68240000D01*
X166989700Y-68240000D02*
X165424700Y-66675000D01*
X159680000Y-68240000D02*
X159915000Y-68240000D01*
X158115000Y-66675000D02*
X159680000Y-68240000D01*
X153035000Y-66675000D02*
X158115000Y-66675000D01*
X151765000Y-68240000D02*
X151765000Y-67945000D01*
X151765000Y-67945000D02*
X153035000Y-66675000D01*
M02*
