G04 #@! TF.GenerationSoftware,KiCad,Pcbnew,5.99.0-unknown-r17121-d4cea0f2*
G04 #@! TF.CreationDate,2019-12-07T19:23:26-06:00*
G04 #@! TF.ProjectId,7_segment_led_module,375f7365-676d-4656-9e74-5f6c65645f6d,A*
G04 #@! TF.SameCoordinates,Original*
G04 #@! TF.FileFunction,Copper,L1,Top*
G04 #@! TF.FilePolarity,Positive*
%FSLAX46Y46*%
G04 Gerber Fmt 4.6, Leading zero omitted, Abs format (unit mm)*
G04 Created by KiCad (PCBNEW 5.99.0-unknown-r17121-d4cea0f2) date 2019-12-07 19:23:26*
%MOMM*%
%LPD*%
G04 APERTURE LIST*
%ADD10C,1.500000*%
%ADD11R,1.500000X1.500000*%
%ADD12O,1.700000X1.700000*%
%ADD13R,1.700000X1.700000*%
%ADD14C,0.250000*%
%ADD15C,0.400000*%
%ADD16C,0.254000*%
G04 APERTURE END LIST*
D10*
X152220000Y-73645000D03*
X154760000Y-73645000D03*
X157300000Y-73645000D03*
X159840000Y-73645000D03*
X162380000Y-73645000D03*
X164920000Y-73645000D03*
X164920000Y-88885000D03*
X162380000Y-88885000D03*
X159840000Y-88885000D03*
X157300000Y-88885000D03*
X154760000Y-88885000D03*
D11*
X152220000Y-88885000D03*
X168065000Y-68240000D03*
D10*
X173145000Y-68240000D03*
X170605000Y-68240000D03*
D11*
X159915000Y-68240000D03*
D10*
X164995000Y-68240000D03*
X162455000Y-68240000D03*
D11*
X151765000Y-68240000D03*
D10*
X156845000Y-68240000D03*
X154305000Y-68240000D03*
D11*
X143615000Y-68240000D03*
D10*
X148695000Y-68240000D03*
X146155000Y-68240000D03*
D12*
X134620000Y-96520000D03*
X134620000Y-93980000D03*
X137160000Y-96520000D03*
X137160000Y-93980000D03*
X139700000Y-96520000D03*
X139700000Y-93980000D03*
X142240000Y-96520000D03*
X142240000Y-93980000D03*
X144780000Y-96520000D03*
X144780000Y-93980000D03*
X147320000Y-96520000D03*
X147320000Y-93980000D03*
X149860000Y-96520000D03*
X149860000Y-93980000D03*
X152400000Y-96520000D03*
X152400000Y-93980000D03*
X154940000Y-96520000D03*
X154940000Y-93980000D03*
X157480000Y-96520000D03*
X157480000Y-93980000D03*
X160020000Y-96520000D03*
X160020000Y-93980000D03*
X162560000Y-96520000D03*
X162560000Y-93980000D03*
X165100000Y-96520000D03*
X165100000Y-93980000D03*
X167640000Y-96520000D03*
X167640000Y-93980000D03*
X170180000Y-96520000D03*
X170180000Y-93980000D03*
X172720000Y-96520000D03*
X172720000Y-93980000D03*
X175260000Y-96520000D03*
X175260000Y-93980000D03*
X177800000Y-96520000D03*
X177800000Y-93980000D03*
X180340000Y-96520000D03*
X180340000Y-93980000D03*
X182880000Y-96520000D03*
D13*
X182880000Y-93980000D03*
D14*
X152400000Y-93980000D02*
X153575300Y-93980000D01*
X160020000Y-96520000D02*
X158844700Y-96520000D01*
X158844700Y-96520000D02*
X158844700Y-96152600D01*
X158844700Y-96152600D02*
X157847400Y-95155300D01*
X157847400Y-95155300D02*
X154383200Y-95155300D01*
X154383200Y-95155300D02*
X153575300Y-94347400D01*
X153575300Y-94347400D02*
X153575300Y-93980000D01*
X134620000Y-93980000D02*
X135795300Y-93980000D01*
X142240000Y-96520000D02*
X141064700Y-96520000D01*
X141064700Y-96520000D02*
X141064700Y-96152600D01*
X141064700Y-96152600D02*
X140067400Y-95155300D01*
X140067400Y-95155300D02*
X136603200Y-95155300D01*
X136603200Y-95155300D02*
X135795300Y-94347400D01*
X135795300Y-94347400D02*
X135795300Y-93980000D01*
X168227700Y-96520000D02*
X167640000Y-96520000D01*
X168227700Y-96520000D02*
X168815300Y-96520000D01*
X172720000Y-93980000D02*
X171544700Y-93980000D01*
X171544700Y-93980000D02*
X171544700Y-94347400D01*
X171544700Y-94347400D02*
X170547400Y-95344700D01*
X170547400Y-95344700D02*
X169623200Y-95344700D01*
X169623200Y-95344700D02*
X168815300Y-96152600D01*
X168815300Y-96152600D02*
X168815300Y-96520000D01*
X137160000Y-93980000D02*
X138335300Y-93980000D01*
X138335300Y-93980000D02*
X138335300Y-93612700D01*
X138335300Y-93612700D02*
X156148300Y-75799700D01*
X156148300Y-75799700D02*
X162765300Y-75799700D01*
X162765300Y-75799700D02*
X164920000Y-73645000D01*
X144780000Y-96520000D02*
X144780000Y-95344700D01*
X144780000Y-95344700D02*
X145147400Y-95344700D01*
X145147400Y-95344700D02*
X145955300Y-94536800D01*
X145955300Y-94536800D02*
X145955300Y-93166800D01*
X145955300Y-93166800D02*
X151821700Y-87300400D01*
X151821700Y-87300400D02*
X152798700Y-87300400D01*
X152798700Y-87300400D02*
X170605000Y-69494100D01*
X170605000Y-69494100D02*
X170605000Y-68240000D01*
X152220000Y-88885000D02*
X153295300Y-88885000D01*
X165100000Y-96520000D02*
X163924700Y-96520000D01*
X163924700Y-96520000D02*
X163924700Y-96152600D01*
X163924700Y-96152600D02*
X163116800Y-95344700D01*
X163116800Y-95344700D02*
X162223700Y-95344700D01*
X162223700Y-95344700D02*
X161290000Y-94411000D01*
X161290000Y-94411000D02*
X161290000Y-93525900D01*
X161290000Y-93525900D02*
X160568700Y-92804600D01*
X160568700Y-92804600D02*
X157080500Y-92804600D01*
X157080500Y-92804600D02*
X153295300Y-89019400D01*
X153295300Y-89019400D02*
X153295300Y-88885000D01*
X165100000Y-93980000D02*
X163924700Y-93980000D01*
X163924700Y-93980000D02*
X163924700Y-93612700D01*
X163924700Y-93612700D02*
X160858400Y-90546400D01*
X160858400Y-90546400D02*
X156421400Y-90546400D01*
X156421400Y-90546400D02*
X154760000Y-88885000D01*
X148695000Y-68240000D02*
X152220000Y-71765000D01*
X152220000Y-71765000D02*
X152220000Y-73645000D01*
X156845000Y-68240000D02*
X159840000Y-71235000D01*
X159840000Y-71235000D02*
X159840000Y-73645000D01*
X173145000Y-68240000D02*
X164920000Y-76465000D01*
X164920000Y-76465000D02*
X164920000Y-88885000D01*
D15*
X151765000Y-67945000D02*
X151765000Y-68240000D01*
X150495000Y-66675000D02*
X151765000Y-67945000D01*
X143615000Y-68240000D02*
X143615000Y-67840000D01*
X144780000Y-66675000D02*
X150495000Y-66675000D01*
X143615000Y-67840000D02*
X144780000Y-66675000D01*
G36*
X182806851Y-64135139D02*
G01*
X182822796Y-64136659D01*
X182991252Y-64151693D01*
X183098984Y-64181165D01*
X183199796Y-64229250D01*
X183290503Y-64294430D01*
X183368226Y-64374633D01*
X183430527Y-64467348D01*
X183475421Y-64569617D01*
X183502676Y-64683143D01*
X183513150Y-64825768D01*
X183517348Y-64844940D01*
X183563212Y-67184000D01*
X176656000Y-67184000D01*
X176656000Y-64134000D01*
X182802265Y-64134000D01*
X182806851Y-64135139D01*
G37*
D16*
X182806851Y-64135139D02*
X182822796Y-64136659D01*
X182991252Y-64151693D01*
X183098984Y-64181165D01*
X183199796Y-64229250D01*
X183290503Y-64294430D01*
X183368226Y-64374633D01*
X183430527Y-64467348D01*
X183475421Y-64569617D01*
X183502676Y-64683143D01*
X183513150Y-64825768D01*
X183517348Y-64844940D01*
X183563212Y-67184000D01*
X176656000Y-67184000D01*
X176656000Y-64134000D01*
X182802265Y-64134000D01*
X182806851Y-64135139D01*
M02*
