M48
; DRILL file {KiCad 5.99.0-unknown-r17121-d4cea0f2} date Fri 06 Dec 2019 09:45:28 PM CST
; FORMAT={-:-/ absolute / inch / decimal}
; #@! TF.CreationDate,2019-12-06T21:45:28-06:00
; #@! TF.GenerationSoftware,Kicad,Pcbnew,5.99.0-unknown-r17121-d4cea0f2
FMAT,2
INCH
T1C0.0315
T2C0.0394
%
G90
G05
T1
X5.6541Y-2.6866
X5.7541Y-2.6866
X5.8541Y-2.6866
X6.2959Y-2.6866
X6.3959Y-2.6866
X6.4959Y-2.6866
X6.6167Y-2.6866
X6.7167Y-2.6866
X6.8167Y-2.6866
X5.975Y-2.6866
X6.075Y-2.6866
X6.175Y-2.6866
T2
X5.9929Y-2.8994
X5.9929Y-3.4994
X6.0929Y-2.8994
X6.0929Y-3.4994
X6.1929Y-2.8994
X6.1929Y-3.4994
X6.2929Y-2.8994
X6.2929Y-3.4994
X6.3929Y-2.8994
X6.3929Y-3.4994
X6.4929Y-2.8994
X6.4929Y-3.4994
X5.3Y-3.7
X5.3Y-3.8
X5.4Y-3.7
X5.4Y-3.8
X5.5Y-3.7
X5.5Y-3.8
X5.6Y-3.7
X5.6Y-3.8
X5.7Y-3.7
X5.7Y-3.8
X5.8Y-3.7
X5.8Y-3.8
X5.9Y-3.7
X5.9Y-3.8
X6.0Y-3.7
X6.0Y-3.8
X6.1Y-3.7
X6.1Y-3.8
X6.2Y-3.7
X6.2Y-3.8
X6.3Y-3.7
X6.3Y-3.8
X6.4Y-3.7
X6.4Y-3.8
X6.5Y-3.7
X6.5Y-3.8
X6.6Y-3.7
X6.6Y-3.8
X6.7Y-3.7
X6.7Y-3.8
X6.8Y-3.7
X6.8Y-3.8
X6.9Y-3.7
X6.9Y-3.8
X7.0Y-3.7
X7.0Y-3.8
X7.1Y-3.7
X7.1Y-3.8
X7.2Y-3.7
X7.2Y-3.8
T0
M30
